<?xml version="1.0" encoding="UTF-8"?>
<svg width="22" height="22" version="1.1" viewBox="0 0 1200 1200" xmlns="http://www.w3.org/2000/svg">
 <path d="m961.44 910.56-176.88-176.88 6.1211-8.2812c40.078-54 61.199-118.08 61.199-185.4 0-172.08-139.92-312-312-312-172.08 0-312 139.92-312 312s139.92 312 312 312c67.199 0 131.28-21.121 185.4-61.199l8.2812-6.1211 176.88 176.88c13.559 13.559 37.32 13.559 50.879 0 14.039-14.039 14.039-36.84 0-50.879zm-421.44-130.56c-132.36 0-240-107.64-240-240s107.64-240 240-240 240 107.64 240 240-107.64 240-240 240z" fill="#1f2937"/>
</svg>
