<svg width="1110" height="728" viewBox="0 0 1110 728" fill="none" xmlns="http://www.w3.org/2000/svg">
    <rect width="1110" height="728" fill="white" />
    <path
        d="M585.914 660.455L589.43 671.506H589.565L593.087 660.455H596.496L591.482 675H587.519L582.498 660.455H585.914ZM601.669 675.213C600.566 675.213 599.612 674.979 598.807 674.51C598.006 674.036 597.389 673.378 596.953 672.536C596.517 671.688 596.3 670.705 596.3 669.588C596.3 668.461 596.517 667.476 596.953 666.634C597.389 665.786 598.006 665.128 598.807 664.659C599.612 664.186 600.566 663.949 601.669 663.949C602.772 663.949 603.724 664.186 604.524 664.659C605.329 665.128 605.949 665.786 606.385 666.634C606.82 667.476 607.038 668.461 607.038 669.588C607.038 670.705 606.82 671.688 606.385 672.536C605.949 673.378 605.329 674.036 604.524 674.51C603.724 674.979 602.772 675.213 601.669 675.213ZM601.683 672.869C602.185 672.869 602.604 672.727 602.94 672.443C603.276 672.154 603.53 671.761 603.7 671.264C603.875 670.767 603.963 670.201 603.963 669.567C603.963 668.932 603.875 668.366 603.7 667.869C603.53 667.372 603.276 666.979 602.94 666.69C602.604 666.402 602.185 666.257 601.683 666.257C601.176 666.257 600.75 666.402 600.405 666.69C600.064 666.979 599.806 667.372 599.631 667.869C599.46 668.366 599.375 668.932 599.375 669.567C599.375 670.201 599.46 670.767 599.631 671.264C599.806 671.761 600.064 672.154 600.405 672.443C600.75 672.727 601.176 672.869 601.683 672.869ZM614.588 664.091V666.364H608.018V664.091H614.588ZM609.51 661.477H612.536V671.648C612.536 671.927 612.578 672.145 612.663 672.301C612.749 672.453 612.867 672.559 613.018 672.621C613.175 672.682 613.355 672.713 613.558 672.713C613.7 672.713 613.842 672.701 613.984 672.678C614.126 672.649 614.235 672.628 614.311 672.614L614.787 674.865C614.635 674.912 614.422 674.967 614.148 675.028C613.873 675.095 613.539 675.135 613.146 675.149C612.417 675.178 611.778 675.08 611.229 674.858C610.684 674.635 610.26 674.29 609.957 673.821C609.654 673.352 609.505 672.76 609.51 672.045V661.477ZM621.193 675.213C620.071 675.213 619.105 674.986 618.296 674.531C617.491 674.072 616.87 673.423 616.435 672.585C615.999 671.742 615.781 670.746 615.781 669.595C615.781 668.473 615.999 667.488 616.435 666.641C616.87 665.793 617.484 665.133 618.274 664.659C619.07 664.186 620.003 663.949 621.073 663.949C621.792 663.949 622.462 664.065 623.083 664.297C623.708 664.524 624.252 664.867 624.716 665.327C625.185 665.786 625.549 666.364 625.81 667.06C626.07 667.751 626.2 668.561 626.2 669.489V670.32H616.989V668.445H623.352C623.352 668.009 623.258 667.623 623.068 667.287C622.879 666.951 622.616 666.688 622.28 666.499C621.949 666.304 621.563 666.207 621.122 666.207C620.663 666.207 620.256 666.314 619.901 666.527C619.55 666.735 619.276 667.017 619.077 667.372C618.878 667.723 618.776 668.113 618.771 668.544V670.327C618.771 670.866 618.871 671.333 619.07 671.726C619.273 672.119 619.56 672.422 619.929 672.635C620.298 672.848 620.736 672.955 621.243 672.955C621.579 672.955 621.887 672.907 622.166 672.812C622.446 672.718 622.685 672.576 622.884 672.386C623.083 672.197 623.234 671.965 623.338 671.69L626.137 671.875C625.994 672.547 625.703 673.134 625.263 673.636C624.827 674.134 624.264 674.522 623.573 674.801C622.886 675.076 622.093 675.213 621.193 675.213ZM637.032 667.202L634.262 667.372C634.214 667.135 634.113 666.922 633.956 666.733C633.8 666.539 633.594 666.385 633.338 666.271C633.087 666.153 632.787 666.094 632.436 666.094C631.968 666.094 631.572 666.193 631.25 666.392C630.928 666.586 630.767 666.847 630.767 667.173C630.767 667.434 630.872 667.654 631.08 667.834C631.288 668.014 631.646 668.158 632.152 668.267L634.127 668.665C635.187 668.883 635.978 669.233 636.499 669.716C637.02 670.199 637.28 670.833 637.28 671.619C637.28 672.334 637.069 672.962 636.648 673.501C636.231 674.041 635.658 674.463 634.929 674.766C634.205 675.064 633.369 675.213 632.422 675.213C630.978 675.213 629.828 674.912 628.971 674.311C628.118 673.705 627.619 672.881 627.472 671.839L630.448 671.683C630.538 672.124 630.756 672.46 631.101 672.692C631.447 672.919 631.89 673.033 632.429 673.033C632.96 673.033 633.386 672.931 633.708 672.727C634.034 672.519 634.2 672.251 634.205 671.925C634.2 671.65 634.084 671.425 633.857 671.25C633.63 671.07 633.279 670.933 632.806 670.838L630.917 670.462C629.851 670.249 629.058 669.879 628.537 669.354C628.021 668.828 627.763 668.158 627.763 667.344C627.763 666.643 627.953 666.039 628.331 665.533C628.715 665.026 629.252 664.635 629.944 664.361C630.64 664.086 631.454 663.949 632.387 663.949C633.765 663.949 634.849 664.24 635.64 664.822C636.435 665.405 636.899 666.198 637.032 667.202Z"
        fill="black" />
    <path
        d="M76 413.289L61.4545 413.289L61.4545 407.55C61.4545 406.452 61.651 405.514 62.044 404.738C62.4323 403.956 62.9839 403.362 63.6989 402.955C64.4091 402.543 65.2448 402.337 66.206 402.337C67.1719 402.337 68.0028 402.545 68.6989 402.962C69.3902 403.379 69.9205 403.982 70.2898 404.773C70.6591 405.559 70.8437 406.511 70.8437 407.628L70.8437 411.471L68.3722 411.471L68.3722 408.125C68.3722 407.538 68.2917 407.051 68.1307 406.662C67.9697 406.274 67.7282 405.985 67.4062 405.796C67.0843 405.602 66.6842 405.505 66.206 405.505C65.723 405.505 65.3158 405.602 64.9844 405.796C64.6529 405.985 64.402 406.276 64.2315 406.669C64.0563 407.058 63.9687 407.548 63.9687 408.14L63.9687 410.213L76 410.213L76 413.289ZM69.3807 405.434L76 401.819L76 405.213L69.3807 408.75L69.3807 405.434ZM76.2131 395.645C76.2131 396.767 75.9858 397.733 75.5312 398.542C75.072 399.347 74.4233 399.968 73.5852 400.403C72.7424 400.839 71.7457 401.057 70.5952 401.057C69.473 401.057 68.4882 400.839 67.6406 400.403C66.7931 399.968 66.1326 399.355 65.6591 398.564C65.1856 397.768 64.9489 396.836 64.9489 395.766C64.9489 395.046 65.0649 394.376 65.2969 393.756C65.5241 393.131 65.8674 392.586 66.3267 392.122C66.786 391.653 67.3636 391.289 68.0597 391.028C68.7509 390.768 69.5606 390.638 70.4886 390.638L71.3196 390.638L71.3196 399.849L69.4446 399.849L69.4446 393.486C69.009 393.486 68.6231 393.58 68.2869 393.77C67.9508 393.959 67.688 394.222 67.4986 394.558C67.3044 394.89 67.2074 395.275 67.2074 395.716C67.2074 396.175 67.3139 396.582 67.527 396.937C67.7353 397.288 68.017 397.562 68.3722 397.761C68.7225 397.96 69.1132 398.062 69.544 398.067L71.3267 398.067C71.8665 398.067 72.3329 397.967 72.7259 397.768C73.1188 397.565 73.4219 397.278 73.6349 396.909C73.848 396.54 73.9545 396.102 73.9545 395.595C73.9545 395.259 73.9072 394.951 73.8125 394.672C73.7178 394.392 73.5758 394.153 73.3864 393.954C73.197 393.756 72.965 393.604 72.6903 393.5L72.875 390.702C73.5473 390.844 74.1345 391.135 74.6364 391.575C75.1335 392.011 75.5218 392.574 75.8011 393.266C76.0758 393.952 76.2131 394.745 76.2131 395.645ZM80.0909 381.674L74.2528 381.674L74.2528 381.767C74.5559 381.909 74.8565 382.11 75.1548 382.37C75.4484 382.626 75.6922 382.96 75.8864 383.372C76.0805 383.779 76.1776 384.276 76.1776 384.863C76.1776 385.692 75.9645 386.442 75.5384 387.115C75.1075 387.782 74.4754 388.313 73.642 388.706C72.804 389.094 71.7765 389.288 70.5597 389.288C69.3097 389.288 68.2704 389.087 67.4418 388.684C66.6084 388.282 65.9858 387.747 65.5739 387.079C65.1572 386.407 64.9489 385.671 64.9489 384.87C64.9489 384.26 65.053 383.751 65.2614 383.343C65.465 382.932 65.7206 382.6 66.0284 382.349C66.3314 382.093 66.6297 381.899 66.9233 381.767L66.9233 381.639L65.0909 381.639L65.0909 378.656L80.0909 378.656L80.0909 381.674ZM73.7699 383.905C73.7699 383.417 73.6373 383.005 73.3722 382.669C73.1023 382.328 72.7259 382.067 72.2429 381.887C71.7599 381.703 71.1941 381.611 70.5455 381.611C69.8968 381.611 69.3333 381.7 68.8551 381.88C68.3769 382.06 68.0076 382.321 67.7472 382.662C67.4867 383.003 67.3565 383.417 67.3565 383.905C67.3565 384.402 67.4915 384.821 67.7614 385.162C68.0312 385.503 68.4053 385.761 68.8835 385.936C69.3617 386.111 69.9157 386.199 70.5455 386.199C71.1799 386.199 71.741 386.111 72.2287 385.936C72.7116 385.756 73.0904 385.498 73.3651 385.162C73.6349 384.821 73.7699 384.402 73.7699 383.905ZM76.1847 374.679C76.1847 375.147 76.0189 375.55 75.6875 375.886C75.3513 376.217 74.9489 376.383 74.4801 376.383C74.0161 376.383 73.6184 376.217 73.2869 375.886C72.9555 375.55 72.7898 375.147 72.7898 374.679C72.7898 374.224 72.9555 373.826 73.2869 373.485C73.6184 373.144 74.0161 372.974 74.4801 372.974C74.7926 372.974 75.0791 373.054 75.3395 373.215C75.5952 373.372 75.8011 373.578 75.9574 373.833C76.1089 374.089 76.1847 374.371 76.1847 374.679ZM65.6378 359.037C65.0649 359.094 64.6198 359.338 64.3026 359.769C63.9853 360.2 63.8267 360.784 63.8267 361.523C63.8267 362.025 63.8977 362.449 64.0398 362.794C64.1771 363.14 64.3688 363.405 64.6151 363.59C64.8613 363.77 65.1406 363.86 65.4531 363.86C65.7135 363.869 65.9408 363.815 66.1349 363.696C66.3291 363.573 66.4972 363.405 66.6392 363.192C66.7765 362.979 66.8973 362.733 67.0014 362.453C67.1008 362.174 67.1861 361.876 67.2571 361.559L67.5696 360.252C67.7116 359.617 67.901 359.035 68.1378 358.505C68.3745 357.974 68.6657 357.515 69.0114 357.127C69.357 356.738 69.7642 356.438 70.233 356.225C70.7017 356.007 71.2391 355.896 71.8452 355.891C72.7353 355.896 73.5071 356.123 74.1605 356.573C74.8092 357.018 75.3134 357.662 75.6733 358.505C76.0284 359.343 76.206 360.353 76.206 361.537C76.206 362.711 76.026 363.734 75.6662 364.605C75.3063 365.472 74.7737 366.149 74.0682 366.637C73.358 367.12 72.4796 367.373 71.4332 367.397L71.4332 364.421C71.9209 364.388 72.3281 364.248 72.6548 364.002C72.9768 363.751 73.2206 363.417 73.3864 363C73.5473 362.579 73.6278 362.103 73.6278 361.573C73.6278 361.052 73.5521 360.6 73.4006 360.216C73.2491 359.828 73.0383 359.527 72.7685 359.314C72.4986 359.101 72.1884 358.995 71.8381 358.995C71.5114 358.995 71.2367 359.092 71.0142 359.286C70.7917 359.475 70.6023 359.755 70.446 360.124C70.2898 360.488 70.1477 360.936 70.0199 361.466L69.6222 363.05C69.3239 364.276 68.8575 365.245 68.223 365.955C67.5885 366.665 66.7339 367.018 65.6591 367.013C64.7784 367.018 64.009 366.783 63.3509 366.31C62.6927 365.832 62.179 365.176 61.8097 364.343C61.4403 363.509 61.2557 362.562 61.2557 361.502C61.2557 360.422 61.4403 359.48 61.8097 358.675C62.179 357.865 62.6927 357.236 63.3508 356.786C64.009 356.336 64.7713 356.104 65.6378 356.09L65.6378 359.037ZM65.0909 348.297L67.3636 348.297L67.3636 354.866L65.0909 354.866L65.0909 348.297ZM62.4773 353.375L62.4773 350.349L72.6477 350.349C72.9271 350.349 73.1449 350.307 73.3011 350.221C73.4526 350.136 73.5592 350.018 73.6207 349.866C73.6823 349.71 73.7131 349.53 73.7131 349.326C73.7131 349.184 73.7012 349.042 73.6776 348.9C73.6491 348.758 73.6278 348.649 73.6136 348.574L75.8651 348.098C75.9124 348.249 75.9669 348.462 76.0284 348.737C76.0947 349.012 76.1349 349.345 76.1491 349.738C76.1776 350.468 76.0805 351.107 75.858 351.656C75.6354 352.2 75.2898 352.624 74.821 352.927C74.3523 353.23 73.7604 353.379 73.0455 353.375L62.4773 353.375ZM76.206 343.435C76.206 344.131 76.0852 344.751 75.8437 345.296C75.5975 345.84 75.2353 346.271 74.7571 346.588C74.2741 346.901 73.6728 347.057 72.9531 347.057C72.3471 347.057 71.8381 346.946 71.4261 346.723C71.0142 346.501 70.6828 346.198 70.4318 345.814C70.1809 345.431 69.9915 344.995 69.8636 344.507C69.7358 344.015 69.6458 343.499 69.5937 342.959C69.5275 342.325 69.4659 341.813 69.4091 341.425C69.3475 341.037 69.2576 340.755 69.1392 340.58C69.0208 340.405 68.8456 340.317 68.6136 340.317L68.571 340.317C68.1212 340.317 67.7732 340.459 67.527 340.743C67.2808 341.023 67.1577 341.42 67.1577 341.936C67.1577 342.481 67.2784 342.914 67.5199 343.236C67.7566 343.558 68.0549 343.771 68.4148 343.875L68.1875 346.674C67.5246 346.532 66.9517 346.252 66.4687 345.836C65.9811 345.419 65.607 344.881 65.3466 344.223C65.0814 343.56 64.9489 342.793 64.9489 341.922C64.9489 341.316 65.0199 340.736 65.1619 340.182C65.304 339.623 65.5241 339.129 65.8224 338.698C66.1207 338.262 66.5043 337.919 66.973 337.668C67.437 337.417 67.9934 337.291 68.642 337.291L76 337.291L76 340.161L74.4872 340.161L74.4872 340.246C74.8281 340.421 75.1288 340.656 75.3892 340.949C75.6449 341.243 75.8461 341.595 75.9929 342.007C76.1349 342.419 76.206 342.895 76.206 343.435ZM74.1179 342.568C74.1179 342.123 74.0303 341.73 73.8551 341.389C73.6752 341.049 73.4337 340.781 73.1307 340.587C72.8276 340.393 72.4844 340.296 72.1008 340.296L70.9432 340.296C71.0047 340.39 71.0615 340.521 71.1136 340.686C71.161 340.847 71.206 341.03 71.2486 341.233C71.2865 341.437 71.322 341.64 71.3551 341.844C71.3835 342.048 71.4096 342.232 71.4332 342.398C71.4853 342.753 71.5682 343.063 71.6818 343.328C71.7955 343.594 71.9493 343.8 72.1435 343.946C72.3329 344.093 72.5696 344.166 72.8537 344.166C73.2656 344.166 73.5805 344.017 73.7983 343.719C74.0114 343.416 74.1179 343.032 74.1179 342.568ZM72.8608 332.423L69.2315 332.416L69.2315 331.975L65.0909 328.481L65.0909 325.008L70.5739 329.703L70.5739 330.42L72.8608 332.423ZM76 335.164L61.4545 335.164L61.4545 332.139L76 332.139L76 335.164ZM76 328.346L71.2486 331.556L69.1108 329.539L76 324.802L76 328.346ZM76.2131 319.221C76.2131 320.343 75.9858 321.309 75.5312 322.119C75.072 322.924 74.4233 323.544 73.5852 323.98C72.7424 324.415 71.7457 324.633 70.5952 324.633C69.473 324.633 68.4882 324.415 67.6406 323.98C66.7931 323.544 66.1326 322.931 65.6591 322.14C65.1856 321.345 64.9489 320.412 64.9489 319.342C64.9489 318.622 65.0649 317.952 65.2969 317.332C65.5241 316.707 65.8674 316.162 66.3267 315.698C66.786 315.23 67.3636 314.865 68.0597 314.605C68.7509 314.344 69.5606 314.214 70.4886 314.214L71.3196 314.214L71.3196 323.426L69.4446 323.426L69.4446 317.062C69.009 317.062 68.6231 317.157 68.2869 317.346C67.9508 317.536 67.688 317.798 67.4986 318.135C67.3044 318.466 67.2074 318.852 67.2074 319.292C67.2074 319.751 67.3139 320.159 67.527 320.514C67.7353 320.864 68.017 321.139 68.3722 321.338C68.7225 321.537 69.1132 321.638 69.544 321.643L71.3267 321.643C71.8665 321.643 72.3329 321.544 72.7258 321.345C73.1188 321.141 73.4219 320.855 73.6349 320.485C73.848 320.116 73.9545 319.678 73.9545 319.171C73.9545 318.835 73.9072 318.528 73.8125 318.248C73.7178 317.969 73.5758 317.73 73.3864 317.531C73.197 317.332 72.965 317.18 72.6903 317.076L72.875 314.278C73.5473 314.42 74.1345 314.711 74.6364 315.152C75.1335 315.587 75.5218 316.151 75.8011 316.842C76.0758 317.528 76.2131 318.322 76.2131 319.221Z"
        fill="black" />
    <path
        d="M111.101 164.909V178H109.119V166.891H109.042L105.91 168.936V167.044L109.177 164.909H111.101ZM114.444 178V176.568L118.874 171.979C119.347 171.48 119.736 171.043 120.043 170.668C120.354 170.289 120.587 169.929 120.74 169.588C120.893 169.247 120.97 168.885 120.97 168.501C120.97 168.067 120.868 167.692 120.663 167.376C120.459 167.057 120.18 166.812 119.826 166.641C119.472 166.467 119.074 166.379 118.631 166.379C118.162 166.379 117.753 166.475 117.403 166.667C117.054 166.859 116.785 167.129 116.598 167.479C116.41 167.828 116.317 168.237 116.317 168.706H114.431C114.431 167.909 114.614 167.212 114.981 166.616C115.347 166.019 115.85 165.557 116.489 165.229C117.128 164.896 117.855 164.73 118.669 164.73C119.491 164.73 120.216 164.894 120.842 165.222C121.473 165.546 121.965 165.989 122.319 166.552C122.673 167.11 122.849 167.741 122.849 168.444C122.849 168.93 122.758 169.405 122.574 169.869C122.396 170.334 122.082 170.852 121.635 171.423C121.187 171.989 120.565 172.678 119.768 173.487L117.167 176.21V176.306H123.06V178H114.444ZM127.797 176.21L127.701 176.907C127.637 177.418 127.528 177.951 127.375 178.505C127.226 179.063 127.07 179.581 126.908 180.058C126.751 180.536 126.621 180.915 126.519 181.196H125.163C125.219 180.932 125.296 180.574 125.394 180.122C125.492 179.675 125.587 179.174 125.681 178.62C125.775 178.066 125.845 177.501 125.892 176.926L125.956 176.21H127.797ZM134.355 178.217C133.345 178.213 132.482 177.947 131.767 177.418C131.051 176.89 130.503 176.121 130.124 175.111C129.745 174.101 129.555 172.884 129.555 171.461C129.555 170.042 129.745 168.83 130.124 167.824C130.507 166.818 131.057 166.051 131.773 165.523C132.493 164.994 133.354 164.73 134.355 164.73C135.357 164.73 136.215 164.996 136.931 165.529C137.647 166.058 138.195 166.825 138.574 167.83C138.958 168.832 139.149 170.042 139.149 171.461C139.149 172.888 138.96 174.107 138.58 175.117C138.201 176.123 137.654 176.892 136.938 177.425C136.222 177.953 135.361 178.217 134.355 178.217ZM134.355 176.511C135.242 176.511 135.934 176.078 136.433 175.213C136.936 174.348 137.187 173.097 137.187 171.461C137.187 170.374 137.072 169.456 136.842 168.706C136.616 167.952 136.29 167.381 135.864 166.993C135.442 166.601 134.939 166.405 134.355 166.405C133.473 166.405 132.781 166.839 132.278 167.709C131.775 168.578 131.522 169.829 131.517 171.461C131.517 172.552 131.63 173.474 131.856 174.229C132.086 174.979 132.412 175.548 132.834 175.935C133.256 176.319 133.763 176.511 134.355 176.511ZM145.776 178.217C144.767 178.213 143.904 177.947 143.188 177.418C142.472 176.89 141.924 176.121 141.545 175.111C141.166 174.101 140.976 172.884 140.976 171.461C140.976 170.042 141.166 168.83 141.545 167.824C141.928 166.818 142.478 166.051 143.194 165.523C143.914 164.994 144.775 164.73 145.776 164.73C146.778 164.73 147.637 164.996 148.352 165.529C149.068 166.058 149.616 166.825 149.995 167.83C150.379 168.832 150.571 170.042 150.571 171.461C150.571 172.888 150.381 174.107 150.002 175.117C149.622 176.123 149.075 176.892 148.359 177.425C147.643 177.953 146.782 178.217 145.776 178.217ZM145.776 176.511C146.663 176.511 147.355 176.078 147.854 175.213C148.357 174.348 148.608 173.097 148.608 171.461C148.608 170.374 148.493 169.456 148.263 168.706C148.037 167.952 147.711 167.381 147.285 166.993C146.863 166.601 146.36 166.405 145.776 166.405C144.894 166.405 144.202 166.839 143.699 167.709C143.196 168.578 142.943 169.829 142.938 171.461C142.938 172.552 143.051 173.474 143.277 174.229C143.507 174.979 143.833 175.548 144.255 175.935C144.677 176.319 145.184 176.511 145.776 176.511ZM157.198 178.217C156.188 178.213 155.325 177.947 154.609 177.418C153.893 176.89 153.345 176.121 152.966 175.111C152.587 174.101 152.397 172.884 152.397 171.461C152.397 170.042 152.587 168.83 152.966 167.824C153.35 166.818 153.899 166.051 154.615 165.523C155.335 164.994 156.196 164.73 157.198 164.73C158.199 164.73 159.058 164.996 159.774 165.529C160.49 166.058 161.037 166.825 161.416 167.83C161.8 168.832 161.992 170.042 161.992 171.461C161.992 172.888 161.802 174.107 161.423 175.117C161.044 176.123 160.496 176.892 159.78 177.425C159.064 177.953 158.203 178.217 157.198 178.217ZM157.198 176.511C158.084 176.511 158.776 176.078 159.275 175.213C159.778 174.348 160.029 173.097 160.029 171.461C160.029 170.374 159.914 169.456 159.684 168.706C159.458 167.952 159.132 167.381 158.706 166.993C158.284 166.601 157.781 166.405 157.198 166.405C156.316 166.405 155.623 166.839 155.12 167.709C154.617 168.578 154.364 169.829 154.36 171.461C154.36 172.552 154.472 173.474 154.698 174.229C154.928 174.979 155.254 175.548 155.676 175.935C156.098 176.319 156.605 176.511 157.198 176.511Z"
        fill="black" />
    <path
        d="M110.995 236.909V250H109.014V238.891H108.937L105.805 240.936V239.044L109.071 236.909H110.995ZM118.896 250.217C117.886 250.213 117.023 249.947 116.307 249.418C115.591 248.89 115.044 248.121 114.664 247.111C114.285 246.101 114.095 244.884 114.095 243.461C114.095 242.042 114.285 240.83 114.664 239.824C115.048 238.818 115.598 238.051 116.313 237.523C117.034 236.994 117.894 236.73 118.896 236.73C119.897 236.73 120.756 236.996 121.472 237.529C122.188 238.058 122.735 238.825 123.115 239.83C123.498 240.832 123.69 242.042 123.69 243.461C123.69 244.888 123.5 246.107 123.121 247.117C122.742 248.123 122.194 248.892 121.478 249.425C120.762 249.953 119.902 250.217 118.896 250.217ZM118.896 248.511C119.782 248.511 120.475 248.078 120.973 247.213C121.476 246.348 121.728 245.097 121.728 243.461C121.728 242.374 121.612 241.456 121.382 240.706C121.157 239.952 120.831 239.381 120.404 238.993C119.983 238.601 119.48 238.405 118.896 238.405C118.014 238.405 117.321 238.839 116.818 239.709C116.316 240.578 116.062 241.829 116.058 243.461C116.058 244.552 116.171 245.474 116.397 246.229C116.627 246.979 116.953 247.548 117.375 247.935C117.796 248.319 118.304 248.511 118.896 248.511ZM127.797 248.21L127.701 248.907C127.637 249.418 127.528 249.951 127.375 250.505C127.226 251.063 127.07 251.581 126.908 252.058C126.751 252.536 126.621 252.915 126.519 253.196H125.163C125.219 252.932 125.296 252.574 125.394 252.122C125.492 251.675 125.587 251.174 125.681 250.62C125.775 250.066 125.845 249.501 125.892 248.926L125.956 248.21H127.797ZM134.355 250.217C133.345 250.213 132.482 249.947 131.767 249.418C131.051 248.89 130.503 248.121 130.124 247.111C129.745 246.101 129.555 244.884 129.555 243.461C129.555 242.042 129.745 240.83 130.124 239.824C130.507 238.818 131.057 238.051 131.773 237.523C132.493 236.994 133.354 236.73 134.355 236.73C135.357 236.73 136.215 236.996 136.931 237.529C137.647 238.058 138.195 238.825 138.574 239.83C138.958 240.832 139.149 242.042 139.149 243.461C139.149 244.888 138.96 246.107 138.58 247.117C138.201 248.123 137.654 248.892 136.938 249.425C136.222 249.953 135.361 250.217 134.355 250.217ZM134.355 248.511C135.242 248.511 135.934 248.078 136.433 247.213C136.936 246.348 137.187 245.097 137.187 243.461C137.187 242.374 137.072 241.456 136.842 240.706C136.616 239.952 136.29 239.381 135.864 238.993C135.442 238.601 134.939 238.405 134.355 238.405C133.473 238.405 132.781 238.839 132.278 239.709C131.775 240.578 131.522 241.829 131.517 243.461C131.517 244.552 131.63 245.474 131.856 246.229C132.086 246.979 132.412 247.548 132.834 247.935C133.256 248.319 133.763 248.511 134.355 248.511ZM145.776 250.217C144.767 250.213 143.904 249.947 143.188 249.418C142.472 248.89 141.924 248.121 141.545 247.111C141.166 246.101 140.976 244.884 140.976 243.461C140.976 242.042 141.166 240.83 141.545 239.824C141.928 238.818 142.478 238.051 143.194 237.523C143.914 236.994 144.775 236.73 145.776 236.73C146.778 236.73 147.637 236.996 148.352 237.529C149.068 238.058 149.616 238.825 149.995 239.83C150.379 240.832 150.571 242.042 150.571 243.461C150.571 244.888 150.381 246.107 150.002 247.117C149.622 248.123 149.075 248.892 148.359 249.425C147.643 249.953 146.782 250.217 145.776 250.217ZM145.776 248.511C146.663 248.511 147.355 248.078 147.854 247.213C148.357 246.348 148.608 245.097 148.608 243.461C148.608 242.374 148.493 241.456 148.263 240.706C148.037 239.952 147.711 239.381 147.285 238.993C146.863 238.601 146.36 238.405 145.776 238.405C144.894 238.405 144.202 238.839 143.699 239.709C143.196 240.578 142.943 241.829 142.938 243.461C142.938 244.552 143.051 245.474 143.277 246.229C143.507 246.979 143.833 247.548 144.255 247.935C144.677 248.319 145.184 248.511 145.776 248.511ZM157.198 250.217C156.188 250.213 155.325 249.947 154.609 249.418C153.893 248.89 153.345 248.121 152.966 247.111C152.587 246.101 152.397 244.884 152.397 243.461C152.397 242.042 152.587 240.83 152.966 239.824C153.35 238.818 153.899 238.051 154.615 237.523C155.335 236.994 156.196 236.73 157.198 236.73C158.199 236.73 159.058 236.996 159.774 237.529C160.49 238.058 161.037 238.825 161.416 239.83C161.8 240.832 161.992 242.042 161.992 243.461C161.992 244.888 161.802 246.107 161.423 247.117C161.044 248.123 160.496 248.892 159.78 249.425C159.064 249.953 158.203 250.217 157.198 250.217ZM157.198 248.511C158.084 248.511 158.776 248.078 159.275 247.213C159.778 246.348 160.029 245.097 160.029 243.461C160.029 242.374 159.914 241.456 159.684 240.706C159.458 239.952 159.132 239.381 158.706 238.993C158.284 238.601 157.781 238.405 157.198 238.405C156.316 238.405 155.623 238.839 155.12 239.709C154.617 240.578 154.364 241.829 154.36 243.461C154.36 244.552 154.472 245.474 154.698 246.229C154.928 246.979 155.254 247.548 155.676 247.935C156.098 248.319 156.605 248.511 157.198 248.511Z"
        fill="black" />
    <path
        d="M118.92 322.179C118.004 322.179 117.194 322.021 116.491 321.706C115.792 321.391 115.244 320.956 114.848 320.402C114.452 319.848 114.256 319.217 114.26 318.51C114.256 317.956 114.369 317.447 114.599 316.982C114.833 316.513 115.151 316.124 115.551 315.812C115.952 315.497 116.399 315.297 116.894 315.212V315.135C116.242 314.977 115.72 314.628 115.328 314.087C114.935 313.545 114.742 312.923 114.746 312.22C114.742 311.551 114.918 310.955 115.276 310.43C115.639 309.902 116.135 309.487 116.766 309.184C117.396 308.881 118.114 308.73 118.92 308.73C119.717 308.73 120.428 308.884 121.055 309.19C121.685 309.493 122.182 309.908 122.544 310.437C122.906 310.961 123.09 311.555 123.094 312.22C123.09 312.923 122.889 313.545 122.493 314.087C122.097 314.628 121.581 314.977 120.946 315.135V315.212C121.436 315.297 121.877 315.497 122.269 315.812C122.666 316.124 122.981 316.513 123.215 316.982C123.454 317.447 123.575 317.956 123.58 318.51C123.575 319.217 123.375 319.848 122.979 320.402C122.582 320.956 122.033 321.391 121.33 321.706C120.631 322.021 119.828 322.179 118.92 322.179ZM118.92 320.562C119.461 320.562 119.93 320.472 120.326 320.293C120.722 320.11 121.029 319.857 121.247 319.533C121.464 319.205 121.575 318.821 121.579 318.382C121.575 317.926 121.455 317.523 121.221 317.174C120.991 316.825 120.678 316.55 120.281 316.349C119.885 316.149 119.431 316.049 118.92 316.049C118.404 316.049 117.946 316.149 117.546 316.349C117.145 316.55 116.83 316.825 116.6 317.174C116.369 317.523 116.256 317.926 116.261 318.382C116.256 318.821 116.361 319.205 116.574 319.533C116.791 319.857 117.1 320.11 117.501 320.293C117.901 320.472 118.374 320.562 118.92 320.562ZM118.92 314.47C119.354 314.47 119.74 314.383 120.077 314.208C120.413 314.033 120.678 313.79 120.869 313.479C121.065 313.168 121.166 312.804 121.17 312.386C121.166 311.977 121.068 311.619 120.876 311.312C120.688 311.006 120.426 310.769 120.09 310.603C119.753 310.433 119.363 310.347 118.92 310.347C118.468 310.347 118.072 310.433 117.731 310.603C117.394 310.769 117.132 311.006 116.945 311.312C116.757 311.619 116.666 311.977 116.67 312.386C116.666 312.804 116.759 313.168 116.951 313.479C117.143 313.79 117.407 314.033 117.744 314.208C118.085 314.383 118.477 314.47 118.92 314.47ZM127.797 320.21L127.701 320.907C127.637 321.418 127.528 321.951 127.375 322.505C127.226 323.063 127.07 323.581 126.908 324.058C126.751 324.536 126.621 324.915 126.519 325.196H125.163C125.219 324.932 125.296 324.574 125.394 324.122C125.492 323.675 125.587 323.174 125.681 322.62C125.775 322.066 125.845 321.501 125.892 320.926L125.956 320.21H127.797ZM134.355 322.217C133.345 322.213 132.482 321.947 131.767 321.418C131.051 320.89 130.503 320.121 130.124 319.111C129.745 318.101 129.555 316.884 129.555 315.461C129.555 314.042 129.745 312.83 130.124 311.824C130.507 310.818 131.057 310.051 131.773 309.523C132.493 308.994 133.354 308.73 134.355 308.73C135.357 308.73 136.215 308.996 136.931 309.529C137.647 310.058 138.195 310.825 138.574 311.83C138.958 312.832 139.149 314.042 139.149 315.461C139.149 316.888 138.96 318.107 138.58 319.117C138.201 320.123 137.654 320.892 136.938 321.425C136.222 321.953 135.361 322.217 134.355 322.217ZM134.355 320.511C135.242 320.511 135.934 320.078 136.433 319.213C136.936 318.348 137.187 317.097 137.187 315.461C137.187 314.374 137.072 313.456 136.842 312.706C136.616 311.952 136.29 311.381 135.864 310.993C135.442 310.601 134.939 310.405 134.355 310.405C133.473 310.405 132.781 310.839 132.278 311.709C131.775 312.578 131.522 313.829 131.517 315.461C131.517 316.552 131.63 317.474 131.856 318.229C132.086 318.979 132.412 319.548 132.834 319.935C133.256 320.319 133.763 320.511 134.355 320.511ZM145.776 322.217C144.767 322.213 143.904 321.947 143.188 321.418C142.472 320.89 141.924 320.121 141.545 319.111C141.166 318.101 140.976 316.884 140.976 315.461C140.976 314.042 141.166 312.83 141.545 311.824C141.928 310.818 142.478 310.051 143.194 309.523C143.914 308.994 144.775 308.73 145.776 308.73C146.778 308.73 147.637 308.996 148.352 309.529C149.068 310.058 149.616 310.825 149.995 311.83C150.379 312.832 150.571 314.042 150.571 315.461C150.571 316.888 150.381 318.107 150.002 319.117C149.622 320.123 149.075 320.892 148.359 321.425C147.643 321.953 146.782 322.217 145.776 322.217ZM145.776 320.511C146.663 320.511 147.355 320.078 147.854 319.213C148.357 318.348 148.608 317.097 148.608 315.461C148.608 314.374 148.493 313.456 148.263 312.706C148.037 311.952 147.711 311.381 147.285 310.993C146.863 310.601 146.36 310.405 145.776 310.405C144.894 310.405 144.202 310.839 143.699 311.709C143.196 312.578 142.943 313.829 142.938 315.461C142.938 316.552 143.051 317.474 143.277 318.229C143.507 318.979 143.833 319.548 144.255 319.935C144.677 320.319 145.184 320.511 145.776 320.511ZM157.198 322.217C156.188 322.213 155.325 321.947 154.609 321.418C153.893 320.89 153.345 320.121 152.966 319.111C152.587 318.101 152.397 316.884 152.397 315.461C152.397 314.042 152.587 312.83 152.966 311.824C153.35 310.818 153.899 310.051 154.615 309.523C155.335 308.994 156.196 308.73 157.198 308.73C158.199 308.73 159.058 308.996 159.774 309.529C160.49 310.058 161.037 310.825 161.416 311.83C161.8 312.832 161.992 314.042 161.992 315.461C161.992 316.888 161.802 318.107 161.423 319.117C161.044 320.123 160.496 320.892 159.78 321.425C159.064 321.953 158.203 322.217 157.198 322.217ZM157.198 320.511C158.084 320.511 158.776 320.078 159.275 319.213C159.778 318.348 160.029 317.097 160.029 315.461C160.029 314.374 159.914 313.456 159.684 312.706C159.458 311.952 159.132 311.381 158.706 310.993C158.284 310.601 157.781 310.405 157.198 310.405C156.316 310.405 155.623 310.839 155.12 311.709C154.617 312.578 154.364 313.829 154.36 315.461C154.36 316.552 154.472 317.474 154.698 318.229C154.928 318.979 155.254 319.548 155.676 319.935C156.098 320.319 156.605 320.511 157.198 320.511Z"
        fill="black" />
    <path
        d="M119.207 394.179C118.624 394.17 118.048 394.064 117.482 393.859C116.919 393.655 116.408 393.314 115.948 392.837C115.487 392.359 115.119 391.718 114.842 390.913C114.569 390.107 114.433 389.102 114.433 387.896C114.433 386.754 114.546 385.739 114.771 384.853C115.002 383.967 115.332 383.219 115.762 382.609C116.193 381.996 116.712 381.529 117.322 381.21C117.931 380.89 118.615 380.73 119.374 380.73C120.154 380.73 120.846 380.884 121.451 381.19C122.056 381.497 122.546 381.921 122.921 382.462C123.301 383.004 123.541 383.619 123.644 384.31H121.694C121.562 383.764 121.3 383.319 120.908 382.974C120.516 382.629 120.004 382.456 119.374 382.456C118.415 382.456 117.667 382.874 117.13 383.709C116.597 384.544 116.329 385.705 116.325 387.192H116.421C116.646 386.822 116.923 386.506 117.252 386.246C117.584 385.982 117.955 385.78 118.364 385.639C118.777 385.494 119.212 385.422 119.668 385.422C120.426 385.422 121.112 385.607 121.726 385.978C122.344 386.344 122.836 386.852 123.203 387.499C123.569 388.147 123.752 388.888 123.752 389.724C123.752 390.559 123.563 391.315 123.183 391.993C122.808 392.67 122.28 393.207 121.598 393.604C120.916 393.996 120.119 394.188 119.207 394.179ZM119.201 392.517C119.704 392.517 120.154 392.393 120.55 392.146C120.946 391.899 121.259 391.567 121.489 391.149C121.72 390.732 121.835 390.265 121.835 389.749C121.835 389.246 121.722 388.788 121.496 388.375C121.274 387.962 120.967 387.634 120.575 387.391C120.188 387.148 119.744 387.026 119.246 387.026C118.867 387.026 118.515 387.099 118.191 387.244C117.872 387.388 117.59 387.589 117.347 387.844C117.104 388.1 116.913 388.394 116.772 388.727C116.636 389.055 116.568 389.402 116.568 389.768C116.568 390.259 116.68 390.712 116.906 391.13C117.136 391.548 117.45 391.884 117.846 392.14C118.247 392.391 118.698 392.517 119.201 392.517ZM127.797 392.21L127.701 392.907C127.637 393.418 127.528 393.951 127.375 394.505C127.226 395.063 127.07 395.581 126.908 396.058C126.751 396.536 126.621 396.915 126.519 397.196H125.163C125.219 396.932 125.296 396.574 125.394 396.122C125.492 395.675 125.587 395.174 125.681 394.62C125.775 394.066 125.845 393.501 125.892 392.926L125.956 392.21H127.797ZM134.355 394.217C133.345 394.213 132.482 393.947 131.767 393.418C131.051 392.89 130.503 392.121 130.124 391.111C129.745 390.101 129.555 388.884 129.555 387.461C129.555 386.042 129.745 384.83 130.124 383.824C130.507 382.818 131.057 382.051 131.773 381.523C132.493 380.994 133.354 380.73 134.355 380.73C135.357 380.73 136.215 380.996 136.931 381.529C137.647 382.058 138.195 382.825 138.574 383.83C138.958 384.832 139.149 386.042 139.149 387.461C139.149 388.888 138.96 390.107 138.58 391.117C138.201 392.123 137.654 392.892 136.938 393.425C136.222 393.953 135.361 394.217 134.355 394.217ZM134.355 392.511C135.242 392.511 135.934 392.078 136.433 391.213C136.936 390.348 137.187 389.097 137.187 387.461C137.187 386.374 137.072 385.456 136.842 384.706C136.616 383.952 136.29 383.381 135.864 382.993C135.442 382.601 134.939 382.405 134.355 382.405C133.473 382.405 132.781 382.839 132.278 383.709C131.775 384.578 131.522 385.829 131.517 387.461C131.517 388.552 131.63 389.474 131.856 390.229C132.086 390.979 132.412 391.548 132.834 391.935C133.256 392.319 133.763 392.511 134.355 392.511ZM145.776 394.217C144.767 394.213 143.904 393.947 143.188 393.418C142.472 392.89 141.924 392.121 141.545 391.111C141.166 390.101 140.976 388.884 140.976 387.461C140.976 386.042 141.166 384.83 141.545 383.824C141.928 382.818 142.478 382.051 143.194 381.523C143.914 380.994 144.775 380.73 145.776 380.73C146.778 380.73 147.637 380.996 148.352 381.529C149.068 382.058 149.616 382.825 149.995 383.83C150.379 384.832 150.571 386.042 150.571 387.461C150.571 388.888 150.381 390.107 150.002 391.117C149.622 392.123 149.075 392.892 148.359 393.425C147.643 393.953 146.782 394.217 145.776 394.217ZM145.776 392.511C146.663 392.511 147.355 392.078 147.854 391.213C148.357 390.348 148.608 389.097 148.608 387.461C148.608 386.374 148.493 385.456 148.263 384.706C148.037 383.952 147.711 383.381 147.285 382.993C146.863 382.601 146.36 382.405 145.776 382.405C144.894 382.405 144.202 382.839 143.699 383.709C143.196 384.578 142.943 385.829 142.938 387.461C142.938 388.552 143.051 389.474 143.277 390.229C143.507 390.979 143.833 391.548 144.255 391.935C144.677 392.319 145.184 392.511 145.776 392.511ZM157.198 394.217C156.188 394.213 155.325 393.947 154.609 393.418C153.893 392.89 153.345 392.121 152.966 391.111C152.587 390.101 152.397 388.884 152.397 387.461C152.397 386.042 152.587 384.83 152.966 383.824C153.35 382.818 153.899 382.051 154.615 381.523C155.335 380.994 156.196 380.73 157.198 380.73C158.199 380.73 159.058 380.996 159.774 381.529C160.49 382.058 161.037 382.825 161.416 383.83C161.8 384.832 161.992 386.042 161.992 387.461C161.992 388.888 161.802 390.107 161.423 391.117C161.044 392.123 160.496 392.892 159.78 393.425C159.064 393.953 158.203 394.217 157.198 394.217ZM157.198 392.511C158.084 392.511 158.776 392.078 159.275 391.213C159.778 390.348 160.029 389.097 160.029 387.461C160.029 386.374 159.914 385.456 159.684 384.706C159.458 383.952 159.132 383.381 158.706 382.993C158.284 382.601 157.781 382.405 157.198 382.405C156.316 382.405 155.623 382.839 155.12 383.709C154.617 384.578 154.364 385.829 154.36 387.461C154.36 388.552 154.472 389.474 154.698 390.229C154.928 390.979 155.254 391.548 155.676 391.935C156.098 392.319 156.605 392.511 157.198 392.511Z"
        fill="black" />
    <path
        d="M113.923 462.443V460.845L119.58 451.909H120.839V454.261H120.04L115.994 460.666V460.768H123.747V462.443H113.923ZM120.13 465V461.957L120.142 461.229V451.909H122.015V465H120.13ZM127.797 463.21L127.701 463.907C127.637 464.418 127.528 464.951 127.375 465.505C127.226 466.063 127.07 466.581 126.908 467.058C126.751 467.536 126.621 467.915 126.519 468.196H125.163C125.219 467.932 125.296 467.574 125.394 467.122C125.492 466.675 125.587 466.174 125.681 465.62C125.775 465.066 125.845 464.501 125.892 463.926L125.956 463.21H127.797ZM134.355 465.217C133.345 465.213 132.482 464.947 131.767 464.418C131.051 463.89 130.503 463.121 130.124 462.111C129.745 461.101 129.555 459.884 129.555 458.461C129.555 457.042 129.745 455.83 130.124 454.824C130.507 453.818 131.057 453.051 131.773 452.523C132.493 451.994 133.354 451.73 134.355 451.73C135.357 451.73 136.215 451.996 136.931 452.529C137.647 453.058 138.195 453.825 138.574 454.83C138.958 455.832 139.149 457.042 139.149 458.461C139.149 459.888 138.96 461.107 138.58 462.117C138.201 463.123 137.654 463.892 136.938 464.425C136.222 464.953 135.361 465.217 134.355 465.217ZM134.355 463.511C135.242 463.511 135.934 463.078 136.433 462.213C136.936 461.348 137.187 460.097 137.187 458.461C137.187 457.374 137.072 456.456 136.842 455.706C136.616 454.952 136.29 454.381 135.864 453.993C135.442 453.601 134.939 453.405 134.355 453.405C133.473 453.405 132.781 453.839 132.278 454.709C131.775 455.578 131.522 456.829 131.517 458.461C131.517 459.552 131.63 460.474 131.856 461.229C132.086 461.979 132.412 462.548 132.834 462.935C133.256 463.319 133.763 463.511 134.355 463.511ZM145.776 465.217C144.767 465.213 143.904 464.947 143.188 464.418C142.472 463.89 141.924 463.121 141.545 462.111C141.166 461.101 140.976 459.884 140.976 458.461C140.976 457.042 141.166 455.83 141.545 454.824C141.928 453.818 142.478 453.051 143.194 452.523C143.914 451.994 144.775 451.73 145.776 451.73C146.778 451.73 147.637 451.996 148.352 452.529C149.068 453.058 149.616 453.825 149.995 454.83C150.379 455.832 150.571 457.042 150.571 458.461C150.571 459.888 150.381 461.107 150.002 462.117C149.622 463.123 149.075 463.892 148.359 464.425C147.643 464.953 146.782 465.217 145.776 465.217ZM145.776 463.511C146.663 463.511 147.355 463.078 147.854 462.213C148.357 461.348 148.608 460.097 148.608 458.461C148.608 457.374 148.493 456.456 148.263 455.706C148.037 454.952 147.711 454.381 147.285 453.993C146.863 453.601 146.36 453.405 145.776 453.405C144.894 453.405 144.202 453.839 143.699 454.709C143.196 455.578 142.943 456.829 142.938 458.461C142.938 459.552 143.051 460.474 143.277 461.229C143.507 461.979 143.833 462.548 144.255 462.935C144.677 463.319 145.184 463.511 145.776 463.511ZM157.198 465.217C156.188 465.213 155.325 464.947 154.609 464.418C153.893 463.89 153.345 463.121 152.966 462.111C152.587 461.101 152.397 459.884 152.397 458.461C152.397 457.042 152.587 455.83 152.966 454.824C153.35 453.818 153.899 453.051 154.615 452.523C155.335 451.994 156.196 451.73 157.198 451.73C158.199 451.73 159.058 451.996 159.774 452.529C160.49 453.058 161.037 453.825 161.416 454.83C161.8 455.832 161.992 457.042 161.992 458.461C161.992 459.888 161.802 461.107 161.423 462.117C161.044 463.123 160.496 463.892 159.78 464.425C159.064 464.953 158.203 465.217 157.198 465.217ZM157.198 463.511C158.084 463.511 158.776 463.078 159.275 462.213C159.778 461.348 160.029 460.097 160.029 458.461C160.029 457.374 159.914 456.456 159.684 455.706C159.458 454.952 159.132 454.381 158.706 453.993C158.284 453.601 157.781 453.405 157.198 453.405C156.316 453.405 155.623 453.839 155.12 454.709C154.617 455.578 154.364 456.829 154.36 458.461C154.36 459.552 154.472 460.474 154.698 461.229C154.928 461.979 155.254 462.548 155.676 462.935C156.098 463.319 156.605 463.511 157.198 463.511Z"
        fill="black" />
    <path
        d="M114.444 538V536.568L118.874 531.979C119.347 531.48 119.736 531.043 120.043 530.668C120.354 530.289 120.587 529.929 120.74 529.588C120.893 529.247 120.97 528.885 120.97 528.501C120.97 528.067 120.868 527.692 120.663 527.376C120.459 527.057 120.18 526.812 119.826 526.641C119.472 526.467 119.074 526.379 118.631 526.379C118.162 526.379 117.753 526.475 117.403 526.667C117.054 526.859 116.785 527.129 116.598 527.479C116.41 527.828 116.317 528.237 116.317 528.706H114.431C114.431 527.909 114.614 527.212 114.981 526.616C115.347 526.019 115.85 525.557 116.489 525.229C117.128 524.896 117.855 524.73 118.669 524.73C119.491 524.73 120.216 524.894 120.842 525.222C121.473 525.546 121.965 525.989 122.319 526.552C122.673 527.11 122.849 527.741 122.849 528.444C122.849 528.93 122.758 529.405 122.574 529.869C122.396 530.334 122.082 530.852 121.635 531.423C121.187 531.989 120.565 532.678 119.768 533.487L117.167 536.21V536.306H123.06V538H114.444ZM127.797 536.21L127.701 536.907C127.637 537.418 127.528 537.951 127.375 538.505C127.226 539.063 127.07 539.581 126.908 540.058C126.751 540.536 126.621 540.915 126.519 541.196H125.163C125.219 540.932 125.296 540.574 125.394 540.122C125.492 539.675 125.587 539.174 125.681 538.62C125.775 538.066 125.845 537.501 125.892 536.926L125.956 536.21H127.797ZM134.355 538.217C133.345 538.213 132.482 537.947 131.767 537.418C131.051 536.89 130.503 536.121 130.124 535.111C129.745 534.101 129.555 532.884 129.555 531.461C129.555 530.042 129.745 528.83 130.124 527.824C130.507 526.818 131.057 526.051 131.773 525.523C132.493 524.994 133.354 524.73 134.355 524.73C135.357 524.73 136.215 524.996 136.931 525.529C137.647 526.058 138.195 526.825 138.574 527.83C138.958 528.832 139.149 530.042 139.149 531.461C139.149 532.888 138.96 534.107 138.58 535.117C138.201 536.123 137.654 536.892 136.938 537.425C136.222 537.953 135.361 538.217 134.355 538.217ZM134.355 536.511C135.242 536.511 135.934 536.078 136.433 535.213C136.936 534.348 137.187 533.097 137.187 531.461C137.187 530.374 137.072 529.456 136.842 528.706C136.616 527.952 136.29 527.381 135.864 526.993C135.442 526.601 134.939 526.405 134.355 526.405C133.473 526.405 132.781 526.839 132.278 527.709C131.775 528.578 131.522 529.829 131.517 531.461C131.517 532.552 131.63 533.474 131.856 534.229C132.086 534.979 132.412 535.548 132.834 535.935C133.256 536.319 133.763 536.511 134.355 536.511ZM145.776 538.217C144.767 538.213 143.904 537.947 143.188 537.418C142.472 536.89 141.924 536.121 141.545 535.111C141.166 534.101 140.976 532.884 140.976 531.461C140.976 530.042 141.166 528.83 141.545 527.824C141.928 526.818 142.478 526.051 143.194 525.523C143.914 524.994 144.775 524.73 145.776 524.73C146.778 524.73 147.637 524.996 148.352 525.529C149.068 526.058 149.616 526.825 149.995 527.83C150.379 528.832 150.571 530.042 150.571 531.461C150.571 532.888 150.381 534.107 150.002 535.117C149.622 536.123 149.075 536.892 148.359 537.425C147.643 537.953 146.782 538.217 145.776 538.217ZM145.776 536.511C146.663 536.511 147.355 536.078 147.854 535.213C148.357 534.348 148.608 533.097 148.608 531.461C148.608 530.374 148.493 529.456 148.263 528.706C148.037 527.952 147.711 527.381 147.285 526.993C146.863 526.601 146.36 526.405 145.776 526.405C144.894 526.405 144.202 526.839 143.699 527.709C143.196 528.578 142.943 529.829 142.938 531.461C142.938 532.552 143.051 533.474 143.277 534.229C143.507 534.979 143.833 535.548 144.255 535.935C144.677 536.319 145.184 536.511 145.776 536.511ZM157.198 538.217C156.188 538.213 155.325 537.947 154.609 537.418C153.893 536.89 153.345 536.121 152.966 535.111C152.587 534.101 152.397 532.884 152.397 531.461C152.397 530.042 152.587 528.83 152.966 527.824C153.35 526.818 153.899 526.051 154.615 525.523C155.335 524.994 156.196 524.73 157.198 524.73C158.199 524.73 159.058 524.996 159.774 525.529C160.49 526.058 161.037 526.825 161.416 527.83C161.8 528.832 161.992 530.042 161.992 531.461C161.992 532.888 161.802 534.107 161.423 535.117C161.044 536.123 160.496 536.892 159.78 537.425C159.064 537.953 158.203 538.217 157.198 538.217ZM157.198 536.511C158.084 536.511 158.776 536.078 159.275 535.213C159.778 534.348 160.029 533.097 160.029 531.461C160.029 530.374 159.914 529.456 159.684 528.706C159.458 527.952 159.132 527.381 158.706 526.993C158.284 526.601 157.781 526.405 157.198 526.405C156.316 526.405 155.623 526.839 155.12 527.709C154.617 528.578 154.364 529.829 154.36 531.461C154.36 532.552 154.472 533.474 154.698 534.229C154.928 534.979 155.254 535.548 155.676 535.935C156.098 536.319 156.605 536.511 157.198 536.511Z"
        fill="black" />
    <path
        d="M144.473 602.217C143.464 602.213 142.601 601.947 141.885 601.418C141.169 600.89 140.621 600.121 140.242 599.111C139.863 598.101 139.673 596.884 139.673 595.461C139.673 594.042 139.863 592.83 140.242 591.824C140.625 590.818 141.175 590.051 141.891 589.523C142.611 588.994 143.472 588.73 144.473 588.73C145.475 588.73 146.334 588.996 147.049 589.529C147.765 590.058 148.313 590.825 148.692 591.83C149.076 592.832 149.268 594.042 149.268 595.461C149.268 596.888 149.078 598.107 148.699 599.117C148.319 600.123 147.772 600.892 147.056 601.425C146.34 601.953 145.479 602.217 144.473 602.217ZM144.473 600.511C145.36 600.511 146.052 600.078 146.551 599.213C147.054 598.348 147.305 597.097 147.305 595.461C147.305 594.374 147.19 593.456 146.96 592.706C146.734 591.952 146.408 591.381 145.982 590.993C145.56 590.601 145.057 590.405 144.473 590.405C143.591 590.405 142.899 590.839 142.396 591.709C141.893 592.578 141.64 593.829 141.635 595.461C141.635 596.552 141.748 597.474 141.974 598.229C142.204 598.979 142.53 599.548 142.952 599.935C143.374 600.319 143.881 600.511 144.473 600.511Z"
        fill="black" />
    <path
        d="M250.261 619.909V633H248.28V621.891H248.203L245.071 623.936V622.044L248.337 619.909H250.261ZM258.162 633.217C257.152 633.213 256.289 632.947 255.573 632.418C254.857 631.89 254.31 631.121 253.931 630.111C253.551 629.101 253.362 627.884 253.362 626.461C253.362 625.042 253.551 623.83 253.931 622.824C254.314 621.818 254.864 621.051 255.58 620.523C256.3 619.994 257.161 619.73 258.162 619.73C259.164 619.73 260.022 619.996 260.738 620.529C261.454 621.058 262.002 621.825 262.381 622.83C262.764 623.832 262.956 625.042 262.956 626.461C262.956 627.888 262.767 629.107 262.387 630.117C262.008 631.123 261.46 631.892 260.744 632.425C260.029 632.953 259.168 633.217 258.162 633.217ZM258.162 631.511C259.048 631.511 259.741 631.078 260.24 630.213C260.742 629.348 260.994 628.097 260.994 626.461C260.994 625.374 260.879 624.456 260.649 623.706C260.423 622.952 260.097 622.381 259.671 621.993C259.249 621.601 258.746 621.405 258.162 621.405C257.28 621.405 256.588 621.839 256.085 622.709C255.582 623.578 255.328 624.829 255.324 626.461C255.324 627.552 255.437 628.474 255.663 629.229C255.893 629.979 256.219 630.548 256.641 630.935C257.063 631.319 257.57 631.511 258.162 631.511Z"
        fill="black" />
    <path
        d="M325.529 633V631.568L329.959 626.979C330.432 626.48 330.822 626.043 331.129 625.668C331.44 625.289 331.672 624.929 331.825 624.588C331.979 624.247 332.055 623.885 332.055 623.501C332.055 623.067 331.953 622.692 331.749 622.376C331.544 622.057 331.265 621.812 330.911 621.641C330.558 621.467 330.159 621.379 329.716 621.379C329.247 621.379 328.838 621.475 328.489 621.667C328.139 621.859 327.871 622.129 327.683 622.479C327.496 622.828 327.402 623.237 327.402 623.706H325.516C325.516 622.909 325.7 622.212 326.066 621.616C326.433 621.019 326.935 620.557 327.575 620.229C328.214 619.896 328.94 619.73 329.754 619.73C330.577 619.73 331.301 619.894 331.928 620.222C332.558 620.546 333.05 620.989 333.404 621.552C333.758 622.11 333.935 622.741 333.935 623.444C333.935 623.93 333.843 624.405 333.66 624.869C333.481 625.334 333.168 625.852 332.72 626.423C332.273 626.989 331.651 627.678 330.854 628.487L328.252 631.21V631.306H334.146V633H325.529ZM340.928 633.217C339.918 633.213 339.055 632.947 338.339 632.418C337.623 631.89 337.075 631.121 336.696 630.111C336.317 629.101 336.127 627.884 336.127 626.461C336.127 625.042 336.317 623.83 336.696 622.824C337.08 621.818 337.629 621.051 338.345 620.523C339.066 619.994 339.926 619.73 340.928 619.73C341.929 619.73 342.788 619.996 343.504 620.529C344.22 621.058 344.767 621.825 345.146 622.83C345.53 623.832 345.722 625.042 345.722 626.461C345.722 627.888 345.532 629.107 345.153 630.117C344.774 631.123 344.226 631.892 343.51 632.425C342.794 632.953 341.933 633.217 340.928 633.217ZM340.928 631.511C341.814 631.511 342.507 631.078 343.005 630.213C343.508 629.348 343.759 628.097 343.759 626.461C343.759 625.374 343.644 624.456 343.414 623.706C343.188 622.952 342.862 622.381 342.436 621.993C342.014 621.601 341.512 621.405 340.928 621.405C340.046 621.405 339.353 621.839 338.85 622.709C338.347 623.578 338.094 624.829 338.09 626.461C338.09 627.552 338.203 628.474 338.428 629.229C338.659 629.979 338.985 630.548 339.406 630.935C339.828 631.319 340.335 631.511 340.928 631.511Z"
        fill="black" />
    <path
        d="M413.305 633.179C412.428 633.179 411.643 633.028 410.953 632.725C410.267 632.423 409.724 632.003 409.323 631.466C408.927 630.925 408.714 630.298 408.684 629.587H410.691C410.717 629.974 410.847 630.311 411.081 630.597C411.32 630.878 411.631 631.095 412.014 631.249C412.398 631.402 412.824 631.479 413.293 631.479C413.808 631.479 414.264 631.389 414.661 631.21C415.061 631.031 415.374 630.782 415.6 630.462C415.826 630.138 415.939 629.766 415.939 629.344C415.939 628.905 415.826 628.519 415.6 628.187C415.379 627.85 415.053 627.586 414.622 627.394C414.196 627.202 413.68 627.107 413.075 627.107H411.969V625.496H413.075C413.561 625.496 413.987 625.408 414.354 625.234C414.724 625.059 415.014 624.816 415.223 624.505C415.432 624.19 415.536 623.821 415.536 623.399C415.536 622.994 415.445 622.643 415.261 622.344C415.082 622.042 414.827 621.805 414.494 621.635C414.166 621.464 413.778 621.379 413.331 621.379C412.905 621.379 412.506 621.458 412.136 621.616C411.769 621.769 411.471 621.991 411.241 622.281C411.011 622.566 410.887 622.909 410.87 623.31H408.959C408.98 622.602 409.189 621.98 409.585 621.443C409.986 620.906 410.514 620.487 411.17 620.184C411.827 619.881 412.555 619.73 413.357 619.73C414.196 619.73 414.92 619.894 415.53 620.222C416.143 620.546 416.616 620.979 416.949 621.52C417.286 622.061 417.452 622.653 417.447 623.297C417.452 624.03 417.247 624.652 416.834 625.163C416.425 625.675 415.879 626.018 415.197 626.192V626.295C416.067 626.427 416.74 626.772 417.217 627.33C417.699 627.888 417.938 628.581 417.933 629.408C417.938 630.128 417.737 630.773 417.332 631.344C416.932 631.915 416.384 632.365 415.69 632.693C414.995 633.017 414.2 633.179 413.305 633.179ZM424.709 633.217C423.699 633.213 422.836 632.947 422.12 632.418C421.404 631.89 420.857 631.121 420.477 630.111C420.098 629.101 419.909 627.884 419.909 626.461C419.909 625.042 420.098 623.83 420.477 622.824C420.861 621.818 421.411 621.051 422.127 620.523C422.847 619.994 423.708 619.73 424.709 619.73C425.71 619.73 426.569 619.996 427.285 620.529C428.001 621.058 428.548 621.825 428.928 622.83C429.311 623.832 429.503 625.042 429.503 626.461C429.503 627.888 429.313 629.107 428.934 630.117C428.555 631.123 428.007 631.892 427.291 632.425C426.575 632.953 425.715 633.217 424.709 633.217ZM424.709 631.511C425.595 631.511 426.288 631.078 426.786 630.213C427.289 629.348 427.541 628.097 427.541 626.461C427.541 625.374 427.426 624.456 427.195 623.706C426.97 622.952 426.644 622.381 426.217 621.993C425.796 621.601 425.293 621.405 424.709 621.405C423.827 621.405 423.134 621.839 422.632 622.709C422.129 623.578 421.875 624.829 421.871 626.461C421.871 627.552 421.984 628.474 422.21 629.229C422.44 629.979 422.766 630.548 423.188 630.935C423.61 631.319 424.117 631.511 424.709 631.511Z"
        fill="black" />
    <path
        d="M492.385 630.443V628.845L498.042 619.909H499.301V622.261H498.502L494.456 628.666V628.768H502.21V630.443H492.385ZM498.592 633V629.957L498.605 629.229V619.909H500.477V633H498.592ZM508.797 633.217C507.787 633.213 506.924 632.947 506.208 632.418C505.492 631.89 504.945 631.121 504.565 630.111C504.186 629.101 503.996 627.884 503.996 626.461C503.996 625.042 504.186 623.83 504.565 622.824C504.949 621.818 505.499 621.051 506.214 620.523C506.935 619.994 507.795 619.73 508.797 619.73C509.798 619.73 510.657 619.996 511.373 620.529C512.089 621.058 512.636 621.825 513.016 622.83C513.399 623.832 513.591 625.042 513.591 626.461C513.591 627.888 513.401 629.107 513.022 630.117C512.643 631.123 512.095 631.892 511.379 632.425C510.663 632.953 509.803 633.217 508.797 633.217ZM508.797 631.511C509.683 631.511 510.376 631.078 510.874 630.213C511.377 629.348 511.629 628.097 511.629 626.461C511.629 625.374 511.513 624.456 511.283 623.706C511.058 622.952 510.732 622.381 510.305 621.993C509.884 621.601 509.381 621.405 508.797 621.405C507.915 621.405 507.222 621.839 506.719 622.709C506.217 623.578 505.963 624.829 505.959 626.461C505.959 627.552 506.072 628.474 506.298 629.229C506.528 629.979 506.854 630.548 507.276 630.935C507.697 631.319 508.205 631.511 508.797 631.511Z"
        fill="black" />
    <path
        d="M580.789 633.179C579.987 633.179 579.267 633.026 578.628 632.719C577.993 632.408 577.486 631.982 577.107 631.44C576.728 630.899 576.525 630.281 576.5 629.587H578.417C578.464 630.149 578.713 630.612 579.165 630.974C579.617 631.336 580.158 631.517 580.789 631.517C581.291 631.517 581.737 631.402 582.125 631.172C582.517 630.938 582.823 630.616 583.045 630.207C583.271 629.798 583.384 629.331 583.384 628.807C583.384 628.274 583.269 627.799 583.039 627.381C582.809 626.964 582.491 626.636 582.086 626.397C581.686 626.158 581.225 626.037 580.706 626.033C580.309 626.033 579.911 626.101 579.51 626.237C579.11 626.374 578.786 626.553 578.539 626.774L576.73 626.506L577.465 619.909H584.662V621.603H579.108L578.692 625.266H578.769C579.024 625.018 579.363 624.812 579.785 624.646C580.211 624.479 580.667 624.396 581.153 624.396C581.95 624.396 582.659 624.586 583.282 624.965C583.908 625.344 584.4 625.862 584.758 626.518C585.12 627.17 585.299 627.92 585.295 628.768C585.299 629.616 585.108 630.373 584.72 631.038C584.336 631.702 583.804 632.227 583.122 632.61C582.444 632.989 581.666 633.179 580.789 633.179ZM591.989 633.217C590.979 633.213 590.116 632.947 589.4 632.418C588.685 631.89 588.137 631.121 587.758 630.111C587.378 629.101 587.189 627.884 587.189 626.461C587.189 625.042 587.378 623.83 587.758 622.824C588.141 621.818 588.691 621.051 589.407 620.523C590.127 619.994 590.988 619.73 591.989 619.73C592.991 619.73 593.849 619.996 594.565 620.529C595.281 621.058 595.829 621.825 596.208 622.83C596.592 623.832 596.783 625.042 596.783 626.461C596.783 627.888 596.594 629.107 596.214 630.117C595.835 631.123 595.288 631.892 594.572 632.425C593.856 632.953 592.995 633.217 591.989 633.217ZM591.989 631.511C592.876 631.511 593.568 631.078 594.067 630.213C594.57 629.348 594.821 628.097 594.821 626.461C594.821 625.374 594.706 624.456 594.476 623.706C594.25 622.952 593.924 622.381 593.498 621.993C593.076 621.601 592.573 621.405 591.989 621.405C591.107 621.405 590.415 621.839 589.912 622.709C589.409 623.578 589.155 624.829 589.151 626.461C589.151 627.552 589.264 628.474 589.49 629.229C589.72 629.979 590.046 630.548 590.468 630.935C590.89 631.319 591.397 631.511 591.989 631.511Z"
        fill="black" />
    <path
        d="M663.897 633.179C663.313 633.17 662.738 633.064 662.171 632.859C661.609 632.655 661.098 632.314 660.637 631.837C660.177 631.359 659.809 630.718 659.532 629.913C659.259 629.107 659.122 628.102 659.122 626.896C659.122 625.754 659.235 624.739 659.461 623.853C659.691 622.967 660.022 622.219 660.452 621.609C660.882 620.996 661.402 620.529 662.012 620.21C662.621 619.89 663.305 619.73 664.063 619.73C664.843 619.73 665.536 619.884 666.141 620.19C666.746 620.497 667.236 620.921 667.611 621.462C667.99 622.004 668.231 622.619 668.333 623.31H666.384C666.252 622.764 665.99 622.319 665.598 621.974C665.206 621.629 664.694 621.456 664.063 621.456C663.105 621.456 662.357 621.874 661.82 622.709C661.287 623.544 661.019 624.705 661.014 626.192H661.11C661.336 625.822 661.613 625.506 661.941 625.246C662.274 624.982 662.644 624.78 663.054 624.639C663.467 624.494 663.902 624.422 664.358 624.422C665.116 624.422 665.802 624.607 666.416 624.978C667.034 625.344 667.526 625.852 667.892 626.499C668.259 627.147 668.442 627.888 668.442 628.724C668.442 629.559 668.252 630.315 667.873 630.993C667.498 631.67 666.97 632.207 666.288 632.604C665.606 632.996 664.809 633.188 663.897 633.179ZM663.891 631.517C664.394 631.517 664.843 631.393 665.24 631.146C665.636 630.899 665.949 630.567 666.179 630.149C666.409 629.732 666.524 629.265 666.524 628.749C666.524 628.246 666.412 627.788 666.186 627.375C665.964 626.962 665.657 626.634 665.265 626.391C664.877 626.148 664.434 626.026 663.936 626.026C663.556 626.026 663.205 626.099 662.881 626.244C662.561 626.388 662.28 626.589 662.037 626.844C661.794 627.1 661.603 627.394 661.462 627.727C661.326 628.055 661.257 628.402 661.257 628.768C661.257 629.259 661.37 629.712 661.596 630.13C661.826 630.548 662.139 630.884 662.536 631.14C662.936 631.391 663.388 631.517 663.891 631.517ZM675.13 633.217C674.12 633.213 673.257 632.947 672.541 632.418C671.825 631.89 671.278 631.121 670.898 630.111C670.519 629.101 670.329 627.884 670.329 626.461C670.329 625.042 670.519 623.83 670.898 622.824C671.282 621.818 671.832 621.051 672.547 620.523C673.268 619.994 674.128 619.73 675.13 619.73C676.131 619.73 676.99 619.996 677.706 620.529C678.422 621.058 678.969 621.825 679.349 622.83C679.732 623.832 679.924 625.042 679.924 626.461C679.924 627.888 679.734 629.107 679.355 630.117C678.976 631.123 678.428 631.892 677.712 632.425C676.996 632.953 676.136 633.217 675.13 633.217ZM675.13 631.511C676.016 631.511 676.709 631.078 677.207 630.213C677.71 629.348 677.962 628.097 677.962 626.461C677.962 625.374 677.846 624.456 677.616 623.706C677.391 622.952 677.065 622.381 676.638 621.993C676.217 621.601 675.714 621.405 675.13 621.405C674.248 621.405 673.555 621.839 673.052 622.709C672.55 623.578 672.296 624.829 672.292 626.461C672.292 627.552 672.405 628.474 672.631 629.229C672.861 629.979 673.187 630.548 673.609 630.935C674.03 631.319 674.538 631.511 675.13 631.511Z"
        fill="black" />
    <path
        d="M742.918 633L748.633 621.699V621.603H742.024V619.909H750.678V621.661L744.983 633H742.918ZM756.979 633.217C755.97 633.213 755.107 632.947 754.391 632.418C753.675 631.89 753.127 631.121 752.748 630.111C752.369 629.101 752.179 627.884 752.179 626.461C752.179 625.042 752.369 623.83 752.748 622.824C753.131 621.818 753.681 621.051 754.397 620.523C755.117 619.994 755.978 619.73 756.979 619.73C757.981 619.73 758.84 619.996 759.555 620.529C760.271 621.058 760.819 621.825 761.198 622.83C761.582 623.832 761.774 625.042 761.774 626.461C761.774 627.888 761.584 629.107 761.205 630.117C760.825 631.123 760.278 631.892 759.562 632.425C758.846 632.953 757.985 633.217 756.979 633.217ZM756.979 631.511C757.866 631.511 758.558 631.078 759.057 630.213C759.56 629.348 759.811 628.097 759.811 626.461C759.811 625.374 759.696 624.456 759.466 623.706C759.24 622.952 758.914 622.381 758.488 621.993C758.066 621.601 757.563 621.405 756.979 621.405C756.097 621.405 755.405 621.839 754.902 622.709C754.399 623.578 754.146 624.829 754.141 626.461C754.141 627.552 754.254 628.474 754.48 629.229C754.71 629.979 755.036 630.548 755.458 630.935C755.88 631.319 756.387 631.511 756.979 631.511Z"
        fill="black" />
    <path
        d="M828.785 633.179C827.869 633.179 827.06 633.021 826.356 632.706C825.658 632.391 825.11 631.956 824.714 631.402C824.317 630.848 824.121 630.217 824.126 629.51C824.121 628.956 824.234 628.447 824.464 627.982C824.699 627.513 825.016 627.124 825.417 626.812C825.817 626.497 826.265 626.297 826.759 626.212V626.135C826.107 625.977 825.585 625.628 825.193 625.087C824.801 624.545 824.607 623.923 824.611 623.22C824.607 622.551 824.784 621.955 825.142 621.43C825.504 620.902 826.001 620.487 826.631 620.184C827.262 619.881 827.98 619.73 828.785 619.73C829.582 619.73 830.294 619.884 830.92 620.19C831.551 620.493 832.048 620.908 832.41 621.437C832.772 621.961 832.955 622.555 832.959 623.22C832.955 623.923 832.755 624.545 832.359 625.087C831.962 625.628 831.447 625.977 830.812 626.135V626.212C831.302 626.297 831.743 626.497 832.135 626.812C832.531 627.124 832.847 627.513 833.081 627.982C833.32 628.447 833.441 628.956 833.445 629.51C833.441 630.217 833.241 630.848 832.844 631.402C832.448 631.956 831.898 632.391 831.195 632.706C830.496 633.021 829.693 633.179 828.785 633.179ZM828.785 631.562C829.327 631.562 829.795 631.472 830.192 631.293C830.588 631.11 830.895 630.857 831.112 630.533C831.329 630.205 831.44 629.821 831.445 629.382C831.44 628.926 831.321 628.523 831.087 628.174C830.856 627.825 830.543 627.55 830.147 627.349C829.751 627.149 829.297 627.049 828.785 627.049C828.27 627.049 827.812 627.149 827.411 627.349C827.011 627.55 826.695 627.825 826.465 628.174C826.235 628.523 826.122 628.926 826.126 629.382C826.122 629.821 826.226 630.205 826.44 630.533C826.657 630.857 826.966 631.11 827.366 631.293C827.767 631.472 828.24 631.562 828.785 631.562ZM828.785 625.47C829.22 625.47 829.606 625.383 829.942 625.208C830.279 625.033 830.543 624.79 830.735 624.479C830.931 624.168 831.031 623.804 831.035 623.386C831.031 622.977 830.933 622.619 830.741 622.312C830.554 622.006 830.292 621.769 829.955 621.603C829.619 621.433 829.229 621.347 828.785 621.347C828.334 621.347 827.937 621.433 827.597 621.603C827.26 621.769 826.998 622.006 826.81 622.312C826.623 622.619 826.531 622.977 826.535 623.386C826.531 623.804 826.625 624.168 826.817 624.479C827.008 624.79 827.273 625.033 827.609 625.208C827.95 625.383 828.342 625.47 828.785 625.47ZM840.095 633.217C839.085 633.213 838.222 632.947 837.506 632.418C836.79 631.89 836.242 631.121 835.863 630.111C835.484 629.101 835.294 627.884 835.294 626.461C835.294 625.042 835.484 623.83 835.863 622.824C836.247 621.818 836.796 621.051 837.512 620.523C838.232 619.994 839.093 619.73 840.095 619.73C841.096 619.73 841.955 619.996 842.671 620.529C843.387 621.058 843.934 621.825 844.313 622.83C844.697 623.832 844.889 625.042 844.889 626.461C844.889 627.888 844.699 629.107 844.32 630.117C843.941 631.123 843.393 631.892 842.677 632.425C841.961 632.953 841.1 633.217 840.095 633.217ZM840.095 631.511C840.981 631.511 841.674 631.078 842.172 630.213C842.675 629.348 842.926 628.097 842.926 626.461C842.926 625.374 842.811 624.456 842.581 623.706C842.355 622.952 842.029 622.381 841.603 621.993C841.181 621.601 840.679 621.405 840.095 621.405C839.213 621.405 838.52 621.839 838.017 622.709C837.514 623.578 837.261 624.829 837.257 626.461C837.257 627.552 837.37 628.474 837.595 629.229C837.826 629.979 838.152 630.548 838.573 630.935C838.995 631.319 839.502 631.511 840.095 631.511Z"
        fill="black" />
    <path
        d="M911.68 619.73C912.264 619.734 912.839 619.841 913.406 620.05C913.973 620.259 914.484 620.599 914.94 621.072C915.4 621.545 915.767 622.185 916.039 622.99C916.316 623.791 916.457 624.788 916.461 625.982C916.461 627.128 916.346 628.148 916.116 629.043C915.886 629.934 915.556 630.686 915.125 631.3C914.699 631.913 914.181 632.38 913.572 632.7C912.963 633.019 912.277 633.179 911.514 633.179C910.734 633.179 910.041 633.026 909.436 632.719C908.831 632.412 908.339 631.988 907.96 631.447C907.581 630.901 907.344 630.275 907.25 629.567H909.2C909.328 630.13 909.588 630.586 909.98 630.935C910.376 631.281 910.887 631.453 911.514 631.453C912.473 631.453 913.22 631.036 913.757 630.2C914.294 629.361 914.565 628.189 914.569 626.685H914.467C914.245 627.051 913.968 627.366 913.636 627.631C913.308 627.895 912.939 628.099 912.53 628.244C912.121 628.389 911.684 628.462 911.22 628.462C910.465 628.462 909.779 628.276 909.161 627.906C908.544 627.535 908.051 627.026 907.685 626.378C907.318 625.73 907.135 624.991 907.135 624.16C907.135 623.333 907.323 622.583 907.698 621.91C908.077 621.237 908.605 620.704 909.283 620.312C909.965 619.915 910.764 619.722 911.68 619.73ZM911.686 621.392C911.188 621.392 910.738 621.516 910.338 621.763C909.941 622.006 909.628 622.336 909.398 622.754C909.168 623.167 909.053 623.627 909.053 624.134C909.053 624.641 909.164 625.102 909.385 625.515C909.611 625.924 909.918 626.25 910.306 626.493C910.698 626.732 911.145 626.851 911.648 626.851C912.023 626.851 912.372 626.778 912.696 626.634C913.02 626.489 913.304 626.288 913.546 626.033C913.789 625.773 913.979 625.479 914.115 625.151C914.252 624.822 914.32 624.477 914.32 624.115C914.32 623.634 914.205 623.186 913.975 622.773C913.749 622.359 913.438 622.027 913.041 621.776C912.645 621.52 912.193 621.392 911.686 621.392ZM923.13 633.217C922.12 633.213 921.257 632.947 920.541 632.418C919.825 631.89 919.278 631.121 918.898 630.111C918.519 629.101 918.329 627.884 918.329 626.461C918.329 625.042 918.519 623.83 918.898 622.824C919.282 621.818 919.832 621.051 920.547 620.523C921.268 619.994 922.128 619.73 923.13 619.73C924.131 619.73 924.99 619.996 925.706 620.529C926.422 621.058 926.969 621.825 927.349 622.83C927.732 623.832 927.924 625.042 927.924 626.461C927.924 627.888 927.734 629.107 927.355 630.117C926.976 631.123 926.428 631.892 925.712 632.425C924.996 632.953 924.136 633.217 923.13 633.217ZM923.13 631.511C924.016 631.511 924.709 631.078 925.207 630.213C925.71 629.348 925.962 628.097 925.962 626.461C925.962 625.374 925.846 624.456 925.616 623.706C925.391 622.952 925.065 622.381 924.638 621.993C924.217 621.601 923.714 621.405 923.13 621.405C922.248 621.405 921.555 621.839 921.052 622.709C920.55 623.578 920.296 624.829 920.292 626.461C920.292 627.552 920.405 628.474 920.631 629.229C920.861 629.979 921.187 630.548 921.609 630.935C922.03 631.319 922.538 631.511 923.13 631.511Z"
        fill="black" />
    <path
        d="M995.551 619.909V633H993.569V621.891H993.493L990.36 623.936V622.044L993.627 619.909H995.551ZM1003.45 633.217C1002.44 633.213 1001.58 632.947 1000.86 632.418C1000.15 631.89 999.599 631.121 999.22 630.111C998.841 629.101 998.651 627.884 998.651 626.461C998.651 625.042 998.841 623.83 999.22 622.824C999.604 621.818 1000.15 621.051 1000.87 620.523C1001.59 619.994 1002.45 619.73 1003.45 619.73C1004.45 619.73 1005.31 619.996 1006.03 620.529C1006.74 621.058 1007.29 621.825 1007.67 622.83C1008.05 623.832 1008.25 625.042 1008.25 626.461C1008.25 627.888 1008.06 629.107 1007.68 630.117C1007.3 631.123 1006.75 631.892 1006.03 632.425C1005.32 632.953 1004.46 633.217 1003.45 633.217ZM1003.45 631.511C1004.34 631.511 1005.03 631.078 1005.53 630.213C1006.03 629.348 1006.28 628.097 1006.28 626.461C1006.28 625.374 1006.17 624.456 1005.94 623.706C1005.71 622.952 1005.39 622.381 1004.96 621.993C1004.54 621.601 1004.04 621.405 1003.45 621.405C1002.57 621.405 1001.88 621.839 1001.37 622.709C1000.87 623.578 1000.62 624.829 1000.61 626.461C1000.61 627.552 1000.73 628.474 1000.95 629.229C1001.18 629.979 1001.51 630.548 1001.93 630.935C1002.35 631.319 1002.86 631.511 1003.45 631.511ZM1014.87 633.217C1013.86 633.213 1013 632.947 1012.28 632.418C1011.57 631.89 1011.02 631.121 1010.64 630.111C1010.26 629.101 1010.07 627.884 1010.07 626.461C1010.07 625.042 1010.26 623.83 1010.64 622.824C1011.02 621.818 1011.57 621.051 1012.29 620.523C1013.01 619.994 1013.87 619.73 1014.87 619.73C1015.87 619.73 1016.73 619.996 1017.45 620.529C1018.16 621.058 1018.71 621.825 1019.09 622.83C1019.47 623.832 1019.67 625.042 1019.67 626.461C1019.67 627.888 1019.48 629.107 1019.1 630.117C1018.72 631.123 1018.17 631.892 1017.46 632.425C1016.74 632.953 1015.88 633.217 1014.87 633.217ZM1014.87 631.511C1015.76 631.511 1016.45 631.078 1016.95 630.213C1017.45 629.348 1017.7 628.097 1017.7 626.461C1017.7 625.374 1017.59 624.456 1017.36 623.706C1017.13 622.952 1016.81 622.381 1016.38 621.993C1015.96 621.601 1015.46 621.405 1014.87 621.405C1013.99 621.405 1013.3 621.839 1012.8 622.709C1012.29 623.578 1012.04 624.829 1012.03 626.461C1012.03 627.552 1012.15 628.474 1012.37 629.229C1012.6 629.979 1012.93 630.548 1013.35 630.935C1013.77 631.319 1014.28 631.511 1014.87 631.511Z"
        fill="black" />
    <path
        d="M62.3243 102.32C56.2123 102.32 52.3083 97.968 52.3083 91.28C52.3083 84.592 56.2123 80.24 62.3243 80.24C68.4043 80.24 72.3083 84.592 72.3083 91.28C72.3083 96.368 70.0363 100.112 66.2603 101.616L69.6523 106.512H65.2683L62.6763 102.32C62.5483 102.32 62.4523 102.32 62.3243 102.32ZM62.3243 98.992C66.7723 98.992 68.6283 96.848 68.6283 91.28C68.6283 85.712 66.7723 83.568 62.3243 83.568C57.8763 83.568 55.9883 85.712 55.9883 91.28C55.9883 96.848 57.8763 98.992 62.3243 98.992ZM81.0848 102.32C76.9248 102.32 75.0688 99.536 75.0688 95.92V86.096H78.5248V95.312C78.5248 98.16 79.6128 99.344 82.3648 99.344C85.0208 99.344 86.5248 98.192 86.5248 95.056V86.096H89.9808V102H86.7808V98.832H86.6528C85.8848 100.656 84.1888 102.32 81.0848 102.32ZM97.673 102.32C94.825 102.32 92.617 100.848 92.617 98.064C92.617 95.44 94.537 94.064 97.929 93.584L103.497 92.752V91.888C103.497 89.52 102.409 88.816 99.913 88.816C97.385 88.816 96.393 89.616 96.393 91.728V92.208H93.065V91.888C93.065 88.336 95.849 85.776 100.105 85.776C104.553 85.776 106.793 88.464 106.793 92.336V102H103.593V99.504H103.433C102.505 101.008 100.681 102.32 97.673 102.32ZM95.977 97.808C95.977 99.056 96.777 99.568 98.793 99.568C101.033 99.568 103.497 98.672 103.497 95.472V95.184L98.441 95.952C96.617 96.208 95.977 96.624 95.977 97.808ZM116.408 102.32C111.864 102.32 109.4 99.088 109.4 94.032C109.4 89.008 111.832 85.776 116.216 85.776C119.032 85.776 120.728 87.12 121.432 88.56H121.528V80.56H124.952V102H121.784V99.376H121.656C120.888 101.2 119.128 102.32 116.408 102.32ZM112.856 94.032C112.856 97.968 114.104 99.376 117.176 99.376C119.992 99.376 121.528 98.128 121.528 95.472V92.624C121.528 89.968 119.992 88.72 117.176 88.72C114.136 88.72 112.856 90.128 112.856 94.032ZM131.808 102H128.352V86H131.52V88.528H131.68C132.32 87.056 133.792 85.776 136.128 85.776C139.456 85.776 140.736 88.208 140.736 91.184V92.24H137.28V91.6C137.28 89.488 136.672 88.72 134.656 88.72C132.576 88.72 131.808 89.52 131.808 91.632V102ZM146.923 102.32C144.075 102.32 141.867 100.848 141.867 98.064C141.867 95.44 143.787 94.064 147.179 93.584L152.747 92.752V91.888C152.747 89.52 151.659 88.816 149.163 88.816C146.635 88.816 145.643 89.616 145.643 91.728V92.208H142.315V91.888C142.315 88.336 145.099 85.776 149.355 85.776C153.803 85.776 156.043 88.464 156.043 92.336V102H152.843V99.504H152.683C151.755 101.008 149.931 102.32 146.923 102.32ZM145.227 97.808C145.227 99.056 146.027 99.568 148.043 99.568C150.283 99.568 152.747 98.672 152.747 95.472V95.184L147.691 95.952C145.867 96.208 145.227 96.624 145.227 97.808ZM165.821 102C162.269 102 160.413 100.688 160.413 97.104V88.976H157.757V86.096H160.477L161.213 82.16H163.869V86.096H168.669V88.976H163.869V96.944C163.869 98.608 164.573 98.896 166.717 98.896H168.669V101.712C167.997 101.872 166.909 102 165.821 102ZM174.147 84.08H170.723L170.691 80.56H174.147V84.08ZM174.179 102H170.723V86H174.179V102ZM184.332 102.352C179.372 102.352 176.556 98.992 176.556 94.064C176.556 89.104 179.468 85.776 184.46 85.776C188.652 85.776 191.532 88.368 191.532 92.176V92.464H188.108V92.272C188.108 89.936 186.892 88.88 184.236 88.88C181.164 88.88 179.98 90.608 179.98 94.064C179.98 97.52 181.164 99.216 184.236 99.216C186.892 99.216 188.108 98.192 188.108 95.856V95.664H191.532V95.952C191.532 99.728 188.62 102.352 184.332 102.352ZM211.745 102H207.169L199.041 80.56H202.913L209.377 98.16H209.633L216.033 80.56H219.873L211.745 102ZM227.367 102.32C222.471 102.32 219.431 98.992 219.431 94.032C219.431 89.104 222.471 85.776 227.367 85.776C232.231 85.776 235.175 89.104 235.175 94.032C235.175 98.992 232.231 102.32 227.367 102.32ZM227.367 99.248C230.695 99.248 231.847 97.616 231.847 94.032C231.847 90.48 230.695 88.848 227.367 88.848C224.007 88.848 222.823 90.48 222.823 94.032C222.823 97.616 224.007 99.248 227.367 99.248ZM244.258 102C240.706 102 238.85 100.688 238.85 97.104V88.976H236.194V86.096H238.914L239.65 82.16H242.306V86.096H247.106V88.976H242.306V96.944C242.306 98.608 243.01 98.896 245.154 98.896H247.106V101.712C246.434 101.872 245.346 102 244.258 102ZM252.584 84.08H249.16L249.128 80.56H252.584V84.08ZM252.616 102H249.16V86H252.616V102ZM259.246 102H255.79V86.096H258.958V89.072H259.086C259.822 87.376 261.518 85.776 264.622 85.776C268.75 85.776 270.606 88.4 270.606 92.016V102H267.15V92.784C267.15 89.936 266.254 88.752 263.342 88.752C260.526 88.752 259.246 89.84 259.246 92.816V102ZM280.028 100.496C275.644 100.496 273.212 97.616 273.212 93.136C273.212 88.656 275.676 85.776 280.156 85.776C282.716 85.776 284.7 86.864 285.468 88.72H285.596V86.096H288.764V100.848C288.764 105.552 286.012 107.76 281.372 107.76C276.86 107.76 274.044 105.616 274.044 101.776H277.468C277.468 103.952 278.268 104.688 281.468 104.688C284.572 104.688 285.34 103.792 285.34 100.848V97.68H285.212C284.476 99.216 282.62 100.496 280.028 100.496ZM276.668 93.136C276.668 96.4 278.012 97.552 281.02 97.552C283.612 97.552 285.34 96.304 285.34 93.616V92.624C285.34 89.968 283.612 88.72 280.956 88.72C277.98 88.72 276.668 89.872 276.668 93.136ZM302.1 91.056H297.716V86.096H302.1V91.056ZM302.1 102H297.716V97.04H302.1V102ZM314.186 102H310.73V80.56H319.946C324.682 80.56 327.658 82.896 327.658 86.96C327.658 90.512 325.482 92.656 321.706 92.848V93.104C323.274 93.616 324.202 94.576 325.002 96.048L328.202 102H324.202L321.162 96.464C320.17 94.608 319.274 93.744 316.714 93.744H314.186V102ZM314.186 83.664V90.896H320.362C323.146 90.896 324.202 89.872 324.202 87.28C324.202 84.752 323.146 83.664 320.362 83.664H314.186ZM336.768 102.32C331.52 102.32 329.056 98.992 329.056 94.032C329.056 89.104 332 85.776 336.736 85.776C341.024 85.776 344.032 88.336 344.032 92.688C344.032 93.52 343.936 94.384 343.84 94.864H332.288C332.416 97.776 333.472 99.248 336.8 99.248C339.456 99.248 340.48 98.352 340.48 96.912V96.656H343.904V96.944C343.904 100.208 341.056 102.32 336.768 102.32ZM336.672 88.688C333.664 88.688 332.512 90.096 332.32 92.56H340.736C340.864 89.84 339.392 88.688 336.672 88.688ZM353.09 102.32C348.642 102.32 346.306 99.088 346.306 94.064C346.306 89.008 348.738 85.776 353.218 85.776C355.97 85.776 357.794 86.864 358.562 88.72H358.69V86.096H361.858V107.536H358.434V99.536H358.338C357.634 100.976 355.842 102.32 353.09 102.32ZM349.762 94.064C349.762 97.968 351.042 99.376 354.082 99.376C356.898 99.376 358.434 98.128 358.434 95.472V92.624C358.434 89.968 356.898 88.72 354.082 88.72C351.01 88.72 349.762 90.128 349.762 94.064ZM371.179 102.32C367.019 102.32 365.163 99.536 365.163 95.92V86.096H368.619V95.312C368.619 98.16 369.707 99.344 372.459 99.344C375.115 99.344 376.619 98.192 376.619 95.056V86.096H380.075V102H376.875V98.832H376.747C375.979 100.656 374.283 102.32 371.179 102.32ZM386.709 84.08H383.285L383.253 80.56H386.709V84.08ZM386.741 102H383.285V86H386.741V102ZM393.371 102H389.915V86H393.083V88.528H393.243C393.883 87.056 395.355 85.776 397.691 85.776C401.019 85.776 402.299 88.208 402.299 91.184V92.24H398.843V91.6C398.843 89.488 398.235 88.72 396.219 88.72C394.139 88.72 393.371 89.52 393.371 91.632V102ZM411.581 102.32C406.333 102.32 403.868 98.992 403.868 94.032C403.868 89.104 406.812 85.776 411.549 85.776C415.837 85.776 418.845 88.336 418.845 92.688C418.845 93.52 418.749 94.384 418.653 94.864H407.101C407.229 97.776 408.285 99.248 411.613 99.248C414.269 99.248 415.293 98.352 415.293 96.912V96.656H418.717V96.944C418.717 100.208 415.869 102.32 411.581 102.32ZM411.485 88.688C408.477 88.688 407.325 90.096 407.133 92.56H415.549C415.677 89.84 414.205 88.688 411.485 88.688ZM428.127 102.32C423.583 102.32 421.118 99.088 421.118 94.032C421.118 89.008 423.551 85.776 427.935 85.776C430.751 85.776 432.447 87.12 433.151 88.56H433.247V80.56H436.671V102H433.503V99.376H433.375C432.607 101.2 430.847 102.32 428.127 102.32ZM424.575 94.032C424.575 97.968 425.823 99.376 428.895 99.376C431.711 99.376 433.247 98.128 433.247 95.472V92.624C433.247 89.968 431.711 88.72 428.895 88.72C425.855 88.72 424.575 90.128 424.575 94.032ZM454.87 102.32C448.694 102.32 446.006 99.472 446.006 95.344V94.8H449.398V95.152C449.398 97.808 450.518 99.152 454.998 99.152C458.166 99.152 459.318 98.288 459.318 96.304C459.318 94.352 458.678 93.648 455.382 92.976L451.734 92.24C448.054 91.536 446.07 89.744 446.07 86.352C446.07 83.184 448.534 80.24 454.07 80.24C459.99 80.24 462.358 83.568 462.358 87.376V87.76H458.966V87.408C458.966 84.784 457.814 83.408 453.974 83.408C450.806 83.408 449.526 84.304 449.526 86.192C449.526 88.144 450.39 88.688 453.334 89.328L456.982 90.096C461.014 90.928 462.774 92.944 462.774 96.176C462.774 99.536 460.342 102.32 454.87 102.32ZM471.633 102C468.081 102 466.225 100.688 466.225 97.104V88.976H463.569V86.096H466.289L467.025 82.16H469.681V86.096H474.481V88.976H469.681V96.944C469.681 98.608 470.385 98.896 472.529 98.896H474.481V101.712C473.809 101.872 472.721 102 471.633 102ZM481.111 102.32C478.263 102.32 476.055 100.848 476.055 98.064C476.055 95.44 477.975 94.064 481.367 93.584L486.935 92.752V91.888C486.935 89.52 485.847 88.816 483.351 88.816C480.823 88.816 479.831 89.616 479.831 91.728V92.208H476.503V91.888C476.503 88.336 479.286 85.776 483.543 85.776C487.991 85.776 490.231 88.464 490.231 92.336V102H487.031V99.504H486.871C485.943 101.008 484.119 102.32 481.111 102.32ZM479.415 97.808C479.415 99.056 480.215 99.568 482.231 99.568C484.47 99.568 486.935 98.672 486.935 95.472V95.184L481.879 95.952C480.055 96.208 479.415 96.624 479.415 97.808ZM496.996 102H493.54V80.56H496.996V92.4H500.132L504.388 86.096H508.452L502.916 93.616L508.356 102H504.324L500.164 95.504H496.996V102ZM516.456 102.32C511.208 102.32 508.743 98.992 508.743 94.032C508.743 89.104 511.688 85.776 516.424 85.776C520.712 85.776 523.72 88.336 523.72 92.688C523.72 93.52 523.624 94.384 523.528 94.864H511.976C512.104 97.776 513.16 99.248 516.488 99.248C519.144 99.248 520.168 98.352 520.168 96.912V96.656H523.592V96.944C523.592 100.208 520.744 102.32 516.456 102.32ZM516.36 88.688C513.352 88.688 512.2 90.096 512.008 92.56H520.424C520.552 89.84 519.08 88.688 516.36 88.688ZM544.089 102H539.513L531.385 80.56H535.257L541.721 98.16H541.977L548.377 80.56H552.217L544.089 102ZM559.572 102.32C554.932 102.32 552.5 100.496 552.5 96.624V96.56H555.828V97.136C555.828 98.864 556.596 99.504 559.635 99.504C562.196 99.504 562.676 98.928 562.676 97.744C562.676 96.464 561.908 96.08 559.572 95.664L557.108 95.248C554.26 94.736 552.468 93.456 552.468 90.576C552.468 87.696 554.836 85.776 558.996 85.776C562.74 85.776 565.556 87.632 565.556 91.248V91.536H562.26V91.152C562.26 89.68 561.748 88.624 558.9 88.624C556.372 88.624 555.764 89.296 555.764 90.512C555.764 91.728 556.34 92.08 558.58 92.528L561.268 93.04C564.34 93.648 565.94 95.024 565.94 97.648C565.94 100.592 563.604 102.32 559.572 102.32ZM572.407 102H568.023V97.04H572.407V102ZM592.589 102H588.013L579.885 80.56H583.757L590.221 98.16H590.477L596.877 80.56H600.717L592.589 102ZM608.211 102.32C603.315 102.32 600.275 98.992 600.275 94.032C600.275 89.104 603.315 85.776 608.211 85.776C613.075 85.776 616.019 89.104 616.019 94.032C616.019 98.992 613.075 102.32 608.211 102.32ZM608.211 99.248C611.539 99.248 612.691 97.616 612.691 94.032C612.691 90.48 611.539 88.848 608.211 88.848C604.851 88.848 603.667 90.48 603.667 94.032C603.667 97.616 604.851 99.248 608.211 99.248ZM625.102 102C621.55 102 619.694 100.688 619.694 97.104V88.976H617.038V86.096H619.758L620.494 82.16H623.15V86.096H627.95V88.976H623.15V96.944C623.15 98.608 623.854 98.896 625.998 98.896H627.95V101.712C627.278 101.872 626.19 102 625.102 102ZM633.428 84.08H630.004L629.972 80.56H633.428V84.08ZM633.46 102H630.004V86H633.46V102ZM640.09 102H636.634V86.096H639.802V89.072H639.93C640.666 87.376 642.362 85.776 645.466 85.776C649.594 85.776 651.45 88.4 651.45 92.016V102H647.994V92.784C647.994 89.936 647.098 88.752 644.186 88.752C641.37 88.752 640.09 89.84 640.09 92.816V102ZM660.872 100.496C656.488 100.496 654.056 97.616 654.056 93.136C654.056 88.656 656.52 85.776 661 85.776C663.56 85.776 665.544 86.864 666.312 88.72H666.44V86.096H669.608V100.848C669.608 105.552 666.856 107.76 662.216 107.76C657.704 107.76 654.888 105.616 654.888 101.776H658.312C658.312 103.952 659.112 104.688 662.312 104.688C665.416 104.688 666.184 103.792 666.184 100.848V97.68H666.056C665.32 99.216 663.464 100.496 660.872 100.496ZM657.512 93.136C657.512 96.4 658.856 97.552 661.864 97.552C664.456 97.552 666.184 96.304 666.184 93.616V92.624C666.184 89.968 664.456 88.72 661.8 88.72C658.824 88.72 657.512 89.872 657.512 93.136ZM682.592 102H679.136V80.56H688.256C692.736 80.56 696.032 83.216 696.032 87.824C696.032 92.432 692.736 95.088 688.256 95.088H682.592V102ZM688.672 83.664H682.592V91.984H688.672C691.488 91.984 692.608 90.896 692.608 87.824C692.608 84.752 691.488 83.664 688.672 83.664ZM705.148 102.32C700.252 102.32 697.212 98.992 697.212 94.032C697.212 89.104 700.252 85.776 705.148 85.776C710.012 85.776 712.956 89.104 712.956 94.032C712.956 98.992 710.012 102.32 705.148 102.32ZM705.148 99.248C708.476 99.248 709.628 97.616 709.628 94.032C709.628 90.48 708.476 88.848 705.148 88.848C701.788 88.848 700.604 90.48 700.604 94.032C700.604 97.616 701.788 99.248 705.148 99.248ZM721.988 102H717.476L713.54 86.096H717.284L719.108 94.928L719.748 99.12H720.004L721.06 94.928L723.844 86.096H728.324L731.14 94.96L732.132 99.12H732.388L733.028 94.96L734.884 86.096H738.468L734.532 102H730.052L727.204 93.136L726.148 89.136H725.892L724.868 93.136L721.988 102ZM746.706 102.32C741.458 102.32 738.993 98.992 738.993 94.032C738.993 89.104 741.938 85.776 746.674 85.776C750.962 85.776 753.97 88.336 753.97 92.688C753.97 93.52 753.874 94.384 753.778 94.864H742.226C742.354 97.776 743.41 99.248 746.738 99.248C749.394 99.248 750.418 98.352 750.418 96.912V96.656H753.842V96.944C753.842 100.208 750.994 102.32 746.706 102.32ZM746.61 88.688C743.602 88.688 742.45 90.096 742.258 92.56H750.674C750.802 89.84 749.33 88.688 746.61 88.688ZM760.183 102H756.727V86H759.895V88.528H760.055C760.695 87.056 762.167 85.776 764.503 85.776C767.831 85.776 769.111 88.208 769.111 91.184V92.24H765.655V91.6C765.655 89.488 765.047 88.72 763.031 88.72C760.951 88.72 760.183 89.52 760.183 91.632V102Z"
        fill="black" />
    <line x1="175.5" y1="159" x2="175.5" y2="602" stroke="#404040" />
    <line x1="1044" y1="602.5" x2="175" y2="602.5" stroke="#404040" />
    <line x1="1044" y1="170.5" x2="175" y2="170.5" stroke="#CDCDCD" stroke-opacity="0.7" />
    <line x1="1044" y1="206.5" x2="175" y2="206.5" stroke="#CDCDCD" stroke-dasharray="4 4" />
    <line x1="1044" y1="242.5" x2="175" y2="242.5" stroke="#CDCDCD" stroke-opacity="0.7" />
    <line x1="1044" y1="278.5" x2="175" y2="278.5" stroke="#CDCDCD" stroke-dasharray="4 4" />
    <line x1="1044" y1="314.5" x2="175" y2="314.5" stroke="#CDCDCD" stroke-opacity="0.7" />
    <line x1="1044" y1="350.5" x2="175" y2="350.5" stroke="#CDCDCD" stroke-dasharray="4 4" />
    <line x1="1044" y1="386.5" x2="175" y2="386.5" stroke="#CDCDCD" stroke-opacity="0.7" />
    <line x1="1044" y1="422.5" x2="175" y2="422.5" stroke="#CDCDCD" stroke-dasharray="4 4" />
    <line x1="1044" y1="458.5" x2="175" y2="458.5" stroke="#CDCDCD" stroke-opacity="0.7" />
    <line x1="1044" y1="494.5" x2="175" y2="494.5" stroke="#CDCDCD" stroke-dasharray="4 4" />
    <line x1="1044" y1="530.5" x2="175" y2="530.5" stroke="#CDCDCD" stroke-opacity="0.7" />
    <line x1="1044" y1="566.5" x2="175" y2="566.5" stroke="#CDCDCD" stroke-dasharray="4 4" />
    <line x1="168" y1="566.5" x2="182" y2="566.5" stroke="#404040" />
    <line x1="168" y1="494.5" x2="182" y2="494.5" stroke="#404040" />
    <line x1="168" y1="422.5" x2="182" y2="422.5" stroke="#404040" />
    <line x1="168" y1="350.5" x2="182" y2="350.5" stroke="#404040" />
    <line x1="168" y1="278.5" x2="182" y2="278.5" stroke="#404040" />
    <line x1="168" y1="206.5" x2="182" y2="206.5" stroke="#404040" />
    <path
        d="M273.483 596.124L178 602L1030 601.466V243C1011.39 259.561 870.372 356.79 842.952 375.488C815.531 394.186 798.393 403.802 763.138 421.966C727.883 440.129 664.228 468.443 646.6 479.128C628.972 489.812 477.669 545.906 462.979 551.249C451.228 555.522 331.752 582.946 273.483 596.124Z"
        stroke="#EF5D13" stroke-opacity="0.7" stroke-width="3" />
</svg>