<svg width="1110" height="728" viewBox="0 0 1110 728" fill="none" xmlns="http://www.w3.org/2000/svg">
    <rect width="1110" height="728" fill="black" />
    <path
        d="M585.914 660.455L589.43 671.506H589.565L593.087 660.455H596.496L591.482 675H587.519L582.498 660.455H585.914ZM601.669 675.213C600.566 675.213 599.612 674.979 598.807 674.51C598.006 674.036 597.389 673.378 596.953 672.536C596.517 671.688 596.3 670.705 596.3 669.588C596.3 668.461 596.517 667.476 596.953 666.634C597.389 665.786 598.006 665.128 598.807 664.659C599.612 664.186 600.566 663.949 601.669 663.949C602.772 663.949 603.724 664.186 604.524 664.659C605.329 665.128 605.949 665.786 606.385 666.634C606.82 667.476 607.038 668.461 607.038 669.588C607.038 670.705 606.82 671.688 606.385 672.536C605.949 673.378 605.329 674.036 604.524 674.51C603.724 674.979 602.772 675.213 601.669 675.213ZM601.683 672.869C602.185 672.869 602.604 672.727 602.94 672.443C603.276 672.154 603.53 671.761 603.7 671.264C603.875 670.767 603.963 670.201 603.963 669.567C603.963 668.932 603.875 668.366 603.7 667.869C603.53 667.372 603.276 666.979 602.94 666.69C602.604 666.402 602.185 666.257 601.683 666.257C601.176 666.257 600.75 666.402 600.405 666.69C600.064 666.979 599.806 667.372 599.631 667.869C599.46 668.366 599.375 668.932 599.375 669.567C599.375 670.201 599.46 670.767 599.631 671.264C599.806 671.761 600.064 672.154 600.405 672.443C600.75 672.727 601.176 672.869 601.683 672.869ZM614.588 664.091V666.364H608.018V664.091H614.588ZM609.51 661.477H612.536V671.648C612.536 671.927 612.578 672.145 612.663 672.301C612.749 672.453 612.867 672.559 613.018 672.621C613.175 672.682 613.355 672.713 613.558 672.713C613.7 672.713 613.842 672.701 613.984 672.678C614.126 672.649 614.235 672.628 614.311 672.614L614.787 674.865C614.635 674.912 614.422 674.967 614.148 675.028C613.873 675.095 613.539 675.135 613.146 675.149C612.417 675.178 611.778 675.08 611.229 674.858C610.684 674.635 610.26 674.29 609.957 673.821C609.654 673.352 609.505 672.76 609.51 672.045V661.477ZM621.193 675.213C620.071 675.213 619.105 674.986 618.296 674.531C617.491 674.072 616.87 673.423 616.435 672.585C615.999 671.742 615.781 670.746 615.781 669.595C615.781 668.473 615.999 667.488 616.435 666.641C616.87 665.793 617.484 665.133 618.274 664.659C619.07 664.186 620.003 663.949 621.073 663.949C621.792 663.949 622.462 664.065 623.083 664.297C623.708 664.524 624.252 664.867 624.716 665.327C625.185 665.786 625.549 666.364 625.81 667.06C626.07 667.751 626.2 668.561 626.2 669.489V670.32H616.989V668.445H623.352C623.352 668.009 623.258 667.623 623.068 667.287C622.879 666.951 622.616 666.688 622.28 666.499C621.949 666.304 621.563 666.207 621.122 666.207C620.663 666.207 620.256 666.314 619.901 666.527C619.55 666.735 619.276 667.017 619.077 667.372C618.878 667.723 618.776 668.113 618.771 668.544V670.327C618.771 670.866 618.871 671.333 619.07 671.726C619.273 672.119 619.56 672.422 619.929 672.635C620.298 672.848 620.736 672.955 621.243 672.955C621.579 672.955 621.887 672.907 622.166 672.812C622.446 672.718 622.685 672.576 622.884 672.386C623.083 672.197 623.234 671.965 623.338 671.69L626.137 671.875C625.994 672.547 625.703 673.134 625.263 673.636C624.827 674.134 624.264 674.522 623.573 674.801C622.886 675.076 622.093 675.213 621.193 675.213ZM637.032 667.202L634.262 667.372C634.214 667.135 634.113 666.922 633.956 666.733C633.8 666.539 633.594 666.385 633.338 666.271C633.087 666.153 632.787 666.094 632.436 666.094C631.968 666.094 631.572 666.193 631.25 666.392C630.928 666.586 630.767 666.847 630.767 667.173C630.767 667.434 630.872 667.654 631.08 667.834C631.288 668.014 631.646 668.158 632.152 668.267L634.127 668.665C635.187 668.883 635.978 669.233 636.499 669.716C637.02 670.199 637.28 670.833 637.28 671.619C637.28 672.334 637.069 672.962 636.648 673.501C636.231 674.041 635.658 674.463 634.929 674.766C634.205 675.064 633.369 675.213 632.422 675.213C630.978 675.213 629.828 674.912 628.971 674.311C628.118 673.705 627.619 672.881 627.472 671.839L630.448 671.683C630.538 672.124 630.756 672.46 631.101 672.692C631.447 672.919 631.89 673.033 632.429 673.033C632.96 673.033 633.386 672.931 633.708 672.727C634.034 672.519 634.2 672.251 634.205 671.925C634.2 671.65 634.084 671.425 633.857 671.25C633.63 671.07 633.279 670.933 632.806 670.838L630.917 670.462C629.851 670.249 629.058 669.879 628.537 669.354C628.021 668.828 627.763 668.158 627.763 667.344C627.763 666.643 627.953 666.039 628.331 665.533C628.715 665.026 629.252 664.635 629.944 664.361C630.64 664.086 631.454 663.949 632.387 663.949C633.765 663.949 634.849 664.24 635.64 664.822C636.435 665.405 636.899 666.198 637.032 667.202Z"
        fill="black" />
    <path
        d="M76 413.289L61.4545 413.289L61.4545 407.55C61.4545 406.452 61.651 405.514 62.044 404.738C62.4323 403.956 62.9839 403.362 63.6989 402.955C64.4091 402.543 65.2448 402.337 66.206 402.337C67.1719 402.337 68.0028 402.545 68.6989 402.962C69.3902 403.379 69.9205 403.982 70.2898 404.773C70.6591 405.559 70.8437 406.511 70.8437 407.628L70.8437 411.471L68.3722 411.471L68.3722 408.125C68.3722 407.538 68.2917 407.051 68.1307 406.662C67.9697 406.274 67.7282 405.985 67.4062 405.796C67.0843 405.602 66.6842 405.505 66.206 405.505C65.723 405.505 65.3158 405.602 64.9844 405.796C64.6529 405.985 64.402 406.276 64.2315 406.669C64.0563 407.058 63.9687 407.548 63.9687 408.14L63.9687 410.213L76 410.213L76 413.289ZM69.3807 405.434L76 401.819L76 405.213L69.3807 408.75L69.3807 405.434ZM76.2131 395.645C76.2131 396.767 75.9858 397.733 75.5312 398.542C75.072 399.347 74.4233 399.968 73.5852 400.403C72.7424 400.839 71.7457 401.057 70.5952 401.057C69.473 401.057 68.4882 400.839 67.6406 400.403C66.7931 399.968 66.1326 399.355 65.6591 398.564C65.1856 397.768 64.9489 396.836 64.9489 395.766C64.9489 395.046 65.0649 394.376 65.2969 393.756C65.5241 393.131 65.8674 392.586 66.3267 392.122C66.786 391.653 67.3636 391.289 68.0597 391.028C68.7509 390.768 69.5606 390.638 70.4886 390.638L71.3196 390.638L71.3196 399.849L69.4446 399.849L69.4446 393.486C69.009 393.486 68.6231 393.58 68.2869 393.77C67.9508 393.959 67.688 394.222 67.4986 394.558C67.3044 394.89 67.2074 395.275 67.2074 395.716C67.2074 396.175 67.3139 396.582 67.527 396.937C67.7353 397.288 68.017 397.562 68.3722 397.761C68.7225 397.96 69.1132 398.062 69.544 398.067L71.3267 398.067C71.8665 398.067 72.3329 397.967 72.7259 397.768C73.1188 397.565 73.4219 397.278 73.6349 396.909C73.848 396.54 73.9545 396.102 73.9545 395.595C73.9545 395.259 73.9072 394.951 73.8125 394.672C73.7178 394.392 73.5758 394.153 73.3864 393.954C73.197 393.756 72.965 393.604 72.6903 393.5L72.875 390.702C73.5473 390.844 74.1345 391.135 74.6364 391.575C75.1335 392.011 75.5218 392.574 75.8011 393.266C76.0758 393.952 76.2131 394.745 76.2131 395.645ZM80.0909 381.674L74.2528 381.674L74.2528 381.767C74.5559 381.909 74.8565 382.11 75.1548 382.37C75.4484 382.626 75.6922 382.96 75.8864 383.372C76.0805 383.779 76.1776 384.276 76.1776 384.863C76.1776 385.692 75.9645 386.442 75.5384 387.115C75.1075 387.782 74.4754 388.313 73.642 388.706C72.804 389.094 71.7765 389.288 70.5597 389.288C69.3097 389.288 68.2704 389.087 67.4418 388.684C66.6084 388.282 65.9858 387.747 65.5739 387.079C65.1572 386.407 64.9489 385.671 64.9489 384.87C64.9489 384.26 65.053 383.751 65.2614 383.343C65.465 382.932 65.7206 382.6 66.0284 382.349C66.3314 382.093 66.6297 381.899 66.9233 381.767L66.9233 381.639L65.0909 381.639L65.0909 378.656L80.0909 378.656L80.0909 381.674ZM73.7699 383.905C73.7699 383.417 73.6373 383.005 73.3722 382.669C73.1023 382.328 72.7259 382.067 72.2429 381.887C71.7599 381.703 71.1941 381.611 70.5455 381.611C69.8968 381.611 69.3333 381.7 68.8551 381.88C68.3769 382.06 68.0076 382.321 67.7472 382.662C67.4867 383.003 67.3565 383.417 67.3565 383.905C67.3565 384.402 67.4915 384.821 67.7614 385.162C68.0312 385.503 68.4053 385.761 68.8835 385.936C69.3617 386.111 69.9157 386.199 70.5455 386.199C71.1799 386.199 71.741 386.111 72.2287 385.936C72.7116 385.756 73.0904 385.498 73.3651 385.162C73.6349 384.821 73.7699 384.402 73.7699 383.905ZM76.1847 374.679C76.1847 375.147 76.0189 375.55 75.6875 375.886C75.3513 376.217 74.9489 376.383 74.4801 376.383C74.0161 376.383 73.6184 376.217 73.2869 375.886C72.9555 375.55 72.7898 375.147 72.7898 374.679C72.7898 374.224 72.9555 373.826 73.2869 373.485C73.6184 373.144 74.0161 372.974 74.4801 372.974C74.7926 372.974 75.0791 373.054 75.3395 373.215C75.5952 373.372 75.8011 373.578 75.9574 373.833C76.1089 374.089 76.1847 374.371 76.1847 374.679ZM65.6378 359.037C65.0649 359.094 64.6198 359.338 64.3026 359.769C63.9853 360.2 63.8267 360.784 63.8267 361.523C63.8267 362.025 63.8977 362.449 64.0398 362.794C64.1771 363.14 64.3688 363.405 64.6151 363.59C64.8613 363.77 65.1406 363.86 65.4531 363.86C65.7135 363.869 65.9408 363.815 66.1349 363.696C66.3291 363.573 66.4972 363.405 66.6392 363.192C66.7765 362.979 66.8973 362.733 67.0014 362.453C67.1008 362.174 67.1861 361.876 67.2571 361.559L67.5696 360.252C67.7116 359.617 67.901 359.035 68.1378 358.505C68.3745 357.974 68.6657 357.515 69.0114 357.127C69.357 356.738 69.7642 356.438 70.233 356.225C70.7017 356.007 71.2391 355.896 71.8452 355.891C72.7353 355.896 73.5071 356.123 74.1605 356.573C74.8092 357.018 75.3134 357.662 75.6733 358.505C76.0284 359.343 76.206 360.353 76.206 361.537C76.206 362.711 76.026 363.734 75.6662 364.605C75.3063 365.472 74.7737 366.149 74.0682 366.637C73.358 367.12 72.4796 367.373 71.4332 367.397L71.4332 364.421C71.9209 364.388 72.3281 364.248 72.6548 364.002C72.9768 363.751 73.2206 363.417 73.3864 363C73.5473 362.579 73.6278 362.103 73.6278 361.573C73.6278 361.052 73.5521 360.6 73.4006 360.216C73.2491 359.828 73.0383 359.527 72.7685 359.314C72.4986 359.101 72.1884 358.995 71.8381 358.995C71.5114 358.995 71.2367 359.092 71.0142 359.286C70.7917 359.475 70.6023 359.755 70.446 360.124C70.2898 360.488 70.1477 360.936 70.0199 361.466L69.6222 363.05C69.3239 364.276 68.8575 365.245 68.223 365.955C67.5885 366.665 66.7339 367.018 65.6591 367.013C64.7784 367.018 64.009 366.783 63.3509 366.31C62.6927 365.832 62.179 365.176 61.8097 364.343C61.4403 363.509 61.2557 362.562 61.2557 361.502C61.2557 360.422 61.4403 359.48 61.8097 358.675C62.179 357.865 62.6927 357.236 63.3508 356.786C64.009 356.336 64.7713 356.104 65.6378 356.09L65.6378 359.037ZM65.0909 348.297L67.3636 348.297L67.3636 354.866L65.0909 354.866L65.0909 348.297ZM62.4773 353.375L62.4773 350.349L72.6477 350.349C72.9271 350.349 73.1449 350.307 73.3011 350.221C73.4526 350.136 73.5592 350.018 73.6207 349.866C73.6823 349.71 73.7131 349.53 73.7131 349.326C73.7131 349.184 73.7012 349.042 73.6776 348.9C73.6491 348.758 73.6278 348.649 73.6136 348.574L75.8651 348.098C75.9124 348.249 75.9669 348.462 76.0284 348.737C76.0947 349.012 76.1349 349.345 76.1491 349.738C76.1776 350.468 76.0805 351.107 75.858 351.656C75.6354 352.2 75.2898 352.624 74.821 352.927C74.3523 353.23 73.7604 353.379 73.0455 353.375L62.4773 353.375ZM76.206 343.435C76.206 344.131 76.0852 344.751 75.8437 345.296C75.5975 345.84 75.2353 346.271 74.7571 346.588C74.2741 346.901 73.6728 347.057 72.9531 347.057C72.3471 347.057 71.8381 346.946 71.4261 346.723C71.0142 346.501 70.6828 346.198 70.4318 345.814C70.1809 345.431 69.9915 344.995 69.8636 344.507C69.7358 344.015 69.6458 343.499 69.5937 342.959C69.5275 342.325 69.4659 341.813 69.4091 341.425C69.3475 341.037 69.2576 340.755 69.1392 340.58C69.0208 340.405 68.8456 340.317 68.6136 340.317L68.571 340.317C68.1212 340.317 67.7732 340.459 67.527 340.743C67.2808 341.023 67.1577 341.42 67.1577 341.936C67.1577 342.481 67.2784 342.914 67.5199 343.236C67.7566 343.558 68.0549 343.771 68.4148 343.875L68.1875 346.674C67.5246 346.532 66.9517 346.252 66.4687 345.836C65.9811 345.419 65.607 344.881 65.3466 344.223C65.0814 343.56 64.9489 342.793 64.9489 341.922C64.9489 341.316 65.0199 340.736 65.1619 340.182C65.304 339.623 65.5241 339.129 65.8224 338.698C66.1207 338.262 66.5043 337.919 66.973 337.668C67.437 337.417 67.9934 337.291 68.642 337.291L76 337.291L76 340.161L74.4872 340.161L74.4872 340.246C74.8281 340.421 75.1288 340.656 75.3892 340.949C75.6449 341.243 75.8461 341.595 75.9929 342.007C76.1349 342.419 76.206 342.895 76.206 343.435ZM74.1179 342.568C74.1179 342.123 74.0303 341.73 73.8551 341.389C73.6752 341.049 73.4337 340.781 73.1307 340.587C72.8276 340.393 72.4844 340.296 72.1008 340.296L70.9432 340.296C71.0047 340.39 71.0615 340.521 71.1136 340.686C71.161 340.847 71.206 341.03 71.2486 341.233C71.2865 341.437 71.322 341.64 71.3551 341.844C71.3835 342.048 71.4096 342.232 71.4332 342.398C71.4853 342.753 71.5682 343.063 71.6818 343.328C71.7955 343.594 71.9493 343.8 72.1435 343.946C72.3329 344.093 72.5696 344.166 72.8537 344.166C73.2656 344.166 73.5805 344.017 73.7983 343.719C74.0114 343.416 74.1179 343.032 74.1179 342.568ZM72.8608 332.423L69.2315 332.416L69.2315 331.975L65.0909 328.481L65.0909 325.008L70.5739 329.703L70.5739 330.42L72.8608 332.423ZM76 335.164L61.4545 335.164L61.4545 332.139L76 332.139L76 335.164ZM76 328.346L71.2486 331.556L69.1108 329.539L76 324.802L76 328.346ZM76.2131 319.221C76.2131 320.343 75.9858 321.309 75.5312 322.119C75.072 322.924 74.4233 323.544 73.5852 323.98C72.7424 324.415 71.7457 324.633 70.5952 324.633C69.473 324.633 68.4882 324.415 67.6406 323.98C66.7931 323.544 66.1326 322.931 65.6591 322.14C65.1856 321.345 64.9489 320.412 64.9489 319.342C64.9489 318.622 65.0649 317.952 65.2969 317.332C65.5241 316.707 65.8674 316.162 66.3267 315.698C66.786 315.23 67.3636 314.865 68.0597 314.605C68.7509 314.344 69.5606 314.214 70.4886 314.214L71.3196 314.214L71.3196 323.426L69.4446 323.426L69.4446 317.062C69.009 317.062 68.6231 317.157 68.2869 317.346C67.9508 317.536 67.688 317.798 67.4986 318.135C67.3044 318.466 67.2074 318.852 67.2074 319.292C67.2074 319.751 67.3139 320.159 67.527 320.514C67.7353 320.864 68.017 321.139 68.3722 321.338C68.7225 321.537 69.1132 321.638 69.544 321.643L71.3267 321.643C71.8665 321.643 72.3329 321.544 72.7258 321.345C73.1188 321.141 73.4219 320.855 73.6349 320.485C73.848 320.116 73.9545 319.678 73.9545 319.171C73.9545 318.835 73.9072 318.528 73.8125 318.248C73.7178 317.969 73.5758 317.73 73.3864 317.531C73.197 317.332 72.965 317.18 72.6903 317.076L72.875 314.278C73.5473 314.42 74.1345 314.711 74.6364 315.152C75.1335 315.587 75.5218 316.151 75.8011 316.842C76.0758 317.528 76.2131 318.322 76.2131 319.221Z"
        fill="black" />
    <path
        d="M111.101 164.909V178H109.119V166.891H109.042L105.91 168.936V167.044L109.177 164.909H111.101ZM114.444 178V176.568L118.874 171.979C119.347 171.48 119.736 171.043 120.043 170.668C120.354 170.289 120.587 169.929 120.74 169.588C120.893 169.247 120.97 168.885 120.97 168.501C120.97 168.067 120.868 167.692 120.663 167.376C120.459 167.057 120.18 166.812 119.826 166.641C119.472 166.467 119.074 166.379 118.631 166.379C118.162 166.379 117.753 166.475 117.403 166.667C117.054 166.859 116.785 167.129 116.598 167.479C116.41 167.828 116.317 168.237 116.317 168.706H114.431C114.431 167.909 114.614 167.212 114.981 166.616C115.347 166.019 115.85 165.557 116.489 165.229C117.128 164.896 117.855 164.73 118.669 164.73C119.491 164.73 120.216 164.894 120.842 165.222C121.473 165.546 121.965 165.989 122.319 166.552C122.673 167.11 122.849 167.741 122.849 168.444C122.849 168.93 122.758 169.405 122.574 169.869C122.396 170.334 122.082 170.852 121.635 171.423C121.187 171.989 120.565 172.678 119.768 173.487L117.167 176.21V176.306H123.06V178H114.444ZM127.797 176.21L127.701 176.907C127.637 177.418 127.528 177.951 127.375 178.505C127.226 179.063 127.07 179.581 126.908 180.058C126.751 180.536 126.621 180.915 126.519 181.196H125.163C125.219 180.932 125.296 180.574 125.394 180.122C125.492 179.675 125.587 179.174 125.681 178.62C125.775 178.066 125.845 177.501 125.892 176.926L125.956 176.21H127.797ZM134.355 178.217C133.345 178.213 132.482 177.947 131.767 177.418C131.051 176.89 130.503 176.121 130.124 175.111C129.745 174.101 129.555 172.884 129.555 171.461C129.555 170.042 129.745 168.83 130.124 167.824C130.507 166.818 131.057 166.051 131.773 165.523C132.493 164.994 133.354 164.73 134.355 164.73C135.357 164.73 136.215 164.996 136.931 165.529C137.647 166.058 138.195 166.825 138.574 167.83C138.958 168.832 139.149 170.042 139.149 171.461C139.149 172.888 138.96 174.107 138.58 175.117C138.201 176.123 137.654 176.892 136.938 177.425C136.222 177.953 135.361 178.217 134.355 178.217ZM134.355 176.511C135.242 176.511 135.934 176.078 136.433 175.213C136.936 174.348 137.187 173.097 137.187 171.461C137.187 170.374 137.072 169.456 136.842 168.706C136.616 167.952 136.29 167.381 135.864 166.993C135.442 166.601 134.939 166.405 134.355 166.405C133.473 166.405 132.781 166.839 132.278 167.709C131.775 168.578 131.522 169.829 131.517 171.461C131.517 172.552 131.63 173.474 131.856 174.229C132.086 174.979 132.412 175.548 132.834 175.935C133.256 176.319 133.763 176.511 134.355 176.511ZM145.776 178.217C144.767 178.213 143.904 177.947 143.188 177.418C142.472 176.89 141.924 176.121 141.545 175.111C141.166 174.101 140.976 172.884 140.976 171.461C140.976 170.042 141.166 168.83 141.545 167.824C141.928 166.818 142.478 166.051 143.194 165.523C143.914 164.994 144.775 164.73 145.776 164.73C146.778 164.73 147.637 164.996 148.352 165.529C149.068 166.058 149.616 166.825 149.995 167.83C150.379 168.832 150.571 170.042 150.571 171.461C150.571 172.888 150.381 174.107 150.002 175.117C149.622 176.123 149.075 176.892 148.359 177.425C147.643 177.953 146.782 178.217 145.776 178.217ZM145.776 176.511C146.663 176.511 147.355 176.078 147.854 175.213C148.357 174.348 148.608 173.097 148.608 171.461C148.608 170.374 148.493 169.456 148.263 168.706C148.037 167.952 147.711 167.381 147.285 166.993C146.863 166.601 146.36 166.405 145.776 166.405C144.894 166.405 144.202 166.839 143.699 167.709C143.196 168.578 142.943 169.829 142.938 171.461C142.938 172.552 143.051 173.474 143.277 174.229C143.507 174.979 143.833 175.548 144.255 175.935C144.677 176.319 145.184 176.511 145.776 176.511ZM157.198 178.217C156.188 178.213 155.325 177.947 154.609 177.418C153.893 176.89 153.345 176.121 152.966 175.111C152.587 174.101 152.397 172.884 152.397 171.461C152.397 170.042 152.587 168.83 152.966 167.824C153.35 166.818 153.899 166.051 154.615 165.523C155.335 164.994 156.196 164.73 157.198 164.73C158.199 164.73 159.058 164.996 159.774 165.529C160.49 166.058 161.037 166.825 161.416 167.83C161.8 168.832 161.992 170.042 161.992 171.461C161.992 172.888 161.802 174.107 161.423 175.117C161.044 176.123 160.496 176.892 159.78 177.425C159.064 177.953 158.203 178.217 157.198 178.217ZM157.198 176.511C158.084 176.511 158.776 176.078 159.275 175.213C159.778 174.348 160.029 173.097 160.029 171.461C160.029 170.374 159.914 169.456 159.684 168.706C159.458 167.952 159.132 167.381 158.706 166.993C158.284 166.601 157.781 166.405 157.198 166.405C156.316 166.405 155.623 166.839 155.12 167.709C154.617 168.578 154.364 169.829 154.36 171.461C154.36 172.552 154.472 173.474 154.698 174.229C154.928 174.979 155.254 175.548 155.676 175.935C156.098 176.319 156.605 176.511 157.198 176.511Z"
        fill="white" />
    <path
        d="M110.995 236.909V250H109.014V238.891H108.937L105.805 240.936V239.044L109.071 236.909H110.995ZM118.896 250.217C117.886 250.213 117.023 249.947 116.307 249.418C115.591 248.89 115.044 248.121 114.664 247.111C114.285 246.101 114.095 244.884 114.095 243.461C114.095 242.042 114.285 240.83 114.664 239.824C115.048 238.818 115.598 238.051 116.313 237.523C117.034 236.994 117.894 236.73 118.896 236.73C119.897 236.73 120.756 236.996 121.472 237.529C122.188 238.058 122.735 238.825 123.115 239.83C123.498 240.832 123.69 242.042 123.69 243.461C123.69 244.888 123.5 246.107 123.121 247.117C122.742 248.123 122.194 248.892 121.478 249.425C120.762 249.953 119.902 250.217 118.896 250.217ZM118.896 248.511C119.782 248.511 120.475 248.078 120.973 247.213C121.476 246.348 121.728 245.097 121.728 243.461C121.728 242.374 121.612 241.456 121.382 240.706C121.157 239.952 120.831 239.381 120.404 238.993C119.983 238.601 119.48 238.405 118.896 238.405C118.014 238.405 117.321 238.839 116.818 239.709C116.316 240.578 116.062 241.829 116.058 243.461C116.058 244.552 116.171 245.474 116.397 246.229C116.627 246.979 116.953 247.548 117.375 247.935C117.796 248.319 118.304 248.511 118.896 248.511ZM127.797 248.21L127.701 248.907C127.637 249.418 127.528 249.951 127.375 250.505C127.226 251.063 127.07 251.581 126.908 252.058C126.751 252.536 126.621 252.915 126.519 253.196H125.163C125.219 252.932 125.296 252.574 125.394 252.122C125.492 251.675 125.587 251.174 125.681 250.62C125.775 250.066 125.845 249.501 125.892 248.926L125.956 248.21H127.797ZM134.355 250.217C133.345 250.213 132.482 249.947 131.767 249.418C131.051 248.89 130.503 248.121 130.124 247.111C129.745 246.101 129.555 244.884 129.555 243.461C129.555 242.042 129.745 240.83 130.124 239.824C130.507 238.818 131.057 238.051 131.773 237.523C132.493 236.994 133.354 236.73 134.355 236.73C135.357 236.73 136.215 236.996 136.931 237.529C137.647 238.058 138.195 238.825 138.574 239.83C138.958 240.832 139.149 242.042 139.149 243.461C139.149 244.888 138.96 246.107 138.58 247.117C138.201 248.123 137.654 248.892 136.938 249.425C136.222 249.953 135.361 250.217 134.355 250.217ZM134.355 248.511C135.242 248.511 135.934 248.078 136.433 247.213C136.936 246.348 137.187 245.097 137.187 243.461C137.187 242.374 137.072 241.456 136.842 240.706C136.616 239.952 136.29 239.381 135.864 238.993C135.442 238.601 134.939 238.405 134.355 238.405C133.473 238.405 132.781 238.839 132.278 239.709C131.775 240.578 131.522 241.829 131.517 243.461C131.517 244.552 131.63 245.474 131.856 246.229C132.086 246.979 132.412 247.548 132.834 247.935C133.256 248.319 133.763 248.511 134.355 248.511ZM145.776 250.217C144.767 250.213 143.904 249.947 143.188 249.418C142.472 248.89 141.924 248.121 141.545 247.111C141.166 246.101 140.976 244.884 140.976 243.461C140.976 242.042 141.166 240.83 141.545 239.824C141.928 238.818 142.478 238.051 143.194 237.523C143.914 236.994 144.775 236.73 145.776 236.73C146.778 236.73 147.637 236.996 148.352 237.529C149.068 238.058 149.616 238.825 149.995 239.83C150.379 240.832 150.571 242.042 150.571 243.461C150.571 244.888 150.381 246.107 150.002 247.117C149.622 248.123 149.075 248.892 148.359 249.425C147.643 249.953 146.782 250.217 145.776 250.217ZM145.776 248.511C146.663 248.511 147.355 248.078 147.854 247.213C148.357 246.348 148.608 245.097 148.608 243.461C148.608 242.374 148.493 241.456 148.263 240.706C148.037 239.952 147.711 239.381 147.285 238.993C146.863 238.601 146.36 238.405 145.776 238.405C144.894 238.405 144.202 238.839 143.699 239.709C143.196 240.578 142.943 241.829 142.938 243.461C142.938 244.552 143.051 245.474 143.277 246.229C143.507 246.979 143.833 247.548 144.255 247.935C144.677 248.319 145.184 248.511 145.776 248.511ZM157.198 250.217C156.188 250.213 155.325 249.947 154.609 249.418C153.893 248.89 153.345 248.121 152.966 247.111C152.587 246.101 152.397 244.884 152.397 243.461C152.397 242.042 152.587 240.83 152.966 239.824C153.35 238.818 153.899 238.051 154.615 237.523C155.335 236.994 156.196 236.73 157.198 236.73C158.199 236.73 159.058 236.996 159.774 237.529C160.49 238.058 161.037 238.825 161.416 239.83C161.8 240.832 161.992 242.042 161.992 243.461C161.992 244.888 161.802 246.107 161.423 247.117C161.044 248.123 160.496 248.892 159.78 249.425C159.064 249.953 158.203 250.217 157.198 250.217ZM157.198 248.511C158.084 248.511 158.776 248.078 159.275 247.213C159.778 246.348 160.029 245.097 160.029 243.461C160.029 242.374 159.914 241.456 159.684 240.706C159.458 239.952 159.132 239.381 158.706 238.993C158.284 238.601 157.781 238.405 157.198 238.405C156.316 238.405 155.623 238.839 155.12 239.709C154.617 240.578 154.364 241.829 154.36 243.461C154.36 244.552 154.472 245.474 154.698 246.229C154.928 246.979 155.254 247.548 155.676 247.935C156.098 248.319 156.605 248.511 157.198 248.511Z"
        fill="white" />
    <path
        d="M118.92 322.179C118.004 322.179 117.194 322.021 116.491 321.706C115.792 321.391 115.244 320.956 114.848 320.402C114.452 319.848 114.256 319.217 114.26 318.51C114.256 317.956 114.369 317.447 114.599 316.982C114.833 316.513 115.151 316.124 115.551 315.812C115.952 315.497 116.399 315.297 116.894 315.212V315.135C116.242 314.977 115.72 314.628 115.328 314.087C114.935 313.545 114.742 312.923 114.746 312.22C114.742 311.551 114.918 310.955 115.276 310.43C115.639 309.902 116.135 309.487 116.766 309.184C117.396 308.881 118.114 308.73 118.92 308.73C119.717 308.73 120.428 308.884 121.055 309.19C121.685 309.493 122.182 309.908 122.544 310.437C122.906 310.961 123.09 311.555 123.094 312.22C123.09 312.923 122.889 313.545 122.493 314.087C122.097 314.628 121.581 314.977 120.946 315.135V315.212C121.436 315.297 121.877 315.497 122.269 315.812C122.666 316.124 122.981 316.513 123.215 316.982C123.454 317.447 123.575 317.956 123.58 318.51C123.575 319.217 123.375 319.848 122.979 320.402C122.582 320.956 122.033 321.391 121.33 321.706C120.631 322.021 119.828 322.179 118.92 322.179ZM118.92 320.562C119.461 320.562 119.93 320.472 120.326 320.293C120.722 320.11 121.029 319.857 121.247 319.533C121.464 319.205 121.575 318.821 121.579 318.382C121.575 317.926 121.455 317.523 121.221 317.174C120.991 316.825 120.678 316.55 120.281 316.349C119.885 316.149 119.431 316.049 118.92 316.049C118.404 316.049 117.946 316.149 117.546 316.349C117.145 316.55 116.83 316.825 116.6 317.174C116.369 317.523 116.256 317.926 116.261 318.382C116.256 318.821 116.361 319.205 116.574 319.533C116.791 319.857 117.1 320.11 117.501 320.293C117.901 320.472 118.374 320.562 118.92 320.562ZM118.92 314.47C119.354 314.47 119.74 314.383 120.077 314.208C120.413 314.033 120.678 313.79 120.869 313.479C121.065 313.168 121.166 312.804 121.17 312.386C121.166 311.977 121.068 311.619 120.876 311.312C120.688 311.006 120.426 310.769 120.09 310.603C119.753 310.433 119.363 310.347 118.92 310.347C118.468 310.347 118.072 310.433 117.731 310.603C117.394 310.769 117.132 311.006 116.945 311.312C116.757 311.619 116.666 311.977 116.67 312.386C116.666 312.804 116.759 313.168 116.951 313.479C117.143 313.79 117.407 314.033 117.744 314.208C118.085 314.383 118.477 314.47 118.92 314.47ZM127.797 320.21L127.701 320.907C127.637 321.418 127.528 321.951 127.375 322.505C127.226 323.063 127.07 323.581 126.908 324.058C126.751 324.536 126.621 324.915 126.519 325.196H125.163C125.219 324.932 125.296 324.574 125.394 324.122C125.492 323.675 125.587 323.174 125.681 322.62C125.775 322.066 125.845 321.501 125.892 320.926L125.956 320.21H127.797ZM134.355 322.217C133.345 322.213 132.482 321.947 131.767 321.418C131.051 320.89 130.503 320.121 130.124 319.111C129.745 318.101 129.555 316.884 129.555 315.461C129.555 314.042 129.745 312.83 130.124 311.824C130.507 310.818 131.057 310.051 131.773 309.523C132.493 308.994 133.354 308.73 134.355 308.73C135.357 308.73 136.215 308.996 136.931 309.529C137.647 310.058 138.195 310.825 138.574 311.83C138.958 312.832 139.149 314.042 139.149 315.461C139.149 316.888 138.96 318.107 138.58 319.117C138.201 320.123 137.654 320.892 136.938 321.425C136.222 321.953 135.361 322.217 134.355 322.217ZM134.355 320.511C135.242 320.511 135.934 320.078 136.433 319.213C136.936 318.348 137.187 317.097 137.187 315.461C137.187 314.374 137.072 313.456 136.842 312.706C136.616 311.952 136.29 311.381 135.864 310.993C135.442 310.601 134.939 310.405 134.355 310.405C133.473 310.405 132.781 310.839 132.278 311.709C131.775 312.578 131.522 313.829 131.517 315.461C131.517 316.552 131.63 317.474 131.856 318.229C132.086 318.979 132.412 319.548 132.834 319.935C133.256 320.319 133.763 320.511 134.355 320.511ZM145.776 322.217C144.767 322.213 143.904 321.947 143.188 321.418C142.472 320.89 141.924 320.121 141.545 319.111C141.166 318.101 140.976 316.884 140.976 315.461C140.976 314.042 141.166 312.83 141.545 311.824C141.928 310.818 142.478 310.051 143.194 309.523C143.914 308.994 144.775 308.73 145.776 308.73C146.778 308.73 147.637 308.996 148.352 309.529C149.068 310.058 149.616 310.825 149.995 311.83C150.379 312.832 150.571 314.042 150.571 315.461C150.571 316.888 150.381 318.107 150.002 319.117C149.622 320.123 149.075 320.892 148.359 321.425C147.643 321.953 146.782 322.217 145.776 322.217ZM145.776 320.511C146.663 320.511 147.355 320.078 147.854 319.213C148.357 318.348 148.608 317.097 148.608 315.461C148.608 314.374 148.493 313.456 148.263 312.706C148.037 311.952 147.711 311.381 147.285 310.993C146.863 310.601 146.36 310.405 145.776 310.405C144.894 310.405 144.202 310.839 143.699 311.709C143.196 312.578 142.943 313.829 142.938 315.461C142.938 316.552 143.051 317.474 143.277 318.229C143.507 318.979 143.833 319.548 144.255 319.935C144.677 320.319 145.184 320.511 145.776 320.511ZM157.198 322.217C156.188 322.213 155.325 321.947 154.609 321.418C153.893 320.89 153.345 320.121 152.966 319.111C152.587 318.101 152.397 316.884 152.397 315.461C152.397 314.042 152.587 312.83 152.966 311.824C153.35 310.818 153.899 310.051 154.615 309.523C155.335 308.994 156.196 308.73 157.198 308.73C158.199 308.73 159.058 308.996 159.774 309.529C160.49 310.058 161.037 310.825 161.416 311.83C161.8 312.832 161.992 314.042 161.992 315.461C161.992 316.888 161.802 318.107 161.423 319.117C161.044 320.123 160.496 320.892 159.78 321.425C159.064 321.953 158.203 322.217 157.198 322.217ZM157.198 320.511C158.084 320.511 158.776 320.078 159.275 319.213C159.778 318.348 160.029 317.097 160.029 315.461C160.029 314.374 159.914 313.456 159.684 312.706C159.458 311.952 159.132 311.381 158.706 310.993C158.284 310.601 157.781 310.405 157.198 310.405C156.316 310.405 155.623 310.839 155.12 311.709C154.617 312.578 154.364 313.829 154.36 315.461C154.36 316.552 154.472 317.474 154.698 318.229C154.928 318.979 155.254 319.548 155.676 319.935C156.098 320.319 156.605 320.511 157.198 320.511Z"
        fill="white" />
    <path
        d="M119.207 394.179C118.624 394.17 118.048 394.064 117.482 393.859C116.919 393.655 116.408 393.314 115.948 392.837C115.487 392.359 115.119 391.718 114.842 390.913C114.569 390.107 114.433 389.102 114.433 387.896C114.433 386.754 114.546 385.739 114.771 384.853C115.002 383.967 115.332 383.219 115.762 382.609C116.193 381.996 116.712 381.529 117.322 381.21C117.931 380.89 118.615 380.73 119.374 380.73C120.154 380.73 120.846 380.884 121.451 381.19C122.056 381.497 122.546 381.921 122.921 382.462C123.301 383.004 123.541 383.619 123.644 384.31H121.694C121.562 383.764 121.3 383.319 120.908 382.974C120.516 382.629 120.004 382.456 119.374 382.456C118.415 382.456 117.667 382.874 117.13 383.709C116.597 384.544 116.329 385.705 116.325 387.192H116.421C116.646 386.822 116.923 386.506 117.252 386.246C117.584 385.982 117.955 385.78 118.364 385.639C118.777 385.494 119.212 385.422 119.668 385.422C120.426 385.422 121.112 385.607 121.726 385.978C122.344 386.344 122.836 386.852 123.203 387.499C123.569 388.147 123.752 388.888 123.752 389.724C123.752 390.559 123.563 391.315 123.183 391.993C122.808 392.67 122.28 393.207 121.598 393.604C120.916 393.996 120.119 394.188 119.207 394.179ZM119.201 392.517C119.704 392.517 120.154 392.393 120.55 392.146C120.946 391.899 121.259 391.567 121.489 391.149C121.72 390.732 121.835 390.265 121.835 389.749C121.835 389.246 121.722 388.788 121.496 388.375C121.274 387.962 120.967 387.634 120.575 387.391C120.188 387.148 119.744 387.026 119.246 387.026C118.867 387.026 118.515 387.099 118.191 387.244C117.872 387.388 117.59 387.589 117.347 387.844C117.104 388.1 116.913 388.394 116.772 388.727C116.636 389.055 116.568 389.402 116.568 389.768C116.568 390.259 116.68 390.712 116.906 391.13C117.136 391.548 117.45 391.884 117.846 392.14C118.247 392.391 118.698 392.517 119.201 392.517ZM127.797 392.21L127.701 392.907C127.637 393.418 127.528 393.951 127.375 394.505C127.226 395.063 127.07 395.581 126.908 396.058C126.751 396.536 126.621 396.915 126.519 397.196H125.163C125.219 396.932 125.296 396.574 125.394 396.122C125.492 395.675 125.587 395.174 125.681 394.62C125.775 394.066 125.845 393.501 125.892 392.926L125.956 392.21H127.797ZM134.355 394.217C133.345 394.213 132.482 393.947 131.767 393.418C131.051 392.89 130.503 392.121 130.124 391.111C129.745 390.101 129.555 388.884 129.555 387.461C129.555 386.042 129.745 384.83 130.124 383.824C130.507 382.818 131.057 382.051 131.773 381.523C132.493 380.994 133.354 380.73 134.355 380.73C135.357 380.73 136.215 380.996 136.931 381.529C137.647 382.058 138.195 382.825 138.574 383.83C138.958 384.832 139.149 386.042 139.149 387.461C139.149 388.888 138.96 390.107 138.58 391.117C138.201 392.123 137.654 392.892 136.938 393.425C136.222 393.953 135.361 394.217 134.355 394.217ZM134.355 392.511C135.242 392.511 135.934 392.078 136.433 391.213C136.936 390.348 137.187 389.097 137.187 387.461C137.187 386.374 137.072 385.456 136.842 384.706C136.616 383.952 136.29 383.381 135.864 382.993C135.442 382.601 134.939 382.405 134.355 382.405C133.473 382.405 132.781 382.839 132.278 383.709C131.775 384.578 131.522 385.829 131.517 387.461C131.517 388.552 131.63 389.474 131.856 390.229C132.086 390.979 132.412 391.548 132.834 391.935C133.256 392.319 133.763 392.511 134.355 392.511ZM145.776 394.217C144.767 394.213 143.904 393.947 143.188 393.418C142.472 392.89 141.924 392.121 141.545 391.111C141.166 390.101 140.976 388.884 140.976 387.461C140.976 386.042 141.166 384.83 141.545 383.824C141.928 382.818 142.478 382.051 143.194 381.523C143.914 380.994 144.775 380.73 145.776 380.73C146.778 380.73 147.637 380.996 148.352 381.529C149.068 382.058 149.616 382.825 149.995 383.83C150.379 384.832 150.571 386.042 150.571 387.461C150.571 388.888 150.381 390.107 150.002 391.117C149.622 392.123 149.075 392.892 148.359 393.425C147.643 393.953 146.782 394.217 145.776 394.217ZM145.776 392.511C146.663 392.511 147.355 392.078 147.854 391.213C148.357 390.348 148.608 389.097 148.608 387.461C148.608 386.374 148.493 385.456 148.263 384.706C148.037 383.952 147.711 383.381 147.285 382.993C146.863 382.601 146.36 382.405 145.776 382.405C144.894 382.405 144.202 382.839 143.699 383.709C143.196 384.578 142.943 385.829 142.938 387.461C142.938 388.552 143.051 389.474 143.277 390.229C143.507 390.979 143.833 391.548 144.255 391.935C144.677 392.319 145.184 392.511 145.776 392.511ZM157.198 394.217C156.188 394.213 155.325 393.947 154.609 393.418C153.893 392.89 153.345 392.121 152.966 391.111C152.587 390.101 152.397 388.884 152.397 387.461C152.397 386.042 152.587 384.83 152.966 383.824C153.35 382.818 153.899 382.051 154.615 381.523C155.335 380.994 156.196 380.73 157.198 380.73C158.199 380.73 159.058 380.996 159.774 381.529C160.49 382.058 161.037 382.825 161.416 383.83C161.8 384.832 161.992 386.042 161.992 387.461C161.992 388.888 161.802 390.107 161.423 391.117C161.044 392.123 160.496 392.892 159.78 393.425C159.064 393.953 158.203 394.217 157.198 394.217ZM157.198 392.511C158.084 392.511 158.776 392.078 159.275 391.213C159.778 390.348 160.029 389.097 160.029 387.461C160.029 386.374 159.914 385.456 159.684 384.706C159.458 383.952 159.132 383.381 158.706 382.993C158.284 382.601 157.781 382.405 157.198 382.405C156.316 382.405 155.623 382.839 155.12 383.709C154.617 384.578 154.364 385.829 154.36 387.461C154.36 388.552 154.472 389.474 154.698 390.229C154.928 390.979 155.254 391.548 155.676 391.935C156.098 392.319 156.605 392.511 157.198 392.511Z"
        fill="white" />
    <path
        d="M113.923 462.443V460.845L119.58 451.909H120.839V454.261H120.04L115.994 460.666V460.768H123.747V462.443H113.923ZM120.13 465V461.957L120.142 461.229V451.909H122.015V465H120.13ZM127.797 463.21L127.701 463.907C127.637 464.418 127.528 464.951 127.375 465.505C127.226 466.063 127.07 466.581 126.908 467.058C126.751 467.536 126.621 467.915 126.519 468.196H125.163C125.219 467.932 125.296 467.574 125.394 467.122C125.492 466.675 125.587 466.174 125.681 465.62C125.775 465.066 125.845 464.501 125.892 463.926L125.956 463.21H127.797ZM134.355 465.217C133.345 465.213 132.482 464.947 131.767 464.418C131.051 463.89 130.503 463.121 130.124 462.111C129.745 461.101 129.555 459.884 129.555 458.461C129.555 457.042 129.745 455.83 130.124 454.824C130.507 453.818 131.057 453.051 131.773 452.523C132.493 451.994 133.354 451.73 134.355 451.73C135.357 451.73 136.215 451.996 136.931 452.529C137.647 453.058 138.195 453.825 138.574 454.83C138.958 455.832 139.149 457.042 139.149 458.461C139.149 459.888 138.96 461.107 138.58 462.117C138.201 463.123 137.654 463.892 136.938 464.425C136.222 464.953 135.361 465.217 134.355 465.217ZM134.355 463.511C135.242 463.511 135.934 463.078 136.433 462.213C136.936 461.348 137.187 460.097 137.187 458.461C137.187 457.374 137.072 456.456 136.842 455.706C136.616 454.952 136.29 454.381 135.864 453.993C135.442 453.601 134.939 453.405 134.355 453.405C133.473 453.405 132.781 453.839 132.278 454.709C131.775 455.578 131.522 456.829 131.517 458.461C131.517 459.552 131.63 460.474 131.856 461.229C132.086 461.979 132.412 462.548 132.834 462.935C133.256 463.319 133.763 463.511 134.355 463.511ZM145.776 465.217C144.767 465.213 143.904 464.947 143.188 464.418C142.472 463.89 141.924 463.121 141.545 462.111C141.166 461.101 140.976 459.884 140.976 458.461C140.976 457.042 141.166 455.83 141.545 454.824C141.928 453.818 142.478 453.051 143.194 452.523C143.914 451.994 144.775 451.73 145.776 451.73C146.778 451.73 147.637 451.996 148.352 452.529C149.068 453.058 149.616 453.825 149.995 454.83C150.379 455.832 150.571 457.042 150.571 458.461C150.571 459.888 150.381 461.107 150.002 462.117C149.622 463.123 149.075 463.892 148.359 464.425C147.643 464.953 146.782 465.217 145.776 465.217ZM145.776 463.511C146.663 463.511 147.355 463.078 147.854 462.213C148.357 461.348 148.608 460.097 148.608 458.461C148.608 457.374 148.493 456.456 148.263 455.706C148.037 454.952 147.711 454.381 147.285 453.993C146.863 453.601 146.36 453.405 145.776 453.405C144.894 453.405 144.202 453.839 143.699 454.709C143.196 455.578 142.943 456.829 142.938 458.461C142.938 459.552 143.051 460.474 143.277 461.229C143.507 461.979 143.833 462.548 144.255 462.935C144.677 463.319 145.184 463.511 145.776 463.511ZM157.198 465.217C156.188 465.213 155.325 464.947 154.609 464.418C153.893 463.89 153.345 463.121 152.966 462.111C152.587 461.101 152.397 459.884 152.397 458.461C152.397 457.042 152.587 455.83 152.966 454.824C153.35 453.818 153.899 453.051 154.615 452.523C155.335 451.994 156.196 451.73 157.198 451.73C158.199 451.73 159.058 451.996 159.774 452.529C160.49 453.058 161.037 453.825 161.416 454.83C161.8 455.832 161.992 457.042 161.992 458.461C161.992 459.888 161.802 461.107 161.423 462.117C161.044 463.123 160.496 463.892 159.78 464.425C159.064 464.953 158.203 465.217 157.198 465.217ZM157.198 463.511C158.084 463.511 158.776 463.078 159.275 462.213C159.778 461.348 160.029 460.097 160.029 458.461C160.029 457.374 159.914 456.456 159.684 455.706C159.458 454.952 159.132 454.381 158.706 453.993C158.284 453.601 157.781 453.405 157.198 453.405C156.316 453.405 155.623 453.839 155.12 454.709C154.617 455.578 154.364 456.829 154.36 458.461C154.36 459.552 154.472 460.474 154.698 461.229C154.928 461.979 155.254 462.548 155.676 462.935C156.098 463.319 156.605 463.511 157.198 463.511Z"
        fill="white" />
    <path
        d="M114.444 538V536.568L118.874 531.979C119.347 531.48 119.736 531.043 120.043 530.668C120.354 530.289 120.587 529.929 120.74 529.588C120.893 529.247 120.97 528.885 120.97 528.501C120.97 528.067 120.868 527.692 120.663 527.376C120.459 527.057 120.18 526.812 119.826 526.641C119.472 526.467 119.074 526.379 118.631 526.379C118.162 526.379 117.753 526.475 117.403 526.667C117.054 526.859 116.785 527.129 116.598 527.479C116.41 527.828 116.317 528.237 116.317 528.706H114.431C114.431 527.909 114.614 527.212 114.981 526.616C115.347 526.019 115.85 525.557 116.489 525.229C117.128 524.896 117.855 524.73 118.669 524.73C119.491 524.73 120.216 524.894 120.842 525.222C121.473 525.546 121.965 525.989 122.319 526.552C122.673 527.11 122.849 527.741 122.849 528.444C122.849 528.93 122.758 529.405 122.574 529.869C122.396 530.334 122.082 530.852 121.635 531.423C121.187 531.989 120.565 532.678 119.768 533.487L117.167 536.21V536.306H123.06V538H114.444ZM127.797 536.21L127.701 536.907C127.637 537.418 127.528 537.951 127.375 538.505C127.226 539.063 127.07 539.581 126.908 540.058C126.751 540.536 126.621 540.915 126.519 541.196H125.163C125.219 540.932 125.296 540.574 125.394 540.122C125.492 539.675 125.587 539.174 125.681 538.62C125.775 538.066 125.845 537.501 125.892 536.926L125.956 536.21H127.797ZM134.355 538.217C133.345 538.213 132.482 537.947 131.767 537.418C131.051 536.89 130.503 536.121 130.124 535.111C129.745 534.101 129.555 532.884 129.555 531.461C129.555 530.042 129.745 528.83 130.124 527.824C130.507 526.818 131.057 526.051 131.773 525.523C132.493 524.994 133.354 524.73 134.355 524.73C135.357 524.73 136.215 524.996 136.931 525.529C137.647 526.058 138.195 526.825 138.574 527.83C138.958 528.832 139.149 530.042 139.149 531.461C139.149 532.888 138.96 534.107 138.58 535.117C138.201 536.123 137.654 536.892 136.938 537.425C136.222 537.953 135.361 538.217 134.355 538.217ZM134.355 536.511C135.242 536.511 135.934 536.078 136.433 535.213C136.936 534.348 137.187 533.097 137.187 531.461C137.187 530.374 137.072 529.456 136.842 528.706C136.616 527.952 136.29 527.381 135.864 526.993C135.442 526.601 134.939 526.405 134.355 526.405C133.473 526.405 132.781 526.839 132.278 527.709C131.775 528.578 131.522 529.829 131.517 531.461C131.517 532.552 131.63 533.474 131.856 534.229C132.086 534.979 132.412 535.548 132.834 535.935C133.256 536.319 133.763 536.511 134.355 536.511ZM145.776 538.217C144.767 538.213 143.904 537.947 143.188 537.418C142.472 536.89 141.924 536.121 141.545 535.111C141.166 534.101 140.976 532.884 140.976 531.461C140.976 530.042 141.166 528.83 141.545 527.824C141.928 526.818 142.478 526.051 143.194 525.523C143.914 524.994 144.775 524.73 145.776 524.73C146.778 524.73 147.637 524.996 148.352 525.529C149.068 526.058 149.616 526.825 149.995 527.83C150.379 528.832 150.571 530.042 150.571 531.461C150.571 532.888 150.381 534.107 150.002 535.117C149.622 536.123 149.075 536.892 148.359 537.425C147.643 537.953 146.782 538.217 145.776 538.217ZM145.776 536.511C146.663 536.511 147.355 536.078 147.854 535.213C148.357 534.348 148.608 533.097 148.608 531.461C148.608 530.374 148.493 529.456 148.263 528.706C148.037 527.952 147.711 527.381 147.285 526.993C146.863 526.601 146.36 526.405 145.776 526.405C144.894 526.405 144.202 526.839 143.699 527.709C143.196 528.578 142.943 529.829 142.938 531.461C142.938 532.552 143.051 533.474 143.277 534.229C143.507 534.979 143.833 535.548 144.255 535.935C144.677 536.319 145.184 536.511 145.776 536.511ZM157.198 538.217C156.188 538.213 155.325 537.947 154.609 537.418C153.893 536.89 153.345 536.121 152.966 535.111C152.587 534.101 152.397 532.884 152.397 531.461C152.397 530.042 152.587 528.83 152.966 527.824C153.35 526.818 153.899 526.051 154.615 525.523C155.335 524.994 156.196 524.73 157.198 524.73C158.199 524.73 159.058 524.996 159.774 525.529C160.49 526.058 161.037 526.825 161.416 527.83C161.8 528.832 161.992 530.042 161.992 531.461C161.992 532.888 161.802 534.107 161.423 535.117C161.044 536.123 160.496 536.892 159.78 537.425C159.064 537.953 158.203 538.217 157.198 538.217ZM157.198 536.511C158.084 536.511 158.776 536.078 159.275 535.213C159.778 534.348 160.029 533.097 160.029 531.461C160.029 530.374 159.914 529.456 159.684 528.706C159.458 527.952 159.132 527.381 158.706 526.993C158.284 526.601 157.781 526.405 157.198 526.405C156.316 526.405 155.623 526.839 155.12 527.709C154.617 528.578 154.364 529.829 154.36 531.461C154.36 532.552 154.472 533.474 154.698 534.229C154.928 534.979 155.254 535.548 155.676 535.935C156.098 536.319 156.605 536.511 157.198 536.511Z"
        fill="white" />
    <path
        d="M144.473 602.217C143.464 602.213 142.601 601.947 141.885 601.418C141.169 600.89 140.621 600.121 140.242 599.111C139.863 598.101 139.673 596.884 139.673 595.461C139.673 594.042 139.863 592.83 140.242 591.824C140.625 590.818 141.175 590.051 141.891 589.523C142.611 588.994 143.472 588.73 144.473 588.73C145.475 588.73 146.334 588.996 147.049 589.529C147.765 590.058 148.313 590.825 148.692 591.83C149.076 592.832 149.268 594.042 149.268 595.461C149.268 596.888 149.078 598.107 148.699 599.117C148.319 600.123 147.772 600.892 147.056 601.425C146.34 601.953 145.479 602.217 144.473 602.217ZM144.473 600.511C145.36 600.511 146.052 600.078 146.551 599.213C147.054 598.348 147.305 597.097 147.305 595.461C147.305 594.374 147.19 593.456 146.96 592.706C146.734 591.952 146.408 591.381 145.982 590.993C145.56 590.601 145.057 590.405 144.473 590.405C143.591 590.405 142.899 590.839 142.396 591.709C141.893 592.578 141.64 593.829 141.635 595.461C141.635 596.552 141.748 597.474 141.974 598.229C142.204 598.979 142.53 599.548 142.952 599.935C143.374 600.319 143.881 600.511 144.473 600.511Z"
        fill="white" />
    <path
        d="M250.261 619.909V633H248.28V621.891H248.203L245.071 623.936V622.044L248.337 619.909H250.261ZM258.162 633.217C257.152 633.213 256.289 632.947 255.573 632.418C254.857 631.89 254.31 631.121 253.931 630.111C253.551 629.101 253.362 627.884 253.362 626.461C253.362 625.042 253.551 623.83 253.931 622.824C254.314 621.818 254.864 621.051 255.58 620.523C256.3 619.994 257.161 619.73 258.162 619.73C259.164 619.73 260.022 619.996 260.738 620.529C261.454 621.058 262.002 621.825 262.381 622.83C262.764 623.832 262.956 625.042 262.956 626.461C262.956 627.888 262.767 629.107 262.387 630.117C262.008 631.123 261.46 631.892 260.744 632.425C260.029 632.953 259.168 633.217 258.162 633.217ZM258.162 631.511C259.048 631.511 259.741 631.078 260.24 630.213C260.742 629.348 260.994 628.097 260.994 626.461C260.994 625.374 260.879 624.456 260.649 623.706C260.423 622.952 260.097 622.381 259.671 621.993C259.249 621.601 258.746 621.405 258.162 621.405C257.28 621.405 256.588 621.839 256.085 622.709C255.582 623.578 255.328 624.829 255.324 626.461C255.324 627.552 255.437 628.474 255.663 629.229C255.893 629.979 256.219 630.548 256.641 630.935C257.063 631.319 257.57 631.511 258.162 631.511Z"
        fill="white" />
    <path
        d="M325.529 633V631.568L329.959 626.979C330.432 626.48 330.822 626.043 331.129 625.668C331.44 625.289 331.672 624.929 331.825 624.588C331.979 624.247 332.055 623.885 332.055 623.501C332.055 623.067 331.953 622.692 331.749 622.376C331.544 622.057 331.265 621.812 330.911 621.641C330.558 621.467 330.159 621.379 329.716 621.379C329.247 621.379 328.838 621.475 328.489 621.667C328.139 621.859 327.871 622.129 327.683 622.479C327.496 622.828 327.402 623.237 327.402 623.706H325.516C325.516 622.909 325.7 622.212 326.066 621.616C326.433 621.019 326.935 620.557 327.575 620.229C328.214 619.896 328.94 619.73 329.754 619.73C330.577 619.73 331.301 619.894 331.928 620.222C332.558 620.546 333.05 620.989 333.404 621.552C333.758 622.11 333.935 622.741 333.935 623.444C333.935 623.93 333.843 624.405 333.66 624.869C333.481 625.334 333.168 625.852 332.72 626.423C332.273 626.989 331.651 627.678 330.854 628.487L328.252 631.21V631.306H334.146V633H325.529ZM340.928 633.217C339.918 633.213 339.055 632.947 338.339 632.418C337.623 631.89 337.075 631.121 336.696 630.111C336.317 629.101 336.127 627.884 336.127 626.461C336.127 625.042 336.317 623.83 336.696 622.824C337.08 621.818 337.629 621.051 338.345 620.523C339.066 619.994 339.926 619.73 340.928 619.73C341.929 619.73 342.788 619.996 343.504 620.529C344.22 621.058 344.767 621.825 345.146 622.83C345.53 623.832 345.722 625.042 345.722 626.461C345.722 627.888 345.532 629.107 345.153 630.117C344.774 631.123 344.226 631.892 343.51 632.425C342.794 632.953 341.933 633.217 340.928 633.217ZM340.928 631.511C341.814 631.511 342.507 631.078 343.005 630.213C343.508 629.348 343.759 628.097 343.759 626.461C343.759 625.374 343.644 624.456 343.414 623.706C343.188 622.952 342.862 622.381 342.436 621.993C342.014 621.601 341.512 621.405 340.928 621.405C340.046 621.405 339.353 621.839 338.85 622.709C338.347 623.578 338.094 624.829 338.09 626.461C338.09 627.552 338.203 628.474 338.428 629.229C338.659 629.979 338.985 630.548 339.406 630.935C339.828 631.319 340.335 631.511 340.928 631.511Z"
        fill="white" />
    <path
        d="M413.305 633.179C412.428 633.179 411.643 633.028 410.953 632.725C410.267 632.423 409.724 632.003 409.323 631.466C408.927 630.925 408.714 630.298 408.684 629.587H410.691C410.717 629.974 410.847 630.311 411.081 630.597C411.32 630.878 411.631 631.095 412.014 631.249C412.398 631.402 412.824 631.479 413.293 631.479C413.808 631.479 414.264 631.389 414.661 631.21C415.061 631.031 415.374 630.782 415.6 630.462C415.826 630.138 415.939 629.766 415.939 629.344C415.939 628.905 415.826 628.519 415.6 628.187C415.379 627.85 415.053 627.586 414.622 627.394C414.196 627.202 413.68 627.107 413.075 627.107H411.969V625.496H413.075C413.561 625.496 413.987 625.408 414.354 625.234C414.724 625.059 415.014 624.816 415.223 624.505C415.432 624.19 415.536 623.821 415.536 623.399C415.536 622.994 415.445 622.643 415.261 622.344C415.082 622.042 414.827 621.805 414.494 621.635C414.166 621.464 413.778 621.379 413.331 621.379C412.905 621.379 412.506 621.458 412.136 621.616C411.769 621.769 411.471 621.991 411.241 622.281C411.011 622.566 410.887 622.909 410.87 623.31H408.959C408.98 622.602 409.189 621.98 409.585 621.443C409.986 620.906 410.514 620.487 411.17 620.184C411.827 619.881 412.555 619.73 413.357 619.73C414.196 619.73 414.92 619.894 415.53 620.222C416.143 620.546 416.616 620.979 416.949 621.52C417.286 622.061 417.452 622.653 417.447 623.297C417.452 624.03 417.247 624.652 416.834 625.163C416.425 625.675 415.879 626.018 415.197 626.192V626.295C416.067 626.427 416.74 626.772 417.217 627.33C417.699 627.888 417.938 628.581 417.933 629.408C417.938 630.128 417.737 630.773 417.332 631.344C416.932 631.915 416.384 632.365 415.69 632.693C414.995 633.017 414.2 633.179 413.305 633.179ZM424.709 633.217C423.699 633.213 422.836 632.947 422.12 632.418C421.404 631.89 420.857 631.121 420.477 630.111C420.098 629.101 419.909 627.884 419.909 626.461C419.909 625.042 420.098 623.83 420.477 622.824C420.861 621.818 421.411 621.051 422.127 620.523C422.847 619.994 423.708 619.73 424.709 619.73C425.71 619.73 426.569 619.996 427.285 620.529C428.001 621.058 428.548 621.825 428.928 622.83C429.311 623.832 429.503 625.042 429.503 626.461C429.503 627.888 429.313 629.107 428.934 630.117C428.555 631.123 428.007 631.892 427.291 632.425C426.575 632.953 425.715 633.217 424.709 633.217ZM424.709 631.511C425.595 631.511 426.288 631.078 426.786 630.213C427.289 629.348 427.541 628.097 427.541 626.461C427.541 625.374 427.426 624.456 427.195 623.706C426.97 622.952 426.644 622.381 426.217 621.993C425.796 621.601 425.293 621.405 424.709 621.405C423.827 621.405 423.134 621.839 422.632 622.709C422.129 623.578 421.875 624.829 421.871 626.461C421.871 627.552 421.984 628.474 422.21 629.229C422.44 629.979 422.766 630.548 423.188 630.935C423.61 631.319 424.117 631.511 424.709 631.511Z"
        fill="white" />
    <path
        d="M492.385 630.443V628.845L498.042 619.909H499.301V622.261H498.502L494.456 628.666V628.768H502.21V630.443H492.385ZM498.592 633V629.957L498.605 629.229V619.909H500.477V633H498.592ZM508.797 633.217C507.787 633.213 506.924 632.947 506.208 632.418C505.492 631.89 504.945 631.121 504.565 630.111C504.186 629.101 503.996 627.884 503.996 626.461C503.996 625.042 504.186 623.83 504.565 622.824C504.949 621.818 505.499 621.051 506.214 620.523C506.935 619.994 507.795 619.73 508.797 619.73C509.798 619.73 510.657 619.996 511.373 620.529C512.089 621.058 512.636 621.825 513.016 622.83C513.399 623.832 513.591 625.042 513.591 626.461C513.591 627.888 513.401 629.107 513.022 630.117C512.643 631.123 512.095 631.892 511.379 632.425C510.663 632.953 509.803 633.217 508.797 633.217ZM508.797 631.511C509.683 631.511 510.376 631.078 510.874 630.213C511.377 629.348 511.629 628.097 511.629 626.461C511.629 625.374 511.513 624.456 511.283 623.706C511.058 622.952 510.732 622.381 510.305 621.993C509.884 621.601 509.381 621.405 508.797 621.405C507.915 621.405 507.222 621.839 506.719 622.709C506.217 623.578 505.963 624.829 505.959 626.461C505.959 627.552 506.072 628.474 506.298 629.229C506.528 629.979 506.854 630.548 507.276 630.935C507.697 631.319 508.205 631.511 508.797 631.511Z"
        fill="white" />
    <path
        d="M580.789 633.179C579.987 633.179 579.267 633.026 578.628 632.719C577.993 632.408 577.486 631.982 577.107 631.44C576.728 630.899 576.525 630.281 576.5 629.587H578.417C578.464 630.149 578.713 630.612 579.165 630.974C579.617 631.336 580.158 631.517 580.789 631.517C581.291 631.517 581.737 631.402 582.125 631.172C582.517 630.938 582.823 630.616 583.045 630.207C583.271 629.798 583.384 629.331 583.384 628.807C583.384 628.274 583.269 627.799 583.039 627.381C582.809 626.964 582.491 626.636 582.086 626.397C581.686 626.158 581.225 626.037 580.706 626.033C580.309 626.033 579.911 626.101 579.51 626.237C579.11 626.374 578.786 626.553 578.539 626.774L576.73 626.506L577.465 619.909H584.662V621.603H579.108L578.692 625.266H578.769C579.024 625.018 579.363 624.812 579.785 624.646C580.211 624.479 580.667 624.396 581.153 624.396C581.95 624.396 582.659 624.586 583.282 624.965C583.908 625.344 584.4 625.862 584.758 626.518C585.12 627.17 585.299 627.92 585.295 628.768C585.299 629.616 585.108 630.373 584.72 631.038C584.336 631.702 583.804 632.227 583.122 632.61C582.444 632.989 581.666 633.179 580.789 633.179ZM591.989 633.217C590.979 633.213 590.116 632.947 589.4 632.418C588.685 631.89 588.137 631.121 587.758 630.111C587.378 629.101 587.189 627.884 587.189 626.461C587.189 625.042 587.378 623.83 587.758 622.824C588.141 621.818 588.691 621.051 589.407 620.523C590.127 619.994 590.988 619.73 591.989 619.73C592.991 619.73 593.849 619.996 594.565 620.529C595.281 621.058 595.829 621.825 596.208 622.83C596.592 623.832 596.783 625.042 596.783 626.461C596.783 627.888 596.594 629.107 596.214 630.117C595.835 631.123 595.288 631.892 594.572 632.425C593.856 632.953 592.995 633.217 591.989 633.217ZM591.989 631.511C592.876 631.511 593.568 631.078 594.067 630.213C594.57 629.348 594.821 628.097 594.821 626.461C594.821 625.374 594.706 624.456 594.476 623.706C594.25 622.952 593.924 622.381 593.498 621.993C593.076 621.601 592.573 621.405 591.989 621.405C591.107 621.405 590.415 621.839 589.912 622.709C589.409 623.578 589.155 624.829 589.151 626.461C589.151 627.552 589.264 628.474 589.49 629.229C589.72 629.979 590.046 630.548 590.468 630.935C590.89 631.319 591.397 631.511 591.989 631.511Z"
        fill="white" />
    <path
        d="M663.897 633.179C663.313 633.17 662.738 633.064 662.171 632.859C661.609 632.655 661.098 632.314 660.637 631.837C660.177 631.359 659.809 630.718 659.532 629.913C659.259 629.107 659.122 628.102 659.122 626.896C659.122 625.754 659.235 624.739 659.461 623.853C659.691 622.967 660.022 622.219 660.452 621.609C660.882 620.996 661.402 620.529 662.012 620.21C662.621 619.89 663.305 619.73 664.063 619.73C664.843 619.73 665.536 619.884 666.141 620.19C666.746 620.497 667.236 620.921 667.611 621.462C667.99 622.004 668.231 622.619 668.333 623.31H666.384C666.252 622.764 665.99 622.319 665.598 621.974C665.206 621.629 664.694 621.456 664.063 621.456C663.105 621.456 662.357 621.874 661.82 622.709C661.287 623.544 661.019 624.705 661.014 626.192H661.11C661.336 625.822 661.613 625.506 661.941 625.246C662.274 624.982 662.644 624.78 663.054 624.639C663.467 624.494 663.902 624.422 664.358 624.422C665.116 624.422 665.802 624.607 666.416 624.978C667.034 625.344 667.526 625.852 667.892 626.499C668.259 627.147 668.442 627.888 668.442 628.724C668.442 629.559 668.252 630.315 667.873 630.993C667.498 631.67 666.97 632.207 666.288 632.604C665.606 632.996 664.809 633.188 663.897 633.179ZM663.891 631.517C664.394 631.517 664.843 631.393 665.24 631.146C665.636 630.899 665.949 630.567 666.179 630.149C666.409 629.732 666.524 629.265 666.524 628.749C666.524 628.246 666.412 627.788 666.186 627.375C665.964 626.962 665.657 626.634 665.265 626.391C664.877 626.148 664.434 626.026 663.936 626.026C663.556 626.026 663.205 626.099 662.881 626.244C662.561 626.388 662.28 626.589 662.037 626.844C661.794 627.1 661.603 627.394 661.462 627.727C661.326 628.055 661.257 628.402 661.257 628.768C661.257 629.259 661.37 629.712 661.596 630.13C661.826 630.548 662.139 630.884 662.536 631.14C662.936 631.391 663.388 631.517 663.891 631.517ZM675.13 633.217C674.12 633.213 673.257 632.947 672.541 632.418C671.825 631.89 671.278 631.121 670.898 630.111C670.519 629.101 670.329 627.884 670.329 626.461C670.329 625.042 670.519 623.83 670.898 622.824C671.282 621.818 671.832 621.051 672.547 620.523C673.268 619.994 674.128 619.73 675.13 619.73C676.131 619.73 676.99 619.996 677.706 620.529C678.422 621.058 678.969 621.825 679.349 622.83C679.732 623.832 679.924 625.042 679.924 626.461C679.924 627.888 679.734 629.107 679.355 630.117C678.976 631.123 678.428 631.892 677.712 632.425C676.996 632.953 676.136 633.217 675.13 633.217ZM675.13 631.511C676.016 631.511 676.709 631.078 677.207 630.213C677.71 629.348 677.962 628.097 677.962 626.461C677.962 625.374 677.846 624.456 677.616 623.706C677.391 622.952 677.065 622.381 676.638 621.993C676.217 621.601 675.714 621.405 675.13 621.405C674.248 621.405 673.555 621.839 673.052 622.709C672.55 623.578 672.296 624.829 672.292 626.461C672.292 627.552 672.405 628.474 672.631 629.229C672.861 629.979 673.187 630.548 673.609 630.935C674.03 631.319 674.538 631.511 675.13 631.511Z"
        fill="white" />
    <path
        d="M742.918 633L748.633 621.699V621.603H742.024V619.909H750.678V621.661L744.983 633H742.918ZM756.979 633.217C755.97 633.213 755.107 632.947 754.391 632.418C753.675 631.89 753.127 631.121 752.748 630.111C752.369 629.101 752.179 627.884 752.179 626.461C752.179 625.042 752.369 623.83 752.748 622.824C753.131 621.818 753.681 621.051 754.397 620.523C755.117 619.994 755.978 619.73 756.979 619.73C757.981 619.73 758.84 619.996 759.555 620.529C760.271 621.058 760.819 621.825 761.198 622.83C761.582 623.832 761.774 625.042 761.774 626.461C761.774 627.888 761.584 629.107 761.205 630.117C760.825 631.123 760.278 631.892 759.562 632.425C758.846 632.953 757.985 633.217 756.979 633.217ZM756.979 631.511C757.866 631.511 758.558 631.078 759.057 630.213C759.56 629.348 759.811 628.097 759.811 626.461C759.811 625.374 759.696 624.456 759.466 623.706C759.24 622.952 758.914 622.381 758.488 621.993C758.066 621.601 757.563 621.405 756.979 621.405C756.097 621.405 755.405 621.839 754.902 622.709C754.399 623.578 754.146 624.829 754.141 626.461C754.141 627.552 754.254 628.474 754.48 629.229C754.71 629.979 755.036 630.548 755.458 630.935C755.88 631.319 756.387 631.511 756.979 631.511Z"
        fill="white" />
    <path
        d="M828.785 633.179C827.869 633.179 827.06 633.021 826.356 632.706C825.658 632.391 825.11 631.956 824.714 631.402C824.317 630.848 824.121 630.217 824.126 629.51C824.121 628.956 824.234 628.447 824.464 627.982C824.699 627.513 825.016 627.124 825.417 626.812C825.817 626.497 826.265 626.297 826.759 626.212V626.135C826.107 625.977 825.585 625.628 825.193 625.087C824.801 624.545 824.607 623.923 824.611 623.22C824.607 622.551 824.784 621.955 825.142 621.43C825.504 620.902 826.001 620.487 826.631 620.184C827.262 619.881 827.98 619.73 828.785 619.73C829.582 619.73 830.294 619.884 830.92 620.19C831.551 620.493 832.048 620.908 832.41 621.437C832.772 621.961 832.955 622.555 832.959 623.22C832.955 623.923 832.755 624.545 832.359 625.087C831.962 625.628 831.447 625.977 830.812 626.135V626.212C831.302 626.297 831.743 626.497 832.135 626.812C832.531 627.124 832.847 627.513 833.081 627.982C833.32 628.447 833.441 628.956 833.445 629.51C833.441 630.217 833.241 630.848 832.844 631.402C832.448 631.956 831.898 632.391 831.195 632.706C830.496 633.021 829.693 633.179 828.785 633.179ZM828.785 631.562C829.327 631.562 829.795 631.472 830.192 631.293C830.588 631.11 830.895 630.857 831.112 630.533C831.329 630.205 831.44 629.821 831.445 629.382C831.44 628.926 831.321 628.523 831.087 628.174C830.856 627.825 830.543 627.55 830.147 627.349C829.751 627.149 829.297 627.049 828.785 627.049C828.27 627.049 827.812 627.149 827.411 627.349C827.011 627.55 826.695 627.825 826.465 628.174C826.235 628.523 826.122 628.926 826.126 629.382C826.122 629.821 826.226 630.205 826.44 630.533C826.657 630.857 826.966 631.11 827.366 631.293C827.767 631.472 828.24 631.562 828.785 631.562ZM828.785 625.47C829.22 625.47 829.606 625.383 829.942 625.208C830.279 625.033 830.543 624.79 830.735 624.479C830.931 624.168 831.031 623.804 831.035 623.386C831.031 622.977 830.933 622.619 830.741 622.312C830.554 622.006 830.292 621.769 829.955 621.603C829.619 621.433 829.229 621.347 828.785 621.347C828.334 621.347 827.937 621.433 827.597 621.603C827.26 621.769 826.998 622.006 826.81 622.312C826.623 622.619 826.531 622.977 826.535 623.386C826.531 623.804 826.625 624.168 826.817 624.479C827.008 624.79 827.273 625.033 827.609 625.208C827.95 625.383 828.342 625.47 828.785 625.47ZM840.095 633.217C839.085 633.213 838.222 632.947 837.506 632.418C836.79 631.89 836.242 631.121 835.863 630.111C835.484 629.101 835.294 627.884 835.294 626.461C835.294 625.042 835.484 623.83 835.863 622.824C836.247 621.818 836.796 621.051 837.512 620.523C838.232 619.994 839.093 619.73 840.095 619.73C841.096 619.73 841.955 619.996 842.671 620.529C843.387 621.058 843.934 621.825 844.313 622.83C844.697 623.832 844.889 625.042 844.889 626.461C844.889 627.888 844.699 629.107 844.32 630.117C843.941 631.123 843.393 631.892 842.677 632.425C841.961 632.953 841.1 633.217 840.095 633.217ZM840.095 631.511C840.981 631.511 841.674 631.078 842.172 630.213C842.675 629.348 842.926 628.097 842.926 626.461C842.926 625.374 842.811 624.456 842.581 623.706C842.355 622.952 842.029 622.381 841.603 621.993C841.181 621.601 840.679 621.405 840.095 621.405C839.213 621.405 838.52 621.839 838.017 622.709C837.514 623.578 837.261 624.829 837.257 626.461C837.257 627.552 837.37 628.474 837.595 629.229C837.826 629.979 838.152 630.548 838.573 630.935C838.995 631.319 839.502 631.511 840.095 631.511Z"
        fill="white" />
    <path
        d="M911.68 619.73C912.264 619.734 912.839 619.841 913.406 620.05C913.973 620.259 914.484 620.599 914.94 621.072C915.4 621.545 915.767 622.185 916.039 622.99C916.316 623.791 916.457 624.788 916.461 625.982C916.461 627.128 916.346 628.148 916.116 629.043C915.886 629.934 915.556 630.686 915.125 631.3C914.699 631.913 914.181 632.38 913.572 632.7C912.963 633.019 912.277 633.179 911.514 633.179C910.734 633.179 910.041 633.026 909.436 632.719C908.831 632.412 908.339 631.988 907.96 631.447C907.581 630.901 907.344 630.275 907.25 629.567H909.2C909.328 630.13 909.588 630.586 909.98 630.935C910.376 631.281 910.887 631.453 911.514 631.453C912.473 631.453 913.22 631.036 913.757 630.2C914.294 629.361 914.565 628.189 914.569 626.685H914.467C914.245 627.051 913.968 627.366 913.636 627.631C913.308 627.895 912.939 628.099 912.53 628.244C912.121 628.389 911.684 628.462 911.22 628.462C910.465 628.462 909.779 628.276 909.161 627.906C908.544 627.535 908.051 627.026 907.685 626.378C907.318 625.73 907.135 624.991 907.135 624.16C907.135 623.333 907.323 622.583 907.698 621.91C908.077 621.237 908.605 620.704 909.283 620.312C909.965 619.915 910.764 619.722 911.68 619.73ZM911.686 621.392C911.188 621.392 910.738 621.516 910.338 621.763C909.941 622.006 909.628 622.336 909.398 622.754C909.168 623.167 909.053 623.627 909.053 624.134C909.053 624.641 909.164 625.102 909.385 625.515C909.611 625.924 909.918 626.25 910.306 626.493C910.698 626.732 911.145 626.851 911.648 626.851C912.023 626.851 912.372 626.778 912.696 626.634C913.02 626.489 913.304 626.288 913.546 626.033C913.789 625.773 913.979 625.479 914.115 625.151C914.252 624.822 914.32 624.477 914.32 624.115C914.32 623.634 914.205 623.186 913.975 622.773C913.749 622.359 913.438 622.027 913.041 621.776C912.645 621.52 912.193 621.392 911.686 621.392ZM923.13 633.217C922.12 633.213 921.257 632.947 920.541 632.418C919.825 631.89 919.278 631.121 918.898 630.111C918.519 629.101 918.329 627.884 918.329 626.461C918.329 625.042 918.519 623.83 918.898 622.824C919.282 621.818 919.832 621.051 920.547 620.523C921.268 619.994 922.128 619.73 923.13 619.73C924.131 619.73 924.99 619.996 925.706 620.529C926.422 621.058 926.969 621.825 927.349 622.83C927.732 623.832 927.924 625.042 927.924 626.461C927.924 627.888 927.734 629.107 927.355 630.117C926.976 631.123 926.428 631.892 925.712 632.425C924.996 632.953 924.136 633.217 923.13 633.217ZM923.13 631.511C924.016 631.511 924.709 631.078 925.207 630.213C925.71 629.348 925.962 628.097 925.962 626.461C925.962 625.374 925.846 624.456 925.616 623.706C925.391 622.952 925.065 622.381 924.638 621.993C924.217 621.601 923.714 621.405 923.13 621.405C922.248 621.405 921.555 621.839 921.052 622.709C920.55 623.578 920.296 624.829 920.292 626.461C920.292 627.552 920.405 628.474 920.631 629.229C920.861 629.979 921.187 630.548 921.609 630.935C922.03 631.319 922.538 631.511 923.13 631.511Z"
        fill="white" />
    <path
        d="M995.551 619.909V633H993.569V621.891H993.493L990.36 623.936V622.044L993.627 619.909H995.551ZM1003.45 633.217C1002.44 633.213 1001.58 632.947 1000.86 632.418C1000.15 631.89 999.599 631.121 999.22 630.111C998.841 629.101 998.651 627.884 998.651 626.461C998.651 625.042 998.841 623.83 999.22 622.824C999.604 621.818 1000.15 621.051 1000.87 620.523C1001.59 619.994 1002.45 619.73 1003.45 619.73C1004.45 619.73 1005.31 619.996 1006.03 620.529C1006.74 621.058 1007.29 621.825 1007.67 622.83C1008.05 623.832 1008.25 625.042 1008.25 626.461C1008.25 627.888 1008.06 629.107 1007.68 630.117C1007.3 631.123 1006.75 631.892 1006.03 632.425C1005.32 632.953 1004.46 633.217 1003.45 633.217ZM1003.45 631.511C1004.34 631.511 1005.03 631.078 1005.53 630.213C1006.03 629.348 1006.28 628.097 1006.28 626.461C1006.28 625.374 1006.17 624.456 1005.94 623.706C1005.71 622.952 1005.39 622.381 1004.96 621.993C1004.54 621.601 1004.04 621.405 1003.45 621.405C1002.57 621.405 1001.88 621.839 1001.37 622.709C1000.87 623.578 1000.62 624.829 1000.61 626.461C1000.61 627.552 1000.73 628.474 1000.95 629.229C1001.18 629.979 1001.51 630.548 1001.93 630.935C1002.35 631.319 1002.86 631.511 1003.45 631.511ZM1014.87 633.217C1013.86 633.213 1013 632.947 1012.28 632.418C1011.57 631.89 1011.02 631.121 1010.64 630.111C1010.26 629.101 1010.07 627.884 1010.07 626.461C1010.07 625.042 1010.26 623.83 1010.64 622.824C1011.02 621.818 1011.57 621.051 1012.29 620.523C1013.01 619.994 1013.87 619.73 1014.87 619.73C1015.87 619.73 1016.73 619.996 1017.45 620.529C1018.16 621.058 1018.71 621.825 1019.09 622.83C1019.47 623.832 1019.67 625.042 1019.67 626.461C1019.67 627.888 1019.48 629.107 1019.1 630.117C1018.72 631.123 1018.17 631.892 1017.46 632.425C1016.74 632.953 1015.88 633.217 1014.87 633.217ZM1014.87 631.511C1015.76 631.511 1016.45 631.078 1016.95 630.213C1017.45 629.348 1017.7 628.097 1017.7 626.461C1017.7 625.374 1017.59 624.456 1017.36 623.706C1017.13 622.952 1016.81 622.381 1016.38 621.993C1015.96 621.601 1015.46 621.405 1014.87 621.405C1013.99 621.405 1013.3 621.839 1012.8 622.709C1012.29 623.578 1012.04 624.829 1012.03 626.461C1012.03 627.552 1012.15 628.474 1012.37 629.229C1012.6 629.979 1012.93 630.548 1013.35 630.935C1013.77 631.319 1014.28 631.511 1014.87 631.511Z"
        fill="white" />
    <path
        d="M95.3243 104.32C89.2123 104.32 85.3083 99.968 85.3083 93.28C85.3083 86.592 89.2123 82.24 95.3243 82.24C101.404 82.24 105.308 86.592 105.308 93.28C105.308 98.368 103.036 102.112 99.2603 103.616L102.652 108.512H98.2683L95.6763 104.32C95.5483 104.32 95.4523 104.32 95.3243 104.32ZM95.3243 100.992C99.7723 100.992 101.628 98.848 101.628 93.28C101.628 87.712 99.7723 85.568 95.3243 85.568C90.8763 85.568 88.9883 87.712 88.9883 93.28C88.9883 98.848 90.8763 100.992 95.3243 100.992ZM114.085 104.32C109.925 104.32 108.069 101.536 108.069 97.92V88.096H111.525V97.312C111.525 100.16 112.613 101.344 115.365 101.344C118.021 101.344 119.525 100.192 119.525 97.056V88.096H122.981V104H119.781V100.832H119.653C118.885 102.656 117.189 104.32 114.085 104.32ZM130.673 104.32C127.825 104.32 125.617 102.848 125.617 100.064C125.617 97.44 127.537 96.064 130.929 95.584L136.497 94.752V93.888C136.497 91.52 135.409 90.816 132.913 90.816C130.385 90.816 129.393 91.616 129.393 93.728V94.208H126.065V93.888C126.065 90.336 128.849 87.776 133.105 87.776C137.553 87.776 139.793 90.464 139.793 94.336V104H136.593V101.504H136.433C135.505 103.008 133.681 104.32 130.673 104.32ZM128.977 99.808C128.977 101.056 129.777 101.568 131.793 101.568C134.033 101.568 136.497 100.672 136.497 97.472V97.184L131.441 97.952C129.617 98.208 128.977 98.624 128.977 99.808ZM149.408 104.32C144.864 104.32 142.4 101.088 142.4 96.032C142.4 91.008 144.832 87.776 149.216 87.776C152.032 87.776 153.728 89.12 154.432 90.56H154.528V82.56H157.952V104H154.784V101.376H154.656C153.888 103.2 152.128 104.32 149.408 104.32ZM145.856 96.032C145.856 99.968 147.104 101.376 150.176 101.376C152.992 101.376 154.528 100.128 154.528 97.472V94.624C154.528 91.968 152.992 90.72 150.176 90.72C147.136 90.72 145.856 92.128 145.856 96.032ZM164.808 104H161.352V88H164.52V90.528H164.68C165.32 89.056 166.792 87.776 169.128 87.776C172.456 87.776 173.736 90.208 173.736 93.184V94.24H170.28V93.6C170.28 91.488 169.672 90.72 167.656 90.72C165.576 90.72 164.808 91.52 164.808 93.632V104ZM179.923 104.32C177.075 104.32 174.867 102.848 174.867 100.064C174.867 97.44 176.787 96.064 180.179 95.584L185.747 94.752V93.888C185.747 91.52 184.659 90.816 182.163 90.816C179.635 90.816 178.643 91.616 178.643 93.728V94.208H175.315V93.888C175.315 90.336 178.099 87.776 182.355 87.776C186.803 87.776 189.043 90.464 189.043 94.336V104H185.843V101.504H185.683C184.755 103.008 182.931 104.32 179.923 104.32ZM178.227 99.808C178.227 101.056 179.027 101.568 181.043 101.568C183.283 101.568 185.747 100.672 185.747 97.472V97.184L180.691 97.952C178.867 98.208 178.227 98.624 178.227 99.808ZM198.821 104C195.269 104 193.413 102.688 193.413 99.104V90.976H190.757V88.096H193.477L194.213 84.16H196.869V88.096H201.669V90.976H196.869V98.944C196.869 100.608 197.573 100.896 199.717 100.896H201.669V103.712C200.997 103.872 199.909 104 198.821 104ZM207.147 86.08H203.723L203.691 82.56H207.147V86.08ZM207.179 104H203.723V88H207.179V104ZM217.332 104.352C212.372 104.352 209.556 100.992 209.556 96.064C209.556 91.104 212.468 87.776 217.46 87.776C221.652 87.776 224.532 90.368 224.532 94.176V94.464H221.108V94.272C221.108 91.936 219.892 90.88 217.236 90.88C214.164 90.88 212.98 92.608 212.98 96.064C212.98 99.52 214.164 101.216 217.236 101.216C219.892 101.216 221.108 100.192 221.108 97.856V97.664H224.532V97.952C224.532 101.728 221.62 104.352 217.332 104.352ZM244.745 104H240.169L232.041 82.56H235.913L242.377 100.16H242.633L249.033 82.56H252.873L244.745 104ZM260.367 104.32C255.471 104.32 252.431 100.992 252.431 96.032C252.431 91.104 255.471 87.776 260.367 87.776C265.231 87.776 268.175 91.104 268.175 96.032C268.175 100.992 265.231 104.32 260.367 104.32ZM260.367 101.248C263.695 101.248 264.847 99.616 264.847 96.032C264.847 92.48 263.695 90.848 260.367 90.848C257.007 90.848 255.823 92.48 255.823 96.032C255.823 99.616 257.007 101.248 260.367 101.248ZM277.258 104C273.706 104 271.85 102.688 271.85 99.104V90.976H269.194V88.096H271.914L272.65 84.16H275.306V88.096H280.106V90.976H275.306V98.944C275.306 100.608 276.01 100.896 278.154 100.896H280.106V103.712C279.434 103.872 278.346 104 277.258 104ZM285.584 86.08H282.16L282.128 82.56H285.584V86.08ZM285.616 104H282.16V88H285.616V104ZM292.246 104H288.79V88.096H291.958V91.072H292.086C292.822 89.376 294.518 87.776 297.622 87.776C301.75 87.776 303.606 90.4 303.606 94.016V104H300.15V94.784C300.15 91.936 299.254 90.752 296.342 90.752C293.526 90.752 292.246 91.84 292.246 94.816V104ZM313.028 102.496C308.644 102.496 306.212 99.616 306.212 95.136C306.212 90.656 308.676 87.776 313.156 87.776C315.716 87.776 317.7 88.864 318.468 90.72H318.596V88.096H321.764V102.848C321.764 107.552 319.012 109.76 314.372 109.76C309.86 109.76 307.044 107.616 307.044 103.776H310.468C310.468 105.952 311.268 106.688 314.468 106.688C317.572 106.688 318.34 105.792 318.34 102.848V99.68H318.212C317.476 101.216 315.62 102.496 313.028 102.496ZM309.668 95.136C309.668 98.4 311.012 99.552 314.02 99.552C316.612 99.552 318.34 98.304 318.34 95.616V94.624C318.34 91.968 316.612 90.72 313.956 90.72C310.98 90.72 309.668 91.872 309.668 95.136ZM335.1 93.056H330.716V88.096H335.1V93.056ZM335.1 104H330.716V99.04H335.1V104ZM347.186 104H343.73V82.56H352.946C357.682 82.56 360.658 84.896 360.658 88.96C360.658 92.512 358.482 94.656 354.706 94.848V95.104C356.274 95.616 357.202 96.576 358.002 98.048L361.202 104H357.202L354.162 98.464C353.17 96.608 352.274 95.744 349.714 95.744H347.186V104ZM347.186 85.664V92.896H353.362C356.146 92.896 357.202 91.872 357.202 89.28C357.202 86.752 356.146 85.664 353.362 85.664H347.186ZM369.768 104.32C364.52 104.32 362.056 100.992 362.056 96.032C362.056 91.104 365 87.776 369.736 87.776C374.024 87.776 377.032 90.336 377.032 94.688C377.032 95.52 376.936 96.384 376.84 96.864H365.288C365.416 99.776 366.472 101.248 369.8 101.248C372.456 101.248 373.48 100.352 373.48 98.912V98.656H376.904V98.944C376.904 102.208 374.056 104.32 369.768 104.32ZM369.672 90.688C366.664 90.688 365.512 92.096 365.32 94.56H373.736C373.864 91.84 372.392 90.688 369.672 90.688ZM386.09 104.32C381.642 104.32 379.306 101.088 379.306 96.064C379.306 91.008 381.738 87.776 386.218 87.776C388.97 87.776 390.794 88.864 391.562 90.72H391.69V88.096H394.858V109.536H391.434V101.536H391.338C390.634 102.976 388.842 104.32 386.09 104.32ZM382.762 96.064C382.762 99.968 384.042 101.376 387.082 101.376C389.898 101.376 391.434 100.128 391.434 97.472V94.624C391.434 91.968 389.898 90.72 387.082 90.72C384.01 90.72 382.762 92.128 382.762 96.064ZM404.179 104.32C400.019 104.32 398.163 101.536 398.163 97.92V88.096H401.619V97.312C401.619 100.16 402.707 101.344 405.459 101.344C408.115 101.344 409.619 100.192 409.619 97.056V88.096H413.075V104H409.875V100.832H409.747C408.979 102.656 407.283 104.32 404.179 104.32ZM419.709 86.08H416.285L416.253 82.56H419.709V86.08ZM419.741 104H416.285V88H419.741V104ZM426.371 104H422.915V88H426.083V90.528H426.243C426.883 89.056 428.355 87.776 430.691 87.776C434.019 87.776 435.299 90.208 435.299 93.184V94.24H431.843V93.6C431.843 91.488 431.235 90.72 429.219 90.72C427.139 90.72 426.371 91.52 426.371 93.632V104ZM444.581 104.32C439.333 104.32 436.868 100.992 436.868 96.032C436.868 91.104 439.812 87.776 444.549 87.776C448.837 87.776 451.845 90.336 451.845 94.688C451.845 95.52 451.749 96.384 451.653 96.864H440.101C440.229 99.776 441.285 101.248 444.613 101.248C447.269 101.248 448.293 100.352 448.293 98.912V98.656H451.717V98.944C451.717 102.208 448.869 104.32 444.581 104.32ZM444.485 90.688C441.477 90.688 440.325 92.096 440.133 94.56H448.549C448.677 91.84 447.205 90.688 444.485 90.688ZM461.127 104.32C456.583 104.32 454.118 101.088 454.118 96.032C454.118 91.008 456.551 87.776 460.935 87.776C463.751 87.776 465.447 89.12 466.151 90.56H466.247V82.56H469.671V104H466.503V101.376H466.375C465.607 103.2 463.847 104.32 461.127 104.32ZM457.575 96.032C457.575 99.968 458.823 101.376 461.895 101.376C464.711 101.376 466.247 100.128 466.247 97.472V94.624C466.247 91.968 464.711 90.72 461.895 90.72C458.855 90.72 457.575 92.128 457.575 96.032ZM487.87 104.32C481.694 104.32 479.006 101.472 479.006 97.344V96.8H482.398V97.152C482.398 99.808 483.518 101.152 487.998 101.152C491.166 101.152 492.318 100.288 492.318 98.304C492.318 96.352 491.678 95.648 488.382 94.976L484.734 94.24C481.054 93.536 479.07 91.744 479.07 88.352C479.07 85.184 481.534 82.24 487.07 82.24C492.99 82.24 495.358 85.568 495.358 89.376V89.76H491.966V89.408C491.966 86.784 490.814 85.408 486.974 85.408C483.806 85.408 482.526 86.304 482.526 88.192C482.526 90.144 483.39 90.688 486.334 91.328L489.982 92.096C494.014 92.928 495.774 94.944 495.774 98.176C495.774 101.536 493.342 104.32 487.87 104.32ZM504.633 104C501.081 104 499.225 102.688 499.225 99.104V90.976H496.569V88.096H499.289L500.025 84.16H502.681V88.096H507.481V90.976H502.681V98.944C502.681 100.608 503.385 100.896 505.529 100.896H507.481V103.712C506.809 103.872 505.721 104 504.633 104ZM514.111 104.32C511.263 104.32 509.055 102.848 509.055 100.064C509.055 97.44 510.975 96.064 514.367 95.584L519.935 94.752V93.888C519.935 91.52 518.847 90.816 516.351 90.816C513.823 90.816 512.831 91.616 512.831 93.728V94.208H509.503V93.888C509.503 90.336 512.286 87.776 516.543 87.776C520.991 87.776 523.231 90.464 523.231 94.336V104H520.031V101.504H519.871C518.943 103.008 517.119 104.32 514.111 104.32ZM512.415 99.808C512.415 101.056 513.215 101.568 515.231 101.568C517.47 101.568 519.935 100.672 519.935 97.472V97.184L514.879 97.952C513.055 98.208 512.415 98.624 512.415 99.808ZM529.996 104H526.54V82.56H529.996V94.4H533.132L537.388 88.096H541.452L535.916 95.616L541.356 104H537.324L533.164 97.504H529.996V104ZM549.456 104.32C544.208 104.32 541.743 100.992 541.743 96.032C541.743 91.104 544.688 87.776 549.424 87.776C553.712 87.776 556.72 90.336 556.72 94.688C556.72 95.52 556.624 96.384 556.528 96.864H544.976C545.104 99.776 546.16 101.248 549.488 101.248C552.144 101.248 553.168 100.352 553.168 98.912V98.656H556.592V98.944C556.592 102.208 553.744 104.32 549.456 104.32ZM549.36 90.688C546.352 90.688 545.2 92.096 545.008 94.56H553.424C553.552 91.84 552.08 90.688 549.36 90.688ZM577.089 104H572.513L564.385 82.56H568.257L574.721 100.16H574.977L581.377 82.56H585.217L577.089 104ZM592.572 104.32C587.932 104.32 585.5 102.496 585.5 98.624V98.56H588.828V99.136C588.828 100.864 589.596 101.504 592.635 101.504C595.196 101.504 595.676 100.928 595.676 99.744C595.676 98.464 594.908 98.08 592.572 97.664L590.108 97.248C587.26 96.736 585.468 95.456 585.468 92.576C585.468 89.696 587.836 87.776 591.996 87.776C595.74 87.776 598.556 89.632 598.556 93.248V93.536H595.26V93.152C595.26 91.68 594.748 90.624 591.9 90.624C589.372 90.624 588.764 91.296 588.764 92.512C588.764 93.728 589.34 94.08 591.58 94.528L594.268 95.04C597.34 95.648 598.94 97.024 598.94 99.648C598.94 102.592 596.604 104.32 592.572 104.32ZM605.407 104H601.023V99.04H605.407V104ZM625.589 104H621.013L612.885 82.56H616.757L623.221 100.16H623.477L629.877 82.56H633.717L625.589 104ZM641.211 104.32C636.315 104.32 633.275 100.992 633.275 96.032C633.275 91.104 636.315 87.776 641.211 87.776C646.075 87.776 649.019 91.104 649.019 96.032C649.019 100.992 646.075 104.32 641.211 104.32ZM641.211 101.248C644.539 101.248 645.691 99.616 645.691 96.032C645.691 92.48 644.539 90.848 641.211 90.848C637.851 90.848 636.667 92.48 636.667 96.032C636.667 99.616 637.851 101.248 641.211 101.248ZM658.102 104C654.55 104 652.694 102.688 652.694 99.104V90.976H650.038V88.096H652.758L653.494 84.16H656.15V88.096H660.95V90.976H656.15V98.944C656.15 100.608 656.854 100.896 658.998 100.896H660.95V103.712C660.278 103.872 659.19 104 658.102 104ZM666.428 86.08H663.004L662.972 82.56H666.428V86.08ZM666.46 104H663.004V88H666.46V104ZM673.09 104H669.634V88.096H672.802V91.072H672.93C673.666 89.376 675.362 87.776 678.466 87.776C682.594 87.776 684.45 90.4 684.45 94.016V104H680.994V94.784C680.994 91.936 680.098 90.752 677.186 90.752C674.37 90.752 673.09 91.84 673.09 94.816V104ZM693.872 102.496C689.488 102.496 687.056 99.616 687.056 95.136C687.056 90.656 689.52 87.776 694 87.776C696.56 87.776 698.544 88.864 699.312 90.72H699.44V88.096H702.608V102.848C702.608 107.552 699.856 109.76 695.216 109.76C690.704 109.76 687.888 107.616 687.888 103.776H691.312C691.312 105.952 692.112 106.688 695.312 106.688C698.416 106.688 699.184 105.792 699.184 102.848V99.68H699.056C698.32 101.216 696.464 102.496 693.872 102.496ZM690.512 95.136C690.512 98.4 691.856 99.552 694.864 99.552C697.456 99.552 699.184 98.304 699.184 95.616V94.624C699.184 91.968 697.456 90.72 694.8 90.72C691.824 90.72 690.512 91.872 690.512 95.136ZM715.592 104H712.136V82.56H721.256C725.736 82.56 729.032 85.216 729.032 89.824C729.032 94.432 725.736 97.088 721.256 97.088H715.592V104ZM721.672 85.664H715.592V93.984H721.672C724.488 93.984 725.608 92.896 725.608 89.824C725.608 86.752 724.488 85.664 721.672 85.664ZM738.148 104.32C733.252 104.32 730.212 100.992 730.212 96.032C730.212 91.104 733.252 87.776 738.148 87.776C743.012 87.776 745.956 91.104 745.956 96.032C745.956 100.992 743.012 104.32 738.148 104.32ZM738.148 101.248C741.476 101.248 742.628 99.616 742.628 96.032C742.628 92.48 741.476 90.848 738.148 90.848C734.788 90.848 733.604 92.48 733.604 96.032C733.604 99.616 734.788 101.248 738.148 101.248ZM754.988 104H750.476L746.54 88.096H750.284L752.108 96.928L752.748 101.12H753.004L754.06 96.928L756.844 88.096H761.324L764.14 96.96L765.132 101.12H765.388L766.028 96.96L767.884 88.096H771.468L767.532 104H763.052L760.204 95.136L759.148 91.136H758.892L757.868 95.136L754.988 104ZM779.706 104.32C774.458 104.32 771.993 100.992 771.993 96.032C771.993 91.104 774.938 87.776 779.674 87.776C783.962 87.776 786.97 90.336 786.97 94.688C786.97 95.52 786.874 96.384 786.778 96.864H775.226C775.354 99.776 776.41 101.248 779.738 101.248C782.394 101.248 783.418 100.352 783.418 98.912V98.656H786.842V98.944C786.842 102.208 783.994 104.32 779.706 104.32ZM779.61 90.688C776.602 90.688 775.45 92.096 775.258 94.56H783.674C783.802 91.84 782.33 90.688 779.61 90.688ZM793.183 104H789.727V88H792.895V90.528H793.055C793.695 89.056 795.167 87.776 797.503 87.776C800.831 87.776 802.111 90.208 802.111 93.184V94.24H798.655V93.6C798.655 91.488 798.047 90.72 796.031 90.72C793.951 90.72 793.183 91.52 793.183 93.632V104Z"
        fill="white" />
    <line x1="175.5" y1="159" x2="175.5" y2="602" stroke="#C0C0C0" />
    <line x1="1044" y1="602.5" x2="175" y2="602.5" stroke="#C0C0C0" />
    <line x1="1044" y1="170.5" x2="175" y2="170.5" stroke="#949494" stroke-opacity="0.7" />
    <line x1="1044" y1="206.5" x2="175" y2="206.5" stroke="#949494" stroke-dasharray="4 4" />
    <line x1="1044" y1="242.5" x2="175" y2="242.5" stroke="#949494" stroke-opacity="0.7" />
    <line x1="1044" y1="278.5" x2="175" y2="278.5" stroke="#949494" stroke-dasharray="4 4" />
    <line x1="1044" y1="314.5" x2="175" y2="314.5" stroke="#949494" stroke-opacity="0.7" />
    <line x1="1044" y1="350.5" x2="175" y2="350.5" stroke="#949494" stroke-dasharray="4 4" />
    <line x1="1044" y1="386.5" x2="175" y2="386.5" stroke="#949494" stroke-opacity="0.7" />
    <line x1="1044" y1="422.5" x2="175" y2="422.5" stroke="#949494" stroke-dasharray="4 4" />
    <line x1="1044" y1="458.5" x2="175" y2="458.5" stroke="#949494" stroke-opacity="0.7" />
    <line x1="1044" y1="494.5" x2="175" y2="494.5" stroke="#949494" stroke-dasharray="4 4" />
    <line x1="1044" y1="530.5" x2="175" y2="530.5" stroke="#949494" stroke-opacity="0.7" />
    <line x1="1044" y1="566.5" x2="175" y2="566.5" stroke="#949494" stroke-dasharray="4 4" />
    <line x1="168" y1="566.5" x2="182" y2="566.5" stroke="#C0C0C0" />
    <line x1="168" y1="494.5" x2="182" y2="494.5" stroke="#C0C0C0" />
    <line x1="168" y1="422.5" x2="182" y2="422.5" stroke="#C0C0C0" />
    <line x1="168" y1="350.5" x2="182" y2="350.5" stroke="#C0C0C0" />
    <line x1="168" y1="278.5" x2="182" y2="278.5" stroke="#C0C0C0" />
    <line x1="168" y1="206.5" x2="182" y2="206.5" stroke="#C0C0C0" />
    <path
        d="M273.483 596.124L178 602L1030 601.466V243C1011.39 259.561 870.372 356.79 842.952 375.488C815.531 394.186 798.393 403.802 763.138 421.966C727.883 440.129 664.228 468.443 646.6 479.128C628.972 489.812 477.669 545.906 462.979 551.249C451.228 555.522 331.752 582.946 273.483 596.124Z"
        stroke="#EF5D13" stroke-opacity="0.7" stroke-width="3" />
</svg>