<svg width="798" height="524" viewBox="0 0 798 524" fill="none" xmlns="http://www.w3.org/2000/svg">
    <rect width="798" height="523.373" fill="black" />
    <path
        d="M57.6104 410.117H54.9662C54.9179 409.775 54.8193 409.471 54.6704 409.206C54.5215 408.936 54.3303 408.707 54.0969 408.517C53.8635 408.328 53.5938 408.183 53.288 408.083C52.9861 407.982 52.6581 407.932 52.3039 407.932C51.664 407.932 51.1066 408.091 50.6317 408.409C50.1568 408.723 49.7886 409.181 49.527 409.785C49.2654 410.385 49.1346 411.113 49.1346 411.971C49.1346 412.852 49.2654 413.592 49.527 414.192C49.7926 414.792 50.1628 415.245 50.6378 415.55C51.1127 415.856 51.662 416.009 52.2858 416.009C52.636 416.009 52.96 415.963 53.2578 415.87C53.5596 415.778 53.8273 415.643 54.0607 415.466C54.2941 415.285 54.4873 415.065 54.6402 414.808C54.7972 414.55 54.9059 414.257 54.9662 413.926L57.6104 413.939C57.542 414.506 57.3709 415.053 57.0973 415.581C56.8276 416.104 56.4634 416.573 56.0046 416.987C55.5498 417.398 55.0065 417.724 54.3746 417.965C53.7468 418.203 53.0364 418.321 52.2436 418.321C51.1408 418.321 50.1548 418.072 49.2855 417.573C48.4202 417.074 47.736 416.351 47.2329 415.406C46.7339 414.46 46.4843 413.315 46.4843 411.971C46.4843 410.622 46.7379 409.475 47.245 408.529C47.7521 407.584 48.4403 406.863 49.3096 406.368C50.1789 405.869 51.1569 405.62 52.2436 405.62C52.96 405.62 53.624 405.72 54.2358 405.922C54.8515 406.123 55.3969 406.417 55.8718 406.803C56.3467 407.185 56.733 407.654 57.0309 408.21C57.3327 408.765 57.5259 409.401 57.6104 410.117ZM63.4392 418.333C62.5015 418.333 61.6905 418.134 61.0063 417.736C60.3262 417.333 59.801 416.774 59.4307 416.058C59.0604 415.337 58.8753 414.502 58.8753 413.552C58.8753 412.594 59.0604 411.757 59.4307 411.041C59.801 410.32 60.3262 409.761 61.0063 409.363C61.6905 408.96 62.5015 408.759 63.4392 408.759C64.3769 408.759 65.1859 408.96 65.8661 409.363C66.5502 409.761 67.0775 410.32 67.4477 411.041C67.818 411.757 68.0031 412.594 68.0031 413.552C68.0031 414.502 67.818 415.337 67.4477 416.058C67.0775 416.774 66.5502 417.333 65.8661 417.736C65.1859 418.134 64.3769 418.333 63.4392 418.333ZM63.4513 416.341C63.8779 416.341 64.2341 416.221 64.5198 415.979C64.8056 415.734 65.0209 415.4 65.1658 414.977C65.3147 414.554 65.3891 414.073 65.3891 413.534C65.3891 412.995 65.3147 412.514 65.1658 412.091C65.0209 411.669 64.8056 411.335 64.5198 411.089C64.2341 410.844 63.8779 410.721 63.4513 410.721C63.0206 410.721 62.6584 410.844 62.3646 411.089C62.0749 411.335 61.8555 411.669 61.7066 412.091C61.5617 412.514 61.4893 412.995 61.4893 413.534C61.4893 414.073 61.5617 414.554 61.7066 414.977C61.8555 415.4 62.0749 415.734 62.3646 415.979C62.6584 416.221 63.0206 416.341 63.4513 416.341ZM72.0601 412.792V418.152H69.4884V408.88H71.9394V410.516H72.048C72.2533 409.976 72.5974 409.55 73.0803 409.236C73.5633 408.918 74.1489 408.759 74.8371 408.759C75.481 408.759 76.0425 408.9 76.5214 409.181C77.0003 409.463 77.3726 409.866 77.6382 410.389C77.9038 410.908 78.0367 411.528 78.0367 412.248V418.152H75.4649V412.707C75.4689 412.14 75.3241 411.697 75.0303 411.379C74.7365 411.057 74.332 410.896 73.8168 410.896C73.4707 410.896 73.1649 410.97 72.8992 411.119C72.6376 411.268 72.4324 411.486 72.2835 411.771C72.1386 412.053 72.0641 412.393 72.0601 412.792ZM84.0662 418.333C83.1164 418.333 82.2994 418.132 81.6152 417.73C80.935 417.323 80.4118 416.76 80.0456 416.039C79.6834 415.319 79.5023 414.49 79.5023 413.552C79.5023 412.602 79.6854 411.769 80.0516 411.053C80.4219 410.333 80.9471 409.771 81.6273 409.369C82.3074 408.962 83.1164 408.759 84.0541 408.759C84.8631 408.759 85.5714 408.906 86.1791 409.2C86.7868 409.493 87.2678 409.906 87.6219 410.437C87.9761 410.968 88.1713 411.592 88.2075 412.309H85.7807C85.7123 411.846 85.5311 411.473 85.2374 411.192C84.9476 410.906 84.5673 410.763 84.0964 410.763C83.6979 410.763 83.3498 410.872 83.052 411.089C82.7582 411.302 82.5288 411.614 82.3638 412.025C82.1988 412.435 82.1163 412.932 82.1163 413.516C82.1163 414.108 82.1967 414.611 82.3577 415.025C82.5227 415.44 82.7542 415.756 83.052 415.973C83.3498 416.19 83.6979 416.299 84.0964 416.299C84.3902 416.299 84.6538 416.239 84.8872 416.118C85.1247 415.997 85.3199 415.822 85.4728 415.593C85.6298 415.359 85.7324 415.08 85.7807 414.754H88.2075C88.1673 415.462 87.9741 416.086 87.628 416.625C87.2859 417.16 86.813 417.579 86.2093 417.881C85.6056 418.183 84.8912 418.333 84.0662 418.333ZM93.8929 418.333C92.9391 418.333 92.1181 418.14 91.4299 417.754C90.7457 417.364 90.2185 416.812 89.8482 416.1C89.4779 415.383 89.2928 414.536 89.2928 413.558C89.2928 412.604 89.4779 411.767 89.8482 411.047C90.2185 410.326 90.7397 409.765 91.4118 409.363C92.0879 408.96 92.8808 408.759 93.7903 408.759C94.4021 408.759 94.9715 408.857 95.4988 409.055C96.03 409.248 96.4929 409.54 96.8873 409.93C97.2857 410.32 97.5956 410.811 97.817 411.403C98.0383 411.991 98.149 412.679 98.149 413.468V414.174H90.3191V412.58H95.7282C95.7282 412.21 95.6477 411.882 95.4867 411.596C95.3257 411.31 95.1023 411.087 94.8166 410.926C94.5349 410.761 94.2069 410.679 93.8326 410.679C93.4422 410.679 93.0961 410.769 92.7942 410.95C92.4964 411.127 92.263 411.367 92.0939 411.669C91.9249 411.967 91.8384 412.299 91.8344 412.665V414.18C91.8344 414.639 91.9189 415.035 92.0879 415.369C92.261 415.703 92.5045 415.961 92.8184 416.142C93.1323 416.323 93.5046 416.414 93.9352 416.414C94.221 416.414 94.4826 416.373 94.72 416.293C94.9575 416.212 95.1607 416.092 95.3297 415.931C95.4988 415.77 95.6276 415.573 95.7161 415.339L98.0947 415.496C97.9739 416.068 97.7264 416.567 97.3521 416.993C96.9818 417.416 96.5029 417.746 95.9153 417.983C95.3317 418.217 94.6576 418.333 93.8929 418.333ZM102.212 412.792V418.152H99.6403V408.88H102.091V410.516H102.2C102.405 409.976 102.749 409.55 103.232 409.236C103.715 408.918 104.301 408.759 104.989 408.759C105.633 408.759 106.194 408.9 106.673 409.181C107.152 409.463 107.524 409.866 107.79 410.389C108.056 410.908 108.189 411.528 108.189 412.248V418.152H105.617V412.707C105.621 412.14 105.476 411.697 105.182 411.379C104.888 411.057 104.484 410.896 103.969 410.896C103.623 410.896 103.317 410.97 103.051 411.119C102.79 411.268 102.584 411.486 102.435 411.771C102.29 412.053 102.216 412.393 102.212 412.792ZM114.961 408.88V410.811H109.376V408.88H114.961ZM110.644 406.658H113.216V415.303C113.216 415.54 113.252 415.725 113.325 415.858C113.397 415.987 113.498 416.078 113.626 416.13C113.759 416.182 113.912 416.208 114.085 416.208C114.206 416.208 114.327 416.198 114.447 416.178C114.568 416.154 114.661 416.136 114.725 416.124L115.13 418.038C115.001 418.078 114.82 418.124 114.586 418.176C114.353 418.233 114.069 418.267 113.735 418.279C113.115 418.303 112.572 418.221 112.105 418.032C111.642 417.842 111.282 417.549 111.025 417.15C110.767 416.752 110.64 416.249 110.644 415.641V406.658ZM116.449 418.152V408.88H118.942V410.498H119.039C119.208 409.922 119.491 409.487 119.89 409.194C120.288 408.896 120.747 408.747 121.266 408.747C121.395 408.747 121.534 408.755 121.683 408.771C121.832 408.787 121.963 408.809 122.075 408.837V411.119C121.955 411.083 121.788 411.051 121.574 411.023C121.361 410.995 121.166 410.98 120.989 410.98C120.61 410.98 120.272 411.063 119.974 411.228C119.681 411.389 119.447 411.614 119.274 411.904C119.105 412.194 119.021 412.528 119.021 412.906V418.152H116.449ZM125.596 418.327C125.005 418.327 124.478 418.225 124.015 418.02C123.552 417.81 123.186 417.502 122.916 417.096C122.65 416.685 122.518 416.174 122.518 415.562C122.518 415.047 122.612 414.615 122.801 414.265C122.991 413.914 123.248 413.633 123.574 413.419C123.9 413.206 124.27 413.045 124.685 412.936C125.103 412.828 125.542 412.751 126.001 412.707C126.54 412.651 126.975 412.598 127.305 412.55C127.635 412.498 127.874 412.421 128.023 412.321C128.172 412.22 128.247 412.071 128.247 411.874V411.838C128.247 411.455 128.126 411.16 127.884 410.95C127.647 410.741 127.309 410.636 126.87 410.636C126.407 410.636 126.039 410.739 125.766 410.944C125.492 411.145 125.311 411.399 125.222 411.705L122.844 411.512C122.964 410.948 123.202 410.461 123.556 410.051C123.91 409.636 124.367 409.318 124.926 409.097C125.49 408.872 126.142 408.759 126.882 408.759C127.397 408.759 127.891 408.819 128.361 408.94C128.836 409.061 129.257 409.248 129.623 409.501C129.993 409.755 130.285 410.081 130.498 410.479C130.712 410.874 130.818 411.347 130.818 411.898V418.152H128.379V416.866H128.307C128.158 417.156 127.959 417.412 127.709 417.633C127.46 417.85 127.16 418.022 126.81 418.146C126.46 418.267 126.055 418.327 125.596 418.327ZM126.333 416.553C126.711 416.553 127.045 416.478 127.335 416.329C127.625 416.176 127.852 415.971 128.017 415.713C128.182 415.456 128.265 415.164 128.265 414.838V413.854C128.184 413.906 128.074 413.955 127.933 413.999C127.796 414.039 127.641 414.077 127.468 414.114C127.295 414.146 127.122 414.176 126.949 414.204C126.776 414.228 126.619 414.25 126.478 414.271C126.176 414.315 125.912 414.385 125.687 414.482C125.462 414.578 125.287 414.709 125.162 414.874C125.037 415.035 124.975 415.237 124.975 415.478C124.975 415.828 125.101 416.096 125.355 416.281C125.613 416.462 125.939 416.553 126.333 416.553ZM137.559 408.88V410.811H131.975V408.88H137.559ZM133.242 406.658H135.814V415.303C135.814 415.54 135.85 415.725 135.923 415.858C135.995 415.987 136.096 416.078 136.225 416.13C136.357 416.182 136.51 416.208 136.683 416.208C136.804 416.208 136.925 416.198 137.046 416.178C137.166 416.154 137.259 416.136 137.323 416.124L137.728 418.038C137.599 418.078 137.418 418.124 137.185 418.176C136.951 418.233 136.667 418.267 136.333 418.279C135.714 418.303 135.17 418.221 134.703 418.032C134.241 417.842 133.88 417.549 133.623 417.15C133.365 416.752 133.238 416.249 133.242 415.641V406.658ZM143.173 418.333C142.219 418.333 141.398 418.14 140.71 417.754C140.026 417.364 139.499 416.812 139.129 416.1C138.758 415.383 138.573 414.536 138.573 413.558C138.573 412.604 138.758 411.767 139.129 411.047C139.499 410.326 140.02 409.765 140.692 409.363C141.368 408.96 142.161 408.759 143.071 408.759C143.682 408.759 144.252 408.857 144.779 409.055C145.31 409.248 145.773 409.54 146.168 409.93C146.566 410.32 146.876 410.811 147.097 411.403C147.319 411.991 147.429 412.679 147.429 413.468V414.174H139.599V412.58H145.009C145.009 412.21 144.928 411.882 144.767 411.596C144.606 411.31 144.383 411.087 144.097 410.926C143.815 410.761 143.487 410.679 143.113 410.679C142.723 410.679 142.376 410.769 142.075 410.95C141.777 411.127 141.543 411.367 141.374 411.669C141.205 411.967 141.119 412.299 141.115 412.665V414.18C141.115 414.639 141.199 415.035 141.368 415.369C141.541 415.703 141.785 415.961 142.099 416.142C142.413 416.323 142.785 416.414 143.216 416.414C143.501 416.414 143.763 416.373 144 416.293C144.238 416.212 144.441 416.092 144.61 415.931C144.779 415.77 144.908 415.573 144.996 415.339L147.375 415.496C147.254 416.068 147.007 416.567 146.632 416.993C146.262 417.416 145.783 417.746 145.196 417.983C144.612 418.217 143.938 418.333 143.173 418.333ZM152.337 418.303C151.633 418.303 150.995 418.122 150.424 417.76C149.856 417.394 149.406 416.856 149.072 416.148C148.742 415.436 148.576 414.562 148.576 413.528C148.576 412.466 148.748 411.582 149.09 410.878C149.432 410.17 149.887 409.64 150.454 409.29C151.025 408.936 151.651 408.759 152.331 408.759C152.851 408.759 153.283 408.847 153.629 409.025C153.98 409.198 154.261 409.415 154.475 409.676C154.692 409.934 154.857 410.188 154.97 410.437H155.048V405.789H157.614V418.152H155.078V416.667H154.97C154.849 416.925 154.678 417.18 154.456 417.434C154.239 417.683 153.955 417.891 153.605 418.056C153.259 418.221 152.837 418.303 152.337 418.303ZM153.152 416.257C153.567 416.257 153.917 416.144 154.203 415.919C154.493 415.689 154.714 415.369 154.867 414.959C155.024 414.548 155.102 414.067 155.102 413.516C155.102 412.965 155.026 412.486 154.873 412.079C154.72 411.673 154.499 411.359 154.209 411.137C153.919 410.916 153.567 410.805 153.152 410.805C152.73 410.805 152.374 410.92 152.084 411.15C151.794 411.379 151.575 411.697 151.426 412.103C151.277 412.51 151.203 412.981 151.203 413.516C151.203 414.055 151.277 414.532 151.426 414.947C151.579 415.357 151.798 415.679 152.084 415.913C152.374 416.142 152.73 416.257 153.152 416.257ZM173.678 405.789V418.152H171.421L166.042 410.371H165.951V418.152H163.337V405.789H165.631L170.968 413.564H171.076V405.789H173.678ZM179.792 418.333C178.855 418.333 178.044 418.134 177.36 417.736C176.679 417.333 176.154 416.774 175.784 416.058C175.414 415.337 175.228 414.502 175.228 413.552C175.228 412.594 175.414 411.757 175.784 411.041C176.154 410.32 176.679 409.761 177.36 409.363C178.044 408.96 178.855 408.759 179.792 408.759C180.73 408.759 181.539 408.96 182.219 409.363C182.903 409.761 183.431 410.32 183.801 411.041C184.171 411.757 184.356 412.594 184.356 413.552C184.356 414.502 184.171 415.337 183.801 416.058C183.431 416.774 182.903 417.333 182.219 417.736C181.539 418.134 180.73 418.333 179.792 418.333ZM179.804 416.341C180.231 416.341 180.587 416.221 180.873 415.979C181.159 415.734 181.374 415.4 181.519 414.977C181.668 414.554 181.742 414.073 181.742 413.534C181.742 412.995 181.668 412.514 181.519 412.091C181.374 411.669 181.159 411.335 180.873 411.089C180.587 410.844 180.231 410.721 179.804 410.721C179.374 410.721 179.012 410.844 178.718 411.089C178.428 411.335 178.209 411.669 178.06 412.091C177.915 412.514 177.842 412.995 177.842 413.534C177.842 414.073 177.915 414.554 178.06 414.977C178.209 415.4 178.428 415.734 178.718 415.979C179.012 416.221 179.374 416.341 179.804 416.341ZM189.258 418.303C188.554 418.303 187.916 418.122 187.345 417.76C186.777 417.394 186.327 416.856 185.992 416.148C185.662 415.436 185.497 414.562 185.497 413.528C185.497 412.466 185.668 411.582 186.011 410.878C186.353 410.17 186.807 409.64 187.375 409.29C187.946 408.936 188.572 408.759 189.252 408.759C189.772 408.759 190.204 408.847 190.55 409.025C190.901 409.198 191.182 409.415 191.396 409.676C191.613 409.934 191.778 410.188 191.891 410.437H191.969V405.789H194.535V418.152H191.999V416.667H191.891C191.77 416.925 191.599 417.18 191.377 417.434C191.16 417.683 190.876 417.891 190.526 418.056C190.18 418.221 189.758 418.303 189.258 418.303ZM190.073 416.257C190.488 416.257 190.838 416.144 191.124 415.919C191.414 415.689 191.635 415.369 191.788 414.959C191.945 414.548 192.023 414.067 192.023 413.516C192.023 412.965 191.947 412.486 191.794 412.079C191.641 411.673 191.42 411.359 191.13 411.137C190.84 410.916 190.488 410.805 190.073 410.805C189.651 410.805 189.295 410.92 189.005 411.15C188.715 411.379 188.496 411.697 188.347 412.103C188.198 412.51 188.124 412.981 188.124 413.516C188.124 414.055 188.198 414.532 188.347 414.947C188.5 415.357 188.719 415.679 189.005 415.913C189.295 416.142 189.651 416.257 190.073 416.257ZM200.688 418.333C199.734 418.333 198.913 418.14 198.225 417.754C197.541 417.364 197.014 416.812 196.643 416.1C196.273 415.383 196.088 414.536 196.088 413.558C196.088 412.604 196.273 411.767 196.643 411.047C197.014 410.326 197.535 409.765 198.207 409.363C198.883 408.96 199.676 408.759 200.585 408.759C201.197 408.759 201.767 408.857 202.294 409.055C202.825 409.248 203.288 409.54 203.682 409.93C204.081 410.32 204.391 410.811 204.612 411.403C204.833 411.991 204.944 412.679 204.944 413.468V414.174H197.114V412.58H202.523C202.523 412.21 202.443 411.882 202.282 411.596C202.121 411.31 201.897 411.087 201.612 410.926C201.33 410.761 201.002 410.679 200.628 410.679C200.237 410.679 199.891 410.769 199.589 410.95C199.291 411.127 199.058 411.367 198.889 411.669C198.72 411.967 198.633 412.299 198.629 412.665V414.18C198.629 414.639 198.714 415.035 198.883 415.369C199.056 415.703 199.3 415.961 199.613 416.142C199.927 416.323 200.3 416.414 200.73 416.414C201.016 416.414 201.278 416.373 201.515 416.293C201.753 416.212 201.956 416.092 202.125 415.931C202.294 415.77 202.423 415.573 202.511 415.339L204.89 415.496C204.769 416.068 204.521 416.567 204.147 416.993C203.777 417.416 203.298 417.746 202.71 417.983C202.127 418.217 201.453 418.333 200.688 418.333ZM214.151 411.524L211.796 411.669C211.756 411.467 211.669 411.286 211.537 411.125C211.404 410.96 211.229 410.83 211.011 410.733C210.798 410.632 210.542 410.582 210.245 410.582C209.846 410.582 209.51 410.667 209.236 410.836C208.963 411.001 208.826 411.222 208.826 411.5C208.826 411.721 208.914 411.908 209.092 412.061C209.269 412.214 209.572 412.337 210.003 412.429L211.681 412.767C212.583 412.953 213.255 413.25 213.698 413.661C214.14 414.071 214.362 414.611 214.362 415.279C214.362 415.886 214.183 416.42 213.825 416.879C213.47 417.337 212.983 417.696 212.364 417.953C211.748 418.207 211.037 418.333 210.233 418.333C209.005 418.333 208.027 418.078 207.299 417.567C206.574 417.052 206.15 416.351 206.025 415.466L208.554 415.333C208.631 415.707 208.816 415.993 209.11 416.19C209.403 416.384 209.78 416.48 210.239 416.48C210.689 416.48 211.052 416.394 211.325 416.221C211.603 416.043 211.744 415.816 211.748 415.538C211.744 415.305 211.645 415.114 211.452 414.965C211.259 414.812 210.961 414.695 210.559 414.615L208.953 414.295C208.047 414.114 207.373 413.8 206.93 413.353C206.492 412.906 206.272 412.337 206.272 411.645C206.272 411.049 206.433 410.536 206.755 410.105C207.081 409.674 207.538 409.342 208.126 409.109C208.717 408.876 209.41 408.759 210.202 408.759C211.374 408.759 212.295 409.006 212.967 409.501C213.643 409.996 214.038 410.671 214.151 411.524Z"
        fill="white" />
    <path d="M243.624 406.319L231.958 417.986" stroke="#EF5D13" stroke-width="2" stroke-linecap="round"
        stroke-linejoin="round" />
    <path d="M231.958 406.319L243.624 417.986" stroke="#EF5D13" stroke-width="2" stroke-linecap="round"
        stroke-linejoin="round" />
    <path
        d="M313.272 418.152V405.789H315.886V410.89H321.193V405.789H323.801V418.152H321.193V413.045H315.886V418.152H313.272ZM329.91 418.333C328.972 418.333 328.161 418.134 327.477 417.736C326.797 417.333 326.272 416.774 325.902 416.058C325.531 415.337 325.346 414.502 325.346 413.552C325.346 412.594 325.531 411.757 325.902 411.041C326.272 410.32 326.797 409.761 327.477 409.363C328.161 408.96 328.972 408.759 329.91 408.759C330.848 408.759 331.657 408.96 332.337 409.363C333.021 409.761 333.548 410.32 333.919 411.041C334.289 411.757 334.474 412.594 334.474 413.552C334.474 414.502 334.289 415.337 333.919 416.058C333.548 416.774 333.021 417.333 332.337 417.736C331.657 418.134 330.848 418.333 329.91 418.333ZM329.922 416.341C330.349 416.341 330.705 416.221 330.991 415.979C331.277 415.734 331.492 415.4 331.637 414.977C331.786 414.554 331.86 414.073 331.86 413.534C331.86 412.995 331.786 412.514 331.637 412.091C331.492 411.669 331.277 411.335 330.991 411.089C330.705 410.844 330.349 410.721 329.922 410.721C329.492 410.721 329.129 410.844 328.836 411.089C328.546 411.335 328.326 411.669 328.178 412.091C328.033 412.514 327.96 412.995 327.96 413.534C327.96 414.073 328.033 414.554 328.178 414.977C328.326 415.4 328.546 415.734 328.836 415.979C329.129 416.221 329.492 416.341 329.922 416.341ZM335.959 418.152V408.88H338.41V410.516H338.519C338.712 409.972 339.034 409.544 339.485 409.23C339.936 408.916 340.475 408.759 341.103 408.759C341.739 408.759 342.28 408.918 342.727 409.236C343.173 409.55 343.471 409.976 343.62 410.516H343.717C343.906 409.984 344.248 409.56 344.743 409.242C345.242 408.92 345.832 408.759 346.512 408.759C347.377 408.759 348.079 409.035 348.619 409.586C349.162 410.133 349.434 410.91 349.434 411.916V418.152H346.868V412.423C346.868 411.908 346.731 411.522 346.458 411.264C346.184 411.007 345.842 410.878 345.431 410.878C344.964 410.878 344.6 411.027 344.339 411.325C344.077 411.618 343.946 412.007 343.946 412.49V418.152H341.453V412.369C341.453 411.914 341.322 411.552 341.061 411.282C340.803 411.013 340.463 410.878 340.04 410.878C339.755 410.878 339.497 410.95 339.268 411.095C339.042 411.236 338.863 411.435 338.73 411.693C338.597 411.946 338.531 412.244 338.531 412.586V418.152H335.959ZM355.468 418.333C354.53 418.333 353.719 418.134 353.035 417.736C352.355 417.333 351.83 416.774 351.459 416.058C351.089 415.337 350.904 414.502 350.904 413.552C350.904 412.594 351.089 411.757 351.459 411.041C351.83 410.32 352.355 409.761 353.035 409.363C353.719 408.96 354.53 408.759 355.468 408.759C356.406 408.759 357.214 408.96 357.895 409.363C358.579 409.761 359.106 410.32 359.476 411.041C359.847 411.757 360.032 412.594 360.032 413.552C360.032 414.502 359.847 415.337 359.476 416.058C359.106 416.774 358.579 417.333 357.895 417.736C357.214 418.134 356.406 418.333 355.468 418.333ZM355.48 416.341C355.906 416.341 356.263 416.221 356.548 415.979C356.834 415.734 357.049 415.4 357.194 414.977C357.343 414.554 357.418 414.073 357.418 413.534C357.418 412.995 357.343 412.514 357.194 412.091C357.049 411.669 356.834 411.335 356.548 411.089C356.263 410.844 355.906 410.721 355.48 410.721C355.049 410.721 354.687 410.844 354.393 411.089C354.103 411.335 353.884 411.669 353.735 412.091C353.59 412.514 353.518 412.995 353.518 413.534C353.518 414.073 353.59 414.554 353.735 414.977C353.884 415.4 354.103 415.734 354.393 415.979C354.687 416.221 355.049 416.341 355.48 416.341ZM365.695 421.823C364.861 421.823 364.147 421.708 363.551 421.479C362.96 421.253 362.489 420.945 362.139 420.555C361.789 420.165 361.561 419.726 361.457 419.239L363.835 418.919C363.908 419.104 364.022 419.277 364.179 419.438C364.336 419.599 364.543 419.728 364.801 419.825C365.063 419.925 365.381 419.975 365.755 419.975C366.314 419.975 366.775 419.839 367.137 419.565C367.504 419.295 367.687 418.843 367.687 418.207V416.51H367.578C367.465 416.768 367.296 417.011 367.071 417.241C366.846 417.47 366.556 417.657 366.202 417.802C365.847 417.947 365.425 418.02 364.934 418.02C364.238 418.02 363.604 417.859 363.032 417.537C362.465 417.211 362.012 416.714 361.674 416.045C361.34 415.373 361.173 414.524 361.173 413.498C361.173 412.447 361.344 411.57 361.686 410.866C362.028 410.161 362.483 409.634 363.05 409.284C363.622 408.934 364.248 408.759 364.928 408.759C365.447 408.759 365.882 408.847 366.232 409.025C366.582 409.198 366.864 409.415 367.077 409.676C367.294 409.934 367.461 410.188 367.578 410.437H367.675V408.88H370.228V418.243C370.228 419.032 370.035 419.692 369.649 420.223C369.262 420.754 368.727 421.153 368.043 421.418C367.363 421.688 366.58 421.823 365.695 421.823ZM365.749 416.088C366.163 416.088 366.514 415.985 366.799 415.78C367.089 415.571 367.31 415.273 367.463 414.886C367.62 414.496 367.699 414.029 367.699 413.486C367.699 412.942 367.622 412.472 367.469 412.073C367.316 411.671 367.095 411.359 366.805 411.137C366.516 410.916 366.163 410.805 365.749 410.805C365.326 410.805 364.97 410.92 364.68 411.15C364.391 411.375 364.171 411.689 364.022 412.091C363.873 412.494 363.799 412.959 363.799 413.486C363.799 414.021 363.873 414.484 364.022 414.874C364.175 415.261 364.395 415.56 364.68 415.774C364.97 415.983 365.326 416.088 365.749 416.088ZM376.314 418.333C375.36 418.333 374.539 418.14 373.851 417.754C373.166 417.364 372.639 416.812 372.269 416.1C371.899 415.383 371.713 414.536 371.713 413.558C371.713 412.604 371.899 411.767 372.269 411.047C372.639 410.326 373.16 409.765 373.832 409.363C374.509 408.96 375.301 408.759 376.211 408.759C376.823 408.759 377.392 408.857 377.919 409.055C378.451 409.248 378.914 409.54 379.308 409.93C379.706 410.32 380.016 410.811 380.238 411.403C380.459 411.991 380.57 412.679 380.57 413.468V414.174H372.74V412.58H378.149C378.149 412.21 378.068 411.882 377.907 411.596C377.746 411.31 377.523 411.087 377.237 410.926C376.956 410.761 376.628 410.679 376.253 410.679C375.863 410.679 375.517 410.769 375.215 410.95C374.917 411.127 374.684 411.367 374.515 411.669C374.346 411.967 374.259 412.299 374.255 412.665V414.18C374.255 414.639 374.34 415.035 374.509 415.369C374.682 415.703 374.925 415.961 375.239 416.142C375.553 416.323 375.925 416.414 376.356 416.414C376.642 416.414 376.903 416.373 377.141 416.293C377.378 416.212 377.581 416.092 377.75 415.931C377.919 415.77 378.048 415.573 378.137 415.339L380.515 415.496C380.395 416.068 380.147 416.567 379.773 416.993C379.403 417.416 378.924 417.746 378.336 417.983C377.752 418.217 377.078 418.333 376.314 418.333ZM384.633 412.792V418.152H382.061V408.88H384.512V410.516H384.621C384.826 409.976 385.17 409.55 385.653 409.236C386.136 408.918 386.721 408.759 387.41 408.759C388.054 408.759 388.615 408.9 389.094 409.181C389.573 409.463 389.945 409.866 390.211 410.389C390.476 410.908 390.609 411.528 390.609 412.248V418.152H388.037V412.707C388.042 412.14 387.897 411.697 387.603 411.379C387.309 411.057 386.905 410.896 386.389 410.896C386.043 410.896 385.737 410.97 385.472 411.119C385.21 411.268 385.005 411.486 384.856 411.771C384.711 412.053 384.637 412.393 384.633 412.792ZM396.675 418.333C395.721 418.333 394.9 418.14 394.212 417.754C393.528 417.364 393 416.812 392.63 416.1C392.26 415.383 392.075 414.536 392.075 413.558C392.075 412.604 392.26 411.767 392.63 411.047C393 410.326 393.522 409.765 394.194 409.363C394.87 408.96 395.663 408.759 396.572 408.759C397.184 408.759 397.754 408.857 398.281 409.055C398.812 409.248 399.275 409.54 399.669 409.93C400.068 410.32 400.378 410.811 400.599 411.403C400.82 411.991 400.931 412.679 400.931 413.468V414.174H393.101V412.58H398.51C398.51 412.21 398.43 411.882 398.269 411.596C398.108 411.31 397.884 411.087 397.599 410.926C397.317 410.761 396.989 410.679 396.615 410.679C396.224 410.679 395.878 410.769 395.576 410.95C395.278 411.127 395.045 411.367 394.876 411.669C394.707 411.967 394.62 412.299 394.616 412.665V414.18C394.616 414.639 394.701 415.035 394.87 415.369C395.043 415.703 395.286 415.961 395.6 416.142C395.914 416.323 396.287 416.414 396.717 416.414C397.003 416.414 397.265 416.373 397.502 416.293C397.739 416.212 397.943 416.092 398.112 415.931C398.281 415.77 398.41 415.573 398.498 415.339L400.877 415.496C400.756 416.068 400.508 416.567 400.134 416.993C399.764 417.416 399.285 417.746 398.697 417.983C398.114 418.217 397.44 418.333 396.675 418.333ZM406.612 418.333C405.674 418.333 404.863 418.134 404.179 417.736C403.499 417.333 402.974 416.774 402.603 416.058C402.233 415.337 402.048 414.502 402.048 413.552C402.048 412.594 402.233 411.757 402.603 411.041C402.974 410.32 403.499 409.761 404.179 409.363C404.863 408.96 405.674 408.759 406.612 408.759C407.55 408.759 408.359 408.96 409.039 409.363C409.723 409.761 410.25 410.32 410.62 411.041C410.991 411.757 411.176 412.594 411.176 413.552C411.176 414.502 410.991 415.337 410.62 416.058C410.25 416.774 409.723 417.333 409.039 417.736C408.359 418.134 407.55 418.333 406.612 418.333ZM406.624 416.341C407.051 416.341 407.407 416.221 407.693 415.979C407.978 415.734 408.194 415.4 408.338 414.977C408.487 414.554 408.562 414.073 408.562 413.534C408.562 412.995 408.487 412.514 408.338 412.091C408.194 411.669 407.978 411.335 407.693 411.089C407.407 410.844 407.051 410.721 406.624 410.721C406.193 410.721 405.831 410.844 405.537 411.089C405.248 411.335 405.028 411.669 404.879 412.091C404.734 412.514 404.662 412.995 404.662 413.534C404.662 414.073 404.734 414.554 404.879 414.977C405.028 415.4 405.248 415.734 405.537 415.979C405.831 416.221 406.193 416.341 406.624 416.341ZM418.607 414.204V408.88H421.179V418.152H418.71V416.468H418.613C418.404 417.011 418.056 417.448 417.569 417.778C417.086 418.108 416.497 418.273 415.8 418.273C415.18 418.273 414.635 418.132 414.164 417.85C413.693 417.569 413.325 417.168 413.059 416.649C412.798 416.13 412.665 415.508 412.661 414.784V408.88H415.233V414.325C415.237 414.872 415.384 415.305 415.673 415.623C415.963 415.941 416.352 416.1 416.839 416.1C417.149 416.1 417.438 416.029 417.708 415.888C417.978 415.744 418.195 415.53 418.36 415.249C418.529 414.967 418.611 414.619 418.607 414.204ZM430.764 411.524L428.41 411.669C428.37 411.467 428.283 411.286 428.15 411.125C428.018 410.96 427.843 410.83 427.625 410.733C427.412 410.632 427.156 410.582 426.859 410.582C426.46 410.582 426.124 410.667 425.85 410.836C425.577 411.001 425.44 411.222 425.44 411.5C425.44 411.721 425.528 411.908 425.706 412.061C425.883 412.214 426.186 412.337 426.617 412.429L428.295 412.767C429.197 412.953 429.869 413.25 430.312 413.661C430.754 414.071 430.976 414.611 430.976 415.279C430.976 415.886 430.797 416.42 430.438 416.879C430.084 417.337 429.597 417.696 428.978 417.953C428.362 418.207 427.651 418.333 426.846 418.333C425.619 418.333 424.641 418.078 423.913 417.567C423.188 417.052 422.764 416.351 422.639 415.466L425.168 415.333C425.245 415.707 425.43 415.993 425.724 416.19C426.017 416.384 426.394 416.48 426.853 416.48C427.303 416.48 427.665 416.394 427.939 416.221C428.217 416.043 428.358 415.816 428.362 415.538C428.358 415.305 428.259 415.114 428.066 414.965C427.873 414.812 427.575 414.695 427.172 414.615L425.567 414.295C424.661 414.114 423.987 413.8 423.544 413.353C423.106 412.906 422.886 412.337 422.886 411.645C422.886 411.049 423.047 410.536 423.369 410.105C423.695 409.674 424.152 409.342 424.74 409.109C425.331 408.876 426.023 408.759 426.816 408.759C427.987 408.759 428.909 409.006 429.581 409.501C430.257 409.996 430.652 410.671 430.764 411.524ZM446.545 405.789V418.152H444.287L438.909 410.371H438.818V418.152H436.204V405.789H438.498L443.835 413.564H443.943V405.789H446.545ZM452.659 418.333C451.722 418.333 450.911 418.134 450.226 417.736C449.546 417.333 449.021 416.774 448.651 416.058C448.281 415.337 448.095 414.502 448.095 413.552C448.095 412.594 448.281 411.757 448.651 411.041C449.021 410.32 449.546 409.761 450.226 409.363C450.911 408.96 451.722 408.759 452.659 408.759C453.597 408.759 454.406 408.96 455.086 409.363C455.77 409.761 456.298 410.32 456.668 411.041C457.038 411.757 457.223 412.594 457.223 413.552C457.223 414.502 457.038 415.337 456.668 416.058C456.298 416.774 455.77 417.333 455.086 417.736C454.406 418.134 453.597 418.333 452.659 418.333ZM452.671 416.341C453.098 416.341 453.454 416.221 453.74 415.979C454.026 415.734 454.241 415.4 454.386 414.977C454.535 414.554 454.609 414.073 454.609 413.534C454.609 412.995 454.535 412.514 454.386 412.091C454.241 411.669 454.026 411.335 453.74 411.089C453.454 410.844 453.098 410.721 452.671 410.721C452.241 410.721 451.879 410.844 451.585 411.089C451.295 411.335 451.076 411.669 450.927 412.091C450.782 412.514 450.709 412.995 450.709 413.534C450.709 414.073 450.782 414.554 450.927 414.977C451.076 415.4 451.295 415.734 451.585 415.979C451.879 416.221 452.241 416.341 452.671 416.341ZM462.125 418.303C461.421 418.303 460.783 418.122 460.212 417.76C459.644 417.394 459.193 416.856 458.859 416.148C458.529 415.436 458.364 414.562 458.364 413.528C458.364 412.466 458.535 411.582 458.878 410.878C459.22 410.17 459.674 409.64 460.242 409.29C460.813 408.936 461.439 408.759 462.119 408.759C462.639 408.759 463.071 408.847 463.417 409.025C463.767 409.198 464.049 409.415 464.262 409.676C464.48 409.934 464.645 410.188 464.757 410.437H464.836V405.789H467.402V418.152H464.866V416.667H464.757C464.637 416.925 464.466 417.18 464.244 417.434C464.027 417.683 463.743 417.891 463.393 418.056C463.047 418.221 462.624 418.303 462.125 418.303ZM462.94 416.257C463.355 416.257 463.705 416.144 463.991 415.919C464.281 415.689 464.502 415.369 464.655 414.959C464.812 414.548 464.89 414.067 464.89 413.516C464.89 412.965 464.814 412.486 464.661 412.079C464.508 411.673 464.287 411.359 463.997 411.137C463.707 410.916 463.355 410.805 462.94 410.805C462.518 410.805 462.162 410.92 461.872 411.15C461.582 411.379 461.363 411.697 461.214 412.103C461.065 412.51 460.99 412.981 460.99 413.516C460.99 414.055 461.065 414.532 461.214 414.947C461.367 415.357 461.586 415.679 461.872 415.913C462.162 416.142 462.518 416.257 462.94 416.257ZM473.555 418.333C472.601 418.333 471.78 418.14 471.092 417.754C470.408 417.364 469.88 416.812 469.51 416.1C469.14 415.383 468.955 414.536 468.955 413.558C468.955 412.604 469.14 411.767 469.51 411.047C469.88 410.326 470.402 409.765 471.074 409.363C471.75 408.96 472.543 408.759 473.452 408.759C474.064 408.759 474.634 408.857 475.161 409.055C475.692 409.248 476.155 409.54 476.549 409.93C476.948 410.32 477.258 410.811 477.479 411.403C477.7 411.991 477.811 412.679 477.811 413.468V414.174H469.981V412.58H475.39C475.39 412.21 475.31 411.882 475.149 411.596C474.988 411.31 474.764 411.087 474.479 410.926C474.197 410.761 473.869 410.679 473.495 410.679C473.104 410.679 472.758 410.769 472.456 410.95C472.158 411.127 471.925 411.367 471.756 411.669C471.587 411.967 471.5 412.299 471.496 412.665V414.18C471.496 414.639 471.581 415.035 471.75 415.369C471.923 415.703 472.166 415.961 472.48 416.142C472.794 416.323 473.167 416.414 473.597 416.414C473.883 416.414 474.145 416.373 474.382 416.293C474.619 416.212 474.823 416.092 474.992 415.931C475.161 415.77 475.29 415.573 475.378 415.339L477.757 415.496C477.636 416.068 477.388 416.567 477.014 416.993C476.644 417.416 476.165 417.746 475.577 417.983C474.994 418.217 474.32 418.333 473.555 418.333ZM487.017 411.524L484.663 411.669C484.623 411.467 484.536 411.286 484.403 411.125C484.271 410.96 484.096 410.83 483.878 410.733C483.665 410.632 483.409 410.582 483.112 410.582C482.713 410.582 482.377 410.667 482.103 410.836C481.83 411.001 481.693 411.222 481.693 411.5C481.693 411.721 481.781 411.908 481.958 412.061C482.136 412.214 482.439 412.337 482.87 412.429L484.548 412.767C485.45 412.953 486.122 413.25 486.565 413.661C487.007 414.071 487.229 414.611 487.229 415.279C487.229 415.886 487.05 416.42 486.691 416.879C486.337 417.337 485.85 417.696 485.231 417.953C484.615 418.207 483.904 418.333 483.099 418.333C481.872 418.333 480.894 418.078 480.166 417.567C479.441 417.052 479.017 416.351 478.892 415.466L481.421 415.333C481.498 415.707 481.683 415.993 481.977 416.19C482.27 416.384 482.647 416.48 483.106 416.48C483.556 416.48 483.918 416.394 484.192 416.221C484.47 416.043 484.611 415.816 484.615 415.538C484.611 415.305 484.512 415.114 484.319 414.965C484.126 414.812 483.828 414.695 483.425 414.615L481.82 414.295C480.914 414.114 480.24 413.8 479.797 413.353C479.359 412.906 479.139 412.337 479.139 411.645C479.139 411.049 479.3 410.536 479.622 410.105C479.948 409.674 480.405 409.342 480.993 409.109C481.584 408.876 482.276 408.759 483.069 408.759C484.24 408.759 485.162 409.006 485.834 409.501C486.51 409.996 486.905 410.671 487.017 411.524Z"
        fill="white" />
    <path d="M516.343 406.319L504.677 417.986" stroke="#EF5D13" stroke-width="2" stroke-linecap="round"
        stroke-linejoin="round" />
    <path d="M504.676 406.319L516.343 417.986" stroke="#EF5D13" stroke-width="2" stroke-linecap="round"
        stroke-linejoin="round" />
    <path
        d="M611.7 418.152H607.318V405.789H611.737C612.98 405.789 614.051 406.036 614.948 406.531C615.846 407.022 616.536 407.729 617.019 408.65C617.506 409.572 617.749 410.675 617.749 411.958C617.749 413.246 617.506 414.353 617.019 415.279C616.536 416.204 615.842 416.915 614.936 417.41C614.035 417.905 612.956 418.152 611.7 418.152ZM609.932 415.913H611.592C612.365 415.913 613.015 415.776 613.542 415.502C614.073 415.224 614.471 414.796 614.737 414.216C615.007 413.633 615.142 412.88 615.142 411.958C615.142 411.045 615.007 410.298 614.737 409.719C614.471 409.139 614.075 408.713 613.548 408.439C613.021 408.165 612.371 408.028 611.598 408.028H609.932V415.913ZM619.451 418.152V408.88H622.022V418.152H619.451ZM620.742 407.684C620.36 407.684 620.032 407.558 619.758 407.304C619.489 407.046 619.354 406.739 619.354 406.38C619.354 406.026 619.489 405.722 619.758 405.469C620.032 405.211 620.36 405.082 620.742 405.082C621.125 405.082 621.451 405.211 621.72 405.469C621.994 405.722 622.131 406.026 622.131 406.38C622.131 406.739 621.994 407.046 621.72 407.304C621.451 407.558 621.125 407.684 620.742 407.684ZM632.54 408.88L629.298 418.152H626.401L623.159 408.88H625.875L627.801 415.514H627.898L629.818 408.88H632.54ZM637.596 418.333C636.642 418.333 635.821 418.14 635.133 417.754C634.449 417.364 633.922 416.812 633.552 416.1C633.181 415.383 632.996 414.536 632.996 413.558C632.996 412.604 633.181 411.767 633.552 411.047C633.922 410.326 634.443 409.765 635.115 409.363C635.791 408.96 636.584 408.759 637.494 408.759C638.105 408.759 638.675 408.857 639.202 409.055C639.733 409.248 640.196 409.54 640.591 409.93C640.989 410.32 641.299 410.811 641.52 411.403C641.742 411.991 641.852 412.679 641.852 413.468V414.174H634.022V412.58H639.432C639.432 412.21 639.351 411.882 639.19 411.596C639.029 411.31 638.806 411.087 638.52 410.926C638.238 410.761 637.91 410.679 637.536 410.679C637.146 410.679 636.799 410.769 636.498 410.95C636.2 411.127 635.966 411.367 635.797 411.669C635.628 411.967 635.542 412.299 635.538 412.665V414.18C635.538 414.639 635.622 415.035 635.791 415.369C635.964 415.703 636.208 415.961 636.522 416.142C636.836 416.323 637.208 416.414 637.639 416.414C637.924 416.414 638.186 416.373 638.423 416.293C638.661 416.212 638.864 416.092 639.033 415.931C639.202 415.77 639.331 415.573 639.419 415.339L641.798 415.496C641.677 416.068 641.43 416.567 641.055 416.993C640.685 417.416 640.206 417.746 639.619 417.983C639.035 418.217 638.361 418.333 637.596 418.333ZM643.344 418.152V408.88H645.837V410.498H645.933C646.103 409.922 646.386 409.487 646.785 409.194C647.183 408.896 647.642 408.747 648.161 408.747C648.29 408.747 648.429 408.755 648.578 408.771C648.727 408.787 648.857 408.809 648.97 408.837V411.119C648.849 411.083 648.682 411.051 648.469 411.023C648.256 410.995 648.06 410.98 647.883 410.98C647.505 410.98 647.167 411.063 646.869 411.228C646.575 411.389 646.342 411.614 646.169 411.904C646 412.194 645.915 412.528 645.915 412.906V418.152H643.344ZM657.828 411.524L655.473 411.669C655.433 411.467 655.347 411.286 655.214 411.125C655.081 410.96 654.906 410.83 654.689 410.733C654.475 410.632 654.22 410.582 653.922 410.582C653.524 410.582 653.188 410.667 652.914 410.836C652.64 411.001 652.503 411.222 652.503 411.5C652.503 411.721 652.592 411.908 652.769 412.061C652.946 412.214 653.25 412.337 653.681 412.429L655.359 412.767C656.26 412.953 656.932 413.25 657.375 413.661C657.818 414.071 658.039 414.611 658.039 415.279C658.039 415.886 657.86 416.42 657.502 416.879C657.148 417.337 656.661 417.696 656.041 417.953C655.425 418.207 654.715 418.333 653.91 418.333C652.682 418.333 651.704 418.078 650.976 417.567C650.252 417.052 649.827 416.351 649.702 415.466L652.232 415.333C652.308 415.707 652.493 415.993 652.787 416.19C653.081 416.384 653.457 416.48 653.916 416.48C654.367 416.48 654.729 416.394 655.003 416.221C655.28 416.043 655.421 415.816 655.425 415.538C655.421 415.305 655.323 415.114 655.129 414.965C654.936 414.812 654.638 414.695 654.236 414.615L652.63 414.295C651.725 414.114 651.05 413.8 650.608 413.353C650.169 412.906 649.95 412.337 649.95 411.645C649.95 411.049 650.111 410.536 650.433 410.105C650.759 409.674 651.215 409.342 651.803 409.109C652.395 408.876 653.087 408.759 653.88 408.759C655.051 408.759 655.973 409.006 656.645 409.501C657.321 409.996 657.715 410.671 657.828 411.524ZM663.697 418.333C662.744 418.333 661.923 418.14 661.234 417.754C660.55 417.364 660.023 416.812 659.653 416.1C659.282 415.383 659.097 414.536 659.097 413.558C659.097 412.604 659.282 411.767 659.653 411.047C660.023 410.326 660.544 409.765 661.216 409.363C661.892 408.96 662.685 408.759 663.595 408.759C664.207 408.759 664.776 408.857 665.303 409.055C665.835 409.248 666.297 409.54 666.692 409.93C667.09 410.32 667.4 410.811 667.621 411.403C667.843 411.991 667.953 412.679 667.953 413.468V414.174H660.124V412.58H665.533C665.533 412.21 665.452 411.882 665.291 411.596C665.13 411.31 664.907 411.087 664.621 410.926C664.339 410.761 664.011 410.679 663.637 410.679C663.247 410.679 662.901 410.769 662.599 410.95C662.301 411.127 662.067 411.367 661.898 411.669C661.729 411.967 661.643 412.299 661.639 412.665V414.18C661.639 414.639 661.723 415.035 661.892 415.369C662.065 415.703 662.309 415.961 662.623 416.142C662.937 416.323 663.309 416.414 663.74 416.414C664.025 416.414 664.287 416.373 664.525 416.293C664.762 416.212 664.965 416.092 665.134 415.931C665.303 415.77 665.432 415.573 665.521 415.339L667.899 415.496C667.778 416.068 667.531 416.567 667.157 416.993C666.786 417.416 666.307 417.746 665.72 417.983C665.136 418.217 664.462 418.333 663.697 418.333ZM683.582 405.789V418.152H681.324L675.945 410.371H675.855V418.152H673.241V405.789H675.535L680.871 413.564H680.98V405.789H683.582ZM689.696 418.333C688.758 418.333 687.947 418.134 687.263 417.736C686.583 417.333 686.058 416.774 685.687 416.058C685.317 415.337 685.132 414.502 685.132 413.552C685.132 412.594 685.317 411.757 685.687 411.041C686.058 410.32 686.583 409.761 687.263 409.363C687.947 408.96 688.758 408.759 689.696 408.759C690.634 408.759 691.443 408.96 692.123 409.363C692.807 409.761 693.334 410.32 693.704 411.041C694.075 411.757 694.26 412.594 694.26 413.552C694.26 414.502 694.075 415.337 693.704 416.058C693.334 416.774 692.807 417.333 692.123 417.736C691.443 418.134 690.634 418.333 689.696 418.333ZM689.708 416.341C690.135 416.341 690.491 416.221 690.777 415.979C691.062 415.734 691.278 415.4 691.422 414.977C691.571 414.554 691.646 414.073 691.646 413.534C691.646 412.995 691.571 412.514 691.422 412.091C691.278 411.669 691.062 411.335 690.777 411.089C690.491 410.844 690.135 410.721 689.708 410.721C689.277 410.721 688.915 410.844 688.621 411.089C688.332 411.335 688.112 411.669 687.963 412.091C687.818 412.514 687.746 412.995 687.746 413.534C687.746 414.073 687.818 414.554 687.963 414.977C688.112 415.4 688.332 415.734 688.621 415.979C688.915 416.221 689.277 416.341 689.708 416.341ZM699.162 418.303C698.458 418.303 697.82 418.122 697.248 417.76C696.681 417.394 696.23 416.856 695.896 416.148C695.566 415.436 695.401 414.562 695.401 413.528C695.401 412.466 695.572 411.582 695.914 410.878C696.256 410.17 696.711 409.64 697.278 409.29C697.85 408.936 698.476 408.759 699.156 408.759C699.675 408.759 700.108 408.847 700.454 409.025C700.804 409.198 701.086 409.415 701.299 409.676C701.516 409.934 701.681 410.188 701.794 410.437H701.873V405.789H704.438V418.152H701.903V416.667H701.794C701.673 416.925 701.502 417.18 701.281 417.434C701.064 417.683 700.78 417.891 700.43 418.056C700.084 418.221 699.661 418.303 699.162 418.303ZM699.977 416.257C700.391 416.257 700.742 416.144 701.027 415.919C701.317 415.689 701.539 415.369 701.691 414.959C701.848 414.548 701.927 414.067 701.927 413.516C701.927 412.965 701.85 412.486 701.697 412.079C701.545 411.673 701.323 411.359 701.033 411.137C700.744 410.916 700.391 410.805 699.977 410.805C699.554 410.805 699.198 410.92 698.908 411.15C698.619 411.379 698.399 411.697 698.25 412.103C698.101 412.51 698.027 412.981 698.027 413.516C698.027 414.055 698.101 414.532 698.25 414.947C698.403 415.357 698.623 415.679 698.908 415.913C699.198 416.142 699.554 416.257 699.977 416.257ZM710.592 418.333C709.638 418.333 708.817 418.14 708.128 417.754C707.444 417.364 706.917 416.812 706.547 416.1C706.177 415.383 705.991 414.536 705.991 413.558C705.991 412.604 706.177 411.767 706.547 411.047C706.917 410.326 707.438 409.765 708.11 409.363C708.787 408.96 709.579 408.759 710.489 408.759C711.101 408.759 711.67 408.857 712.197 409.055C712.729 409.248 713.191 409.54 713.586 409.93C713.984 410.32 714.294 410.811 714.516 411.403C714.737 411.991 714.848 412.679 714.848 413.468V414.174H707.018V412.58H712.427C712.427 412.21 712.346 411.882 712.185 411.596C712.024 411.31 711.801 411.087 711.515 410.926C711.233 410.761 710.905 410.679 710.531 410.679C710.141 410.679 709.795 410.769 709.493 410.95C709.195 411.127 708.962 411.367 708.793 411.669C708.624 411.967 708.537 412.299 708.533 412.665V414.18C708.533 414.639 708.617 415.035 708.787 415.369C708.96 415.703 709.203 415.961 709.517 416.142C709.831 416.323 710.203 416.414 710.634 416.414C710.92 416.414 711.181 416.373 711.419 416.293C711.656 416.212 711.859 416.092 712.028 415.931C712.197 415.77 712.326 415.573 712.415 415.339L714.793 415.496C714.673 416.068 714.425 416.567 714.051 416.993C713.68 417.416 713.202 417.746 712.614 417.983C712.03 418.217 711.356 418.333 710.592 418.333ZM724.054 411.524L721.7 411.669C721.659 411.467 721.573 411.286 721.44 411.125C721.307 410.96 721.132 410.83 720.915 410.733C720.702 410.632 720.446 410.582 720.148 410.582C719.75 410.582 719.414 410.667 719.14 410.836C718.866 411.001 718.729 411.222 718.729 411.5C718.729 411.721 718.818 411.908 718.995 412.061C719.172 412.214 719.476 412.337 719.907 412.429L721.585 412.767C722.486 412.953 723.159 413.25 723.601 413.661C724.044 414.071 724.265 414.611 724.265 415.279C724.265 415.886 724.086 416.42 723.728 416.879C723.374 417.337 722.887 417.696 722.267 417.953C721.651 418.207 720.941 418.333 720.136 418.333C718.909 418.333 717.931 418.078 717.202 417.567C716.478 417.052 716.053 416.351 715.928 415.466L718.458 415.333C718.534 415.707 718.719 415.993 719.013 416.19C719.307 416.384 719.683 416.48 720.142 416.48C720.593 416.48 720.955 416.394 721.229 416.221C721.506 416.043 721.647 415.816 721.651 415.538C721.647 415.305 721.549 415.114 721.356 414.965C721.162 414.812 720.865 414.695 720.462 414.615L718.856 414.295C717.951 414.114 717.277 413.8 716.834 413.353C716.395 412.906 716.176 412.337 716.176 411.645C716.176 411.049 716.337 410.536 716.659 410.105C716.985 409.674 717.442 409.342 718.029 409.109C718.621 408.876 719.313 408.759 720.106 408.759C721.277 408.759 722.199 409.006 722.871 409.501C723.547 409.996 723.941 410.671 724.054 411.524Z"
        fill="white" />
    <path d="M741.717 412.152L746.092 416.527L753.384 407.777" stroke="#EF5D13" stroke-width="2"
        stroke-linecap="round" />
    <line x1="648.998" y1="288.437" x2="669.09" y2="353.972" stroke="#949494" stroke-width="0.8" />
    <line x1="624.793" y1="309.221" x2="668.712" y2="309.221" stroke="#949494" stroke-width="0.8" />
    <line x1="668.708" y1="309.649" x2="712.626" y2="309.92" stroke="#949494" stroke-width="0.8" />
    <line x1="648.061" y1="330.885" x2="668.325" y2="268.969" stroke="#949494" stroke-width="0.8" />
    <line x1="669.668" y1="268.526" x2="670.779" y2="354.084" stroke="#949494" stroke-width="0.8" />
    <line x1="627.493" y1="310.93" x2="690.535" y2="290.666" stroke="#949494" stroke-width="0.8" />
    <line x1="649.011" y1="330.047" x2="688.976" y2="330.61" stroke="#949494" stroke-width="0.8" />
    <line x1="670.579" y1="353.957" x2="691.968" y2="292.041" stroke="#949494" stroke-width="0.8" />
    <line x1="670.721" y1="267.118" x2="689.964" y2="328.24" stroke="#949494" stroke-width="0.8" />
    <line x1="693.655" y1="326.94" x2="713.154" y2="270.582" stroke="#949494" stroke-width="0.8" />
    <line x1="649.699" y1="288.417" x2="709.927" y2="309.243" stroke="#949494" stroke-width="0.8" />
    <line x1="671.702" y1="304.43" x2="690.84" y2="245.891" stroke="#949494" stroke-width="0.8" />
    <line x1="693.655" y1="282.473" x2="712.23" y2="228.437" stroke="#949494" stroke-width="0.8" />
    <line x1="649.568" y1="286.705" x2="685.593" y2="286.705" stroke="#949494" stroke-width="0.8" />
    <line x1="697.977" y1="287.27" x2="728.935" y2="287.27" stroke="#949494" stroke-width="0.8" />
    <line x1="560.351" y1="242.355" x2="666.735" y2="136.534" stroke="#949494" stroke-width="0.8" />
    <line x1="584.555" y1="262.057" x2="687.562" y2="160.738" stroke="#949494" stroke-width="0.8" />
    <line x1="605.384" y1="285.693" x2="708.39" y2="184.375" stroke="#949494" stroke-width="0.8" />
    <line x1="629.022" y1="305.961" x2="732.029" y2="204.643" stroke="#949494" stroke-width="0.8" />
    <line x1="650.975" y1="327.912" x2="753.982" y2="226.594" stroke="#949494" stroke-width="0.8" />
    <line x1="673.701" y1="350.64" x2="776.284" y2="248.893" stroke="#949494" stroke-width="0.8" />
    <line x1="560.919" y1="242.359" x2="670.117" y2="353.809" stroke="#949494" stroke-width="0.8" />
    <line x1="667.866" y1="134.284" x2="777.064" y2="244.046" stroke="#949494" stroke-width="0.8" />
    <line x1="644.223" y1="154.548" x2="753.421" y2="264.309" stroke="#949494" stroke-width="0.8" />
    <line x1="621.145" y1="174.812" x2="730.343" y2="284.573" stroke="#949494" stroke-width="0.8" />
    <line x1="603.133" y1="199.579" x2="712.332" y2="309.341" stroke="#949494" stroke-width="0.8" />
    <line x1="580.616" y1="220.405" x2="689.814" y2="330.167" stroke="#949494" stroke-width="0.8" />
    <line x1="646.007" y1="245.584" x2="623.492" y2="310.877" stroke="#949494" stroke-width="0.8" />
    <line x1="608.479" y1="285.579" x2="647.88" y2="285.579" stroke="#949494" stroke-width="0.8" />
    <line x1="608.363" y1="286.16" x2="666.829" y2="268.478" stroke="#949494" stroke-width="0.8" />
    <line x1="603.599" y1="282.466" x2="624.426" y2="225.615" stroke="#949494" stroke-width="0.8" />
    <line x1="603.01" y1="286.543" x2="603.01" y2="204.363" stroke="#949494" stroke-width="0.8" />
    <line x1="581.296" y1="226.879" x2="581.297" y2="260.652" stroke="#949494" stroke-width="0.8" />
    <line x1="586.401" y1="263.647" x2="643.252" y2="245.072" stroke="#949494" stroke-width="0.8" />
    <line x1="587.088" y1="264.752" x2="619.735" y2="264.752" stroke="#949494" stroke-width="0.8" />
    <line x1="566.403" y1="244.517" x2="619.877" y2="264.78" stroke="#949494" stroke-width="0.8" />
    <line x1="566.262" y1="243.926" x2="598.909" y2="243.926" stroke="#949494" stroke-width="0.8" />
    <line x1="566.138" y1="241.133" x2="619.611" y2="223.684" stroke="#949494" stroke-width="0.8" />
    <line x1="627.235" y1="260.526" x2="645.81" y2="203.675" stroke="#949494" stroke-width="0.8" />
    <line x1="624.421" y1="260.777" x2="605.283" y2="203.363" stroke="#949494" stroke-width="0.8" />
    <line x1="608.479" y1="244.491" x2="642.251" y2="244.491" stroke="#949494" stroke-width="0.8" />
    <line x1="628.18" y1="264.752" x2="670.958" y2="264.752" stroke="#949494" stroke-width="0.8" />
    <line x1="630.306" y1="264.772" x2="689.409" y2="245.634" stroke="#949494" stroke-width="0.8" />
    <line x1="648.23" y1="281.591" x2="666.637" y2="226.752" stroke="#949494" stroke-width="0.8" />
    <line x1="607.237" y1="241.13" x2="665.777" y2="223.681" stroke="#949494" stroke-width="0.8" />
    <line x1="586.663" y1="223.687" x2="641.825" y2="243.951" stroke="#949494" stroke-width="0.8" />
    <line x1="585.961" y1="221.975" x2="620.859" y2="221.975" stroke="#949494" stroke-width="0.8" />
    <line x1="586.403" y1="220.307" x2="642.691" y2="202.294" stroke="#949494" stroke-width="0.8" />
    <line x1="624.986" y1="217.178" x2="644.841" y2="160.748" stroke="#949494" stroke-width="0.8" />
    <line x1="630.43" y1="221.975" x2="668.705" y2="221.975" stroke="#949494" stroke-width="0.8" />
    <line x1="630.307" y1="218.617" x2="687.72" y2="200.042" stroke="#949494" stroke-width="0.8" />
    <line x1="608.618" y1="200.047" x2="663.217" y2="220.311" stroke="#949494" stroke-width="0.8" />
    <line x1="607.914" y1="200.586" x2="647.316" y2="200.586" stroke="#949494" stroke-width="0.8" />
    <line x1="645.248" y1="238.821" x2="627.236" y2="182.533" stroke="#949494" stroke-width="0.8" />
    <line x1="648.628" y1="238.567" x2="668.329" y2="182.279" stroke="#949494" stroke-width="0.8" />
    <line x1="652.256" y1="241.134" x2="707.981" y2="222.559" stroke="#949494" stroke-width="0.8" />
    <line x1="650.702" y1="244.491" x2="692.355" y2="245.617" stroke="#949494" stroke-width="0.8" />
    <line x1="669.432" y1="259.523" x2="669.432" y2="223.499" stroke="#949494" stroke-width="0.8" />
    <line x1="671.704" y1="262.212" x2="691.404" y2="204.798" stroke="#949494" stroke-width="0.8" />
    <line x1="675.341" y1="264.211" x2="729.94" y2="246.762" stroke="#949494" stroke-width="0.8" />
    <line x1="672.774" y1="265.901" x2="730.188" y2="285.602" stroke="#949494" stroke-width="0.8" />
    <line x1="672.645" y1="265.317" x2="707.543" y2="265.317" stroke="#949494" stroke-width="0.8" />
    <line x1="712.228" y1="306.367" x2="693.653" y2="247.828" stroke="#949494" stroke-width="0.8" />
    <line x1="733.056" y1="284.974" x2="715.043" y2="226.998" stroke="#949494" stroke-width="0.8" />
    <line x1="719.928" y1="265.879" x2="752.012" y2="265.879" stroke="#949494" stroke-width="0.8" />
    <line x1="752.134" y1="268.348" x2="695.846" y2="286.36" stroke="#949494" stroke-width="0.8" />
    <line x1="650.571" y1="288.414" x2="710.514" y2="269.468" stroke="#949494" stroke-width="0.8" />
    <line x1="714.63" y1="262.069" x2="733.789" y2="206.539" stroke="#949494" stroke-width="0.8" />
    <line x1="718.685" y1="264.77" x2="773.284" y2="247.884" stroke="#949494" stroke-width="0.8" />
    <line x1="751.495" y1="263.344" x2="693.909" y2="244.144" stroke="#949494" stroke-width="0.8" />
    <line x1="756.116" y1="260.65" x2="756.116" y2="229.129" stroke="#949494" stroke-width="0.8" />
    <line x1="771.715" y1="245.853" x2="740.757" y2="245.853" stroke="#949494" stroke-width="0.8" />
    <line x1="773.27" y1="243.016" x2="716.982" y2="223.315" stroke="#949494" stroke-width="0.8" />
    <line x1="693.911" y1="244.51" x2="750.199" y2="226.498" stroke="#949494" stroke-width="0.8" />
    <line x1="691.406" y1="242.505" x2="712.796" y2="182.277" stroke="#949494" stroke-width="0.8" />
    <line x1="672.082" y1="222.539" x2="710.358" y2="222.539" stroke="#949494" stroke-width="0.8" />
    <line x1="667.201" y1="217.994" x2="649.189" y2="161.143" stroke="#949494" stroke-width="0.8" />
    <line x1="670.013" y1="217.745" x2="689.151" y2="160.895" stroke="#949494" stroke-width="0.8" />
    <line x1="674.782" y1="219.74" x2="728.255" y2="203.417" stroke="#949494" stroke-width="0.8" />
    <line x1="718.803" y1="223.102" x2="751.45" y2="223.102" stroke="#949494" stroke-width="0.8" />
    <line x1="691.219" y1="201.711" x2="736.249" y2="201.711" stroke="#949494" stroke-width="0.8" />
    <line x1="649.568" y1="201.149" x2="688.97" y2="201.149" stroke="#949494" stroke-width="0.8" />
    <line x1="668.682" y1="215.624" x2="667.927" y2="182.423" stroke="#949494" stroke-width="0.8" />
    <line x1="651.698" y1="197.23" x2="706.86" y2="179.781" stroke="#949494" stroke-width="0.8" />
    <line x1="686.582" y1="200.799" x2="629.732" y2="180.535" stroke="#949494" stroke-width="0.8" />
    <line x1="670.214" y1="136.696" x2="689.914" y2="199.176" stroke="#949494" stroke-width="0.8" />
    <line x1="667.397" y1="134.694" x2="647.133" y2="194.922" stroke="#949494" stroke-width="0.8" />
    <line x1="671.52" y1="178.633" x2="710.921" y2="178.633" stroke="#949494" stroke-width="0.8" />
    <line x1="629.865" y1="177.508" x2="668.141" y2="177.508" stroke="#949494" stroke-width="0.8" />
    <line x1="667.741" y1="173.969" x2="667.741" y2="136.819" stroke="#949494" stroke-width="0.8" />
    <line x1="652.383" y1="157.245" x2="684.467" y2="157.245" stroke="#949494" stroke-width="0.8" />
    <line x1="691.783" y1="245.053" x2="735.688" y2="245.053" stroke="#949494" stroke-width="0.8" />
    <path
        d="M609.769 286.262C609.769 289.616 607.05 292.335 603.696 292.335C600.342 292.335 597.623 289.616 597.623 286.262C597.623 282.908 600.342 280.189 603.696 280.189C607.05 280.189 609.769 282.908 609.769 286.262Z"
        fill="#777777" stroke="#949494" stroke-width="0.8" />
    <path
        d="M609.769 243.485C609.769 246.839 607.05 249.558 603.696 249.558C600.342 249.558 597.623 246.839 597.623 243.485C597.623 240.131 600.342 237.412 603.696 237.412C607.05 237.412 609.769 240.131 609.769 243.485Z"
        fill="#777777" stroke="#949494" stroke-width="0.8" />
    <path
        d="M588.378 264.311C588.378 267.665 585.659 270.384 582.305 270.384C578.951 270.384 576.232 267.665 576.232 264.311C576.232 260.957 578.951 258.238 582.305 258.238C585.659 258.238 588.378 260.957 588.378 264.311Z"
        fill="#777777" stroke="#949494" stroke-width="0.8" />
    <path
        d="M567.552 243.485C567.552 246.839 564.833 249.558 561.479 249.558C558.125 249.558 555.406 246.839 555.406 243.485C555.406 240.131 558.125 237.412 561.479 237.412C564.833 237.412 567.552 240.131 567.552 243.485Z"
        fill="#777777" stroke="#949494" stroke-width="0.8" />
    <path
        d="M587.816 220.969C587.816 224.323 585.097 227.042 581.743 227.042C578.389 227.042 575.67 224.323 575.67 220.969C575.67 217.615 578.389 214.896 581.743 214.896C585.097 214.896 587.816 217.615 587.816 220.969Z"
        fill="#777777" stroke="#949494" stroke-width="0.8" />
    <path d="M677.501 348.862L670.394 361.171L663.288 348.862L677.501 348.862Z" fill="#C3C3C3" stroke="#949494"
        stroke-width="0.8" />
    <path d="M655.552 326.91L648.445 339.22L641.338 326.91L655.552 326.91Z" fill="#C3C3C3" stroke="#949494"
        stroke-width="0.8" />
    <path d="M676.938 304.957L669.832 317.266L662.725 304.957L676.938 304.957Z" fill="#C3C3C3" stroke="#949494"
        stroke-width="0.8" />
    <path d="M699.454 326.91L692.347 339.22L685.241 326.91L699.454 326.91Z" fill="#C3C3C3" stroke="#949494"
        stroke-width="0.8" />
    <path d="M721.407 305.52L714.301 317.829L707.194 305.52L721.407 305.52Z" fill="#C3C3C3" stroke="#949494"
        stroke-width="0.8" />
    <rect x="706.257" y="172.681" width="12.1462" height="12.1462" fill="#D9D9D9" stroke="#949494" stroke-width="0.8" />
    <rect x="728.209" y="194.632" width="12.1462" height="12.1462" fill="#D9D9D9" stroke="#949494" stroke-width="0.8" />
    <rect x="750.162" y="216.586" width="12.1462" height="12.1462" fill="#D9D9D9" stroke="#949494" stroke-width="0.8" />
    <rect x="728.775" y="238.537" width="12.1462" height="12.1462" fill="#D9D9D9" stroke="#949494" stroke-width="0.8" />
    <rect x="706.82" y="216.023" width="12.1462" height="12.1462" fill="#D9D9D9" stroke="#949494" stroke-width="0.8" />
    <path d="M646.475 148.641L653.167 153.502L650.611 161.369H642.34L639.784 153.502L646.475 148.641Z" fill="#D9D9D9" />
    <path d="M667.864 127.25L674.556 132.112L672 139.978H663.728L661.172 132.112L667.864 127.25Z" fill="#D9D9D9" />
    <path d="M619.391 174.903L625.085 171.616L630.778 174.903V181.477L625.085 184.764L619.391 181.477V174.903Z"
        fill="#D9D9D9" stroke="#949494" stroke-width="0.8" />
    <path d="M597.44 195.729L603.134 192.442L608.827 195.729V202.304L603.134 205.591L597.44 202.304V195.729Z"
        fill="#D9D9D9" stroke="#949494" stroke-width="0.8" />
    <path d="M619.391 218.808L625.085 215.52L630.778 218.808V225.382L625.085 228.669L619.391 225.382V218.808Z"
        fill="#D9D9D9" stroke="#949494" stroke-width="0.8" />
    <path d="M641.905 240.759L647.598 237.472L653.292 240.759V247.333L647.598 250.62L641.905 247.333V240.759Z"
        fill="#D9D9D9" stroke="#949494" stroke-width="0.8" />
    <path d="M619.391 261.024L625.085 257.737L630.778 261.024V267.598L625.085 270.885L619.391 267.598V261.024Z"
        fill="#D9D9D9" stroke="#949494" stroke-width="0.8" />
    <path d="M619.391 306.616L625.085 303.329L630.778 306.616V313.19L625.085 316.477L619.391 313.19V306.616Z"
        fill="#D9D9D9" stroke="#949494" stroke-width="0.8" />
    <path
        d="M708.302 261.889L713.456 259.407L718.61 261.889L719.883 267.466L716.316 271.938H710.596L707.029 267.466L708.302 261.889Z"
        fill="#D9D9D9" stroke="#949494" stroke-width="0.8" />
    <path
        d="M730.257 283.279L735.411 280.797L740.565 283.279L741.838 288.856L738.271 293.329H732.551L728.984 288.856L730.257 283.279Z"
        fill="#D9D9D9" stroke="#949494" stroke-width="0.8" />
    <path
        d="M751.644 262.453L756.798 259.971L761.952 262.453L763.224 268.03L759.658 272.503H753.938L750.371 268.03L751.644 262.453Z"
        fill="#D9D9D9" stroke="#949494" stroke-width="0.8" />
    <path
        d="M773.597 241.063L778.751 238.581L783.905 241.063L785.178 246.64L781.611 251.112H775.891L772.324 246.64L773.597 241.063Z"
        fill="#D9D9D9" stroke="#949494" stroke-width="0.8" />
    <path
        d="M686.349 283.84L691.503 281.358L696.657 283.84L697.93 289.417L694.363 293.889H688.643L685.076 289.417L686.349 283.84Z"
        fill="#D9D9D9" stroke="#949494" stroke-width="0.8" />
    <path d="M689.817 149.201L696.509 154.063L693.953 161.929H685.682L683.126 154.063L689.817 149.201Z"
        fill="#D9D9D9" />
    <path d="M668.427 171.154L675.118 176.016L672.562 183.883H664.291L661.735 176.016L668.427 171.154Z"
        fill="#D9D9D9" />
    <path
        d="M646.191 191.418L648.424 196.787L654.221 197.252L649.805 201.035L651.154 206.692L646.191 203.661L641.228 206.692L642.578 201.035L638.161 197.252L643.958 196.787L646.191 191.418Z"
        fill="#D9D9D9" />
    <path
        d="M690.66 191.98L692.893 197.35L698.69 197.815L694.273 201.598L695.623 207.254L690.66 204.223L685.697 207.254L687.047 201.598L682.63 197.815L688.427 197.35L690.66 191.98Z"
        fill="#D9D9D9" />
    <path
        d="M668.707 213.371L670.94 218.74L676.737 219.205L672.32 222.988L673.67 228.645L668.707 225.614L663.744 228.645L665.093 222.988L660.677 219.205L666.474 218.74L668.707 213.371Z"
        fill="#D9D9D9" />
    <path
        d="M691.224 235.322L693.458 240.692L699.254 241.156L694.838 244.94L696.187 250.596L691.224 247.565L686.262 250.596L687.611 244.94L683.194 241.156L688.991 240.692L691.224 235.322Z"
        fill="#D9D9D9" />
    <path
        d="M669.834 257.275L672.067 262.645L677.864 263.109L673.447 266.893L674.797 272.549L669.834 269.518L664.871 272.549L666.22 266.893L661.804 263.109L667.601 262.645L669.834 257.275Z"
        fill="#D9D9D9" />
    <path
        d="M648.445 279.227L650.678 284.596L656.475 285.061L652.059 288.844L653.408 294.5L648.445 291.469L643.482 294.5L644.832 288.844L640.415 285.061L646.212 284.596L648.445 279.227Z"
        fill="#D9D9D9" />
    <line x1="380.353" y1="288.266" x2="400.494" y2="353.961" stroke="#949494" stroke-width="0.8" />
    <line x1="356.094" y1="309.102" x2="400.12" y2="309.101" stroke="#949494" stroke-width="0.8" />
    <line x1="400.114" y1="309.532" x2="444.139" y2="309.803" stroke="#949494" stroke-width="0.8" />
    <line x1="379.419" y1="330.819" x2="399.732" y2="268.751" stroke="#949494" stroke-width="0.8" />
    <line x1="401.076" y1="268.307" x2="402.19" y2="354.074" stroke="#949494" stroke-width="0.8" />
    <line x1="358.798" y1="310.815" x2="421.994" y2="290.501" stroke="#949494" stroke-width="0.8" />
    <line x1="380.369" y1="329.979" x2="420.431" y2="330.543" stroke="#949494" stroke-width="0.8" />
    <line x1="401.991" y1="353.949" x2="423.433" y2="291.881" stroke="#949494" stroke-width="0.8" />
    <line x1="402.133" y1="266.897" x2="421.423" y2="328.169" stroke="#949494" stroke-width="0.8" />
    <line x1="425.891" y1="325.807" x2="444.67" y2="270.371" stroke="#949494" stroke-width="0.8" />
    <line x1="381.058" y1="288.247" x2="441.434" y2="309.124" stroke="#949494" stroke-width="0.8" />
    <line x1="403.122" y1="304.294" x2="421.742" y2="250.125" stroke="#949494" stroke-width="0.8" />
    <line x1="425.126" y1="282.288" x2="443.746" y2="228.119" stroke="#949494" stroke-width="0.8" />
    <line x1="385.441" y1="286.532" x2="417.04" y2="286.532" stroke="#949494" stroke-width="0.8" />
    <line x1="429.453" y1="287.1" x2="460.487" y2="287.1" stroke="#949494" stroke-width="0.8" />
    <line x1="291.495" y1="242.07" x2="394.754" y2="140.504" stroke="#949494" stroke-width="0.8" />
    <line x1="315.759" y1="261.818" x2="419.017" y2="160.253" stroke="#949494" stroke-width="0.8" />
    <line x1="336.636" y1="285.52" x2="439.894" y2="183.954" stroke="#949494" stroke-width="0.8" />
    <line x1="360.335" y1="305.834" x2="463.593" y2="204.268" stroke="#949494" stroke-width="0.8" />
    <line x1="382.341" y1="327.838" x2="485.599" y2="226.272" stroke="#949494" stroke-width="0.8" />
    <line x1="405.121" y1="350.622" x2="507.955" y2="248.627" stroke="#949494" stroke-width="0.8" />
    <line x1="292.061" y1="242.076" x2="401.526" y2="353.798" stroke="#949494" stroke-width="0.8" />
    <line x1="399.266" y1="133.737" x2="508.731" y2="243.767" stroke="#949494" stroke-width="0.8" />
    <line x1="375.569" y1="154.052" x2="485.034" y2="264.082" stroke="#949494" stroke-width="0.8" />
    <line x1="352.434" y1="174.364" x2="461.899" y2="284.394" stroke="#949494" stroke-width="0.8" />
    <line x1="334.379" y1="199.191" x2="443.845" y2="309.22" stroke="#949494" stroke-width="0.8" />
    <line x1="311.807" y1="220.067" x2="421.272" y2="330.097" stroke="#949494" stroke-width="0.8" />
    <line x1="377.357" y1="245.31" x2="354.786" y2="310.764" stroke="#949494" stroke-width="0.8" />
    <line x1="339.736" y1="285.405" x2="379.234" y2="285.405" stroke="#949494" stroke-width="0.8" />
    <line x1="339.621" y1="285.986" x2="398.23" y2="268.261" stroke="#949494" stroke-width="0.8" />
    <line x1="334.849" y1="282.28" x2="355.726" y2="225.291" stroke="#949494" stroke-width="0.8" />
    <line x1="334.26" y1="286.369" x2="334.26" y2="203.988" stroke="#949494" stroke-width="0.8" />
    <line x1="312.49" y1="226.557" x2="312.49" y2="260.412" stroke="#949494" stroke-width="0.8" />
    <line x1="317.608" y1="263.419" x2="374.598" y2="244.798" stroke="#949494" stroke-width="0.8" />
    <line x1="318.297" y1="264.526" x2="351.024" y2="264.526" stroke="#949494" stroke-width="0.8" />
    <line x1="297.562" y1="244.239" x2="351.166" y2="264.552" stroke="#949494" stroke-width="0.8" />
    <line x1="297.42" y1="243.649" x2="330.147" y2="243.649" stroke="#949494" stroke-width="0.8" />
    <line x1="297.296" y1="240.846" x2="350.9" y2="223.354" stroke="#949494" stroke-width="0.8" />
    <line x1="358.539" y1="260.291" x2="376.753" y2="203.725" stroke="#949494" stroke-width="0.8" />
    <line x1="355.72" y1="260.541" x2="336.535" y2="202.987" stroke="#949494" stroke-width="0.8" />
    <line x1="339.736" y1="244.213" x2="373.592" y2="244.213" stroke="#949494" stroke-width="0.8" />
    <line x1="359.484" y1="264.526" x2="402.368" y2="264.526" stroke="#949494" stroke-width="0.8" />
    <line x1="361.626" y1="264.544" x2="418.051" y2="247.052" stroke="#949494" stroke-width="0.8" />
    <line x1="379.59" y1="281.404" x2="398.041" y2="226.43" stroke="#949494" stroke-width="0.8" />
    <line x1="338.493" y1="240.843" x2="397.176" y2="223.351" stroke="#949494" stroke-width="0.8" />
    <line x1="317.87" y1="223.361" x2="373.167" y2="243.674" stroke="#949494" stroke-width="0.8" />
    <line x1="317.166" y1="221.643" x2="352.15" y2="221.643" stroke="#949494" stroke-width="0.8" />
    <line x1="317.612" y1="219.968" x2="372.909" y2="202.476" stroke="#949494" stroke-width="0.8" />
    <line x1="356.287" y1="216.832" x2="376.19" y2="160.265" stroke="#949494" stroke-width="0.8" />
    <line x1="361.744" y1="221.643" x2="400.113" y2="221.643" stroke="#949494" stroke-width="0.8" />
    <line x1="361.618" y1="218.279" x2="415.786" y2="200.223" stroke="#949494" stroke-width="0.8" />
    <line x1="339.876" y1="199.662" x2="394.608" y2="219.975" stroke="#949494" stroke-width="0.8" />
    <line x1="339.172" y1="200.2" x2="378.67" y2="200.2" stroke="#949494" stroke-width="0.8" />
    <line x1="376.598" y1="238.528" x2="358.541" y2="182.103" stroke="#949494" stroke-width="0.8" />
    <line x1="379.986" y1="238.274" x2="399.735" y2="181.849" stroke="#949494" stroke-width="0.8" />
    <line x1="383.625" y1="240.846" x2="437.794" y2="223.354" stroke="#949494" stroke-width="0.8" />
    <line x1="382.067" y1="244.213" x2="423.822" y2="245.342" stroke="#949494" stroke-width="0.8" />
    <line x1="400.84" y1="259.283" x2="400.84" y2="223.171" stroke="#949494" stroke-width="0.8" />
    <line x1="403.122" y1="261.974" x2="422.871" y2="204.42" stroke="#949494" stroke-width="0.8" />
    <line x1="406.763" y1="263.982" x2="461.496" y2="246.49" stroke="#949494" stroke-width="0.8" />
    <line x1="406.448" y1="266.805" x2="461.745" y2="285.425" stroke="#949494" stroke-width="0.8" />
    <line x1="406.885" y1="265.092" x2="439.047" y2="265.092" stroke="#949494" stroke-width="0.8" />
    <line x1="443.179" y1="304.545" x2="425.123" y2="247.555" stroke="#949494" stroke-width="0.8" />
    <line x1="464.62" y1="284.794" x2="446.564" y2="226.676" stroke="#949494" stroke-width="0.8" />
    <line x1="451.459" y1="265.657" x2="483.621" y2="265.657" stroke="#949494" stroke-width="0.8" />
    <line x1="482.053" y1="268.694" x2="427.321" y2="286.185" stroke="#949494" stroke-width="0.8" />
    <line x1="385.606" y1="287.487" x2="442.024" y2="269.252" stroke="#949494" stroke-width="0.8" />
    <line x1="446.149" y1="261.834" x2="465.355" y2="206.169" stroke="#949494" stroke-width="0.8" />
    <line x1="450.21" y1="264.544" x2="504.943" y2="247.616" stroke="#949494" stroke-width="0.8" />
    <line x1="483.102" y1="263.11" x2="426.896" y2="244.365" stroke="#949494" stroke-width="0.8" />
    <line x1="487.735" y1="260.414" x2="487.735" y2="228.816" stroke="#949494" stroke-width="0.8" />
    <line x1="503.371" y1="245.58" x2="472.337" y2="245.58" stroke="#949494" stroke-width="0.8" />
    <line x1="504.93" y1="242.733" x2="448.505" y2="222.984" stroke="#949494" stroke-width="0.8" />
    <line x1="428.206" y1="243.103" x2="481.81" y2="226.175" stroke="#949494" stroke-width="0.8" />
    <line x1="425.126" y1="237.712" x2="444.31" y2="181.851" stroke="#949494" stroke-width="0.8" />
    <line x1="405.756" y1="222.207" x2="439.047" y2="222.207" stroke="#949494" stroke-width="0.8" />
    <line x1="398.037" y1="215.957" x2="380.545" y2="160.66" stroke="#949494" stroke-width="0.8" />
    <line x1="401.427" y1="215.705" x2="420.611" y2="160.408" stroke="#949494" stroke-width="0.8" />
    <line x1="406.204" y1="219.401" x2="459.808" y2="203.037" stroke="#949494" stroke-width="0.8" />
    <line x1="450.328" y1="222.772" x2="483.055" y2="222.772" stroke="#949494" stroke-width="0.8" />
    <line x1="427.762" y1="201.329" x2="462.746" y2="201.329" stroke="#949494" stroke-width="0.8" />
    <line x1="383.748" y1="200.764" x2="417.039" y2="200.764" stroke="#949494" stroke-width="0.8" />
    <line x1="400.09" y1="215.279" x2="399.334" y2="181.996" stroke="#949494" stroke-width="0.8" />
    <line x1="383.063" y1="196.835" x2="438.36" y2="179.344" stroke="#949494" stroke-width="0.8" />
    <line x1="415.212" y1="199.285" x2="361.044" y2="180.101" stroke="#949494" stroke-width="0.8" />
    <line x1="402.751" y1="139.544" x2="421.371" y2="198.791" stroke="#949494" stroke-width="0.8" />
    <line x1="397.105" y1="139.793" x2="378.485" y2="194.526" stroke="#949494" stroke-width="0.8" />
    <line x1="406.32" y1="178.196" x2="439.047" y2="178.196" stroke="#949494" stroke-width="0.8" />
    <line x1="361.18" y1="177.069" x2="399.549" y2="177.069" stroke="#949494" stroke-width="0.8" />
    <line x1="399.147" y1="173.518" x2="399.147" y2="136.277" stroke="#949494" stroke-width="0.8" />
    <line x1="383.748" y1="156.756" x2="415.911" y2="156.756" stroke="#949494" stroke-width="0.8" />
    <line x1="428.326" y1="244.78" x2="461.617" y2="244.78" stroke="#949494" stroke-width="0.8" />
    <path
        d="M385.041 243.768C385.041 247.131 382.315 249.857 378.952 249.857C375.589 249.857 372.863 247.131 372.863 243.768C372.863 240.405 375.589 237.679 378.952 237.679C382.315 237.679 385.041 240.405 385.041 243.768Z"
        fill="#777777" stroke="#949494" stroke-width="0.8" />
    <path
        d="M341.031 286.651C341.031 290.014 338.305 292.74 334.942 292.74C331.579 292.74 328.853 290.014 328.853 286.651C328.853 283.288 331.579 280.562 334.942 280.562C338.305 280.562 341.031 283.288 341.031 286.651Z"
        fill="#777777" stroke="#949494" stroke-width="0.8" />
    <path
        d="M362.472 264.645C362.472 268.008 359.746 270.734 356.383 270.734C353.021 270.734 350.295 268.008 350.295 264.645C350.295 261.282 353.021 258.556 356.383 258.556C359.746 258.556 362.472 261.282 362.472 264.645Z"
        fill="#777777" stroke="#949494" stroke-width="0.8" />
    <path
        d="M385.605 287.78C385.605 291.143 382.879 293.869 379.516 293.869C376.153 293.869 373.427 291.143 373.427 287.78C373.427 284.417 376.153 281.691 379.516 281.691C382.879 281.691 385.605 284.417 385.605 287.78Z"
        fill="#777777" stroke="#949494" stroke-width="0.8" />
    <path
        d="M407.047 309.784C407.047 313.147 404.321 315.873 400.958 315.873C397.595 315.873 394.869 313.147 394.869 309.784C394.869 306.421 397.595 303.695 400.958 303.695C404.321 303.695 407.047 306.421 407.047 309.784Z"
        fill="#777777" stroke="#949494" stroke-width="0.8" />
    <path
        d="M407.047 265.774C407.047 269.137 404.321 271.863 400.958 271.863C397.595 271.863 394.869 269.137 394.869 265.774C394.869 262.411 397.595 259.685 400.958 259.685C404.321 259.685 407.047 262.411 407.047 265.774Z"
        fill="#777777" stroke="#949494" stroke-width="0.8" />
    <path
        d="M406.482 221.762C406.482 225.125 403.756 227.851 400.393 227.851C397.03 227.851 394.304 225.125 394.304 221.762C394.304 218.4 397.03 215.673 400.393 215.673C403.756 215.673 406.482 218.4 406.482 221.762Z"
        fill="#777777" stroke="#949494" stroke-width="0.8" />
    <path
        d="M405.918 178.315C405.918 181.678 403.192 184.404 399.829 184.404C396.466 184.404 393.74 181.678 393.74 178.315C393.74 174.952 396.466 172.226 399.829 172.226C403.192 172.226 405.918 174.952 405.918 178.315Z"
        fill="#777777" stroke="#949494" stroke-width="0.8" />
    <path
        d="M383.914 199.757C383.914 203.119 381.188 205.845 377.825 205.845C374.462 205.845 371.736 203.119 371.736 199.757C371.736 196.394 374.462 193.668 377.825 193.668C381.188 193.668 383.914 196.394 383.914 199.757Z"
        fill="#777777" stroke="#949494" stroke-width="0.8" />
    <path
        d="M341.031 243.768C341.031 247.131 338.305 249.857 334.942 249.857C331.579 249.857 328.853 247.131 328.853 243.768C328.853 240.405 331.579 237.679 334.942 237.679C338.305 237.679 341.031 240.405 341.031 243.768Z"
        fill="#777777" stroke="#949494" stroke-width="0.8" />
    <path
        d="M362.472 221.762C362.472 225.125 359.746 227.851 356.383 227.851C353.021 227.851 350.295 225.125 350.295 221.762C350.295 218.4 353.021 215.673 356.383 215.673C359.746 215.673 362.472 218.4 362.472 221.762Z"
        fill="#777777" stroke="#949494" stroke-width="0.8" />
    <path
        d="M319.588 264.645C319.588 268.008 316.862 270.734 313.499 270.734C310.136 270.734 307.41 268.008 307.41 264.645C307.41 261.282 310.136 258.556 313.499 258.556C316.862 258.556 319.588 261.282 319.588 264.645Z"
        fill="#777777" stroke="#949494" stroke-width="0.8" />
    <path
        d="M298.711 243.768C298.711 247.131 295.985 249.857 292.622 249.857C289.259 249.857 286.533 247.131 286.533 243.768C286.533 240.405 289.259 237.679 292.622 237.679C295.985 237.679 298.711 240.405 298.711 243.768Z"
        fill="#777777" stroke="#949494" stroke-width="0.8" />
    <path
        d="M319.025 221.2C319.025 224.563 316.299 227.289 312.936 227.289C309.573 227.289 306.847 224.563 306.847 221.2C306.847 217.837 309.573 215.111 312.936 215.111C316.299 215.111 319.025 217.837 319.025 221.2Z"
        fill="#777777" stroke="#949494" stroke-width="0.8" />
    <path
        d="M340.467 199.192C340.467 202.555 337.74 205.281 334.378 205.281C331.015 205.281 328.289 202.555 328.289 199.192C328.289 195.829 331.015 193.103 334.378 193.103C337.74 193.103 340.467 195.829 340.467 199.192Z"
        fill="#777777" stroke="#949494" stroke-width="0.8" />
    <path
        d="M362.472 177.751C362.472 181.113 359.746 183.84 356.383 183.84C353.021 183.84 350.295 181.113 350.295 177.751C350.295 174.388 353.021 171.662 356.383 171.662C359.746 171.662 362.472 174.388 362.472 177.751Z"
        fill="#777777" stroke="#949494" stroke-width="0.8" />
    <path
        d="M362.472 310.915C362.472 314.278 359.746 317.004 356.383 317.004C353.021 317.004 350.295 314.278 350.295 310.915C350.295 307.552 353.021 304.826 356.383 304.826C359.746 304.826 362.472 307.552 362.472 310.915Z"
        fill="#777777" stroke="#949494" stroke-width="0.8" />
    <path d="M408.93 349.403L401.804 361.745L394.678 349.403L408.93 349.403Z" fill="#C3C3C3" stroke="#949494"
        stroke-width="0.8" />
    <path d="M430.937 327.395L423.812 339.737L416.686 327.395L430.937 327.395Z" fill="#C3C3C3" stroke="#949494"
        stroke-width="0.8" />
    <path d="M386.924 327.395L379.798 339.737L372.672 327.395L386.924 327.395Z" fill="#C3C3C3" stroke="#949494"
        stroke-width="0.8" />
    <path d="M452.945 305.954L445.82 318.296L438.694 305.954L452.945 305.954Z" fill="#C3C3C3" stroke="#949494"
        stroke-width="0.8" />
    <path d="M474.383 283.383L467.257 295.725L460.131 283.383L474.383 283.383Z" fill="#C3C3C3" stroke="#949494"
        stroke-width="0.8" />
    <path d="M430.371 283.948L423.245 296.29L416.12 283.948L430.371 283.948Z" fill="#C3C3C3" stroke="#949494"
        stroke-width="0.8" />
    <rect x="438.882" y="260.252" width="12.1779" height="12.1779" fill="#D9D9D9" stroke="#949494" stroke-width="0.8" />
    <rect x="460.32" y="238.81" width="12.1779" height="12.1779" fill="#D9D9D9" stroke="#949494" stroke-width="0.8" />
    <rect x="482.328" y="260.814" width="12.1779" height="12.1779" fill="#D9D9D9" stroke="#949494" stroke-width="0.8" />
    <rect x="502.898" y="239.371" width="12.1779" height="12.1779" fill="#D9D9D9" stroke="#949494" stroke-width="0.8" />
    <rect x="481.763" y="216.802" width="12.1779" height="12.1779" fill="#D9D9D9" stroke="#949494" stroke-width="0.8" />
    <rect x="438.318" y="216.238" width="12.1779" height="12.1779" fill="#D9D9D9" stroke="#949494" stroke-width="0.8" />
    <rect x="416.312" y="237.679" width="12.1779" height="12.1779" fill="#D9D9D9" stroke="#949494" stroke-width="0.8" />
    <path d="M421.836 193.268L428.544 198.141L425.982 206.027H417.691L415.128 198.141L421.836 193.268Z"
        fill="#D9D9D9" />
    <path d="M443.842 171.826L450.55 176.7L447.988 184.585H439.696L437.134 176.7L443.842 171.826Z" fill="#D9D9D9" />
    <path d="M465.846 193.83L472.554 198.704L469.992 206.589H461.7L459.138 198.704L465.846 193.83Z" fill="#D9D9D9" />
    <path d="M421.27 149.256L427.978 154.129L425.416 162.015H417.124L414.562 154.129L421.27 149.256Z" fill="#D9D9D9" />
    <path d="M399.264 127.25L405.972 132.124L403.41 140.009H395.118L392.556 132.124L399.264 127.25Z" fill="#D9D9D9" />
    <path d="M377.825 148.691L384.533 153.565L381.97 161.451H373.679L371.117 153.565L377.825 148.691Z" fill="#D9D9D9" />
    <line x1="113.06" y1="287.883" x2="132.863" y2="352.473" stroke="#949494" stroke-width="0.8" />
    <line x1="89.1992" y1="308.362" x2="132.485" y2="308.361" stroke="#949494" stroke-width="0.8" />
    <line x1="132.481" y1="308.782" x2="175.766" y2="309.049" stroke="#949494" stroke-width="0.8" />
    <line x1="112.128" y1="329.719" x2="132.099" y2="268.696" stroke="#949494" stroke-width="0.8" />
    <line x1="133.433" y1="268.258" x2="134.528" y2="352.582" stroke="#949494" stroke-width="0.8" />
    <line x1="91.8581" y1="310.045" x2="153.991" y2="290.074" stroke="#949494" stroke-width="0.8" />
    <line x1="113.066" y1="328.889" x2="152.454" y2="329.444" stroke="#949494" stroke-width="0.8" />
    <line x1="134.319" y1="352.455" x2="155.4" y2="291.432" stroke="#949494" stroke-width="0.8" />
    <line x1="134.475" y1="266.87" x2="153.44" y2="327.111" stroke="#949494" stroke-width="0.8" />
    <line x1="157.818" y1="324.79" x2="176.282" y2="270.286" stroke="#949494" stroke-width="0.8" />
    <line x1="113.75" y1="287.856" x2="173.109" y2="308.383" stroke="#949494" stroke-width="0.8" />
    <line x1="135.428" y1="303.638" x2="153.736" y2="250.38" stroke="#949494" stroke-width="0.8" />
    <line x1="157.063" y1="282.003" x2="175.37" y2="228.746" stroke="#949494" stroke-width="0.8" />
    <line x1="118.057" y1="286.172" x2="149.123" y2="286.172" stroke="#949494" stroke-width="0.8" />
    <line x1="161.326" y1="286.725" x2="191.838" y2="286.725" stroke="#949494" stroke-width="0.8" />
    <line x1="25.6843" y1="242.461" x2="127.206" y2="142.604" stroke="#949494" stroke-width="0.8" />
    <line x1="49.5398" y1="261.877" x2="151.061" y2="162.02" stroke="#949494" stroke-width="0.8" />
    <line x1="70.0652" y1="285.178" x2="171.587" y2="185.321" stroke="#949494" stroke-width="0.8" />
    <line x1="93.366" y1="305.148" x2="194.887" y2="205.291" stroke="#949494" stroke-width="0.8" />
    <line x1="115.001" y1="326.783" x2="216.522" y2="226.926" stroke="#949494" stroke-width="0.8" />
    <line x1="137.398" y1="349.185" x2="238.503" y2="248.906" stroke="#949494" stroke-width="0.8" />
    <line x1="26.2506" y1="242.466" x2="133.874" y2="352.309" stroke="#949494" stroke-width="0.8" />
    <line x1="131.653" y1="135.948" x2="239.277" y2="244.127" stroke="#949494" stroke-width="0.8" />
    <line x1="108.352" y1="155.919" x2="215.976" y2="264.098" stroke="#949494" stroke-width="0.8" />
    <line x1="85.6097" y1="175.892" x2="193.234" y2="284.07" stroke="#949494" stroke-width="0.8" />
    <line x1="67.8558" y1="200.3" x2="175.48" y2="308.479" stroke="#949494" stroke-width="0.8" />
    <line x1="45.6664" y1="220.827" x2="153.29" y2="329.006" stroke="#949494" stroke-width="0.8" />
    <line x1="107.893" y1="252.866" x2="90.1401" y2="302.795" stroke="#949494" stroke-width="0.8" />
    <line x1="78.083" y1="285.518" x2="107.53" y2="285.158" stroke="#949494" stroke-width="0.8" />
    <line x1="76.886" y1="285.081" x2="130.626" y2="268.209" stroke="#949494" stroke-width="0.8" />
    <line x1="71.0127" y1="276.074" x2="85.5614" y2="231.911" stroke="#949494" stroke-width="0.8" />
    <line x1="68.2797" y1="281.045" x2="67.1728" y2="209.467" stroke="#949494" stroke-width="0.8" />
    <line x1="46.4644" y1="230.541" x2="46.3354" y2="256.62" stroke="#949494" stroke-width="0.8" />
    <line x1="56.9146" y1="261.225" x2="102.405" y2="247.356" stroke="#949494" stroke-width="0.8" />
    <line x1="55.9219" y1="264.536" x2="79.7766" y2="264.536" stroke="#949494" stroke-width="0.8" />
    <line x1="36.0868" y1="247.359" x2="79.9129" y2="262.893" stroke="#949494" stroke-width="0.8" />
    <line x1="35.9531" y1="244.01" x2="59.2531" y2="244.01" stroke="#949494" stroke-width="0.8" />
    <line x1="35.8309" y1="240.146" x2="80.7666" y2="225.723" stroke="#949494" stroke-width="0.8" />
    <line x1="92.5566" y1="254.96" x2="109.51" y2="204.754" stroke="#949494" stroke-width="0.8" />
    <line x1="86.609" y1="255.07" x2="71.6304" y2="207.916" stroke="#949494" stroke-width="0.8" />
    <line x1="78.1113" y1="244.565" x2="101.411" y2="244.565" stroke="#949494" stroke-width="0.8" />
    <line x1="99.1973" y1="264.536" x2="128.049" y2="264.82" stroke="#949494" stroke-width="0.8" />
    <line x1="99.0731" y1="263.445" x2="150.111" y2="247.357" stroke="#949494" stroke-width="0.8" />
    <line x1="112.295" y1="281.132" x2="130.436" y2="227.083" stroke="#949494" stroke-width="0.8" />
    <line x1="77.4424" y1="239.585" x2="129.59" y2="224.052" stroke="#949494" stroke-width="0.8" />
    <line x1="56.0524" y1="226.278" x2="102.652" y2="242.366" stroke="#949494" stroke-width="0.8" />
    <line x1="56.4785" y1="222.373" x2="79.7785" y2="222.373" stroke="#949494" stroke-width="0.8" />
    <line x1="56.3585" y1="219.062" x2="105.732" y2="203.528" stroke="#949494" stroke-width="0.8" />
    <line x1="92.0038" y1="212.245" x2="108.951" y2="162.038" stroke="#949494" stroke-width="0.8" />
    <line x1="99.748" y1="222.373" x2="128.041" y2="222.373" stroke="#949494" stroke-width="0.8" />
    <line x1="97.9632" y1="216.843" x2="147.892" y2="201.309" stroke="#949494" stroke-width="0.8" />
    <line x1="77.1361" y1="203.534" x2="127.065" y2="220.732" stroke="#949494" stroke-width="0.8" />
    <line x1="77.5566" y1="201.293" x2="105.85" y2="201.293" stroke="#949494" stroke-width="0.8" />
    <line x1="107.688" y1="234.546" x2="92.1543" y2="186.282" stroke="#949494" stroke-width="0.8" />
    <line x1="114.349" y1="234.292" x2="132.101" y2="183.254" stroke="#949494" stroke-width="0.8" />
    <line x1="120.707" y1="239.588" x2="169.526" y2="224.054" stroke="#949494" stroke-width="0.8" />
    <line x1="121.383" y1="245.12" x2="149.121" y2="245.12" stroke="#949494" stroke-width="0.8" />
    <line x1="133.188" y1="259.387" x2="133.188" y2="223.882" stroke="#949494" stroke-width="0.8" />
    <line x1="135.428" y1="262.032" x2="154.845" y2="205.447" stroke="#949494" stroke-width="0.8" />
    <line x1="139.015" y1="263.998" x2="192.827" y2="246.8" stroke="#949494" stroke-width="0.8" />
    <line x1="138.71" y1="266.775" x2="193.076" y2="285.082" stroke="#949494" stroke-width="0.8" />
    <line x1="139.137" y1="265.09" x2="170.758" y2="265.09" stroke="#949494" stroke-width="0.8" />
    <line x1="174.816" y1="303.888" x2="157.064" y2="247.857" stroke="#949494" stroke-width="0.8" />
    <line x1="195.893" y1="284.47" x2="178.141" y2="227.33" stroke="#949494" stroke-width="0.8" />
    <line x1="182.961" y1="265.645" x2="214.582" y2="265.645" stroke="#949494" stroke-width="0.8" />
    <line x1="213.042" y1="268.645" x2="159.23" y2="285.842" stroke="#949494" stroke-width="0.8" />
    <line x1="118.213" y1="287.11" x2="173.683" y2="269.182" stroke="#949494" stroke-width="0.8" />
    <line x1="177.735" y1="261.893" x2="196.618" y2="207.164" stroke="#949494" stroke-width="0.8" />
    <line x1="181.735" y1="264.553" x2="235.547" y2="247.911" stroke="#949494" stroke-width="0.8" />
    <line x1="214.073" y1="263.157" x2="158.812" y2="244.727" stroke="#949494" stroke-width="0.8" />
    <line x1="218.623" y1="260.496" x2="218.623" y2="229.429" stroke="#949494" stroke-width="0.8" />
    <line x1="234" y1="245.92" x2="203.488" y2="245.92" stroke="#949494" stroke-width="0.8" />
    <line x1="235.532" y1="243.124" x2="180.056" y2="223.707" stroke="#949494" stroke-width="0.8" />
    <line x1="160.096" y1="243.472" x2="212.799" y2="226.829" stroke="#949494" stroke-width="0.8" />
    <line x1="157.063" y1="238.177" x2="175.925" y2="183.255" stroke="#949494" stroke-width="0.8" />
    <line x1="138.027" y1="222.926" x2="170.758" y2="222.926" stroke="#949494" stroke-width="0.8" />
    <line x1="130.433" y1="216.793" x2="113.235" y2="162.426" stroke="#949494" stroke-width="0.8" />
    <line x1="133.767" y1="216.541" x2="152.629" y2="162.174" stroke="#949494" stroke-width="0.8" />
    <line x1="138.465" y1="220.172" x2="191.168" y2="204.084" stroke="#949494" stroke-width="0.8" />
    <line x1="181.854" y1="223.485" x2="214.03" y2="223.485" stroke="#949494" stroke-width="0.8" />
    <line x1="159.664" y1="202.401" x2="194.059" y2="202.401" stroke="#949494" stroke-width="0.8" />
    <line x1="116.389" y1="201.846" x2="149.12" y2="201.846" stroke="#949494" stroke-width="0.8" />
    <line x1="132.452" y1="216.12" x2="131.708" y2="183.398" stroke="#949494" stroke-width="0.8" />
    <line x1="115.717" y1="197.982" x2="170.084" y2="180.784" stroke="#949494" stroke-width="0.8" />
    <line x1="147.325" y1="200.404" x2="94.0683" y2="181.542" stroke="#949494" stroke-width="0.8" />
    <line x1="135.079" y1="141.657" x2="153.386" y2="199.907" stroke="#949494" stroke-width="0.8" />
    <line x1="129.529" y1="141.906" x2="111.222" y2="195.718" stroke="#949494" stroke-width="0.8" />
    <line x1="138.582" y1="179.657" x2="170.758" y2="179.657" stroke="#949494" stroke-width="0.8" />
    <line x1="99.1934" y1="178.549" x2="126.931" y2="178.549" stroke="#949494" stroke-width="0.8" />
    <line x1="131.524" y1="172.846" x2="131.524" y2="140.115" stroke="#949494" stroke-width="0.8" />
    <line x1="116.389" y1="158.577" x2="148.01" y2="158.577" stroke="#949494" stroke-width="0.8" />
    <line x1="160.217" y1="245.12" x2="192.948" y2="245.12" stroke="#949494" stroke-width="0.8" />
    <circle cx="111.675" cy="244.13" r="9.8631" fill="#777777" stroke="#949494" stroke-width="0.8" />
    <circle cx="68.4037" cy="286.294" r="9.8631" fill="#777777" stroke="#949494" stroke-width="0.8" />
    <circle cx="89.4838" cy="264.656" r="9.8631" fill="#777777" stroke="#949494" stroke-width="0.8" />
    <circle cx="68.4037" cy="244.13" r="9.8631" fill="#777777" stroke="#949494" stroke-width="0.8" />
    <circle cx="89.4838" cy="222.496" r="9.8631" fill="#777777" stroke="#949494" stroke-width="0.8" />
    <circle cx="47.3217" cy="264.656" r="9.8631" fill="#777777" stroke="#949494" stroke-width="0.8" />
    <circle cx="26.7963" cy="244.13" r="9.8631" fill="#777777" stroke="#949494" stroke-width="0.8" />
    <circle cx="46.767" cy="221.943" r="9.8631" fill="#777777" stroke="#949494" stroke-width="0.8" />
    <circle cx="67.849" cy="200.304" r="9.8631" fill="#777777" stroke="#949494" stroke-width="0.8" />
    <circle cx="89.4838" cy="179.224" r="9.8631" fill="#777777" stroke="#949494" stroke-width="0.8" />
    <circle cx="89.4838" cy="310.148" r="9.8631" fill="#777777" stroke="#949494" stroke-width="0.8" />
    <circle cx="112.229" cy="287.403" r="5.97976" fill="#C3C3C3" stroke="#949494" stroke-width="0.8" />
    <circle cx="133.311" cy="309.04" r="5.97976" fill="#C3C3C3" stroke="#949494" stroke-width="0.8" />
    <circle cx="133.311" cy="265.768" r="5.97976" fill="#C3C3C3" stroke="#949494" stroke-width="0.8" />
    <circle cx="132.755" cy="222.497" r="5.97976" fill="#C3C3C3" stroke="#949494" stroke-width="0.8" />
    <circle cx="110.565" cy="200.86" r="5.97976" fill="#C3C3C3" stroke="#949494" stroke-width="0.8" />
    <circle cx="132.2" cy="179.78" r="5.97976" fill="#C3C3C3" stroke="#949494" stroke-width="0.8" />
    <circle cx="153.837" cy="201.415" r="5.97976" fill="#C3C3C3" stroke="#949494" stroke-width="0.8" />
    <circle cx="154.391" cy="244.132" r="5.97976" fill="#C3C3C3" stroke="#949494" stroke-width="0.8" />
    <circle cx="154.946" cy="287.958" r="5.97976" fill="#C3C3C3" stroke="#949494" stroke-width="0.8" />
    <circle cx="155.501" cy="330.677" r="5.97976" fill="#C3C3C3" stroke="#949494" stroke-width="0.8" />
    <circle cx="133.866" cy="352.311" r="5.97976" fill="#C3C3C3" stroke="#949494" stroke-width="0.8" />
    <circle cx="112.229" cy="330.677" r="5.97976" fill="#C3C3C3" stroke="#949494" stroke-width="0.8" />
    <circle cx="177.136" cy="309.593" r="5.97976" fill="#C3C3C3" stroke="#949494" stroke-width="0.8" />
    <circle cx="198.22" cy="287.403" r="5.97976" fill="#C3C3C3" stroke="#949494" stroke-width="0.8" />
    <circle cx="176.581" cy="266.323" r="5.97976" fill="#C3C3C3" stroke="#949494" stroke-width="0.8" />
    <circle cx="176.026" cy="223.052" r="5.97976" fill="#C3C3C3" stroke="#949494" stroke-width="0.8" />
    <circle cx="197.108" cy="201.972" r="5.97976" fill="#C3C3C3" stroke="#949494" stroke-width="0.8" />
    <circle cx="175.472" cy="180.335" r="5.97976" fill="#C3C3C3" stroke="#949494" stroke-width="0.8" />
    <circle cx="153.284" cy="158.143" r="5.97976" fill="#C3C3C3" stroke="#949494" stroke-width="0.8" />
    <circle cx="131.647" cy="136.509" r="5.97976" fill="#C3C3C3" stroke="#949494" stroke-width="0.8" />
    <circle cx="110.565" cy="157.589" r="5.97976" fill="#C3C3C3" stroke="#949494" stroke-width="0.8" />
    <circle cx="218.745" cy="223.604" r="5.97976" fill="#C3C3C3" stroke="#949494" stroke-width="0.8" />
    <circle cx="197.661" cy="245.243" r="5.97976" fill="#C3C3C3" stroke="#949494" stroke-width="0.8" />
    <circle cx="219.298" cy="266.876" r="5.97976" fill="#C3C3C3" stroke="#949494" stroke-width="0.8" />
    <circle cx="240.932" cy="245.798" r="5.97976" fill="#C3C3C3" stroke="#949494" stroke-width="0.8" />
    <path
        d="M38.65 78.3438H31.986V59.5837H38.65C44.446 59.5837 48.142 63.1677 48.142 68.9637C48.142 74.7597 44.446 78.3438 38.65 78.3438ZM38.65 62.2997H35.01V75.6277H38.65C43.13 75.6277 44.922 73.7797 44.922 68.9637C44.922 64.1477 43.13 62.2997 38.65 62.2997ZM63.8823 78.3438H50.4703V59.5837H63.8823V62.2997H53.4943V67.5357H63.4623V70.2797H53.4943V75.6277H63.8823V78.3438ZM74.4517 78.6238C68.9917 78.6238 65.6877 74.8157 65.6877 68.9637C65.6877 63.1117 68.9917 59.3037 74.4517 59.3037C79.4917 59.3037 82.5437 62.1037 82.5437 66.6117V66.7797H79.3237V66.6117C79.3237 63.5317 77.8957 62.2157 74.3677 62.2157C70.4757 62.2157 68.9077 64.0917 68.9077 68.9637C68.9077 73.8357 70.4757 75.7117 74.3677 75.7117C77.8957 75.7117 79.3237 74.3957 79.3237 71.3157V71.1478H82.5437V71.3157C82.5437 75.8237 79.4917 78.6238 74.4517 78.6238ZM98.3628 78.3438H84.9508V59.5837H98.3628V62.2997H87.9748V67.5357H97.9428V70.2797H87.9748V75.6277H98.3628V78.3438ZM103.834 78.3438H100.81V59.5837H104.058L111.17 70.3357L113.158 73.3317H113.382V59.5837H116.406V78.3438H113.158L106.074 67.7597L104.03 64.7077H103.834V78.3438ZM126.974 78.3438H123.978V62.2997H117.594V59.5837H133.358V62.2997H126.974V78.3438ZM137.604 78.3438H134.58V59.5837H142.644C146.788 59.5837 149.392 61.6277 149.392 65.1837C149.392 68.2917 147.488 70.1677 144.184 70.3357V70.5597C145.556 71.0077 146.368 71.8477 147.068 73.1357L149.868 78.3438H146.368L143.708 73.4997C142.84 71.8757 142.056 71.1197 139.816 71.1197H137.604V78.3438ZM137.604 62.2997V68.6277H143.008C145.444 68.6277 146.368 67.7317 146.368 65.4637C146.368 63.2517 145.444 62.2997 143.008 62.2997H137.604ZM153.436 78.3438H150.272L157.58 59.5837H161.92L169.228 78.3438H165.952L164.048 73.4717H155.34L153.436 78.3438ZM158.364 65.7997L156.404 70.7557H162.984L161.024 65.7997L159.82 62.3277H159.596L158.364 65.7997ZM183.502 78.3438H170.482V59.5837H173.506V75.6277H183.502V78.3438ZM187.916 78.3438H184.892V59.5837H187.916V78.3438ZM205.108 78.3438H189.792V75.8237L200.628 62.5238V62.2997H190.352V59.5837H204.688V62.1037L193.824 75.4037V75.6277H205.108V78.3438ZM209.053 78.3438H205.889L213.197 59.5837H217.537L224.845 78.3438H221.569L219.665 73.4717H210.957L209.053 78.3438ZM213.981 65.7997L212.021 70.7557H218.601L216.641 65.7997L215.437 62.3277H215.213L213.981 65.7997ZM231.591 78.3438H228.595V62.2997H222.211V59.5837H237.975V62.2997H231.591V78.3438ZM242.221 78.3438H239.197V59.5837H242.221V78.3438ZM253.471 78.6238C248.123 78.6238 244.707 74.8157 244.707 68.9637C244.707 63.1117 248.123 59.3037 253.471 59.3037C258.791 59.3037 262.207 63.1117 262.207 68.9637C262.207 74.8157 258.791 78.6238 253.471 78.6238ZM253.471 75.7117C257.363 75.7117 258.987 73.8357 258.987 68.9637C258.987 64.0917 257.363 62.2157 253.471 62.2157C249.579 62.2157 247.927 64.0917 247.927 68.9637C247.927 73.8357 249.579 75.7117 253.471 75.7117ZM267.651 78.3438H264.627V59.5837H267.875L274.987 70.3357L276.975 73.3317H277.199V59.5837H280.223V78.3438H276.975L269.891 67.7597L267.847 64.7077H267.651V78.3438ZM296.615 71.3997H287.683V68.8237H296.615V71.3997ZM307.135 78.3438H304.111V59.5837H307.359L314.471 70.3357L316.459 73.3317H316.683V59.5837H319.707V78.3438H316.459L309.375 67.7597L307.331 64.7077H307.135V78.3438ZM330.936 78.6238C325.588 78.6238 322.172 74.8157 322.172 68.9637C322.172 63.1117 325.588 59.3037 330.936 59.3037C336.256 59.3037 339.672 63.1117 339.672 68.9637C339.672 74.8157 336.256 78.6238 330.936 78.6238ZM330.936 75.7117C334.828 75.7117 336.452 73.8357 336.452 68.9637C336.452 64.0917 334.828 62.2157 330.936 62.2157C327.044 62.2157 325.392 64.0917 325.392 68.9637C325.392 73.8357 327.044 75.7117 330.936 75.7117ZM348.755 78.3438H342.091V59.5837H348.755C354.551 59.5837 358.247 63.1677 358.247 68.9637C358.247 74.7597 354.551 78.3438 348.755 78.3438ZM348.755 62.2997H345.115V75.6277H348.755C353.235 75.6277 355.027 73.7797 355.027 68.9637C355.027 64.1477 353.235 62.2997 348.755 62.2997ZM373.988 78.3438H360.576V59.5837H373.988V62.2997H363.6V67.5357H373.568V70.2797H363.6V75.6277H373.988V78.3438ZM388.623 78.3438H381.959V59.5837H388.623C394.419 59.5837 398.115 63.1677 398.115 68.9637C398.115 74.7597 394.419 78.3438 388.623 78.3438ZM388.623 62.2997H384.983V75.6277H388.623C393.103 75.6277 394.895 73.7797 394.895 68.9637C394.895 64.1477 393.103 62.2997 388.623 62.2997ZM403.467 78.3438H400.443V59.5837H403.467V78.3438ZM415.851 78.3438H411.847L404.735 59.5837H408.123L413.779 74.9837H414.003L419.603 59.5837H422.963L415.851 78.3438ZM437.644 78.3438H424.232V59.5837H437.644V62.2997H427.256V67.5357H437.224V70.2797H427.256V75.6277H437.644V78.3438ZM443.115 78.3438H440.091V59.5837H448.155C452.299 59.5837 454.903 61.6277 454.903 65.1837C454.903 68.2917 452.999 70.1677 449.695 70.3357V70.5597C451.067 71.0077 451.879 71.8477 452.579 73.1357L455.379 78.3438H451.879L449.219 73.4997C448.351 71.8757 447.567 71.1197 445.327 71.1197H443.115V78.3438ZM443.115 62.2997V68.6277H448.519C450.955 68.6277 451.879 67.7317 451.879 65.4637C451.879 63.2517 450.955 62.2997 448.519 62.2997H443.115ZM464.66 78.6238C459.256 78.6238 456.904 76.1317 456.904 72.5197V72.0437H459.872V72.3517C459.872 74.6757 460.852 75.8517 464.772 75.8517C467.544 75.8517 468.552 75.0957 468.552 73.3597C468.552 71.6517 467.992 71.0357 465.108 70.4477L461.916 69.8037C458.696 69.1877 456.96 67.6197 456.96 64.6517C456.96 61.8798 459.116 59.3037 463.96 59.3037C469.14 59.3037 471.212 62.2157 471.212 65.5477V65.8837H468.244V65.5757C468.244 63.2797 467.236 62.0757 463.876 62.0757C461.104 62.0757 459.984 62.8597 459.984 64.5117C459.984 66.2197 460.74 66.6957 463.316 67.2557L466.508 67.9277C470.036 68.6557 471.576 70.4197 471.576 73.2477C471.576 76.1877 469.448 78.6238 464.66 78.6238ZM476.776 78.3438H473.752V59.5837H476.776V78.3438ZM487.364 78.3438H484.368V62.2997H477.984V59.5837H493.748V62.2997H487.364V78.3438ZM504.419 78.3438H501.423V71.3717L494.143 59.5837H497.587L501.143 65.3797L502.879 68.3197H503.075L504.783 65.3797L508.311 59.5837H511.727L504.419 71.4277V78.3438ZM526.658 71.3997H517.726V68.8237H526.658V71.3997ZM541.742 78.6238C536.338 78.6238 533.986 76.1317 533.986 72.5197V72.0437H536.954V72.3517C536.954 74.6757 537.934 75.8517 541.854 75.8517C544.626 75.8517 545.634 75.0957 545.634 73.3597C545.634 71.6517 545.074 71.0357 542.19 70.4477L538.998 69.8037C535.778 69.1877 534.042 67.6197 534.042 64.6517C534.042 61.8798 536.198 59.3037 541.042 59.3037C546.222 59.3037 548.294 62.2157 548.294 65.5477V65.8837H545.326V65.5757C545.326 63.2797 544.318 62.0757 540.958 62.0757C538.186 62.0757 537.066 62.8597 537.066 64.5117C537.066 66.2197 537.822 66.6957 540.398 67.2557L543.59 67.9277C547.118 68.6557 548.658 70.4197 548.658 73.2477C548.658 76.1877 546.53 78.6238 541.742 78.6238ZM564.246 78.3438H550.834V59.5837H564.246V62.2997H553.858V67.5357H563.826V70.2797H553.858V75.6277H564.246V78.3438ZM574.815 78.6238C569.355 78.6238 566.051 74.8157 566.051 68.9637C566.051 63.1117 569.355 59.3037 574.815 59.3037C579.855 59.3037 582.907 62.1037 582.907 66.6117V66.7797H579.687V66.6117C579.687 63.5317 578.259 62.2157 574.731 62.2157C570.839 62.2157 569.271 64.0917 569.271 68.9637C569.271 73.8357 570.839 75.7117 574.731 75.7117C578.259 75.7117 579.687 74.3957 579.687 71.3157V71.1478H582.907V71.3157C582.907 75.8237 579.855 78.6238 574.815 78.6238ZM593.238 78.6238C588.142 78.6238 585.258 75.7957 585.258 71.0077V59.5837H588.254V71.0077C588.254 74.3957 589.542 75.7117 593.238 75.7117C596.906 75.7117 598.194 74.3957 598.194 71.0077V59.5837H601.218V71.0077C601.218 75.7957 598.306 78.6238 593.238 78.6238ZM607.369 78.3438H604.345V59.5837H612.409C616.553 59.5837 619.157 61.6277 619.157 65.1837C619.157 68.2917 617.253 70.1677 613.949 70.3357V70.5597C615.321 71.0077 616.133 71.8477 616.833 73.1357L619.633 78.3438H616.133L613.473 73.4997C612.605 71.8757 611.821 71.1197 609.581 71.1197H607.369V78.3438ZM607.369 62.2997V68.6277H612.773C615.209 68.6277 616.133 67.7317 616.133 65.4637C616.133 63.2517 615.209 62.2997 612.773 62.2997H607.369ZM624.377 78.3438H621.353V59.5837H624.377V78.3438ZM634.966 78.3438H631.97V62.2997H625.586V59.5837H641.35V62.2997H634.966V78.3438ZM652.02 78.3438H649.024V71.3717L641.744 59.5837H645.188L648.744 65.3797L650.48 68.3197H650.676L652.384 65.3797L655.912 59.5837H659.328L652.02 71.4277V78.3438Z"
        fill="white" />
</svg>