<svg fill="none" height="229" viewBox="0 0 233 229" width="233" xmlns="http://www.w3.org/2000/svg" xmlns:xlink="http://www.w3.org/1999/xlink"><linearGradient id="a" gradientUnits="userSpaceOnUse" x1="116.5" x2="116.5" y1=".368164" y2="228.514"><stop offset="0" stop-color="#00e0ff"/><stop offset="1" stop-color="#00e0ff" stop-opacity="0"/></linearGradient><path d="m116.281.368164c-8.743 0-17.4855.865826-26.2285 3.030396v1.29874 140.6967c0 3.031-2.6229 5.195-5.2458 5.195h-10.4915c-2.1857 0-3.9343-1.731-3.9343-3.896v-137.23365c-41.5291 17.31655-70.3809 58.01045-70.3809 104.76465 0 63.206 52.0206 114.29 116.719 114.29 64.698 0 116.281-51.084 116.281-113.857 0-62.7721-52.458-114.288836-116.719-114.288836zm-2.185 161.476836c0 2.597-2.186 4.762-4.809 4.762h-10.4915c-2.6229 0-4.8086-2.165-4.8086-4.762v-72.2966c0-2.5975 2.1857-4.7621 4.8086-4.7621h10.4915c2.623 0 4.809 2.1646 4.809 4.7621zm23.606 6.927c0 2.597-2.186 4.762-4.809 4.762h-10.491c-2.623 0-4.809-2.165-4.809-4.762v-86.1502c0-2.5975 2.186-4.7621 4.809-4.7621h10.491c2.623 0 4.809 2.1646 4.809 4.7621zm23.606-12.988c0 2.598-2.186 4.762-4.809 4.762h-10.491c-2.623 0-4.809-2.164-4.809-4.762v-59.309c0-2.5975 2.186-4.7621 4.809-4.7621h10.491c2.623 0 4.809 2.1646 4.809 4.7621z" fill="#ff005c"/><path d="m116.281.368164c-8.743 0-17.4855.865826-26.2285 3.030396v1.29874 140.6967c0 3.031-2.6229 5.195-5.2458 5.195h-10.4915c-2.1857 0-3.9343-1.731-3.9343-3.896v-137.23365c-41.5291 17.31655-70.3809 58.01045-70.3809 104.76465 0 63.206 52.0206 114.29 116.719 114.29 64.698 0 116.281-51.084 116.281-113.857 0-62.7721-52.458-114.288836-116.719-114.288836zm-2.185 161.476836c0 2.597-2.186 4.762-4.809 4.762h-10.4915c-2.6229 0-4.8086-2.165-4.8086-4.762v-72.2966c0-2.5975 2.1857-4.7621 4.8086-4.7621h10.4915c2.623 0 4.809 2.1646 4.809 4.7621zm23.606 6.927c0 2.597-2.186 4.762-4.809 4.762h-10.491c-2.623 0-4.809-2.165-4.809-4.762v-86.1502c0-2.5975 2.186-4.7621 4.809-4.7621h10.491c2.623 0 4.809 2.1646 4.809 4.7621zm23.606-12.988c0 2.598-2.186 4.762-4.809 4.762h-10.491c-2.623 0-4.809-2.164-4.809-4.762v-59.309c0-2.5975 2.186-4.7621 4.809-4.7621h10.491c2.623 0 4.809 2.1646 4.809 4.7621z" fill="url(#a)" fill-opacity=".4"/></svg>