<svg width="211" height="210" viewBox="0 0 211 210" fill="none" xmlns="http://www.w3.org/2000/svg">
<rect y="0.96875" width="210.75" height="209" fill="black"/>
<mask id="mask0_2471_7510" style="mask-type:alpha" maskUnits="userSpaceOnUse" x="42" y="43" width="127" height="103">
<path fill-rule="evenodd" clip-rule="evenodd" d="M42.4202 43.4766H168.457V145.662H42.4202V43.4766Z" fill="white"/>
</mask>
<g mask="url(#mask0_2471_7510)">
<path fill-rule="evenodd" clip-rule="evenodd" d="M57.1782 141.866C53.4329 133.797 51.3409 124.795 51.3409 115.3C51.3409 80.5915 79.2987 52.4546 113.786 52.4546C132.99 52.4546 150.168 61.1789 161.623 74.9034L168.457 69.1325C155.365 53.4472 135.733 43.4766 113.786 43.4766C74.372 43.4766 42.4202 75.6332 42.4202 115.3C42.4202 126.151 44.8109 136.44 49.0913 145.662L57.1782 141.866Z" fill="white"/>
</g>
<path fill-rule="evenodd" clip-rule="evenodd" d="M113.786 157.946C90.3841 157.946 71.4128 138.853 71.4128 115.301C71.4128 91.7487 90.3841 72.6557 113.786 72.6557C126.817 72.6557 138.472 78.5773 146.245 87.8904L153.081 82.118C143.671 70.8442 129.561 63.6777 113.786 63.6777C85.4573 63.6777 62.4919 86.7903 62.4919 115.301C62.4919 143.812 85.4573 166.924 113.786 166.924V157.946Z" fill="white"/>
<path fill-rule="evenodd" clip-rule="evenodd" d="M129.162 128.285C125.48 132.696 119.959 135.501 113.786 135.501C102.701 135.501 93.7146 126.457 93.7146 115.301C93.7146 104.144 102.701 95.1002 113.786 95.1002C119.959 95.1002 125.48 97.9052 129.162 102.317L136.849 95.8247C131.326 89.2075 123.045 85 113.786 85C97.1584 85 83.6787 98.5661 83.6787 115.301C83.6787 132.035 97.1584 145.601 113.786 145.601C122.272 145.601 129.934 142.066 135.406 136.382L129.162 128.285Z" fill="white"/>
</svg>
