<svg width="800" height="800" viewBox="0 0 800 800" fill="none" xmlns="http://www.w3.org/2000/svg">
<g clip-path="url(#clip0_5302_149)">
<circle cx="400" cy="400" r="400" fill="white"/>
<mask id="mask0_5302_149" style="mask-type:luminance" maskUnits="userSpaceOnUse" x="95" y="95" width="532" height="442">
<path fill-rule="evenodd" clip-rule="evenodd" d="M95.2378 95.2376H626.642V536.228H95.2378V95.2376Z" fill="white"/>
</mask>
<g mask="url(#mask0_5302_149)">
<path fill-rule="evenodd" clip-rule="evenodd" d="M157.462 519.85C141.671 485.026 132.85 446.174 132.85 405.201C132.85 255.411 250.728 133.983 396.138 133.983C477.104 133.983 549.532 171.634 597.83 230.864L626.642 205.959C571.446 138.267 488.671 95.2376 396.138 95.2376C229.955 95.2376 95.2378 234.013 95.2378 405.201C95.2378 452.027 105.318 496.429 123.365 536.228L157.462 519.85Z" fill="black"/>
</g>
<path fill-rule="evenodd" clip-rule="evenodd" d="M396.137 589.279C297.467 589.279 217.479 506.881 217.479 405.239C217.479 303.596 297.467 221.198 396.137 221.198C451.079 221.198 500.219 246.753 532.992 286.945L561.813 262.033C522.14 213.38 462.646 182.453 396.137 182.453C276.694 182.453 179.866 282.197 179.866 405.239C179.866 528.28 276.694 628.024 396.137 628.024V589.279Z" fill="black"/>
<path fill-rule="evenodd" clip-rule="evenodd" d="M460.963 461.233C445.439 480.271 422.162 492.376 396.137 492.376C349.398 492.376 311.509 453.345 311.509 405.198C311.509 357.052 349.398 318.021 396.137 318.021C422.162 318.021 445.439 330.127 460.963 349.165L493.376 321.148C470.09 292.591 435.175 274.433 396.137 274.433C326.029 274.433 269.195 332.979 269.195 405.198C269.195 477.418 326.029 535.965 396.137 535.965C431.913 535.965 464.22 520.707 487.293 496.178L460.963 461.233Z" fill="black"/>
</g>
<defs>
<clipPath id="clip0_5302_149">
<rect width="800" height="800" fill="white"/>
</clipPath>
</defs>
</svg>
