<svg width="201" height="200" viewBox="0 0 201 200" fill="none" xmlns="http://www.w3.org/2000/svg">
<g clip-path="url(#clip0_702_777)">
<path d="M10.8507 124.728C6.37568 120.254 3.37454 115.086 1.84734 109.226C0.355656 103.331 0.355655 97.4358 1.84734 91.5405C3.37454 85.6097 6.35787 80.4247 10.7974 75.9855C15.308 71.4752 20.5111 68.4743 26.4069 66.9827C32.3026 65.4911 38.1983 65.4911 44.094 66.9827C49.9897 68.4743 55.1751 71.4575 59.6501 75.9323L70.7312 87.0126L87.1397 70.6051L76.0585 59.5248C71.5835 55.0501 68.5823 49.8828 67.0551 44.023C65.5634 38.1277 65.5458 32.2502 67.002 26.3904C68.4937 20.4951 71.4948 15.2923 76.0054 10.782C80.4804 6.3073 85.6658 3.32418 91.5615 1.8326C97.4572 0.341019 103.335 0.358727 109.195 1.88582C115.091 3.3774 120.276 6.36062 124.752 10.8354C129.227 15.3101 132.21 20.4951 133.702 26.3904C135.229 32.2502 135.246 38.1277 133.755 44.023C132.299 49.9538 129.333 55.1566 124.858 59.6314L113.83 70.6584L130.185 87.0126L141.213 75.9855C145.688 71.5107 150.856 68.5098 156.716 66.9827C162.612 65.4911 168.49 65.5088 174.35 67.0359C180.246 68.5275 185.449 71.5285 189.959 76.0388C194.434 80.5135 197.418 85.6985 198.909 91.5938C200.437 97.4536 200.437 103.313 198.909 109.173C197.418 115.069 194.434 120.254 189.959 124.728C185.449 129.239 180.246 132.239 174.35 133.731C168.49 135.187 162.612 135.169 156.716 133.678C150.891 132.186 145.742 129.203 141.266 124.728L130.239 113.701L113.83 130.109L124.858 141.136C129.333 145.61 132.299 150.778 133.755 156.637C135.246 162.533 135.246 168.428 133.755 174.323C132.263 180.219 129.262 185.421 124.752 189.932C120.312 194.371 115.126 197.354 109.195 198.881C103.3 200.373 97.4039 200.373 91.5082 198.881C85.6835 197.39 80.5336 194.406 76.0585 189.932C71.5479 185.421 68.5292 180.236 67.002 174.377C65.5103 168.481 65.5103 162.586 67.002 156.691C68.5647 150.795 71.5658 145.628 76.0054 141.189L87.1397 130.055L70.7845 113.701L59.6501 124.835C55.2106 129.274 50.0074 132.239 44.0407 133.731C38.145 135.223 32.2493 135.223 26.3536 133.731C20.4934 132.204 15.3258 129.203 10.8507 124.728ZM24.1693 111.411C26.1937 113.435 28.5378 114.784 31.2015 115.459C33.9008 116.169 36.5823 116.187 39.246 115.512C41.9097 114.838 44.2538 113.488 46.2782 111.464L57.4126 100.33L46.3315 89.2499C44.307 87.2256 41.9452 85.8939 39.246 85.2546C36.5823 84.5799 33.9186 84.5799 31.2548 85.2546C28.5911 85.9294 26.2292 87.2966 24.1693 89.3564C22.1449 91.3807 20.7775 93.7069 20.0672 96.335C19.3924 98.9985 19.3924 101.662 20.0672 104.326C20.7775 107.025 22.1449 109.386 24.1693 111.411ZM89.3773 46.2071L100.458 57.2874L111.486 46.2604C113.546 44.2006 114.896 41.8567 115.535 39.2287C116.21 36.5651 116.192 33.8838 115.482 31.1847C114.807 28.5212 113.457 26.1773 111.433 24.153C109.408 22.1287 107.064 20.7792 104.401 20.1044C101.737 19.4297 99.0732 19.4297 96.4095 20.1044C93.7813 20.7437 91.4372 22.0932 89.3773 24.153C87.3528 26.1773 85.9677 28.5212 85.2219 31.1847C84.547 33.8483 84.547 36.5118 85.2219 39.1753C85.9677 41.8389 87.3528 44.1828 89.3773 46.2071ZM140.437 100.384L151.465 111.411C153.489 113.435 155.816 114.802 158.444 115.512C161.108 116.187 166.874 116.169 169.502 115.459C172.166 114.784 174.527 113.417 176.587 111.357C178.647 109.298 179.997 106.954 180.636 104.326C181.347 101.698 181.365 99.0517 180.69 96.3882C180.015 93.7246 178.665 91.3807 176.641 89.3564C174.581 87.2966 172.219 85.9294 169.555 85.2546C166.891 84.5799 161.108 84.5799 158.444 85.2546C155.851 85.9294 153.525 87.2966 151.465 89.3564L140.437 100.384ZM89.3773 176.614C91.4017 178.638 93.7458 179.988 96.4095 180.663C99.0732 181.337 101.719 181.319 104.347 180.609C107.011 179.934 109.355 178.585 111.379 176.561C113.439 174.501 114.807 172.139 115.482 169.476C116.192 166.848 116.21 164.202 115.535 161.538C114.896 158.839 113.564 156.478 111.539 154.453L100.512 143.426L89.3773 154.56C87.3528 156.584 85.9853 158.91 85.275 161.538C84.6002 164.202 84.6002 166.865 85.275 169.529C85.9498 172.192 87.3173 174.554 89.3773 176.614ZM84.1031 100.384L100.458 116.738L116.867 100.33L100.512 83.9761L84.1031 100.384Z" fill="black"/>
</g>
<defs>
<clipPath id="clip0_702_777">
<rect width="200.054" height="200" fill="white"/>
</clipPath>
</defs>
</svg>
