<svg viewBox="0 0 44 44" fill="none" xmlns="http://www.w3.org/2000/svg">
<rect width="44" height="44" rx="22" fill="black"/>
<path d="M21.3343 7.63147V11.9023C21.3343 12.9726 20.9093 13.9991 20.1525 14.756L17.7693 17.14C17.444 17.4664 17.1573 17.8303 16.918 18.2206C16.3888 19.0984 16.1108 20.1106 16.1108 21.1493C16.1108 22.6645 16.6986 24.0847 17.7693 25.1521L22.3049 29.69C23.0469 30.4326 23.4636 31.4394 23.4636 32.4891V36.7922L14.7965 28.1261C12.9693 26.3001 11.9449 23.8697 11.9085 21.2839C11.8732 18.6341 12.9848 15.9833 14.9575 14.0105L21.3343 7.63147Z" fill="url(#paint0_linear_278_6212)"/>
<path d="M32.6065 20.9958C32.6385 23.177 31.978 25.2533 30.6934 26.9978C30.6493 27.0573 30.604 27.1168 30.5566 27.1764C30.3052 27.5017 30.0207 27.8204 29.7164 28.1269L29.3712 28.472C29.369 28.4731 29.3679 28.4743 29.3657 28.4765L27.64 30.2022L24.6716 27.2337L26.7468 25.153C27.0368 24.8652 27.3048 24.5322 27.543 24.1627C27.5617 24.1341 27.5805 24.1043 27.5992 24.0745C28.1274 23.2034 28.4064 22.1922 28.4064 21.1491C28.4064 19.634 27.8176 18.2115 26.7469 17.1397L24.3676 14.7626C23.6099 14.0056 23.1841 12.9783 23.1841 11.9072V7.64001L29.5641 14.0202C31.4873 15.9433 32.5679 18.421 32.6065 20.9958Z" fill="url(#paint1_linear_278_6212)"/>
<path d="M30.5561 27.1768C30.3047 27.5021 30.0202 27.8208 29.7158 28.1273L29.3707 28.4724C29.3685 28.4735 29.3673 28.4746 29.3652 28.4769L27.6395 30.2026L21.5376 24.1007C20.8129 23.376 20.4058 22.3931 20.4058 21.3682V17.0265L30.5561 27.1768Z" fill="url(#paint2_linear_278_6212)"/>
<defs>
<linearGradient id="paint0_linear_278_6212" x1="17.8496" y1="8.95993" x2="17.3605" y2="68.6337" gradientUnits="userSpaceOnUse">
<stop stop-color="white"/>
<stop offset="1"/>
</linearGradient>
<linearGradient id="paint1_linear_278_6212" x1="28.5492" y1="22.8649" x2="14.9514" y2="-4.23279" gradientUnits="userSpaceOnUse">
<stop stop-color="white"/>
<stop offset="1"/>
</linearGradient>
<linearGradient id="paint2_linear_278_6212" x1="18.5687" y1="18.1255" x2="39.4056" y2="39.0602" gradientUnits="userSpaceOnUse">
<stop stop-color="white"/>
<stop offset="1"/>
</linearGradient>
</defs>
</svg>
