<svg xmlns="http://www.w3.org/2000/svg" height="256pt" preserveAspectRatio="xMidYMid meet" viewBox="0 0 256 256" width="256pt"><script xmlns=""/><g transform="matrix(.1 0 0 -.1 0 256)"><path d="m1095 2545c-341-54-627-226-839-504-31-40-56-77-56-82s21 4 48 20c26 16 252 147 502 291 536 309 506 290 460 289-19-1-71-7-115-14z"/><path d="m1335 2546c11-7 241-140 510-296 270-155 503-292 519-303l29-20-19 29c-173 274-461 485-770 563-80 20-214 41-262 41-25 0-26-1-7-14z"/><path d="m785 2064c-214-124-400-232-413-240l-22-14v-475c0-261 2-475 4-475s36 18 75 41l71 41v382c0 322 2 385 15 403 8 12 161 106 340 209l325 188v83c0 46-1 83-2 83-2 0-178-102-393-226z"/><path d="m1380 1813v-478l407-235c223-129 410-236 414-238 5-2 9 210 9 471 0 368-3 477-12 485-12 9-745 434-795 461l-23 12z"/><path d="m993 1792c-100-59-183-111-184-116 0-6 83-58 185-117l186-108v224c0 124-1 225-2 224-2-1-85-49-185-107z"/><path d="m2400 1278v-627l-22-25c-13-13-243-151-513-306-269-155-503-291-520-302l-30-19 105 5c436 21 879 352 1054 787 73 180 81 228 81 484 0 219-1 235-27 326-27 96-98 273-118 293-7 7-10-180-10-616z"/><path d="m121 1819c-86-193-116-331-116-544 0-215 34-370 120-550l33-70 1 618c1 339-1 617-3 617s-18-32-35-71z"/><path d="m700 1280v-222l59 34c257 147 321 184 321 188s-64 41-321 188l-59 34z"/><path d="m955 979c-171-99-352-203-402-232-51-29-93-54-93-57s185-112 410-242l410-237 410 237c226 130 410 239 410 242-1 9-807 470-821 470-8-1-153-82-324-181z"/><path d="m198 591c9-14 44-62 78-106 212-275 552-463 869-482 55-3 98-3 95 0s-242 142-532 310c-389 225-523 298-510 278z"/></g></svg>