<svg width="26" height="26" viewBox="0 0 26 26" fill="none" xmlns="http://www.w3.org/2000/svg">
  <path opacity="0.2" d="M6.04928 20.1629L7.06026 24L14 12.5L7.06026 1L6 4.75389L10.6098 12.4979L6.04928 20.1629Z" fill="#FF564F" />
  <path d="M23 24H19.1387L11 12.499L19.1387 1H23L14.9759 12.499L23 24Z" fill="#F08179" />
  <path d="M3 1H7V24H3V1Z" fill="#FF564F" />
  <path d="M23 23.4979H18.99L10.538 12.2979L18.99 1.09998H23L14.667 12.2979L23 23.4979Z" fill="#FF564F" />
  <path d="M23 23.4979H18.99L10.538 12.2979L18.99 1.09998H23L14.667 12.2979L23 23.4979Z" fill="#FF564F" />
  <path d="M23 23.4979H18.99L10.538 12.2979L18.99 1.09998H23L14.667 12.2979L23 23.4979Z" fill="#FF564F" />
  <path d="M23 23.4979H18.99L10.538 12.2979L18.99 1.09998H23L14.667 12.2979L23 23.4979Z" fill="#FF564F" />
</svg>
  