<svg id="svg" version="1.1" xmlns="http://www.w3.org/2000/svg" xmlns:xlink="http://www.w3.org/1999/xlink" width="400" height="400" viewBox="0, 0, 400,400"><g id="svgg"><path id="path0" d="M257.874 104.614 C 255.313 104.987,253.939 105.411,252.852 106.164 C 252.030 106.734,251.205 107.200,251.020 107.200 C 249.414 107.200,241.725 114.263,240.245 117.098 C 235.959 125.305,236.000 125.159,236.000 132.046 C 236.000 137.808,236.071 138.414,236.933 140.040 C 237.447 141.008,237.989 142.290,238.138 142.890 C 238.288 143.489,238.858 144.639,239.405 145.445 C 239.952 146.252,240.400 147.105,240.400 147.342 C 240.400 148.159,247.458 155.200,248.277 155.200 C 248.565 155.200,249.131 155.515,249.536 155.900 C 253.587 159.750,270.230 161.449,274.408 158.439 C 274.962 158.039,275.817 157.585,276.307 157.429 C 277.232 157.136,281.248 154.549,281.600 154.020 C 281.710 153.855,282.176 153.522,282.636 153.280 C 283.095 153.039,284.265 151.797,285.236 150.520 C 286.206 149.244,287.133 148.141,287.295 148.068 C 287.458 147.996,287.954 147.114,288.399 146.110 C 288.843 145.105,289.452 144.085,289.753 143.842 C 290.275 143.419,290.647 141.861,291.818 135.200 C 292.268 132.640,292.257 131.701,291.744 128.800 C 291.413 126.930,290.964 124.320,290.746 123.000 C 290.529 121.680,290.019 120.240,289.614 119.800 C 289.208 119.360,288.599 118.325,288.259 117.500 C 287.919 116.675,287.456 116.000,287.231 116.000 C 287.005 116.000,286.559 115.505,286.239 114.900 C 285.056 112.663,278.484 107.231,276.931 107.207 C 276.673 107.203,275.924 106.748,275.267 106.195 C 273.063 104.341,264.871 103.596,257.874 104.614 M123.067 133.467 C 122.734 133.800,122.710 279.700,123.043 280.567 C 123.263 281.141,129.835 281.200,193.414 281.200 L 263.542 281.200 263.791 279.100 C 263.928 277.945,263.986 271.870,263.920 265.600 L 263.800 254.200 209.400 254.000 C 166.111 253.841,154.816 253.695,154.100 253.286 L 153.200 252.772 153.200 193.466 C 153.200 147.872,153.089 134.049,152.720 133.680 C 152.198 133.158,123.581 132.952,123.067 133.467 " stroke="none" fill="#f9f9f9" fill-rule="evenodd"></path><path id="path1" d="M257.424 101.496 C 256.530 101.588,255.348 102.078,254.693 102.629 C 254.038 103.180,253.025 103.600,252.350 103.600 C 251.608 103.600,250.826 103.962,250.267 104.566 C 249.774 105.097,248.689 105.660,247.854 105.816 C 246.821 106.010,246.202 106.397,245.914 107.030 C 245.681 107.541,245.110 108.013,244.645 108.079 C 244.134 108.152,243.751 108.541,243.677 109.062 C 243.603 109.586,243.172 110.021,242.583 110.168 C 242.005 110.314,241.515 110.800,241.371 111.371 C 241.229 111.941,240.738 112.429,240.165 112.573 C 239.634 112.706,239.200 113.083,239.200 113.410 C 239.200 113.738,238.752 114.395,238.205 114.871 C 237.509 115.475,237.132 116.318,236.953 117.668 C 236.792 118.885,236.499 119.600,236.163 119.600 C 235.418 119.600,234.951 120.657,234.650 123.022 C 234.509 124.134,234.035 125.747,233.597 126.607 C 232.257 129.234,232.605 138.400,234.044 138.400 C 234.218 138.400,234.486 139.515,234.641 140.879 C 234.842 142.661,235.174 143.610,235.822 144.258 C 236.317 144.754,236.846 145.888,236.996 146.778 C 237.166 147.784,237.635 148.684,238.235 149.156 C 238.766 149.574,239.200 150.208,239.200 150.566 C 239.200 150.924,239.630 151.413,240.156 151.653 C 240.682 151.892,241.301 152.503,241.532 153.009 C 241.762 153.516,242.303 154.042,242.732 154.179 C 243.162 154.315,243.606 154.778,243.718 155.208 C 243.831 155.638,244.345 156.156,244.861 156.359 C 245.378 156.561,246.105 157.093,246.477 157.541 C 246.849 157.989,247.788 158.474,248.563 158.619 C 249.442 158.784,250.063 159.169,250.213 159.641 C 250.451 160.392,250.806 160.530,253.700 160.995 C 254.525 161.128,255.200 161.386,255.200 161.570 C 255.200 163.381,270.821 163.591,272.793 161.806 C 273.221 161.419,274.433 160.942,275.486 160.746 C 276.539 160.550,277.670 160.052,278.000 159.641 C 278.330 159.229,279.237 158.690,280.016 158.443 C 280.795 158.196,282.364 157.104,283.504 156.017 C 284.643 154.930,285.941 153.846,286.388 153.607 C 286.835 153.367,287.200 152.980,287.200 152.746 C 287.200 152.512,287.740 151.817,288.400 151.200 C 289.067 150.577,289.603 149.662,289.606 149.140 C 289.613 148.015,289.974 147.425,290.849 147.103 C 291.205 146.972,291.624 146.355,291.778 145.732 C 291.933 145.110,292.411 144.223,292.840 143.763 C 294.953 141.499,295.028 123.336,292.937 120.494 C 292.494 119.892,292.004 118.886,291.848 118.258 C 291.691 117.630,291.246 117.032,290.858 116.931 C 290.420 116.817,289.967 116.056,289.667 114.933 C 289.364 113.802,288.914 113.050,288.469 112.934 C 288.076 112.831,287.556 112.219,287.313 111.574 C 287.034 110.835,286.584 110.400,286.099 110.400 C 285.673 110.400,285.132 109.969,284.889 109.435 C 284.647 108.904,284.078 108.352,283.624 108.208 C 283.171 108.064,282.800 107.695,282.800 107.387 C 282.800 106.689,281.824 106.153,279.893 105.791 C 279.042 105.631,278.400 105.278,278.400 104.970 C 278.400 104.222,277.107 103.600,275.552 103.600 C 274.777 103.600,273.886 103.257,273.347 102.750 C 271.883 101.375,264.376 100.784,257.424 101.496 M271.459 102.856 C 271.867 103.218,272.960 103.638,273.890 103.790 C 274.819 103.942,276.349 104.588,277.290 105.226 C 278.230 105.864,279.274 106.389,279.609 106.393 C 279.944 106.397,281.282 107.390,282.582 108.600 C 283.882 109.810,285.083 110.800,285.250 110.800 C 285.669 110.800,289.600 116.064,289.600 116.624 C 289.600 116.873,289.953 117.396,290.385 117.786 C 290.817 118.177,291.375 119.150,291.625 119.948 C 291.875 120.747,292.464 122.210,292.934 123.200 C 295.139 127.846,293.745 141.991,290.746 145.405 C 290.357 145.848,289.755 146.888,289.410 147.715 C 288.711 149.386,288.426 149.757,285.699 152.533 C 282.562 155.725,281.810 156.400,281.392 156.400 C 281.172 156.400,280.778 156.744,280.515 157.164 C 280.253 157.584,279.498 158.047,278.838 158.192 C 278.178 158.337,277.175 158.820,276.609 159.265 C 273.682 161.567,261.500 163.015,257.915 161.487 C 257.099 161.138,255.623 160.732,254.636 160.584 C 253.648 160.436,252.256 159.884,251.543 159.358 C 250.829 158.831,250.010 158.400,249.722 158.400 C 249.435 158.400,248.850 158.050,248.421 157.621 C 247.993 157.193,247.127 156.576,246.496 156.250 C 244.887 155.418,239.775 150.187,239.189 148.775 C 238.922 148.129,238.559 147.600,238.384 147.600 C 238.208 147.600,237.753 146.655,237.373 145.500 C 236.993 144.345,236.358 142.982,235.961 142.472 C 235.565 141.961,235.124 140.701,234.981 139.672 C 234.839 138.642,234.462 136.496,234.145 134.902 C 233.711 132.720,233.672 131.617,233.989 130.441 C 234.220 129.582,234.588 127.466,234.806 125.739 C 235.044 123.857,235.497 122.200,235.939 121.600 C 236.344 121.050,236.929 119.880,237.238 119.000 C 238.415 115.649,240.799 112.576,245.139 108.814 C 247.450 106.812,248.698 106.035,249.638 106.014 C 249.989 106.006,250.602 105.639,251.002 105.198 C 251.401 104.757,252.463 104.211,253.364 103.985 C 254.264 103.758,255.450 103.360,256.000 103.100 C 258.051 102.131,258.736 102.054,264.659 102.126 C 269.637 102.187,270.851 102.317,271.459 102.856 M121.680 130.880 C 121.310 131.250,121.200 148.710,121.200 207.034 L 121.200 282.708 122.186 283.354 C 123.860 284.451,262.967 284.314,264.400 283.214 L 265.400 282.447 265.523 268.510 C 265.602 259.585,265.498 254.183,265.233 253.487 L 264.820 252.400 210.610 252.400 L 156.400 252.400 156.400 192.826 C 156.400 133.384,156.360 131.532,155.075 130.714 C 154.228 130.176,122.225 130.335,121.680 130.880 M153.576 131.388 C 155.663 132.467,155.600 130.540,155.600 193.417 C 155.600 246.755,155.660 252.337,156.233 252.557 C 156.581 252.691,181.054 252.800,210.619 252.800 C 264.007 252.800,264.375 252.805,264.801 253.602 C 265.486 254.883,265.163 281.282,264.451 282.139 C 263.522 283.257,122.613 283.145,122.014 282.026 C 121.251 280.601,121.456 132.783,122.223 131.689 L 122.845 130.800 137.643 130.800 C 149.877 130.800,152.637 130.902,153.576 131.388 " stroke="none" fill="#242424" fill-rule="evenodd"></path><path id="path2" d="M257.600 103.776 C 248.697 105.910,242.388 111.089,237.943 119.912 L 235.400 124.961 235.400 131.980 C 235.400 138.596,235.455 139.103,236.350 140.800 C 236.872 141.790,237.536 143.266,237.825 144.081 C 240.077 150.421,249.267 158.465,256.000 159.988 C 262.107 161.371,272.851 160.627,275.813 158.617 C 276.637 158.058,277.532 157.600,277.801 157.600 C 278.235 157.600,280.378 156.112,281.972 154.705 C 282.286 154.427,282.944 153.928,283.434 153.597 C 284.603 152.805,288.800 147.675,288.800 147.038 C 288.800 146.766,289.335 145.835,289.989 144.971 C 290.643 144.107,291.185 143.130,291.194 142.800 C 291.203 142.470,291.574 141.040,292.018 139.622 C 293.778 134.007,292.611 122.782,289.827 118.556 C 285.909 112.608,282.265 108.947,278.264 106.943 C 277.129 106.374,275.918 105.661,275.573 105.359 C 273.203 103.279,263.310 102.408,257.600 103.776 M269.937 104.603 C 273.241 105.072,274.314 105.393,275.267 106.195 C 275.924 106.748,276.673 107.203,276.931 107.207 C 278.484 107.231,285.056 112.663,286.239 114.900 C 286.559 115.505,287.005 116.000,287.231 116.000 C 287.456 116.000,287.919 116.675,288.259 117.500 C 288.599 118.325,289.208 119.360,289.614 119.800 C 290.019 120.240,290.529 121.680,290.746 123.000 C 290.964 124.320,291.413 126.930,291.744 128.800 C 292.257 131.701,292.268 132.640,291.818 135.200 C 290.647 141.861,290.275 143.419,289.753 143.842 C 289.452 144.085,288.843 145.105,288.399 146.110 C 287.954 147.114,287.458 147.996,287.295 148.068 C 287.133 148.141,286.206 149.244,285.236 150.520 C 284.265 151.797,283.095 153.039,282.636 153.280 C 282.176 153.522,281.710 153.855,281.600 154.020 C 281.248 154.549,277.232 157.136,276.307 157.429 C 275.817 157.585,274.962 158.039,274.408 158.439 C 270.230 161.449,253.587 159.750,249.536 155.900 C 249.131 155.515,248.565 155.200,248.277 155.200 C 247.458 155.200,240.400 148.159,240.400 147.342 C 240.400 147.105,239.952 146.252,239.405 145.445 C 238.858 144.639,238.288 143.489,238.138 142.890 C 237.989 142.290,237.447 141.008,236.933 140.040 C 236.071 138.414,236.000 137.808,236.000 132.046 C 236.000 125.159,235.959 125.305,240.245 117.098 C 241.725 114.263,249.414 107.200,251.020 107.200 C 251.205 107.200,252.030 106.734,252.852 106.164 C 255.568 104.282,262.941 103.608,269.937 104.603 M122.574 133.400 C 121.908 134.995,121.877 279.940,122.543 281.300 C 123.107 282.453,263.369 282.380,263.986 281.226 C 264.609 280.062,264.547 254.307,263.920 253.680 C 263.551 253.311,250.975 253.200,209.746 253.200 C 175.827 253.200,155.674 253.056,155.026 252.810 L 154.000 252.420 154.000 193.085 C 154.000 133.926,153.998 133.748,153.184 132.875 C 152.374 132.006,152.273 132.000,137.764 132.000 L 123.159 132.000 122.574 133.400 M152.720 133.680 C 153.089 134.049,153.200 147.872,153.200 193.466 L 153.200 252.772 154.100 253.286 C 154.816 253.695,166.111 253.841,209.400 254.000 L 263.800 254.200 263.920 265.600 C 263.986 271.870,263.928 277.945,263.791 279.100 L 263.542 281.200 193.414 281.200 C 129.835 281.200,123.263 281.141,123.043 280.567 C 122.710 279.700,122.734 133.800,123.067 133.467 C 123.581 132.952,152.198 133.158,152.720 133.680 " stroke="none" fill="#8c8c8c" fill-rule="evenodd"></path><path id="path3" d="M292.893 130.800 C 292.893 131.570,292.975 131.885,293.076 131.500 C 293.176 131.115,293.176 130.485,293.076 130.100 C 292.975 129.715,292.893 130.030,292.893 130.800 M292.901 133.800 C 292.905 134.680,292.987 134.993,293.083 134.495 C 293.179 133.998,293.175 133.278,293.075 132.895 C 292.975 132.513,292.896 132.920,292.901 133.800 M154.096 193.276 C 154.043 225.768,154.135 252.436,154.300 252.538 C 154.571 252.706,154.570 212.319,154.296 155.600 C 154.239 143.830,154.149 160.784,154.096 193.276 " stroke="none" fill="#848484" fill-rule="evenodd"></path><path id="path4" d="M0.000 200.000 L 0.000 400.000 200.000 400.000 L 400.000 400.000 400.000 200.000 L 400.000 0.000 200.000 0.000 L 0.000 0.000 0.000 200.000 M273.739 102.475 C 274.401 103.302,275.015 103.578,276.400 103.675 C 277.816 103.773,278.284 103.992,278.595 104.700 C 278.832 105.241,279.341 105.600,279.869 105.600 C 281.313 105.600,282.864 106.358,283.076 107.168 C 283.185 107.585,283.631 108.019,284.067 108.133 C 284.503 108.247,284.954 108.703,285.070 109.145 C 285.185 109.588,285.802 110.132,286.440 110.354 C 287.145 110.600,287.600 111.043,287.600 111.484 C 287.600 111.884,288.005 112.388,288.500 112.605 C 289.111 112.873,289.537 113.566,289.825 114.763 C 290.119 115.981,290.521 116.627,291.125 116.851 C 291.705 117.065,292.000 117.511,292.000 118.173 C 292.000 118.757,292.327 119.347,292.786 119.593 C 295.149 120.857,295.202 142.009,292.849 144.564 C 292.426 145.024,292.016 145.760,291.938 146.200 C 291.859 146.640,291.406 147.171,290.931 147.380 C 290.311 147.653,289.993 148.253,289.806 149.502 C 289.611 150.797,289.304 151.352,288.603 151.671 C 288.085 151.907,287.554 152.528,287.423 153.050 C 287.271 153.655,286.893 154.000,286.382 154.000 C 285.893 154.000,285.431 154.393,285.196 155.010 C 284.985 155.566,284.494 156.134,284.106 156.272 C 283.718 156.411,283.039 156.957,282.598 157.487 C 282.084 158.104,281.212 158.528,280.174 158.667 C 279.035 158.820,278.441 159.137,278.177 159.735 C 277.913 160.332,277.274 160.674,276.040 160.882 C 275.071 161.045,273.950 161.532,273.548 161.964 C 271.983 163.644,256.144 163.773,254.877 162.116 C 254.438 161.543,253.566 161.137,252.400 160.964 C 251.292 160.800,250.292 160.353,249.800 159.802 C 249.359 159.310,248.408 158.778,247.686 158.619 C 246.964 158.460,246.088 157.896,245.740 157.365 C 245.393 156.834,244.788 156.400,244.397 156.400 C 243.994 156.400,243.589 156.011,243.460 155.500 C 243.335 155.005,242.821 154.420,242.317 154.200 C 241.813 153.980,241.342 153.395,241.272 152.900 C 241.189 152.316,240.869 152.000,240.360 152.000 C 239.928 152.000,239.463 151.685,239.327 151.300 C 239.191 150.915,238.567 150.115,237.940 149.523 C 237.074 148.704,236.800 148.078,236.800 146.917 C 236.800 145.717,236.607 145.305,235.900 144.995 C 235.185 144.681,234.918 144.095,234.600 142.135 C 234.366 140.691,233.869 139.307,233.400 138.793 C 232.679 138.001,232.600 137.356,232.600 132.239 C 232.600 127.225,232.693 126.426,233.400 125.382 C 233.840 124.732,234.380 123.210,234.600 122.000 C 234.905 120.321,235.213 119.707,235.900 119.405 C 236.629 119.085,236.800 118.689,236.800 117.319 C 236.800 115.979,237.049 115.372,238.000 114.400 C 238.660 113.725,239.200 113.011,239.200 112.814 C 239.200 112.617,239.605 112.398,240.100 112.328 C 240.686 112.245,241.046 111.878,241.131 111.278 C 241.205 110.756,241.666 110.203,242.196 110.001 C 242.711 109.806,243.249 109.276,243.393 108.823 C 243.536 108.370,243.872 108.000,244.138 108.000 C 244.404 108.000,245.096 107.460,245.675 106.800 C 246.254 106.140,247.095 105.600,247.543 105.600 C 247.992 105.600,248.844 105.150,249.438 104.600 C 250.050 104.032,250.997 103.600,251.628 103.600 C 252.239 103.600,253.247 103.177,253.869 102.660 C 255.579 101.238,255.604 101.235,264.539 101.320 L 272.877 101.400 273.739 102.475 M155.739 130.749 C 156.348 131.255,156.400 136.032,156.400 191.849 L 156.400 252.400 210.757 252.400 C 259.955 252.400,265.137 252.460,265.357 253.033 C 266.091 254.946,265.597 282.200,264.804 283.500 L 264.012 284.800 193.421 284.800 L 122.831 284.800 122.016 283.925 C 121.567 283.443,121.200 282.835,121.200 282.574 C 121.200 282.312,120.930 281.874,120.600 281.600 C 119.528 280.710,119.710 134.138,120.786 132.131 C 121.218 131.325,121.803 130.514,122.086 130.329 C 123.021 129.718,154.978 130.117,155.739 130.749 " stroke="none" fill="#141414" fill-rule="evenodd"></path><path id="path5" d="M262.500 102.691 C 263.325 102.778,264.675 102.778,265.500 102.691 C 266.325 102.605,265.650 102.534,264.000 102.534 C 262.350 102.534,261.675 102.605,262.500 102.691 M258.200 103.200 C 257.181 103.638,258.232 103.638,259.600 103.200 C 260.404 102.943,260.443 102.877,259.800 102.868 C 259.360 102.862,258.640 103.011,258.200 103.200 M267.633 102.943 C 267.725 103.021,268.430 103.201,269.200 103.342 C 270.185 103.523,270.422 103.482,270.000 103.206 C 269.458 102.850,267.237 102.603,267.633 102.943 M274.433 104.521 C 274.525 104.588,275.140 104.958,275.800 105.345 L 277.000 106.047 276.056 105.224 C 275.536 104.771,274.921 104.400,274.689 104.400 C 274.457 104.400,274.342 104.454,274.433 104.521 M247.000 108.235 L 245.800 109.266 247.100 108.406 C 247.815 107.933,248.400 107.468,248.400 107.373 C 248.400 107.073,248.231 107.178,247.000 108.235 M243.600 111.000 C 242.628 111.990,241.923 112.800,242.033 112.800 C 242.143 112.800,243.028 111.990,244.000 111.000 C 244.972 110.010,245.677 109.200,245.567 109.200 C 245.457 109.200,244.572 110.010,243.600 111.000 M282.600 109.873 C 284.158 111.443,286.854 113.615,285.800 112.452 C 285.140 111.723,284.060 110.754,283.400 110.299 C 282.740 109.843,282.380 109.652,282.600 109.873 M287.634 115.047 C 288.165 115.733,288.680 116.223,288.779 116.135 C 288.877 116.047,288.443 115.486,287.813 114.888 L 286.669 113.800 287.634 115.047 M292.901 128.200 C 292.905 129.080,292.987 129.393,293.083 128.895 C 293.179 128.398,293.175 127.678,293.075 127.295 C 292.975 126.913,292.896 127.320,292.901 128.200 M234.901 129.800 C 234.905 130.680,234.987 130.993,235.083 130.495 C 235.179 129.998,235.175 129.278,235.075 128.895 C 234.975 128.513,234.896 128.920,234.901 129.800 M137.709 131.900 L 152.818 132.010 153.607 133.305 C 154.042 134.017,154.398 134.399,154.399 134.154 C 154.399 133.909,154.027 133.234,153.571 132.654 L 152.742 131.600 137.671 131.695 L 122.600 131.790 137.709 131.900 M234.901 134.600 C 234.905 135.480,234.987 135.793,235.083 135.295 C 235.179 134.798,235.175 134.078,235.075 133.695 C 234.975 133.313,234.896 133.720,234.901 134.600 M292.893 136.400 C 292.893 137.170,292.975 137.485,293.076 137.100 C 293.176 136.715,293.176 136.085,293.076 135.700 C 292.975 135.315,292.893 135.630,292.893 136.400 M285.775 151.300 L 284.600 152.600 285.900 151.425 C 286.615 150.779,287.200 150.194,287.200 150.125 C 287.200 149.816,286.870 150.088,285.775 151.300 M243.600 153.000 C 244.795 154.210,245.863 155.200,245.973 155.200 C 246.083 155.200,245.195 154.210,244.000 153.000 C 242.805 151.790,241.737 150.800,241.627 150.800 C 241.517 150.800,242.405 151.790,243.600 153.000 M246.410 155.326 C 247.009 155.974,249.695 157.597,249.218 157.022 C 248.910 156.651,248.105 156.066,247.429 155.723 C 246.753 155.379,246.295 155.201,246.410 155.326 M278.841 157.034 C 278.093 157.565,277.678 158.000,277.919 158.000 C 278.159 158.000,278.860 157.556,279.478 157.013 C 280.891 155.769,280.608 155.779,278.841 157.034 M251.886 158.804 C 253.033 159.462,254.113 159.997,254.286 159.993 C 254.740 159.983,250.677 157.614,250.200 157.611 C 249.980 157.609,250.739 158.146,251.886 158.804 M262.100 161.094 C 263.145 161.176,264.855 161.176,265.900 161.094 C 266.945 161.012,266.090 160.944,264.000 160.944 C 261.910 160.944,261.055 161.012,262.100 161.094 M264.578 267.000 C 264.579 274.040,264.633 276.864,264.699 273.275 C 264.766 269.686,264.766 263.926,264.699 260.475 C 264.633 257.024,264.578 259.960,264.578 267.000 M263.758 281.602 C 263.490 281.870,239.738 281.970,192.916 281.902 C 154.174 281.846,122.560 281.935,122.662 282.100 C 123.064 282.751,263.458 282.453,264.000 281.800 C 264.558 281.127,264.379 280.981,263.758 281.602 " stroke="none" fill="#7c7c7c" fill-rule="evenodd"></path><path id="path6" d="M257.800 102.340 C 257.360 102.498,256.550 102.840,256.000 103.100 C 255.450 103.360,254.264 103.758,253.364 103.985 C 252.463 104.211,251.401 104.757,251.002 105.198 C 250.602 105.639,249.989 106.006,249.638 106.014 C 248.698 106.035,247.450 106.812,245.139 108.814 C 240.799 112.576,238.415 115.649,237.238 119.000 C 236.929 119.880,236.344 121.050,235.939 121.600 C 235.497 122.200,235.044 123.857,234.806 125.739 C 234.588 127.466,234.220 129.582,233.989 130.441 C 233.672 131.617,233.711 132.720,234.145 134.902 C 234.462 136.496,234.839 138.642,234.981 139.672 C 235.124 140.701,235.565 141.961,235.961 142.472 C 236.358 142.982,236.993 144.345,237.373 145.500 C 237.753 146.655,238.208 147.600,238.384 147.600 C 238.559 147.600,238.922 148.129,239.189 148.775 C 239.775 150.187,244.887 155.418,246.496 156.250 C 247.127 156.576,247.993 157.193,248.421 157.621 C 248.850 158.050,249.435 158.400,249.722 158.400 C 250.010 158.400,250.829 158.831,251.543 159.358 C 252.256 159.884,253.648 160.436,254.636 160.584 C 255.623 160.732,257.099 161.138,257.915 161.487 C 261.500 163.015,273.682 161.567,276.609 159.265 C 277.175 158.820,278.178 158.337,278.838 158.192 C 279.498 158.047,280.253 157.584,280.515 157.164 C 280.778 156.744,281.172 156.400,281.392 156.400 C 281.810 156.400,282.562 155.725,285.699 152.533 C 288.426 149.757,288.711 149.386,289.410 147.715 C 289.755 146.888,290.357 145.848,290.746 145.405 C 293.745 141.991,295.139 127.846,292.934 123.200 C 292.464 122.210,291.875 120.747,291.625 119.948 C 291.375 119.150,290.817 118.177,290.385 117.786 C 289.953 117.396,289.600 116.873,289.600 116.624 C 289.600 116.064,285.669 110.800,285.250 110.800 C 285.083 110.800,283.882 109.810,282.582 108.600 C 281.282 107.390,279.944 106.397,279.609 106.393 C 279.274 106.389,278.230 105.864,277.290 105.226 C 276.349 104.588,274.819 103.942,273.890 103.790 C 272.960 103.638,271.867 103.218,271.459 102.856 C 270.663 102.151,259.499 101.729,257.800 102.340 M268.000 102.804 C 271.746 103.544,275.531 104.724,276.645 105.496 C 277.280 105.937,278.700 106.805,279.800 107.424 C 281.899 108.607,288.800 115.295,288.800 116.147 C 288.800 116.420,289.323 117.353,289.962 118.222 C 290.997 119.630,291.562 121.170,292.817 126.000 C 294.181 131.250,292.716 141.425,290.007 145.514 C 289.343 146.517,288.800 147.511,288.800 147.723 C 288.800 148.229,284.499 153.283,283.628 153.800 C 283.258 154.020,282.605 154.526,282.177 154.925 C 280.694 156.309,278.287 158.000,277.801 158.000 C 277.532 158.000,276.670 158.435,275.886 158.968 C 271.699 161.809,257.070 161.761,252.000 158.891 C 244.457 154.620,239.298 149.380,237.434 144.096 C 237.116 143.194,236.558 142.002,236.194 141.447 C 235.120 139.807,234.564 133.171,235.077 128.105 C 235.885 120.124,242.224 110.352,248.680 107.135 C 249.786 106.584,251.301 105.760,252.046 105.305 C 253.172 104.617,257.070 103.413,260.600 102.663 C 262.025 102.360,266.153 102.438,268.000 102.804 M122.223 131.689 C 121.456 132.783,121.251 280.601,122.014 282.026 C 122.613 283.145,263.522 283.257,264.451 282.139 C 265.163 281.282,265.486 254.883,264.801 253.602 C 264.375 252.805,264.007 252.800,210.619 252.800 C 181.054 252.800,156.581 252.691,156.233 252.557 C 155.660 252.337,155.600 246.755,155.600 193.417 C 155.600 151.343,155.473 134.156,155.157 133.248 C 154.320 130.846,153.989 130.800,137.643 130.800 L 122.845 130.800 122.223 131.689 M153.571 132.654 L 154.400 133.708 154.400 193.015 L 154.400 252.322 155.660 252.761 C 156.550 253.071,172.613 253.200,210.446 253.200 L 263.972 253.200 264.411 254.020 C 265.103 255.314,264.772 280.872,264.051 281.739 C 263.122 282.857,123.013 282.745,122.414 281.626 C 121.791 280.463,121.841 133.988,122.464 132.619 L 122.928 131.600 137.835 131.600 L 152.742 131.600 153.571 132.654 " stroke="none" fill="#606060" fill-rule="evenodd"></path><path id="path7" d="M256.705 101.483 C 257.202 101.579,257.922 101.575,258.305 101.475 C 258.687 101.375,258.280 101.296,257.400 101.301 C 256.520 101.305,256.207 101.387,256.705 101.483 M270.909 101.584 C 271.738 101.745,272.888 102.310,273.463 102.838 L 274.509 103.800 274.030 102.881 C 273.486 101.837,272.054 101.178,270.474 101.246 C 269.619 101.283,269.708 101.352,270.909 101.584 M253.878 102.613 C 253.260 103.156,252.935 103.600,253.155 103.600 C 253.375 103.600,254.060 103.156,254.678 102.613 C 255.295 102.070,255.620 101.625,255.400 101.625 C 255.180 101.625,254.495 102.070,253.878 102.613 M249.606 104.382 C 249.059 104.802,248.742 105.276,248.902 105.435 C 249.062 105.595,249.635 105.247,250.177 104.663 C 251.323 103.426,251.035 103.284,249.606 104.382 M277.700 104.032 C 278.085 104.256,278.414 104.746,278.432 105.120 C 278.452 105.558,278.537 105.617,278.669 105.287 C 278.909 104.691,278.111 103.594,277.451 103.612 C 277.203 103.619,277.315 103.808,277.700 104.032 M245.437 107.000 C 245.076 107.550,244.937 108.000,245.127 108.000 C 245.316 108.000,245.677 107.550,245.927 107.000 C 246.178 106.450,246.317 106.000,246.237 106.000 C 246.157 106.000,245.797 106.450,245.437 107.000 M282.100 106.432 C 282.485 106.656,282.814 107.146,282.832 107.520 C 282.852 107.958,282.937 108.017,283.069 107.687 C 283.309 107.091,282.511 105.994,281.851 106.012 C 281.603 106.019,281.715 106.208,282.100 106.432 M288.300 112.812 C 288.795 113.011,289.200 113.390,289.200 113.654 C 289.200 113.918,289.316 114.018,289.457 113.876 C 289.847 113.486,288.791 112.397,288.051 112.425 C 287.610 112.443,287.691 112.568,288.300 112.812 M237.900 114.444 C 237.295 115.098,236.821 116.030,236.846 116.516 C 236.889 117.327,236.909 117.334,237.083 116.600 C 237.188 116.160,237.707 115.388,238.237 114.884 C 238.767 114.380,239.200 113.795,239.200 113.584 C 239.200 113.059,239.151 113.091,237.900 114.444 M235.192 119.810 C 234.914 120.145,234.802 120.535,234.943 120.676 C 235.084 120.818,235.200 120.718,235.200 120.454 C 235.200 120.190,235.605 119.811,236.100 119.612 C 236.709 119.368,236.790 119.243,236.349 119.225 C 235.991 119.211,235.470 119.474,235.192 119.810 M292.914 120.545 C 293.401 121.292,293.861 121.849,293.937 121.782 C 294.273 121.482,293.473 119.960,292.787 119.593 C 292.101 119.226,292.113 119.317,292.914 120.545 M294.101 123.800 C 294.105 124.680,294.187 124.993,294.283 124.495 C 294.379 123.998,294.375 123.278,294.275 122.895 C 294.175 122.513,294.096 122.920,294.101 123.800 M233.332 125.447 C 232.118 127.298,232.248 137.624,233.500 138.877 C 234.270 139.647,234.400 139.678,234.400 139.089 C 234.400 138.710,234.249 138.400,234.064 138.400 C 232.572 138.400,232.255 129.379,233.646 126.505 C 234.620 124.492,234.414 123.796,233.332 125.447 M130.073 130.299 C 134.404 130.364,141.604 130.364,146.073 130.300 C 150.543 130.235,147.000 130.182,138.200 130.182 C 129.400 130.182,125.743 130.235,130.073 130.299 M155.080 130.717 C 155.344 130.885,155.738 131.468,155.955 132.011 C 156.303 132.884,156.352 132.904,156.375 132.180 C 156.402 131.303,155.709 130.396,155.020 130.406 C 154.777 130.410,154.803 130.541,155.080 130.717 M120.414 132.774 C 119.670 134.163,119.854 280.981,120.600 281.600 C 121.133 282.042,121.200 273.714,121.200 207.049 C 121.200 165.772,121.116 132.000,121.014 132.000 C 120.912 132.000,120.642 132.348,120.414 132.774 M294.093 140.400 C 294.093 141.170,294.175 141.485,294.276 141.100 C 294.376 140.715,294.376 140.085,294.276 139.700 C 294.175 139.315,294.093 139.630,294.093 140.400 M293.600 142.538 C 293.600 142.834,293.240 143.402,292.800 143.800 C 292.360 144.198,292.006 144.721,292.013 144.962 C 292.031 145.613,294.000 143.252,294.000 142.578 C 294.000 142.260,293.910 142.000,293.800 142.000 C 293.690 142.000,293.600 142.242,293.600 142.538 M234.800 143.765 C 234.800 144.390,235.828 145.339,236.287 145.138 C 236.459 145.062,236.195 144.601,235.700 144.114 C 235.121 143.544,234.800 143.420,234.800 143.765 M291.632 146.113 C 291.614 146.505,291.195 146.989,290.700 147.188 C 290.091 147.432,290.010 147.557,290.451 147.575 C 291.274 147.607,292.141 146.590,291.869 145.913 C 291.742 145.596,291.651 145.672,291.632 146.113 M236.854 147.519 C 236.802 148.397,238.694 150.639,239.124 150.210 C 239.233 150.100,238.857 149.645,238.288 149.198 C 237.719 148.750,237.176 147.983,237.081 147.492 L 236.909 146.600 236.854 147.519 M288.300 151.205 C 287.695 151.812,287.200 152.500,287.200 152.734 C 287.200 152.968,286.885 153.344,286.500 153.568 C 285.841 153.952,285.841 153.976,286.492 153.988 C 286.893 153.995,287.285 153.600,287.423 153.050 C 287.554 152.528,288.098 151.902,288.631 151.659 C 289.164 151.416,289.600 150.943,289.600 150.609 C 289.600 149.872,289.655 149.847,288.300 151.205 M283.600 155.884 C 282.610 156.881,281.260 157.953,280.600 158.268 L 279.400 158.840 280.600 158.603 C 281.260 158.472,282.126 157.979,282.526 157.507 C 282.925 157.035,283.626 156.457,284.084 156.224 C 284.694 155.913,286.044 153.807,285.487 154.036 C 285.439 154.055,284.590 154.887,283.600 155.884 M245.559 157.078 C 246.001 157.949,246.742 158.609,246.975 158.340 C 247.041 158.263,246.650 157.750,246.105 157.200 C 245.199 156.286,245.152 156.276,245.559 157.078 M249.200 158.995 C 249.200 159.356,250.574 160.800,250.917 160.800 C 251.104 160.800,250.974 160.517,250.629 160.171 C 250.283 159.826,250.000 159.376,250.000 159.171 C 250.000 158.967,249.820 158.800,249.600 158.800 C 249.380 158.800,249.200 158.888,249.200 158.995 M278.000 159.546 C 278.000 159.810,277.595 160.189,277.100 160.388 C 276.491 160.632,276.410 160.757,276.851 160.775 C 277.591 160.803,278.647 159.714,278.257 159.324 C 278.116 159.182,278.000 159.282,278.000 159.546 M272.991 161.679 C 272.191 162.308,271.067 162.632,269.037 162.820 C 266.235 163.079,266.227 163.083,268.400 163.139 C 270.836 163.202,273.600 162.579,273.600 161.968 C 273.600 161.752,274.005 161.411,274.500 161.212 C 275.100 160.971,275.185 160.842,274.754 160.825 C 274.399 160.811,273.605 161.196,272.991 161.679 M254.787 161.976 C 255.258 162.856,257.669 163.355,260.200 163.098 C 261.522 162.963,261.404 162.923,259.519 162.867 C 257.241 162.800,255.200 162.171,255.200 161.536 C 255.200 161.351,255.014 161.200,254.786 161.200 C 254.501 161.200,254.501 161.442,254.787 161.976 M121.646 283.533 C 122.479 284.881,119.125 284.826,193.951 284.709 L 264.102 284.600 264.751 283.600 L 265.400 282.600 264.314 283.300 C 262.653 284.371,123.765 284.389,122.132 283.318 C 121.095 282.639,121.093 282.640,121.646 283.533 " stroke="none" fill="#1c1c1c" fill-rule="evenodd"></path><path id="path8" d="" stroke="none" fill="#341814" fill-rule="evenodd"></path></g></svg>