<svg id="Layer_2" data-name="Layer 2" xmlns="http://www.w3.org/2000/svg" viewBox="0 0 499.46 500">
  <defs>
    <style>
      .cls-1 {
        fill: #000;
        stroke-width: 0px;
      }
    </style>
  </defs>
  <g id="Layer_1-2" data-name="Layer 1">
    <path class="cls-1" d="M456.65,377.04c.07-11.18,42.77-10.71,42.48-21.18-.21-8.06-19.11-7.87-13.17-24.94,8.74-25.45,13.5-52.77,13.5-81.18C499.46,111.81,387.65,0,249.73,0S0,111.81,0,249.73c0,28.51,4.79,55.89,13.6,81.42.05.12.54,1.57.54,1.57,3.55,11.32-14.09,15.76-14.09,22.52,0,10.59,37.15,9.16,37.15,21.49,0,10.73-36.73,14.04-36.73,24.87,0,14.96,81.35,9.75,82.38,22.62.8,9.93-27.97,10.52-28.13,21.13-.28,16.93,111.03,11.39,111.03,22.66,0,8.52-50.63,5.45-50.63,15.52s66.65,16.46,140.08,16.46,124.11-8.17,124.11-17-47.27-7-46.31-14.98c1.72-13.9,106.64-6.79,106.64-22.87,0-8.48-28.86-10.45-27.92-19.59,1.32-12.92,87.74-10.99,87.74-24.4,0-10.54-42.81-13.13-42.76-24.07l-.05-.05ZM389.69,344.61c-2.28,8.52,24.02,9.79,24.02,18.69,0,10.83-80.22,6.51-79.42,20.83.49,9.02,57,10.54,55.92,19.96-1.55,13.64-87.5,6.83-88.35,19.89-.61,9.58,41.94,9.91,42.04,18.65.07,7.35-33.44,11.37-97.6,11.37-73.11,0-108.64-3.94-104.6-12.16,3.78-7.68,68.5-6.25,67.85-18.32-.66-12.07-114.93-8.5-118.38-20.2-2.87-9.72,37.55-11.72,37.29-20.95-.26-9.42-51.76-7.28-52.89-18.67-.73-7.49,26.91-7,25.71-16.41-.87-6.86-12.28-5.89-19.05-20.01-10.92-23.6-17.05-49.86-17.05-77.54,0-101.9,82.59-184.49,184.49-184.49s184.49,82.59,184.49,184.49c0,25.13-5.03,49.08-14.14,70.92-8.67,19.63-28.18,15.69-30.39,23.95h.05Z"/>
  </g>
</svg>