<?xml version="1.0" standalone="no"?>
<!DOCTYPE svg PUBLIC "-//W3C//DTD SVG 1.1//EN" "http://www.w3.org/Graphics/SVG/1.1/DTD/svg11.dtd">
<svg xmlns="http://www.w3.org/2000/svg" viewBox="0 0 400.2 400.2" width="400.20001220703125" height="400.20001220703125"><defs><style>.cls-1{fill:#f15e59;}.cls-2{fill:#fff;}.cls-3{fill:none;}</style></defs><g id="Layer_2" data-name="Layer 2"><g id="Layer_1-2" data-name="Layer 1"><circle class="cls-1" cx="200.1" cy="200.1" r="200.1"/><circle class="cls-2" cx="290.52" cy="194.14" r="59.14"/><circle class="cls-3" cx="111.98" cy="194.62" r="40.31"/><circle class="cls-1" cx="290.52" cy="195.62" r="40.31"/><circle class="cls-3" cx="112.47" cy="195.1" r="59.14"/><circle class="cls-2" cx="111.98" cy="194.62" r="59.14"/><circle class="cls-1" cx="111.5" cy="194.14" r="40.31"/><circle class="cls-2" cx="224.59" cy="104.44" r="19.93" transform="translate(98.53 317.65) rotate(-84.35)"/><path class="cls-2" d="M205.87,136l20.76-1q-7.27,29.15-14.56,58.29c-3,15.41-6.06,28.51-8.61,38.74-5,20-7.35,25.94-12.55,31.38-8.1,8.45-18.75,11.11-25.59,12.07L158.08,260a22.43,22.43,0,0,0,20.27-14c9.47-34.18,14.26-53.32,16.9-64.69.37-1.58,2.21-9.55,4.83-20.76C202.52,150.15,204.53,141.61,205.87,136Z"/></g></g></svg>