<svg id="svg" version="1.1" xmlns="http://www.w3.org/2000/svg" xmlns:xlink="http://www.w3.org/1999/xlink" width="400" height="399.64412811387905" viewBox="0, 0, 400,399.64412811387905"><g id="svgg"><path id="path0" d="M188.968 20.865 C 171.688 22.106,156.167 25.200,140.925 30.442 C 80.871 51.096,36.399 101.890,23.630 164.413 C 22.219 171.318,22.218 171.336,23.043 170.988 C 37.129 165.059,54.578 163.486,69.751 166.779 C 83.265 169.711,96.636 176.801,106.584 186.310 C 110.955 190.488,112.999 192.207,115.302 193.641 C 125.972 200.286,139.343 200.984,150.331 195.470 C 153.409 193.925,153.140 194.118,163.873 185.765 C 168.778 181.948,173.408 178.345,174.164 177.758 C 174.920 177.171,176.518 175.923,177.715 174.985 C 193.254 162.816,203.363 158.000,218.683 155.468 C 222.525 154.833,237.974 154.833,241.815 155.468 C 258.493 158.224,269.905 164.007,285.355 177.532 C 288.419 180.214,294.779 185.765,299.489 189.869 C 304.199 193.973,312.806 201.474,318.615 206.537 L 329.177 215.743 327.667 217.565 C 326.836 218.567,324.312 221.470,322.058 224.017 C 319.804 226.564,314.840 232.240,311.026 236.630 C 307.213 241.020,303.605 245.167,303.009 245.845 L 301.925 247.079 293.613 239.874 C 289.042 235.912,284.725 232.146,284.021 231.507 C 283.317 230.868,279.077 227.161,274.599 223.269 C 249.582 201.524,249.824 201.721,245.464 199.661 C 235.523 194.964,224.416 195.082,214.438 199.990 C 211.541 201.415,209.902 202.573,201.554 209.092 C 176.125 228.949,177.120 228.213,171.591 231.252 C 146.072 245.277,113.841 243.505,90.036 226.767 C 88.763 225.873,87.226 224.729,86.619 224.225 C 86.012 223.722,84.891 222.798,84.128 222.172 C 83.365 221.546,81.219 219.578,79.359 217.797 C 63.005 202.136,42.928 202.552,25.843 218.907 L 21.615 222.954 22.183 227.046 C 23.710 238.046,28.133 254.691,32.207 264.769 C 36.369 275.065,39.861 282.202,45.439 291.815 C 49.850 299.416,61.063 314.821,61.962 314.516 C 62.130 314.459,63.191 313.522,64.319 312.432 C 66.392 310.431,85.330 292.704,91.205 287.267 C 120.958 259.726,165.942 260.180,195.601 288.320 C 211.772 303.663,230.483 304.225,246.263 289.841 C 277.528 261.343,320.268 259.946,351.063 286.416 C 352.960 288.046,354.556 289.327,354.611 289.263 C 356.403 287.171,363.971 271.119,367.083 262.811 C 387.173 209.169,380.369 148.870,348.841 101.157 C 345.820 96.584,346.122 96.717,340.925 97.664 C 333.727 98.976,329.402 101.396,320.778 108.940 C 300.394 126.769,276.810 133.148,251.943 127.558 C 238.726 124.587,226.622 118.063,216.486 108.448 C 205.268 97.806,195.259 94.475,182.645 97.185 C 173.810 99.084,171.646 100.609,153.917 117.438 C 151.958 119.297,146.677 124.262,142.181 128.470 C 137.685 132.678,132.801 137.252,131.327 138.635 C 126.227 143.420,125.014 144.484,124.657 144.484 C 124.460 144.484,122.246 142.282,119.737 139.591 C 117.228 136.899,112.909 132.295,110.140 129.359 C 99.741 118.335,96.441 114.773,96.441 114.569 C 96.441 114.382,101.244 109.842,123.308 89.170 C 126.636 86.051,131.664 81.327,134.480 78.671 C 152.625 61.564,168.009 55.012,190.036 55.012 C 211.306 55.012,227.745 61.757,243.803 77.075 C 259.230 91.791,277.718 91.721,294.289 76.884 C 300.678 71.163,304.903 68.103,311.258 64.591 L 314.617 62.735 311.134 59.896 C 278.111 32.975,230.803 17.861,188.968 20.865 M136.833 309.069 C 129.365 310.270,124.215 313.210,116.014 320.953 C 113.372 323.447,106.966 329.471,101.779 334.338 C 90.818 344.623,91.832 343.324,93.698 344.693 C 139.642 378.406,200.668 388.018,255.160 370.124 C 258.194 369.128,261.717 367.897,262.989 367.388 C 264.262 366.879,266.103 366.145,267.082 365.758 C 287.115 357.827,308.096 343.989,324.644 327.792 C 329.527 323.013,329.335 323.613,326.877 320.814 C 314.465 306.675,291.503 305.316,277.379 317.883 C 272.574 322.159,267.385 326.466,265.391 327.834 C 234.470 349.045,195.461 345.731,168.149 319.574 C 158.531 310.362,148.894 307.129,136.833 309.069 " stroke="none" fill="#b9374f" fill-rule="evenodd"></path><path id="path1" d="M0.000 199.822 L 0.000 399.644 200.000 399.644 L 400.000 399.644 400.000 199.822 L 400.000 0.000 200.000 0.000 L 0.000 0.000 0.000 199.822 M207.295 20.643 C 226.507 21.677,245.144 25.318,259.964 30.932 C 275.836 36.945,286.192 42.178,298.932 50.623 C 303.106 53.389,311.146 59.377,313.545 61.506 L 315.111 62.896 312.808 64.059 C 306.847 67.068,301.405 70.920,294.484 77.029 C 285.979 84.536,280.946 86.970,271.917 87.941 C 262.035 89.003,251.136 85.007,244.128 77.751 C 216.776 49.433,169.708 47.446,140.589 73.381 C 138.691 75.071,130.108 83.057,126.868 86.147 C 125.302 87.640,121.219 91.480,117.794 94.680 C 114.368 97.880,109.166 102.749,106.233 105.499 C 103.300 108.248,99.977 111.363,98.848 112.421 C 96.277 114.831,95.708 113.678,103.619 122.098 C 113.718 132.847,120.571 140.129,122.776 142.454 L 124.733 144.518 129.181 140.349 C 131.628 138.056,134.831 135.042,136.299 133.652 C 137.767 132.262,142.891 127.454,147.687 122.967 C 152.482 118.480,158.648 112.703,161.388 110.128 C 170.672 101.406,172.549 100.118,179.359 97.798 C 192.366 93.366,204.643 96.833,216.729 108.351 C 240.909 131.397,276.809 135.788,306.226 119.299 C 311.689 116.236,313.851 114.636,321.174 108.230 C 329.662 100.805,335.969 97.652,343.786 96.925 L 346.181 96.703 349.319 101.465 C 354.343 109.089,360.664 120.675,363.664 127.758 C 377.692 160.885,381.893 194.480,376.323 229.004 C 373.098 248.991,366.451 268.204,356.347 286.744 C 354.445 290.233,354.864 290.141,352.183 287.657 C 333.225 270.091,304.191 263.403,279.186 270.842 C 266.766 274.537,258.739 279.210,246.619 289.798 C 230.026 304.296,211.855 304.074,196.149 289.181 C 171.739 266.037,139.113 260.651,109.743 274.917 C 100.710 279.304,96.398 282.539,84.192 294.087 C 80.262 297.805,75.845 301.970,74.377 303.342 C 70.550 306.920,65.956 311.248,63.789 313.318 L 61.919 315.103 60.787 313.868 C 52.844 305.207,39.850 283.922,34.180 270.285 C 27.988 255.393,21.863 233.010,21.581 224.243 L 21.530 222.669 26.568 217.976 C 43.155 202.523,63.564 202.214,79.004 217.182 C 98.945 236.515,123.501 244.062,149.915 238.976 C 162.505 236.552,171.887 231.901,185.395 221.385 C 188.813 218.725,192.045 216.228,192.578 215.836 C 193.111 215.445,197.361 212.144,202.022 208.501 C 206.684 204.858,211.459 201.335,212.633 200.672 C 224.048 194.228,238.816 194.660,249.652 201.755 C 251.407 202.905,260.242 210.198,260.854 211.003 C 260.952 211.132,265.176 214.834,270.241 219.231 C 280.597 228.220,292.798 238.838,298.134 243.505 C 300.092 245.218,301.774 246.619,301.873 246.619 C 302.041 246.619,306.182 241.906,322.165 223.524 L 328.849 215.836 327.299 214.413 C 326.447 213.630,321.758 209.522,316.878 205.285 C 302.540 192.833,299.126 189.861,291.993 183.624 C 279.340 172.561,276.795 170.466,272.710 167.758 C 246.954 150.678,213.291 150.638,187.967 167.656 C 184.960 169.677,168.929 182.007,158.719 190.152 C 142.378 203.188,123.527 202.544,108.539 188.436 C 84.292 165.615,53.489 159.076,24.583 170.613 C 21.763 171.739,21.938 172.186,22.982 166.538 C 26.341 148.360,33.031 129.698,42.046 113.361 C 47.347 103.754,54.940 92.616,61.209 85.252 C 79.488 63.778,100.234 47.855,124.377 36.767 C 147.377 26.204,171.558 20.839,198.399 20.344 C 199.769 20.319,203.772 20.453,207.295 20.643 M148.441 308.707 C 156.405 310.102,161.296 312.767,168.643 319.713 C 181.609 331.971,194.308 338.105,212.559 340.926 C 233.169 344.111,256.758 336.219,274.199 320.303 C 287.988 307.720,303.969 305.395,318.683 313.829 C 322.220 315.857,329.158 322.137,329.176 323.328 C 329.186 324.004,319.157 333.583,313.879 337.938 C 301.850 347.863,283.998 359.037,273.132 363.443 C 272.349 363.760,270.242 364.661,268.450 365.445 C 225.513 384.225,173.244 383.778,127.224 364.237 C 117.558 360.133,101.667 350.995,93.594 344.900 C 91.562 343.365,91.556 343.339,92.957 342.177 C 93.601 341.642,95.329 340.059,96.797 338.658 C 106.147 329.739,120.684 316.312,122.375 315.036 C 129.623 309.564,139.559 307.152,148.441 308.707 " stroke="none" fill="#f3e3cb" fill-rule="evenodd"></path><path id="path2" d="M197.611 20.548 C 198.743 20.619,200.505 20.618,201.525 20.547 C 202.546 20.475,201.619 20.417,199.466 20.418 C 197.313 20.419,196.478 20.477,197.611 20.548 M188.345 55.066 C 189.275 55.139,190.796 55.139,191.726 55.066 C 192.656 54.993,191.895 54.933,190.036 54.933 C 188.176 54.933,187.415 54.993,188.345 55.066 M69.195 76.246 L 68.149 77.402 69.306 76.357 C 70.384 75.383,70.626 75.089,70.351 75.089 C 70.290 75.089,69.770 75.609,69.195 76.246 M135.924 77.491 L 134.698 78.826 136.032 77.599 C 136.766 76.925,137.367 76.324,137.367 76.265 C 137.367 75.993,137.065 76.249,135.924 77.491 M130.761 82.295 L 129.715 83.452 130.872 82.407 C 131.950 81.432,132.192 81.139,131.917 81.139 C 131.856 81.139,131.335 81.659,130.761 82.295 M124.716 87.989 L 123.310 89.502 124.822 88.095 C 125.654 87.321,126.335 86.641,126.335 86.583 C 126.335 86.313,126.025 86.583,124.716 87.989 M267.527 88.158 C 268.163 88.237,269.204 88.237,269.840 88.158 C 270.476 88.079,269.956 88.014,268.683 88.014 C 267.411 88.014,266.891 88.079,267.527 88.158 M118.667 93.683 L 117.260 95.196 118.772 93.789 C 120.179 92.481,120.448 92.171,120.179 92.171 C 120.121 92.171,119.440 92.851,118.667 93.683 M343.505 97.042 C 343.848 97.132,344.408 97.132,344.751 97.042 C 345.093 96.953,344.813 96.880,344.128 96.880 C 343.443 96.880,343.163 96.953,343.505 97.042 M113.148 98.843 L 111.922 100.178 113.256 98.952 C 113.990 98.277,114.591 97.676,114.591 97.617 C 114.591 97.345,114.290 97.601,113.148 98.843 M215.302 107.295 C 216.563 108.568,217.675 109.609,217.773 109.609 C 217.871 109.609,216.919 108.568,215.658 107.295 C 214.397 106.023,213.286 104.982,213.188 104.982 C 213.090 104.982,214.042 106.023,215.302 107.295 M149.091 121.619 L 147.865 122.954 149.199 121.727 C 149.933 121.053,150.534 120.452,150.534 120.393 C 150.534 120.121,150.233 120.377,149.091 121.619 M102.135 120.752 C 102.135 120.813,102.656 121.334,103.292 121.909 L 104.448 122.954 103.403 121.797 C 102.429 120.719,102.135 120.477,102.135 120.752 M143.222 127.135 L 141.815 128.648 143.327 127.241 C 144.734 125.933,145.003 125.623,144.734 125.623 C 144.676 125.623,143.995 126.303,143.222 127.135 M108.363 127.402 C 109.127 128.185,109.833 128.826,109.931 128.826 C 110.029 128.826,109.483 128.185,108.719 127.402 C 107.954 126.619,107.249 125.979,107.151 125.979 C 107.053 125.979,107.598 126.619,108.363 127.402 M268.060 129.427 C 268.403 129.516,268.964 129.516,269.306 129.427 C 269.649 129.337,269.368 129.264,268.683 129.264 C 267.998 129.264,267.718 129.337,268.060 129.427 M113.167 132.562 C 113.831 133.247,114.455 133.808,114.552 133.808 C 114.650 133.808,114.187 133.247,113.523 132.562 C 112.859 131.877,112.236 131.317,112.138 131.317 C 112.040 131.317,112.503 131.877,113.167 132.562 M136.636 133.363 L 135.409 134.698 136.744 133.471 C 137.478 132.797,138.078 132.196,138.078 132.137 C 138.078 131.865,137.777 132.121,136.636 133.363 M131.653 137.989 L 130.427 139.324 131.762 138.097 C 132.496 137.423,133.096 136.822,133.096 136.763 C 133.096 136.491,132.795 136.747,131.653 137.989 M119.395 139.146 C 120.160 139.929,120.865 140.569,120.963 140.569 C 121.061 140.569,120.515 139.929,119.751 139.146 C 118.986 138.363,118.281 137.722,118.183 137.722 C 118.085 137.722,118.631 138.363,119.395 139.146 M125.778 143.505 L 124.733 144.662 125.890 143.617 C 126.526 143.042,127.046 142.521,127.046 142.460 C 127.046 142.185,126.753 142.427,125.778 143.505 M378.033 185.765 C 378.033 186.646,378.102 187.006,378.187 186.566 C 378.272 186.125,378.272 185.405,378.187 184.964 C 378.102 184.524,378.033 184.884,378.033 185.765 M378.382 192.705 C 378.386 193.488,378.458 193.766,378.544 193.323 C 378.629 192.881,378.625 192.240,378.536 191.900 C 378.447 191.560,378.378 191.922,378.382 192.705 M378.382 206.940 C 378.386 207.722,378.458 208.001,378.544 207.558 C 378.629 207.115,378.625 206.475,378.536 206.135 C 378.447 205.794,378.378 206.157,378.382 206.940 M378.033 213.879 C 378.033 214.760,378.102 215.120,378.187 214.680 C 378.272 214.239,378.272 213.519,378.187 213.078 C 378.102 212.638,378.033 212.998,378.033 213.879 M24.892 219.484 L 23.665 220.819 25.000 219.592 C 26.242 218.451,26.498 218.149,26.226 218.149 C 26.167 218.149,25.566 218.750,24.892 219.484 M21.435 223.843 C 21.435 224.528,21.508 224.809,21.598 224.466 C 21.687 224.124,21.687 223.563,21.598 223.221 C 21.508 222.878,21.435 223.158,21.435 223.843 M290.747 237.122 C 290.747 237.183,291.268 237.704,291.904 238.279 L 293.060 239.324 292.015 238.167 C 291.041 237.089,290.747 236.847,290.747 237.122 M141.027 267.167 C 142.160 267.238,143.921 267.237,144.942 267.166 C 145.962 267.094,145.036 267.036,142.883 267.037 C 140.730 267.038,139.895 267.096,141.027 267.167 M196.085 289.146 C 197.346 290.418,198.458 291.459,198.556 291.459 C 198.654 291.459,197.702 290.418,196.441 289.146 C 195.180 287.874,194.069 286.833,193.971 286.833 C 193.873 286.833,194.824 287.874,196.085 289.146 M85.034 293.149 L 83.808 294.484 85.142 293.258 C 86.384 292.116,86.640 291.815,86.369 291.815 C 86.309 291.815,85.709 292.415,85.034 293.149 M78.453 299.377 L 77.046 300.890 78.559 299.483 C 79.965 298.175,80.235 297.865,79.965 297.865 C 79.907 297.865,79.227 298.545,78.453 299.377 M73.290 304.181 L 72.064 305.516 73.399 304.290 C 74.641 303.148,74.897 302.847,74.625 302.847 C 74.566 302.847,73.965 303.448,73.290 304.181 M67.597 309.520 L 66.370 310.854 67.705 309.628 C 68.947 308.486,69.203 308.185,68.931 308.185 C 68.872 308.185,68.271 308.786,67.597 309.520 M141.204 308.448 C 142.238 308.520,143.840 308.519,144.763 308.446 C 145.686 308.373,144.840 308.314,142.883 308.315 C 140.925 308.316,140.170 308.376,141.204 308.448 M167.957 319.306 C 169.431 320.877,169.751 321.160,169.751 320.893 C 169.751 320.835,168.990 320.075,168.060 319.202 L 166.370 317.616 167.957 319.306 M109.052 327.135 L 108.007 328.292 109.164 327.247 C 110.242 326.272,110.484 325.979,110.209 325.979 C 110.148 325.979,109.627 326.499,109.052 327.135 M321.508 331.050 L 320.463 332.206 321.619 331.161 C 322.255 330.586,322.776 330.066,322.776 330.005 C 322.776 329.730,322.482 329.972,321.508 331.050 M103.364 332.473 L 101.957 333.986 103.470 332.579 C 104.876 331.271,105.146 330.961,104.876 330.961 C 104.818 330.961,104.138 331.641,103.364 332.473 M96.953 338.523 L 95.907 339.680 97.064 338.634 C 98.142 337.660,98.384 337.367,98.109 337.367 C 98.048 337.367,97.528 337.887,96.953 338.523 M218.772 341.539 C 219.408 341.618,220.449 341.618,221.085 341.539 C 221.722 341.460,221.201 341.395,219.929 341.395 C 218.657 341.395,218.136 341.460,218.772 341.539 M223.759 341.533 C 224.201 341.618,224.842 341.615,225.182 341.526 C 225.522 341.437,225.160 341.367,224.377 341.371 C 223.594 341.375,223.316 341.448,223.759 341.533 M194.039 379.258 C 194.577 379.340,195.458 379.340,195.996 379.258 C 196.535 379.177,196.094 379.110,195.018 379.110 C 193.941 379.110,193.501 379.177,194.039 379.258 M202.941 379.259 C 203.482 379.341,204.282 379.339,204.720 379.254 C 205.158 379.170,204.715 379.103,203.737 379.105 C 202.758 379.108,202.400 379.177,202.941 379.259 " stroke="none" fill="#da9996" fill-rule="evenodd"></path><path id="path3" d="M377.307 219.929 C 377.307 220.614,377.380 220.894,377.470 220.552 C 377.559 220.209,377.559 219.649,377.470 219.306 C 377.380 218.964,377.307 219.244,377.307 219.929 M352.847 288.256 C 353.611 289.039,354.317 289.680,354.415 289.680 C 354.513 289.680,353.967 289.039,353.203 288.256 C 352.438 287.473,351.733 286.833,351.635 286.833 C 351.537 286.833,352.082 287.473,352.847 288.256 M87.525 290.658 L 86.299 291.993 87.633 290.766 C 88.876 289.625,89.132 289.324,88.860 289.324 C 88.800 289.324,88.200 289.924,87.525 290.658 M220.205 300.261 C 221.042 300.336,222.323 300.335,223.052 300.259 C 223.781 300.182,223.096 300.121,221.530 300.122 C 219.964 300.123,219.368 300.186,220.205 300.261 M75.782 301.690 L 74.555 303.025 75.890 301.799 C 77.132 300.657,77.388 300.356,77.116 300.356 C 77.057 300.356,76.456 300.956,75.782 301.690 M70.463 306.584 C 69.598 307.464,68.971 308.185,69.069 308.185 C 69.167 308.185,69.954 307.464,70.819 306.584 C 71.683 305.703,72.310 304.982,72.212 304.982 C 72.114 304.982,71.327 305.703,70.463 306.584 M299.199 309.157 C 300.031 309.232,301.392 309.232,302.224 309.157 C 303.056 309.082,302.375 309.021,300.712 309.021 C 299.048 309.021,298.367 309.082,299.199 309.157 M63.501 313.256 L 62.456 314.413 63.612 313.368 C 64.690 312.393,64.932 312.100,64.657 312.100 C 64.596 312.100,64.076 312.620,63.501 313.256 M118.305 318.594 L 117.260 319.751 118.416 318.706 C 119.494 317.731,119.737 317.438,119.462 317.438 C 119.400 317.438,118.880 317.958,118.305 318.594 M276.312 318.594 L 275.267 319.751 276.423 318.706 C 277.060 318.131,277.580 317.610,277.580 317.549 C 277.580 317.274,277.286 317.516,276.312 318.594 M111.905 324.644 L 110.498 326.157 112.011 324.750 C 112.843 323.976,113.523 323.296,113.523 323.237 C 113.523 322.968,113.213 323.238,111.905 324.644 M325.615 326.957 L 322.598 330.071 325.712 327.054 C 328.604 324.252,328.988 323.843,328.729 323.843 C 328.676 323.843,327.274 325.245,325.615 326.957 M106.406 329.715 C 105.541 330.596,104.914 331.317,105.012 331.317 C 105.110 331.317,105.897 330.596,106.762 329.715 C 107.626 328.835,108.253 328.114,108.155 328.114 C 108.057 328.114,107.270 328.835,106.406 329.715 M100.356 335.409 C 99.491 336.290,98.864 337.011,98.962 337.011 C 99.060 337.011,99.847 336.290,100.712 335.409 C 101.576 334.528,102.203 333.808,102.105 333.808 C 102.008 333.808,101.220 334.528,100.356 335.409 M94.467 341.014 L 93.060 342.527 94.573 341.120 C 95.980 339.812,96.249 339.502,95.980 339.502 C 95.922 339.502,95.241 340.182,94.467 341.014 M174.110 377.470 C 174.453 377.559,175.013 377.559,175.356 377.470 C 175.698 377.380,175.418 377.307,174.733 377.307 C 174.048 377.307,173.768 377.380,174.110 377.470 M176.601 377.825 C 176.944 377.915,177.504 377.915,177.847 377.825 C 178.190 377.736,177.909 377.663,177.224 377.663 C 176.539 377.663,176.259 377.736,176.601 377.825 M220.730 377.825 C 221.072 377.915,221.633 377.915,221.975 377.825 C 222.318 377.736,222.037 377.663,221.352 377.663 C 220.667 377.663,220.387 377.736,220.730 377.825 M198.141 379.265 C 198.978 379.340,200.259 379.339,200.988 379.262 C 201.717 379.186,201.032 379.124,199.466 379.126 C 197.900 379.127,197.304 379.189,198.141 379.265 " stroke="none" fill="#e8847c" fill-rule="evenodd"></path><path id="path4" d="M176.957 21.953 C 177.300 22.043,177.860 22.043,178.203 21.953 C 178.545 21.864,178.265 21.791,177.580 21.791 C 176.895 21.791,176.615 21.864,176.957 21.953 M220.374 21.953 C 220.716 22.043,221.277 22.043,221.619 21.953 C 221.962 21.864,221.681 21.791,220.996 21.791 C 220.311 21.791,220.031 21.864,220.374 21.953 M184.075 55.059 C 184.613 55.141,185.494 55.141,186.032 55.059 C 186.570 54.978,186.130 54.911,185.053 54.911 C 183.977 54.911,183.536 54.978,184.075 55.059 M194.039 55.059 C 194.577 55.141,195.458 55.141,195.996 55.059 C 196.535 54.978,196.094 54.911,195.018 54.911 C 193.941 54.911,193.501 54.978,194.039 55.059 M180.516 55.405 C 180.859 55.495,181.419 55.495,181.762 55.405 C 182.104 55.316,181.824 55.243,181.139 55.243 C 180.454 55.243,180.173 55.316,180.516 55.405 M78.447 67.349 L 77.402 68.505 78.559 67.460 C 79.637 66.486,79.879 66.192,79.604 66.192 C 79.543 66.192,79.022 66.713,78.447 67.349 M138.415 75.000 L 137.189 76.335 138.523 75.108 C 139.257 74.434,139.858 73.833,139.858 73.774 C 139.858 73.502,139.557 73.758,138.415 75.000 M242.705 76.335 C 243.966 77.607,245.077 78.648,245.175 78.648 C 245.273 78.648,244.321 77.607,243.060 76.335 C 241.800 75.062,240.688 74.021,240.590 74.021 C 240.492 74.021,241.444 75.062,242.705 76.335 M66.885 78.915 L 65.658 80.249 66.993 79.023 C 68.235 77.881,68.491 77.580,68.219 77.580 C 68.160 77.580,67.559 78.181,66.885 78.915 M127.383 85.320 L 126.157 86.655 127.491 85.428 C 128.733 84.287,128.989 83.986,128.717 83.986 C 128.658 83.986,128.057 84.586,127.383 85.320 M121.333 91.014 L 120.107 92.349 121.441 91.122 C 122.175 90.448,122.776 89.847,122.776 89.788 C 122.776 89.516,122.475 89.772,121.333 91.014 M115.820 96.174 L 114.413 97.687 115.925 96.280 C 117.332 94.972,117.601 94.662,117.332 94.662 C 117.274 94.662,116.593 95.343,115.820 96.174 M188.879 96.343 C 189.515 96.422,190.556 96.422,191.192 96.343 C 191.828 96.264,191.308 96.199,190.036 96.199 C 188.763 96.199,188.243 96.264,188.879 96.343 M109.952 101.690 L 108.007 103.737 110.053 101.792 C 111.954 99.984,112.263 99.644,111.999 99.644 C 111.943 99.644,111.022 100.565,109.952 101.690 M104.258 107.028 L 102.313 109.075 104.359 107.130 C 106.260 105.322,106.569 104.982,106.305 104.982 C 106.249 104.982,105.328 105.903,104.258 107.028 M98.557 112.367 L 97.331 113.701 98.665 112.475 C 99.399 111.800,100.000 111.200,100.000 111.140 C 100.000 110.868,99.699 111.124,98.557 112.367 M158.344 113.078 L 157.117 114.413 158.452 113.186 C 159.186 112.512,159.786 111.911,159.786 111.852 C 159.786 111.580,159.485 111.836,158.344 113.078 M100.341 118.950 C 101.214 119.880,101.974 120.641,102.031 120.641 C 102.299 120.641,102.016 120.321,100.445 118.846 L 98.754 117.260 100.341 118.950 M151.763 119.306 L 150.356 120.819 151.868 119.412 C 153.275 118.104,153.544 117.794,153.275 117.794 C 153.217 117.794,152.536 118.474,151.763 119.306 M105.694 124.733 C 106.358 125.418,106.981 125.979,107.079 125.979 C 107.177 125.979,106.714 125.418,106.050 124.733 C 105.386 124.048,104.763 123.488,104.665 123.488 C 104.567 123.488,105.030 124.048,105.694 124.733 M140.375 129.982 L 138.968 131.495 140.480 130.088 C 141.887 128.780,142.156 128.470,141.887 128.470 C 141.829 128.470,141.148 129.150,140.375 129.982 M116.726 136.477 C 117.390 137.162,118.013 137.722,118.111 137.722 C 118.209 137.722,117.746 137.162,117.082 136.477 C 116.418 135.792,115.795 135.231,115.697 135.231 C 115.599 135.231,116.062 135.792,116.726 136.477 M129.162 140.480 L 127.936 141.815 129.270 140.589 C 130.004 139.914,130.605 139.314,130.605 139.254 C 130.605 138.982,130.304 139.238,129.162 140.480 M121.708 141.815 C 122.372 142.500,122.995 143.060,123.093 143.060 C 123.191 143.060,122.728 142.500,122.064 141.815 C 121.400 141.130,120.777 140.569,120.679 140.569 C 120.581 140.569,121.044 141.130,121.708 141.815 M49.555 206.651 C 49.898 206.741,50.458 206.741,50.801 206.651 C 51.143 206.561,50.863 206.488,50.178 206.488 C 49.493 206.488,49.213 206.561,49.555 206.651 M22.575 221.797 L 21.530 222.954 22.687 221.909 C 23.765 220.934,24.007 220.641,23.732 220.641 C 23.671 220.641,23.150 221.161,22.575 221.797 " stroke="none" fill="#be7c8c" fill-rule="evenodd"></path></g></svg>