<svg width="25" height="25" viewBox="0 0 25 25" fill="none" xmlns="http://www.w3.org/2000/svg">
  <g clip-path="url(#clip0_2520_19903)">
    <path d="M12.5 25C19.4036 25 25 19.4036 25 12.5C25 5.59644 19.4036 0 12.5 0C5.59644 0 0 5.59644 0 12.5C0 19.4036 5.59644 25 12.5 25Z" fill="#172852" />
    <path d="M10.0688 5.58624C11.5326 5.03874 13.1801 5.03749 14.6713 5.48749C16.6126 6.08999 18.2513 7.55499 19.1076 9.39374C19.3438 9.91749 19.5701 10.4637 19.5926 11.0462C18.5013 10.4137 17.3051 10.0037 16.1063 9.62999C14.1888 8.93874 12.1813 8.45874 10.3663 7.50874C9.94384 7.25624 9.40509 6.99749 9.29009 6.47124C9.24384 6.01624 9.72509 5.76249 10.0688 5.58624" fill="#FFD83D" />
    <path d="M5.65004 10.0112C6.07379 8.86119 6.76879 7.79369 7.71254 7.00244C7.95254 8.97619 8.79254 10.8837 10.18 12.3187C11.8438 14.0474 14.2138 15.1087 16.625 15.0687C17.5825 15.0987 18.5188 14.8774 19.4525 14.6987C18.5338 18.0187 14.895 20.2224 11.5238 19.6924C9.48879 19.4324 7.61004 18.2274 6.47629 16.5262C5.19754 14.6462 4.87504 12.1499 5.65004 10.0112Z" fill="#FFD83D" />
    <path d="M16.1062 9.63C17.305 10.0038 18.5012 10.4138 19.5925 11.0463L19.6662 11.085C19.7675 11.8463 19.8412 12.6225 19.7062 13.385C19.1575 13.1525 18.7125 12.7438 18.2475 12.3825C17.3525 11.6375 16.4387 10.785 16.1062 9.63" fill="#FF6F03" />
  </g>
  <defs>
    <clipPath id="clip0_2520_19903">
      <rect width="25" height="25" fill="white" />
    </clipPath>
  </defs>
</svg>
  