<svg width="1110" height="330" viewBox="0 0 1110 330" fill="none" xmlns="http://www.w3.org/2000/svg">
<rect x="0.5" y="0.5" width="1109" height="329" rx="17.5" fill="#FAFAFA" stroke="#757575"/>
<path d="M490.281 107H488.304L491.316 98.2727H493.694L496.703 107H494.726L492.539 100.267H492.471L490.281 107ZM490.157 103.57H494.828V105.01H490.157V103.57ZM499.104 100.455L500.306 102.743L501.537 100.455H503.4L501.503 103.727L503.451 107H501.597L500.306 104.737L499.036 107H497.161L499.104 103.727L497.229 100.455H499.104ZM507.094 107.128C506.421 107.128 505.842 106.991 505.356 106.719C504.873 106.443 504.501 106.054 504.239 105.551C503.978 105.045 503.847 104.447 503.847 103.757C503.847 103.084 503.978 102.493 504.239 101.984C504.501 101.476 504.869 101.08 505.343 100.795C505.82 100.511 506.38 100.369 507.022 100.369C507.454 100.369 507.856 100.439 508.228 100.578C508.603 100.714 508.93 100.92 509.208 101.196C509.489 101.472 509.708 101.818 509.864 102.236C510.02 102.651 510.099 103.136 510.099 103.693V104.192H504.572V103.067H508.39C508.39 102.805 508.333 102.574 508.219 102.372C508.106 102.17 507.948 102.013 507.746 101.899C507.547 101.783 507.316 101.724 507.052 101.724C506.776 101.724 506.532 101.788 506.319 101.916C506.109 102.041 505.944 102.21 505.824 102.423C505.705 102.634 505.644 102.868 505.641 103.126V104.196C505.641 104.52 505.701 104.8 505.82 105.036C505.942 105.271 506.114 105.453 506.336 105.581C506.557 105.709 506.82 105.773 507.124 105.773C507.326 105.773 507.511 105.744 507.678 105.688C507.846 105.631 507.989 105.545 508.109 105.432C508.228 105.318 508.319 105.179 508.381 105.014L510.06 105.125C509.975 105.528 509.8 105.881 509.536 106.182C509.275 106.48 508.937 106.713 508.522 106.881C508.11 107.045 507.634 107.128 507.094 107.128ZM512.967 98.2727V107H511.151V98.2727H512.967ZM516.155 107.124C515.738 107.124 515.366 107.051 515.039 106.906C514.712 106.759 514.454 106.541 514.263 106.254C514.076 105.964 513.982 105.604 513.982 105.172C513.982 104.808 514.049 104.503 514.182 104.256C514.316 104.009 514.498 103.81 514.728 103.659C514.958 103.509 515.219 103.395 515.512 103.318C515.807 103.241 516.117 103.188 516.441 103.156C516.821 103.116 517.128 103.08 517.361 103.045C517.594 103.009 517.763 102.955 517.868 102.884C517.973 102.812 518.026 102.707 518.026 102.568V102.543C518.026 102.273 517.941 102.064 517.77 101.916C517.603 101.768 517.364 101.695 517.054 101.695C516.728 101.695 516.468 101.767 516.275 101.912C516.081 102.054 515.954 102.233 515.891 102.449L514.212 102.312C514.297 101.915 514.465 101.571 514.715 101.281C514.965 100.989 515.287 100.764 515.682 100.608C516.08 100.449 516.54 100.369 517.063 100.369C517.427 100.369 517.775 100.412 518.107 100.497C518.442 100.582 518.739 100.714 518.998 100.893C519.259 101.072 519.465 101.303 519.616 101.584C519.766 101.862 519.841 102.196 519.841 102.585V107H518.12V106.092H518.069C517.964 106.297 517.823 106.477 517.647 106.634C517.471 106.787 517.259 106.908 517.012 106.996C516.765 107.081 516.479 107.124 516.155 107.124ZM516.675 105.871C516.942 105.871 517.178 105.818 517.383 105.713C517.587 105.605 517.748 105.46 517.864 105.278C517.981 105.097 518.039 104.891 518.039 104.661V103.966C517.982 104.003 517.904 104.037 517.804 104.068C517.708 104.097 517.598 104.124 517.476 104.149C517.354 104.172 517.232 104.193 517.11 104.213C516.988 104.23 516.877 104.246 516.777 104.26C516.564 104.291 516.378 104.341 516.219 104.409C516.06 104.477 515.937 104.57 515.848 104.686C515.76 104.8 515.716 104.942 515.716 105.112C515.716 105.359 515.806 105.548 515.985 105.679C516.167 105.807 516.397 105.871 516.675 105.871ZM521.118 107V100.455H522.878V101.597H522.946C523.065 101.19 523.265 100.884 523.547 100.676C523.828 100.466 524.152 100.361 524.518 100.361C524.609 100.361 524.707 100.366 524.812 100.378C524.917 100.389 525.01 100.405 525.089 100.425V102.036C525.004 102.01 524.886 101.987 524.736 101.967C524.585 101.947 524.447 101.938 524.322 101.938C524.055 101.938 523.817 101.996 523.606 102.112C523.399 102.226 523.234 102.385 523.112 102.589C522.993 102.794 522.933 103.03 522.933 103.297V107H521.118ZM535.875 98.2727V107H534.281L530.484 101.507H530.421V107H528.575V98.2727H530.195L533.962 103.761H534.038V98.2727H535.875ZM540.216 107.128C539.543 107.128 538.964 106.991 538.478 106.719C537.995 106.443 537.623 106.054 537.361 105.551C537.1 105.045 536.969 104.447 536.969 103.757C536.969 103.084 537.1 102.493 537.361 101.984C537.623 101.476 537.991 101.08 538.465 100.795C538.942 100.511 539.502 100.369 540.144 100.369C540.576 100.369 540.978 100.439 541.35 100.578C541.725 100.714 542.052 100.92 542.33 101.196C542.611 101.472 542.83 101.818 542.986 102.236C543.143 102.651 543.221 103.136 543.221 103.693V104.192H537.694V103.067H541.512C541.512 102.805 541.455 102.574 541.341 102.372C541.228 102.17 541.07 102.013 540.868 101.899C540.67 101.783 540.438 101.724 540.174 101.724C539.898 101.724 539.654 101.788 539.441 101.916C539.231 102.041 539.066 102.21 538.947 102.423C538.827 102.634 538.766 102.868 538.763 103.126V104.196C538.763 104.52 538.823 104.8 538.942 105.036C539.064 105.271 539.236 105.453 539.458 105.581C539.679 105.709 539.942 105.773 540.246 105.773C540.448 105.773 540.633 105.744 540.8 105.688C540.968 105.631 541.111 105.545 541.231 105.432C541.35 105.318 541.441 105.179 541.503 105.014L543.182 105.125C543.097 105.528 542.922 105.881 542.658 106.182C542.397 106.48 542.059 106.713 541.644 106.881C541.232 107.045 540.756 107.128 540.216 107.128ZM547.755 100.455V101.818H543.813V100.455H547.755ZM544.708 98.8864H546.523V104.989C546.523 105.156 546.549 105.287 546.6 105.381C546.651 105.472 546.722 105.536 546.813 105.572C546.907 105.609 547.015 105.628 547.137 105.628C547.222 105.628 547.307 105.621 547.393 105.607C547.478 105.589 547.543 105.577 547.589 105.568L547.874 106.919C547.783 106.947 547.655 106.98 547.491 107.017C547.326 107.057 547.126 107.081 546.89 107.089C546.452 107.107 546.069 107.048 545.739 106.915C545.413 106.781 545.158 106.574 544.976 106.293C544.795 106.011 544.705 105.656 544.708 105.227V98.8864ZM550.097 107L548.315 100.455H550.152L551.166 104.852H551.226L552.283 100.455H554.085L555.159 104.827H555.214L556.212 100.455H558.044L556.267 107H554.345L553.22 102.884H553.139L552.014 107H550.097ZM561.674 107.128C561.012 107.128 560.439 106.987 559.956 106.706C559.476 106.422 559.106 106.027 558.844 105.521C558.583 105.013 558.452 104.423 558.452 103.753C558.452 103.077 558.583 102.486 558.844 101.98C559.106 101.472 559.476 101.077 559.956 100.795C560.439 100.511 561.012 100.369 561.674 100.369C562.336 100.369 562.907 100.511 563.387 100.795C563.87 101.077 564.242 101.472 564.503 101.98C564.765 102.486 564.895 103.077 564.895 103.753C564.895 104.423 564.765 105.013 564.503 105.521C564.242 106.027 563.87 106.422 563.387 106.706C562.907 106.987 562.336 107.128 561.674 107.128ZM561.682 105.722C561.983 105.722 562.235 105.636 562.437 105.466C562.638 105.293 562.79 105.057 562.893 104.759C562.998 104.46 563.05 104.121 563.05 103.74C563.05 103.359 562.998 103.02 562.893 102.722C562.79 102.423 562.638 102.187 562.437 102.014C562.235 101.841 561.983 101.754 561.682 101.754C561.378 101.754 561.123 101.841 560.915 102.014C560.711 102.187 560.556 102.423 560.451 102.722C560.348 103.02 560.297 103.359 560.297 103.74C560.297 104.121 560.348 104.46 560.451 104.759C560.556 105.057 560.711 105.293 560.915 105.466C561.123 105.636 561.378 105.722 561.682 105.722ZM565.944 107V100.455H567.704V101.597H567.772C567.891 101.19 568.091 100.884 568.373 100.676C568.654 100.466 568.978 100.361 569.344 100.361C569.435 100.361 569.533 100.366 569.638 100.378C569.743 100.389 569.836 100.405 569.915 100.425V102.036C569.83 102.01 569.712 101.987 569.562 101.967C569.411 101.947 569.273 101.938 569.148 101.938C568.881 101.938 568.643 101.996 568.432 102.112C568.225 102.226 568.06 102.385 567.938 102.589C567.819 102.794 567.759 103.03 567.759 103.297V107H565.944ZM572.367 105.116L572.371 102.939H572.635L574.732 100.455H576.816L573.999 103.744H573.568L572.367 105.116ZM570.722 107V98.2727H572.537V107H570.722ZM574.813 107L572.887 104.149L574.097 102.866L576.939 107H574.813Z" fill="#474747"/>
<path d="M289.061 144L286.564 135.273H288.58L290.024 141.337H290.097L291.691 135.273H293.417L295.006 141.349H295.083L296.527 135.273H298.543L296.046 144H294.247L292.586 138.294H292.517L290.86 144H289.061ZM298.954 144V137.455H300.714V138.597H300.782C300.902 138.19 301.102 137.884 301.383 137.676C301.664 137.466 301.988 137.361 302.355 137.361C302.446 137.361 302.544 137.366 302.649 137.378C302.754 137.389 302.846 137.405 302.926 137.425V139.036C302.841 139.01 302.723 138.987 302.572 138.967C302.422 138.947 302.284 138.938 302.159 138.938C301.892 138.938 301.653 138.996 301.443 139.112C301.236 139.226 301.071 139.385 300.949 139.589C300.829 139.794 300.77 140.03 300.77 140.297V144H298.954ZM305.411 144.124C304.994 144.124 304.622 144.051 304.295 143.906C303.968 143.759 303.71 143.541 303.519 143.254C303.332 142.964 303.238 142.604 303.238 142.172C303.238 141.808 303.305 141.503 303.438 141.256C303.572 141.009 303.754 140.81 303.984 140.659C304.214 140.509 304.475 140.395 304.768 140.318C305.063 140.241 305.373 140.188 305.697 140.156C306.078 140.116 306.384 140.08 306.617 140.045C306.85 140.009 307.019 139.955 307.124 139.884C307.23 139.812 307.282 139.707 307.282 139.568V139.543C307.282 139.273 307.197 139.064 307.026 138.916C306.859 138.768 306.62 138.695 306.311 138.695C305.984 138.695 305.724 138.767 305.531 138.912C305.338 139.054 305.21 139.233 305.147 139.449L303.468 139.312C303.553 138.915 303.721 138.571 303.971 138.281C304.221 137.989 304.543 137.764 304.938 137.608C305.336 137.449 305.796 137.369 306.319 137.369C306.683 137.369 307.031 137.412 307.363 137.497C307.698 137.582 307.995 137.714 308.254 137.893C308.515 138.072 308.721 138.303 308.872 138.584C309.022 138.862 309.097 139.196 309.097 139.585V144H307.376V143.092H307.325C307.22 143.297 307.079 143.477 306.903 143.634C306.727 143.787 306.515 143.908 306.268 143.996C306.021 144.081 305.735 144.124 305.411 144.124ZM305.931 142.871C306.198 142.871 306.434 142.818 306.639 142.713C306.843 142.605 307.004 142.46 307.12 142.278C307.237 142.097 307.295 141.891 307.295 141.661V140.966C307.238 141.003 307.16 141.037 307.061 141.068C306.964 141.097 306.855 141.124 306.732 141.149C306.61 141.172 306.488 141.193 306.366 141.213C306.244 141.23 306.133 141.246 306.034 141.26C305.82 141.291 305.634 141.341 305.475 141.409C305.316 141.477 305.193 141.57 305.105 141.686C305.017 141.8 304.972 141.942 304.972 142.112C304.972 142.359 305.062 142.548 305.241 142.679C305.423 142.807 305.653 142.871 305.931 142.871ZM310.374 146.455V137.455H312.164V138.554H312.245C312.324 138.378 312.439 138.199 312.59 138.017C312.743 137.832 312.942 137.679 313.186 137.557C313.434 137.432 313.74 137.369 314.107 137.369C314.584 137.369 315.024 137.494 315.428 137.744C315.831 137.991 316.154 138.365 316.395 138.865C316.637 139.362 316.757 139.986 316.757 140.736C316.757 141.466 316.639 142.082 316.404 142.585C316.171 143.085 315.853 143.464 315.449 143.723C315.049 143.979 314.6 144.107 314.103 144.107C313.75 144.107 313.451 144.048 313.203 143.932C312.959 143.815 312.759 143.669 312.603 143.493C312.446 143.314 312.327 143.134 312.245 142.952H312.189V146.455H310.374ZM312.151 140.727C312.151 141.116 312.205 141.456 312.313 141.746C312.421 142.036 312.577 142.261 312.782 142.423C312.986 142.582 313.235 142.662 313.527 142.662C313.823 142.662 314.073 142.581 314.277 142.419C314.482 142.254 314.637 142.027 314.742 141.737C314.85 141.445 314.904 141.108 314.904 140.727C314.904 140.349 314.851 140.017 314.746 139.73C314.641 139.443 314.486 139.219 314.282 139.057C314.077 138.895 313.826 138.814 313.527 138.814C313.232 138.814 312.982 138.892 312.777 139.048C312.576 139.205 312.421 139.426 312.313 139.713C312.205 140 312.151 140.338 312.151 140.727ZM317.836 146.455V137.455H319.625V138.554H319.706C319.786 138.378 319.901 138.199 320.052 138.017C320.205 137.832 320.404 137.679 320.648 137.557C320.895 137.432 321.202 137.369 321.569 137.369C322.046 137.369 322.486 137.494 322.89 137.744C323.293 137.991 323.615 138.365 323.857 138.865C324.098 139.362 324.219 139.986 324.219 140.736C324.219 141.466 324.101 142.082 323.865 142.585C323.632 143.085 323.314 143.464 322.911 143.723C322.51 143.979 322.061 144.107 321.564 144.107C321.212 144.107 320.912 144.048 320.665 143.932C320.421 143.815 320.221 143.669 320.064 143.493C319.908 143.314 319.789 143.134 319.706 142.952H319.651V146.455H317.836ZM319.613 140.727C319.613 141.116 319.667 141.456 319.775 141.746C319.882 142.036 320.039 142.261 320.243 142.423C320.448 142.582 320.696 142.662 320.989 142.662C321.284 142.662 321.534 142.581 321.739 142.419C321.944 142.254 322.098 142.027 322.204 141.737C322.311 141.445 322.365 141.108 322.365 140.727C322.365 140.349 322.313 140.017 322.208 139.73C322.103 139.443 321.948 139.219 321.743 139.057C321.539 138.895 321.287 138.814 320.989 138.814C320.694 138.814 320.444 138.892 320.239 139.048C320.037 139.205 319.882 139.426 319.775 139.713C319.667 140 319.613 140.338 319.613 140.727ZM328.28 144.128C327.607 144.128 327.027 143.991 326.542 143.719C326.059 143.443 325.687 143.054 325.425 142.551C325.164 142.045 325.033 141.447 325.033 140.757C325.033 140.084 325.164 139.493 325.425 138.984C325.687 138.476 326.054 138.08 326.529 137.795C327.006 137.511 327.566 137.369 328.208 137.369C328.64 137.369 329.042 137.439 329.414 137.578C329.789 137.714 330.116 137.92 330.394 138.196C330.675 138.472 330.894 138.818 331.05 139.236C331.206 139.651 331.285 140.136 331.285 140.693V141.192H325.758V140.067H329.576C329.576 139.805 329.519 139.574 329.405 139.372C329.292 139.17 329.134 139.013 328.932 138.899C328.733 138.783 328.502 138.724 328.238 138.724C327.962 138.724 327.718 138.788 327.505 138.916C327.295 139.041 327.13 139.21 327.01 139.423C326.891 139.634 326.83 139.868 326.827 140.126V141.196C326.827 141.52 326.887 141.8 327.006 142.036C327.128 142.271 327.3 142.453 327.522 142.581C327.743 142.709 328.006 142.773 328.31 142.773C328.512 142.773 328.697 142.744 328.864 142.688C329.032 142.631 329.175 142.545 329.295 142.432C329.414 142.318 329.505 142.179 329.567 142.014L331.246 142.125C331.161 142.528 330.986 142.881 330.722 143.182C330.461 143.48 330.123 143.713 329.708 143.881C329.296 144.045 328.82 144.128 328.28 144.128ZM334.749 144.107C334.252 144.107 333.802 143.979 333.398 143.723C332.998 143.464 332.68 143.085 332.444 142.585C332.211 142.082 332.094 141.466 332.094 140.736C332.094 139.986 332.215 139.362 332.457 138.865C332.698 138.365 333.019 137.991 333.42 137.744C333.823 137.494 334.265 137.369 334.745 137.369C335.111 137.369 335.417 137.432 335.661 137.557C335.908 137.679 336.107 137.832 336.258 138.017C336.411 138.199 336.528 138.378 336.607 138.554H336.663V135.273H338.474V144H336.684V142.952H336.607C336.522 143.134 336.401 143.314 336.245 143.493C336.091 143.669 335.891 143.815 335.644 143.932C335.4 144.048 335.101 144.107 334.749 144.107ZM335.324 142.662C335.617 142.662 335.864 142.582 336.066 142.423C336.27 142.261 336.427 142.036 336.535 141.746C336.645 141.456 336.701 141.116 336.701 140.727C336.701 140.338 336.647 140 336.539 139.713C336.431 139.426 336.275 139.205 336.07 139.048C335.866 138.892 335.617 138.814 335.324 138.814C335.026 138.814 334.775 138.895 334.57 139.057C334.366 139.219 334.211 139.443 334.106 139.73C334.001 140.017 333.948 140.349 333.948 140.727C333.948 141.108 334.001 141.445 334.106 141.737C334.214 142.027 334.368 142.254 334.57 142.419C334.775 142.581 335.026 142.662 335.324 142.662ZM342.514 144V135.273H345.957C346.619 135.273 347.183 135.399 347.649 135.652C348.114 135.902 348.47 136.25 348.714 136.696C348.961 137.139 349.085 137.651 349.085 138.23C349.085 138.81 348.96 139.321 348.71 139.764C348.46 140.207 348.097 140.553 347.623 140.8C347.151 141.047 346.58 141.17 345.91 141.17H343.715V139.692H345.612C345.967 139.692 346.259 139.631 346.489 139.509C346.722 139.384 346.896 139.212 347.009 138.993C347.126 138.771 347.184 138.517 347.184 138.23C347.184 137.94 347.126 137.687 347.009 137.472C346.896 137.253 346.722 137.084 346.489 136.964C346.256 136.842 345.961 136.781 345.603 136.781H344.359V144H342.514ZM351.808 144.124C351.39 144.124 351.018 144.051 350.691 143.906C350.365 143.759 350.106 143.541 349.916 143.254C349.728 142.964 349.634 142.604 349.634 142.172C349.634 141.808 349.701 141.503 349.835 141.256C349.968 141.009 350.15 140.81 350.38 140.659C350.61 140.509 350.872 140.395 351.164 140.318C351.46 140.241 351.769 140.188 352.093 140.156C352.474 140.116 352.781 140.08 353.014 140.045C353.247 140.009 353.416 139.955 353.521 139.884C353.626 139.812 353.678 139.707 353.678 139.568V139.543C353.678 139.273 353.593 139.064 353.423 138.916C353.255 138.768 353.017 138.695 352.707 138.695C352.38 138.695 352.12 138.767 351.927 138.912C351.734 139.054 351.606 139.233 351.544 139.449L349.865 139.312C349.95 138.915 350.117 138.571 350.367 138.281C350.617 137.989 350.94 137.764 351.335 137.608C351.732 137.449 352.193 137.369 352.715 137.369C353.079 137.369 353.427 137.412 353.759 137.497C354.095 137.582 354.392 137.714 354.65 137.893C354.911 138.072 355.117 138.303 355.268 138.584C355.419 138.862 355.494 139.196 355.494 139.585V144H353.772V143.092H353.721C353.616 143.297 353.475 143.477 353.299 143.634C353.123 143.787 352.911 143.908 352.664 143.996C352.417 144.081 352.132 144.124 351.808 144.124ZM352.328 142.871C352.595 142.871 352.83 142.818 353.035 142.713C353.24 142.605 353.4 142.46 353.517 142.278C353.633 142.097 353.691 141.891 353.691 141.661V140.966C353.634 141.003 353.556 141.037 353.457 141.068C353.36 141.097 353.251 141.124 353.129 141.149C353.007 141.172 352.884 141.193 352.762 141.213C352.64 141.23 352.529 141.246 352.43 141.26C352.217 141.291 352.031 141.341 351.872 141.409C351.713 141.477 351.589 141.57 351.501 141.686C351.413 141.8 351.369 141.942 351.369 142.112C351.369 142.359 351.458 142.548 351.637 142.679C351.819 142.807 352.049 142.871 352.328 142.871ZM357.657 146.455C357.426 146.455 357.211 146.436 357.009 146.399C356.81 146.365 356.645 146.321 356.514 146.267L356.924 144.912C357.137 144.977 357.328 145.013 357.499 145.018C357.672 145.024 357.821 144.984 357.946 144.899C358.074 144.814 358.178 144.669 358.257 144.464L358.364 144.188L356.016 137.455H357.925L359.28 142.261H359.348L360.716 137.455H362.638L360.094 144.707C359.972 145.06 359.806 145.366 359.595 145.628C359.388 145.892 359.125 146.095 358.807 146.237C358.489 146.382 358.105 146.455 357.657 146.455ZM365.25 135.273V144H363.435V135.273H365.25ZM369.53 144.128C368.868 144.128 368.296 143.987 367.813 143.706C367.333 143.422 366.962 143.027 366.7 142.521C366.439 142.013 366.308 141.423 366.308 140.753C366.308 140.077 366.439 139.486 366.7 138.98C366.962 138.472 367.333 138.077 367.813 137.795C368.296 137.511 368.868 137.369 369.53 137.369C370.192 137.369 370.763 137.511 371.243 137.795C371.726 138.077 372.098 138.472 372.36 138.98C372.621 139.486 372.752 140.077 372.752 140.753C372.752 141.423 372.621 142.013 372.36 142.521C372.098 143.027 371.726 143.422 371.243 143.706C370.763 143.987 370.192 144.128 369.53 144.128ZM369.538 142.722C369.84 142.722 370.091 142.636 370.293 142.466C370.494 142.293 370.646 142.057 370.749 141.759C370.854 141.46 370.906 141.121 370.906 140.74C370.906 140.359 370.854 140.02 370.749 139.722C370.646 139.423 370.494 139.187 370.293 139.014C370.091 138.841 369.84 138.754 369.538 138.754C369.235 138.754 368.979 138.841 368.771 139.014C368.567 139.187 368.412 139.423 368.307 139.722C368.205 140.02 368.154 140.359 368.154 140.74C368.154 141.121 368.205 141.46 368.307 141.759C368.412 142.057 368.567 142.293 368.771 142.466C368.979 142.636 369.235 142.722 369.538 142.722ZM375.666 144.124C375.249 144.124 374.877 144.051 374.55 143.906C374.223 143.759 373.965 143.541 373.774 143.254C373.587 142.964 373.493 142.604 373.493 142.172C373.493 141.808 373.56 141.503 373.693 141.256C373.827 141.009 374.009 140.81 374.239 140.659C374.469 140.509 374.73 140.395 375.023 140.318C375.318 140.241 375.628 140.188 375.952 140.156C376.333 140.116 376.639 140.08 376.872 140.045C377.105 140.009 377.274 139.955 377.379 139.884C377.485 139.812 377.537 139.707 377.537 139.568V139.543C377.537 139.273 377.452 139.064 377.281 138.916C377.114 138.768 376.875 138.695 376.566 138.695C376.239 138.695 375.979 138.767 375.786 138.912C375.593 139.054 375.465 139.233 375.402 139.449L373.723 139.312C373.808 138.915 373.976 138.571 374.226 138.281C374.476 137.989 374.799 137.764 375.193 137.608C375.591 137.449 376.051 137.369 376.574 137.369C376.938 137.369 377.286 137.412 377.618 137.497C377.953 137.582 378.25 137.714 378.509 137.893C378.77 138.072 378.976 138.303 379.127 138.584C379.277 138.862 379.353 139.196 379.353 139.585V144H377.631V143.092H377.58C377.475 143.297 377.334 143.477 377.158 143.634C376.982 143.787 376.77 143.908 376.523 143.996C376.276 144.081 375.99 144.124 375.666 144.124ZM376.186 142.871C376.453 142.871 376.689 142.818 376.894 142.713C377.098 142.605 377.259 142.46 377.375 142.278C377.492 142.097 377.55 141.891 377.55 141.661V140.966C377.493 141.003 377.415 141.037 377.316 141.068C377.219 141.097 377.11 141.124 376.987 141.149C376.865 141.172 376.743 141.193 376.621 141.213C376.499 141.23 376.388 141.246 376.289 141.26C376.076 141.291 375.889 141.341 375.73 141.409C375.571 141.477 375.448 141.57 375.36 141.686C375.272 141.8 375.228 141.942 375.228 142.112C375.228 142.359 375.317 142.548 375.496 142.679C375.678 142.807 375.908 142.871 376.186 142.871ZM383.041 144.107C382.544 144.107 382.093 143.979 381.69 143.723C381.289 143.464 380.971 143.085 380.735 142.585C380.502 142.082 380.386 141.466 380.386 140.736C380.386 139.986 380.507 139.362 380.748 138.865C380.99 138.365 381.311 137.991 381.711 137.744C382.115 137.494 382.556 137.369 383.037 137.369C383.403 137.369 383.708 137.432 383.953 137.557C384.2 137.679 384.399 137.832 384.549 138.017C384.703 138.199 384.819 138.378 384.899 138.554H384.954V135.273H386.765V144H384.975V142.952H384.899C384.814 143.134 384.693 143.314 384.537 143.493C384.383 143.669 384.183 143.815 383.936 143.932C383.691 144.048 383.393 144.107 383.041 144.107ZM383.616 142.662C383.909 142.662 384.156 142.582 384.358 142.423C384.562 142.261 384.718 142.036 384.826 141.746C384.937 141.456 384.993 141.116 384.993 140.727C384.993 140.338 384.939 140 384.831 139.713C384.723 139.426 384.566 139.205 384.362 139.048C384.157 138.892 383.909 138.814 383.616 138.814C383.318 138.814 383.066 138.895 382.862 139.057C382.657 139.219 382.502 139.443 382.397 139.73C382.292 140.017 382.24 140.349 382.24 140.727C382.24 141.108 382.292 141.445 382.397 141.737C382.505 142.027 382.66 142.254 382.862 142.419C383.066 142.581 383.318 142.662 383.616 142.662ZM396.592 138.094C396.533 137.886 396.449 137.703 396.341 137.544C396.233 137.382 396.101 137.246 395.944 137.135C395.791 137.021 395.615 136.935 395.416 136.875C395.22 136.815 395.003 136.786 394.764 136.786C394.318 136.786 393.926 136.896 393.588 137.118C393.253 137.339 392.991 137.662 392.804 138.085C392.616 138.506 392.523 139.02 392.523 139.628C392.523 140.236 392.615 140.753 392.8 141.179C392.984 141.605 393.246 141.93 393.584 142.155C393.922 142.376 394.321 142.487 394.781 142.487C395.199 142.487 395.555 142.413 395.851 142.266C396.149 142.115 396.376 141.903 396.533 141.631C396.692 141.358 396.771 141.036 396.771 140.663L397.146 140.719H394.896V139.33H398.548V140.429C398.548 141.196 398.386 141.855 398.062 142.406C397.738 142.955 397.292 143.378 396.724 143.676C396.156 143.972 395.506 144.119 394.773 144.119C393.954 144.119 393.236 143.939 392.616 143.578C391.997 143.214 391.514 142.699 391.167 142.031C390.824 141.361 390.652 140.565 390.652 139.645C390.652 138.937 390.754 138.307 390.959 137.753C391.166 137.196 391.456 136.724 391.828 136.338C392.2 135.952 392.633 135.658 393.128 135.456C393.622 135.254 394.158 135.153 394.734 135.153C395.229 135.153 395.689 135.226 396.115 135.371C396.541 135.513 396.919 135.714 397.248 135.976C397.581 136.237 397.852 136.548 398.062 136.909C398.273 137.267 398.408 137.662 398.467 138.094H396.592ZM399.802 135.273H402.078L404.481 141.136H404.583L406.987 135.273H409.262V144H407.473V138.32H407.4L405.142 143.957H403.923L401.664 138.298H401.592V144H399.802V135.273ZM410.651 144V135.273H414.094C414.756 135.273 415.32 135.399 415.786 135.652C416.251 135.902 416.607 136.25 416.851 136.696C417.098 137.139 417.222 137.651 417.222 138.23C417.222 138.81 417.097 139.321 416.847 139.764C416.597 140.207 416.234 140.553 415.76 140.8C415.288 141.047 414.717 141.17 414.047 141.17H411.852V139.692H413.749C414.104 139.692 414.396 139.631 414.626 139.509C414.859 139.384 415.033 139.212 415.146 138.993C415.263 138.771 415.321 138.517 415.321 138.23C415.321 137.94 415.263 137.687 415.146 137.472C415.033 137.253 414.859 137.084 414.626 136.964C414.394 136.842 414.098 136.781 413.74 136.781H412.496V144H410.651Z" fill="#474747"/>
<rect x="106" y="129" width="144" height="48" rx="19.2" fill="#E6E6E6" stroke="#C2C2C2" stroke-width="2"/>
<path d="M147.273 148.273V157H145.428V148.273H147.273ZM148.327 149.794V148.273H155.495V149.794H152.823V157H150.999V149.794H148.327ZM161.278 150.783C161.243 150.439 161.097 150.172 160.839 149.982C160.58 149.791 160.229 149.696 159.786 149.696C159.485 149.696 159.231 149.739 159.023 149.824C158.816 149.906 158.657 150.021 158.546 150.169C158.438 150.317 158.384 150.484 158.384 150.672C158.378 150.828 158.411 150.964 158.482 151.081C158.556 151.197 158.657 151.298 158.785 151.384C158.913 151.466 159.06 151.538 159.228 151.601C159.395 151.661 159.574 151.712 159.765 151.754L160.549 151.942C160.93 152.027 161.279 152.141 161.597 152.283C161.915 152.425 162.191 152.599 162.424 152.807C162.657 153.014 162.837 153.259 162.965 153.54C163.096 153.821 163.163 154.143 163.165 154.507C163.163 155.041 163.026 155.504 162.756 155.896C162.489 156.286 162.103 156.588 161.597 156.804C161.094 157.017 160.488 157.124 159.778 157.124C159.073 157.124 158.459 157.016 157.937 156.8C157.417 156.584 157.011 156.264 156.718 155.841C156.428 155.415 156.276 154.888 156.262 154.26H158.047C158.067 154.553 158.151 154.797 158.299 154.993C158.449 155.186 158.65 155.332 158.9 155.432C159.153 155.528 159.438 155.577 159.756 155.577C160.069 155.577 160.34 155.531 160.57 155.44C160.803 155.349 160.984 155.223 161.111 155.061C161.239 154.899 161.303 154.713 161.303 154.503C161.303 154.307 161.245 154.142 161.128 154.009C161.015 153.875 160.847 153.761 160.626 153.668C160.407 153.574 160.138 153.489 159.82 153.412L158.87 153.173C158.134 152.994 157.553 152.714 157.127 152.334C156.701 151.953 156.489 151.44 156.492 150.795C156.489 150.267 156.63 149.805 156.914 149.411C157.201 149.016 157.594 148.707 158.094 148.486C158.594 148.264 159.163 148.153 159.799 148.153C160.447 148.153 161.012 148.264 161.495 148.486C161.981 148.707 162.359 149.016 162.628 149.411C162.898 149.805 163.038 150.263 163.046 150.783H161.278ZM174.62 151.328H172.754C172.72 151.087 172.65 150.872 172.545 150.685C172.44 150.494 172.305 150.332 172.14 150.199C171.975 150.065 171.785 149.963 171.569 149.892C171.356 149.821 171.124 149.786 170.874 149.786C170.423 149.786 170.029 149.898 169.694 150.122C169.359 150.344 169.099 150.668 168.914 151.094C168.729 151.517 168.637 152.031 168.637 152.636C168.637 153.259 168.729 153.781 168.914 154.205C169.102 154.628 169.363 154.947 169.698 155.163C170.033 155.379 170.421 155.487 170.862 155.487C171.109 155.487 171.337 155.455 171.548 155.389C171.761 155.324 171.95 155.229 172.114 155.104C172.279 154.976 172.416 154.821 172.524 154.639C172.634 154.457 172.711 154.25 172.754 154.017L174.62 154.026C174.572 154.426 174.451 154.812 174.258 155.185C174.068 155.554 173.81 155.885 173.487 156.178C173.166 156.467 172.782 156.697 172.336 156.868C171.893 157.036 171.391 157.119 170.832 157.119C170.053 157.119 169.357 156.943 168.744 156.591C168.133 156.239 167.65 155.729 167.295 155.061C166.943 154.393 166.766 153.585 166.766 152.636C166.766 151.685 166.945 150.875 167.303 150.207C167.661 149.54 168.147 149.031 168.761 148.682C169.374 148.33 170.065 148.153 170.832 148.153C171.337 148.153 171.806 148.224 172.238 148.366C172.673 148.509 173.058 148.716 173.393 148.989C173.728 149.259 174.001 149.589 174.211 149.982C174.424 150.374 174.56 150.822 174.62 151.328ZM177.593 153.216V157H175.777V148.273H177.541V151.609H177.618C177.766 151.223 178.004 150.92 178.334 150.702C178.664 150.48 179.077 150.369 179.574 150.369C180.029 150.369 180.425 150.469 180.763 150.668C181.104 150.864 181.368 151.146 181.556 151.516C181.746 151.882 181.84 152.321 181.837 152.832V157H180.021V153.156C180.024 152.753 179.922 152.439 179.715 152.214C179.51 151.99 179.223 151.878 178.854 151.878C178.607 151.878 178.388 151.93 178.198 152.036C178.01 152.141 177.862 152.294 177.754 152.496C177.649 152.695 177.595 152.935 177.593 153.216ZM185 157.124C184.582 157.124 184.21 157.051 183.883 156.906C183.557 156.759 183.298 156.541 183.108 156.254C182.92 155.964 182.827 155.604 182.827 155.172C182.827 154.808 182.893 154.503 183.027 154.256C183.16 154.009 183.342 153.81 183.572 153.659C183.802 153.509 184.064 153.395 184.356 153.318C184.652 153.241 184.962 153.188 185.285 153.156C185.666 153.116 185.973 153.08 186.206 153.045C186.439 153.009 186.608 152.955 186.713 152.884C186.818 152.812 186.871 152.707 186.871 152.568V152.543C186.871 152.273 186.785 152.064 186.615 151.916C186.447 151.768 186.209 151.695 185.899 151.695C185.572 151.695 185.312 151.767 185.119 151.912C184.926 152.054 184.798 152.233 184.736 152.449L183.057 152.312C183.142 151.915 183.31 151.571 183.56 151.281C183.81 150.989 184.132 150.764 184.527 150.608C184.925 150.449 185.385 150.369 185.908 150.369C186.271 150.369 186.619 150.412 186.952 150.497C187.287 150.582 187.584 150.714 187.842 150.893C188.104 151.072 188.31 151.303 188.46 151.584C188.611 151.862 188.686 152.196 188.686 152.585V157H186.964V156.092H186.913C186.808 156.297 186.668 156.477 186.491 156.634C186.315 156.787 186.104 156.908 185.856 156.996C185.609 157.081 185.324 157.124 185 157.124ZM185.52 155.871C185.787 155.871 186.023 155.818 186.227 155.713C186.432 155.605 186.592 155.46 186.709 155.278C186.825 155.097 186.883 154.891 186.883 154.661V153.966C186.827 154.003 186.749 154.037 186.649 154.068C186.552 154.097 186.443 154.124 186.321 154.149C186.199 154.172 186.077 154.193 185.954 154.213C185.832 154.23 185.722 154.246 185.622 154.26C185.409 154.291 185.223 154.341 185.064 154.409C184.905 154.477 184.781 154.57 184.693 154.686C184.605 154.8 184.561 154.942 184.561 155.112C184.561 155.359 184.65 155.548 184.829 155.679C185.011 155.807 185.241 155.871 185.52 155.871ZM189.962 157V150.455H191.778V157H189.962ZM190.874 149.611C190.604 149.611 190.373 149.521 190.18 149.342C189.989 149.161 189.894 148.943 189.894 148.69C189.894 148.44 189.989 148.226 190.18 148.047C190.373 147.865 190.604 147.774 190.874 147.774C191.144 147.774 191.374 147.865 191.565 148.047C191.758 148.226 191.854 148.44 191.854 148.69C191.854 148.943 191.758 149.161 191.565 149.342C191.374 149.521 191.144 149.611 190.874 149.611ZM194.915 153.216V157H193.1V150.455H194.83V151.609H194.907C195.052 151.229 195.295 150.928 195.635 150.706C195.976 150.482 196.39 150.369 196.875 150.369C197.33 150.369 197.726 150.469 198.064 150.668C198.402 150.866 198.665 151.151 198.853 151.52C199.04 151.886 199.134 152.324 199.134 152.832V157H197.319V153.156C197.322 152.756 197.219 152.443 197.012 152.219C196.804 151.991 196.519 151.878 196.155 151.878C195.911 151.878 195.695 151.93 195.508 152.036C195.323 152.141 195.178 152.294 195.073 152.496C194.971 152.695 194.918 152.935 194.915 153.216ZM204.616 157H202.639L205.652 148.273H208.03L211.038 157H209.061L206.875 150.267H206.807L204.616 157ZM204.493 153.57H209.163V155.01H204.493V153.57Z" fill="#363636"/>
<rect x="485" y="122" width="98" height="64" rx="25.6" fill="#E6E6E6" stroke="#C2C2C2" stroke-width="2"/>
<path d="M513.966 149.273V158H512.121V149.273H513.966ZM515.02 150.794V149.273H522.188V150.794H519.516V158H517.692V150.794H515.02ZM527.971 151.783C527.937 151.439 527.79 151.172 527.532 150.982C527.273 150.791 526.922 150.696 526.479 150.696C526.178 150.696 525.924 150.739 525.716 150.824C525.509 150.906 525.35 151.021 525.239 151.169C525.131 151.317 525.077 151.484 525.077 151.672C525.071 151.828 525.104 151.964 525.175 152.081C525.249 152.197 525.35 152.298 525.478 152.384C525.606 152.466 525.753 152.538 525.921 152.601C526.088 152.661 526.267 152.712 526.458 152.754L527.242 152.942C527.623 153.027 527.972 153.141 528.29 153.283C528.608 153.425 528.884 153.599 529.117 153.807C529.35 154.014 529.53 154.259 529.658 154.54C529.789 154.821 529.856 155.143 529.858 155.507C529.856 156.041 529.719 156.504 529.449 156.896C529.182 157.286 528.796 157.588 528.29 157.804C527.787 158.017 527.181 158.124 526.471 158.124C525.766 158.124 525.152 158.016 524.63 157.8C524.11 157.584 523.704 157.264 523.411 156.841C523.121 156.415 522.969 155.888 522.955 155.26H524.74C524.76 155.553 524.844 155.797 524.992 155.993C525.142 156.186 525.343 156.332 525.593 156.432C525.846 156.528 526.131 156.577 526.449 156.577C526.762 156.577 527.033 156.531 527.263 156.44C527.496 156.349 527.677 156.223 527.804 156.061C527.932 155.899 527.996 155.713 527.996 155.503C527.996 155.307 527.938 155.142 527.821 155.009C527.708 154.875 527.54 154.761 527.319 154.668C527.1 154.574 526.831 154.489 526.513 154.412L525.563 154.173C524.827 153.994 524.246 153.714 523.82 153.334C523.394 152.953 523.182 152.44 523.185 151.795C523.182 151.267 523.323 150.805 523.607 150.411C523.894 150.016 524.287 149.707 524.787 149.486C525.287 149.264 525.856 149.153 526.492 149.153C527.14 149.153 527.705 149.264 528.188 149.486C528.674 149.707 529.052 150.016 529.321 150.411C529.591 150.805 529.731 151.263 529.739 151.783H527.971ZM533.613 158V149.273H535.458V152.874H539.204V149.273H541.045V158H539.204V154.395H535.458V158H533.613ZM546.597 155.213V151.455H548.413V158H546.67V156.811H546.602C546.454 157.195 546.208 157.503 545.864 157.736C545.523 157.969 545.107 158.085 544.616 158.085C544.178 158.085 543.793 157.986 543.461 157.787C543.129 157.588 542.869 157.305 542.681 156.939C542.496 156.572 542.403 156.134 542.4 155.622V151.455H544.215V155.298C544.218 155.685 544.322 155.99 544.526 156.214C544.731 156.439 545.005 156.551 545.349 156.551C545.567 156.551 545.772 156.501 545.962 156.402C546.153 156.3 546.306 156.149 546.423 155.95C546.542 155.751 546.6 155.506 546.597 155.213ZM549.767 158V149.273H551.582V152.554H551.638C551.717 152.378 551.832 152.199 551.983 152.017C552.136 151.832 552.335 151.679 552.579 151.557C552.826 151.432 553.133 151.369 553.5 151.369C553.977 151.369 554.417 151.494 554.821 151.744C555.224 151.991 555.547 152.365 555.788 152.865C556.03 153.362 556.15 153.986 556.15 154.736C556.15 155.466 556.032 156.082 555.797 156.585C555.564 157.085 555.246 157.464 554.842 157.723C554.442 157.979 553.993 158.107 553.496 158.107C553.143 158.107 552.844 158.048 552.596 157.932C552.352 157.815 552.152 157.669 551.996 157.493C551.839 157.314 551.72 157.134 551.638 156.952H551.557V158H549.767ZM551.544 154.727C551.544 155.116 551.598 155.456 551.706 155.746C551.814 156.036 551.97 156.261 552.174 156.423C552.379 156.582 552.628 156.662 552.92 156.662C553.216 156.662 553.466 156.581 553.67 156.419C553.875 156.254 554.03 156.027 554.135 155.737C554.243 155.445 554.297 155.108 554.297 154.727C554.297 154.349 554.244 154.017 554.139 153.73C554.034 153.443 553.879 153.219 553.674 153.057C553.47 152.895 553.219 152.814 552.92 152.814C552.625 152.814 552.375 152.892 552.17 153.048C551.969 153.205 551.814 153.426 551.706 153.713C551.598 154 551.544 154.338 551.544 154.727Z" fill="#363636"/>
<rect x="812" y="129" width="144" height="48" rx="19.2" fill="#E6E6E6" stroke="#C2C2C2" stroke-width="2"/>
<path d="M853.795 148.273V157H851.95V148.273H853.795ZM854.849 149.794V148.273H862.016V149.794H859.344V157H857.521V149.794H854.849ZM867.799 150.783C867.765 150.439 867.619 150.172 867.36 149.982C867.102 149.791 866.751 149.696 866.308 149.696C866.006 149.696 865.752 149.739 865.545 149.824C865.337 149.906 865.178 150.021 865.068 150.169C864.96 150.317 864.906 150.484 864.906 150.672C864.9 150.828 864.933 150.964 865.004 151.081C865.077 151.197 865.178 151.298 865.306 151.384C865.434 151.466 865.582 151.538 865.749 151.601C865.917 151.661 866.096 151.712 866.286 151.754L867.07 151.942C867.451 152.027 867.8 152.141 868.119 152.283C868.437 152.425 868.712 152.599 868.945 152.807C869.178 153.014 869.359 153.259 869.487 153.54C869.617 153.821 869.684 154.143 869.687 154.507C869.684 155.041 869.548 155.504 869.278 155.896C869.011 156.286 868.624 156.588 868.119 156.804C867.616 157.017 867.009 157.124 866.299 157.124C865.595 157.124 864.981 157.016 864.458 156.8C863.938 156.584 863.532 156.264 863.239 155.841C862.95 155.415 862.798 154.888 862.783 154.26H864.569C864.589 154.553 864.673 154.797 864.82 154.993C864.971 155.186 865.171 155.332 865.421 155.432C865.674 155.528 865.96 155.577 866.278 155.577C866.59 155.577 866.862 155.531 867.092 155.44C867.325 155.349 867.505 155.223 867.633 155.061C867.761 154.899 867.825 154.713 867.825 154.503C867.825 154.307 867.766 154.142 867.65 154.009C867.536 153.875 867.369 153.761 867.147 153.668C866.928 153.574 866.66 153.489 866.342 153.412L865.391 153.173C864.656 152.994 864.075 152.714 863.648 152.334C863.222 151.953 863.011 151.44 863.014 150.795C863.011 150.267 863.151 149.805 863.435 149.411C863.722 149.016 864.116 148.707 864.616 148.486C865.116 148.264 865.684 148.153 866.32 148.153C866.968 148.153 867.533 148.264 868.016 148.486C868.502 148.707 868.88 149.016 869.15 149.411C869.42 149.805 869.559 150.263 869.568 150.783H867.799ZM881.142 151.328H879.275C879.241 151.087 879.171 150.872 879.066 150.685C878.961 150.494 878.826 150.332 878.661 150.199C878.497 150.065 878.306 149.963 878.09 149.892C877.877 149.821 877.646 149.786 877.396 149.786C876.944 149.786 876.551 149.898 876.215 150.122C875.88 150.344 875.62 150.668 875.436 151.094C875.251 151.517 875.159 152.031 875.159 152.636C875.159 153.259 875.251 153.781 875.436 154.205C875.623 154.628 875.884 154.947 876.22 155.163C876.555 155.379 876.943 155.487 877.383 155.487C877.63 155.487 877.859 155.455 878.069 155.389C878.282 155.324 878.471 155.229 878.636 155.104C878.801 154.976 878.937 154.821 879.045 154.639C879.156 154.457 879.232 154.25 879.275 154.017L881.142 154.026C881.093 154.426 880.973 154.812 880.779 155.185C880.589 155.554 880.332 155.885 880.008 156.178C879.687 156.467 879.304 156.697 878.857 156.868C878.414 157.036 877.913 157.119 877.353 157.119C876.575 157.119 875.879 156.943 875.265 156.591C874.654 156.239 874.171 155.729 873.816 155.061C873.464 154.393 873.288 153.585 873.288 152.636C873.288 151.685 873.467 150.875 873.825 150.207C874.183 149.54 874.669 149.031 875.282 148.682C875.896 148.33 876.586 148.153 877.353 148.153C877.859 148.153 878.328 148.224 878.759 148.366C879.194 148.509 879.579 148.716 879.914 148.989C880.25 149.259 880.522 149.589 880.732 149.982C880.946 150.374 881.082 150.822 881.142 151.328ZM884.114 153.216V157H882.299V148.273H884.063V151.609H884.14C884.287 151.223 884.526 150.92 884.855 150.702C885.185 150.48 885.598 150.369 886.096 150.369C886.55 150.369 886.946 150.469 887.284 150.668C887.625 150.864 887.89 151.146 888.077 151.516C888.267 151.882 888.361 152.321 888.358 152.832V157H886.543V153.156C886.546 152.753 886.444 152.439 886.236 152.214C886.032 151.99 885.745 151.878 885.375 151.878C885.128 151.878 884.909 151.93 884.719 152.036C884.532 152.141 884.384 152.294 884.276 152.496C884.171 152.695 884.117 152.935 884.114 153.216ZM891.521 157.124C891.104 157.124 890.732 157.051 890.405 156.906C890.078 156.759 889.82 156.541 889.629 156.254C889.442 155.964 889.348 155.604 889.348 155.172C889.348 154.808 889.415 154.503 889.548 154.256C889.682 154.009 889.864 153.81 890.094 153.659C890.324 153.509 890.585 153.395 890.878 153.318C891.173 153.241 891.483 153.188 891.807 153.156C892.188 153.116 892.494 153.08 892.727 153.045C892.96 153.009 893.129 152.955 893.234 152.884C893.34 152.812 893.392 152.707 893.392 152.568V152.543C893.392 152.273 893.307 152.064 893.136 151.916C892.969 151.768 892.73 151.695 892.421 151.695C892.094 151.695 891.834 151.767 891.641 151.912C891.448 152.054 891.32 152.233 891.257 152.449L889.578 152.312C889.663 151.915 889.831 151.571 890.081 151.281C890.331 150.989 890.654 150.764 891.048 150.608C891.446 150.449 891.906 150.369 892.429 150.369C892.793 150.369 893.141 150.412 893.473 150.497C893.808 150.582 894.105 150.714 894.364 150.893C894.625 151.072 894.831 151.303 894.982 151.584C895.132 151.862 895.207 152.196 895.207 152.585V157H893.486V156.092H893.435C893.33 156.297 893.189 156.477 893.013 156.634C892.837 156.787 892.625 156.908 892.378 156.996C892.131 157.081 891.845 157.124 891.521 157.124ZM892.041 155.871C892.308 155.871 892.544 155.818 892.749 155.713C892.953 155.605 893.114 155.46 893.23 155.278C893.347 155.097 893.405 154.891 893.405 154.661V153.966C893.348 154.003 893.27 154.037 893.171 154.068C893.074 154.097 892.965 154.124 892.842 154.149C892.72 154.172 892.598 154.193 892.476 154.213C892.354 154.23 892.243 154.246 892.144 154.26C891.931 154.291 891.744 154.341 891.585 154.409C891.426 154.477 891.303 154.57 891.215 154.686C891.127 154.8 891.082 154.942 891.082 155.112C891.082 155.359 891.172 155.548 891.351 155.679C891.533 155.807 891.763 155.871 892.041 155.871ZM896.484 157V150.455H898.299V157H896.484ZM897.396 149.611C897.126 149.611 896.894 149.521 896.701 149.342C896.511 149.161 896.416 148.943 896.416 148.69C896.416 148.44 896.511 148.226 896.701 148.047C896.894 147.865 897.126 147.774 897.396 147.774C897.666 147.774 897.896 147.865 898.086 148.047C898.279 148.226 898.376 148.44 898.376 148.69C898.376 148.943 898.279 149.161 898.086 149.342C897.896 149.521 897.666 149.611 897.396 149.611ZM901.437 153.216V157H899.621V150.455H901.352V151.609H901.428C901.573 151.229 901.816 150.928 902.157 150.706C902.498 150.482 902.911 150.369 903.397 150.369C903.852 150.369 904.248 150.469 904.586 150.668C904.924 150.866 905.187 151.151 905.374 151.52C905.562 151.886 905.655 152.324 905.655 152.832V157H903.84V153.156C903.843 152.756 903.741 152.443 903.533 152.219C903.326 151.991 903.04 151.878 902.677 151.878C902.432 151.878 902.217 151.93 902.029 152.036C901.844 152.141 901.7 152.294 901.594 152.496C901.492 152.695 901.44 152.935 901.437 153.216ZM909.634 157V148.273H913.128C913.77 148.273 914.306 148.368 914.735 148.558C915.164 148.749 915.486 149.013 915.702 149.351C915.918 149.686 916.026 150.072 916.026 150.51C916.026 150.851 915.958 151.151 915.821 151.409C915.685 151.665 915.497 151.875 915.259 152.04C915.023 152.202 914.753 152.317 914.449 152.385V152.47C914.781 152.484 915.092 152.578 915.382 152.751C915.675 152.925 915.912 153.168 916.094 153.48C916.276 153.79 916.367 154.159 916.367 154.588C916.367 155.051 916.252 155.464 916.021 155.828C915.794 156.189 915.458 156.474 915.012 156.685C914.565 156.895 914.016 157 913.362 157H909.634ZM911.479 155.491H912.983C913.497 155.491 913.872 155.393 914.108 155.197C914.344 154.999 914.462 154.734 914.462 154.405C914.462 154.163 914.404 153.95 914.287 153.766C914.171 153.581 914.004 153.436 913.789 153.331C913.575 153.226 913.321 153.173 913.026 153.173H911.479V155.491ZM911.479 151.925H912.847C913.1 151.925 913.324 151.881 913.52 151.793C913.719 151.702 913.875 151.574 913.989 151.409C914.105 151.244 914.164 151.047 914.164 150.817C914.164 150.501 914.051 150.247 913.827 150.054C913.605 149.861 913.29 149.764 912.881 149.764H911.479V151.925Z" fill="#363636"/>
<path d="M652.061 144L649.564 135.273H651.58L653.024 141.337H653.097L654.691 135.273H656.417L658.006 141.349H658.083L659.527 135.273H661.543L659.046 144H657.247L655.586 138.294H655.517L653.86 144H652.061ZM661.954 144V137.455H663.714V138.597H663.782C663.902 138.19 664.102 137.884 664.383 137.676C664.664 137.466 664.988 137.361 665.355 137.361C665.446 137.361 665.544 137.366 665.649 137.378C665.754 137.389 665.846 137.405 665.926 137.425V139.036C665.841 139.01 665.723 138.987 665.572 138.967C665.422 138.947 665.284 138.938 665.159 138.938C664.892 138.938 664.653 138.996 664.443 139.112C664.236 139.226 664.071 139.385 663.949 139.589C663.829 139.794 663.77 140.03 663.77 140.297V144H661.954ZM668.411 144.124C667.994 144.124 667.622 144.051 667.295 143.906C666.968 143.759 666.71 143.541 666.519 143.254C666.332 142.964 666.238 142.604 666.238 142.172C666.238 141.808 666.305 141.503 666.438 141.256C666.572 141.009 666.754 140.81 666.984 140.659C667.214 140.509 667.475 140.395 667.768 140.318C668.063 140.241 668.373 140.188 668.697 140.156C669.078 140.116 669.384 140.08 669.617 140.045C669.85 140.009 670.019 139.955 670.124 139.884C670.23 139.812 670.282 139.707 670.282 139.568V139.543C670.282 139.273 670.197 139.064 670.026 138.916C669.859 138.768 669.62 138.695 669.311 138.695C668.984 138.695 668.724 138.767 668.531 138.912C668.338 139.054 668.21 139.233 668.147 139.449L666.468 139.312C666.553 138.915 666.721 138.571 666.971 138.281C667.221 137.989 667.543 137.764 667.938 137.608C668.336 137.449 668.796 137.369 669.319 137.369C669.683 137.369 670.031 137.412 670.363 137.497C670.698 137.582 670.995 137.714 671.254 137.893C671.515 138.072 671.721 138.303 671.872 138.584C672.022 138.862 672.097 139.196 672.097 139.585V144H670.376V143.092H670.325C670.22 143.297 670.079 143.477 669.903 143.634C669.727 143.787 669.515 143.908 669.268 143.996C669.021 144.081 668.735 144.124 668.411 144.124ZM668.931 142.871C669.198 142.871 669.434 142.818 669.639 142.713C669.843 142.605 670.004 142.46 670.12 142.278C670.237 142.097 670.295 141.891 670.295 141.661V140.966C670.238 141.003 670.16 141.037 670.061 141.068C669.964 141.097 669.855 141.124 669.732 141.149C669.61 141.172 669.488 141.193 669.366 141.213C669.244 141.23 669.133 141.246 669.034 141.26C668.82 141.291 668.634 141.341 668.475 141.409C668.316 141.477 668.193 141.57 668.105 141.686C668.017 141.8 667.972 141.942 667.972 142.112C667.972 142.359 668.062 142.548 668.241 142.679C668.423 142.807 668.653 142.871 668.931 142.871ZM673.374 146.455V137.455H675.164V138.554H675.245C675.324 138.378 675.439 138.199 675.59 138.017C675.743 137.832 675.942 137.679 676.186 137.557C676.434 137.432 676.74 137.369 677.107 137.369C677.584 137.369 678.024 137.494 678.428 137.744C678.831 137.991 679.154 138.365 679.395 138.865C679.637 139.362 679.757 139.986 679.757 140.736C679.757 141.466 679.639 142.082 679.404 142.585C679.171 143.085 678.853 143.464 678.449 143.723C678.049 143.979 677.6 144.107 677.103 144.107C676.75 144.107 676.451 144.048 676.203 143.932C675.959 143.815 675.759 143.669 675.603 143.493C675.446 143.314 675.327 143.134 675.245 142.952H675.189V146.455H673.374ZM675.151 140.727C675.151 141.116 675.205 141.456 675.313 141.746C675.421 142.036 675.577 142.261 675.782 142.423C675.986 142.582 676.235 142.662 676.527 142.662C676.823 142.662 677.073 142.581 677.277 142.419C677.482 142.254 677.637 142.027 677.742 141.737C677.85 141.445 677.904 141.108 677.904 140.727C677.904 140.349 677.851 140.017 677.746 139.73C677.641 139.443 677.486 139.219 677.282 139.057C677.077 138.895 676.826 138.814 676.527 138.814C676.232 138.814 675.982 138.892 675.777 139.048C675.576 139.205 675.421 139.426 675.313 139.713C675.205 140 675.151 140.338 675.151 140.727ZM680.836 146.455V137.455H682.625V138.554H682.706C682.786 138.378 682.901 138.199 683.052 138.017C683.205 137.832 683.404 137.679 683.648 137.557C683.895 137.432 684.202 137.369 684.569 137.369C685.046 137.369 685.486 137.494 685.89 137.744C686.293 137.991 686.615 138.365 686.857 138.865C687.098 139.362 687.219 139.986 687.219 140.736C687.219 141.466 687.101 142.082 686.865 142.585C686.632 143.085 686.314 143.464 685.911 143.723C685.51 143.979 685.061 144.107 684.564 144.107C684.212 144.107 683.912 144.048 683.665 143.932C683.421 143.815 683.221 143.669 683.064 143.493C682.908 143.314 682.789 143.134 682.706 142.952H682.651V146.455H680.836ZM682.613 140.727C682.613 141.116 682.667 141.456 682.775 141.746C682.882 142.036 683.039 142.261 683.243 142.423C683.448 142.582 683.696 142.662 683.989 142.662C684.284 142.662 684.534 142.581 684.739 142.419C684.944 142.254 685.098 142.027 685.204 141.737C685.311 141.445 685.365 141.108 685.365 140.727C685.365 140.349 685.313 140.017 685.208 139.73C685.103 139.443 684.948 139.219 684.743 139.057C684.539 138.895 684.287 138.814 683.989 138.814C683.694 138.814 683.444 138.892 683.239 139.048C683.037 139.205 682.882 139.426 682.775 139.713C682.667 140 682.613 140.338 682.613 140.727ZM691.28 144.128C690.607 144.128 690.027 143.991 689.542 143.719C689.059 143.443 688.687 143.054 688.425 142.551C688.164 142.045 688.033 141.447 688.033 140.757C688.033 140.084 688.164 139.493 688.425 138.984C688.687 138.476 689.054 138.08 689.529 137.795C690.006 137.511 690.566 137.369 691.208 137.369C691.64 137.369 692.042 137.439 692.414 137.578C692.789 137.714 693.116 137.92 693.394 138.196C693.675 138.472 693.894 138.818 694.05 139.236C694.206 139.651 694.285 140.136 694.285 140.693V141.192H688.758V140.067H692.576C692.576 139.805 692.519 139.574 692.405 139.372C692.292 139.17 692.134 139.013 691.932 138.899C691.733 138.783 691.502 138.724 691.238 138.724C690.962 138.724 690.718 138.788 690.505 138.916C690.295 139.041 690.13 139.21 690.01 139.423C689.891 139.634 689.83 139.868 689.827 140.126V141.196C689.827 141.52 689.887 141.8 690.006 142.036C690.128 142.271 690.3 142.453 690.522 142.581C690.743 142.709 691.006 142.773 691.31 142.773C691.512 142.773 691.697 142.744 691.864 142.688C692.032 142.631 692.175 142.545 692.295 142.432C692.414 142.318 692.505 142.179 692.567 142.014L694.246 142.125C694.161 142.528 693.986 142.881 693.722 143.182C693.461 143.48 693.123 143.713 692.708 143.881C692.296 144.045 691.82 144.128 691.28 144.128ZM697.749 144.107C697.252 144.107 696.802 143.979 696.398 143.723C695.998 143.464 695.68 143.085 695.444 142.585C695.211 142.082 695.094 141.466 695.094 140.736C695.094 139.986 695.215 139.362 695.457 138.865C695.698 138.365 696.019 137.991 696.42 137.744C696.823 137.494 697.265 137.369 697.745 137.369C698.111 137.369 698.417 137.432 698.661 137.557C698.908 137.679 699.107 137.832 699.258 138.017C699.411 138.199 699.528 138.378 699.607 138.554H699.663V135.273H701.474V144H699.684V142.952H699.607C699.522 143.134 699.401 143.314 699.245 143.493C699.091 143.669 698.891 143.815 698.644 143.932C698.4 144.048 698.101 144.107 697.749 144.107ZM698.324 142.662C698.617 142.662 698.864 142.582 699.066 142.423C699.27 142.261 699.427 142.036 699.535 141.746C699.645 141.456 699.701 141.116 699.701 140.727C699.701 140.338 699.647 140 699.539 139.713C699.431 139.426 699.275 139.205 699.07 139.048C698.866 138.892 698.617 138.814 698.324 138.814C698.026 138.814 697.775 138.895 697.57 139.057C697.366 139.219 697.211 139.443 697.106 139.73C697.001 140.017 696.948 140.349 696.948 140.727C696.948 141.108 697.001 141.445 697.106 141.737C697.214 142.027 697.368 142.254 697.57 142.419C697.775 142.581 698.026 142.662 698.324 142.662ZM705.514 144V135.273H708.957C709.619 135.273 710.183 135.399 710.649 135.652C711.114 135.902 711.47 136.25 711.714 136.696C711.961 137.139 712.085 137.651 712.085 138.23C712.085 138.81 711.96 139.321 711.71 139.764C711.46 140.207 711.097 140.553 710.623 140.8C710.151 141.047 709.58 141.17 708.91 141.17H706.715V139.692H708.612C708.967 139.692 709.259 139.631 709.489 139.509C709.722 139.384 709.896 139.212 710.009 138.993C710.126 138.771 710.184 138.517 710.184 138.23C710.184 137.94 710.126 137.687 710.009 137.472C709.896 137.253 709.722 137.084 709.489 136.964C709.256 136.842 708.961 136.781 708.603 136.781H707.359V144H705.514ZM714.808 144.124C714.39 144.124 714.018 144.051 713.691 143.906C713.365 143.759 713.106 143.541 712.916 143.254C712.728 142.964 712.634 142.604 712.634 142.172C712.634 141.808 712.701 141.503 712.835 141.256C712.968 141.009 713.15 140.81 713.38 140.659C713.61 140.509 713.872 140.395 714.164 140.318C714.46 140.241 714.769 140.188 715.093 140.156C715.474 140.116 715.781 140.08 716.014 140.045C716.247 140.009 716.416 139.955 716.521 139.884C716.626 139.812 716.678 139.707 716.678 139.568V139.543C716.678 139.273 716.593 139.064 716.423 138.916C716.255 138.768 716.017 138.695 715.707 138.695C715.38 138.695 715.12 138.767 714.927 138.912C714.734 139.054 714.606 139.233 714.544 139.449L712.865 139.312C712.95 138.915 713.117 138.571 713.367 138.281C713.617 137.989 713.94 137.764 714.335 137.608C714.732 137.449 715.193 137.369 715.715 137.369C716.079 137.369 716.427 137.412 716.759 137.497C717.095 137.582 717.392 137.714 717.65 137.893C717.911 138.072 718.117 138.303 718.268 138.584C718.419 138.862 718.494 139.196 718.494 139.585V144H716.772V143.092H716.721C716.616 143.297 716.475 143.477 716.299 143.634C716.123 143.787 715.911 143.908 715.664 143.996C715.417 144.081 715.132 144.124 714.808 144.124ZM715.328 142.871C715.595 142.871 715.83 142.818 716.035 142.713C716.24 142.605 716.4 142.46 716.517 142.278C716.633 142.097 716.691 141.891 716.691 141.661V140.966C716.634 141.003 716.556 141.037 716.457 141.068C716.36 141.097 716.251 141.124 716.129 141.149C716.007 141.172 715.884 141.193 715.762 141.213C715.64 141.23 715.529 141.246 715.43 141.26C715.217 141.291 715.031 141.341 714.872 141.409C714.713 141.477 714.589 141.57 714.501 141.686C714.413 141.8 714.369 141.942 714.369 142.112C714.369 142.359 714.458 142.548 714.637 142.679C714.819 142.807 715.049 142.871 715.328 142.871ZM720.657 146.455C720.426 146.455 720.211 146.436 720.009 146.399C719.81 146.365 719.645 146.321 719.514 146.267L719.924 144.912C720.137 144.977 720.328 145.013 720.499 145.018C720.672 145.024 720.821 144.984 720.946 144.899C721.074 144.814 721.178 144.669 721.257 144.464L721.364 144.188L719.016 137.455H720.925L722.28 142.261H722.348L723.716 137.455H725.638L723.094 144.707C722.972 145.06 722.806 145.366 722.595 145.628C722.388 145.892 722.125 146.095 721.807 146.237C721.489 146.382 721.105 146.455 720.657 146.455ZM728.25 135.273V144H726.435V135.273H728.25ZM732.53 144.128C731.868 144.128 731.296 143.987 730.813 143.706C730.333 143.422 729.962 143.027 729.7 142.521C729.439 142.013 729.308 141.423 729.308 140.753C729.308 140.077 729.439 139.486 729.7 138.98C729.962 138.472 730.333 138.077 730.813 137.795C731.296 137.511 731.868 137.369 732.53 137.369C733.192 137.369 733.763 137.511 734.243 137.795C734.726 138.077 735.098 138.472 735.36 138.98C735.621 139.486 735.752 140.077 735.752 140.753C735.752 141.423 735.621 142.013 735.36 142.521C735.098 143.027 734.726 143.422 734.243 143.706C733.763 143.987 733.192 144.128 732.53 144.128ZM732.538 142.722C732.84 142.722 733.091 142.636 733.293 142.466C733.494 142.293 733.646 142.057 733.749 141.759C733.854 141.46 733.906 141.121 733.906 140.74C733.906 140.359 733.854 140.02 733.749 139.722C733.646 139.423 733.494 139.187 733.293 139.014C733.091 138.841 732.84 138.754 732.538 138.754C732.235 138.754 731.979 138.841 731.771 139.014C731.567 139.187 731.412 139.423 731.307 139.722C731.205 140.02 731.154 140.359 731.154 140.74C731.154 141.121 731.205 141.46 731.307 141.759C731.412 142.057 731.567 142.293 731.771 142.466C731.979 142.636 732.235 142.722 732.538 142.722ZM738.666 144.124C738.249 144.124 737.877 144.051 737.55 143.906C737.223 143.759 736.965 143.541 736.774 143.254C736.587 142.964 736.493 142.604 736.493 142.172C736.493 141.808 736.56 141.503 736.693 141.256C736.827 141.009 737.009 140.81 737.239 140.659C737.469 140.509 737.73 140.395 738.023 140.318C738.318 140.241 738.628 140.188 738.952 140.156C739.333 140.116 739.639 140.08 739.872 140.045C740.105 140.009 740.274 139.955 740.379 139.884C740.485 139.812 740.537 139.707 740.537 139.568V139.543C740.537 139.273 740.452 139.064 740.281 138.916C740.114 138.768 739.875 138.695 739.566 138.695C739.239 138.695 738.979 138.767 738.786 138.912C738.593 139.054 738.465 139.233 738.402 139.449L736.723 139.312C736.808 138.915 736.976 138.571 737.226 138.281C737.476 137.989 737.799 137.764 738.193 137.608C738.591 137.449 739.051 137.369 739.574 137.369C739.938 137.369 740.286 137.412 740.618 137.497C740.953 137.582 741.25 137.714 741.509 137.893C741.77 138.072 741.976 138.303 742.127 138.584C742.277 138.862 742.353 139.196 742.353 139.585V144H740.631V143.092H740.58C740.475 143.297 740.334 143.477 740.158 143.634C739.982 143.787 739.77 143.908 739.523 143.996C739.276 144.081 738.99 144.124 738.666 144.124ZM739.186 142.871C739.453 142.871 739.689 142.818 739.894 142.713C740.098 142.605 740.259 142.46 740.375 142.278C740.492 142.097 740.55 141.891 740.55 141.661V140.966C740.493 141.003 740.415 141.037 740.316 141.068C740.219 141.097 740.11 141.124 739.987 141.149C739.865 141.172 739.743 141.193 739.621 141.213C739.499 141.23 739.388 141.246 739.289 141.26C739.076 141.291 738.889 141.341 738.73 141.409C738.571 141.477 738.448 141.57 738.36 141.686C738.272 141.8 738.228 141.942 738.228 142.112C738.228 142.359 738.317 142.548 738.496 142.679C738.678 142.807 738.908 142.871 739.186 142.871ZM746.041 144.107C745.544 144.107 745.093 143.979 744.69 143.723C744.289 143.464 743.971 143.085 743.735 142.585C743.502 142.082 743.386 141.466 743.386 140.736C743.386 139.986 743.507 139.362 743.748 138.865C743.99 138.365 744.311 137.991 744.711 137.744C745.115 137.494 745.556 137.369 746.037 137.369C746.403 137.369 746.708 137.432 746.953 137.557C747.2 137.679 747.399 137.832 747.549 138.017C747.703 138.199 747.819 138.378 747.899 138.554H747.954V135.273H749.765V144H747.975V142.952H747.899C747.814 143.134 747.693 143.314 747.537 143.493C747.383 143.669 747.183 143.815 746.936 143.932C746.691 144.048 746.393 144.107 746.041 144.107ZM746.616 142.662C746.909 142.662 747.156 142.582 747.358 142.423C747.562 142.261 747.718 142.036 747.826 141.746C747.937 141.456 747.993 141.116 747.993 140.727C747.993 140.338 747.939 140 747.831 139.713C747.723 139.426 747.566 139.205 747.362 139.048C747.157 138.892 746.909 138.814 746.616 138.814C746.318 138.814 746.066 138.895 745.862 139.057C745.657 139.219 745.502 139.443 745.397 139.73C745.292 140.017 745.24 140.349 745.24 140.727C745.24 141.108 745.292 141.445 745.397 141.737C745.505 142.027 745.66 142.254 745.862 142.419C746.066 142.581 746.318 142.662 746.616 142.662ZM759.592 138.094C759.533 137.886 759.449 137.703 759.341 137.544C759.233 137.382 759.101 137.246 758.944 137.135C758.791 137.021 758.615 136.935 758.416 136.875C758.22 136.815 758.003 136.786 757.764 136.786C757.318 136.786 756.926 136.896 756.588 137.118C756.253 137.339 755.991 137.662 755.804 138.085C755.616 138.506 755.523 139.02 755.523 139.628C755.523 140.236 755.615 140.753 755.8 141.179C755.984 141.605 756.246 141.93 756.584 142.155C756.922 142.376 757.321 142.487 757.781 142.487C758.199 142.487 758.555 142.413 758.851 142.266C759.149 142.115 759.376 141.903 759.533 141.631C759.692 141.358 759.771 141.036 759.771 140.663L760.146 140.719H757.896V139.33H761.548V140.429C761.548 141.196 761.386 141.855 761.062 142.406C760.738 142.955 760.292 143.378 759.724 143.676C759.156 143.972 758.506 144.119 757.773 144.119C756.954 144.119 756.236 143.939 755.616 143.578C754.997 143.214 754.514 142.699 754.167 142.031C753.824 141.361 753.652 140.565 753.652 139.645C753.652 138.937 753.754 138.307 753.959 137.753C754.166 137.196 754.456 136.724 754.828 136.338C755.2 135.952 755.633 135.658 756.128 135.456C756.622 135.254 757.158 135.153 757.734 135.153C758.229 135.153 758.689 135.226 759.115 135.371C759.541 135.513 759.919 135.714 760.248 135.976C760.581 136.237 760.852 136.548 761.062 136.909C761.273 137.267 761.408 137.662 761.467 138.094H759.592ZM762.802 135.273H765.078L767.481 141.136H767.583L769.987 135.273H772.262V144H770.473V138.32H770.4L768.142 143.957H766.923L764.664 138.298H764.592V144H762.802V135.273ZM773.651 144V135.273H777.094C777.756 135.273 778.32 135.399 778.786 135.652C779.251 135.902 779.607 136.25 779.851 136.696C780.098 137.139 780.222 137.651 780.222 138.23C780.222 138.81 780.097 139.321 779.847 139.764C779.597 140.207 779.234 140.553 778.76 140.8C778.288 141.047 777.717 141.17 777.047 141.17H774.852V139.692H776.749C777.104 139.692 777.396 139.631 777.626 139.509C777.859 139.384 778.033 139.212 778.146 138.993C778.263 138.771 778.321 138.517 778.321 138.23C778.321 137.94 778.263 137.687 778.146 137.472C778.033 137.253 777.859 137.084 777.626 136.964C777.394 136.842 777.098 136.781 776.74 136.781H775.496V144H773.651Z" fill="#474747"/>
<path d="M627 152.5C626.724 152.5 626.5 152.724 626.5 153C626.5 153.276 626.724 153.5 627 153.5V152.5ZM808.354 153.354C808.549 153.158 808.549 152.842 808.354 152.646L805.172 149.464C804.976 149.269 804.66 149.269 804.464 149.464C804.269 149.66 804.269 149.976 804.464 150.172L807.293 153L804.464 155.828C804.269 156.024 804.269 156.34 804.464 156.536C804.66 156.731 804.976 156.731 805.172 156.536L808.354 153.354ZM627 153.5H808V152.5H627V153.5Z" fill="#B3B3B3"/>
<rect x="448.5" y="83.5" width="175" height="140" rx="17.5" stroke="#757575"/>
<path d="M254 153C253.724 153 253.5 153.224 253.5 153.5C253.5 153.776 253.724 154 254 154V153ZM445.354 153.854C445.549 153.658 445.549 153.342 445.354 153.146L442.172 149.964C441.976 149.769 441.66 149.769 441.464 149.964C441.269 150.16 441.269 150.476 441.464 150.672L444.293 153.5L441.464 156.328C441.269 156.524 441.269 156.84 441.464 157.036C441.66 157.231 441.976 157.231 442.172 157.036L445.354 153.854ZM254 154H445V153H254V154Z" fill="#B3B3B3"/>
</svg>
