<svg width="25" height="25" viewBox="0 0 25 25" fill="none" xmlns="http://www.w3.org/2000/svg">
    <g clip-path="url(#clip0_2505_19913)">
        <path d="M12.5 25C19.469 25 25 19.3584 25 12.5C25 5.53097 19.3584 0 12.5 0C5.53097 0 0 5.64159 0 12.5C0 19.3584 5.64159 25 12.5 25Z" fill="#2C374B" />
        <path fill-rule="evenodd" clip-rule="evenodd" d="M19.6538 7.65147C19.5385 7.54219 13.8846 4.3731 13.1923 4.15454C12.9615 4.04527 12.3846 3.93599 12.0385 4.04526C11.6923 4.15454 5.69231 7.43291 5.46154 7.65147C5.34615 7.76075 5.23077 7.97931 5.11539 8.08859C5 8.30715 5 8.41643 5 12.2412V16.1752L5.80769 16.6124C6.26923 16.8309 6.61538 17.0495 6.61538 17.0495C6.73077 17.0495 12.1538 8.85354 12.1538 8.74426C12.1538 8.63498 10.8846 8.63498 10.5385 8.74426C10.0769 8.85354 9.73077 9.0721 9.5 9.29066C9.38461 9.39994 8.69231 10.4927 7.76923 11.6948C6.96154 12.8969 6.26923 13.9897 6.26923 13.9897C6.26923 13.9897 6.26923 12.8969 6.26923 11.367V8.63498L6.38462 8.5257C6.61539 8.30715 12.5 5.13805 12.7308 5.13805C12.8462 5.13805 12.9615 5.13805 14.3462 5.90301C14.8077 6.12157 16.0769 6.77724 17.1154 7.43291C18.1538 7.97931 19.0769 8.5257 19.1923 8.63498L19.3077 8.74426V14.4268L16.4231 10.1649C16.3077 9.94633 16.1923 9.72777 16.0769 9.61849C16.0769 9.61849 15.9615 9.83705 15.2692 10.9298C15.1538 11.0391 15.0385 11.2577 15.0385 11.367L14.9231 11.5855L15.0385 11.6948L15.1538 11.8041C15.1538 11.8041 15.1538 11.9134 15.2692 11.9134L15.5 12.2412C15.5 12.2412 15.5 12.3505 15.6154 12.3505C15.7308 12.4597 15.8462 12.6783 15.8462 12.7876C15.8462 12.7876 15.8462 12.7876 15.8462 12.8969L18.2692 16.6124L18.0385 16.7216C17.9231 16.8309 17.8077 16.8309 17.6923 16.8309L14.6923 12.4597L14.5769 12.3505L14.3462 12.7876L13.1923 14.536L15.5 18.033C15.1538 18.2515 13.1923 19.5629 13.0769 19.5629C12.9615 19.5629 10.3077 17.9237 10.4231 17.8144C10.4231 17.8144 11.2308 16.5031 12.1538 14.9732C12.9615 13.6618 14 12.0226 14.6923 10.9298C15.5 9.61849 15.8462 8.96282 15.8462 8.96282C15.8462 8.96282 15.2692 8.96282 14.5769 8.96282H13.4231L10.7692 13.1154C9.84615 14.6453 8.92308 16.066 8.46154 16.8309C7.65385 16.9402 7.42308 17.1587 7.42308 17.1587L7.30769 17.3773L9.38462 18.4701C10.5385 19.1258 11.5769 19.6722 11.8077 19.7814C12.1538 20 12.7308 20 12.9615 20C13.1923 19.8907 19.1923 16.6124 19.5385 16.3938C19.6538 16.2845 19.7692 16.1752 19.8846 15.9567L20 15.6288V12.0226V8.41643L19.8846 8.19787C19.8846 7.97931 19.6538 7.76075 19.6538 7.65147Z" fill="white" />
        <path d="M18.881 14.9538L15.3095 10L14 11.9385L17.4524 17L19 16.3538L18.881 14.9538Z" fill="#24A2EE" />
        <path d="M17 17.5517L14.2093 12L13 14.4138L15.2326 19L16.6279 18.2759L17 17.5517Z" fill="#24A2EE" />
        <path fill-rule="evenodd" clip-rule="evenodd" d="M6.2406 8.79703L12.4436 5.20627L18.6466 8.79703V15.9785L12.4436 19.5693L7.81955 16.9884L7.25564 17.9983L12.3308 20.9158C12.4436 21.0281 12.5564 21.0281 12.6692 20.9158L19.7744 16.8762C19.8872 16.764 20 16.6518 20 16.5396V8.4604C20 8.34819 19.8872 8.23597 19.7744 8.12376L12.6692 4.08416C12.5564 3.97195 12.4436 3.97195 12.3308 4.08416L5.22556 8.01155C5.11278 8.12376 5 8.23597 5 8.34818V16.4274C5 16.5396 5.11278 16.6518 5.22556 16.764L6.69173 17.5495L7.36842 16.5396L6.35338 15.9785V8.79703H6.2406Z" fill="#98BCDC" />
        <path d="M15 9H12.6L7 17.8889L8.94286 19L15 9Z" fill="white" />
        <path d="M9.17742 9.86616C9.74194 8.93658 11.3226 8.93658 12 9.05277L6.58065 18C6.35484 17.8838 5.90323 17.6514 5.56452 17.419C5.1129 17.1866 5 17.1866 5 16.838V16.3732C6.24194 14.5141 8.6129 10.7957 9.17742 9.86616Z" fill="white" />
    </g>
    <defs>
        <clipPath id="clip0_2505_19913">
            <rect width="25" height="25" fill="white" />
        </clipPath>
    </defs>
</svg>
