<?xml version="1.0" standalone="no"?>
<!DOCTYPE svg PUBLIC "-//W3C//DTD SVG 20010904//EN"
 "http://www.w3.org/TR/2001/REC-SVG-20010904/DTD/svg10.dtd">
<svg version="1.0" xmlns="http://www.w3.org/2000/svg"
 width="74.000000pt" height="76.000000pt" viewBox="0 0 74.000000 76.000000"
 preserveAspectRatio="xMidYMid meet">

<g transform="translate(0.000000,76.000000) scale(0.100000,-0.100000)"
fill="#000000" stroke="none">
<path d="M295 740 c-3 -5 -4 -10 -2 -10 2 0 28 -5 57 -10 29 -6 76 -12 104
-15 28 -3 60 -8 71 -11 29 -9 -25 33 -59 46 -35 13 -163 13 -171 0z"/>
<path d="M651 564 c45 -86 49 -130 19 -192 -29 -60 -89 -96 -90 -54 -1 11 -7
5 -19 -17 l-18 -34 -41 69 c-22 38 -59 102 -82 142 -23 39 -45 72 -49 72 -3 0
-15 -15 -25 -32 -10 -18 -28 -48 -39 -67 -12 -19 -16 -31 -9 -27 6 4 24 27 38
52 28 47 40 51 58 18 6 -10 19 -31 28 -45 23 -34 12 -39 -78 -39 l-63 0 -42
-75 c-36 -67 -43 -74 -58 -63 -14 11 -14 11 -3 -4 11 -14 10 -23 -7 -57 -12
-22 -21 -43 -21 -46 0 -12 75 -3 92 11 13 13 21 14 31 5 8 -6 42 -14 76 -17
58 -6 60 -8 46 -24 -9 -10 -29 -20 -46 -24 -34 -6 -37 -25 -9 -51 20 -18 23
-18 98 0 102 24 192 73 224 123 80 119 76 274 -9 400 -19 28 -37 52 -38 52 -2
0 14 -34 36 -76z m-183 -284 c16 -27 32 -47 37 -42 4 4 5 1 0 -7 -13 -22 -88
-51 -136 -51 -42 0 -109 16 -109 26 0 6 51 86 69 107 10 12 29 17 62 17 48 0
49 -1 77 -50z"/>
</g>
</svg>
