<svg width="129" height="128" viewBox="0 0 129 128" fill="none" xmlns="http://www.w3.org/2000/svg">
<g clip-path="url(#clip0_404_64)">
<rect x="0.451721" width="128" height="128" rx="64" fill="white"/>
<path fill-rule="evenodd" clip-rule="evenodd" d="M84.6075 70.5804C102.099 73.1673 114.304 79.0175 114.304 85.8208C114.304 95.0205 91.9843 102.479 64.4516 102.479C36.919 102.479 14.5997 95.0205 14.5997 85.8208C14.5997 79.0175 26.804 73.1673 44.2957 70.5804C50.304 71.802 57.1656 72.4946 64.4516 72.4946C71.5549 72.4946 78.2548 71.8366 84.1544 70.6725L84.6075 70.5804ZM77.0687 43.1906C92.9113 44.9552 104.333 49.9498 104.333 55.8368C104.333 63.1965 86.4777 69.163 64.4516 69.163C42.4256 69.163 24.5701 63.1965 24.5701 55.8368C24.5701 49.9503 35.992 44.9547 51.8346 43.1911C55.715 43.8257 59.978 44.176 64.4516 44.176C68.7685 44.176 72.8896 43.8495 76.66 43.2566L77.0687 43.1906Z" fill="black"/>
<path d="M64.4516 41.5109C80.971 41.5109 94.3627 37.0361 94.3627 31.5162C94.3627 25.9964 80.971 21.5216 64.4516 21.5216C47.9321 21.5216 34.5404 25.9964 34.5404 31.5162C34.5404 37.0361 47.9321 41.5109 64.4516 41.5109Z" fill="black"/>
</g>
<rect x="0.951721" y="0.5" width="127" height="127" rx="63.5" stroke="#E5E7EB"/>
<defs>
<clipPath id="clip0_404_64">
<rect x="0.451721" width="128" height="128" rx="64" fill="white"/>
</clipPath>
</defs>
</svg>
