<?xml version="1.0" encoding="UTF-8"?>
<svg version="1.1" xmlns="http://www.w3.org/2000/svg" width="1816" height="1867">
<path d="M0 0 C2.21622272 0.19859384 4.43319171 0.38684983 6.65039062 0.57421875 C31.93788147 2.73477916 57.02276565 5.96832168 82.04882812 10.18359375 C83.15629395 10.3695813 83.15629395 10.3695813 84.28613281 10.55932617 C124.53373589 17.37108403 164.46218022 27.51227244 203.13830566 40.54223633 C205.03704154 41.17963702 206.93892904 41.80762398 208.84082031 42.43554688 C245.0134013 54.38262806 279.85640533 69.42589521 314.04882812 86.18359375 C315.12310059 86.70711426 316.19737305 87.23063477 317.30419922 87.77001953 C332.87855896 95.37330491 348.0781509 103.45347627 363.04882812 112.18359375 C363.9729248 112.71549316 364.89702148 113.24739258 365.84912109 113.79541016 C380.25361857 122.10099802 394.15115837 131.09475684 407.98632812 140.30859375 C409.20690918 141.12002335 409.20690918 141.12002335 410.45214844 141.94784546 C426.73974007 152.79410645 442.63512839 164.12486597 458.04882812 176.18359375 C459.19966279 177.0757879 460.35071045 177.96770738 461.50195312 178.859375 C467.90890886 183.8385353 474.19749665 188.9282738 480.36523438 194.20117188 C483.71590289 197.06558483 487.11153756 199.86031768 490.54882812 202.62109375 C495.30373862 206.48749542 499.81544457 210.56888243 504.28320312 214.75952148 C507.13168059 217.42996911 510.01612487 220.04346835 512.96289062 222.60546875 C524.12876788 232.33028774 534.69233657 242.73249935 545.17382812 253.18359375 C546.04998779 254.05516113 546.92614746 254.92672852 547.82885742 255.82470703 C552.17442163 260.18071229 556.36826958 264.60006267 560.37744141 269.26708984 C563.28965135 272.60638988 566.36989305 275.78696778 569.42382812 278.99609375 C574.5297905 284.3979086 579.38616661 289.87231352 584.01757812 295.6875 C586.07098982 298.21082706 588.22070869 300.60291648 590.42382812 302.99609375 C595.42375556 308.49687748 599.96749194 314.31968366 604.50830078 320.19726562 C606.13059265 322.28901945 607.76616361 324.36985164 609.40429688 326.44921875 C617.01108451 336.12603977 624.35495166 345.95836588 631.48730469 355.98974609 C633.00926403 358.12800855 634.54001496 360.25972988 636.07226562 362.390625 C640.75019058 368.92225527 645.33594805 375.51157641 649.74536133 382.22802734 C650.82861574 383.87410271 651.92767921 385.50987554 653.04174805 387.13525391 C656.26419602 391.95151601 658.69919929 396.60276114 660.79882812 402.01171875 C665.16817088 412.40138809 665.16817088 412.40138809 673.04882812 420.18359375 C683.34853333 423.37694393 695.39080466 421.45604769 705.9493866 420.61824036 C715.76914217 419.87252308 724.65251724 421.37351955 734.04882812 424.18359375 C734.87640625 424.4249707 735.70398437 424.66634766 736.55664062 424.91503906 C760.0487481 431.96799429 779.48842608 444.26595898 797.04882812 461.18359375 C797.75394531 461.82554687 798.4590625 462.4675 799.18554688 463.12890625 C816.36143827 479.22477202 827.04897109 501.62583552 833.79882812 523.80859375 C833.99766602 524.4523999 834.19650391 525.09620605 834.40136719 525.75952148 C837.84921156 537.6480792 838.42330142 549.64250568 838.36132812 561.93359375 C838.35950531 562.68404968 838.3576825 563.43450562 838.35580444 564.20770264 C838.31109755 575.1345326 837.93215894 585.58074778 835.04882812 596.18359375 C834.86658691 596.85438965 834.6843457 597.52518555 834.49658203 598.21630859 C827.74537653 622.51952036 816.39676112 642.86073559 799.04882812 661.18359375 C798.21738281 662.07949219 797.3859375 662.97539063 796.52929688 663.8984375 C791.56925233 669.07634637 786.55743743 673.44029089 780.68554688 677.52734375 C779.72328186 678.20555176 779.72328186 678.20555176 778.74157715 678.89746094 C777.18025346 679.99700515 775.61495583 681.09090296 774.04882812 682.18359375 C774.27022461 683.46484131 774.49162109 684.74608887 774.71972656 686.06616211 C780.2121119 717.95487144 784.99837719 749.68122161 787.73632812 781.93359375 C787.79744781 782.65083618 787.8585675 783.36807861 787.92153931 784.10705566 C789.7718339 806.15011089 790.25576132 828.12870823 790.23632812 850.24609375 C790.23606125 850.92837288 790.23579437 851.61065201 790.23551941 852.31360626 C790.22473198 874.32824972 789.89279534 896.23819981 788.04882812 918.18359375 C787.92397789 919.7226552 787.79914106 921.26171773 787.67431641 922.80078125 C780.38346232 1011.05994132 759.35977668 1098.29720506 716.04882812 1200.18359375 C715.73149719 1200.87928467 715.41416626 1201.57497559 715.08721924 1202.29174805 C700.7780378 1233.61893121 684.92886592 1263.74935871 667.04882812 1293.18359375 C666.49130859 1294.10930176 665.93378906 1295.03500977 665.359375 1295.98876953 C648.95734989 1323.20756151 630.50691085 1349.07938584 611.04882812 1374.18359375 C610.57203613 1374.80218262 610.09524414 1375.42077148 609.60400391 1376.05810547 C604.05219979 1383.25776744 598.33935022 1390.27717607 592.3840332 1397.14746094 C589.40634429 1400.58388663 586.51237457 1404.06765412 583.67382812 1407.62109375 C578.94865153 1413.44594781 573.82618083 1418.86843431 568.67382812 1424.3125 C566.02829875 1427.11330362 563.45253528 1429.96736744 560.89282227 1432.84667969 C556.38081643 1437.86597161 551.697673 1442.67993618 546.91992188 1447.4453125 C546.08598404 1448.28020706 545.2520462 1449.11510162 544.39283752 1449.97529602 C542.64536186 1451.72344656 540.8966454 1453.4703576 539.14672852 1455.21606445 C536.48598785 1457.87143334 533.83064882 1460.53211992 531.17578125 1463.19335938 C529.46581542 1464.90266456 527.7555395 1466.61165961 526.04492188 1468.3203125 C525.26136826 1469.10589035 524.47781464 1469.8914682 523.67051697 1470.70085144 C519.49749665 1474.85636003 515.24680059 1478.85713852 510.7774353 1482.69309998 C508.20021797 1484.91530895 505.72640435 1487.23916611 503.23632812 1489.55859375 C498.59191215 1493.84914245 493.81124013 1497.91231789 488.88476562 1501.87890625 C486.34657006 1503.94162716 483.85046346 1506.04201902 481.36474609 1508.16699219 C433.28331443 1549.25607172 378.91596239 1583.87535935 322.57568359 1612.39453125 C319.20721714 1614.103248 315.84810291 1615.82916713 312.49023438 1617.55859375 C273.59745317 1637.46240671 232.64961416 1652.98130024 191.04882812 1666.18359375 C190.06650208 1666.49653381 190.06650208 1666.49653381 189.06433105 1666.8157959 C115.83235085 1690.1128733 40.53775058 1700.60954038 -35.95117188 1705.18359375 C-36.14114746 1705.81112549 -36.33112305 1706.43865723 -36.52685547 1707.08520508 C-46.1053888 1738.29075923 -61.52179882 1765.22592934 -87.95117188 1785.18359375 C-88.7271875 1785.77527344 -89.50320313 1786.36695313 -90.30273438 1786.9765625 C-121.03289837 1809.4332208 -159.49073901 1818.52138182 -197.13867188 1813.05859375 C-228.39384883 1807.97169373 -255.6847013 1793.57157303 -277.95117188 1771.18359375 C-278.83289063 1770.301875 -279.71460938 1769.42015625 -280.62304688 1768.51171875 C-303.59310471 1744.40029159 -314.94949968 1712.3152876 -317.73362732 1679.64169312 C-317.96219431 1677.059048 -318.21584739 1674.47981034 -318.47583008 1671.90014648 C-318.56508255 1671.01294418 -318.65433502 1670.12574188 -318.74629211 1669.21165466 C-318.81390244 1668.54239456 -318.88151276 1667.87313446 -318.95117188 1667.18359375 C-320.1811792 1666.7774585 -321.41118652 1666.37132324 -322.6784668 1665.95288086 C-379.36077803 1647.1832835 -434.54444758 1624.74336645 -486.28369141 1594.72021484 C-488.91962832 1593.20176464 -491.5704573 1591.71370663 -494.22851562 1590.234375 C-506.49290239 1583.38458452 -518.28258258 1575.94607844 -529.97460938 1568.16308594 C-533.01291962 1566.14252988 -536.05947666 1564.13489292 -539.10742188 1562.12890625 C-555.85284917 1551.07740094 -572.14916848 1539.54610636 -587.95117188 1527.18359375 C-589.10200654 1526.2913996 -590.2530542 1525.39948012 -591.40429688 1524.5078125 C-598.36618533 1519.0973867 -605.16314988 1513.5292072 -611.86523438 1507.80078125 C-614.70722753 1505.37667619 -617.60407253 1503.02627976 -620.51367188 1500.68359375 C-625.50285605 1496.62533607 -630.22787803 1492.33843809 -634.93164062 1487.95703125 C-637.21519817 1485.83902193 -639.54406645 1483.78009823 -641.89257812 1481.734375 C-653.91764539 1471.24843691 -665.22565741 1460.01200566 -676.51367188 1448.74609375 C-677.12585571 1448.13649811 -677.73803955 1447.52690247 -678.36877441 1446.89883423 C-690.17788202 1435.12909559 -690.17788202 1435.12909559 -695.4987793 1428.88110352 C-697.85314513 1426.1293964 -700.34911795 1423.51189573 -702.82617188 1420.87109375 C-707.26905067 1416.09601773 -711.47440095 1411.19539642 -715.55664062 1406.10546875 C-717.83226017 1403.32869319 -720.17395109 1400.63033397 -722.54711914 1397.9375 C-729.52390736 1390.0122805 -735.98284377 1381.78129994 -742.32177734 1373.34082031 C-743.94557629 1371.19100198 -745.58727662 1369.05627547 -747.23632812 1366.92578125 C-802.48354489 1295.5150707 -844.79503578 1214.6003615 -919.95117188 898.18359375 C-920.00901855 897.1378418 -920.06686523 896.09208984 -920.12646484 895.01464844 C-924.52918857 810.69661007 -916.05804851 725.67776141 -831.95117188 472.18359375 C-831.49387695 471.24177246 -831.03658203 470.29995117 -830.56542969 469.32958984 C-823.57773171 454.95425005 -815.97289722 441.00655503 -807.95117188 427.18359375 C-807.41733887 426.26046387 -806.88350586 425.33733398 -806.33349609 424.38623047 C-795.5725236 405.82052465 -784.29691 387.58052639 -771.86132812 370.08325195 C-771.34699219 369.34937256 -770.83265625 368.61549316 -770.30273438 367.859375 C-769.84721191 367.21911377 -769.39168945 366.57885254 -768.92236328 365.91918945 C-767.70701225 364.07873542 -767.70701225 364.07873542 -767.95117188 361.18359375 C-768.88790576 359.58236426 -769.90169449 358.02580074 -770.95117188 356.49609375 C-792.30062002 323.78044144 -798.42433745 285.26722834 -790.95117188 247.18359375 C-789.86794273 242.41257117 -788.52510278 237.81437686 -786.95117188 233.18359375 C-786.7465332 232.56210449 -786.54189453 231.94061523 -786.33105469 231.30029297 C-781.32224048 216.24015876 -773.85200656 202.60782701 -763.95117188 190.18359375 C-763.52497559 189.64524902 -763.0987793 189.1069043 -762.65966797 188.55224609 C-739.7330776 159.86772544 -706.11861181 140.70631647 -669.4621582 136.37988281 C-663.49290101 135.91325347 -657.49815489 135.93865451 -651.51367188 135.93359375 C-650.43978714 135.93258163 -650.43978714 135.93258163 -649.34420776 135.93154907 C-638.56969925 135.94768512 -628.43020973 136.47254383 -617.95117188 139.18359375 C-616.97978271 139.40909912 -616.97978271 139.40909912 -615.98876953 139.63916016 C-601.61798112 142.9875921 -585.76152307 148.96460035 -574.08398438 158.08984375 C-571.23704277 160.37465337 -571.23704277 160.37465337 -568.49414062 160.328125 C-564.73153652 158.63466417 -561.57197201 156.31897673 -558.26367188 153.87109375 C-556.73772712 152.7688939 -555.21033713 151.66869263 -553.68164062 150.5703125 C-552.89837402 150.00618652 -552.11510742 149.44206055 -551.30810547 148.86083984 C-524.81681629 130.00905233 -496.61857896 113.46548036 -467.95117188 98.18359375 C-467.03787109 97.69536133 -466.12457031 97.20712891 -465.18359375 96.70410156 C-418.59484529 71.8709563 -370.19453528 52.27643446 -319.95117188 36.18359375 C-318.79004883 35.81137695 -317.62892578 35.43916016 -316.43261719 35.05566406 C-257.02377107 16.24856191 -195.02485881 5.06762613 -132.95117188 0.18359375 C-131.74638184 0.08062988 -130.5415918 -0.02233398 -129.30029297 -0.12841797 C-86.8260125 -3.66468254 -42.45116653 -3.83980401 0 0 Z M-481.95117188 183.18359375 C-483.34215088 184.04476807 -483.34215088 184.04476807 -484.76123047 184.92333984 C-498.54759604 193.46463992 -512.02606761 202.38038303 -524.95117188 212.18359375 C-524.73501221 212.68995361 -524.51885254 213.19631348 -524.29614258 213.71801758 C-519.10292716 225.99276499 -514.79603347 238.15199779 -511.95117188 251.18359375 C-511.58185547 252.86001953 -511.58185547 252.86001953 -511.20507812 254.5703125 C-504.91492898 289.83852803 -513.43993306 328.39350043 -533.32446289 358.03857422 C-556.03846644 390.48293045 -588.27599697 410.65892583 -626.95117188 418.18359375 C-653.44229105 422.49979694 -679.82199264 418.90322633 -704.84326172 409.92919922 C-708.52744667 408.6260372 -712.24009587 407.40764896 -715.95117188 406.18359375 C-765.80403869 479.92907877 -804.16675792 560.23507537 -849.70117188 762.49609375 C-849.80231293 763.35566681 -849.90345398 764.21523987 -850.00765991 765.1008606 C-853.24446267 792.93709717 -854.33643792 820.70649043 -854.26922989 848.70274734 C-854.26356862 851.10235918 -854.26076126 853.50196389 -854.25814819 855.90158081 C-854.21935532 880.43713808 -853.64012761 904.77565717 -850.95117188 929.18359375 C-850.86395874 929.9969519 -850.77674561 930.81031006 -850.68688965 931.64831543 C-842.44151469 1008.51505519 -823.68388849 1083.98206074 -711.95117188 1302.18359375 C-711.1582752 1303.29898558 -710.36796584 1304.41622058 -709.58007812 1305.53515625 C-702.95154379 1314.94369976 -695.99667198 1324.08442381 -688.95117188 1333.18359375 C-688.4700293 1333.8079834 -687.98888672 1334.43237305 -687.49316406 1335.07568359 C-681.06027472 1343.41770303 -674.36478505 1351.4845524 -667.45849609 1359.43798828 C-665.96681865 1361.1654735 -664.48996662 1362.9044959 -663.01757812 1364.6484375 C-656.15976184 1372.75748845 -649.02849017 1380.56284108 -641.73779297 1388.28369141 C-639.95167903 1390.18305444 -638.17804902 1392.09328989 -636.40820312 1394.0078125 C-622.14645627 1409.42661631 -622.14645627 1409.42661631 -606.70898438 1423.64453125 C-604.87190163 1425.25299925 -603.162094 1426.94198243 -601.45117188 1428.68359375 C-598.46244851 1431.719543 -595.33410709 1434.52868034 -592.10742188 1437.30859375 C-589.7515423 1439.35718469 -587.44609727 1441.45562377 -585.13867188 1443.55859375 C-580.87236598 1447.40409557 -576.49947888 1451.08090641 -572.03320312 1454.69140625 C-569.81197819 1456.48752984 -567.60216811 1458.29367911 -565.40039062 1460.11328125 C-554.83754497 1468.81559495 -543.96724822 1477.06499203 -532.95117188 1485.18359375 C-531.81010986 1486.02688232 -531.81010986 1486.02688232 -530.64599609 1486.88720703 C-470.9347664 1530.90903982 -404.80924235 1565.83533823 -335.20117188 1591.30859375 C-334.33153809 1591.62692169 -333.4619043 1591.94524963 -332.56591797 1592.27322388 C-316.12488321 1599.1245796 -316.12488321 1599.1245796 -298.95117188 1602.18359375 C-297.21991553 1599.88528239 -297.21991553 1599.88528239 -295.76367188 1596.87109375 C-292.14516362 1590.30531437 -287.85992267 1584.82574024 -282.95117188 1579.18359375 C-282.26410156 1578.36246094 -281.57703125 1577.54132813 -280.86914062 1576.6953125 C-257.01552017 1548.94722339 -222.05987068 1533.23198608 -185.95117188 1530.18359375 C-167.01795852 1528.97665387 -147.94371488 1531.06820919 -129.95117188 1537.18359375 C-129.01893799 1537.49055176 -129.01893799 1537.49055176 -128.06787109 1537.80371094 C-93.96524439 1549.14582243 -64.47180583 1574.93640248 -48.35351562 1607.04956055 C-43.48950348 1617.11250092 -40.01595227 1627.45085298 -36.95117188 1638.18359375 C53.21645779 1634.81453723 142.21819808 1616.65620115 331.04882812 1532.18359375 C331.73854706 1531.77763977 332.42826599 1531.37168579 333.1388855 1530.95343018 C345.88801706 1523.44275261 358.32458887 1515.5517844 370.61132812 1507.30859375 C371.45846375 1506.74221191 372.30559937 1506.17583008 373.17840576 1505.59228516 C385.37798345 1497.43183258 397.41514996 1489.13919857 409.04882812 1480.18359375 C410.19519344 1479.31668903 411.3423052 1478.45077034 412.49023438 1477.5859375 C428.75607455 1465.27437084 444.55789946 1452.23085967 459.58398438 1438.43359375 C461.62998767 1436.56592672 463.69899969 1434.73989778 465.79882812 1432.93359375 C476.97266171 1423.16485301 487.54688064 1412.78739613 498.04882812 1402.30859375 C498.59102997 1401.7689801 499.13323181 1401.22936646 499.69186401 1400.67340088 C505.13749367 1395.24827954 510.51688804 1389.81024005 515.51464844 1383.96289062 C518.05838012 1381.01274478 520.75144754 1378.2042098 523.42382812 1375.37109375 C528.09566713 1370.37814091 532.54683127 1365.27790618 536.82226562 1359.9375 C538.815894 1357.47169648 540.85909391 1355.05768054 542.92749023 1352.65454102 C549.44962118 1345.06416004 555.50719052 1337.15355592 561.53808594 1329.17041016 C562.87921657 1327.40665433 564.23492927 1325.656541 565.60351562 1323.9140625 C576.83624031 1309.56932065 587.12784616 1294.46021794 597.04882812 1279.18359375 C597.4990332 1278.49040039 597.94923828 1277.79720703 598.41308594 1277.08300781 C614.31118121 1252.48944988 629.05119864 1226.97078326 641.85546875 1200.62353516 C643.27412986 1197.72294205 644.71745015 1194.83499477 646.15820312 1191.9453125 C683.65189012 1116.17206318 707.09080808 1033.89174237 710.04882812 704.18359375 C709.18418945 704.17424805 708.31955078 704.16490234 707.42871094 704.15527344 C690.65435169 703.92805104 674.33066573 703.6871623 658.04882812 699.18359375 C657.39785156 699.00844238 656.746875 698.83329102 656.07617188 698.65283203 C633.00344159 692.25097848 613.06071739 679.79696145 596.04882812 663.18359375 C595.26121094 662.45785156 594.47359375 661.73210938 593.66210938 660.984375 C571.3350995 639.90424875 556.38116586 606.15010946 554.87182617 575.60107422 C554.18016099 532.70681049 563.63744869 494.98431547 594.00195312 463.046875 C599.32147934 457.56381298 604.75088891 452.54370551 611.04882812 448.18359375 C609.41248807 443.56965131 607.03635544 439.5842393 604.48632812 435.43359375 C604.01308105 434.66208984 603.53983398 433.89058594 603.05224609 433.09570312 C583.05198095 400.88814005 560.04680792 370.70925875 535.48583984 341.875 C534.05483811 340.19066768 532.63145778 338.50013095 531.20898438 336.80859375 C519.5040304 322.94631819 506.95339768 309.92640686 494.04882812 297.18359375 C490.91644296 294.0619176 487.7999335 290.92476456 484.68554688 287.78515625 C483.03587297 286.12623677 481.38613155 284.46738443 479.73632812 282.80859375 C478.51139648 281.57109375 478.51139648 281.57109375 477.26171875 280.30859375 C472.91079194 275.94033257 468.49762765 271.72453199 463.82006836 267.70751953 C461.40640269 265.63086879 459.07498271 263.46903048 456.73632812 261.30859375 C451.84994814 256.8567072 446.81347269 252.65056245 441.66845703 248.50292969 C439.85898005 247.02894512 438.06849208 245.53369121 436.27929688 244.03515625 C425.48924798 235.01831973 414.37445626 226.51493375 403.04882812 218.18359375 C402.30552246 217.63348633 401.5622168 217.08337891 400.79638672 216.51660156 C364.96115078 190.0286379 326.66900294 167.06458212 286.86010742 147.09246826 C285.08016545 146.19931838 283.3017865 145.30305574 281.5234375 144.40673828 C206.4210167 106.73995337 124.37381339 82.36839729 -481.95117188 183.18359375 Z " fill="#509C2F" transform="translate(950.951171875,28.81640625)"/>
<path d="M0 0 C4.1439393 1.3813131 7.35118372 2.56961772 11.09765625 4.58203125 C12.53105347 5.35160156 12.53105347 5.35160156 13.9934082 6.13671875 C15.0062085 6.68972656 16.01900879 7.24273437 17.0625 7.8125 C18.12235107 8.39 19.18220215 8.9675 20.27416992 9.5625 C53.58812834 27.893254 85.62495618 50.05926968 113.62890625 75.83984375 C115.66549823 77.69525622 117.72679704 79.51162446 119.8046875 81.3203125 C131.80038395 91.7965076 143.01256724 102.90972807 153.76342773 114.65576172 C154.49461191 115.45060873 155.23632073 116.23632073 156 117 C156.10137703 118.53240235 156.13279558 120.06947635 156.13685584 121.605223 C156.14192161 122.60922105 156.14698738 123.6132191 156.15220666 124.64764133 C156.15272397 125.7662303 156.15324128 126.88481927 156.15377426 128.03730488 C156.15822367 129.21841352 156.16267307 130.39952216 156.16725731 131.61642197 C156.17865497 134.92437031 156.18550866 138.23227336 156.19048117 141.54023406 C156.196926 145.12802088 156.20903321 148.71578926 156.22038293 152.3035633 C156.24197597 159.43299119 156.25798088 166.56242204 156.27223127 173.69186798 C156.28422762 179.62158441 156.29854114 185.5512915 156.31433487 191.48099899 C156.31660618 192.33518254 156.31887748 193.18936608 156.32121762 194.06943397 C156.32350416 194.92904615 156.32579071 195.78865833 156.32814655 196.67431936 C156.49734771 260.28833294 156.58165267 323.90263314 156.64874355 387.51682687 C156.65875546 396.98314207 156.66915046 406.44945685 156.6796875 415.91577148 C156.68084296 416.96180422 156.68199843 418.00783695 156.6831889 419.08556764 C156.7209138 452.99489062 156.79692327 486.9039901 156.8938025 520.81319166 C156.99318179 555.66082691 157.05674564 590.50834098 157.0741569 625.3561185 C157.07662629 630.27768749 157.0794908 635.19925618 157.0825882 640.12082481 C157.08318335 641.08945772 157.0837785 642.05809063 157.08439169 643.05607606 C157.09499736 658.6498956 157.14313036 674.24338423 157.20511358 689.83707473 C157.2665783 705.5123033 157.28780345 721.18718014 157.26802835 736.86252031 C157.25748457 746.17643017 157.277584 755.48909717 157.34163618 764.80279907 C157.38140782 771.02641153 157.38112351 777.24919564 157.34847412 783.47284724 C157.33101203 787.01834631 157.33075387 790.56148737 157.37939379 794.10674832 C157.67891548 817.30745329 157.67891548 817.30745329 152.23507215 823.91195829 C149.99262632 826.17655688 147.54113042 828.08204114 145 830 C143.14192752 831.78698344 141.38721216 833.64677554 139.61328125 835.51953125 C137.8489545 837.28645451 136.08203893 839.05079666 134.3125 840.8125 C133.42755859 841.70130859 132.54261719 842.59011719 131.63085938 843.50585938 C126.58167412 848.54758094 121.42140366 853.36362189 116 858 C114.8432317 859.02137951 113.6882439 860.04477952 112.53515625 861.0703125 C104.05935901 868.55031273 95.30985902 875.55756697 86.25195312 882.31884766 C84.72206555 883.46095583 83.19480799 884.60659373 81.66992188 885.75537109 C70.73724022 893.9908747 59.63713989 901.79188233 48 909 C47.24170898 909.47115234 46.48341797 909.94230469 45.70214844 910.42773438 C35.63469726 916.651854 25.39270193 922.52359091 15 928.1875 C13.96673584 928.75259277 12.93347168 929.31768555 11.86889648 929.89990234 C10.41785522 930.68228271 10.41785522 930.68228271 8.9375 931.48046875 C8.08027344 931.94348389 7.22304687 932.40649902 6.33984375 932.88354492 C4 934 4 934 0 935 C0 820.82 0 706.64 0 589 C-40.04601563 589.03480469 -80.09203125 589.06960938 -121.3515625 589.10546875 C-145.16039609 589.11987671 -168.96922627 589.13408009 -192.77806139 589.14449489 C-206.74140915 589.15061838 -220.70475683 589.15688208 -234.66810432 589.16357798 C-236.35703282 589.16438751 -238.04596133 589.16519262 -239.73488984 589.16599327 C-266.64912001 589.17878869 -293.56333124 589.2012962 -320.47754997 589.22889166 C-348.14409807 589.2572069 -375.81063571 589.27566038 -403.47719806 589.28174497 C-407.38691233 589.28260941 -411.29662656 589.28358632 -415.20634079 589.28463173 C-416.36054713 589.28493513 -416.36054713 589.28493513 -417.53807078 589.28524467 C-429.91325971 589.28878673 -442.28841623 589.30269257 -454.66359196 589.3204961 C-467.1115861 589.33818242 -479.55954817 589.34489778 -492.00755443 589.34050413 C-498.74941472 589.33842642 -505.49117446 589.34153257 -512.23301888 589.35761642 C-518.40927993 589.37224323 -524.5853824 589.37293414 -530.76165085 589.36269668 C-532.99203642 589.36143187 -535.22243199 589.36521364 -537.45279796 589.37464955 C-562.57427908 589.4747209 -584.64047068 584.61886131 -603.46875 566.65625 C-619.82374947 549.49359624 -625.63138766 528.96668988 -625.5415802 505.91297913 C-625.54979148 504.25153052 -625.559715 502.59008967 -625.57117957 500.92866033 C-625.5973398 496.4100793 -625.59900848 491.89178599 -625.59619391 487.3731426 C-625.59744334 482.48222106 -625.62159933 477.59140072 -625.64250183 472.70053101 C-625.67943402 463.1398141 -625.69427488 453.57918882 -625.69997636 444.01840676 C-625.70462159 436.24806516 -625.71522453 428.47775493 -625.72995567 420.70742607 C-625.77087722 398.65718561 -625.79400135 376.60702183 -625.79583076 354.55674345 C-625.79593366 353.37036919 -625.79603656 352.18399492 -625.79614258 350.96166992 C-625.79624137 349.77384222 -625.79634015 348.58601451 -625.79644194 347.36219203 C-625.79917531 328.08270883 -625.84541833 308.803601 -625.9109172 289.52423842 C-625.97770031 269.70889772 -626.01090432 249.89374214 -626.00947779 230.07828611 C-626.00939848 218.96071195 -626.02338451 207.84356168 -626.07383156 196.72609138 C-626.11651716 187.26895548 -626.12821623 177.81241482 -626.09956519 168.35521496 C-626.08585298 163.53140176 -626.08665645 158.70874965 -626.12668228 153.88505745 C-626.16297607 149.46756459 -626.15757453 145.05213892 -626.11923917 140.6346814 C-626.11266829 139.03876593 -626.12124208 137.44269946 -626.14666376 135.84697295 C-626.32404204 123.93413181 -626.32404204 123.93413181 -623.04442728 119.1433419 C-620.80439528 116.89283187 -618.4915145 114.96177367 -616 113 C-614.81197182 111.70571217 -613.64850083 110.38778286 -612.52734375 109.03515625 C-608.43363266 104.27428694 -604.01102456 99.86482429 -599.5625 95.4375 C-598.75490234 94.62603516 -597.94730469 93.81457031 -597.11523438 92.97851562 C-592.78218256 88.65244697 -588.37416095 84.48230207 -583.73120117 80.49047852 C-581.56604091 78.62638271 -579.47365106 76.68839043 -577.375 74.75 C-572.33313661 70.2007767 -567.04817302 66.0309728 -561.68359375 61.875 C-559.25295809 59.98957165 -556.85161533 58.07520473 -554.47265625 56.125 C-489.56579473 3 -489.56579473 3 -470 3 C-470 144.9 -470 286.8 -470 433 C-314.9 433 -159.8 433 0 433 C0 290.11 0 147.22 0 0 Z " fill="#68AF2C" transform="translate(1119,418)"/>
<path d="M0 0 C4.1439393 1.3813131 7.35118372 2.56961772 11.09765625 4.58203125 C12.05325439 5.09507812 13.00885254 5.608125 13.9934082 6.13671875 C15.51260864 6.96623047 15.51260864 6.96623047 17.0625 7.8125 C18.12235107 8.39 19.18220215 8.9675 20.27416992 9.5625 C53.58812834 27.893254 85.62495618 50.05926968 113.62890625 75.83984375 C115.66549823 77.69525622 117.72679704 79.51162446 119.8046875 81.3203125 C131.80038395 91.7965076 143.01256724 102.90972807 153.76342773 114.65576172 C154.49461191 115.45060873 155.23632073 116.23632073 156 117 C156.10137703 118.53240235 156.13279558 120.06947635 156.13685584 121.605223 C156.1444545 123.11122007 156.1444545 123.11122007 156.15220666 124.64764133 C156.15272397 125.7662303 156.15324128 126.88481927 156.15377426 128.03730488 C156.15822367 129.21841352 156.16267307 130.39952216 156.16725731 131.61642197 C156.17865497 134.92437031 156.18550866 138.23227336 156.19048117 141.54023406 C156.196926 145.12802088 156.20903321 148.71578926 156.22038293 152.3035633 C156.24197597 159.43299119 156.25798088 166.56242204 156.27223127 173.69186798 C156.28422762 179.62158441 156.29854114 185.5512915 156.31433487 191.48099899 C156.31660618 192.33518254 156.31887748 193.18936608 156.32121762 194.06943397 C156.32464744 195.35885224 156.32464744 195.35885224 156.32814655 196.67431936 C156.49734771 260.28833294 156.58165267 323.90263314 156.64874355 387.51682687 C156.65875546 396.98314207 156.66915046 406.44945685 156.6796875 415.91577148 C156.68084296 416.96180422 156.68199843 418.00783695 156.6831889 419.08556764 C156.7209138 452.99489062 156.79692327 486.9039901 156.8938025 520.81319166 C156.99318179 555.66082691 157.05674564 590.50834098 157.0741569 625.3561185 C157.07662629 630.27768749 157.0794908 635.19925618 157.0825882 640.12082481 C157.08318335 641.08945772 157.0837785 642.05809063 157.08439169 643.05607606 C157.09499736 658.6498956 157.14313036 674.24338423 157.20511358 689.83707473 C157.2665783 705.5123033 157.28780345 721.18718014 157.26802835 736.86252031 C157.25748457 746.17643017 157.277584 755.48909717 157.34163618 764.80279907 C157.38140782 771.02641153 157.38112351 777.24919564 157.34847412 783.47284724 C157.33101203 787.01834631 157.33075387 790.56148737 157.37939379 794.10674832 C157.67891548 817.30745329 157.67891548 817.30745329 152.23507215 823.91195829 C149.99262632 826.17655688 147.54113042 828.08204114 145 830 C143.14192752 831.78698344 141.38721216 833.64677554 139.61328125 835.51953125 C137.8489545 837.28645451 136.08203893 839.05079666 134.3125 840.8125 C133.42755859 841.70130859 132.54261719 842.59011719 131.63085938 843.50585938 C126.58167412 848.54758094 121.42140366 853.36362189 116 858 C114.8432317 859.02137951 113.6882439 860.04477952 112.53515625 861.0703125 C104.05935901 868.55031273 95.30985902 875.55756697 86.25195312 882.31884766 C84.72206555 883.46095583 83.19480799 884.60659373 81.66992188 885.75537109 C70.73724022 893.9908747 59.63713989 901.79188233 48 909 C47.24170898 909.47115234 46.48341797 909.94230469 45.70214844 910.42773438 C35.63469726 916.651854 25.39270193 922.52359091 15 928.1875 C13.96673584 928.75259277 12.93347168 929.31768555 11.86889648 929.89990234 C10.41785522 930.68228271 10.41785522 930.68228271 8.9375 931.48046875 C8.08027344 931.94348389 7.22304687 932.40649902 6.33984375 932.88354492 C4 934 4 934 0 935 C0 820.82 0 706.64 0 589 C-9.9 589 -19.8 589 -30 589 C-30 537.52 -30 486.04 -30 433 C-20.1 433 -10.2 433 0 433 C0 290.11 0 147.22 0 0 Z " fill="#00803B" transform="translate(1119,418)"/>
<path d="M0 0 C1.98 0 3.96 0 6 0 C5.67 51.48 5.34 102.96 5 156 C3.35 156 1.7 156 0 156 C0 104.52 0 53.04 0 0 Z " fill="#0E8B3A" transform="translate(1089,851)"/>
</svg>
