<svg xmlns="http://www.w3.org/2000/svg" fill="none" viewBox="0 0 1500 1500">
  <path fill="#000" d="M1500 750c0 414.21-335.79 750-750 750-414.214 0-750-335.79-750-750C0 335.786 335.786 0 750 0c414.21 0 750 335.786 750 750Z"/>
  <path stroke="url(#a)" d="M1500 750c0 414.21-335.79 750-750 750-414.214 0-750-335.79-750-750C0 335.786 335.786 0 750 0c414.21 0 750 335.786 750 750Z"/>
  <path fill="url(#b)" d="M750.325 110 110 749.327 750.711 1389 1390 750.181 750.325 110ZM1240 717.847l-156.1 18.108a97.259 97.259 0 0 0-47.81-36.711 97.318 97.318 0 0 0-60.269-1.497L846.638 568.573a98.77 98.77 0 0 0 .895-12.58 97.42 97.42 0 0 0-55.109-87.715V270.37L1240 717.847ZM708.633 270.37v197.318a97.564 97.564 0 0 0-40.918 35.948 97.524 97.524 0 0 0-15.268 52.275 95.252 95.252 0 0 0 1.057 13.495L525.012 697.869a97.595 97.595 0 0 0-60.609 1.161 97.573 97.573 0 0 0-48.226 36.721l-155.121-17.945L708.633 270.37ZM284.819 804.911l117.901 13.678a97.548 97.548 0 0 0 35.096 50.592 97.581 97.581 0 0 0 58.412 19.502h.163l113.835 241.687-325.407-325.459Zm465.71 426.439L572.193 852.549a97.195 97.195 0 0 0 14.616-97.978l114.323-114.298a96.924 96.924 0 0 0 98.387-.406l113.937 113.931a97.53 97.53 0 0 0 15.022 99.584L750.529 1231.35Zm140.058-100.98 113.833-241.727a97.566 97.566 0 0 0 57.85-19.697 97.564 97.564 0 0 0 34.79-50.235l119.08-13.8-325.553 325.459Z"/>
  <defs>
    <linearGradient id="a" x1="750" x2="750" y1="1496.02" y2="13.133" gradientUnits="userSpaceOnUse">
      <stop stop-color="#00B1FF"/>
      <stop offset=".93" stop-color="#00F5E4"/>
    </linearGradient>
    <linearGradient id="b" x1="750" x2="750" y1="1385.61" y2="121.198" gradientUnits="userSpaceOnUse">
      <stop stop-color="#00B1FF"/>
      <stop offset=".93" stop-color="#00F5E4"/>
    </linearGradient>
  </defs>
</svg>