<?xml version="1.0" encoding="UTF-8"?>
<svg width="50px" height="50px" viewBox="0 0 50 50" version="1.1" xmlns="http://www.w3.org/2000/svg" xmlns:xlink="http://www.w3.org/1999/xlink">
    <title>EUROC_Logo_FC_OnDark</title>
    <defs>
        <linearGradient x1="111.671569%" y1="111.671569%" x2="40.9614846%" y2="40.9614846%" id="linearGradient-1">
            <stop stop-color="#8656EF" offset="0%"></stop>
            <stop stop-color="#1AA3FF" offset="97%"></stop>
        </linearGradient>
    </defs>
    <g id="EURC" stroke="none" stroke-width="1" fill="none" fill-rule="evenodd">
        <g id="EUROC" transform="translate(-164.000000, -260.000000)">
            <g id="Group-12" transform="translate(160.000000, 260.000000)">
                <g id="EUROC_Logo_FC_OnDark" transform="translate(4.000000, 0.000000)">
                    <g id="Group" transform="translate(0.000000, 0.000000)">
                        <path d="M-1.71042763e-15,25 C-1.71042763e-15,11.1929272 11.1929272,1.86592105e-15 25,1.86592105e-15 C38.8070728,1.86592105e-15 50,11.1929272 50,25 C50,38.8070728 38.8070728,50 25,50 C11.1929272,50 -1.71042763e-15,38.8070728 -1.71042763e-15,25 Z" id="Logo" fill="url(#linearGradient-1)"></path>
                        <g transform="translate(5.340689, 5.340336)" fill="#FFFFFF" fill-rule="nonzero" id="Path">
                            <path d="M10.7874621,20.8060225 L9.88164978,22.0287116 C9.66736406,22.4527312 9.97583745,22.9541318 10.4509775,22.9541318 L13.4152632,22.9541318 C14.3525882,26.8291318 17.0518178,29.4716388 20.6684145,29.4170169 C23.2359915,29.4170169 25.1715657,28.1404063 26.4639327,25.5983895 C26.6284985,25.2748601 26.4842408,24.8778013 26.1526582,24.729692 L24.7387926,24.0980393 C24.4275181,23.9590337 24.0605713,24.0892858 23.909661,24.3949581 C23.242294,25.7492999 22.1334005,26.6123951 20.6684145,26.6123951 C19.3420839,26.6123951 18.2780083,25.9628853 17.4628823,24.6505604 C17.1442548,24.1425071 16.8907534,23.5756304 16.6978262,22.9544819 L20.4943949,22.9544819 C20.7349411,22.9544819 20.9551792,22.8189777 21.0637226,22.6043419 L21.9695349,21.3816528 C22.1838206,20.957283 21.8753473,20.4562326 21.4002072,20.4562326 L16.2706554,20.4562326 C16.2559495,20.1932774 16.2468459,19.9250702 16.2468459,19.6484595 C16.2440447,19.3742999 16.2517478,19.1060926 16.2661036,18.8417368 L20.4943949,18.8417368 C20.7349411,18.8417368 20.9551792,18.7062326 21.0637226,18.4915968 L21.9695349,17.2689077 C22.1838206,16.8448881 21.8753473,16.3434875 21.4002072,16.3434875 L16.6932744,16.3434875 C17.3816498,14.0987396 18.8189747,12.6281514 20.6684145,12.657213 C22.0773781,12.657213 23.1715657,13.4285716 23.8732464,14.692227 C24.0304593,14.9754903 24.3844509,15.0840337 24.6806694,14.9530814 L26.1018879,14.3256304 C26.4418739,14.1754203 26.5864817,13.7643559 26.4065097,13.4390758 C25.0948851,11.0700281 23.1820699,9.87990209 20.6684145,9.87990209 C18.374647,9.87990209 16.537112,10.7916668 15.1418038,12.6018909 C14.3263276,13.6680674 13.7584005,14.9187676 13.4215657,16.3434875 L11.35714,16.3434875 C11.1165938,16.3434875 10.8963557,16.4789917 10.7878122,16.6936276 L9.88199992,17.9163167 C9.6677142,18.3406864 9.97618759,18.8417368 10.4513276,18.8417368 L13.0805293,18.8417368 C13.0679243,19.107143 13.0556694,19.3732494 13.0556694,19.6484595 C13.052168,19.9212186 13.0588206,20.1901262 13.0703753,20.4562326 L11.3574901,20.4562326 C11.1169439,20.4562326 10.8967058,20.5917368 10.7881624,20.8063727 L10.7874621,20.8060225 Z"></path>
                            <path d="M3.20868059,18.6064427 C3.72338647,10.3879553 10.339633,3.75105055 18.5563697,3.21218501 C22.8756974,2.9289217 26.8693949,4.32422982 29.95728,6.80357156 C30.2569999,7.04411778 30.6862716,7.03326344 30.9730363,6.77731106 L32.1841708,5.69677884 C32.5434145,5.37640069 32.5360615,4.80847352 32.1649131,4.50175083 C28.5630223,1.52486008 23.8865517,-0.1960783 18.8130223,0.0178572744 C8.7506974,0.442227022 0.562672185,8.53606456 0.0283584597,18.5934875 C-0.202733977,22.9436276 0.990193194,27.0098041 3.18101952,30.3690478 C3.44327443,30.7713587 4.00524922,30.8410365 4.36379263,30.5213587 L5.57352653,29.4418769 C5.85959095,29.1866248 5.9212156,28.762255 5.71638367,28.4383755 C3.93487106,25.619748 2.98213997,22.2282914 3.20903073,18.6064427 L3.20868059,18.6064427 Z"></path>
                            <path d="M36.1376022,8.9499301 C35.8753473,8.54796932 35.3133725,8.47794131 34.954829,8.79761918 L33.7450952,9.87710097 C33.4590307,10.1323531 33.3974061,10.5567228 33.602238,10.8806024 C35.3837506,13.6992298 36.3368318,17.0910365 36.109591,20.7128853 C35.5945349,28.9310225 28.9782884,35.5675772 20.7615517,36.1064427 C16.442224,36.389706 12.4488767,34.9943979 9.36064137,32.5150562 C9.06092148,32.2745099 8.63164978,32.2853643 8.34488507,32.5413167 L7.13410076,33.6218489 C6.77485706,33.942227 6.78221,34.5101542 7.15335846,34.8168769 C10.7555994,37.7941178 15.4320699,39.514706 20.5059495,39.3007704 C30.5682744,38.8760506 38.7562996,30.7818629 39.2899131,20.7244399 C39.5206554,16.37465 38.3277282,12.3084735 36.137252,8.9499301 L36.1376022,8.9499301 Z"></path>
                        </g>
                    </g>
                </g>
            </g>
        </g>
    </g>
</svg>
