<svg width="529" height="376" viewBox="0 0 529 376" fill="none" xmlns="http://www.w3.org/2000/svg">
    <rect x="210" y="17" width="88" height="58" rx="15" fill="#E6E6E6" stroke="#C2C2C2" stroke-width="2" />
    <path
        d="M232.929 36.6364C232.929 37.5881 232.748 38.3977 232.387 39.0653C232.029 39.733 231.541 40.2429 230.922 40.5952C230.305 40.9446 229.612 41.1193 228.842 41.1193C228.066 41.1193 227.37 40.9432 226.754 40.5909C226.137 40.2386 225.65 39.7287 225.292 39.0611C224.934 38.3935 224.755 37.5852 224.755 36.6364C224.755 35.6847 224.934 34.875 225.292 34.2074C225.65 33.5398 226.137 33.0312 226.754 32.6818C227.37 32.3295 228.066 32.1534 228.842 32.1534C229.612 32.1534 230.305 32.3295 230.922 32.6818C231.541 33.0312 232.029 33.5398 232.387 34.2074C232.748 34.875 232.929 35.6847 232.929 36.6364ZM231.058 36.6364C231.058 36.0199 230.966 35.5 230.781 35.0767C230.599 34.6534 230.342 34.3324 230.01 34.1136C229.677 33.8949 229.288 33.7855 228.842 33.7855C228.396 33.7855 228.007 33.8949 227.674 34.1136C227.342 34.3324 227.083 34.6534 226.899 35.0767C226.717 35.5 226.626 36.0199 226.626 36.6364C226.626 37.2528 226.717 37.7727 226.899 38.196C227.083 38.6193 227.342 38.9403 227.674 39.1591C228.007 39.3778 228.396 39.4872 228.842 39.4872C229.288 39.4872 229.677 39.3778 230.01 39.1591C230.342 38.9403 230.599 38.6193 230.781 38.196C230.966 37.7727 231.058 37.2528 231.058 36.6364ZM237.649 34.4545V35.8182H233.609V34.4545H237.649ZM234.534 41V33.9815C234.534 33.5071 234.627 33.1136 234.811 32.8011C234.999 32.4886 235.254 32.2543 235.578 32.098C235.902 31.9418 236.27 31.8636 236.682 31.8636C236.96 31.8636 237.215 31.8849 237.445 31.9276C237.678 31.9702 237.851 32.0085 237.965 32.0426L237.641 33.4062C237.57 33.3835 237.482 33.3622 237.377 33.3423C237.274 33.3224 237.169 33.3125 237.061 33.3125C236.794 33.3125 236.608 33.375 236.503 33.5C236.398 33.6222 236.345 33.794 236.345 34.0156V41H234.534ZM242.146 34.4545V35.8182H238.106V34.4545H242.146ZM239.031 41V33.9815C239.031 33.5071 239.123 33.1136 239.308 32.8011C239.496 32.4886 239.751 32.2543 240.075 32.098C240.399 31.9418 240.767 31.8636 241.179 31.8636C241.457 31.8636 241.712 31.8849 241.942 31.9276C242.175 31.9702 242.348 32.0085 242.462 32.0426L242.138 33.4062C242.067 33.3835 241.979 33.3622 241.873 33.3423C241.771 33.3224 241.666 33.3125 241.558 33.3125C241.291 33.3125 241.105 33.375 241 33.5C240.895 33.6222 240.842 33.794 240.842 34.0156V41H239.031ZM246.967 36.696V38.1364H242.987V36.696H246.967ZM258.762 35.3281H256.895C256.861 35.0866 256.791 34.8722 256.686 34.6847C256.581 34.4943 256.446 34.3324 256.281 34.1989C256.117 34.0653 255.926 33.9631 255.71 33.892C255.497 33.821 255.266 33.7855 255.016 33.7855C254.564 33.7855 254.171 33.8977 253.835 34.1222C253.5 34.3437 253.24 34.6676 253.056 35.0938C252.871 35.517 252.779 36.0312 252.779 36.6364C252.779 37.2585 252.871 37.7812 253.056 38.2045C253.243 38.6278 253.504 38.9474 253.84 39.1634C254.175 39.3793 254.563 39.4872 255.003 39.4872C255.25 39.4872 255.479 39.4545 255.689 39.3892C255.902 39.3239 256.091 39.2287 256.256 39.1037C256.421 38.9759 256.557 38.821 256.665 38.6392C256.776 38.4574 256.852 38.25 256.895 38.017L258.762 38.0256C258.713 38.4261 258.593 38.8125 258.399 39.1847C258.209 39.554 257.952 39.8849 257.628 40.1776C257.307 40.4673 256.923 40.6974 256.477 40.8679C256.034 41.0355 255.533 41.1193 254.973 41.1193C254.195 41.1193 253.499 40.9432 252.885 40.5909C252.274 40.2386 251.791 39.7287 251.436 39.0611C251.084 38.3935 250.908 37.5852 250.908 36.6364C250.908 35.6847 251.087 34.875 251.445 34.2074C251.803 33.5398 252.289 33.0312 252.902 32.6818C253.516 32.3295 254.206 32.1534 254.973 32.1534C255.479 32.1534 255.948 32.2244 256.379 32.3665C256.814 32.5085 257.199 32.7159 257.534 32.9886C257.869 33.2585 258.142 33.5895 258.352 33.9815C258.566 34.3736 258.702 34.8224 258.762 35.3281ZM261.734 37.2159V41H259.919V32.2727H261.683V35.6094H261.76C261.907 35.223 262.146 34.9205 262.475 34.7017C262.805 34.4801 263.218 34.3693 263.715 34.3693C264.17 34.3693 264.566 34.4688 264.904 34.6676C265.245 34.8636 265.51 35.1463 265.697 35.5156C265.887 35.8821 265.981 36.321 265.978 36.8324V41H264.163V37.1562C264.166 36.7528 264.063 36.4389 263.856 36.2145C263.652 35.9901 263.365 35.8778 262.995 35.8778C262.748 35.8778 262.529 35.9304 262.339 36.0355C262.152 36.1406 262.004 36.294 261.896 36.4957C261.791 36.6946 261.737 36.9347 261.734 37.2159ZM269.141 41.1236C268.724 41.1236 268.352 41.0511 268.025 40.9062C267.698 40.7585 267.44 40.5412 267.249 40.2543C267.062 39.9645 266.968 39.6037 266.968 39.1719C266.968 38.8082 267.035 38.5028 267.168 38.2557C267.302 38.0085 267.484 37.8097 267.714 37.6591C267.944 37.5085 268.205 37.3949 268.498 37.3182C268.793 37.2415 269.103 37.1875 269.427 37.1562C269.808 37.1165 270.114 37.0795 270.347 37.0455C270.58 37.0085 270.749 36.9545 270.854 36.8835C270.96 36.8125 271.012 36.7074 271.012 36.5682V36.5426C271.012 36.2727 270.927 36.0639 270.756 35.9162C270.589 35.7685 270.35 35.6946 270.041 35.6946C269.714 35.6946 269.454 35.767 269.261 35.9119C269.067 36.054 268.94 36.233 268.877 36.4489L267.198 36.3125C267.283 35.9148 267.451 35.571 267.701 35.2812C267.951 34.9886 268.273 34.7642 268.668 34.608C269.066 34.4489 269.526 34.3693 270.049 34.3693C270.413 34.3693 270.761 34.4119 271.093 34.4972C271.428 34.5824 271.725 34.7145 271.984 34.8935C272.245 35.0724 272.451 35.3026 272.602 35.5838C272.752 35.8622 272.827 36.196 272.827 36.5852V41H271.106V40.0923H271.055C270.95 40.2969 270.809 40.4773 270.633 40.6335C270.457 40.7869 270.245 40.9077 269.998 40.9957C269.751 41.081 269.465 41.1236 269.141 41.1236ZM269.661 39.8707C269.928 39.8707 270.164 39.8182 270.369 39.7131C270.573 39.6051 270.734 39.4602 270.85 39.2784C270.967 39.0966 271.025 38.8906 271.025 38.6605V37.9659C270.968 38.0028 270.89 38.0369 270.791 38.0682C270.694 38.0966 270.585 38.1236 270.462 38.1491C270.34 38.1719 270.218 38.1932 270.096 38.2131C269.974 38.2301 269.863 38.2457 269.764 38.2599C269.55 38.2912 269.364 38.3409 269.205 38.4091C269.046 38.4773 268.923 38.5696 268.835 38.6861C268.746 38.7997 268.702 38.9418 268.702 39.1122C268.702 39.3594 268.792 39.5483 268.971 39.679C269.153 39.8068 269.383 39.8707 269.661 39.8707ZM274.104 41V34.4545H275.919V41H274.104ZM275.016 33.6108C274.746 33.6108 274.514 33.5213 274.321 33.3423C274.131 33.1605 274.036 32.9432 274.036 32.6903C274.036 32.4403 274.131 32.2259 274.321 32.0469C274.514 31.8651 274.746 31.7741 275.016 31.7741C275.286 31.7741 275.516 31.8651 275.706 32.0469C275.899 32.2259 275.996 32.4403 275.996 32.6903C275.996 32.9432 275.899 33.1605 275.706 33.3423C275.516 33.5213 275.286 33.6108 275.016 33.6108ZM279.057 37.2159V41H277.241V34.4545H278.971V35.6094H279.048C279.193 35.2287 279.436 34.9276 279.777 34.706C280.118 34.4815 280.531 34.3693 281.017 34.3693C281.471 34.3693 281.868 34.4688 282.206 34.6676C282.544 34.8665 282.807 35.1506 282.994 35.5199C283.182 35.8864 283.275 36.3239 283.275 36.8324V41H281.46V37.1562C281.463 36.7557 281.361 36.4432 281.153 36.2188C280.946 35.9915 280.66 35.8778 280.297 35.8778C280.052 35.8778 279.837 35.9304 279.649 36.0355C279.464 36.1406 279.319 36.294 279.214 36.4957C279.112 36.6946 279.06 36.9347 279.057 37.2159ZM241.126 52.7827C241.092 52.4389 240.945 52.1719 240.687 51.9815C240.428 51.7912 240.077 51.696 239.634 51.696C239.333 51.696 239.079 51.7386 238.871 51.8239C238.664 51.9062 238.505 52.0213 238.394 52.169C238.286 52.3168 238.232 52.4844 238.232 52.6719C238.226 52.8281 238.259 52.9645 238.33 53.081C238.404 53.1974 238.505 53.2983 238.633 53.3835C238.761 53.4659 238.908 53.5384 239.076 53.6009C239.244 53.6605 239.423 53.7116 239.613 53.7543L240.397 53.9418C240.778 54.027 241.127 54.1406 241.445 54.2827C241.763 54.4247 242.039 54.5994 242.272 54.8068C242.505 55.0142 242.685 55.2585 242.813 55.5398C242.944 55.821 243.011 56.1435 243.013 56.5071C243.011 57.0412 242.874 57.5043 242.604 57.8963C242.337 58.2855 241.951 58.5881 241.445 58.804C240.942 59.017 240.336 59.1236 239.626 59.1236C238.921 59.1236 238.307 59.0156 237.785 58.7997C237.265 58.5838 236.859 58.2642 236.566 57.8409C236.276 57.4148 236.124 56.8878 236.11 56.2599H237.896C237.915 56.5526 237.999 56.7969 238.147 56.9929C238.298 57.1861 238.498 57.3324 238.748 57.4318C239.001 57.5284 239.286 57.5767 239.604 57.5767C239.917 57.5767 240.188 57.5312 240.418 57.4403C240.651 57.3494 240.832 57.223 240.959 57.0611C241.087 56.8991 241.151 56.7131 241.151 56.5028C241.151 56.3068 241.093 56.142 240.976 56.0085C240.863 55.875 240.695 55.7614 240.474 55.6676C240.255 55.5739 239.986 55.4886 239.668 55.4119L238.718 55.1733C237.982 54.9943 237.401 54.7145 236.975 54.3338C236.549 53.9531 236.337 53.4403 236.34 52.7955C236.337 52.267 236.478 51.8054 236.762 51.4105C237.049 51.0156 237.442 50.7074 237.942 50.4858C238.442 50.2642 239.011 50.1534 239.647 50.1534C240.295 50.1534 240.86 50.2642 241.343 50.4858C241.829 50.7074 242.207 51.0156 242.476 51.4105C242.746 51.8054 242.886 52.2628 242.894 52.7827H241.126ZM247.046 59.1278C246.384 59.1278 245.811 58.9872 245.329 58.706C244.848 58.4219 244.478 58.027 244.216 57.5213C243.955 57.0128 243.824 56.4233 243.824 55.7528C243.824 55.0767 243.955 54.4858 244.216 53.9801C244.478 53.4716 244.848 53.0767 245.329 52.7955C245.811 52.5114 246.384 52.3693 247.046 52.3693C247.708 52.3693 248.279 52.5114 248.759 52.7955C249.242 53.0767 249.614 53.4716 249.875 53.9801C250.137 54.4858 250.267 55.0767 250.267 55.7528C250.267 56.4233 250.137 57.0128 249.875 57.5213C249.614 58.027 249.242 58.4219 248.759 58.706C248.279 58.9872 247.708 59.1278 247.046 59.1278ZM247.054 57.7216C247.355 57.7216 247.607 57.6364 247.809 57.4659C248.01 57.2926 248.162 57.0568 248.265 56.7585C248.37 56.4602 248.422 56.1207 248.422 55.7401C248.422 55.3594 248.37 55.0199 248.265 54.7216C248.162 54.4233 248.01 54.1875 247.809 54.0142C247.607 53.8409 247.355 53.7543 247.054 53.7543C246.75 53.7543 246.495 53.8409 246.287 54.0142C246.083 54.1875 245.928 54.4233 245.823 54.7216C245.721 55.0199 245.669 55.3594 245.669 55.7401C245.669 56.1207 245.721 56.4602 245.823 56.7585C245.928 57.0568 246.083 57.2926 246.287 57.4659C246.495 57.6364 246.75 57.7216 247.054 57.7216ZM253.131 50.2727V59H251.316V50.2727H253.131ZM260.556 52.4545L258.267 59H256.222L253.933 52.4545H255.851L257.21 57.1378H257.279L258.634 52.4545H260.556ZM264.125 59.1278C263.451 59.1278 262.872 58.9915 262.386 58.7188C261.903 58.4432 261.531 58.054 261.27 57.5511C261.008 57.0455 260.877 56.4474 260.877 55.7571C260.877 55.0838 261.008 54.4929 261.27 53.9844C261.531 53.4759 261.899 53.0795 262.373 52.7955C262.85 52.5114 263.41 52.3693 264.052 52.3693C264.484 52.3693 264.886 52.4389 265.258 52.5781C265.633 52.7145 265.96 52.9205 266.238 53.196C266.52 53.4716 266.738 53.8182 266.895 54.2358C267.051 54.6506 267.129 55.1364 267.129 55.6932V56.1918H261.602V55.0668H265.42C265.42 54.8054 265.363 54.5739 265.25 54.3722C265.136 54.1705 264.978 54.0128 264.777 53.8991C264.578 53.7827 264.346 53.7244 264.082 53.7244C263.806 53.7244 263.562 53.7884 263.349 53.9162C263.139 54.0412 262.974 54.2102 262.855 54.4233C262.735 54.6335 262.674 54.8679 262.671 55.1264V56.196C262.671 56.5199 262.731 56.7997 262.85 57.0355C262.973 57.2713 263.145 57.4531 263.366 57.581C263.588 57.7088 263.85 57.7727 264.154 57.7727C264.356 57.7727 264.541 57.7443 264.708 57.6875C264.876 57.6307 265.02 57.5455 265.139 57.4318C265.258 57.3182 265.349 57.179 265.412 57.0142L267.091 57.125C267.005 57.5284 266.831 57.8807 266.566 58.1818C266.305 58.4801 265.967 58.7131 265.552 58.8807C265.14 59.0455 264.664 59.1278 264.125 59.1278ZM268.182 59V52.4545H269.941V53.5966H270.01C270.129 53.1903 270.329 52.8835 270.611 52.6761C270.892 52.4659 271.216 52.3608 271.582 52.3608C271.673 52.3608 271.771 52.3665 271.876 52.3778C271.981 52.3892 272.074 52.4048 272.153 52.4247V54.0355C272.068 54.0099 271.95 53.9872 271.799 53.9673C271.649 53.9474 271.511 53.9375 271.386 53.9375C271.119 53.9375 270.88 53.9957 270.67 54.1122C270.463 54.2259 270.298 54.3849 270.176 54.5895C270.057 54.794 269.997 55.0298 269.997 55.2969V59H268.182Z"
        fill="#363636" />
    <rect x="17" y="161" width="88" height="58" rx="15" stroke="#EF5D13" stroke-width="2" />
    <path
        d="M49.3342 176.273H51.1794V181.94C51.1794 182.577 51.0274 183.134 50.7234 183.611C50.4223 184.088 50.0004 184.46 49.4578 184.727C48.9152 184.991 48.2831 185.124 47.5615 185.124C46.8371 185.124 46.2035 184.991 45.6609 184.727C45.1183 184.46 44.6964 184.088 44.3953 183.611C44.0942 183.134 43.9436 182.577 43.9436 181.94V176.273H45.7888V181.783C45.7888 182.115 45.8612 182.411 46.0061 182.669C46.1538 182.928 46.3612 183.131 46.6282 183.278C46.8953 183.426 47.2064 183.5 47.5615 183.5C47.9194 183.5 48.2305 183.426 48.4947 183.278C48.7618 183.131 48.9677 182.928 49.1126 182.669C49.2603 182.411 49.3342 182.115 49.3342 181.783V176.273ZM57.9774 180.321L56.3155 180.423C56.2871 180.281 56.226 180.153 56.1323 180.04C56.0385 179.923 55.9149 179.831 55.7615 179.763C55.6109 179.692 55.4305 179.656 55.2203 179.656C54.9391 179.656 54.7019 179.716 54.5087 179.835C54.3155 179.952 54.2189 180.108 54.2189 180.304C54.2189 180.46 54.2814 180.592 54.4064 180.7C54.5314 180.808 54.7459 180.895 55.0499 180.96L56.2345 181.199C56.8709 181.33 57.3453 181.54 57.6578 181.83C57.9703 182.119 58.1266 182.5 58.1266 182.972C58.1266 183.401 58.0002 183.777 57.7473 184.101C57.4973 184.425 57.1536 184.678 56.7161 184.859C56.2814 185.038 55.78 185.128 55.2118 185.128C54.3453 185.128 53.655 184.947 53.1408 184.587C52.6294 184.223 52.3297 183.729 52.2416 183.104L54.0271 183.01C54.0811 183.274 54.2118 183.476 54.4192 183.615C54.6266 183.751 54.8922 183.82 55.2161 183.82C55.5342 183.82 55.7899 183.759 55.9831 183.636C56.1791 183.511 56.2786 183.351 56.2814 183.155C56.2786 182.99 56.209 182.855 56.0726 182.75C55.9362 182.642 55.726 182.56 55.4419 182.503L54.3084 182.277C53.6692 182.149 53.1933 181.928 52.8808 181.612C52.5712 181.297 52.4163 180.895 52.4163 180.406C52.4163 179.986 52.53 179.624 52.7573 179.32C52.9874 179.016 53.3098 178.781 53.7246 178.616C54.1422 178.452 54.6308 178.369 55.1905 178.369C56.0172 178.369 56.6678 178.544 57.1422 178.893C57.6195 179.243 57.8979 179.719 57.9774 180.321ZM62.1206 185.128C61.4473 185.128 60.8678 184.991 60.382 184.719C59.899 184.443 59.5269 184.054 59.2655 183.551C59.0042 183.045 58.8735 182.447 58.8735 181.757C58.8735 181.084 59.0042 180.493 59.2655 179.984C59.5269 179.476 59.8948 179.08 60.3692 178.795C60.8465 178.511 61.4061 178.369 62.0482 178.369C62.48 178.369 62.882 178.439 63.2542 178.578C63.6292 178.714 63.9559 178.92 64.2343 179.196C64.5155 179.472 64.7343 179.818 64.8905 180.236C65.0468 180.651 65.1249 181.136 65.1249 181.693V182.192H59.5979V181.067H63.4161C63.4161 180.805 63.3593 180.574 63.2456 180.372C63.132 180.17 62.9743 180.013 62.7726 179.899C62.5738 179.783 62.3422 179.724 62.078 179.724C61.8025 179.724 61.5581 179.788 61.3451 179.916C61.1348 180.041 60.9701 180.21 60.8507 180.423C60.7314 180.634 60.6704 180.868 60.6675 181.126V182.196C60.6675 182.52 60.7272 182.8 60.8465 183.036C60.9686 183.271 61.1405 183.453 61.3621 183.581C61.5837 183.709 61.8465 183.773 62.1505 183.773C62.3522 183.773 62.5368 183.744 62.7044 183.688C62.8721 183.631 63.0155 183.545 63.1348 183.432C63.2542 183.318 63.3451 183.179 63.4076 183.014L65.0865 183.125C65.0013 183.528 64.8266 183.881 64.5624 184.182C64.301 184.48 63.963 184.713 63.5482 184.881C63.1363 185.045 62.6604 185.128 62.1206 185.128ZM66.1776 185V178.455H67.9375V179.597H68.0057C68.125 179.19 68.3253 178.884 68.6065 178.676C68.8878 178.466 69.2116 178.361 69.5781 178.361C69.669 178.361 69.767 178.366 69.8722 178.378C69.9773 178.389 70.0696 178.405 70.1491 178.425V180.036C70.0639 180.01 69.946 179.987 69.7955 179.967C69.6449 179.947 69.5071 179.938 69.3821 179.938C69.1151 179.938 68.8764 179.996 68.6662 180.112C68.4588 180.226 68.294 180.385 68.1719 180.589C68.0526 180.794 67.9929 181.03 67.9929 181.297V185H66.1776ZM72.6762 176.273V177.193C72.6762 177.455 72.6251 177.722 72.5228 177.994C72.4234 178.264 72.2899 178.52 72.1223 178.761C71.9546 179 71.7714 179.203 71.5725 179.371L70.7714 178.898C70.9135 178.673 71.0385 178.425 71.1464 178.152C71.2572 177.879 71.3126 177.562 71.3126 177.202V176.273H72.6762ZM78.3791 180.321L76.7172 180.423C76.6888 180.281 76.6277 180.153 76.5339 180.04C76.4402 179.923 76.3166 179.831 76.1632 179.763C76.0126 179.692 75.8322 179.656 75.622 179.656C75.3408 179.656 75.1035 179.716 74.9104 179.835C74.7172 179.952 74.6206 180.108 74.6206 180.304C74.6206 180.46 74.6831 180.592 74.8081 180.7C74.9331 180.808 75.1476 180.895 75.4516 180.96L76.6362 181.199C77.2726 181.33 77.747 181.54 78.0595 181.83C78.372 182.119 78.5283 182.5 78.5283 182.972C78.5283 183.401 78.4018 183.777 78.149 184.101C77.899 184.425 77.5552 184.678 77.1177 184.859C76.6831 185.038 76.1817 185.128 75.6135 185.128C74.747 185.128 74.0567 184.947 73.5425 184.587C73.0311 184.223 72.7314 183.729 72.6433 183.104L74.4288 183.01C74.4828 183.274 74.6135 183.476 74.8209 183.615C75.0283 183.751 75.2939 183.82 75.6177 183.82C75.9359 183.82 76.1916 183.759 76.3848 183.636C76.5808 183.511 76.6802 183.351 76.6831 183.155C76.6802 182.99 76.6106 182.855 76.4743 182.75C76.3379 182.642 76.1277 182.56 75.8436 182.503L74.7101 182.277C74.0709 182.149 73.595 181.928 73.2825 181.612C72.9729 181.297 72.818 180.895 72.818 180.406C72.818 179.986 72.9317 179.624 73.1589 179.32C73.3891 179.016 73.7115 178.781 74.1263 178.616C74.5439 178.452 75.0325 178.369 75.5922 178.369C76.4189 178.369 77.0695 178.544 77.5439 178.893C78.0212 179.243 78.2996 179.719 78.3791 180.321ZM46.5724 194.273V203H44.7272V194.273H46.5724ZM49.7397 199.216V203H47.9244V196.455H49.6545V197.609H49.7312C49.8761 197.229 50.119 196.928 50.4599 196.706C50.8008 196.482 51.2142 196.369 51.7 196.369C52.1545 196.369 52.5508 196.469 52.8889 196.668C53.2269 196.866 53.4897 197.151 53.6772 197.52C53.8647 197.886 53.9585 198.324 53.9585 198.832V203H52.1431V199.156C52.146 198.756 52.0437 198.443 51.8363 198.219C51.6289 197.991 51.3434 197.878 50.9798 197.878C50.7355 197.878 50.5196 197.93 50.3321 198.036C50.1474 198.141 50.0025 198.294 49.8974 198.496C49.7951 198.695 49.7426 198.935 49.7397 199.216ZM58.7388 196.455V197.818H54.797V196.455H58.7388ZM55.6919 194.886H57.5072V200.989C57.5072 201.156 57.5328 201.287 57.5839 201.381C57.6351 201.472 57.7061 201.536 57.797 201.572C57.8908 201.609 57.9987 201.628 58.1209 201.628C58.2061 201.628 58.2913 201.621 58.3765 201.607C58.4618 201.589 58.5271 201.577 58.5726 201.568L58.8581 202.919C58.7672 202.947 58.6393 202.98 58.4746 203.017C58.3098 203.057 58.1095 203.081 57.8737 203.089C57.4362 203.107 57.0527 203.048 56.7231 202.915C56.3964 202.781 56.1422 202.574 55.9604 202.293C55.7785 202.011 55.689 201.656 55.6919 201.227V194.886ZM62.7019 203.128C62.0286 203.128 61.4491 202.991 60.9633 202.719C60.4803 202.443 60.1082 202.054 59.8468 201.551C59.5855 201.045 59.4548 200.447 59.4548 199.757C59.4548 199.084 59.5855 198.493 59.8468 197.984C60.1082 197.476 60.4761 197.08 60.9505 196.795C61.4278 196.511 61.9874 196.369 62.6295 196.369C63.0613 196.369 63.4633 196.439 63.8355 196.578C64.2105 196.714 64.5372 196.92 64.8156 197.196C65.0968 197.472 65.3156 197.818 65.4718 198.236C65.6281 198.651 65.7062 199.136 65.7062 199.693V200.192H60.1792V199.067H63.9974C63.9974 198.805 63.9406 198.574 63.8269 198.372C63.7133 198.17 63.5556 198.013 63.3539 197.899C63.1551 197.783 62.9235 197.724 62.6593 197.724C62.3837 197.724 62.1394 197.788 61.9264 197.916C61.7161 198.041 61.5514 198.21 61.432 198.423C61.3127 198.634 61.2516 198.868 61.2488 199.126V200.196C61.2488 200.52 61.3085 200.8 61.4278 201.036C61.5499 201.271 61.7218 201.453 61.9434 201.581C62.165 201.709 62.4278 201.773 62.7318 201.773C62.9335 201.773 63.1181 201.744 63.2857 201.688C63.4534 201.631 63.5968 201.545 63.7161 201.432C63.8355 201.318 63.9264 201.179 63.9889 201.014L65.6678 201.125C65.5826 201.528 65.4079 201.881 65.1437 202.182C64.8823 202.48 64.5443 202.713 64.1295 202.881C63.7176 203.045 63.2417 203.128 62.7019 203.128ZM68.5742 199.216V203H66.7589V196.455H68.489V197.609H68.5657C68.7106 197.229 68.9535 196.928 69.2944 196.706C69.6353 196.482 70.0486 196.369 70.5344 196.369C70.989 196.369 71.3853 196.469 71.7233 196.668C72.0614 196.866 72.3242 197.151 72.5117 197.52C72.6992 197.886 72.7929 198.324 72.7929 198.832V203H70.9776V199.156C70.9804 198.756 70.8782 198.443 70.6708 198.219C70.4634 197.991 70.1779 197.878 69.8143 197.878C69.5699 197.878 69.354 197.93 69.1665 198.036C68.9819 198.141 68.837 198.294 68.7319 198.496C68.6296 198.695 68.577 198.935 68.5742 199.216ZM77.5732 196.455V197.818H73.6315V196.455H77.5732ZM74.5264 194.886H76.3417V200.989C76.3417 201.156 76.3673 201.287 76.4184 201.381C76.4695 201.472 76.5406 201.536 76.6315 201.572C76.7252 201.609 76.8332 201.628 76.9553 201.628C77.0406 201.628 77.1258 201.621 77.211 201.607C77.2962 201.589 77.3616 201.577 77.407 201.568L77.6925 202.919C77.6016 202.947 77.4738 202.98 77.309 203.017C77.1443 203.057 76.944 203.081 76.7082 203.089C76.2707 203.107 75.8872 203.048 75.5576 202.915C75.2309 202.781 74.9766 202.574 74.7948 202.293C74.613 202.011 74.5235 201.656 74.5264 201.227V194.886Z"
        fill="#363636" />
    <rect x="368" y="150" width="144" height="80" rx="15" stroke="#EF5D13" stroke-width="2" />
    <path
        d="M392.537 176.273V185H390.691V176.273H392.537ZM395.704 181.216V185H393.889V178.455H395.619V179.609H395.695C395.84 179.229 396.083 178.928 396.424 178.706C396.765 178.482 397.178 178.369 397.664 178.369C398.119 178.369 398.515 178.469 398.853 178.668C399.191 178.866 399.454 179.151 399.642 179.52C399.829 179.886 399.923 180.324 399.923 180.832V185H398.107V181.156C398.11 180.756 398.008 180.443 397.801 180.219C397.593 179.991 397.308 179.878 396.944 179.878C396.7 179.878 396.484 179.93 396.296 180.036C396.112 180.141 395.967 180.294 395.862 180.496C395.759 180.695 395.707 180.935 395.704 181.216ZM406.668 180.321L405.006 180.423C404.977 180.281 404.916 180.153 404.822 180.04C404.729 179.923 404.605 179.831 404.452 179.763C404.301 179.692 404.121 179.656 403.91 179.656C403.629 179.656 403.392 179.716 403.199 179.835C403.006 179.952 402.909 180.108 402.909 180.304C402.909 180.46 402.972 180.592 403.097 180.7C403.222 180.808 403.436 180.895 403.74 180.96L404.925 181.199C405.561 181.33 406.035 181.54 406.348 181.83C406.66 182.119 406.817 182.5 406.817 182.972C406.817 183.401 406.69 183.777 406.437 184.101C406.187 184.425 405.844 184.678 405.406 184.859C404.972 185.038 404.47 185.128 403.902 185.128C403.035 185.128 402.345 184.947 401.831 184.587C401.32 184.223 401.02 183.729 400.932 183.104L402.717 183.01C402.771 183.274 402.902 183.476 403.109 183.615C403.317 183.751 403.582 183.82 403.906 183.82C404.224 183.82 404.48 183.759 404.673 183.636C404.869 183.511 404.969 183.351 404.972 183.155C404.969 182.99 404.899 182.855 404.763 182.75C404.626 182.642 404.416 182.56 404.132 182.503L402.998 182.277C402.359 182.149 401.883 181.928 401.571 181.612C401.261 181.297 401.106 180.895 401.106 180.406C401.106 179.986 401.22 179.624 401.447 179.32C401.677 179.016 402 178.781 402.415 178.616C402.832 178.452 403.321 178.369 403.881 178.369C404.707 178.369 405.358 178.544 405.832 178.893C406.31 179.243 406.588 179.719 406.668 180.321ZM411.309 178.455V179.818H407.368V178.455H411.309ZM408.262 176.886H410.078V182.989C410.078 183.156 410.103 183.287 410.154 183.381C410.206 183.472 410.277 183.536 410.368 183.572C410.461 183.609 410.569 183.628 410.691 183.628C410.777 183.628 410.862 183.621 410.947 183.607C411.032 183.589 411.098 183.577 411.143 183.568L411.429 184.919C411.338 184.947 411.21 184.98 411.045 185.017C410.88 185.057 410.68 185.081 410.444 185.089C410.007 185.107 409.623 185.048 409.294 184.915C408.967 184.781 408.713 184.574 408.531 184.293C408.349 184.011 408.26 183.656 408.262 183.227V176.886ZM414.226 185.124C413.809 185.124 413.437 185.051 413.11 184.906C412.783 184.759 412.525 184.541 412.334 184.254C412.147 183.964 412.053 183.604 412.053 183.172C412.053 182.808 412.12 182.503 412.253 182.256C412.387 182.009 412.569 181.81 412.799 181.659C413.029 181.509 413.29 181.395 413.583 181.318C413.878 181.241 414.188 181.188 414.512 181.156C414.893 181.116 415.199 181.08 415.432 181.045C415.665 181.009 415.834 180.955 415.939 180.884C416.045 180.812 416.097 180.707 416.097 180.568V180.543C416.097 180.273 416.012 180.064 415.841 179.916C415.674 179.768 415.435 179.695 415.125 179.695C414.799 179.695 414.539 179.767 414.346 179.912C414.152 180.054 414.025 180.233 413.962 180.449L412.283 180.312C412.368 179.915 412.536 179.571 412.786 179.281C413.036 178.989 413.358 178.764 413.753 178.608C414.151 178.449 414.611 178.369 415.134 178.369C415.498 178.369 415.846 178.412 416.178 178.497C416.513 178.582 416.81 178.714 417.069 178.893C417.33 179.072 417.536 179.303 417.687 179.584C417.837 179.862 417.912 180.196 417.912 180.585V185H416.191V184.092H416.14C416.035 184.297 415.894 184.477 415.718 184.634C415.542 184.787 415.33 184.908 415.083 184.996C414.836 185.081 414.55 185.124 414.226 185.124ZM414.746 183.871C415.013 183.871 415.249 183.818 415.454 183.713C415.658 183.605 415.819 183.46 415.935 183.278C416.052 183.097 416.11 182.891 416.11 182.661V181.966C416.053 182.003 415.975 182.037 415.875 182.068C415.779 182.097 415.67 182.124 415.547 182.149C415.425 182.172 415.303 182.193 415.181 182.213C415.059 182.23 414.948 182.246 414.848 182.26C414.635 182.291 414.449 182.341 414.29 182.409C414.131 182.477 414.008 182.57 413.92 182.686C413.831 182.8 413.787 182.942 413.787 183.112C413.787 183.359 413.877 183.548 414.056 183.679C414.238 183.807 414.468 183.871 414.746 183.871ZM421.004 181.216V185H419.189V178.455H420.919V179.609H420.996C421.14 179.229 421.383 178.928 421.724 178.706C422.065 178.482 422.479 178.369 422.964 178.369C423.419 178.369 423.815 178.469 424.153 178.668C424.491 178.866 424.754 179.151 424.942 179.52C425.129 179.886 425.223 180.324 425.223 180.832V185H423.408V181.156C423.41 180.756 423.308 180.443 423.101 180.219C422.893 179.991 422.608 179.878 422.244 179.878C422 179.878 421.784 179.93 421.596 180.036C421.412 180.141 421.267 180.294 421.162 180.496C421.06 180.695 421.007 180.935 421.004 181.216ZM430.003 178.455V179.818H426.061V178.455H430.003ZM426.956 176.886H428.772V182.989C428.772 183.156 428.797 183.287 428.848 183.381C428.899 183.472 428.97 183.536 429.061 183.572C429.155 183.609 429.263 183.628 429.385 183.628C429.47 183.628 429.556 183.621 429.641 183.607C429.726 183.589 429.792 183.577 429.837 183.568L430.122 184.919C430.032 184.947 429.904 184.98 429.739 185.017C429.574 185.057 429.374 185.081 429.138 185.089C428.701 185.107 428.317 185.048 427.988 184.915C427.661 184.781 427.407 184.574 427.225 184.293C427.043 184.011 426.953 183.656 426.956 183.227V176.886ZM436.682 185.128C436.009 185.128 435.429 184.991 434.943 184.719C434.46 184.443 434.088 184.054 433.827 183.551C433.566 183.045 433.435 182.447 433.435 181.757C433.435 181.084 433.566 180.493 433.827 179.984C434.088 179.476 434.456 179.08 434.931 178.795C435.408 178.511 435.968 178.369 436.61 178.369C437.041 178.369 437.443 178.439 437.816 178.578C438.191 178.714 438.517 178.92 438.796 179.196C439.077 179.472 439.296 179.818 439.452 180.236C439.608 180.651 439.686 181.136 439.686 181.693V182.192H434.159V181.067H437.977C437.977 180.805 437.921 180.574 437.807 180.372C437.693 180.17 437.536 180.013 437.334 179.899C437.135 179.783 436.904 179.724 436.639 179.724C436.364 179.724 436.119 179.788 435.906 179.916C435.696 180.041 435.531 180.21 435.412 180.423C435.293 180.634 435.232 180.868 435.229 181.126V182.196C435.229 182.52 435.289 182.8 435.408 183.036C435.53 183.271 435.702 183.453 435.923 183.581C436.145 183.709 436.408 183.773 436.712 183.773C436.914 183.773 437.098 183.744 437.266 183.688C437.433 183.631 437.577 183.545 437.696 183.432C437.816 183.318 437.906 183.179 437.969 183.014L439.648 183.125C439.563 183.528 439.388 183.881 439.124 184.182C438.862 184.48 438.524 184.713 438.11 184.881C437.698 185.045 437.222 185.128 436.682 185.128ZM442.139 178.455L443.34 180.743L444.572 178.455H446.434L444.538 181.727L446.485 185H444.632L443.34 182.737L442.071 185H440.196L442.139 181.727L440.264 178.455H442.139ZM450.129 185.128C449.456 185.128 448.876 184.991 448.39 184.719C447.907 184.443 447.535 184.054 447.274 183.551C447.012 183.045 446.882 182.447 446.882 181.757C446.882 181.084 447.012 180.493 447.274 179.984C447.535 179.476 447.903 179.08 448.378 178.795C448.855 178.511 449.414 178.369 450.056 178.369C450.488 178.369 450.89 178.439 451.262 178.578C451.637 178.714 451.964 178.92 452.243 179.196C452.524 179.472 452.743 179.818 452.899 180.236C453.055 180.651 453.133 181.136 453.133 181.693V182.192H447.606V181.067H451.424C451.424 180.805 451.368 180.574 451.254 180.372C451.14 180.17 450.983 180.013 450.781 179.899C450.582 179.783 450.351 179.724 450.086 179.724C449.811 179.724 449.566 179.788 449.353 179.916C449.143 180.041 448.978 180.21 448.859 180.423C448.74 180.634 448.679 180.868 448.676 181.126V182.196C448.676 182.52 448.735 182.8 448.855 183.036C448.977 183.271 449.149 183.453 449.37 183.581C449.592 183.709 449.855 183.773 450.159 183.773C450.36 183.773 450.545 183.744 450.713 183.688C450.88 183.631 451.024 183.545 451.143 183.432C451.262 183.318 451.353 183.179 451.416 183.014L453.095 183.125C453.01 183.528 452.835 183.881 452.571 184.182C452.309 184.48 451.971 184.713 451.556 184.881C451.145 185.045 450.669 185.128 450.129 185.128ZM457.143 185.128C456.473 185.128 455.896 184.986 455.413 184.702C454.933 184.415 454.564 184.017 454.305 183.509C454.049 183 453.922 182.415 453.922 181.753C453.922 181.082 454.051 180.494 454.309 179.989C454.571 179.48 454.942 179.084 455.422 178.8C455.902 178.513 456.473 178.369 457.135 178.369C457.706 178.369 458.206 178.473 458.635 178.68C459.064 178.888 459.403 179.179 459.653 179.554C459.903 179.929 460.041 180.369 460.067 180.875H458.353C458.305 180.548 458.177 180.286 457.97 180.087C457.765 179.885 457.497 179.784 457.165 179.784C456.883 179.784 456.638 179.861 456.427 180.014C456.22 180.165 456.058 180.385 455.942 180.675C455.825 180.964 455.767 181.315 455.767 181.727C455.767 182.145 455.824 182.5 455.937 182.793C456.054 183.085 456.217 183.308 456.427 183.462C456.638 183.615 456.883 183.692 457.165 183.692C457.372 183.692 457.558 183.649 457.723 183.564C457.89 183.479 458.028 183.355 458.136 183.193C458.247 183.028 458.319 182.831 458.353 182.601H460.067C460.038 183.101 459.902 183.541 459.657 183.922C459.416 184.3 459.082 184.595 458.656 184.808C458.23 185.021 457.726 185.128 457.143 185.128ZM465.294 182.213V178.455H467.11V185H465.367V183.811H465.299C465.151 184.195 464.905 184.503 464.561 184.736C464.22 184.969 463.804 185.085 463.313 185.085C462.875 185.085 462.49 184.986 462.158 184.787C461.826 184.588 461.566 184.305 461.378 183.939C461.193 183.572 461.1 183.134 461.097 182.622V178.455H462.912V182.298C462.915 182.685 463.019 182.99 463.223 183.214C463.428 183.439 463.702 183.551 464.046 183.551C464.264 183.551 464.469 183.501 464.659 183.402C464.85 183.3 465.003 183.149 465.12 182.95C465.239 182.751 465.297 182.506 465.294 182.213ZM471.911 178.455V179.818H467.969V178.455H471.911ZM468.864 176.886H470.68V182.989C470.68 183.156 470.705 183.287 470.756 183.381C470.808 183.472 470.879 183.536 470.969 183.572C471.063 183.609 471.171 183.628 471.293 183.628C471.379 183.628 471.464 183.621 471.549 183.607C471.634 183.589 471.7 183.577 471.745 183.568L472.031 184.919C471.94 184.947 471.812 184.98 471.647 185.017C471.482 185.057 471.282 185.081 471.046 185.089C470.609 185.107 470.225 185.048 469.896 184.915C469.569 184.781 469.315 184.574 469.133 184.293C468.951 184.011 468.861 183.656 468.864 183.227V176.886ZM472.962 185V178.455H474.777V185H472.962ZM473.874 177.611C473.604 177.611 473.372 177.521 473.179 177.342C472.989 177.161 472.894 176.943 472.894 176.69C472.894 176.44 472.989 176.226 473.179 176.047C473.372 175.865 473.604 175.774 473.874 175.774C474.144 175.774 474.374 175.865 474.564 176.047C474.757 176.226 474.854 176.44 474.854 176.69C474.854 176.943 474.757 177.161 474.564 177.342C474.374 177.521 474.144 177.611 473.874 177.611ZM479.057 185.128C478.395 185.128 477.822 184.987 477.339 184.706C476.859 184.422 476.488 184.027 476.227 183.521C475.966 183.013 475.835 182.423 475.835 181.753C475.835 181.077 475.966 180.486 476.227 179.98C476.488 179.472 476.859 179.077 477.339 178.795C477.822 178.511 478.395 178.369 479.057 178.369C479.719 178.369 480.29 178.511 480.77 178.795C481.253 179.077 481.625 179.472 481.886 179.98C482.148 180.486 482.278 181.077 482.278 181.753C482.278 182.423 482.148 183.013 481.886 183.521C481.625 184.027 481.253 184.422 480.77 184.706C480.29 184.987 479.719 185.128 479.057 185.128ZM479.065 183.722C479.366 183.722 479.618 183.636 479.819 183.466C480.021 183.293 480.173 183.057 480.275 182.759C480.381 182.46 480.433 182.121 480.433 181.74C480.433 181.359 480.381 181.02 480.275 180.722C480.173 180.423 480.021 180.187 479.819 180.014C479.618 179.841 479.366 179.754 479.065 179.754C478.761 179.754 478.506 179.841 478.298 180.014C478.094 180.187 477.939 180.423 477.834 180.722C477.731 181.02 477.68 181.359 477.68 181.74C477.68 182.121 477.731 182.46 477.834 182.759C477.939 183.057 478.094 183.293 478.298 183.466C478.506 183.636 478.761 183.722 479.065 183.722ZM485.142 181.216V185H483.327V178.455H485.057V179.609H485.133C485.278 179.229 485.521 178.928 485.862 178.706C486.203 178.482 486.616 178.369 487.102 178.369C487.557 178.369 487.953 178.469 488.291 178.668C488.629 178.866 488.892 179.151 489.079 179.52C489.267 179.886 489.361 180.324 489.361 180.832V185H487.545V181.156C487.548 180.756 487.446 180.443 487.239 180.219C487.031 179.991 486.746 179.878 486.382 179.878C486.138 179.878 485.922 179.93 485.734 180.036C485.55 180.141 485.405 180.294 485.3 180.496C485.197 180.695 485.145 180.935 485.142 181.216ZM402.411 203.128C401.749 203.128 401.177 202.987 400.694 202.706C400.213 202.422 399.843 202.027 399.581 201.521C399.32 201.013 399.189 200.423 399.189 199.753C399.189 199.077 399.32 198.486 399.581 197.98C399.843 197.472 400.213 197.077 400.694 196.795C401.177 196.511 401.749 196.369 402.411 196.369C403.073 196.369 403.644 196.511 404.124 196.795C404.607 197.077 404.979 197.472 405.24 197.98C405.502 198.486 405.633 199.077 405.633 199.753C405.633 200.423 405.502 201.013 405.24 201.521C404.979 202.027 404.607 202.422 404.124 202.706C403.644 202.987 403.073 203.128 402.411 203.128ZM402.419 201.722C402.721 201.722 402.972 201.636 403.174 201.466C403.375 201.293 403.527 201.057 403.63 200.759C403.735 200.46 403.787 200.121 403.787 199.74C403.787 199.359 403.735 199.02 403.63 198.722C403.527 198.423 403.375 198.187 403.174 198.014C402.972 197.841 402.721 197.754 402.419 197.754C402.115 197.754 401.86 197.841 401.652 198.014C401.448 198.187 401.293 198.423 401.188 198.722C401.086 199.02 401.034 199.359 401.034 199.74C401.034 200.121 401.086 200.46 401.188 200.759C401.293 201.057 401.448 201.293 401.652 201.466C401.86 201.636 402.115 201.722 402.419 201.722ZM408.496 199.216V203H406.681V196.455H408.411V197.609H408.488C408.633 197.229 408.876 196.928 409.216 196.706C409.557 196.482 409.971 196.369 410.456 196.369C410.911 196.369 411.307 196.469 411.645 196.668C411.983 196.866 412.246 197.151 412.434 197.52C412.621 197.886 412.715 198.324 412.715 198.832V203H410.9V199.156C410.902 198.756 410.8 198.443 410.593 198.219C410.385 197.991 410.1 197.878 409.736 197.878C409.492 197.878 409.276 197.93 409.089 198.036C408.904 198.141 408.759 198.294 408.654 198.496C408.552 198.695 408.499 198.935 408.496 199.216ZM419.071 203.107C418.574 203.107 418.124 202.979 417.72 202.723C417.32 202.464 417.001 202.085 416.766 201.585C416.533 201.082 416.416 200.466 416.416 199.736C416.416 198.986 416.537 198.362 416.778 197.865C417.02 197.365 417.341 196.991 417.741 196.744C418.145 196.494 418.587 196.369 419.067 196.369C419.433 196.369 419.739 196.432 419.983 196.557C420.23 196.679 420.429 196.832 420.58 197.017C420.733 197.199 420.849 197.378 420.929 197.554H420.984V194.273H422.795V203H421.006V201.952H420.929C420.844 202.134 420.723 202.314 420.567 202.493C420.413 202.669 420.213 202.815 419.966 202.932C419.722 203.048 419.423 203.107 419.071 203.107ZM419.646 201.662C419.939 201.662 420.186 201.582 420.388 201.423C420.592 201.261 420.749 201.036 420.857 200.746C420.967 200.456 421.023 200.116 421.023 199.727C421.023 199.338 420.969 199 420.861 198.713C420.753 198.426 420.597 198.205 420.392 198.048C420.187 197.892 419.939 197.814 419.646 197.814C419.348 197.814 419.097 197.895 418.892 198.057C418.687 198.219 418.533 198.443 418.428 198.73C418.322 199.017 418.27 199.349 418.27 199.727C418.27 200.108 418.322 200.445 418.428 200.737C418.536 201.027 418.69 201.254 418.892 201.419C419.097 201.581 419.348 201.662 419.646 201.662ZM427.139 203.128C426.466 203.128 425.886 202.991 425.4 202.719C424.917 202.443 424.545 202.054 424.284 201.551C424.022 201.045 423.892 200.447 423.892 199.757C423.892 199.084 424.022 198.493 424.284 197.984C424.545 197.476 424.913 197.08 425.388 196.795C425.865 196.511 426.424 196.369 427.067 196.369C427.498 196.369 427.9 196.439 428.272 196.578C428.647 196.714 428.974 196.92 429.253 197.196C429.534 197.472 429.753 197.818 429.909 198.236C430.065 198.651 430.143 199.136 430.143 199.693V200.192H424.616V199.067H428.434C428.434 198.805 428.378 198.574 428.264 198.372C428.15 198.17 427.993 198.013 427.791 197.899C427.592 197.783 427.361 197.724 427.096 197.724C426.821 197.724 426.576 197.788 426.363 197.916C426.153 198.041 425.988 198.21 425.869 198.423C425.75 198.634 425.689 198.868 425.686 199.126V200.196C425.686 200.52 425.745 200.8 425.865 201.036C425.987 201.271 426.159 201.453 426.38 201.581C426.602 201.709 426.865 201.773 427.169 201.773C427.37 201.773 427.555 201.744 427.723 201.688C427.89 201.631 428.034 201.545 428.153 201.432C428.272 201.318 428.363 201.179 428.426 201.014L430.105 201.125C430.02 201.528 429.845 201.881 429.581 202.182C429.319 202.48 428.981 202.713 428.567 202.881C428.155 203.045 427.679 203.128 427.139 203.128ZM436.642 198.321L434.98 198.423C434.952 198.281 434.89 198.153 434.797 198.04C434.703 197.923 434.579 197.831 434.426 197.763C434.275 197.692 434.095 197.656 433.885 197.656C433.604 197.656 433.366 197.716 433.173 197.835C432.98 197.952 432.883 198.108 432.883 198.304C432.883 198.46 432.946 198.592 433.071 198.7C433.196 198.808 433.41 198.895 433.714 198.96L434.899 199.199C435.535 199.33 436.01 199.54 436.322 199.83C436.635 200.119 436.791 200.5 436.791 200.972C436.791 201.401 436.665 201.777 436.412 202.101C436.162 202.425 435.818 202.678 435.381 202.859C434.946 203.038 434.444 203.128 433.876 203.128C433.01 203.128 432.319 202.947 431.805 202.587C431.294 202.223 430.994 201.729 430.906 201.104L432.692 201.01C432.746 201.274 432.876 201.476 433.084 201.615C433.291 201.751 433.557 201.82 433.881 201.82C434.199 201.82 434.454 201.759 434.648 201.636C434.844 201.511 434.943 201.351 434.946 201.155C434.943 200.99 434.873 200.855 434.737 200.75C434.601 200.642 434.39 200.56 434.106 200.503L432.973 200.277C432.334 200.149 431.858 199.928 431.545 199.612C431.236 199.297 431.081 198.895 431.081 198.406C431.081 197.986 431.194 197.624 431.422 197.32C431.652 197.016 431.974 196.781 432.389 196.616C432.807 196.452 433.295 196.369 433.855 196.369C434.682 196.369 435.332 196.544 435.807 196.893C436.284 197.243 436.562 197.719 436.642 198.321ZM441.284 196.455V197.818H437.342V196.455H441.284ZM438.237 194.886H440.052V200.989C440.052 201.156 440.078 201.287 440.129 201.381C440.18 201.472 440.251 201.536 440.342 201.572C440.436 201.609 440.544 201.628 440.666 201.628C440.751 201.628 440.836 201.621 440.921 201.607C441.007 201.589 441.072 201.577 441.117 201.568L441.403 202.919C441.312 202.947 441.184 202.98 441.019 203.017C440.855 203.057 440.654 203.081 440.419 203.089C439.981 203.107 439.598 203.048 439.268 202.915C438.941 202.781 438.687 202.574 438.505 202.293C438.323 202.011 438.234 201.656 438.237 201.227V194.886ZM442.334 203V196.455H444.15V203H442.334ZM443.246 195.611C442.976 195.611 442.745 195.521 442.552 195.342C442.361 195.161 442.266 194.943 442.266 194.69C442.266 194.44 442.361 194.226 442.552 194.047C442.745 193.865 442.976 193.774 443.246 193.774C443.516 193.774 443.746 193.865 443.936 194.047C444.13 194.226 444.226 194.44 444.226 194.69C444.226 194.943 444.13 195.161 443.936 195.342C443.746 195.521 443.516 195.611 443.246 195.611ZM447.287 199.216V203H445.472V196.455H447.202V197.609H447.279C447.423 197.229 447.666 196.928 448.007 196.706C448.348 196.482 448.762 196.369 449.247 196.369C449.702 196.369 450.098 196.469 450.436 196.668C450.774 196.866 451.037 197.151 451.225 197.52C451.412 197.886 451.506 198.324 451.506 198.832V203H449.69V199.156C449.693 198.756 449.591 198.443 449.384 198.219C449.176 197.991 448.891 197.878 448.527 197.878C448.283 197.878 448.067 197.93 447.879 198.036C447.695 198.141 447.55 198.294 447.445 198.496C447.342 198.695 447.29 198.935 447.287 199.216ZM454.671 203.124C454.253 203.124 453.881 203.051 453.555 202.906C453.228 202.759 452.969 202.541 452.779 202.254C452.592 201.964 452.498 201.604 452.498 201.172C452.498 200.808 452.565 200.503 452.698 200.256C452.832 200.009 453.013 199.81 453.244 199.659C453.474 199.509 453.735 199.395 454.028 199.318C454.323 199.241 454.633 199.188 454.957 199.156C455.337 199.116 455.644 199.08 455.877 199.045C456.11 199.009 456.279 198.955 456.384 198.884C456.489 198.812 456.542 198.707 456.542 198.568V198.543C456.542 198.273 456.457 198.064 456.286 197.916C456.119 197.768 455.88 197.695 455.57 197.695C455.244 197.695 454.984 197.767 454.79 197.912C454.597 198.054 454.469 198.233 454.407 198.449L452.728 198.312C452.813 197.915 452.981 197.571 453.231 197.281C453.481 196.989 453.803 196.764 454.198 196.608C454.596 196.449 455.056 196.369 455.579 196.369C455.942 196.369 456.29 196.412 456.623 196.497C456.958 196.582 457.255 196.714 457.513 196.893C457.775 197.072 457.981 197.303 458.131 197.584C458.282 197.862 458.357 198.196 458.357 198.585V203H456.636V202.092H456.584C456.479 202.297 456.339 202.477 456.163 202.634C455.986 202.787 455.775 202.908 455.528 202.996C455.28 203.081 454.995 203.124 454.671 203.124ZM455.191 201.871C455.458 201.871 455.694 201.818 455.898 201.713C456.103 201.605 456.263 201.46 456.38 201.278C456.496 201.097 456.555 200.891 456.555 200.661V199.966C456.498 200.003 456.42 200.037 456.32 200.068C456.224 200.097 456.114 200.124 455.992 200.149C455.87 200.172 455.748 200.193 455.626 200.213C455.503 200.23 455.393 200.246 455.293 200.26C455.08 200.291 454.894 200.341 454.735 200.409C454.576 200.477 454.452 200.57 454.364 200.686C454.276 200.8 454.232 200.942 454.232 201.112C454.232 201.359 454.322 201.548 454.501 201.679C454.682 201.807 454.913 201.871 455.191 201.871ZM463.115 196.455V197.818H459.173V196.455H463.115ZM460.068 194.886H461.884V200.989C461.884 201.156 461.909 201.287 461.96 201.381C462.011 201.472 462.082 201.536 462.173 201.572C462.267 201.609 462.375 201.628 462.497 201.628C462.582 201.628 462.668 201.621 462.753 201.607C462.838 201.589 462.903 201.577 462.949 201.568L463.234 202.919C463.143 202.947 463.016 202.98 462.851 203.017C462.686 203.057 462.486 203.081 462.25 203.089C461.813 203.107 461.429 203.048 461.099 202.915C460.773 202.781 460.518 202.574 460.337 202.293C460.155 202.011 460.065 201.656 460.068 201.227V194.886ZM464.166 203V196.455H465.981V203H464.166ZM465.078 195.611C464.808 195.611 464.576 195.521 464.383 195.342C464.193 195.161 464.097 194.943 464.097 194.69C464.097 194.44 464.193 194.226 464.383 194.047C464.576 193.865 464.808 193.774 465.078 193.774C465.347 193.774 465.578 193.865 465.768 194.047C465.961 194.226 466.058 194.44 466.058 194.69C466.058 194.943 465.961 195.161 465.768 195.342C465.578 195.521 465.347 195.611 465.078 195.611ZM470.261 203.128C469.599 203.128 469.026 202.987 468.543 202.706C468.063 202.422 467.692 202.027 467.431 201.521C467.17 201.013 467.039 200.423 467.039 199.753C467.039 199.077 467.17 198.486 467.431 197.98C467.692 197.472 468.063 197.077 468.543 196.795C469.026 196.511 469.599 196.369 470.261 196.369C470.922 196.369 471.493 196.511 471.974 196.795C472.457 197.077 472.829 197.472 473.09 197.98C473.351 198.486 473.482 199.077 473.482 199.753C473.482 200.423 473.351 201.013 473.09 201.521C472.829 202.027 472.457 202.422 471.974 202.706C471.493 202.987 470.922 203.128 470.261 203.128ZM470.269 201.722C470.57 201.722 470.822 201.636 471.023 201.466C471.225 201.293 471.377 201.057 471.479 200.759C471.584 200.46 471.637 200.121 471.637 199.74C471.637 199.359 471.584 199.02 471.479 198.722C471.377 198.423 471.225 198.187 471.023 198.014C470.822 197.841 470.57 197.754 470.269 197.754C469.965 197.754 469.709 197.841 469.502 198.014C469.297 198.187 469.143 198.423 469.037 198.722C468.935 199.02 468.884 199.359 468.884 199.74C468.884 200.121 468.935 200.46 469.037 200.759C469.143 201.057 469.297 201.293 469.502 201.466C469.709 201.636 469.965 201.722 470.269 201.722ZM476.346 199.216V203H474.53V196.455H476.261V197.609H476.337C476.482 197.229 476.725 196.928 477.066 196.706C477.407 196.482 477.82 196.369 478.306 196.369C478.761 196.369 479.157 196.469 479.495 196.668C479.833 196.866 480.096 197.151 480.283 197.52C480.471 197.886 480.565 198.324 480.565 198.832V203H478.749V199.156C478.752 198.756 478.65 198.443 478.442 198.219C478.235 197.991 477.95 197.878 477.586 197.878C477.342 197.878 477.126 197.93 476.938 198.036C476.754 198.141 476.609 198.294 476.504 198.496C476.401 198.695 476.349 198.935 476.346 199.216Z"
        fill="#363636" />
    <rect x="17" y="311" width="88" height="48" rx="15" fill="#E6E6E6" stroke="#C2C2C2" stroke-width="2" />
    <path
        d="M46.8743 333.328H45.0079C44.9738 333.087 44.9042 332.872 44.7991 332.685C44.6939 332.494 44.559 332.332 44.3942 332.199C44.2295 332.065 44.0391 331.963 43.8232 331.892C43.6101 331.821 43.3786 331.786 43.1286 331.786C42.6769 331.786 42.2834 331.898 41.9482 332.122C41.613 332.344 41.353 332.668 41.1684 333.094C40.9837 333.517 40.8914 334.031 40.8914 334.636C40.8914 335.259 40.9837 335.781 41.1684 336.205C41.3559 336.628 41.6172 336.947 41.9525 337.163C42.2877 337.379 42.6755 337.487 43.1158 337.487C43.363 337.487 43.5917 337.455 43.8019 337.389C44.015 337.324 44.2039 337.229 44.3687 337.104C44.5334 336.976 44.6698 336.821 44.7777 336.639C44.8885 336.457 44.9652 336.25 45.0079 336.017L46.8743 336.026C46.826 336.426 46.7053 336.812 46.5121 337.185C46.3218 337.554 46.0647 337.885 45.7408 338.178C45.4198 338.467 45.0363 338.697 44.5902 338.868C44.1471 339.036 43.6456 339.119 43.086 339.119C42.3076 339.119 41.6116 338.943 40.9979 338.591C40.3871 338.239 39.9042 337.729 39.5491 337.061C39.1968 336.393 39.0206 335.585 39.0206 334.636C39.0206 333.685 39.1996 332.875 39.5576 332.207C39.9155 331.54 40.4013 331.031 41.015 330.682C41.6286 330.33 42.3189 330.153 43.086 330.153C43.5917 330.153 44.0604 330.224 44.4922 330.366C44.9269 330.509 45.3118 330.716 45.6471 330.989C45.9823 331.259 46.255 331.589 46.4652 331.982C46.6783 332.374 46.8147 332.822 46.8743 333.328ZM49.8467 335.216V339H48.0314V330.273H49.7956V333.609H49.8723C50.02 333.223 50.2587 332.92 50.5882 332.702C50.9178 332.48 51.3311 332.369 51.8283 332.369C52.2828 332.369 52.6791 332.469 53.0172 332.668C53.3581 332.864 53.6223 333.146 53.8098 333.516C54.0002 333.882 54.0939 334.321 54.0911 334.832V339H52.2757V335.156C52.2786 334.753 52.1763 334.439 51.9689 334.214C51.7644 333.99 51.4774 333.878 51.1081 333.878C50.8609 333.878 50.6422 333.93 50.4519 334.036C50.2644 334.141 50.1166 334.294 50.0087 334.496C49.9036 334.695 49.8496 334.935 49.8467 335.216ZM57.2542 339.124C56.8365 339.124 56.4644 339.051 56.1377 338.906C55.811 338.759 55.5525 338.541 55.3621 338.254C55.1746 337.964 55.0809 337.604 55.0809 337.172C55.0809 336.808 55.1476 336.503 55.2811 336.256C55.4147 336.009 55.5965 335.81 55.8266 335.659C56.0567 335.509 56.3181 335.395 56.6107 335.318C56.9061 335.241 57.2158 335.188 57.5397 335.156C57.9204 335.116 58.2272 335.08 58.4601 335.045C58.6931 335.009 58.8621 334.955 58.9672 334.884C59.0723 334.812 59.1249 334.707 59.1249 334.568V334.543C59.1249 334.273 59.0397 334.064 58.8692 333.916C58.7016 333.768 58.463 333.695 58.1533 333.695C57.8266 333.695 57.5667 333.767 57.3735 333.912C57.1803 334.054 57.0525 334.233 56.99 334.449L55.311 334.312C55.3962 333.915 55.5638 333.571 55.8138 333.281C56.0638 332.989 56.3863 332.764 56.7811 332.608C57.1789 332.449 57.6391 332.369 58.1618 332.369C58.5255 332.369 58.8735 332.412 59.2059 332.497C59.5411 332.582 59.838 332.714 60.0965 332.893C60.3579 333.072 60.5638 333.303 60.7144 333.584C60.865 333.862 60.9402 334.196 60.9402 334.585V339H59.2186V338.092H59.1675C59.0624 338.297 58.9218 338.477 58.7456 338.634C58.5695 338.787 58.3579 338.908 58.1107 338.996C57.8635 339.081 57.578 339.124 57.2542 339.124ZM57.774 337.871C58.0411 337.871 58.2769 337.818 58.4814 337.713C58.686 337.605 58.8465 337.46 58.963 337.278C59.0794 337.097 59.1377 336.891 59.1377 336.661V335.966C59.0809 336.003 59.0027 336.037 58.9033 336.068C58.8067 336.097 58.6973 336.124 58.5752 336.149C58.453 336.172 58.3309 336.193 58.2087 336.213C58.0865 336.23 57.9757 336.246 57.8763 336.26C57.6633 336.291 57.4772 336.341 57.3181 336.409C57.159 336.477 57.0354 336.57 56.9473 336.686C56.8593 336.8 56.8152 336.942 56.8152 337.112C56.8152 337.359 56.9047 337.548 57.0837 337.679C57.2655 337.807 57.4956 337.871 57.774 337.871ZM62.2166 339V332.455H64.032V339H62.2166ZM63.1286 331.611C62.8587 331.611 62.6271 331.521 62.4339 331.342C62.2436 331.161 62.1484 330.943 62.1484 330.69C62.1484 330.44 62.2436 330.226 62.4339 330.047C62.6271 329.865 62.8587 329.774 63.1286 329.774C63.3984 329.774 63.6286 329.865 63.8189 330.047C64.0121 330.226 64.1087 330.44 64.1087 330.69C64.1087 330.943 64.0121 331.161 63.8189 331.342C63.6286 331.521 63.3984 331.611 63.1286 331.611ZM67.1695 335.216V339H65.3542V332.455H67.0843V333.609H67.161C67.3059 333.229 67.5488 332.928 67.8897 332.706C68.2306 332.482 68.6439 332.369 69.1297 332.369C69.5843 332.369 69.9806 332.469 70.3186 332.668C70.6567 332.866 70.9195 333.151 71.107 333.52C71.2945 333.886 71.3882 334.324 71.3882 334.832V339H69.5729V335.156C69.5757 334.756 69.4735 334.443 69.2661 334.219C69.0587 333.991 68.7732 333.878 68.4095 333.878C68.1652 333.878 67.9493 333.93 67.7618 334.036C67.5772 334.141 67.4323 334.294 67.3272 334.496C67.2249 334.695 67.1723 334.935 67.1695 335.216ZM76.8707 339H74.8934L77.9062 330.273H80.284L83.2926 339H81.3153L79.1292 332.267H79.061L76.8707 339ZM76.7471 335.57H81.4176V337.01H76.7471V335.57Z"
        fill="#363636" />
    <rect x="188" y="311" width="125" height="48" rx="15" fill="#E6E6E6" stroke="#C2C2C2" stroke-width="2" />
    <path
        d="M208.281 339H206.304L209.316 330.273H211.694L214.703 339H212.726L210.539 332.267H210.471L208.281 339ZM208.157 335.57H212.828V337.01H208.157V335.57ZM217.104 332.455L218.306 334.743L219.537 332.455H221.4L219.503 335.727L221.451 339H219.597L218.306 336.737L217.036 339H215.161L217.104 335.727L215.229 332.455H217.104ZM225.094 339.128C224.421 339.128 223.842 338.991 223.356 338.719C222.873 338.443 222.501 338.054 222.239 337.551C221.978 337.045 221.847 336.447 221.847 335.757C221.847 335.084 221.978 334.493 222.239 333.984C222.501 333.476 222.869 333.08 223.343 332.795C223.82 332.511 224.38 332.369 225.022 332.369C225.454 332.369 225.856 332.439 226.228 332.578C226.603 332.714 226.93 332.92 227.208 333.196C227.489 333.472 227.708 333.818 227.864 334.236C228.02 334.651 228.099 335.136 228.099 335.693V336.192H222.572V335.067H226.39C226.39 334.805 226.333 334.574 226.219 334.372C226.106 334.17 225.948 334.013 225.746 333.899C225.547 333.783 225.316 333.724 225.052 333.724C224.776 333.724 224.532 333.788 224.319 333.916C224.109 334.041 223.944 334.21 223.824 334.423C223.705 334.634 223.644 334.868 223.641 335.126V336.196C223.641 336.52 223.701 336.8 223.82 337.036C223.942 337.271 224.114 337.453 224.336 337.581C224.557 337.709 224.82 337.773 225.124 337.773C225.326 337.773 225.511 337.744 225.678 337.688C225.846 337.631 225.989 337.545 226.109 337.432C226.228 337.318 226.319 337.179 226.381 337.014L228.06 337.125C227.975 337.528 227.8 337.881 227.536 338.182C227.275 338.48 226.937 338.713 226.522 338.881C226.11 339.045 225.634 339.128 225.094 339.128ZM230.967 330.273V339H229.151V330.273H230.967ZM234.155 339.124C233.738 339.124 233.366 339.051 233.039 338.906C232.712 338.759 232.454 338.541 232.263 338.254C232.076 337.964 231.982 337.604 231.982 337.172C231.982 336.808 232.049 336.503 232.182 336.256C232.316 336.009 232.498 335.81 232.728 335.659C232.958 335.509 233.219 335.395 233.512 335.318C233.807 335.241 234.117 335.188 234.441 335.156C234.821 335.116 235.128 335.08 235.361 335.045C235.594 335.009 235.763 334.955 235.868 334.884C235.973 334.812 236.026 334.707 236.026 334.568V334.543C236.026 334.273 235.941 334.064 235.77 333.916C235.603 333.768 235.364 333.695 235.054 333.695C234.728 333.695 234.468 333.767 234.275 333.912C234.081 334.054 233.954 334.233 233.891 334.449L232.212 334.312C232.297 333.915 232.465 333.571 232.715 333.281C232.965 332.989 233.287 332.764 233.682 332.608C234.08 332.449 234.54 332.369 235.063 332.369C235.427 332.369 235.775 332.412 236.107 332.497C236.442 332.582 236.739 332.714 236.998 332.893C237.259 333.072 237.465 333.303 237.616 333.584C237.766 333.862 237.841 334.196 237.841 334.585V339H236.12V338.092H236.069C235.964 338.297 235.823 338.477 235.647 338.634C235.471 338.787 235.259 338.908 235.012 338.996C234.765 339.081 234.479 339.124 234.155 339.124ZM234.675 337.871C234.942 337.871 235.178 337.818 235.383 337.713C235.587 337.605 235.748 337.46 235.864 337.278C235.981 337.097 236.039 336.891 236.039 336.661V335.966C235.982 336.003 235.904 336.037 235.804 336.068C235.708 336.097 235.598 336.124 235.476 336.149C235.354 336.172 235.232 336.193 235.11 336.213C234.988 336.23 234.877 336.246 234.777 336.26C234.564 336.291 234.378 336.341 234.219 336.409C234.06 336.477 233.937 336.57 233.848 336.686C233.76 336.8 233.716 336.942 233.716 337.112C233.716 337.359 233.806 337.548 233.985 337.679C234.167 337.807 234.397 337.871 234.675 337.871ZM239.118 339V332.455H240.878V333.597H240.946C241.065 333.19 241.265 332.884 241.547 332.676C241.828 332.466 242.152 332.361 242.518 332.361C242.609 332.361 242.707 332.366 242.812 332.378C242.917 332.389 243.01 332.405 243.089 332.425V334.036C243.004 334.01 242.886 333.987 242.736 333.967C242.585 333.947 242.447 333.938 242.322 333.938C242.055 333.938 241.817 333.996 241.606 334.112C241.399 334.226 241.234 334.385 241.112 334.589C240.993 334.794 240.933 335.03 240.933 335.297V339H239.118ZM253.875 330.273V339H252.281L248.484 333.507H248.421V339H246.575V330.273H248.195L251.962 335.761H252.038V330.273H253.875ZM258.216 339.128C257.543 339.128 256.964 338.991 256.478 338.719C255.995 338.443 255.623 338.054 255.361 337.551C255.1 337.045 254.969 336.447 254.969 335.757C254.969 335.084 255.1 334.493 255.361 333.984C255.623 333.476 255.991 333.08 256.465 332.795C256.942 332.511 257.502 332.369 258.144 332.369C258.576 332.369 258.978 332.439 259.35 332.578C259.725 332.714 260.052 332.92 260.33 333.196C260.611 333.472 260.83 333.818 260.986 334.236C261.143 334.651 261.221 335.136 261.221 335.693V336.192H255.694V335.067H259.512C259.512 334.805 259.455 334.574 259.341 334.372C259.228 334.17 259.07 334.013 258.868 333.899C258.67 333.783 258.438 333.724 258.174 333.724C257.898 333.724 257.654 333.788 257.441 333.916C257.231 334.041 257.066 334.21 256.947 334.423C256.827 334.634 256.766 334.868 256.763 335.126V336.196C256.763 336.52 256.823 336.8 256.942 337.036C257.064 337.271 257.236 337.453 257.458 337.581C257.679 337.709 257.942 337.773 258.246 337.773C258.448 337.773 258.633 337.744 258.8 337.688C258.968 337.631 259.111 337.545 259.231 337.432C259.35 337.318 259.441 337.179 259.503 337.014L261.182 337.125C261.097 337.528 260.922 337.881 260.658 338.182C260.397 338.48 260.059 338.713 259.644 338.881C259.232 339.045 258.756 339.128 258.216 339.128ZM265.755 332.455V333.818H261.813V332.455H265.755ZM262.708 330.886H264.523V336.989C264.523 337.156 264.549 337.287 264.6 337.381C264.651 337.472 264.722 337.536 264.813 337.572C264.907 337.609 265.015 337.628 265.137 337.628C265.222 337.628 265.307 337.621 265.393 337.607C265.478 337.589 265.543 337.577 265.589 337.568L265.874 338.919C265.783 338.947 265.655 338.98 265.491 339.017C265.326 339.057 265.126 339.081 264.89 339.089C264.452 339.107 264.069 339.048 263.739 338.915C263.413 338.781 263.158 338.574 262.976 338.293C262.795 338.011 262.705 337.656 262.708 337.227V330.886ZM268.097 339L266.315 332.455H268.152L269.166 336.852H269.226L270.283 332.455H272.085L273.159 336.827H273.214L274.212 332.455H276.044L274.267 339H272.345L271.22 334.884H271.139L270.014 339H268.097ZM279.674 339.128C279.012 339.128 278.439 338.987 277.956 338.706C277.476 338.422 277.106 338.027 276.844 337.521C276.583 337.013 276.452 336.423 276.452 335.753C276.452 335.077 276.583 334.486 276.844 333.98C277.106 333.472 277.476 333.077 277.956 332.795C278.439 332.511 279.012 332.369 279.674 332.369C280.336 332.369 280.907 332.511 281.387 332.795C281.87 333.077 282.242 333.472 282.503 333.98C282.765 334.486 282.895 335.077 282.895 335.753C282.895 336.423 282.765 337.013 282.503 337.521C282.242 338.027 281.87 338.422 281.387 338.706C280.907 338.987 280.336 339.128 279.674 339.128ZM279.682 337.722C279.983 337.722 280.235 337.636 280.437 337.466C280.638 337.293 280.79 337.057 280.893 336.759C280.998 336.46 281.05 336.121 281.05 335.74C281.05 335.359 280.998 335.02 280.893 334.722C280.79 334.423 280.638 334.187 280.437 334.014C280.235 333.841 279.983 333.754 279.682 333.754C279.378 333.754 279.123 333.841 278.915 334.014C278.711 334.187 278.556 334.423 278.451 334.722C278.348 335.02 278.297 335.359 278.297 335.74C278.297 336.121 278.348 336.46 278.451 336.759C278.556 337.057 278.711 337.293 278.915 337.466C279.123 337.636 279.378 337.722 279.682 337.722ZM283.944 339V332.455H285.704V333.597H285.772C285.891 333.19 286.091 332.884 286.373 332.676C286.654 332.466 286.978 332.361 287.344 332.361C287.435 332.361 287.533 332.366 287.638 332.378C287.743 332.389 287.836 332.405 287.915 332.425V334.036C287.83 334.01 287.712 333.987 287.562 333.967C287.411 333.947 287.273 333.938 287.148 333.938C286.881 333.938 286.643 333.996 286.432 334.112C286.225 334.226 286.06 334.385 285.938 334.589C285.819 334.794 285.759 335.03 285.759 335.297V339H283.944ZM290.367 337.116L290.371 334.939H290.635L292.732 332.455H294.816L291.999 335.744H291.568L290.367 337.116ZM288.722 339V330.273H290.537V339H288.722ZM292.813 339L290.887 336.149L292.097 334.866L294.939 339H292.813Z"
        fill="#363636" />
    <rect x="396" y="311" width="88" height="48" rx="15" fill="#E6E6E6" stroke="#C2C2C2" stroke-width="2" />
    <path
        d="M426.396 333.328H424.529C424.495 333.087 424.426 332.872 424.321 332.685C424.215 332.494 424.08 332.332 423.916 332.199C423.751 332.065 423.561 331.963 423.345 331.892C423.132 331.821 422.9 331.786 422.65 331.786C422.198 331.786 421.805 331.898 421.47 332.122C421.134 332.344 420.875 332.668 420.69 333.094C420.505 333.517 420.413 334.031 420.413 334.636C420.413 335.259 420.505 335.781 420.69 336.205C420.877 336.628 421.139 336.947 421.474 337.163C421.809 337.379 422.197 337.487 422.637 337.487C422.884 337.487 423.113 337.455 423.323 337.389C423.536 337.324 423.725 337.229 423.89 337.104C424.055 336.976 424.191 336.821 424.299 336.639C424.41 336.457 424.487 336.25 424.529 336.017L426.396 336.026C426.348 336.426 426.227 336.812 426.034 337.185C425.843 337.554 425.586 337.885 425.262 338.178C424.941 338.467 424.558 338.697 424.112 338.868C423.669 339.036 423.167 339.119 422.607 339.119C421.829 339.119 421.133 338.943 420.519 338.591C419.909 338.239 419.426 337.729 419.071 337.061C418.718 336.393 418.542 335.585 418.542 334.636C418.542 333.685 418.721 332.875 419.079 332.207C419.437 331.54 419.923 331.031 420.536 330.682C421.15 330.33 421.84 330.153 422.607 330.153C423.113 330.153 423.582 330.224 424.014 330.366C424.448 330.509 424.833 330.716 425.169 330.989C425.504 331.259 425.777 331.589 425.987 331.982C426.2 332.374 426.336 332.822 426.396 333.328ZM429.368 335.216V339H427.553V330.273H429.317V333.609H429.394C429.542 333.223 429.78 332.92 430.11 332.702C430.439 332.48 430.853 332.369 431.35 332.369C431.804 332.369 432.201 332.469 432.539 332.668C432.88 332.864 433.144 333.146 433.331 333.516C433.522 333.882 433.615 334.321 433.613 334.832V339H431.797V335.156C431.8 334.753 431.698 334.439 431.49 334.214C431.286 333.99 430.999 333.878 430.63 333.878C430.382 333.878 430.164 333.93 429.973 334.036C429.786 334.141 429.638 334.294 429.53 334.496C429.425 334.695 429.371 334.935 429.368 335.216ZM436.776 339.124C436.358 339.124 435.986 339.051 435.659 338.906C435.332 338.759 435.074 338.541 434.884 338.254C434.696 337.964 434.602 337.604 434.602 337.172C434.602 336.808 434.669 336.503 434.803 336.256C434.936 336.009 435.118 335.81 435.348 335.659C435.578 335.509 435.84 335.395 436.132 335.318C436.428 335.241 436.737 335.188 437.061 335.156C437.442 335.116 437.749 335.08 437.982 335.045C438.215 335.009 438.384 334.955 438.489 334.884C438.594 334.812 438.646 334.707 438.646 334.568V334.543C438.646 334.273 438.561 334.064 438.391 333.916C438.223 333.768 437.984 333.695 437.675 333.695C437.348 333.695 437.088 333.767 436.895 333.912C436.702 334.054 436.574 334.233 436.511 334.449L434.832 334.312C434.918 333.915 435.085 333.571 435.335 333.281C435.585 332.989 435.908 332.764 436.303 332.608C436.7 332.449 437.161 332.369 437.683 332.369C438.047 332.369 438.395 332.412 438.727 332.497C439.063 332.582 439.359 332.714 439.618 332.893C439.879 333.072 440.085 333.303 440.236 333.584C440.386 333.862 440.462 334.196 440.462 334.585V339H438.74V338.092H438.689C438.584 338.297 438.443 338.477 438.267 338.634C438.091 338.787 437.879 338.908 437.632 338.996C437.385 339.081 437.1 339.124 436.776 339.124ZM437.296 337.871C437.563 337.871 437.798 337.818 438.003 337.713C438.207 337.605 438.368 337.46 438.484 337.278C438.601 337.097 438.659 336.891 438.659 336.661V335.966C438.602 336.003 438.524 336.037 438.425 336.068C438.328 336.097 438.219 336.124 438.097 336.149C437.975 336.172 437.852 336.193 437.73 336.213C437.608 336.23 437.497 336.246 437.398 336.26C437.185 336.291 436.999 336.341 436.84 336.409C436.68 336.477 436.557 336.57 436.469 336.686C436.381 336.8 436.337 336.942 436.337 337.112C436.337 337.359 436.426 337.548 436.605 337.679C436.787 337.807 437.017 337.871 437.296 337.871ZM441.738 339V332.455H443.553V339H441.738ZM442.65 331.611C442.38 331.611 442.149 331.521 441.955 331.342C441.765 331.161 441.67 330.943 441.67 330.69C441.67 330.44 441.765 330.226 441.955 330.047C442.149 329.865 442.38 329.774 442.65 329.774C442.92 329.774 443.15 329.865 443.34 330.047C443.534 330.226 443.63 330.44 443.63 330.69C443.63 330.943 443.534 331.161 443.34 331.342C443.15 331.521 442.92 331.611 442.65 331.611ZM446.691 335.216V339H444.876V332.455H446.606V333.609H446.682C446.827 333.229 447.07 332.928 447.411 332.706C447.752 332.482 448.165 332.369 448.651 332.369C449.106 332.369 449.502 332.469 449.84 332.668C450.178 332.866 450.441 333.151 450.628 333.52C450.816 333.886 450.91 334.324 450.91 334.832V339H449.094V335.156C449.097 334.756 448.995 334.443 448.788 334.219C448.58 333.991 448.295 333.878 447.931 333.878C447.687 333.878 447.471 333.93 447.283 334.036C447.099 334.141 446.954 334.294 446.849 334.496C446.746 334.695 446.694 334.935 446.691 335.216ZM454.888 339V330.273H458.382C459.024 330.273 459.56 330.368 459.989 330.558C460.418 330.749 460.74 331.013 460.956 331.351C461.172 331.686 461.28 332.072 461.28 332.51C461.28 332.851 461.212 333.151 461.075 333.409C460.939 333.665 460.752 333.875 460.513 334.04C460.277 334.202 460.007 334.317 459.703 334.385V334.47C460.036 334.484 460.347 334.578 460.636 334.751C460.929 334.925 461.166 335.168 461.348 335.48C461.53 335.79 461.621 336.159 461.621 336.588C461.621 337.051 461.506 337.464 461.276 337.828C461.048 338.189 460.712 338.474 460.266 338.685C459.82 338.895 459.27 339 458.617 339H454.888ZM456.733 337.491H458.237C458.752 337.491 459.127 337.393 459.362 337.197C459.598 336.999 459.716 336.734 459.716 336.405C459.716 336.163 459.658 335.95 459.541 335.766C459.425 335.581 459.259 335.436 459.043 335.331C458.83 335.226 458.575 335.173 458.28 335.173H456.733V337.491ZM456.733 333.925H458.101C458.354 333.925 458.578 333.881 458.774 333.793C458.973 333.702 459.129 333.574 459.243 333.409C459.36 333.244 459.418 333.047 459.418 332.817C459.418 332.501 459.306 332.247 459.081 332.054C458.86 331.861 458.544 331.764 458.135 331.764H456.733V333.925Z"
        fill="#363636" />
    <path d="M206 46H85C71.7452 46 61 56.7452 61 70V157" stroke="#B3B3B3" stroke-linecap="round" stroke-linejoin="bevel"
        stroke-dasharray="16 10" />
    <path
        d="M439.646 146.354C439.842 146.549 440.158 146.549 440.354 146.354L443.536 143.172C443.731 142.976 443.731 142.66 443.536 142.464C443.34 142.269 443.024 142.269 442.828 142.464L440 145.293L437.172 142.464C436.976 142.269 436.66 142.269 436.464 142.464C436.269 142.66 436.269 142.976 436.464 143.172L439.646 146.354ZM302 45.5C301.724 45.5 301.5 45.7239 301.5 46C301.5 46.2761 301.724 46.5 302 46.5V45.5ZM440.5 146V70H439.5V146H440.5ZM416 45.5H302V46.5H416V45.5ZM440.5 70C440.5 56.469 429.531 45.5 416 45.5V46.5C428.979 46.5 439.5 57.0213 439.5 70H440.5Z"
        fill="#B3B3B3" />
    <path
        d="M254.354 78.6464C254.158 78.4512 253.842 78.4512 253.646 78.6464L250.464 81.8284C250.269 82.0237 250.269 82.3403 250.464 82.5355C250.66 82.7308 250.976 82.7308 251.172 82.5355L254 79.7071L256.828 82.5355C257.024 82.7308 257.34 82.7308 257.536 82.5355C257.731 82.3403 257.731 82.0237 257.536 81.8284L254.354 78.6464ZM439.5 307C439.5 307.276 439.724 307.5 440 307.5C440.276 307.5 440.5 307.276 440.5 307H439.5ZM253.5 79V233H254.5V79H253.5ZM278 257.5H416V256.5H278V257.5ZM439.5 281V307H440.5V281H439.5ZM416 257.5C428.979 257.5 439.5 268.021 439.5 281H440.5C440.5 267.469 429.531 256.5 416 256.5V257.5ZM253.5 233C253.5 246.531 264.469 257.5 278 257.5V256.5C265.021 256.5 254.5 245.979 254.5 233H253.5Z"
        fill="#B3B3B3" />
    <path
        d="M60.6464 307.354C60.8417 307.549 61.1583 307.549 61.3536 307.354L64.5355 304.172C64.7308 303.976 64.7308 303.66 64.5355 303.464C64.3403 303.269 64.0237 303.269 63.8284 303.464L61 306.293L58.1716 303.464C57.9763 303.269 57.6597 303.269 57.4645 303.464C57.2692 303.66 57.2692 303.976 57.4645 304.172L60.6464 307.354ZM61.5 223C61.5 222.724 61.2761 222.5 61 222.5C60.7239 222.5 60.5 222.724 60.5 223H61.5ZM61.5 307V223H60.5V307H61.5Z"
        fill="#B3B3B3" />
    <path
        d="M184.354 335.354C184.549 335.158 184.549 334.842 184.354 334.646L181.172 331.464C180.976 331.269 180.66 331.269 180.464 331.464C180.269 331.66 180.269 331.976 180.464 332.172L183.293 335L180.464 337.828C180.269 338.024 180.269 338.34 180.464 338.536C180.66 338.731 180.976 338.731 181.172 338.536L184.354 335.354ZM109 334.5C108.724 334.5 108.5 334.724 108.5 335C108.5 335.276 108.724 335.5 109 335.5V334.5ZM184 334.5H109V335.5H184V334.5Z"
        fill="#B3B3B3" />
    <path
        d="M392.354 335.354C392.549 335.158 392.549 334.842 392.354 334.646L389.172 331.464C388.976 331.269 388.66 331.269 388.464 331.464C388.269 331.66 388.269 331.976 388.464 332.172L391.293 335L388.464 337.828C388.269 338.024 388.269 338.34 388.464 338.536C388.66 338.731 388.976 338.731 389.172 338.536L392.354 335.354ZM317 334.5C316.724 334.5 316.5 334.724 316.5 335C316.5 335.276 316.724 335.5 317 335.5V334.5ZM392 334.5H317V335.5H392V334.5Z"
        fill="#B3B3B3" />
    <path
        d="M295.991 242.783C295.957 242.439 295.811 242.172 295.552 241.982C295.294 241.791 294.943 241.696 294.5 241.696C294.199 241.696 293.944 241.739 293.737 241.824C293.53 241.906 293.37 242.021 293.26 242.169C293.152 242.317 293.098 242.484 293.098 242.672C293.092 242.828 293.125 242.964 293.196 243.081C293.27 243.197 293.37 243.298 293.498 243.384C293.626 243.466 293.774 243.538 293.941 243.601C294.109 243.661 294.288 243.712 294.478 243.754L295.263 243.942C295.643 244.027 295.993 244.141 296.311 244.283C296.629 244.425 296.905 244.599 297.138 244.807C297.37 245.014 297.551 245.259 297.679 245.54C297.809 245.821 297.876 246.143 297.879 246.507C297.876 247.041 297.74 247.504 297.47 247.896C297.203 248.286 296.816 248.588 296.311 248.804C295.808 249.017 295.201 249.124 294.491 249.124C293.787 249.124 293.173 249.016 292.65 248.8C292.13 248.584 291.724 248.264 291.432 247.841C291.142 247.415 290.99 246.888 290.976 246.26H292.761C292.781 246.553 292.865 246.797 293.013 246.993C293.163 247.186 293.363 247.332 293.613 247.432C293.866 247.528 294.152 247.577 294.47 247.577C294.782 247.577 295.054 247.531 295.284 247.44C295.517 247.349 295.697 247.223 295.825 247.061C295.953 246.899 296.017 246.713 296.017 246.503C296.017 246.307 295.959 246.142 295.842 246.009C295.728 245.875 295.561 245.761 295.339 245.668C295.12 245.574 294.852 245.489 294.534 245.412L293.584 245.173C292.848 244.994 292.267 244.714 291.841 244.334C291.414 243.953 291.203 243.44 291.206 242.795C291.203 242.267 291.343 241.805 291.628 241.411C291.914 241.016 292.308 240.707 292.808 240.486C293.308 240.264 293.876 240.153 294.513 240.153C295.16 240.153 295.726 240.264 296.209 240.486C296.694 240.707 297.072 241.016 297.342 241.411C297.612 241.805 297.751 242.263 297.76 242.783H295.991ZM301.937 249.128C301.264 249.128 300.684 248.991 300.198 248.719C299.715 248.443 299.343 248.054 299.082 247.551C298.82 247.045 298.69 246.447 298.69 245.757C298.69 245.084 298.82 244.493 299.082 243.984C299.343 243.476 299.711 243.08 300.186 242.795C300.663 242.511 301.222 242.369 301.865 242.369C302.296 242.369 302.698 242.439 303.07 242.578C303.445 242.714 303.772 242.92 304.051 243.196C304.332 243.472 304.551 243.818 304.707 244.236C304.863 244.651 304.941 245.136 304.941 245.693V246.192H299.414V245.067H303.232C303.232 244.805 303.176 244.574 303.062 244.372C302.948 244.17 302.791 244.013 302.589 243.899C302.39 243.783 302.159 243.724 301.894 243.724C301.619 243.724 301.374 243.788 301.161 243.916C300.951 244.041 300.786 244.21 300.667 244.423C300.548 244.634 300.487 244.868 300.484 245.126V246.196C300.484 246.52 300.544 246.8 300.663 247.036C300.785 247.271 300.957 247.453 301.178 247.581C301.4 247.709 301.663 247.773 301.967 247.773C302.169 247.773 302.353 247.744 302.521 247.688C302.688 247.631 302.832 247.545 302.951 247.432C303.07 247.318 303.161 247.179 303.224 247.014L304.903 247.125C304.818 247.528 304.643 247.881 304.379 248.182C304.117 248.48 303.779 248.713 303.365 248.881C302.953 249.045 302.477 249.128 301.937 249.128ZM309.475 242.455V243.818H305.534V242.455H309.475ZM306.429 240.886H308.244V246.989C308.244 247.156 308.269 247.287 308.321 247.381C308.372 247.472 308.443 247.536 308.534 247.572C308.627 247.609 308.735 247.628 308.858 247.628C308.943 247.628 309.028 247.621 309.113 247.607C309.198 247.589 309.264 247.577 309.309 247.568L309.595 248.919C309.504 248.947 309.376 248.98 309.211 249.017C309.046 249.057 308.846 249.081 308.61 249.089C308.173 249.107 307.789 249.048 307.46 248.915C307.133 248.781 306.879 248.574 306.697 248.293C306.515 248.011 306.426 247.656 306.429 247.227V240.886ZM314.007 242.455V243.818H310.066V242.455H314.007ZM310.961 240.886H312.776V246.989C312.776 247.156 312.802 247.287 312.853 247.381C312.904 247.472 312.975 247.536 313.066 247.572C313.159 247.609 313.267 247.628 313.39 247.628C313.475 247.628 313.56 247.621 313.645 247.607C313.73 247.589 313.796 247.577 313.841 247.568L314.127 248.919C314.036 248.947 313.908 248.98 313.743 249.017C313.579 249.057 313.378 249.081 313.142 249.089C312.705 249.107 312.321 249.048 311.992 248.915C311.665 248.781 311.411 248.574 311.229 248.293C311.047 248.011 310.958 247.656 310.961 247.227V240.886ZM317.014 240.273V249H315.199V240.273H317.014ZM321.319 249.128C320.646 249.128 320.066 248.991 319.58 248.719C319.098 248.443 318.725 248.054 318.464 247.551C318.203 247.045 318.072 246.447 318.072 245.757C318.072 245.084 318.203 244.493 318.464 243.984C318.725 243.476 319.093 243.08 319.568 242.795C320.045 242.511 320.605 242.369 321.247 242.369C321.678 242.369 322.08 242.439 322.453 242.578C322.828 242.714 323.154 242.92 323.433 243.196C323.714 243.472 323.933 243.818 324.089 244.236C324.245 244.651 324.323 245.136 324.323 245.693V246.192H318.796V245.067H322.615C322.615 244.805 322.558 244.574 322.444 244.372C322.33 244.17 322.173 244.013 321.971 243.899C321.772 243.783 321.541 243.724 321.277 243.724C321.001 243.724 320.757 243.788 320.544 243.916C320.333 244.041 320.169 244.21 320.049 244.423C319.93 244.634 319.869 244.868 319.866 245.126V246.196C319.866 246.52 319.926 246.8 320.045 247.036C320.167 247.271 320.339 247.453 320.561 247.581C320.782 247.709 321.045 247.773 321.349 247.773C321.551 247.773 321.735 247.744 321.903 247.688C322.071 247.631 322.214 247.545 322.333 247.432C322.453 247.318 322.544 247.179 322.606 247.014L324.285 247.125C324.2 247.528 324.025 247.881 323.761 248.182C323.5 248.48 323.161 248.713 322.747 248.881C322.335 249.045 321.859 249.128 321.319 249.128ZM325.376 249V242.455H327.106V243.609H327.183C327.319 243.226 327.546 242.923 327.865 242.702C328.183 242.48 328.564 242.369 329.007 242.369C329.456 242.369 329.838 242.482 330.153 242.706C330.468 242.928 330.679 243.229 330.784 243.609H330.852C330.985 243.234 331.227 242.935 331.576 242.71C331.929 242.483 332.345 242.369 332.825 242.369C333.436 242.369 333.931 242.564 334.312 242.953C334.696 243.339 334.887 243.888 334.887 244.598V249H333.076V244.956C333.076 244.592 332.98 244.32 332.787 244.138C332.593 243.956 332.352 243.865 332.062 243.865C331.733 243.865 331.475 243.97 331.291 244.18C331.106 244.388 331.014 244.662 331.014 245.003V249H329.254V244.918C329.254 244.597 329.162 244.341 328.977 244.151C328.795 243.96 328.555 243.865 328.257 243.865C328.055 243.865 327.873 243.916 327.711 244.018C327.552 244.118 327.426 244.259 327.332 244.44C327.238 244.619 327.191 244.83 327.191 245.071V249H325.376ZM339.172 249.128C338.499 249.128 337.919 248.991 337.434 248.719C336.951 248.443 336.579 248.054 336.317 247.551C336.056 247.045 335.925 246.447 335.925 245.757C335.925 245.084 336.056 244.493 336.317 243.984C336.579 243.476 336.946 243.08 337.421 242.795C337.898 242.511 338.458 242.369 339.1 242.369C339.532 242.369 339.934 242.439 340.306 242.578C340.681 242.714 341.008 242.92 341.286 243.196C341.567 243.472 341.786 243.818 341.942 244.236C342.098 244.651 342.177 245.136 342.177 245.693V246.192H336.65V245.067H340.468C340.468 244.805 340.411 244.574 340.297 244.372C340.184 244.17 340.026 244.013 339.824 243.899C339.625 243.783 339.394 243.724 339.13 243.724C338.854 243.724 338.61 243.788 338.397 243.916C338.187 244.041 338.022 244.21 337.902 244.423C337.783 244.634 337.722 244.868 337.719 245.126V246.196C337.719 246.52 337.779 246.8 337.898 247.036C338.02 247.271 338.192 247.453 338.414 247.581C338.635 247.709 338.898 247.773 339.202 247.773C339.404 247.773 339.589 247.744 339.756 247.688C339.924 247.631 340.067 247.545 340.187 247.432C340.306 247.318 340.397 247.179 340.459 247.014L342.138 247.125C342.053 247.528 341.878 247.881 341.614 248.182C341.353 248.48 341.015 248.713 340.6 248.881C340.188 249.045 339.712 249.128 339.172 249.128ZM345.045 245.216V249H343.229V242.455H344.959V243.609H345.036C345.181 243.229 345.424 242.928 345.765 242.706C346.106 242.482 346.519 242.369 347.005 242.369C347.459 242.369 347.856 242.469 348.194 242.668C348.532 242.866 348.795 243.151 348.982 243.52C349.17 243.886 349.263 244.324 349.263 244.832V249H347.448V245.156C347.451 244.756 347.349 244.443 347.141 244.219C346.934 243.991 346.648 243.878 346.285 243.878C346.04 243.878 345.824 243.93 345.637 244.036C345.452 244.141 345.307 244.294 345.202 244.496C345.1 244.695 345.047 244.935 345.045 245.216ZM354.044 242.455V243.818H350.102V242.455H354.044ZM350.997 240.886H352.812V246.989C352.812 247.156 352.838 247.287 352.889 247.381C352.94 247.472 353.011 247.536 353.102 247.572C353.196 247.609 353.304 247.628 353.426 247.628C353.511 247.628 353.596 247.621 353.681 247.607C353.767 247.589 353.832 247.577 353.877 247.568L354.163 248.919C354.072 248.947 353.944 248.98 353.779 249.017C353.615 249.057 353.414 249.081 353.179 249.089C352.741 249.107 352.358 249.048 352.028 248.915C351.701 248.781 351.447 248.574 351.265 248.293C351.083 248.011 350.994 247.656 350.997 247.227V240.886Z"
        fill="#3D3D3D" />
    <path
        d="M384.924 36.1278C384.251 36.1278 383.672 35.9915 383.186 35.7188C382.703 35.4432 382.331 35.054 382.069 34.5511C381.808 34.0455 381.677 33.4474 381.677 32.7571C381.677 32.0838 381.808 31.4929 382.069 30.9844C382.331 30.4759 382.699 30.0795 383.173 29.7955C383.65 29.5114 384.21 29.3693 384.852 29.3693C385.284 29.3693 385.686 29.4389 386.058 29.5781C386.433 29.7145 386.76 29.9205 387.038 30.196C387.319 30.4716 387.538 30.8182 387.694 31.2358C387.851 31.6506 387.929 32.1364 387.929 32.6932V33.1918H382.402V32.0668H386.22C386.22 31.8054 386.163 31.5739 386.049 31.3722C385.936 31.1705 385.778 31.0128 385.576 30.8991C385.378 30.7827 385.146 30.7244 384.882 30.7244C384.606 30.7244 384.362 30.7884 384.149 30.9162C383.939 31.0412 383.774 31.2102 383.655 31.4233C383.535 31.6335 383.474 31.8679 383.471 32.1264V33.196C383.471 33.5199 383.531 33.7997 383.65 34.0355C383.772 34.2713 383.944 34.4531 384.166 34.581C384.388 34.7088 384.65 34.7727 384.954 34.7727C385.156 34.7727 385.341 34.7443 385.508 34.6875C385.676 34.6307 385.819 34.5455 385.939 34.4318C386.058 34.3182 386.149 34.179 386.211 34.0142L387.89 34.125C387.805 34.5284 387.63 34.8807 387.366 35.1818C387.105 35.4801 386.767 35.7131 386.352 35.8807C385.94 36.0455 385.464 36.1278 384.924 36.1278ZM390.381 29.4545L391.583 31.7429L392.814 29.4545H394.677L392.78 32.7273L394.728 36H392.874L391.583 33.7372L390.313 36H388.438L390.381 32.7273L388.506 29.4545H390.381ZM398.371 36.1278C397.698 36.1278 397.119 35.9915 396.633 35.7188C396.15 35.4432 395.778 35.054 395.516 34.5511C395.255 34.0455 395.124 33.4474 395.124 32.7571C395.124 32.0838 395.255 31.4929 395.516 30.9844C395.778 30.4759 396.146 30.0795 396.62 29.7955C397.097 29.5114 397.657 29.3693 398.299 29.3693C398.731 29.3693 399.133 29.4389 399.505 29.5781C399.88 29.7145 400.207 29.9205 400.485 30.196C400.766 30.4716 400.985 30.8182 401.141 31.2358C401.298 31.6506 401.376 32.1364 401.376 32.6932V33.1918H395.849V32.0668H399.667C399.667 31.8054 399.61 31.5739 399.496 31.3722C399.383 31.1705 399.225 31.0128 399.023 30.8991C398.824 30.7827 398.593 30.7244 398.329 30.7244C398.053 30.7244 397.809 30.7884 397.596 30.9162C397.386 31.0412 397.221 31.2102 397.101 31.4233C396.982 31.6335 396.921 31.8679 396.918 32.1264V33.196C396.918 33.5199 396.978 33.7997 397.097 34.0355C397.219 34.2713 397.391 34.4531 397.613 34.581C397.834 34.7088 398.097 34.7727 398.401 34.7727C398.603 34.7727 398.788 34.7443 398.955 34.6875C399.123 34.6307 399.266 34.5455 399.386 34.4318C399.505 34.3182 399.596 34.179 399.658 34.0142L401.337 34.125C401.252 34.5284 401.077 34.8807 400.813 35.1818C400.552 35.4801 400.214 35.7131 399.799 35.8807C399.387 36.0455 398.911 36.1278 398.371 36.1278ZM405.386 36.1278C404.715 36.1278 404.139 35.9858 403.656 35.7017C403.175 35.4148 402.806 35.017 402.548 34.5085C402.292 34 402.164 33.4148 402.164 32.7528C402.164 32.0824 402.293 31.4943 402.552 30.9886C402.813 30.4801 403.184 30.0838 403.664 29.7997C404.144 29.5128 404.715 29.3693 405.377 29.3693C405.948 29.3693 406.448 29.473 406.877 29.6804C407.306 29.8878 407.646 30.179 407.896 30.554C408.146 30.929 408.283 31.3693 408.309 31.875H406.596C406.548 31.5483 406.42 31.2855 406.212 31.0866C406.008 30.8849 405.739 30.7841 405.407 30.7841C405.126 30.7841 404.88 30.8608 404.67 31.0142C404.462 31.1648 404.3 31.3849 404.184 31.6747C404.067 31.9645 404.009 32.3153 404.009 32.7273C404.009 33.1449 404.066 33.5 404.18 33.7926C404.296 34.0852 404.46 34.3082 404.67 34.4616C404.88 34.6151 405.126 34.6918 405.407 34.6918C405.614 34.6918 405.8 34.6491 405.965 34.5639C406.133 34.4787 406.271 34.3551 406.379 34.1932C406.489 34.0284 406.562 33.831 406.596 33.6009H408.309C408.281 34.1009 408.144 34.5412 407.9 34.9219C407.658 35.2997 407.325 35.5952 406.898 35.8082C406.472 36.0213 405.968 36.1278 405.386 36.1278ZM413.537 33.2131V29.4545H415.352V36H413.609V34.8111H413.541C413.393 35.1946 413.147 35.5028 412.804 35.7358C412.463 35.9687 412.047 36.0852 411.555 36.0852C411.118 36.0852 410.733 35.9858 410.4 35.7869C410.068 35.5881 409.808 35.3054 409.621 34.9389C409.436 34.5724 409.342 34.1335 409.339 33.6222V29.4545H411.155V33.2983C411.157 33.6847 411.261 33.9901 411.466 34.2145C411.67 34.4389 411.944 34.5511 412.288 34.5511C412.507 34.5511 412.711 34.5014 412.902 34.402C413.092 34.2997 413.246 34.1491 413.362 33.9503C413.481 33.7514 413.54 33.5057 413.537 33.2131ZM420.154 29.4545V30.8182H416.212V29.4545H420.154ZM417.107 27.8864H418.922V33.9886C418.922 34.1562 418.948 34.2869 418.999 34.3807C419.05 34.4716 419.121 34.5355 419.212 34.5724C419.306 34.6094 419.414 34.6278 419.536 34.6278C419.621 34.6278 419.706 34.6207 419.791 34.6065C419.877 34.5895 419.942 34.5767 419.987 34.5682L420.273 35.919C420.182 35.9474 420.054 35.9801 419.889 36.017C419.725 36.0568 419.524 36.081 419.289 36.0895C418.851 36.1065 418.468 36.0483 418.138 35.9148C417.811 35.7812 417.557 35.5739 417.375 35.2926C417.193 35.0114 417.104 34.6562 417.107 34.2273V27.8864ZM424.117 36.1278C423.444 36.1278 422.864 35.9915 422.378 35.7188C421.895 35.4432 421.523 35.054 421.262 34.5511C421 34.0455 420.87 33.4474 420.87 32.7571C420.87 32.0838 421 31.4929 421.262 30.9844C421.523 30.4759 421.891 30.0795 422.365 29.7955C422.843 29.5114 423.402 29.3693 424.044 29.3693C424.476 29.3693 424.878 29.4389 425.25 29.5781C425.625 29.7145 425.952 29.9205 426.23 30.196C426.512 30.4716 426.73 30.8182 426.887 31.2358C427.043 31.6506 427.121 32.1364 427.121 32.6932V33.1918H421.594V32.0668H425.412C425.412 31.8054 425.355 31.5739 425.242 31.3722C425.128 31.1705 424.971 31.0128 424.769 30.8991C424.57 30.7827 424.338 30.7244 424.074 30.7244C423.799 30.7244 423.554 30.7884 423.341 30.9162C423.131 31.0412 422.966 31.2102 422.847 31.4233C422.728 31.6335 422.667 31.8679 422.664 32.1264V33.196C422.664 33.5199 422.723 33.7997 422.843 34.0355C422.965 34.2713 423.137 34.4531 423.358 34.581C423.58 34.7088 423.843 34.7727 424.147 34.7727C424.348 34.7727 424.533 34.7443 424.701 34.6875C424.868 34.6307 425.012 34.5455 425.131 34.4318C425.25 34.3182 425.341 34.179 425.404 34.0142L427.083 34.125C426.997 34.5284 426.823 34.8807 426.559 35.1818C426.297 35.4801 425.959 35.7131 425.544 35.8807C425.132 36.0455 424.657 36.1278 424.117 36.1278ZM431.22 32.5014C431.22 31.4446 431.36 30.4716 431.642 29.5824C431.926 28.6932 432.359 27.8693 432.941 27.1108H434.676C434.454 27.392 434.248 27.7358 434.058 28.142C433.867 28.5455 433.701 28.9886 433.559 29.4716C433.417 29.9545 433.306 30.4545 433.227 30.9716C433.147 31.4858 433.107 31.9957 433.107 32.5014C433.107 33.1747 433.176 33.8551 433.312 34.5426C433.451 35.2273 433.639 35.8636 433.874 36.4517C434.113 37.0398 434.38 37.5213 434.676 37.8963H432.941C432.359 37.1378 431.926 36.3139 431.642 35.4247C431.36 34.5355 431.22 33.5611 431.22 32.5014ZM438.657 32.5014C438.657 33.5611 438.515 34.5355 438.231 35.4247C437.949 36.3139 437.518 37.1378 436.935 37.8963H435.201C435.423 37.6151 435.628 37.2713 435.819 36.8651C436.009 36.4588 436.175 36.0156 436.317 35.5355C436.459 35.0526 436.57 34.5526 436.65 34.0355C436.729 33.5185 436.769 33.0071 436.769 32.5014C436.769 31.8281 436.699 31.1491 436.56 30.4645C436.424 29.777 436.236 29.1406 435.998 28.5554C435.762 27.9673 435.496 27.4858 435.201 27.1108H436.935C437.518 27.8693 437.949 28.6932 438.231 29.5824C438.515 30.4716 438.657 31.4446 438.657 32.5014Z"
        fill="#3D3D3D" />
    <path
        d="M64.1059 36L61.6088 27.2727H63.6244L65.069 33.3366H65.1414L66.7352 27.2727H68.461L70.0505 33.3494H70.1272L71.5718 27.2727H73.5875L71.0903 36H69.292L67.6301 30.294H67.5619L65.9042 36H64.1059ZM75.5723 36.1236C75.1547 36.1236 74.7825 36.0511 74.4558 35.9062C74.1291 35.7585 73.8706 35.5412 73.6802 35.2543C73.4927 34.9645 73.399 34.6037 73.399 34.1719C73.399 33.8082 73.4658 33.5028 73.5993 33.2557C73.7328 33.0085 73.9146 32.8097 74.1447 32.6591C74.3748 32.5085 74.6362 32.3949 74.9288 32.3182C75.2243 32.2415 75.5339 32.1875 75.8578 32.1562C76.2385 32.1165 76.5453 32.0795 76.7783 32.0455C77.0112 32.0085 77.1802 31.9545 77.2854 31.8835C77.3905 31.8125 77.443 31.7074 77.443 31.5682V31.5426C77.443 31.2727 77.3578 31.0639 77.1873 30.9162C77.0197 30.7685 76.7811 30.6946 76.4714 30.6946C76.1447 30.6946 75.8848 30.767 75.6916 30.9119C75.4984 31.054 75.3706 31.233 75.3081 31.4489L73.6291 31.3125C73.7143 30.9148 73.8819 30.571 74.1319 30.2812C74.3819 29.9886 74.7044 29.7642 75.0993 29.608C75.497 29.4489 75.9572 29.3693 76.48 29.3693C76.8436 29.3693 77.1916 29.4119 77.524 29.4972C77.8592 29.5824 78.1561 29.7145 78.4146 29.8935C78.676 30.0724 78.8819 30.3026 79.0325 30.5838C79.1831 30.8622 79.2584 31.196 79.2584 31.5852V36H77.5368V35.0923H77.4856C77.3805 35.2969 77.2399 35.4773 77.0638 35.6335C76.8876 35.7869 76.676 35.9077 76.4288 35.9957C76.1817 36.081 75.8961 36.1236 75.5723 36.1236ZM76.0922 34.8707C76.3592 34.8707 76.595 34.8182 76.7996 34.7131C77.0041 34.6051 77.1646 34.4602 77.2811 34.2784C77.3976 34.0966 77.4558 33.8906 77.4558 33.6605V32.9659C77.399 33.0028 77.3209 33.0369 77.2214 33.0682C77.1248 33.0966 77.0155 33.1236 76.8933 33.1491C76.7711 33.1719 76.649 33.1932 76.5268 33.2131C76.4047 33.2301 76.2939 33.2457 76.1944 33.2599C75.9814 33.2912 75.7953 33.3409 75.6362 33.4091C75.4771 33.4773 75.3535 33.5696 75.2655 33.6861C75.1774 33.7997 75.1334 33.9418 75.1334 34.1122C75.1334 34.3594 75.2229 34.5483 75.4018 34.679C75.5836 34.8068 75.8138 34.8707 76.0922 34.8707ZM84.0163 29.4545V30.8182H80.0745V29.4545H84.0163ZM80.9694 27.8864H82.7847V33.9886C82.7847 34.1562 82.8103 34.2869 82.8615 34.3807C82.9126 34.4716 82.9836 34.5355 83.0745 34.5724C83.1683 34.6094 83.2762 34.6278 83.3984 34.6278C83.4836 34.6278 83.5688 34.6207 83.6541 34.6065C83.7393 34.5895 83.8046 34.5767 83.8501 34.5682L84.1356 35.919C84.0447 35.9474 83.9168 35.9801 83.7521 36.017C83.5873 36.0568 83.387 36.081 83.1512 36.0895C82.7137 36.1065 82.3302 36.0483 82.0007 35.9148C81.674 35.7812 81.4197 35.5739 81.2379 35.2926C81.0561 35.0114 80.9666 34.6562 80.9694 34.2273V27.8864ZM87.9539 36.1278C87.2834 36.1278 86.7067 35.9858 86.2238 35.7017C85.7437 35.4148 85.3743 35.017 85.1158 34.5085C84.8601 34 84.7323 33.4148 84.7323 32.7528C84.7323 32.0824 84.8616 31.4943 85.1201 30.9886C85.3814 30.4801 85.7522 30.0838 86.2323 29.7997C86.7124 29.5128 87.2834 29.3693 87.9454 29.3693C88.5164 29.3693 89.0164 29.473 89.4454 29.6804C89.8743 29.8878 90.2138 30.179 90.4638 30.554C90.7138 30.929 90.8516 31.3693 90.8772 31.875H89.1641C89.1158 31.5483 88.988 31.2855 88.7806 31.0866C88.576 30.8849 88.3076 30.7841 87.9752 30.7841C87.6939 30.7841 87.4482 30.8608 87.238 31.0142C87.0306 31.1648 86.8687 31.3849 86.7522 31.6747C86.6357 31.9645 86.5775 32.3153 86.5775 32.7273C86.5775 33.1449 86.6343 33.5 86.7479 33.7926C86.8644 34.0852 87.0277 34.3082 87.238 34.4616C87.4482 34.6151 87.6939 34.6918 87.9752 34.6918C88.1826 34.6918 88.3687 34.6491 88.5334 34.5639C88.701 34.4787 88.8388 34.3551 88.9468 34.1932C89.0576 34.0284 89.13 33.831 89.1641 33.6009H90.8772C90.8488 34.1009 90.7124 34.5412 90.4681 34.9219C90.2266 35.2997 89.8928 35.5952 89.4667 35.8082C89.0405 36.0213 88.5363 36.1278 87.9539 36.1278ZM93.7228 32.2159V36H91.9075V27.2727H93.6717V30.6094H93.7484C93.8961 30.223 94.1347 29.9205 94.4643 29.7017C94.7938 29.4801 95.2072 29.3693 95.7043 29.3693C96.1589 29.3693 96.5552 29.4688 96.8933 29.6676C97.2342 29.8636 97.4984 30.1463 97.6859 30.5156C97.8762 30.8821 97.97 31.321 97.9671 31.8324V36H96.1518V32.1562C96.1546 31.7528 96.0524 31.4389 95.845 31.2145C95.6404 30.9901 95.3535 30.8778 94.9842 30.8778C94.737 30.8778 94.5183 30.9304 94.3279 31.0355C94.1404 31.1406 93.9927 31.294 93.8847 31.4957C93.7796 31.6946 93.7256 31.9347 93.7228 32.2159ZM99.2637 36V29.4545H101.079V36H99.2637ZM100.176 28.6108C99.9058 28.6108 99.6743 28.5213 99.4811 28.3423C99.2907 28.1605 99.1956 27.9432 99.1956 27.6903C99.1956 27.4403 99.2907 27.2259 99.4811 27.0469C99.6743 26.8651 99.9058 26.7741 100.176 26.7741C100.446 26.7741 100.676 26.8651 100.866 27.0469C101.059 27.2259 101.156 27.4403 101.156 27.6903C101.156 27.9432 101.059 28.1605 100.866 28.3423C100.676 28.5213 100.446 28.6108 100.176 28.6108ZM104.217 32.2159V36H102.401V29.4545H104.131V30.6094H104.208C104.353 30.2287 104.596 29.9276 104.937 29.706C105.278 29.4815 105.691 29.3693 106.177 29.3693C106.631 29.3693 107.028 29.4688 107.366 29.6676C107.704 29.8665 107.967 30.1506 108.154 30.5199C108.342 30.8864 108.435 31.3239 108.435 31.8324V36H106.62V32.1562C106.623 31.7557 106.521 31.4432 106.313 31.2188C106.106 30.9915 105.82 30.8778 105.457 30.8778C105.212 30.8778 104.996 30.9304 104.809 31.0355C104.624 31.1406 104.479 31.294 104.374 31.4957C104.272 31.6946 104.219 31.9347 104.217 32.2159ZM112.683 38.5909C112.095 38.5909 111.591 38.5099 111.17 38.348C110.753 38.1889 110.42 37.9716 110.173 37.696C109.926 37.4205 109.765 37.1108 109.692 36.767L111.37 36.5412C111.422 36.6719 111.503 36.794 111.613 36.9077C111.724 37.0213 111.87 37.1122 112.052 37.1804C112.237 37.2514 112.461 37.2869 112.726 37.2869C113.12 37.2869 113.446 37.1903 113.701 36.9972C113.96 36.8068 114.089 36.4872 114.089 36.0384V34.8409H114.013C113.933 35.0227 113.814 35.1946 113.655 35.3565C113.495 35.5185 113.291 35.6506 113.041 35.7528C112.791 35.8551 112.493 35.9062 112.146 35.9062C111.655 35.9062 111.207 35.7926 110.804 35.5653C110.403 35.3352 110.084 34.9844 109.845 34.5128C109.609 34.0384 109.491 33.4389 109.491 32.7145C109.491 31.973 109.612 31.3537 109.853 30.8565C110.095 30.3594 110.416 29.9872 110.817 29.7401C111.22 29.4929 111.662 29.3693 112.142 29.3693C112.508 29.3693 112.815 29.4318 113.062 29.5568C113.309 29.679 113.508 29.8324 113.659 30.017C113.812 30.1989 113.93 30.3778 114.013 30.554H114.081V29.4545H115.883V36.0639C115.883 36.6207 115.747 37.0866 115.474 37.4616C115.201 37.8366 114.824 38.1179 114.341 38.3054C113.861 38.4957 113.308 38.5909 112.683 38.5909ZM112.721 34.5426C113.014 34.5426 113.261 34.4702 113.463 34.3253C113.667 34.1776 113.824 33.9673 113.932 33.6946C114.042 33.419 114.098 33.0895 114.098 32.706C114.098 32.3224 114.044 31.9901 113.936 31.7088C113.828 31.4247 113.672 31.2045 113.467 31.0483C113.263 30.892 113.014 30.8139 112.721 30.8139C112.423 30.8139 112.172 30.8949 111.967 31.0568C111.763 31.2159 111.608 31.4375 111.503 31.7216C111.397 32.0057 111.345 32.3338 111.345 32.706C111.345 33.0838 111.397 33.4105 111.503 33.6861C111.611 33.9588 111.765 34.1705 111.967 34.321C112.172 34.4687 112.423 34.5426 112.721 34.5426ZM123.361 29.4545V30.8182H119.321V29.4545H123.361ZM120.246 36V28.9815C120.246 28.5071 120.338 28.1136 120.523 27.8011C120.711 27.4886 120.966 27.2543 121.29 27.098C121.614 26.9418 121.982 26.8636 122.394 26.8636C122.672 26.8636 122.926 26.8849 123.157 26.9276C123.39 26.9702 123.563 27.0085 123.676 27.0426L123.353 28.4062C123.282 28.3835 123.193 28.3622 123.088 28.3423C122.986 28.3224 122.881 28.3125 122.773 28.3125C122.506 28.3125 122.32 28.375 122.215 28.5C122.11 28.6222 122.057 28.794 122.057 29.0156V36H120.246ZM127.061 36.1278C126.399 36.1278 125.827 35.9872 125.344 35.706C124.864 35.4219 124.493 35.027 124.232 34.5213C123.97 34.0128 123.84 33.4233 123.84 32.7528C123.84 32.0767 123.97 31.4858 124.232 30.9801C124.493 30.4716 124.864 30.0767 125.344 29.7955C125.827 29.5114 126.399 29.3693 127.061 29.3693C127.723 29.3693 128.294 29.5114 128.774 29.7955C129.257 30.0767 129.629 30.4716 129.891 30.9801C130.152 31.4858 130.283 32.0767 130.283 32.7528C130.283 33.4233 130.152 34.0128 129.891 34.5213C129.629 35.027 129.257 35.4219 128.774 35.706C128.294 35.9872 127.723 36.1278 127.061 36.1278ZM127.07 34.7216C127.371 34.7216 127.622 34.6364 127.824 34.4659C128.026 34.2926 128.178 34.0568 128.28 33.7585C128.385 33.4602 128.438 33.1207 128.438 32.7401C128.438 32.3594 128.385 32.0199 128.28 31.7216C128.178 31.4233 128.026 31.1875 127.824 31.0142C127.622 30.8409 127.371 30.7543 127.07 30.7543C126.766 30.7543 126.51 30.8409 126.303 31.0142C126.098 31.1875 125.943 31.4233 125.838 31.7216C125.736 32.0199 125.685 32.3594 125.685 32.7401C125.685 33.1207 125.736 33.4602 125.838 33.7585C125.943 34.0568 126.098 34.2926 126.303 34.4659C126.51 34.6364 126.766 34.7216 127.07 34.7216ZM131.331 36V29.4545H133.091V30.5966H133.159C133.279 30.1903 133.479 29.8835 133.76 29.6761C134.041 29.4659 134.365 29.3608 134.732 29.3608C134.823 29.3608 134.921 29.3665 135.026 29.3778C135.131 29.3892 135.223 29.4048 135.303 29.4247V31.0355C135.217 31.0099 135.1 30.9872 134.949 30.9673C134.798 30.9474 134.661 30.9375 134.536 30.9375C134.269 30.9375 134.03 30.9957 133.82 31.1122C133.612 31.2259 133.448 31.3849 133.325 31.5895C133.206 31.794 133.146 32.0298 133.146 32.2969V36H131.331ZM140.634 27.2727V36H138.789V27.2727H140.634ZM143.801 32.2159V36H141.986V29.4545H143.716V30.6094H143.793C143.938 30.2287 144.181 29.9276 144.521 29.706C144.862 29.4815 145.276 29.3693 145.761 29.3693C146.216 29.3693 146.612 29.4688 146.95 29.6676C147.288 29.8665 147.551 30.1506 147.739 30.5199C147.926 30.8864 148.02 31.3239 148.02 31.8324V36H146.205V32.1562C146.207 31.7557 146.105 31.4432 145.898 31.2188C145.69 30.9915 145.405 30.8778 145.041 30.8778C144.797 30.8778 144.581 30.9304 144.394 31.0355C144.209 31.1406 144.064 31.294 143.959 31.4957C143.857 31.6946 143.804 31.9347 143.801 32.2159ZM152.8 29.4545V30.8182H148.859V29.4545H152.8ZM149.753 27.8864H151.569V33.9886C151.569 34.1562 151.594 34.2869 151.645 34.3807C151.697 34.4716 151.768 34.5355 151.859 34.5724C151.952 34.6094 152.06 34.6278 152.182 34.6278C152.268 34.6278 152.353 34.6207 152.438 34.6065C152.523 34.5895 152.589 34.5767 152.634 34.5682L152.92 35.919C152.829 35.9474 152.701 35.9801 152.536 36.017C152.371 36.0568 152.171 36.081 151.935 36.0895C151.498 36.1065 151.114 36.0483 150.785 35.9148C150.458 35.7812 150.204 35.5739 150.022 35.2926C149.84 35.0114 149.751 34.6562 149.753 34.2273V27.8864ZM156.763 36.1278C156.09 36.1278 155.511 35.9915 155.025 35.7188C154.542 35.4432 154.17 35.054 153.908 34.5511C153.647 34.0455 153.516 33.4474 153.516 32.7571C153.516 32.0838 153.647 31.4929 153.908 30.9844C154.17 30.4759 154.538 30.0795 155.012 29.7955C155.489 29.5114 156.049 29.3693 156.691 29.3693C157.123 29.3693 157.525 29.4389 157.897 29.5781C158.272 29.7145 158.599 29.9205 158.877 30.196C159.158 30.4716 159.377 30.8182 159.533 31.2358C159.69 31.6506 159.768 32.1364 159.768 32.6932V33.1918H154.241V32.0668H158.059C158.059 31.8054 158.002 31.5739 157.888 31.3722C157.775 31.1705 157.617 31.0128 157.415 30.8991C157.217 30.7827 156.985 30.7244 156.721 30.7244C156.445 30.7244 156.201 30.7884 155.988 30.9162C155.778 31.0412 155.613 31.2102 155.494 31.4233C155.374 31.6335 155.313 31.8679 155.31 32.1264V33.196C155.31 33.5199 155.37 33.7997 155.489 34.0355C155.611 34.2713 155.783 34.4531 156.005 34.581C156.227 34.7088 156.489 34.7727 156.793 34.7727C156.995 34.7727 157.18 34.7443 157.347 34.6875C157.515 34.6307 157.658 34.5455 157.778 34.4318C157.897 34.3182 157.988 34.179 158.05 34.0142L159.729 34.125C159.644 34.5284 159.469 34.8807 159.205 35.1818C158.944 35.4801 158.606 35.7131 158.191 35.8807C157.779 36.0455 157.303 36.1278 156.763 36.1278ZM162.636 32.2159V36H160.82V29.4545H162.55V30.6094H162.627C162.772 30.2287 163.015 29.9276 163.356 29.706C163.697 29.4815 164.11 29.3693 164.596 29.3693C165.05 29.3693 165.447 29.4688 165.785 29.6676C166.123 29.8665 166.386 30.1506 166.573 30.5199C166.761 30.8864 166.854 31.3239 166.854 31.8324V36H165.039V32.1562C165.042 31.7557 164.94 31.4432 164.732 31.2188C164.525 30.9915 164.239 30.8778 163.876 30.8778C163.631 30.8778 163.416 30.9304 163.228 31.0355C163.043 31.1406 162.898 31.294 162.793 31.4957C162.691 31.6946 162.639 31.9347 162.636 32.2159ZM171.635 29.4545V30.8182H167.693V29.4545H171.635ZM168.588 27.8864H170.403V33.9886C170.403 34.1562 170.429 34.2869 170.48 34.3807C170.531 34.4716 170.602 34.5355 170.693 34.5724C170.787 34.6094 170.895 34.6278 171.017 34.6278C171.102 34.6278 171.187 34.6207 171.273 34.6065C171.358 34.5895 171.423 34.5767 171.469 34.5682L171.754 35.919C171.663 35.9474 171.535 35.9801 171.371 36.017C171.206 36.0568 171.005 36.081 170.77 36.0895C170.332 36.1065 169.949 36.0483 169.619 35.9148C169.292 35.7812 169.038 35.5739 168.856 35.2926C168.675 35.0114 168.585 34.6562 168.588 34.2273V27.8864ZM178.049 31.321L176.387 31.4233C176.359 31.2812 176.298 31.1534 176.204 31.0398C176.11 30.9233 175.987 30.831 175.833 30.7628C175.683 30.6918 175.502 30.6562 175.292 30.6562C175.011 30.6562 174.774 30.7159 174.581 30.8352C174.387 30.9517 174.291 31.108 174.291 31.304C174.291 31.4602 174.353 31.5923 174.478 31.7003C174.603 31.8082 174.818 31.8949 175.122 31.9602L176.306 32.1989C176.943 32.3295 177.417 32.5398 177.73 32.8295C178.042 33.1193 178.198 33.5 178.198 33.9716C178.198 34.4006 178.072 34.777 177.819 35.1009C177.569 35.4247 177.225 35.6776 176.788 35.8594C176.353 36.0384 175.852 36.1278 175.284 36.1278C174.417 36.1278 173.727 35.9474 173.213 35.5866C172.701 35.223 172.402 34.7287 172.313 34.1037L174.099 34.0099C174.153 34.2741 174.284 34.4759 174.491 34.6151C174.698 34.7514 174.964 34.8196 175.288 34.8196C175.606 34.8196 175.862 34.7585 176.055 34.6364C176.251 34.5114 176.35 34.3509 176.353 34.1548C176.35 33.9901 176.281 33.8551 176.144 33.75C176.008 33.642 175.798 33.5597 175.514 33.5028L174.38 33.277C173.741 33.1491 173.265 32.9276 172.953 32.6122C172.643 32.2969 172.488 31.8949 172.488 31.4062C172.488 30.9858 172.602 30.6236 172.829 30.3196C173.059 30.0156 173.382 29.7812 173.796 29.6165C174.214 29.4517 174.703 29.3693 175.262 29.3693C176.089 29.3693 176.74 29.544 177.214 29.8935C177.691 30.2429 177.97 30.7187 178.049 31.321Z"
        fill="#3D3D3D" />
</svg>