<svg width="497" height="344" viewBox="0 0 497 344" fill="none" xmlns="http://www.w3.org/2000/svg">
    <rect x="194" y="1" width="88" height="58" rx="15" fill="#252525" stroke="#5D5D5D" stroke-width="2" />
    <path
        d="M216.929 20.6364C216.929 21.5881 216.748 22.3977 216.387 23.0653C216.029 23.733 215.541 24.2429 214.922 24.5952C214.305 24.9446 213.612 25.1193 212.842 25.1193C212.066 25.1193 211.37 24.9432 210.754 24.5909C210.137 24.2386 209.65 23.7287 209.292 23.0611C208.934 22.3935 208.755 21.5852 208.755 20.6364C208.755 19.6847 208.934 18.875 209.292 18.2074C209.65 17.5398 210.137 17.0312 210.754 16.6818C211.37 16.3295 212.066 16.1534 212.842 16.1534C213.612 16.1534 214.305 16.3295 214.922 16.6818C215.541 17.0312 216.029 17.5398 216.387 18.2074C216.748 18.875 216.929 19.6847 216.929 20.6364ZM215.058 20.6364C215.058 20.0199 214.966 19.5 214.781 19.0767C214.599 18.6534 214.342 18.3324 214.01 18.1136C213.677 17.8949 213.288 17.7855 212.842 17.7855C212.396 17.7855 212.007 17.8949 211.674 18.1136C211.342 18.3324 211.083 18.6534 210.899 19.0767C210.717 19.5 210.626 20.0199 210.626 20.6364C210.626 21.2528 210.717 21.7727 210.899 22.196C211.083 22.6193 211.342 22.9403 211.674 23.1591C212.007 23.3778 212.396 23.4872 212.842 23.4872C213.288 23.4872 213.677 23.3778 214.01 23.1591C214.342 22.9403 214.599 22.6193 214.781 22.196C214.966 21.7727 215.058 21.2528 215.058 20.6364ZM221.649 18.4545V19.8182H217.609V18.4545H221.649ZM218.534 25V17.9815C218.534 17.5071 218.627 17.1136 218.811 16.8011C218.999 16.4886 219.254 16.2543 219.578 16.098C219.902 15.9418 220.27 15.8636 220.682 15.8636C220.96 15.8636 221.215 15.8849 221.445 15.9276C221.678 15.9702 221.851 16.0085 221.965 16.0426L221.641 17.4062C221.57 17.3835 221.482 17.3622 221.377 17.3423C221.274 17.3224 221.169 17.3125 221.061 17.3125C220.794 17.3125 220.608 17.375 220.503 17.5C220.398 17.6222 220.345 17.794 220.345 18.0156V25H218.534ZM226.146 18.4545V19.8182H222.106V18.4545H226.146ZM223.031 25V17.9815C223.031 17.5071 223.123 17.1136 223.308 16.8011C223.496 16.4886 223.751 16.2543 224.075 16.098C224.399 15.9418 224.767 15.8636 225.179 15.8636C225.457 15.8636 225.712 15.8849 225.942 15.9276C226.175 15.9702 226.348 16.0085 226.462 16.0426L226.138 17.4062C226.067 17.3835 225.979 17.3622 225.873 17.3423C225.771 17.3224 225.666 17.3125 225.558 17.3125C225.291 17.3125 225.105 17.375 225 17.5C224.895 17.6222 224.842 17.794 224.842 18.0156V25H223.031ZM230.967 20.696V22.1364H226.987V20.696H230.967ZM242.762 19.3281H240.895C240.861 19.0866 240.791 18.8722 240.686 18.6847C240.581 18.4943 240.446 18.3324 240.281 18.1989C240.117 18.0653 239.926 17.9631 239.71 17.892C239.497 17.821 239.266 17.7855 239.016 17.7855C238.564 17.7855 238.171 17.8977 237.835 18.1222C237.5 18.3437 237.24 18.6676 237.056 19.0938C236.871 19.517 236.779 20.0312 236.779 20.6364C236.779 21.2585 236.871 21.7812 237.056 22.2045C237.243 22.6278 237.504 22.9474 237.84 23.1634C238.175 23.3793 238.563 23.4872 239.003 23.4872C239.25 23.4872 239.479 23.4545 239.689 23.3892C239.902 23.3239 240.091 23.2287 240.256 23.1037C240.421 22.9759 240.557 22.821 240.665 22.6392C240.776 22.4574 240.852 22.25 240.895 22.017L242.762 22.0256C242.713 22.4261 242.593 22.8125 242.399 23.1847C242.209 23.554 241.952 23.8849 241.628 24.1776C241.307 24.4673 240.923 24.6974 240.477 24.8679C240.034 25.0355 239.533 25.1193 238.973 25.1193C238.195 25.1193 237.499 24.9432 236.885 24.5909C236.274 24.2386 235.791 23.7287 235.436 23.0611C235.084 22.3935 234.908 21.5852 234.908 20.6364C234.908 19.6847 235.087 18.875 235.445 18.2074C235.803 17.5398 236.289 17.0312 236.902 16.6818C237.516 16.3295 238.206 16.1534 238.973 16.1534C239.479 16.1534 239.948 16.2244 240.379 16.3665C240.814 16.5085 241.199 16.7159 241.534 16.9886C241.869 17.2585 242.142 17.5895 242.352 17.9815C242.566 18.3736 242.702 18.8224 242.762 19.3281ZM245.734 21.2159V25H243.919V16.2727H245.683V19.6094H245.76C245.907 19.223 246.146 18.9205 246.475 18.7017C246.805 18.4801 247.218 18.3693 247.715 18.3693C248.17 18.3693 248.566 18.4688 248.904 18.6676C249.245 18.8636 249.51 19.1463 249.697 19.5156C249.887 19.8821 249.981 20.321 249.978 20.8324V25H248.163V21.1562C248.166 20.7528 248.063 20.4389 247.856 20.2145C247.652 19.9901 247.365 19.8778 246.995 19.8778C246.748 19.8778 246.529 19.9304 246.339 20.0355C246.152 20.1406 246.004 20.294 245.896 20.4957C245.791 20.6946 245.737 20.9347 245.734 21.2159ZM253.141 25.1236C252.724 25.1236 252.352 25.0511 252.025 24.9062C251.698 24.7585 251.44 24.5412 251.249 24.2543C251.062 23.9645 250.968 23.6037 250.968 23.1719C250.968 22.8082 251.035 22.5028 251.168 22.2557C251.302 22.0085 251.484 21.8097 251.714 21.6591C251.944 21.5085 252.205 21.3949 252.498 21.3182C252.793 21.2415 253.103 21.1875 253.427 21.1562C253.808 21.1165 254.114 21.0795 254.347 21.0455C254.58 21.0085 254.749 20.9545 254.854 20.8835C254.96 20.8125 255.012 20.7074 255.012 20.5682V20.5426C255.012 20.2727 254.927 20.0639 254.756 19.9162C254.589 19.7685 254.35 19.6946 254.041 19.6946C253.714 19.6946 253.454 19.767 253.261 19.9119C253.067 20.054 252.94 20.233 252.877 20.4489L251.198 20.3125C251.283 19.9148 251.451 19.571 251.701 19.2812C251.951 18.9886 252.273 18.7642 252.668 18.608C253.066 18.4489 253.526 18.3693 254.049 18.3693C254.413 18.3693 254.761 18.4119 255.093 18.4972C255.428 18.5824 255.725 18.7145 255.984 18.8935C256.245 19.0724 256.451 19.3026 256.602 19.5838C256.752 19.8622 256.827 20.196 256.827 20.5852V25H255.106V24.0923H255.055C254.95 24.2969 254.809 24.4773 254.633 24.6335C254.457 24.7869 254.245 24.9077 253.998 24.9957C253.751 25.081 253.465 25.1236 253.141 25.1236ZM253.661 23.8707C253.928 23.8707 254.164 23.8182 254.369 23.7131C254.573 23.6051 254.734 23.4602 254.85 23.2784C254.967 23.0966 255.025 22.8906 255.025 22.6605V21.9659C254.968 22.0028 254.89 22.0369 254.791 22.0682C254.694 22.0966 254.585 22.1236 254.462 22.1491C254.34 22.1719 254.218 22.1932 254.096 22.2131C253.974 22.2301 253.863 22.2457 253.764 22.2599C253.55 22.2912 253.364 22.3409 253.205 22.4091C253.046 22.4773 252.923 22.5696 252.835 22.6861C252.746 22.7997 252.702 22.9418 252.702 23.1122C252.702 23.3594 252.792 23.5483 252.971 23.679C253.153 23.8068 253.383 23.8707 253.661 23.8707ZM258.104 25V18.4545H259.919V25H258.104ZM259.016 17.6108C258.746 17.6108 258.514 17.5213 258.321 17.3423C258.131 17.1605 258.036 16.9432 258.036 16.6903C258.036 16.4403 258.131 16.2259 258.321 16.0469C258.514 15.8651 258.746 15.7741 259.016 15.7741C259.286 15.7741 259.516 15.8651 259.706 16.0469C259.899 16.2259 259.996 16.4403 259.996 16.6903C259.996 16.9432 259.899 17.1605 259.706 17.3423C259.516 17.5213 259.286 17.6108 259.016 17.6108ZM263.057 21.2159V25H261.241V18.4545H262.971V19.6094H263.048C263.193 19.2287 263.436 18.9276 263.777 18.706C264.118 18.4815 264.531 18.3693 265.017 18.3693C265.471 18.3693 265.868 18.4688 266.206 18.6676C266.544 18.8665 266.807 19.1506 266.994 19.5199C267.182 19.8864 267.275 20.3239 267.275 20.8324V25H265.46V21.1562C265.463 20.7557 265.361 20.4432 265.153 20.2188C264.946 19.9915 264.66 19.8778 264.297 19.8778C264.052 19.8778 263.837 19.9304 263.649 20.0355C263.464 20.1406 263.319 20.294 263.214 20.4957C263.112 20.6946 263.06 20.9347 263.057 21.2159ZM225.126 36.7827C225.092 36.4389 224.945 36.1719 224.687 35.9815C224.428 35.7912 224.077 35.696 223.634 35.696C223.333 35.696 223.079 35.7386 222.871 35.8239C222.664 35.9062 222.505 36.0213 222.394 36.169C222.286 36.3168 222.232 36.4844 222.232 36.6719C222.226 36.8281 222.259 36.9645 222.33 37.081C222.404 37.1974 222.505 37.2983 222.633 37.3835C222.761 37.4659 222.908 37.5384 223.076 37.6009C223.244 37.6605 223.423 37.7116 223.613 37.7543L224.397 37.9418C224.778 38.027 225.127 38.1406 225.445 38.2827C225.763 38.4247 226.039 38.5994 226.272 38.8068C226.505 39.0142 226.685 39.2585 226.813 39.5398C226.944 39.821 227.011 40.1435 227.013 40.5071C227.011 41.0412 226.874 41.5043 226.604 41.8963C226.337 42.2855 225.951 42.5881 225.445 42.804C224.942 43.017 224.336 43.1236 223.626 43.1236C222.921 43.1236 222.307 43.0156 221.785 42.7997C221.265 42.5838 220.859 42.2642 220.566 41.8409C220.276 41.4148 220.124 40.8878 220.11 40.2599H221.896C221.915 40.5526 221.999 40.7969 222.147 40.9929C222.298 41.1861 222.498 41.3324 222.748 41.4318C223.001 41.5284 223.286 41.5767 223.604 41.5767C223.917 41.5767 224.188 41.5312 224.418 41.4403C224.651 41.3494 224.832 41.223 224.959 41.0611C225.087 40.8991 225.151 40.7131 225.151 40.5028C225.151 40.3068 225.093 40.142 224.976 40.0085C224.863 39.875 224.695 39.7614 224.474 39.6676C224.255 39.5739 223.986 39.4886 223.668 39.4119L222.718 39.1733C221.982 38.9943 221.401 38.7145 220.975 38.3338C220.549 37.9531 220.337 37.4403 220.34 36.7955C220.337 36.267 220.478 35.8054 220.762 35.4105C221.049 35.0156 221.442 34.7074 221.942 34.4858C222.442 34.2642 223.011 34.1534 223.647 34.1534C224.295 34.1534 224.86 34.2642 225.343 34.4858C225.829 34.7074 226.207 35.0156 226.476 35.4105C226.746 35.8054 226.886 36.2628 226.894 36.7827H225.126ZM231.046 43.1278C230.384 43.1278 229.811 42.9872 229.329 42.706C228.848 42.4219 228.478 42.027 228.216 41.5213C227.955 41.0128 227.824 40.4233 227.824 39.7528C227.824 39.0767 227.955 38.4858 228.216 37.9801C228.478 37.4716 228.848 37.0767 229.329 36.7955C229.811 36.5114 230.384 36.3693 231.046 36.3693C231.708 36.3693 232.279 36.5114 232.759 36.7955C233.242 37.0767 233.614 37.4716 233.875 37.9801C234.137 38.4858 234.267 39.0767 234.267 39.7528C234.267 40.4233 234.137 41.0128 233.875 41.5213C233.614 42.027 233.242 42.4219 232.759 42.706C232.279 42.9872 231.708 43.1278 231.046 43.1278ZM231.054 41.7216C231.355 41.7216 231.607 41.6364 231.809 41.4659C232.01 41.2926 232.162 41.0568 232.265 40.7585C232.37 40.4602 232.422 40.1207 232.422 39.7401C232.422 39.3594 232.37 39.0199 232.265 38.7216C232.162 38.4233 232.01 38.1875 231.809 38.0142C231.607 37.8409 231.355 37.7543 231.054 37.7543C230.75 37.7543 230.495 37.8409 230.287 38.0142C230.083 38.1875 229.928 38.4233 229.823 38.7216C229.721 39.0199 229.669 39.3594 229.669 39.7401C229.669 40.1207 229.721 40.4602 229.823 40.7585C229.928 41.0568 230.083 41.2926 230.287 41.4659C230.495 41.6364 230.75 41.7216 231.054 41.7216ZM237.131 34.2727V43H235.316V34.2727H237.131ZM244.556 36.4545L242.267 43H240.222L237.933 36.4545H239.851L241.21 41.1378H241.279L242.634 36.4545H244.556ZM248.125 43.1278C247.451 43.1278 246.872 42.9915 246.386 42.7188C245.903 42.4432 245.531 42.054 245.27 41.5511C245.008 41.0455 244.877 40.4474 244.877 39.7571C244.877 39.0838 245.008 38.4929 245.27 37.9844C245.531 37.4759 245.899 37.0795 246.373 36.7955C246.85 36.5114 247.41 36.3693 248.052 36.3693C248.484 36.3693 248.886 36.4389 249.258 36.5781C249.633 36.7145 249.96 36.9205 250.238 37.196C250.52 37.4716 250.738 37.8182 250.895 38.2358C251.051 38.6506 251.129 39.1364 251.129 39.6932V40.1918H245.602V39.0668H249.42C249.42 38.8054 249.363 38.5739 249.25 38.3722C249.136 38.1705 248.978 38.0128 248.777 37.8991C248.578 37.7827 248.346 37.7244 248.082 37.7244C247.806 37.7244 247.562 37.7884 247.349 37.9162C247.139 38.0412 246.974 38.2102 246.855 38.4233C246.735 38.6335 246.674 38.8679 246.671 39.1264V40.196C246.671 40.5199 246.731 40.7997 246.85 41.0355C246.973 41.2713 247.145 41.4531 247.366 41.581C247.588 41.7088 247.85 41.7727 248.154 41.7727C248.356 41.7727 248.541 41.7443 248.708 41.6875C248.876 41.6307 249.02 41.5455 249.139 41.4318C249.258 41.3182 249.349 41.179 249.412 41.0142L251.091 41.125C251.005 41.5284 250.831 41.8807 250.566 42.1818C250.305 42.4801 249.967 42.7131 249.552 42.8807C249.14 43.0455 248.664 43.1278 248.125 43.1278ZM252.182 43V36.4545H253.941V37.5966H254.01C254.129 37.1903 254.329 36.8835 254.611 36.6761C254.892 36.4659 255.216 36.3608 255.582 36.3608C255.673 36.3608 255.771 36.3665 255.876 36.3778C255.981 36.3892 256.074 36.4048 256.153 36.4247V38.0355C256.068 38.0099 255.95 37.9872 255.799 37.9673C255.649 37.9474 255.511 37.9375 255.386 37.9375C255.119 37.9375 254.88 37.9957 254.67 38.1122C254.463 38.2259 254.298 38.3849 254.176 38.5895C254.057 38.794 253.997 39.0298 253.997 39.2969V43H252.182Z"
        fill="#E8E8E8" />
    <rect x="1" y="145" width="88" height="58" rx="15" stroke="#EF5D13" stroke-width="2" />
    <path
        d="M33.3342 160.273H35.1794V165.94C35.1794 166.577 35.0274 167.134 34.7234 167.611C34.4223 168.088 34.0004 168.46 33.4578 168.727C32.9152 168.991 32.2831 169.124 31.5615 169.124C30.8371 169.124 30.2035 168.991 29.6609 168.727C29.1183 168.46 28.6964 168.088 28.3953 167.611C28.0942 167.134 27.9436 166.577 27.9436 165.94V160.273H29.7888V165.783C29.7888 166.115 29.8612 166.411 30.0061 166.669C30.1538 166.928 30.3612 167.131 30.6282 167.278C30.8953 167.426 31.2064 167.5 31.5615 167.5C31.9194 167.5 32.2305 167.426 32.4947 167.278C32.7618 167.131 32.9677 166.928 33.1126 166.669C33.2603 166.411 33.3342 166.115 33.3342 165.783V160.273ZM41.9774 164.321L40.3155 164.423C40.2871 164.281 40.226 164.153 40.1323 164.04C40.0385 163.923 39.9149 163.831 39.7615 163.763C39.6109 163.692 39.4305 163.656 39.2203 163.656C38.9391 163.656 38.7019 163.716 38.5087 163.835C38.3155 163.952 38.2189 164.108 38.2189 164.304C38.2189 164.46 38.2814 164.592 38.4064 164.7C38.5314 164.808 38.7459 164.895 39.0499 164.96L40.2345 165.199C40.8709 165.33 41.3453 165.54 41.6578 165.83C41.9703 166.119 42.1266 166.5 42.1266 166.972C42.1266 167.401 42.0002 167.777 41.7473 168.101C41.4973 168.425 41.1536 168.678 40.7161 168.859C40.2814 169.038 39.78 169.128 39.2118 169.128C38.3453 169.128 37.655 168.947 37.1408 168.587C36.6294 168.223 36.3297 167.729 36.2416 167.104L38.0271 167.01C38.0811 167.274 38.2118 167.476 38.4192 167.615C38.6266 167.751 38.8922 167.82 39.2161 167.82C39.5342 167.82 39.7899 167.759 39.9831 167.636C40.1791 167.511 40.2786 167.351 40.2814 167.155C40.2786 166.99 40.209 166.855 40.0726 166.75C39.9362 166.642 39.726 166.56 39.4419 166.503L38.3084 166.277C37.6692 166.149 37.1933 165.928 36.8808 165.612C36.5712 165.297 36.4163 164.895 36.4163 164.406C36.4163 163.986 36.53 163.624 36.7573 163.32C36.9874 163.016 37.3098 162.781 37.7246 162.616C38.1422 162.452 38.6308 162.369 39.1905 162.369C40.0172 162.369 40.6678 162.544 41.1422 162.893C41.6195 163.243 41.8979 163.719 41.9774 164.321ZM46.1206 169.128C45.4473 169.128 44.8678 168.991 44.382 168.719C43.899 168.443 43.5269 168.054 43.2655 167.551C43.0042 167.045 42.8735 166.447 42.8735 165.757C42.8735 165.084 43.0042 164.493 43.2655 163.984C43.5269 163.476 43.8948 163.08 44.3692 162.795C44.8465 162.511 45.4061 162.369 46.0482 162.369C46.48 162.369 46.882 162.439 47.2542 162.578C47.6292 162.714 47.9559 162.92 48.2343 163.196C48.5155 163.472 48.7343 163.818 48.8905 164.236C49.0468 164.651 49.1249 165.136 49.1249 165.693V166.192H43.5979V165.067H47.4161C47.4161 164.805 47.3593 164.574 47.2456 164.372C47.132 164.17 46.9743 164.013 46.7726 163.899C46.5738 163.783 46.3422 163.724 46.078 163.724C45.8025 163.724 45.5581 163.788 45.3451 163.916C45.1348 164.041 44.9701 164.21 44.8507 164.423C44.7314 164.634 44.6704 164.868 44.6675 165.126V166.196C44.6675 166.52 44.7272 166.8 44.8465 167.036C44.9686 167.271 45.1405 167.453 45.3621 167.581C45.5837 167.709 45.8465 167.773 46.1505 167.773C46.3522 167.773 46.5368 167.744 46.7044 167.688C46.8721 167.631 47.0155 167.545 47.1348 167.432C47.2542 167.318 47.3451 167.179 47.4076 167.014L49.0865 167.125C49.0013 167.528 48.8266 167.881 48.5624 168.182C48.301 168.48 47.963 168.713 47.5482 168.881C47.1363 169.045 46.6604 169.128 46.1206 169.128ZM50.1776 169V162.455H51.9375V163.597H52.0057C52.125 163.19 52.3253 162.884 52.6065 162.676C52.8878 162.466 53.2116 162.361 53.5781 162.361C53.669 162.361 53.767 162.366 53.8722 162.378C53.9773 162.389 54.0696 162.405 54.1491 162.425V164.036C54.0639 164.01 53.946 163.987 53.7955 163.967C53.6449 163.947 53.5071 163.938 53.3821 163.938C53.1151 163.938 52.8764 163.996 52.6662 164.112C52.4588 164.226 52.294 164.385 52.1719 164.589C52.0526 164.794 51.9929 165.03 51.9929 165.297V169H50.1776ZM56.6762 160.273V161.193C56.6762 161.455 56.6251 161.722 56.5228 161.994C56.4234 162.264 56.2899 162.52 56.1223 162.761C55.9546 163 55.7714 163.203 55.5725 163.371L54.7714 162.898C54.9135 162.673 55.0385 162.425 55.1464 162.152C55.2572 161.879 55.3126 161.562 55.3126 161.202V160.273H56.6762ZM62.3791 164.321L60.7172 164.423C60.6888 164.281 60.6277 164.153 60.5339 164.04C60.4402 163.923 60.3166 163.831 60.1632 163.763C60.0126 163.692 59.8322 163.656 59.622 163.656C59.3408 163.656 59.1035 163.716 58.9104 163.835C58.7172 163.952 58.6206 164.108 58.6206 164.304C58.6206 164.46 58.6831 164.592 58.8081 164.7C58.9331 164.808 59.1476 164.895 59.4516 164.96L60.6362 165.199C61.2726 165.33 61.747 165.54 62.0595 165.83C62.372 166.119 62.5283 166.5 62.5283 166.972C62.5283 167.401 62.4018 167.777 62.149 168.101C61.899 168.425 61.5552 168.678 61.1177 168.859C60.6831 169.038 60.1817 169.128 59.6135 169.128C58.747 169.128 58.0567 168.947 57.5425 168.587C57.0311 168.223 56.7314 167.729 56.6433 167.104L58.4288 167.01C58.4828 167.274 58.6135 167.476 58.8209 167.615C59.0283 167.751 59.2939 167.82 59.6177 167.82C59.9359 167.82 60.1916 167.759 60.3848 167.636C60.5808 167.511 60.6802 167.351 60.6831 167.155C60.6802 166.99 60.6106 166.855 60.4743 166.75C60.3379 166.642 60.1277 166.56 59.8436 166.503L58.7101 166.277C58.0709 166.149 57.595 165.928 57.2825 165.612C56.9729 165.297 56.818 164.895 56.818 164.406C56.818 163.986 56.9317 163.624 57.1589 163.32C57.3891 163.016 57.7115 162.781 58.1263 162.616C58.5439 162.452 59.0325 162.369 59.5922 162.369C60.4189 162.369 61.0695 162.544 61.5439 162.893C62.0212 163.243 62.2996 163.719 62.3791 164.321ZM30.5724 178.273V187H28.7272V178.273H30.5724ZM33.7397 183.216V187H31.9244V180.455H33.6545V181.609H33.7312C33.8761 181.229 34.119 180.928 34.4599 180.706C34.8008 180.482 35.2142 180.369 35.7 180.369C36.1545 180.369 36.5508 180.469 36.8889 180.668C37.2269 180.866 37.4897 181.151 37.6772 181.52C37.8647 181.886 37.9585 182.324 37.9585 182.832V187H36.1431V183.156C36.146 182.756 36.0437 182.443 35.8363 182.219C35.6289 181.991 35.3434 181.878 34.9798 181.878C34.7355 181.878 34.5196 181.93 34.3321 182.036C34.1474 182.141 34.0025 182.294 33.8974 182.496C33.7951 182.695 33.7426 182.935 33.7397 183.216ZM42.7388 180.455V181.818H38.797V180.455H42.7388ZM39.6919 178.886H41.5072V184.989C41.5072 185.156 41.5328 185.287 41.5839 185.381C41.6351 185.472 41.7061 185.536 41.797 185.572C41.8908 185.609 41.9987 185.628 42.1209 185.628C42.2061 185.628 42.2913 185.621 42.3765 185.607C42.4618 185.589 42.5271 185.577 42.5726 185.568L42.8581 186.919C42.7672 186.947 42.6393 186.98 42.4746 187.017C42.3098 187.057 42.1095 187.081 41.8737 187.089C41.4362 187.107 41.0527 187.048 40.7231 186.915C40.3964 186.781 40.1422 186.574 39.9604 186.293C39.7785 186.011 39.689 185.656 39.6919 185.227V178.886ZM46.7019 187.128C46.0286 187.128 45.4491 186.991 44.9633 186.719C44.4803 186.443 44.1082 186.054 43.8468 185.551C43.5855 185.045 43.4548 184.447 43.4548 183.757C43.4548 183.084 43.5855 182.493 43.8468 181.984C44.1082 181.476 44.4761 181.08 44.9505 180.795C45.4278 180.511 45.9874 180.369 46.6295 180.369C47.0613 180.369 47.4633 180.439 47.8355 180.578C48.2105 180.714 48.5372 180.92 48.8156 181.196C49.0968 181.472 49.3156 181.818 49.4718 182.236C49.6281 182.651 49.7062 183.136 49.7062 183.693V184.192H44.1792V183.067H47.9974C47.9974 182.805 47.9406 182.574 47.8269 182.372C47.7133 182.17 47.5556 182.013 47.3539 181.899C47.1551 181.783 46.9235 181.724 46.6593 181.724C46.3837 181.724 46.1394 181.788 45.9264 181.916C45.7161 182.041 45.5514 182.21 45.432 182.423C45.3127 182.634 45.2516 182.868 45.2488 183.126V184.196C45.2488 184.52 45.3085 184.8 45.4278 185.036C45.5499 185.271 45.7218 185.453 45.9434 185.581C46.165 185.709 46.4278 185.773 46.7318 185.773C46.9335 185.773 47.1181 185.744 47.2857 185.688C47.4534 185.631 47.5968 185.545 47.7161 185.432C47.8355 185.318 47.9264 185.179 47.9889 185.014L49.6678 185.125C49.5826 185.528 49.4079 185.881 49.1437 186.182C48.8823 186.48 48.5443 186.713 48.1295 186.881C47.7176 187.045 47.2417 187.128 46.7019 187.128ZM52.5742 183.216V187H50.7589V180.455H52.489V181.609H52.5657C52.7106 181.229 52.9535 180.928 53.2944 180.706C53.6353 180.482 54.0486 180.369 54.5344 180.369C54.989 180.369 55.3853 180.469 55.7233 180.668C56.0614 180.866 56.3242 181.151 56.5117 181.52C56.6992 181.886 56.7929 182.324 56.7929 182.832V187H54.9776V183.156C54.9804 182.756 54.8782 182.443 54.6708 182.219C54.4634 181.991 54.1779 181.878 53.8143 181.878C53.5699 181.878 53.354 181.93 53.1665 182.036C52.9819 182.141 52.837 182.294 52.7319 182.496C52.6296 182.695 52.577 182.935 52.5742 183.216ZM61.5732 180.455V181.818H57.6315V180.455H61.5732ZM58.5264 178.886H60.3417V184.989C60.3417 185.156 60.3673 185.287 60.4184 185.381C60.4695 185.472 60.5406 185.536 60.6315 185.572C60.7252 185.609 60.8332 185.628 60.9553 185.628C61.0406 185.628 61.1258 185.621 61.211 185.607C61.2962 185.589 61.3616 185.577 61.407 185.568L61.6925 186.919C61.6016 186.947 61.4738 186.98 61.309 187.017C61.1443 187.057 60.944 187.081 60.7082 187.089C60.2707 187.107 59.8872 187.048 59.5576 186.915C59.2309 186.781 58.9766 186.574 58.7948 186.293C58.613 186.011 58.5235 185.656 58.5264 185.227V178.886Z"
        fill="#E8E8E8" />
    <rect x="352" y="134" width="144" height="80" rx="15" stroke="#EF5D13" stroke-width="2" />
    <path
        d="M376.537 160.273V169H374.691V160.273H376.537ZM379.704 165.216V169H377.889V162.455H379.619V163.609H379.695C379.84 163.229 380.083 162.928 380.424 162.706C380.765 162.482 381.178 162.369 381.664 162.369C382.119 162.369 382.515 162.469 382.853 162.668C383.191 162.866 383.454 163.151 383.642 163.52C383.829 163.886 383.923 164.324 383.923 164.832V169H382.107V165.156C382.11 164.756 382.008 164.443 381.801 164.219C381.593 163.991 381.308 163.878 380.944 163.878C380.7 163.878 380.484 163.93 380.296 164.036C380.112 164.141 379.967 164.294 379.862 164.496C379.759 164.695 379.707 164.935 379.704 165.216ZM390.668 164.321L389.006 164.423C388.977 164.281 388.916 164.153 388.822 164.04C388.729 163.923 388.605 163.831 388.452 163.763C388.301 163.692 388.121 163.656 387.91 163.656C387.629 163.656 387.392 163.716 387.199 163.835C387.006 163.952 386.909 164.108 386.909 164.304C386.909 164.46 386.972 164.592 387.097 164.7C387.222 164.808 387.436 164.895 387.74 164.96L388.925 165.199C389.561 165.33 390.035 165.54 390.348 165.83C390.66 166.119 390.817 166.5 390.817 166.972C390.817 167.401 390.69 167.777 390.437 168.101C390.187 168.425 389.844 168.678 389.406 168.859C388.972 169.038 388.47 169.128 387.902 169.128C387.035 169.128 386.345 168.947 385.831 168.587C385.32 168.223 385.02 167.729 384.932 167.104L386.717 167.01C386.771 167.274 386.902 167.476 387.109 167.615C387.317 167.751 387.582 167.82 387.906 167.82C388.224 167.82 388.48 167.759 388.673 167.636C388.869 167.511 388.969 167.351 388.972 167.155C388.969 166.99 388.899 166.855 388.763 166.75C388.626 166.642 388.416 166.56 388.132 166.503L386.998 166.277C386.359 166.149 385.883 165.928 385.571 165.612C385.261 165.297 385.106 164.895 385.106 164.406C385.106 163.986 385.22 163.624 385.447 163.32C385.677 163.016 386 162.781 386.415 162.616C386.832 162.452 387.321 162.369 387.881 162.369C388.707 162.369 389.358 162.544 389.832 162.893C390.31 163.243 390.588 163.719 390.668 164.321ZM395.309 162.455V163.818H391.368V162.455H395.309ZM392.262 160.886H394.078V166.989C394.078 167.156 394.103 167.287 394.154 167.381C394.206 167.472 394.277 167.536 394.368 167.572C394.461 167.609 394.569 167.628 394.691 167.628C394.777 167.628 394.862 167.621 394.947 167.607C395.032 167.589 395.098 167.577 395.143 167.568L395.429 168.919C395.338 168.947 395.21 168.98 395.045 169.017C394.88 169.057 394.68 169.081 394.444 169.089C394.007 169.107 393.623 169.048 393.294 168.915C392.967 168.781 392.713 168.574 392.531 168.293C392.349 168.011 392.26 167.656 392.262 167.227V160.886ZM398.226 169.124C397.809 169.124 397.437 169.051 397.11 168.906C396.783 168.759 396.525 168.541 396.334 168.254C396.147 167.964 396.053 167.604 396.053 167.172C396.053 166.808 396.12 166.503 396.253 166.256C396.387 166.009 396.569 165.81 396.799 165.659C397.029 165.509 397.29 165.395 397.583 165.318C397.878 165.241 398.188 165.188 398.512 165.156C398.893 165.116 399.199 165.08 399.432 165.045C399.665 165.009 399.834 164.955 399.939 164.884C400.045 164.812 400.097 164.707 400.097 164.568V164.543C400.097 164.273 400.012 164.064 399.841 163.916C399.674 163.768 399.435 163.695 399.125 163.695C398.799 163.695 398.539 163.767 398.346 163.912C398.152 164.054 398.025 164.233 397.962 164.449L396.283 164.312C396.368 163.915 396.536 163.571 396.786 163.281C397.036 162.989 397.358 162.764 397.753 162.608C398.151 162.449 398.611 162.369 399.134 162.369C399.498 162.369 399.846 162.412 400.178 162.497C400.513 162.582 400.81 162.714 401.069 162.893C401.33 163.072 401.536 163.303 401.687 163.584C401.837 163.862 401.912 164.196 401.912 164.585V169H400.191V168.092H400.14C400.035 168.297 399.894 168.477 399.718 168.634C399.542 168.787 399.33 168.908 399.083 168.996C398.836 169.081 398.55 169.124 398.226 169.124ZM398.746 167.871C399.013 167.871 399.249 167.818 399.454 167.713C399.658 167.605 399.819 167.46 399.935 167.278C400.052 167.097 400.11 166.891 400.11 166.661V165.966C400.053 166.003 399.975 166.037 399.875 166.068C399.779 166.097 399.67 166.124 399.547 166.149C399.425 166.172 399.303 166.193 399.181 166.213C399.059 166.23 398.948 166.246 398.848 166.26C398.635 166.291 398.449 166.341 398.29 166.409C398.131 166.477 398.008 166.57 397.92 166.686C397.831 166.8 397.787 166.942 397.787 167.112C397.787 167.359 397.877 167.548 398.056 167.679C398.238 167.807 398.468 167.871 398.746 167.871ZM405.004 165.216V169H403.189V162.455H404.919V163.609H404.996C405.14 163.229 405.383 162.928 405.724 162.706C406.065 162.482 406.479 162.369 406.964 162.369C407.419 162.369 407.815 162.469 408.153 162.668C408.491 162.866 408.754 163.151 408.942 163.52C409.129 163.886 409.223 164.324 409.223 164.832V169H407.408V165.156C407.41 164.756 407.308 164.443 407.101 164.219C406.893 163.991 406.608 163.878 406.244 163.878C406 163.878 405.784 163.93 405.596 164.036C405.412 164.141 405.267 164.294 405.162 164.496C405.06 164.695 405.007 164.935 405.004 165.216ZM414.003 162.455V163.818H410.061V162.455H414.003ZM410.956 160.886H412.772V166.989C412.772 167.156 412.797 167.287 412.848 167.381C412.899 167.472 412.97 167.536 413.061 167.572C413.155 167.609 413.263 167.628 413.385 167.628C413.47 167.628 413.556 167.621 413.641 167.607C413.726 167.589 413.792 167.577 413.837 167.568L414.122 168.919C414.032 168.947 413.904 168.98 413.739 169.017C413.574 169.057 413.374 169.081 413.138 169.089C412.701 169.107 412.317 169.048 411.988 168.915C411.661 168.781 411.407 168.574 411.225 168.293C411.043 168.011 410.953 167.656 410.956 167.227V160.886ZM420.682 169.128C420.009 169.128 419.429 168.991 418.943 168.719C418.46 168.443 418.088 168.054 417.827 167.551C417.566 167.045 417.435 166.447 417.435 165.757C417.435 165.084 417.566 164.493 417.827 163.984C418.088 163.476 418.456 163.08 418.931 162.795C419.408 162.511 419.968 162.369 420.61 162.369C421.041 162.369 421.443 162.439 421.816 162.578C422.191 162.714 422.517 162.92 422.796 163.196C423.077 163.472 423.296 163.818 423.452 164.236C423.608 164.651 423.686 165.136 423.686 165.693V166.192H418.159V165.067H421.977C421.977 164.805 421.921 164.574 421.807 164.372C421.693 164.17 421.536 164.013 421.334 163.899C421.135 163.783 420.904 163.724 420.639 163.724C420.364 163.724 420.119 163.788 419.906 163.916C419.696 164.041 419.531 164.21 419.412 164.423C419.293 164.634 419.232 164.868 419.229 165.126V166.196C419.229 166.52 419.289 166.8 419.408 167.036C419.53 167.271 419.702 167.453 419.923 167.581C420.145 167.709 420.408 167.773 420.712 167.773C420.914 167.773 421.098 167.744 421.266 167.688C421.433 167.631 421.577 167.545 421.696 167.432C421.816 167.318 421.906 167.179 421.969 167.014L423.648 167.125C423.563 167.528 423.388 167.881 423.124 168.182C422.862 168.48 422.524 168.713 422.11 168.881C421.698 169.045 421.222 169.128 420.682 169.128ZM426.139 162.455L427.34 164.743L428.572 162.455H430.434L428.538 165.727L430.485 169H428.632L427.34 166.737L426.071 169H424.196L426.139 165.727L424.264 162.455H426.139ZM434.129 169.128C433.456 169.128 432.876 168.991 432.39 168.719C431.907 168.443 431.535 168.054 431.274 167.551C431.012 167.045 430.882 166.447 430.882 165.757C430.882 165.084 431.012 164.493 431.274 163.984C431.535 163.476 431.903 163.08 432.378 162.795C432.855 162.511 433.414 162.369 434.056 162.369C434.488 162.369 434.89 162.439 435.262 162.578C435.637 162.714 435.964 162.92 436.243 163.196C436.524 163.472 436.743 163.818 436.899 164.236C437.055 164.651 437.133 165.136 437.133 165.693V166.192H431.606V165.067H435.424C435.424 164.805 435.368 164.574 435.254 164.372C435.14 164.17 434.983 164.013 434.781 163.899C434.582 163.783 434.351 163.724 434.086 163.724C433.811 163.724 433.566 163.788 433.353 163.916C433.143 164.041 432.978 164.21 432.859 164.423C432.74 164.634 432.679 164.868 432.676 165.126V166.196C432.676 166.52 432.735 166.8 432.855 167.036C432.977 167.271 433.149 167.453 433.37 167.581C433.592 167.709 433.855 167.773 434.159 167.773C434.36 167.773 434.545 167.744 434.713 167.688C434.88 167.631 435.024 167.545 435.143 167.432C435.262 167.318 435.353 167.179 435.416 167.014L437.095 167.125C437.01 167.528 436.835 167.881 436.571 168.182C436.309 168.48 435.971 168.713 435.556 168.881C435.145 169.045 434.669 169.128 434.129 169.128ZM441.143 169.128C440.473 169.128 439.896 168.986 439.413 168.702C438.933 168.415 438.564 168.017 438.305 167.509C438.049 167 437.922 166.415 437.922 165.753C437.922 165.082 438.051 164.494 438.309 163.989C438.571 163.48 438.942 163.084 439.422 162.8C439.902 162.513 440.473 162.369 441.135 162.369C441.706 162.369 442.206 162.473 442.635 162.68C443.064 162.888 443.403 163.179 443.653 163.554C443.903 163.929 444.041 164.369 444.067 164.875H442.353C442.305 164.548 442.177 164.286 441.97 164.087C441.765 163.885 441.497 163.784 441.165 163.784C440.883 163.784 440.638 163.861 440.427 164.014C440.22 164.165 440.058 164.385 439.942 164.675C439.825 164.964 439.767 165.315 439.767 165.727C439.767 166.145 439.824 166.5 439.937 166.793C440.054 167.085 440.217 167.308 440.427 167.462C440.638 167.615 440.883 167.692 441.165 167.692C441.372 167.692 441.558 167.649 441.723 167.564C441.89 167.479 442.028 167.355 442.136 167.193C442.247 167.028 442.319 166.831 442.353 166.601H444.067C444.038 167.101 443.902 167.541 443.657 167.922C443.416 168.3 443.082 168.595 442.656 168.808C442.23 169.021 441.726 169.128 441.143 169.128ZM449.294 166.213V162.455H451.11V169H449.367V167.811H449.299C449.151 168.195 448.905 168.503 448.561 168.736C448.22 168.969 447.804 169.085 447.313 169.085C446.875 169.085 446.49 168.986 446.158 168.787C445.826 168.588 445.566 168.305 445.378 167.939C445.193 167.572 445.1 167.134 445.097 166.622V162.455H446.912V166.298C446.915 166.685 447.019 166.99 447.223 167.214C447.428 167.439 447.702 167.551 448.046 167.551C448.264 167.551 448.469 167.501 448.659 167.402C448.85 167.3 449.003 167.149 449.12 166.95C449.239 166.751 449.297 166.506 449.294 166.213ZM455.911 162.455V163.818H451.969V162.455H455.911ZM452.864 160.886H454.68V166.989C454.68 167.156 454.705 167.287 454.756 167.381C454.808 167.472 454.879 167.536 454.969 167.572C455.063 167.609 455.171 167.628 455.293 167.628C455.379 167.628 455.464 167.621 455.549 167.607C455.634 167.589 455.7 167.577 455.745 167.568L456.031 168.919C455.94 168.947 455.812 168.98 455.647 169.017C455.482 169.057 455.282 169.081 455.046 169.089C454.609 169.107 454.225 169.048 453.896 168.915C453.569 168.781 453.315 168.574 453.133 168.293C452.951 168.011 452.861 167.656 452.864 167.227V160.886ZM456.962 169V162.455H458.777V169H456.962ZM457.874 161.611C457.604 161.611 457.372 161.521 457.179 161.342C456.989 161.161 456.894 160.943 456.894 160.69C456.894 160.44 456.989 160.226 457.179 160.047C457.372 159.865 457.604 159.774 457.874 159.774C458.144 159.774 458.374 159.865 458.564 160.047C458.757 160.226 458.854 160.44 458.854 160.69C458.854 160.943 458.757 161.161 458.564 161.342C458.374 161.521 458.144 161.611 457.874 161.611ZM463.057 169.128C462.395 169.128 461.822 168.987 461.339 168.706C460.859 168.422 460.488 168.027 460.227 167.521C459.966 167.013 459.835 166.423 459.835 165.753C459.835 165.077 459.966 164.486 460.227 163.98C460.488 163.472 460.859 163.077 461.339 162.795C461.822 162.511 462.395 162.369 463.057 162.369C463.719 162.369 464.29 162.511 464.77 162.795C465.253 163.077 465.625 163.472 465.886 163.98C466.148 164.486 466.278 165.077 466.278 165.753C466.278 166.423 466.148 167.013 465.886 167.521C465.625 168.027 465.253 168.422 464.77 168.706C464.29 168.987 463.719 169.128 463.057 169.128ZM463.065 167.722C463.366 167.722 463.618 167.636 463.819 167.466C464.021 167.293 464.173 167.057 464.275 166.759C464.381 166.46 464.433 166.121 464.433 165.74C464.433 165.359 464.381 165.02 464.275 164.722C464.173 164.423 464.021 164.187 463.819 164.014C463.618 163.841 463.366 163.754 463.065 163.754C462.761 163.754 462.506 163.841 462.298 164.014C462.094 164.187 461.939 164.423 461.834 164.722C461.731 165.02 461.68 165.359 461.68 165.74C461.68 166.121 461.731 166.46 461.834 166.759C461.939 167.057 462.094 167.293 462.298 167.466C462.506 167.636 462.761 167.722 463.065 167.722ZM469.142 165.216V169H467.327V162.455H469.057V163.609H469.133C469.278 163.229 469.521 162.928 469.862 162.706C470.203 162.482 470.616 162.369 471.102 162.369C471.557 162.369 471.953 162.469 472.291 162.668C472.629 162.866 472.892 163.151 473.079 163.52C473.267 163.886 473.361 164.324 473.361 164.832V169H471.545V165.156C471.548 164.756 471.446 164.443 471.239 164.219C471.031 163.991 470.746 163.878 470.382 163.878C470.138 163.878 469.922 163.93 469.734 164.036C469.55 164.141 469.405 164.294 469.3 164.496C469.197 164.695 469.145 164.935 469.142 165.216ZM386.411 187.128C385.749 187.128 385.177 186.987 384.694 186.706C384.213 186.422 383.843 186.027 383.581 185.521C383.32 185.013 383.189 184.423 383.189 183.753C383.189 183.077 383.32 182.486 383.581 181.98C383.843 181.472 384.213 181.077 384.694 180.795C385.177 180.511 385.749 180.369 386.411 180.369C387.073 180.369 387.644 180.511 388.124 180.795C388.607 181.077 388.979 181.472 389.24 181.98C389.502 182.486 389.633 183.077 389.633 183.753C389.633 184.423 389.502 185.013 389.24 185.521C388.979 186.027 388.607 186.422 388.124 186.706C387.644 186.987 387.073 187.128 386.411 187.128ZM386.419 185.722C386.721 185.722 386.972 185.636 387.174 185.466C387.375 185.293 387.527 185.057 387.63 184.759C387.735 184.46 387.787 184.121 387.787 183.74C387.787 183.359 387.735 183.02 387.63 182.722C387.527 182.423 387.375 182.187 387.174 182.014C386.972 181.841 386.721 181.754 386.419 181.754C386.115 181.754 385.86 181.841 385.652 182.014C385.448 182.187 385.293 182.423 385.188 182.722C385.086 183.02 385.034 183.359 385.034 183.74C385.034 184.121 385.086 184.46 385.188 184.759C385.293 185.057 385.448 185.293 385.652 185.466C385.86 185.636 386.115 185.722 386.419 185.722ZM392.496 183.216V187H390.681V180.455H392.411V181.609H392.488C392.633 181.229 392.876 180.928 393.216 180.706C393.557 180.482 393.971 180.369 394.456 180.369C394.911 180.369 395.307 180.469 395.645 180.668C395.983 180.866 396.246 181.151 396.434 181.52C396.621 181.886 396.715 182.324 396.715 182.832V187H394.9V183.156C394.902 182.756 394.8 182.443 394.593 182.219C394.385 181.991 394.1 181.878 393.736 181.878C393.492 181.878 393.276 181.93 393.089 182.036C392.904 182.141 392.759 182.294 392.654 182.496C392.552 182.695 392.499 182.935 392.496 183.216ZM403.071 187.107C402.574 187.107 402.124 186.979 401.72 186.723C401.32 186.464 401.001 186.085 400.766 185.585C400.533 185.082 400.416 184.466 400.416 183.736C400.416 182.986 400.537 182.362 400.778 181.865C401.02 181.365 401.341 180.991 401.741 180.744C402.145 180.494 402.587 180.369 403.067 180.369C403.433 180.369 403.739 180.432 403.983 180.557C404.23 180.679 404.429 180.832 404.58 181.017C404.733 181.199 404.849 181.378 404.929 181.554H404.984V178.273H406.795V187H405.006V185.952H404.929C404.844 186.134 404.723 186.314 404.567 186.493C404.413 186.669 404.213 186.815 403.966 186.932C403.722 187.048 403.423 187.107 403.071 187.107ZM403.646 185.662C403.939 185.662 404.186 185.582 404.388 185.423C404.592 185.261 404.749 185.036 404.857 184.746C404.967 184.456 405.023 184.116 405.023 183.727C405.023 183.338 404.969 183 404.861 182.713C404.753 182.426 404.597 182.205 404.392 182.048C404.187 181.892 403.939 181.814 403.646 181.814C403.348 181.814 403.097 181.895 402.892 182.057C402.687 182.219 402.533 182.443 402.428 182.73C402.322 183.017 402.27 183.349 402.27 183.727C402.27 184.108 402.322 184.445 402.428 184.737C402.536 185.027 402.69 185.254 402.892 185.419C403.097 185.581 403.348 185.662 403.646 185.662ZM411.139 187.128C410.466 187.128 409.886 186.991 409.4 186.719C408.917 186.443 408.545 186.054 408.284 185.551C408.022 185.045 407.892 184.447 407.892 183.757C407.892 183.084 408.022 182.493 408.284 181.984C408.545 181.476 408.913 181.08 409.388 180.795C409.865 180.511 410.424 180.369 411.067 180.369C411.498 180.369 411.9 180.439 412.272 180.578C412.647 180.714 412.974 180.92 413.253 181.196C413.534 181.472 413.753 181.818 413.909 182.236C414.065 182.651 414.143 183.136 414.143 183.693V184.192H408.616V183.067H412.434C412.434 182.805 412.378 182.574 412.264 182.372C412.15 182.17 411.993 182.013 411.791 181.899C411.592 181.783 411.361 181.724 411.096 181.724C410.821 181.724 410.576 181.788 410.363 181.916C410.153 182.041 409.988 182.21 409.869 182.423C409.75 182.634 409.689 182.868 409.686 183.126V184.196C409.686 184.52 409.745 184.8 409.865 185.036C409.987 185.271 410.159 185.453 410.38 185.581C410.602 185.709 410.865 185.773 411.169 185.773C411.37 185.773 411.555 185.744 411.723 185.688C411.89 185.631 412.034 185.545 412.153 185.432C412.272 185.318 412.363 185.179 412.426 185.014L414.105 185.125C414.02 185.528 413.845 185.881 413.581 186.182C413.319 186.48 412.981 186.713 412.567 186.881C412.155 187.045 411.679 187.128 411.139 187.128ZM420.642 182.321L418.98 182.423C418.952 182.281 418.89 182.153 418.797 182.04C418.703 181.923 418.579 181.831 418.426 181.763C418.275 181.692 418.095 181.656 417.885 181.656C417.604 181.656 417.366 181.716 417.173 181.835C416.98 181.952 416.883 182.108 416.883 182.304C416.883 182.46 416.946 182.592 417.071 182.7C417.196 182.808 417.41 182.895 417.714 182.96L418.899 183.199C419.535 183.33 420.01 183.54 420.322 183.83C420.635 184.119 420.791 184.5 420.791 184.972C420.791 185.401 420.665 185.777 420.412 186.101C420.162 186.425 419.818 186.678 419.381 186.859C418.946 187.038 418.444 187.128 417.876 187.128C417.01 187.128 416.319 186.947 415.805 186.587C415.294 186.223 414.994 185.729 414.906 185.104L416.692 185.01C416.746 185.274 416.876 185.476 417.084 185.615C417.291 185.751 417.557 185.82 417.881 185.82C418.199 185.82 418.454 185.759 418.648 185.636C418.844 185.511 418.943 185.351 418.946 185.155C418.943 184.99 418.873 184.855 418.737 184.75C418.601 184.642 418.39 184.56 418.106 184.503L416.973 184.277C416.334 184.149 415.858 183.928 415.545 183.612C415.236 183.297 415.081 182.895 415.081 182.406C415.081 181.986 415.194 181.624 415.422 181.32C415.652 181.016 415.974 180.781 416.389 180.616C416.807 180.452 417.295 180.369 417.855 180.369C418.682 180.369 419.332 180.544 419.807 180.893C420.284 181.243 420.562 181.719 420.642 182.321ZM425.284 180.455V181.818H421.342V180.455H425.284ZM422.237 178.886H424.052V184.989C424.052 185.156 424.078 185.287 424.129 185.381C424.18 185.472 424.251 185.536 424.342 185.572C424.436 185.609 424.544 185.628 424.666 185.628C424.751 185.628 424.836 185.621 424.921 185.607C425.007 185.589 425.072 185.577 425.117 185.568L425.403 186.919C425.312 186.947 425.184 186.98 425.019 187.017C424.855 187.057 424.654 187.081 424.419 187.089C423.981 187.107 423.598 187.048 423.268 186.915C422.941 186.781 422.687 186.574 422.505 186.293C422.323 186.011 422.234 185.656 422.237 185.227V178.886ZM426.334 187V180.455H428.15V187H426.334ZM427.246 179.611C426.976 179.611 426.745 179.521 426.552 179.342C426.361 179.161 426.266 178.943 426.266 178.69C426.266 178.44 426.361 178.226 426.552 178.047C426.745 177.865 426.976 177.774 427.246 177.774C427.516 177.774 427.746 177.865 427.936 178.047C428.13 178.226 428.226 178.44 428.226 178.69C428.226 178.943 428.13 179.161 427.936 179.342C427.746 179.521 427.516 179.611 427.246 179.611ZM431.287 183.216V187H429.472V180.455H431.202V181.609H431.279C431.423 181.229 431.666 180.928 432.007 180.706C432.348 180.482 432.762 180.369 433.247 180.369C433.702 180.369 434.098 180.469 434.436 180.668C434.774 180.866 435.037 181.151 435.225 181.52C435.412 181.886 435.506 182.324 435.506 182.832V187H433.69V183.156C433.693 182.756 433.591 182.443 433.384 182.219C433.176 181.991 432.891 181.878 432.527 181.878C432.283 181.878 432.067 181.93 431.879 182.036C431.695 182.141 431.55 182.294 431.445 182.496C431.342 182.695 431.29 182.935 431.287 183.216ZM438.671 187.124C438.253 187.124 437.881 187.051 437.555 186.906C437.228 186.759 436.969 186.541 436.779 186.254C436.592 185.964 436.498 185.604 436.498 185.172C436.498 184.808 436.565 184.503 436.698 184.256C436.832 184.009 437.013 183.81 437.244 183.659C437.474 183.509 437.735 183.395 438.028 183.318C438.323 183.241 438.633 183.188 438.957 183.156C439.337 183.116 439.644 183.08 439.877 183.045C440.11 183.009 440.279 182.955 440.384 182.884C440.489 182.812 440.542 182.707 440.542 182.568V182.543C440.542 182.273 440.457 182.064 440.286 181.916C440.119 181.768 439.88 181.695 439.57 181.695C439.244 181.695 438.984 181.767 438.79 181.912C438.597 182.054 438.469 182.233 438.407 182.449L436.728 182.312C436.813 181.915 436.981 181.571 437.231 181.281C437.481 180.989 437.803 180.764 438.198 180.608C438.596 180.449 439.056 180.369 439.579 180.369C439.942 180.369 440.29 180.412 440.623 180.497C440.958 180.582 441.255 180.714 441.513 180.893C441.775 181.072 441.981 181.303 442.131 181.584C442.282 181.862 442.357 182.196 442.357 182.585V187H440.636V186.092H440.584C440.479 186.297 440.339 186.477 440.163 186.634C439.986 186.787 439.775 186.908 439.528 186.996C439.28 187.081 438.995 187.124 438.671 187.124ZM439.191 185.871C439.458 185.871 439.694 185.818 439.898 185.713C440.103 185.605 440.263 185.46 440.38 185.278C440.496 185.097 440.555 184.891 440.555 184.661V183.966C440.498 184.003 440.42 184.037 440.32 184.068C440.224 184.097 440.114 184.124 439.992 184.149C439.87 184.172 439.748 184.193 439.626 184.213C439.503 184.23 439.393 184.246 439.293 184.26C439.08 184.291 438.894 184.341 438.735 184.409C438.576 184.477 438.452 184.57 438.364 184.686C438.276 184.8 438.232 184.942 438.232 185.112C438.232 185.359 438.322 185.548 438.501 185.679C438.682 185.807 438.913 185.871 439.191 185.871ZM447.115 180.455V181.818H443.173V180.455H447.115ZM444.068 178.886H445.884V184.989C445.884 185.156 445.909 185.287 445.96 185.381C446.011 185.472 446.082 185.536 446.173 185.572C446.267 185.609 446.375 185.628 446.497 185.628C446.582 185.628 446.668 185.621 446.753 185.607C446.838 185.589 446.903 185.577 446.949 185.568L447.234 186.919C447.143 186.947 447.016 186.98 446.851 187.017C446.686 187.057 446.486 187.081 446.25 187.089C445.813 187.107 445.429 187.048 445.099 186.915C444.773 186.781 444.518 186.574 444.337 186.293C444.155 186.011 444.065 185.656 444.068 185.227V178.886ZM448.166 187V180.455H449.981V187H448.166ZM449.078 179.611C448.808 179.611 448.576 179.521 448.383 179.342C448.193 179.161 448.097 178.943 448.097 178.69C448.097 178.44 448.193 178.226 448.383 178.047C448.576 177.865 448.808 177.774 449.078 177.774C449.347 177.774 449.578 177.865 449.768 178.047C449.961 178.226 450.058 178.44 450.058 178.69C450.058 178.943 449.961 179.161 449.768 179.342C449.578 179.521 449.347 179.611 449.078 179.611ZM454.261 187.128C453.599 187.128 453.026 186.987 452.543 186.706C452.063 186.422 451.692 186.027 451.431 185.521C451.17 185.013 451.039 184.423 451.039 183.753C451.039 183.077 451.17 182.486 451.431 181.98C451.692 181.472 452.063 181.077 452.543 180.795C453.026 180.511 453.599 180.369 454.261 180.369C454.922 180.369 455.493 180.511 455.974 180.795C456.457 181.077 456.829 181.472 457.09 181.98C457.351 182.486 457.482 183.077 457.482 183.753C457.482 184.423 457.351 185.013 457.09 185.521C456.829 186.027 456.457 186.422 455.974 186.706C455.493 186.987 454.922 187.128 454.261 187.128ZM454.269 185.722C454.57 185.722 454.822 185.636 455.023 185.466C455.225 185.293 455.377 185.057 455.479 184.759C455.584 184.46 455.637 184.121 455.637 183.74C455.637 183.359 455.584 183.02 455.479 182.722C455.377 182.423 455.225 182.187 455.023 182.014C454.822 181.841 454.57 181.754 454.269 181.754C453.965 181.754 453.709 181.841 453.502 182.014C453.297 182.187 453.143 182.423 453.037 182.722C452.935 183.02 452.884 183.359 452.884 183.74C452.884 184.121 452.935 184.46 453.037 184.759C453.143 185.057 453.297 185.293 453.502 185.466C453.709 185.636 453.965 185.722 454.269 185.722ZM460.346 183.216V187H458.53V180.455H460.261V181.609H460.337C460.482 181.229 460.725 180.928 461.066 180.706C461.407 180.482 461.82 180.369 462.306 180.369C462.761 180.369 463.157 180.469 463.495 180.668C463.833 180.866 464.096 181.151 464.283 181.52C464.471 181.886 464.565 182.324 464.565 182.832V187H462.749V183.156C462.752 182.756 462.65 182.443 462.442 182.219C462.235 181.991 461.95 181.878 461.586 181.878C461.342 181.878 461.126 181.93 460.938 182.036C460.754 182.141 460.609 182.294 460.504 182.496C460.401 182.695 460.349 182.935 460.346 183.216Z"
        fill="#E8E8E8" />
    <rect x="1" y="295" width="88" height="48" rx="15" fill="#252525" stroke="#5D5D5D" stroke-width="2" />
    <path
        d="M30.8743 317.328H29.0079C28.9738 317.087 28.9042 316.872 28.7991 316.685C28.6939 316.494 28.559 316.332 28.3942 316.199C28.2295 316.065 28.0391 315.963 27.8232 315.892C27.6101 315.821 27.3786 315.786 27.1286 315.786C26.6769 315.786 26.2834 315.898 25.9482 316.122C25.613 316.344 25.353 316.668 25.1684 317.094C24.9837 317.517 24.8914 318.031 24.8914 318.636C24.8914 319.259 24.9837 319.781 25.1684 320.205C25.3559 320.628 25.6172 320.947 25.9525 321.163C26.2877 321.379 26.6755 321.487 27.1158 321.487C27.363 321.487 27.5917 321.455 27.8019 321.389C28.015 321.324 28.2039 321.229 28.3687 321.104C28.5334 320.976 28.6698 320.821 28.7777 320.639C28.8885 320.457 28.9652 320.25 29.0079 320.017L30.8743 320.026C30.826 320.426 30.7053 320.812 30.5121 321.185C30.3218 321.554 30.0647 321.885 29.7408 322.178C29.4198 322.467 29.0363 322.697 28.5902 322.868C28.1471 323.036 27.6456 323.119 27.086 323.119C26.3076 323.119 25.6116 322.943 24.9979 322.591C24.3871 322.239 23.9042 321.729 23.5491 321.061C23.1968 320.393 23.0206 319.585 23.0206 318.636C23.0206 317.685 23.1996 316.875 23.5576 316.207C23.9155 315.54 24.4013 315.031 25.015 314.682C25.6286 314.33 26.3189 314.153 27.086 314.153C27.5917 314.153 28.0604 314.224 28.4922 314.366C28.9269 314.509 29.3118 314.716 29.6471 314.989C29.9823 315.259 30.255 315.589 30.4652 315.982C30.6783 316.374 30.8147 316.822 30.8743 317.328ZM33.8467 319.216V323H32.0314V314.273H33.7956V317.609H33.8723C34.02 317.223 34.2587 316.92 34.5882 316.702C34.9178 316.48 35.3311 316.369 35.8283 316.369C36.2828 316.369 36.6791 316.469 37.0172 316.668C37.3581 316.864 37.6223 317.146 37.8098 317.516C38.0002 317.882 38.0939 318.321 38.0911 318.832V323H36.2757V319.156C36.2786 318.753 36.1763 318.439 35.9689 318.214C35.7644 317.99 35.4774 317.878 35.1081 317.878C34.8609 317.878 34.6422 317.93 34.4519 318.036C34.2644 318.141 34.1166 318.294 34.0087 318.496C33.9036 318.695 33.8496 318.935 33.8467 319.216ZM41.2542 323.124C40.8365 323.124 40.4644 323.051 40.1377 322.906C39.811 322.759 39.5525 322.541 39.3621 322.254C39.1746 321.964 39.0809 321.604 39.0809 321.172C39.0809 320.808 39.1476 320.503 39.2811 320.256C39.4147 320.009 39.5965 319.81 39.8266 319.659C40.0567 319.509 40.3181 319.395 40.6107 319.318C40.9061 319.241 41.2158 319.188 41.5397 319.156C41.9204 319.116 42.2272 319.08 42.4601 319.045C42.6931 319.009 42.8621 318.955 42.9672 318.884C43.0723 318.812 43.1249 318.707 43.1249 318.568V318.543C43.1249 318.273 43.0397 318.064 42.8692 317.916C42.7016 317.768 42.463 317.695 42.1533 317.695C41.8266 317.695 41.5667 317.767 41.3735 317.912C41.1803 318.054 41.0525 318.233 40.99 318.449L39.311 318.312C39.3962 317.915 39.5638 317.571 39.8138 317.281C40.0638 316.989 40.3863 316.764 40.7811 316.608C41.1789 316.449 41.6391 316.369 42.1618 316.369C42.5255 316.369 42.8735 316.412 43.2059 316.497C43.5411 316.582 43.838 316.714 44.0965 316.893C44.3579 317.072 44.5638 317.303 44.7144 317.584C44.865 317.862 44.9402 318.196 44.9402 318.585V323H43.2186V322.092H43.1675C43.0624 322.297 42.9218 322.477 42.7456 322.634C42.5695 322.787 42.3579 322.908 42.1107 322.996C41.8635 323.081 41.578 323.124 41.2542 323.124ZM41.774 321.871C42.0411 321.871 42.2769 321.818 42.4814 321.713C42.686 321.605 42.8465 321.46 42.963 321.278C43.0794 321.097 43.1377 320.891 43.1377 320.661V319.966C43.0809 320.003 43.0027 320.037 42.9033 320.068C42.8067 320.097 42.6973 320.124 42.5752 320.149C42.453 320.172 42.3309 320.193 42.2087 320.213C42.0865 320.23 41.9757 320.246 41.8763 320.26C41.6633 320.291 41.4772 320.341 41.3181 320.409C41.159 320.477 41.0354 320.57 40.9473 320.686C40.8593 320.8 40.8152 320.942 40.8152 321.112C40.8152 321.359 40.9047 321.548 41.0837 321.679C41.2655 321.807 41.4956 321.871 41.774 321.871ZM46.2166 323V316.455H48.032V323H46.2166ZM47.1286 315.611C46.8587 315.611 46.6271 315.521 46.4339 315.342C46.2436 315.161 46.1484 314.943 46.1484 314.69C46.1484 314.44 46.2436 314.226 46.4339 314.047C46.6271 313.865 46.8587 313.774 47.1286 313.774C47.3984 313.774 47.6286 313.865 47.8189 314.047C48.0121 314.226 48.1087 314.44 48.1087 314.69C48.1087 314.943 48.0121 315.161 47.8189 315.342C47.6286 315.521 47.3984 315.611 47.1286 315.611ZM51.1695 319.216V323H49.3542V316.455H51.0843V317.609H51.161C51.3059 317.229 51.5488 316.928 51.8897 316.706C52.2306 316.482 52.6439 316.369 53.1297 316.369C53.5843 316.369 53.9806 316.469 54.3186 316.668C54.6567 316.866 54.9195 317.151 55.107 317.52C55.2945 317.886 55.3882 318.324 55.3882 318.832V323H53.5729V319.156C53.5757 318.756 53.4735 318.443 53.2661 318.219C53.0587 317.991 52.7732 317.878 52.4095 317.878C52.1652 317.878 51.9493 317.93 51.7618 318.036C51.5772 318.141 51.4323 318.294 51.3272 318.496C51.2249 318.695 51.1723 318.935 51.1695 319.216ZM60.8707 323H58.8934L61.9062 314.273H64.284L67.2926 323H65.3153L63.1292 316.267H63.061L60.8707 323ZM60.7471 319.57H65.4176V321.01H60.7471V319.57Z"
        fill="#E8E8E8" />
    <rect x="172" y="295" width="125" height="48" rx="15" fill="#252525" stroke="#5D5D5D" stroke-width="2" />
    <path
        d="M192.281 323H190.304L193.316 314.273H195.694L198.703 323H196.726L194.539 316.267H194.471L192.281 323ZM192.157 319.57H196.828V321.01H192.157V319.57ZM201.104 316.455L202.306 318.743L203.537 316.455H205.4L203.503 319.727L205.451 323H203.597L202.306 320.737L201.036 323H199.161L201.104 319.727L199.229 316.455H201.104ZM209.094 323.128C208.421 323.128 207.842 322.991 207.356 322.719C206.873 322.443 206.501 322.054 206.239 321.551C205.978 321.045 205.847 320.447 205.847 319.757C205.847 319.084 205.978 318.493 206.239 317.984C206.501 317.476 206.869 317.08 207.343 316.795C207.82 316.511 208.38 316.369 209.022 316.369C209.454 316.369 209.856 316.439 210.228 316.578C210.603 316.714 210.93 316.92 211.208 317.196C211.489 317.472 211.708 317.818 211.864 318.236C212.02 318.651 212.099 319.136 212.099 319.693V320.192H206.572V319.067H210.39C210.39 318.805 210.333 318.574 210.219 318.372C210.106 318.17 209.948 318.013 209.746 317.899C209.547 317.783 209.316 317.724 209.052 317.724C208.776 317.724 208.532 317.788 208.319 317.916C208.109 318.041 207.944 318.21 207.824 318.423C207.705 318.634 207.644 318.868 207.641 319.126V320.196C207.641 320.52 207.701 320.8 207.82 321.036C207.942 321.271 208.114 321.453 208.336 321.581C208.557 321.709 208.82 321.773 209.124 321.773C209.326 321.773 209.511 321.744 209.678 321.688C209.846 321.631 209.989 321.545 210.109 321.432C210.228 321.318 210.319 321.179 210.381 321.014L212.06 321.125C211.975 321.528 211.8 321.881 211.536 322.182C211.275 322.48 210.937 322.713 210.522 322.881C210.11 323.045 209.634 323.128 209.094 323.128ZM214.967 314.273V323H213.151V314.273H214.967ZM218.155 323.124C217.738 323.124 217.366 323.051 217.039 322.906C216.712 322.759 216.454 322.541 216.263 322.254C216.076 321.964 215.982 321.604 215.982 321.172C215.982 320.808 216.049 320.503 216.182 320.256C216.316 320.009 216.498 319.81 216.728 319.659C216.958 319.509 217.219 319.395 217.512 319.318C217.807 319.241 218.117 319.188 218.441 319.156C218.821 319.116 219.128 319.08 219.361 319.045C219.594 319.009 219.763 318.955 219.868 318.884C219.973 318.812 220.026 318.707 220.026 318.568V318.543C220.026 318.273 219.941 318.064 219.77 317.916C219.603 317.768 219.364 317.695 219.054 317.695C218.728 317.695 218.468 317.767 218.275 317.912C218.081 318.054 217.954 318.233 217.891 318.449L216.212 318.312C216.297 317.915 216.465 317.571 216.715 317.281C216.965 316.989 217.287 316.764 217.682 316.608C218.08 316.449 218.54 316.369 219.063 316.369C219.427 316.369 219.775 316.412 220.107 316.497C220.442 316.582 220.739 316.714 220.998 316.893C221.259 317.072 221.465 317.303 221.616 317.584C221.766 317.862 221.841 318.196 221.841 318.585V323H220.12V322.092H220.069C219.964 322.297 219.823 322.477 219.647 322.634C219.471 322.787 219.259 322.908 219.012 322.996C218.765 323.081 218.479 323.124 218.155 323.124ZM218.675 321.871C218.942 321.871 219.178 321.818 219.383 321.713C219.587 321.605 219.748 321.46 219.864 321.278C219.981 321.097 220.039 320.891 220.039 320.661V319.966C219.982 320.003 219.904 320.037 219.804 320.068C219.708 320.097 219.598 320.124 219.476 320.149C219.354 320.172 219.232 320.193 219.11 320.213C218.988 320.23 218.877 320.246 218.777 320.26C218.564 320.291 218.378 320.341 218.219 320.409C218.06 320.477 217.937 320.57 217.848 320.686C217.76 320.8 217.716 320.942 217.716 321.112C217.716 321.359 217.806 321.548 217.985 321.679C218.167 321.807 218.397 321.871 218.675 321.871ZM223.118 323V316.455H224.878V317.597H224.946C225.065 317.19 225.265 316.884 225.547 316.676C225.828 316.466 226.152 316.361 226.518 316.361C226.609 316.361 226.707 316.366 226.812 316.378C226.917 316.389 227.01 316.405 227.089 316.425V318.036C227.004 318.01 226.886 317.987 226.736 317.967C226.585 317.947 226.447 317.938 226.322 317.938C226.055 317.938 225.817 317.996 225.606 318.112C225.399 318.226 225.234 318.385 225.112 318.589C224.993 318.794 224.933 319.03 224.933 319.297V323H223.118ZM237.875 314.273V323H236.281L232.484 317.507H232.421V323H230.575V314.273H232.195L235.962 319.761H236.038V314.273H237.875ZM242.216 323.128C241.543 323.128 240.964 322.991 240.478 322.719C239.995 322.443 239.623 322.054 239.361 321.551C239.1 321.045 238.969 320.447 238.969 319.757C238.969 319.084 239.1 318.493 239.361 317.984C239.623 317.476 239.991 317.08 240.465 316.795C240.942 316.511 241.502 316.369 242.144 316.369C242.576 316.369 242.978 316.439 243.35 316.578C243.725 316.714 244.052 316.92 244.33 317.196C244.611 317.472 244.83 317.818 244.986 318.236C245.143 318.651 245.221 319.136 245.221 319.693V320.192H239.694V319.067H243.512C243.512 318.805 243.455 318.574 243.341 318.372C243.228 318.17 243.07 318.013 242.868 317.899C242.67 317.783 242.438 317.724 242.174 317.724C241.898 317.724 241.654 317.788 241.441 317.916C241.231 318.041 241.066 318.21 240.947 318.423C240.827 318.634 240.766 318.868 240.763 319.126V320.196C240.763 320.52 240.823 320.8 240.942 321.036C241.064 321.271 241.236 321.453 241.458 321.581C241.679 321.709 241.942 321.773 242.246 321.773C242.448 321.773 242.633 321.744 242.8 321.688C242.968 321.631 243.111 321.545 243.231 321.432C243.35 321.318 243.441 321.179 243.503 321.014L245.182 321.125C245.097 321.528 244.922 321.881 244.658 322.182C244.397 322.48 244.059 322.713 243.644 322.881C243.232 323.045 242.756 323.128 242.216 323.128ZM249.755 316.455V317.818H245.813V316.455H249.755ZM246.708 314.886H248.523V320.989C248.523 321.156 248.549 321.287 248.6 321.381C248.651 321.472 248.722 321.536 248.813 321.572C248.907 321.609 249.015 321.628 249.137 321.628C249.222 321.628 249.307 321.621 249.393 321.607C249.478 321.589 249.543 321.577 249.589 321.568L249.874 322.919C249.783 322.947 249.655 322.98 249.491 323.017C249.326 323.057 249.126 323.081 248.89 323.089C248.452 323.107 248.069 323.048 247.739 322.915C247.413 322.781 247.158 322.574 246.976 322.293C246.795 322.011 246.705 321.656 246.708 321.227V314.886ZM252.097 323L250.315 316.455H252.152L253.166 320.852H253.226L254.283 316.455H256.085L257.159 320.827H257.214L258.212 316.455H260.044L258.267 323H256.345L255.22 318.884H255.139L254.014 323H252.097ZM263.674 323.128C263.012 323.128 262.439 322.987 261.956 322.706C261.476 322.422 261.106 322.027 260.844 321.521C260.583 321.013 260.452 320.423 260.452 319.753C260.452 319.077 260.583 318.486 260.844 317.98C261.106 317.472 261.476 317.077 261.956 316.795C262.439 316.511 263.012 316.369 263.674 316.369C264.336 316.369 264.907 316.511 265.387 316.795C265.87 317.077 266.242 317.472 266.503 317.98C266.765 318.486 266.895 319.077 266.895 319.753C266.895 320.423 266.765 321.013 266.503 321.521C266.242 322.027 265.87 322.422 265.387 322.706C264.907 322.987 264.336 323.128 263.674 323.128ZM263.682 321.722C263.983 321.722 264.235 321.636 264.437 321.466C264.638 321.293 264.79 321.057 264.893 320.759C264.998 320.46 265.05 320.121 265.05 319.74C265.05 319.359 264.998 319.02 264.893 318.722C264.79 318.423 264.638 318.187 264.437 318.014C264.235 317.841 263.983 317.754 263.682 317.754C263.378 317.754 263.123 317.841 262.915 318.014C262.711 318.187 262.556 318.423 262.451 318.722C262.348 319.02 262.297 319.359 262.297 319.74C262.297 320.121 262.348 320.46 262.451 320.759C262.556 321.057 262.711 321.293 262.915 321.466C263.123 321.636 263.378 321.722 263.682 321.722ZM267.944 323V316.455H269.704V317.597H269.772C269.891 317.19 270.091 316.884 270.373 316.676C270.654 316.466 270.978 316.361 271.344 316.361C271.435 316.361 271.533 316.366 271.638 316.378C271.743 316.389 271.836 316.405 271.915 316.425V318.036C271.83 318.01 271.712 317.987 271.562 317.967C271.411 317.947 271.273 317.938 271.148 317.938C270.881 317.938 270.643 317.996 270.432 318.112C270.225 318.226 270.06 318.385 269.938 318.589C269.819 318.794 269.759 319.03 269.759 319.297V323H267.944ZM274.367 321.116L274.371 318.939H274.635L276.732 316.455H278.816L275.999 319.744H275.568L274.367 321.116ZM272.722 323V314.273H274.537V323H272.722ZM276.813 323L274.887 320.149L276.097 318.866L278.939 323H276.813Z"
        fill="#E8E8E8" />
    <rect x="380" y="295" width="88" height="48" rx="15" fill="#252525" stroke="#5D5D5D" stroke-width="2" />
    <path
        d="M410.396 317.328H408.529C408.495 317.087 408.426 316.872 408.321 316.685C408.215 316.494 408.08 316.332 407.916 316.199C407.751 316.065 407.561 315.963 407.345 315.892C407.132 315.821 406.9 315.786 406.65 315.786C406.198 315.786 405.805 315.898 405.47 316.122C405.134 316.344 404.875 316.668 404.69 317.094C404.505 317.517 404.413 318.031 404.413 318.636C404.413 319.259 404.505 319.781 404.69 320.205C404.877 320.628 405.139 320.947 405.474 321.163C405.809 321.379 406.197 321.487 406.637 321.487C406.884 321.487 407.113 321.455 407.323 321.389C407.536 321.324 407.725 321.229 407.89 321.104C408.055 320.976 408.191 320.821 408.299 320.639C408.41 320.457 408.487 320.25 408.529 320.017L410.396 320.026C410.348 320.426 410.227 320.812 410.034 321.185C409.843 321.554 409.586 321.885 409.262 322.178C408.941 322.467 408.558 322.697 408.112 322.868C407.669 323.036 407.167 323.119 406.607 323.119C405.829 323.119 405.133 322.943 404.519 322.591C403.909 322.239 403.426 321.729 403.071 321.061C402.718 320.393 402.542 319.585 402.542 318.636C402.542 317.685 402.721 316.875 403.079 316.207C403.437 315.54 403.923 315.031 404.536 314.682C405.15 314.33 405.84 314.153 406.607 314.153C407.113 314.153 407.582 314.224 408.014 314.366C408.448 314.509 408.833 314.716 409.169 314.989C409.504 315.259 409.777 315.589 409.987 315.982C410.2 316.374 410.336 316.822 410.396 317.328ZM413.368 319.216V323H411.553V314.273H413.317V317.609H413.394C413.542 317.223 413.78 316.92 414.11 316.702C414.439 316.48 414.853 316.369 415.35 316.369C415.804 316.369 416.201 316.469 416.539 316.668C416.88 316.864 417.144 317.146 417.331 317.516C417.522 317.882 417.615 318.321 417.613 318.832V323H415.797V319.156C415.8 318.753 415.698 318.439 415.49 318.214C415.286 317.99 414.999 317.878 414.63 317.878C414.382 317.878 414.164 317.93 413.973 318.036C413.786 318.141 413.638 318.294 413.53 318.496C413.425 318.695 413.371 318.935 413.368 319.216ZM420.776 323.124C420.358 323.124 419.986 323.051 419.659 322.906C419.332 322.759 419.074 322.541 418.884 322.254C418.696 321.964 418.602 321.604 418.602 321.172C418.602 320.808 418.669 320.503 418.803 320.256C418.936 320.009 419.118 319.81 419.348 319.659C419.578 319.509 419.84 319.395 420.132 319.318C420.428 319.241 420.737 319.188 421.061 319.156C421.442 319.116 421.749 319.08 421.982 319.045C422.215 319.009 422.384 318.955 422.489 318.884C422.594 318.812 422.646 318.707 422.646 318.568V318.543C422.646 318.273 422.561 318.064 422.391 317.916C422.223 317.768 421.984 317.695 421.675 317.695C421.348 317.695 421.088 317.767 420.895 317.912C420.702 318.054 420.574 318.233 420.511 318.449L418.832 318.312C418.918 317.915 419.085 317.571 419.335 317.281C419.585 316.989 419.908 316.764 420.303 316.608C420.7 316.449 421.161 316.369 421.683 316.369C422.047 316.369 422.395 316.412 422.727 316.497C423.063 316.582 423.359 316.714 423.618 316.893C423.879 317.072 424.085 317.303 424.236 317.584C424.386 317.862 424.462 318.196 424.462 318.585V323H422.74V322.092H422.689C422.584 322.297 422.443 322.477 422.267 322.634C422.091 322.787 421.879 322.908 421.632 322.996C421.385 323.081 421.1 323.124 420.776 323.124ZM421.296 321.871C421.563 321.871 421.798 321.818 422.003 321.713C422.207 321.605 422.368 321.46 422.484 321.278C422.601 321.097 422.659 320.891 422.659 320.661V319.966C422.602 320.003 422.524 320.037 422.425 320.068C422.328 320.097 422.219 320.124 422.097 320.149C421.975 320.172 421.852 320.193 421.73 320.213C421.608 320.23 421.497 320.246 421.398 320.26C421.185 320.291 420.999 320.341 420.84 320.409C420.68 320.477 420.557 320.57 420.469 320.686C420.381 320.8 420.337 320.942 420.337 321.112C420.337 321.359 420.426 321.548 420.605 321.679C420.787 321.807 421.017 321.871 421.296 321.871ZM425.738 323V316.455H427.553V323H425.738ZM426.65 315.611C426.38 315.611 426.149 315.521 425.955 315.342C425.765 315.161 425.67 314.943 425.67 314.69C425.67 314.44 425.765 314.226 425.955 314.047C426.149 313.865 426.38 313.774 426.65 313.774C426.92 313.774 427.15 313.865 427.34 314.047C427.534 314.226 427.63 314.44 427.63 314.69C427.63 314.943 427.534 315.161 427.34 315.342C427.15 315.521 426.92 315.611 426.65 315.611ZM430.691 319.216V323H428.876V316.455H430.606V317.609H430.682C430.827 317.229 431.07 316.928 431.411 316.706C431.752 316.482 432.165 316.369 432.651 316.369C433.106 316.369 433.502 316.469 433.84 316.668C434.178 316.866 434.441 317.151 434.628 317.52C434.816 317.886 434.91 318.324 434.91 318.832V323H433.094V319.156C433.097 318.756 432.995 318.443 432.788 318.219C432.58 317.991 432.295 317.878 431.931 317.878C431.687 317.878 431.471 317.93 431.283 318.036C431.099 318.141 430.954 318.294 430.849 318.496C430.746 318.695 430.694 318.935 430.691 319.216ZM438.888 323V314.273H442.382C443.024 314.273 443.56 314.368 443.989 314.558C444.418 314.749 444.74 315.013 444.956 315.351C445.172 315.686 445.28 316.072 445.28 316.51C445.28 316.851 445.212 317.151 445.075 317.409C444.939 317.665 444.752 317.875 444.513 318.04C444.277 318.202 444.007 318.317 443.703 318.385V318.47C444.036 318.484 444.347 318.578 444.636 318.751C444.929 318.925 445.166 319.168 445.348 319.48C445.53 319.79 445.621 320.159 445.621 320.588C445.621 321.051 445.506 321.464 445.276 321.828C445.048 322.189 444.712 322.474 444.266 322.685C443.82 322.895 443.27 323 442.617 323H438.888ZM440.733 321.491H442.237C442.752 321.491 443.127 321.393 443.362 321.197C443.598 320.999 443.716 320.734 443.716 320.405C443.716 320.163 443.658 319.95 443.541 319.766C443.425 319.581 443.259 319.436 443.043 319.331C442.83 319.226 442.575 319.173 442.28 319.173H440.733V321.491ZM440.733 317.925H442.101C442.354 317.925 442.578 317.881 442.774 317.793C442.973 317.702 443.129 317.574 443.243 317.409C443.36 317.244 443.418 317.047 443.418 316.817C443.418 316.501 443.306 316.247 443.081 316.054C442.86 315.861 442.544 315.764 442.135 315.764H440.733V317.925Z"
        fill="#E8E8E8" />
    <path d="M190 30H69C55.7452 30 45 40.7452 45 54V141" stroke="#B3B3B3" stroke-linecap="round" stroke-linejoin="bevel"
        stroke-dasharray="16 10" />
    <path
        d="M423.646 130.354C423.842 130.549 424.158 130.549 424.354 130.354L427.536 127.172C427.731 126.976 427.731 126.66 427.536 126.464C427.34 126.269 427.024 126.269 426.828 126.464L424 129.293L421.172 126.464C420.976 126.269 420.66 126.269 420.464 126.464C420.269 126.66 420.269 126.976 420.464 127.172L423.646 130.354ZM286 29.5C285.724 29.5 285.5 29.7239 285.5 30C285.5 30.2761 285.724 30.5 286 30.5V29.5ZM424.5 130V54H423.5V130H424.5ZM400 29.5H286V30.5H400V29.5ZM424.5 54C424.5 40.469 413.531 29.5 400 29.5V30.5C412.979 30.5 423.5 41.0213 423.5 54H424.5Z"
        fill="#B3B3B3" />
    <path
        d="M238.354 62.6464C238.158 62.4512 237.842 62.4512 237.646 62.6464L234.464 65.8284C234.269 66.0237 234.269 66.3403 234.464 66.5355C234.66 66.7308 234.976 66.7308 235.172 66.5355L238 63.7071L240.828 66.5355C241.024 66.7308 241.34 66.7308 241.536 66.5355C241.731 66.3403 241.731 66.0237 241.536 65.8284L238.354 62.6464ZM423.5 291C423.5 291.276 423.724 291.5 424 291.5C424.276 291.5 424.5 291.276 424.5 291H423.5ZM237.5 63V217H238.5V63H237.5ZM262 241.5H400V240.5H262V241.5ZM423.5 265V291H424.5V265H423.5ZM400 241.5C412.979 241.5 423.5 252.021 423.5 265H424.5C424.5 251.469 413.531 240.5 400 240.5V241.5ZM237.5 217C237.5 230.531 248.469 241.5 262 241.5V240.5C249.021 240.5 238.5 229.979 238.5 217H237.5Z"
        fill="#B3B3B3" />
    <path
        d="M44.6464 291.354C44.8417 291.549 45.1583 291.549 45.3536 291.354L48.5355 288.172C48.7308 287.976 48.7308 287.66 48.5355 287.464C48.3403 287.269 48.0237 287.269 47.8284 287.464L45 290.293L42.1716 287.464C41.9763 287.269 41.6597 287.269 41.4645 287.464C41.2692 287.66 41.2692 287.976 41.4645 288.172L44.6464 291.354ZM45.5 207C45.5 206.724 45.2761 206.5 45 206.5C44.7239 206.5 44.5 206.724 44.5 207H45.5ZM45.5 291V207H44.5V291H45.5Z"
        fill="#B3B3B3" />
    <path
        d="M168.354 319.354C168.549 319.158 168.549 318.842 168.354 318.646L165.172 315.464C164.976 315.269 164.66 315.269 164.464 315.464C164.269 315.66 164.269 315.976 164.464 316.172L167.293 319L164.464 321.828C164.269 322.024 164.269 322.34 164.464 322.536C164.66 322.731 164.976 322.731 165.172 322.536L168.354 319.354ZM93 318.5C92.7239 318.5 92.5 318.724 92.5 319C92.5 319.276 92.7239 319.5 93 319.5V318.5ZM168 318.5H93V319.5H168V318.5Z"
        fill="#B3B3B3" />
    <path
        d="M376.354 319.354C376.549 319.158 376.549 318.842 376.354 318.646L373.172 315.464C372.976 315.269 372.66 315.269 372.464 315.464C372.269 315.66 372.269 315.976 372.464 316.172L375.293 319L372.464 321.828C372.269 322.024 372.269 322.34 372.464 322.536C372.66 322.731 372.976 322.731 373.172 322.536L376.354 319.354ZM301 318.5C300.724 318.5 300.5 318.724 300.5 319C300.5 319.276 300.724 319.5 301 319.5V318.5ZM376 318.5H301V319.5H376V318.5Z"
        fill="#B3B3B3" />
    <path
        d="M279.991 226.783C279.957 226.439 279.811 226.172 279.552 225.982C279.294 225.791 278.943 225.696 278.5 225.696C278.199 225.696 277.944 225.739 277.737 225.824C277.53 225.906 277.37 226.021 277.26 226.169C277.152 226.317 277.098 226.484 277.098 226.672C277.092 226.828 277.125 226.964 277.196 227.081C277.27 227.197 277.37 227.298 277.498 227.384C277.626 227.466 277.774 227.538 277.941 227.601C278.109 227.661 278.288 227.712 278.478 227.754L279.263 227.942C279.643 228.027 279.993 228.141 280.311 228.283C280.629 228.425 280.905 228.599 281.138 228.807C281.37 229.014 281.551 229.259 281.679 229.54C281.809 229.821 281.876 230.143 281.879 230.507C281.876 231.041 281.74 231.504 281.47 231.896C281.203 232.286 280.816 232.588 280.311 232.804C279.808 233.017 279.201 233.124 278.491 233.124C277.787 233.124 277.173 233.016 276.65 232.8C276.13 232.584 275.724 232.264 275.432 231.841C275.142 231.415 274.99 230.888 274.976 230.26H276.761C276.781 230.553 276.865 230.797 277.013 230.993C277.163 231.186 277.363 231.332 277.613 231.432C277.866 231.528 278.152 231.577 278.47 231.577C278.782 231.577 279.054 231.531 279.284 231.44C279.517 231.349 279.697 231.223 279.825 231.061C279.953 230.899 280.017 230.713 280.017 230.503C280.017 230.307 279.959 230.142 279.842 230.009C279.728 229.875 279.561 229.761 279.339 229.668C279.12 229.574 278.852 229.489 278.534 229.412L277.584 229.173C276.848 228.994 276.267 228.714 275.841 228.334C275.414 227.953 275.203 227.44 275.206 226.795C275.203 226.267 275.343 225.805 275.628 225.411C275.914 225.016 276.308 224.707 276.808 224.486C277.308 224.264 277.876 224.153 278.513 224.153C279.16 224.153 279.726 224.264 280.209 224.486C280.694 224.707 281.072 225.016 281.342 225.411C281.612 225.805 281.751 226.263 281.76 226.783H279.991ZM285.937 233.128C285.264 233.128 284.684 232.991 284.198 232.719C283.715 232.443 283.343 232.054 283.082 231.551C282.82 231.045 282.69 230.447 282.69 229.757C282.69 229.084 282.82 228.493 283.082 227.984C283.343 227.476 283.711 227.08 284.186 226.795C284.663 226.511 285.222 226.369 285.865 226.369C286.296 226.369 286.698 226.439 287.07 226.578C287.445 226.714 287.772 226.92 288.051 227.196C288.332 227.472 288.551 227.818 288.707 228.236C288.863 228.651 288.941 229.136 288.941 229.693V230.192H283.414V229.067H287.232C287.232 228.805 287.176 228.574 287.062 228.372C286.948 228.17 286.791 228.013 286.589 227.899C286.39 227.783 286.159 227.724 285.894 227.724C285.619 227.724 285.374 227.788 285.161 227.916C284.951 228.041 284.786 228.21 284.667 228.423C284.548 228.634 284.487 228.868 284.484 229.126V230.196C284.484 230.52 284.544 230.8 284.663 231.036C284.785 231.271 284.957 231.453 285.178 231.581C285.4 231.709 285.663 231.773 285.967 231.773C286.169 231.773 286.353 231.744 286.521 231.688C286.688 231.631 286.832 231.545 286.951 231.432C287.07 231.318 287.161 231.179 287.224 231.014L288.903 231.125C288.818 231.528 288.643 231.881 288.379 232.182C288.117 232.48 287.779 232.713 287.365 232.881C286.953 233.045 286.477 233.128 285.937 233.128ZM293.475 226.455V227.818H289.534V226.455H293.475ZM290.429 224.886H292.244V230.989C292.244 231.156 292.269 231.287 292.321 231.381C292.372 231.472 292.443 231.536 292.534 231.572C292.627 231.609 292.735 231.628 292.858 231.628C292.943 231.628 293.028 231.621 293.113 231.607C293.198 231.589 293.264 231.577 293.309 231.568L293.595 232.919C293.504 232.947 293.376 232.98 293.211 233.017C293.046 233.057 292.846 233.081 292.61 233.089C292.173 233.107 291.789 233.048 291.46 232.915C291.133 232.781 290.879 232.574 290.697 232.293C290.515 232.011 290.426 231.656 290.429 231.227V224.886ZM298.007 226.455V227.818H294.066V226.455H298.007ZM294.961 224.886H296.776V230.989C296.776 231.156 296.802 231.287 296.853 231.381C296.904 231.472 296.975 231.536 297.066 231.572C297.159 231.609 297.267 231.628 297.39 231.628C297.475 231.628 297.56 231.621 297.645 231.607C297.73 231.589 297.796 231.577 297.841 231.568L298.127 232.919C298.036 232.947 297.908 232.98 297.743 233.017C297.579 233.057 297.378 233.081 297.142 233.089C296.705 233.107 296.321 233.048 295.992 232.915C295.665 232.781 295.411 232.574 295.229 232.293C295.047 232.011 294.958 231.656 294.961 231.227V224.886ZM301.014 224.273V233H299.199V224.273H301.014ZM305.319 233.128C304.646 233.128 304.066 232.991 303.58 232.719C303.098 232.443 302.725 232.054 302.464 231.551C302.203 231.045 302.072 230.447 302.072 229.757C302.072 229.084 302.203 228.493 302.464 227.984C302.725 227.476 303.093 227.08 303.568 226.795C304.045 226.511 304.605 226.369 305.247 226.369C305.678 226.369 306.08 226.439 306.453 226.578C306.828 226.714 307.154 226.92 307.433 227.196C307.714 227.472 307.933 227.818 308.089 228.236C308.245 228.651 308.323 229.136 308.323 229.693V230.192H302.796V229.067H306.615C306.615 228.805 306.558 228.574 306.444 228.372C306.33 228.17 306.173 228.013 305.971 227.899C305.772 227.783 305.541 227.724 305.277 227.724C305.001 227.724 304.757 227.788 304.544 227.916C304.333 228.041 304.169 228.21 304.049 228.423C303.93 228.634 303.869 228.868 303.866 229.126V230.196C303.866 230.52 303.926 230.8 304.045 231.036C304.167 231.271 304.339 231.453 304.561 231.581C304.782 231.709 305.045 231.773 305.349 231.773C305.551 231.773 305.735 231.744 305.903 231.688C306.071 231.631 306.214 231.545 306.333 231.432C306.453 231.318 306.544 231.179 306.606 231.014L308.285 231.125C308.2 231.528 308.025 231.881 307.761 232.182C307.5 232.48 307.161 232.713 306.747 232.881C306.335 233.045 305.859 233.128 305.319 233.128ZM309.376 233V226.455H311.106V227.609H311.183C311.319 227.226 311.546 226.923 311.865 226.702C312.183 226.48 312.564 226.369 313.007 226.369C313.456 226.369 313.838 226.482 314.153 226.706C314.468 226.928 314.679 227.229 314.784 227.609H314.852C314.985 227.234 315.227 226.935 315.576 226.71C315.929 226.483 316.345 226.369 316.825 226.369C317.436 226.369 317.931 226.564 318.312 226.953C318.696 227.339 318.887 227.888 318.887 228.598V233H317.076V228.956C317.076 228.592 316.98 228.32 316.787 228.138C316.593 227.956 316.352 227.865 316.062 227.865C315.733 227.865 315.475 227.97 315.291 228.18C315.106 228.388 315.014 228.662 315.014 229.003V233H313.254V228.918C313.254 228.597 313.162 228.341 312.977 228.151C312.795 227.96 312.555 227.865 312.257 227.865C312.055 227.865 311.873 227.916 311.711 228.018C311.552 228.118 311.426 228.259 311.332 228.44C311.238 228.619 311.191 228.83 311.191 229.071V233H309.376ZM323.172 233.128C322.499 233.128 321.919 232.991 321.434 232.719C320.951 232.443 320.579 232.054 320.317 231.551C320.056 231.045 319.925 230.447 319.925 229.757C319.925 229.084 320.056 228.493 320.317 227.984C320.579 227.476 320.946 227.08 321.421 226.795C321.898 226.511 322.458 226.369 323.1 226.369C323.532 226.369 323.934 226.439 324.306 226.578C324.681 226.714 325.008 226.92 325.286 227.196C325.567 227.472 325.786 227.818 325.942 228.236C326.098 228.651 326.177 229.136 326.177 229.693V230.192H320.65V229.067H324.468C324.468 228.805 324.411 228.574 324.297 228.372C324.184 228.17 324.026 228.013 323.824 227.899C323.625 227.783 323.394 227.724 323.13 227.724C322.854 227.724 322.61 227.788 322.397 227.916C322.187 228.041 322.022 228.21 321.902 228.423C321.783 228.634 321.722 228.868 321.719 229.126V230.196C321.719 230.52 321.779 230.8 321.898 231.036C322.02 231.271 322.192 231.453 322.414 231.581C322.635 231.709 322.898 231.773 323.202 231.773C323.404 231.773 323.589 231.744 323.756 231.688C323.924 231.631 324.067 231.545 324.187 231.432C324.306 231.318 324.397 231.179 324.459 231.014L326.138 231.125C326.053 231.528 325.878 231.881 325.614 232.182C325.353 232.48 325.015 232.713 324.6 232.881C324.188 233.045 323.712 233.128 323.172 233.128ZM329.045 229.216V233H327.229V226.455H328.959V227.609H329.036C329.181 227.229 329.424 226.928 329.765 226.706C330.106 226.482 330.519 226.369 331.005 226.369C331.459 226.369 331.856 226.469 332.194 226.668C332.532 226.866 332.795 227.151 332.982 227.52C333.17 227.886 333.263 228.324 333.263 228.832V233H331.448V229.156C331.451 228.756 331.349 228.443 331.141 228.219C330.934 227.991 330.648 227.878 330.285 227.878C330.04 227.878 329.824 227.93 329.637 228.036C329.452 228.141 329.307 228.294 329.202 228.496C329.1 228.695 329.047 228.935 329.045 229.216ZM338.044 226.455V227.818H334.102V226.455H338.044ZM334.997 224.886H336.812V230.989C336.812 231.156 336.838 231.287 336.889 231.381C336.94 231.472 337.011 231.536 337.102 231.572C337.196 231.609 337.304 231.628 337.426 231.628C337.511 231.628 337.596 231.621 337.681 231.607C337.767 231.589 337.832 231.577 337.877 231.568L338.163 232.919C338.072 232.947 337.944 232.98 337.779 233.017C337.615 233.057 337.414 233.081 337.179 233.089C336.741 233.107 336.358 233.048 336.028 232.915C335.701 232.781 335.447 232.574 335.265 232.293C335.083 232.011 334.994 231.656 334.997 231.227V224.886Z"
        fill="#E8E8E8" />
    <path
        d="M368.924 20.1278C368.251 20.1278 367.672 19.9915 367.186 19.7188C366.703 19.4432 366.331 19.054 366.069 18.5511C365.808 18.0455 365.677 17.4474 365.677 16.7571C365.677 16.0838 365.808 15.4929 366.069 14.9844C366.331 14.4759 366.699 14.0795 367.173 13.7955C367.65 13.5114 368.21 13.3693 368.852 13.3693C369.284 13.3693 369.686 13.4389 370.058 13.5781C370.433 13.7145 370.76 13.9205 371.038 14.196C371.319 14.4716 371.538 14.8182 371.694 15.2358C371.851 15.6506 371.929 16.1364 371.929 16.6932V17.1918H366.402V16.0668H370.22C370.22 15.8054 370.163 15.5739 370.049 15.3722C369.936 15.1705 369.778 15.0128 369.576 14.8991C369.378 14.7827 369.146 14.7244 368.882 14.7244C368.606 14.7244 368.362 14.7884 368.149 14.9162C367.939 15.0412 367.774 15.2102 367.655 15.4233C367.535 15.6335 367.474 15.8679 367.471 16.1264V17.196C367.471 17.5199 367.531 17.7997 367.65 18.0355C367.772 18.2713 367.944 18.4531 368.166 18.581C368.388 18.7088 368.65 18.7727 368.954 18.7727C369.156 18.7727 369.341 18.7443 369.508 18.6875C369.676 18.6307 369.819 18.5455 369.939 18.4318C370.058 18.3182 370.149 18.179 370.211 18.0142L371.89 18.125C371.805 18.5284 371.63 18.8807 371.366 19.1818C371.105 19.4801 370.767 19.7131 370.352 19.8807C369.94 20.0455 369.464 20.1278 368.924 20.1278ZM374.381 13.4545L375.583 15.7429L376.814 13.4545H378.677L376.78 16.7273L378.728 20H376.874L375.583 17.7372L374.313 20H372.438L374.381 16.7273L372.506 13.4545H374.381ZM382.371 20.1278C381.698 20.1278 381.119 19.9915 380.633 19.7188C380.15 19.4432 379.778 19.054 379.516 18.5511C379.255 18.0455 379.124 17.4474 379.124 16.7571C379.124 16.0838 379.255 15.4929 379.516 14.9844C379.778 14.4759 380.146 14.0795 380.62 13.7955C381.097 13.5114 381.657 13.3693 382.299 13.3693C382.731 13.3693 383.133 13.4389 383.505 13.5781C383.88 13.7145 384.207 13.9205 384.485 14.196C384.766 14.4716 384.985 14.8182 385.141 15.2358C385.298 15.6506 385.376 16.1364 385.376 16.6932V17.1918H379.849V16.0668H383.667C383.667 15.8054 383.61 15.5739 383.496 15.3722C383.383 15.1705 383.225 15.0128 383.023 14.8991C382.824 14.7827 382.593 14.7244 382.329 14.7244C382.053 14.7244 381.809 14.7884 381.596 14.9162C381.386 15.0412 381.221 15.2102 381.101 15.4233C380.982 15.6335 380.921 15.8679 380.918 16.1264V17.196C380.918 17.5199 380.978 17.7997 381.097 18.0355C381.219 18.2713 381.391 18.4531 381.613 18.581C381.834 18.7088 382.097 18.7727 382.401 18.7727C382.603 18.7727 382.788 18.7443 382.955 18.6875C383.123 18.6307 383.266 18.5455 383.386 18.4318C383.505 18.3182 383.596 18.179 383.658 18.0142L385.337 18.125C385.252 18.5284 385.077 18.8807 384.813 19.1818C384.552 19.4801 384.214 19.7131 383.799 19.8807C383.387 20.0455 382.911 20.1278 382.371 20.1278ZM389.386 20.1278C388.715 20.1278 388.139 19.9858 387.656 19.7017C387.175 19.4148 386.806 19.017 386.548 18.5085C386.292 18 386.164 17.4148 386.164 16.7528C386.164 16.0824 386.293 15.4943 386.552 14.9886C386.813 14.4801 387.184 14.0838 387.664 13.7997C388.144 13.5128 388.715 13.3693 389.377 13.3693C389.948 13.3693 390.448 13.473 390.877 13.6804C391.306 13.8878 391.646 14.179 391.896 14.554C392.146 14.929 392.283 15.3693 392.309 15.875H390.596C390.548 15.5483 390.42 15.2855 390.212 15.0866C390.008 14.8849 389.739 14.7841 389.407 14.7841C389.126 14.7841 388.88 14.8608 388.67 15.0142C388.462 15.1648 388.3 15.3849 388.184 15.6747C388.067 15.9645 388.009 16.3153 388.009 16.7273C388.009 17.1449 388.066 17.5 388.18 17.7926C388.296 18.0852 388.46 18.3082 388.67 18.4616C388.88 18.6151 389.126 18.6918 389.407 18.6918C389.614 18.6918 389.8 18.6491 389.965 18.5639C390.133 18.4787 390.271 18.3551 390.379 18.1932C390.489 18.0284 390.562 17.831 390.596 17.6009H392.309C392.281 18.1009 392.144 18.5412 391.9 18.9219C391.658 19.2997 391.325 19.5952 390.898 19.8082C390.472 20.0213 389.968 20.1278 389.386 20.1278ZM397.537 17.2131V13.4545H399.352V20H397.609V18.8111H397.541C397.393 19.1946 397.147 19.5028 396.804 19.7358C396.463 19.9687 396.047 20.0852 395.555 20.0852C395.118 20.0852 394.733 19.9858 394.4 19.7869C394.068 19.5881 393.808 19.3054 393.621 18.9389C393.436 18.5724 393.342 18.1335 393.339 17.6222V13.4545H395.155V17.2983C395.157 17.6847 395.261 17.9901 395.466 18.2145C395.67 18.4389 395.944 18.5511 396.288 18.5511C396.507 18.5511 396.711 18.5014 396.902 18.402C397.092 18.2997 397.246 18.1491 397.362 17.9503C397.481 17.7514 397.54 17.5057 397.537 17.2131ZM404.154 13.4545V14.8182H400.212V13.4545H404.154ZM401.107 11.8864H402.922V17.9886C402.922 18.1562 402.948 18.2869 402.999 18.3807C403.05 18.4716 403.121 18.5355 403.212 18.5724C403.306 18.6094 403.414 18.6278 403.536 18.6278C403.621 18.6278 403.706 18.6207 403.791 18.6065C403.877 18.5895 403.942 18.5767 403.987 18.5682L404.273 19.919C404.182 19.9474 404.054 19.9801 403.889 20.017C403.725 20.0568 403.524 20.081 403.289 20.0895C402.851 20.1065 402.468 20.0483 402.138 19.9148C401.811 19.7812 401.557 19.5739 401.375 19.2926C401.193 19.0114 401.104 18.6562 401.107 18.2273V11.8864ZM408.117 20.1278C407.444 20.1278 406.864 19.9915 406.378 19.7188C405.895 19.4432 405.523 19.054 405.262 18.5511C405 18.0455 404.87 17.4474 404.87 16.7571C404.87 16.0838 405 15.4929 405.262 14.9844C405.523 14.4759 405.891 14.0795 406.365 13.7955C406.843 13.5114 407.402 13.3693 408.044 13.3693C408.476 13.3693 408.878 13.4389 409.25 13.5781C409.625 13.7145 409.952 13.9205 410.23 14.196C410.512 14.4716 410.73 14.8182 410.887 15.2358C411.043 15.6506 411.121 16.1364 411.121 16.6932V17.1918H405.594V16.0668H409.412C409.412 15.8054 409.355 15.5739 409.242 15.3722C409.128 15.1705 408.971 15.0128 408.769 14.8991C408.57 14.7827 408.338 14.7244 408.074 14.7244C407.799 14.7244 407.554 14.7884 407.341 14.9162C407.131 15.0412 406.966 15.2102 406.847 15.4233C406.728 15.6335 406.667 15.8679 406.664 16.1264V17.196C406.664 17.5199 406.723 17.7997 406.843 18.0355C406.965 18.2713 407.137 18.4531 407.358 18.581C407.58 18.7088 407.843 18.7727 408.147 18.7727C408.348 18.7727 408.533 18.7443 408.701 18.6875C408.868 18.6307 409.012 18.5455 409.131 18.4318C409.25 18.3182 409.341 18.179 409.404 18.0142L411.083 18.125C410.997 18.5284 410.823 18.8807 410.559 19.1818C410.297 19.4801 409.959 19.7131 409.544 19.8807C409.132 20.0455 408.657 20.1278 408.117 20.1278ZM415.22 16.5014C415.22 15.4446 415.36 14.4716 415.642 13.5824C415.926 12.6932 416.359 11.8693 416.941 11.1108H418.676C418.454 11.392 418.248 11.7358 418.058 12.142C417.867 12.5455 417.701 12.9886 417.559 13.4716C417.417 13.9545 417.306 14.4545 417.227 14.9716C417.147 15.4858 417.107 15.9957 417.107 16.5014C417.107 17.1747 417.176 17.8551 417.312 18.5426C417.451 19.2273 417.639 19.8636 417.874 20.4517C418.113 21.0398 418.38 21.5213 418.676 21.8963H416.941C416.359 21.1378 415.926 20.3139 415.642 19.4247C415.36 18.5355 415.22 17.5611 415.22 16.5014ZM422.657 16.5014C422.657 17.5611 422.515 18.5355 422.231 19.4247C421.949 20.3139 421.518 21.1378 420.935 21.8963H419.201C419.423 21.6151 419.628 21.2713 419.819 20.8651C420.009 20.4588 420.175 20.0156 420.317 19.5355C420.459 19.0526 420.57 18.5526 420.65 18.0355C420.729 17.5185 420.769 17.0071 420.769 16.5014C420.769 15.8281 420.699 15.1491 420.56 14.4645C420.424 13.777 420.236 13.1406 419.998 12.5554C419.762 11.9673 419.496 11.4858 419.201 11.1108H420.935C421.518 11.8693 421.949 12.6932 422.231 13.5824C422.515 14.4716 422.657 15.4446 422.657 16.5014Z"
        fill="#E8E8E8" />
    <path
        d="M48.1059 20L45.6088 11.2727H47.6244L49.069 17.3366H49.1414L50.7352 11.2727H52.461L54.0505 17.3494H54.1272L55.5718 11.2727H57.5875L55.0903 20H53.292L51.6301 14.294H51.5619L49.9042 20H48.1059ZM59.5723 20.1236C59.1547 20.1236 58.7825 20.0511 58.4558 19.9062C58.1291 19.7585 57.8706 19.5412 57.6802 19.2543C57.4927 18.9645 57.399 18.6037 57.399 18.1719C57.399 17.8082 57.4658 17.5028 57.5993 17.2557C57.7328 17.0085 57.9146 16.8097 58.1447 16.6591C58.3748 16.5085 58.6362 16.3949 58.9288 16.3182C59.2243 16.2415 59.5339 16.1875 59.8578 16.1562C60.2385 16.1165 60.5453 16.0795 60.7783 16.0455C61.0112 16.0085 61.1802 15.9545 61.2854 15.8835C61.3905 15.8125 61.443 15.7074 61.443 15.5682V15.5426C61.443 15.2727 61.3578 15.0639 61.1873 14.9162C61.0197 14.7685 60.7811 14.6946 60.4714 14.6946C60.1447 14.6946 59.8848 14.767 59.6916 14.9119C59.4984 15.054 59.3706 15.233 59.3081 15.4489L57.6291 15.3125C57.7143 14.9148 57.8819 14.571 58.1319 14.2812C58.3819 13.9886 58.7044 13.7642 59.0993 13.608C59.497 13.4489 59.9572 13.3693 60.48 13.3693C60.8436 13.3693 61.1916 13.4119 61.524 13.4972C61.8592 13.5824 62.1561 13.7145 62.4146 13.8935C62.676 14.0724 62.8819 14.3026 63.0325 14.5838C63.1831 14.8622 63.2584 15.196 63.2584 15.5852V20H61.5368V19.0923H61.4856C61.3805 19.2969 61.2399 19.4773 61.0638 19.6335C60.8876 19.7869 60.676 19.9077 60.4288 19.9957C60.1817 20.081 59.8961 20.1236 59.5723 20.1236ZM60.0922 18.8707C60.3592 18.8707 60.595 18.8182 60.7996 18.7131C61.0041 18.6051 61.1646 18.4602 61.2811 18.2784C61.3976 18.0966 61.4558 17.8906 61.4558 17.6605V16.9659C61.399 17.0028 61.3209 17.0369 61.2214 17.0682C61.1248 17.0966 61.0155 17.1236 60.8933 17.1491C60.7711 17.1719 60.649 17.1932 60.5268 17.2131C60.4047 17.2301 60.2939 17.2457 60.1944 17.2599C59.9814 17.2912 59.7953 17.3409 59.6362 17.4091C59.4771 17.4773 59.3535 17.5696 59.2655 17.6861C59.1774 17.7997 59.1334 17.9418 59.1334 18.1122C59.1334 18.3594 59.2229 18.5483 59.4018 18.679C59.5836 18.8068 59.8138 18.8707 60.0922 18.8707ZM68.0163 13.4545V14.8182H64.0745V13.4545H68.0163ZM64.9694 11.8864H66.7847V17.9886C66.7847 18.1562 66.8103 18.2869 66.8615 18.3807C66.9126 18.4716 66.9836 18.5355 67.0745 18.5724C67.1683 18.6094 67.2762 18.6278 67.3984 18.6278C67.4836 18.6278 67.5688 18.6207 67.6541 18.6065C67.7393 18.5895 67.8046 18.5767 67.8501 18.5682L68.1356 19.919C68.0447 19.9474 67.9168 19.9801 67.7521 20.017C67.5873 20.0568 67.387 20.081 67.1512 20.0895C66.7137 20.1065 66.3302 20.0483 66.0007 19.9148C65.674 19.7812 65.4197 19.5739 65.2379 19.2926C65.0561 19.0114 64.9666 18.6562 64.9694 18.2273V11.8864ZM71.9539 20.1278C71.2834 20.1278 70.7067 19.9858 70.2238 19.7017C69.7437 19.4148 69.3743 19.017 69.1158 18.5085C68.8601 18 68.7323 17.4148 68.7323 16.7528C68.7323 16.0824 68.8616 15.4943 69.1201 14.9886C69.3814 14.4801 69.7522 14.0838 70.2323 13.7997C70.7124 13.5128 71.2834 13.3693 71.9454 13.3693C72.5164 13.3693 73.0164 13.473 73.4454 13.6804C73.8743 13.8878 74.2138 14.179 74.4638 14.554C74.7138 14.929 74.8516 15.3693 74.8772 15.875H73.1641C73.1158 15.5483 72.988 15.2855 72.7806 15.0866C72.576 14.8849 72.3076 14.7841 71.9752 14.7841C71.6939 14.7841 71.4482 14.8608 71.238 15.0142C71.0306 15.1648 70.8687 15.3849 70.7522 15.6747C70.6357 15.9645 70.5775 16.3153 70.5775 16.7273C70.5775 17.1449 70.6343 17.5 70.7479 17.7926C70.8644 18.0852 71.0277 18.3082 71.238 18.4616C71.4482 18.6151 71.6939 18.6918 71.9752 18.6918C72.1826 18.6918 72.3687 18.6491 72.5334 18.5639C72.701 18.4787 72.8388 18.3551 72.9468 18.1932C73.0576 18.0284 73.13 17.831 73.1641 17.6009H74.8772C74.8488 18.1009 74.7124 18.5412 74.4681 18.9219C74.2266 19.2997 73.8928 19.5952 73.4667 19.8082C73.0405 20.0213 72.5363 20.1278 71.9539 20.1278ZM77.7228 16.2159V20H75.9075V11.2727H77.6717V14.6094H77.7484C77.8961 14.223 78.1347 13.9205 78.4643 13.7017C78.7938 13.4801 79.2072 13.3693 79.7043 13.3693C80.1589 13.3693 80.5552 13.4688 80.8933 13.6676C81.2342 13.8636 81.4984 14.1463 81.6859 14.5156C81.8762 14.8821 81.97 15.321 81.9671 15.8324V20H80.1518V16.1562C80.1546 15.7528 80.0524 15.4389 79.845 15.2145C79.6404 14.9901 79.3535 14.8778 78.9842 14.8778C78.737 14.8778 78.5183 14.9304 78.3279 15.0355C78.1404 15.1406 77.9927 15.294 77.8847 15.4957C77.7796 15.6946 77.7256 15.9347 77.7228 16.2159ZM83.2637 20V13.4545H85.0791V20H83.2637ZM84.1757 12.6108C83.9058 12.6108 83.6743 12.5213 83.4811 12.3423C83.2907 12.1605 83.1956 11.9432 83.1956 11.6903C83.1956 11.4403 83.2907 11.2259 83.4811 11.0469C83.6743 10.8651 83.9058 10.7741 84.1757 10.7741C84.4456 10.7741 84.6757 10.8651 84.866 11.0469C85.0592 11.2259 85.1558 11.4403 85.1558 11.6903C85.1558 11.9432 85.0592 12.1605 84.866 12.3423C84.6757 12.5213 84.4456 12.6108 84.1757 12.6108ZM88.2166 16.2159V20H86.4013V13.4545H88.1314V14.6094H88.2081C88.353 14.2287 88.5959 13.9276 88.9368 13.706C89.2777 13.4815 89.6911 13.3693 90.1768 13.3693C90.6314 13.3693 91.0277 13.4688 91.3658 13.6676C91.7038 13.8665 91.9666 14.1506 92.1541 14.5199C92.3416 14.8864 92.4354 15.3239 92.4354 15.8324V20H90.62V16.1562C90.6229 15.7557 90.5206 15.4432 90.3132 15.2188C90.1058 14.9915 89.8203 14.8778 89.4567 14.8778C89.2124 14.8778 88.9964 14.9304 88.8089 15.0355C88.6243 15.1406 88.4794 15.294 88.3743 15.4957C88.272 15.6946 88.2195 15.9347 88.2166 16.2159ZM96.683 22.5909C96.0949 22.5909 95.5907 22.5099 95.1702 22.348C94.7526 22.1889 94.4202 21.9716 94.173 21.696C93.9259 21.4205 93.7654 21.1108 93.6915 20.767L95.3705 20.5412C95.4216 20.6719 95.5026 20.794 95.6134 20.9077C95.7242 21.0213 95.8705 21.1122 96.0523 21.1804C96.237 21.2514 96.4614 21.2869 96.7256 21.2869C97.1205 21.2869 97.4458 21.1903 97.7015 20.9972C97.96 20.8068 98.0892 20.4872 98.0892 20.0384V18.8409H98.0125C97.933 19.0227 97.8137 19.1946 97.6546 19.3565C97.4955 19.5185 97.2909 19.6506 97.0409 19.7528C96.7909 19.8551 96.4926 19.9062 96.1461 19.9062C95.6546 19.9062 95.2071 19.7926 94.8037 19.5653C94.4032 19.3352 94.0836 18.9844 93.8449 18.5128C93.6091 18.0384 93.4912 17.4389 93.4912 16.7145C93.4912 15.973 93.612 15.3537 93.8534 14.8565C94.0949 14.3594 94.4159 13.9872 94.8165 13.7401C95.2199 13.4929 95.6617 13.3693 96.1418 13.3693C96.5083 13.3693 96.8151 13.4318 97.0622 13.5568C97.3094 13.679 97.5083 13.8324 97.6588 14.017C97.8122 14.1989 97.9301 14.3778 98.0125 14.554H98.0807V13.4545H99.8833V20.0639C99.8833 20.6207 99.7469 21.0866 99.4742 21.4616C99.2015 21.8366 98.8236 22.1179 98.3407 22.3054C97.8605 22.4957 97.308 22.5909 96.683 22.5909ZM96.7213 18.5426C97.014 18.5426 97.2611 18.4702 97.4628 18.3253C97.6674 18.1776 97.8236 17.9673 97.9316 17.6946C98.0424 17.419 98.0978 17.0895 98.0978 16.706C98.0978 16.3224 98.0438 15.9901 97.9358 15.7088C97.8279 15.4247 97.6716 15.2045 97.4671 15.0483C97.2625 14.892 97.014 14.8139 96.7213 14.8139C96.423 14.8139 96.1716 14.8949 95.9671 15.0568C95.7625 15.2159 95.6077 15.4375 95.5026 15.7216C95.3975 16.0057 95.3449 16.3338 95.3449 16.706C95.3449 17.0838 95.3975 17.4105 95.5026 17.6861C95.6105 17.9588 95.7654 18.1705 95.9671 18.321C96.1716 18.4687 96.423 18.5426 96.7213 18.5426ZM107.361 13.4545V14.8182H103.321V13.4545H107.361ZM104.246 20V12.9815C104.246 12.5071 104.338 12.1136 104.523 11.8011C104.711 11.4886 104.966 11.2543 105.29 11.098C105.614 10.9418 105.982 10.8636 106.394 10.8636C106.672 10.8636 106.926 10.8849 107.157 10.9276C107.39 10.9702 107.563 11.0085 107.676 11.0426L107.353 12.4062C107.282 12.3835 107.193 12.3622 107.088 12.3423C106.986 12.3224 106.881 12.3125 106.773 12.3125C106.506 12.3125 106.32 12.375 106.215 12.5C106.11 12.6222 106.057 12.794 106.057 13.0156V20H104.246ZM111.061 20.1278C110.399 20.1278 109.827 19.9872 109.344 19.706C108.864 19.4219 108.493 19.027 108.232 18.5213C107.97 18.0128 107.84 17.4233 107.84 16.7528C107.84 16.0767 107.97 15.4858 108.232 14.9801C108.493 14.4716 108.864 14.0767 109.344 13.7955C109.827 13.5114 110.399 13.3693 111.061 13.3693C111.723 13.3693 112.294 13.5114 112.774 13.7955C113.257 14.0767 113.629 14.4716 113.891 14.9801C114.152 15.4858 114.283 16.0767 114.283 16.7528C114.283 17.4233 114.152 18.0128 113.891 18.5213C113.629 19.027 113.257 19.4219 112.774 19.706C112.294 19.9872 111.723 20.1278 111.061 20.1278ZM111.07 18.7216C111.371 18.7216 111.622 18.6364 111.824 18.4659C112.026 18.2926 112.178 18.0568 112.28 17.7585C112.385 17.4602 112.438 17.1207 112.438 16.7401C112.438 16.3594 112.385 16.0199 112.28 15.7216C112.178 15.4233 112.026 15.1875 111.824 15.0142C111.622 14.8409 111.371 14.7543 111.07 14.7543C110.766 14.7543 110.51 14.8409 110.303 15.0142C110.098 15.1875 109.943 15.4233 109.838 15.7216C109.736 16.0199 109.685 16.3594 109.685 16.7401C109.685 17.1207 109.736 17.4602 109.838 17.7585C109.943 18.0568 110.098 18.2926 110.303 18.4659C110.51 18.6364 110.766 18.7216 111.07 18.7216ZM115.331 20V13.4545H117.091V14.5966H117.159C117.279 14.1903 117.479 13.8835 117.76 13.6761C118.041 13.4659 118.365 13.3608 118.732 13.3608C118.823 13.3608 118.921 13.3665 119.026 13.3778C119.131 13.3892 119.223 13.4048 119.303 13.4247V15.0355C119.217 15.0099 119.1 14.9872 118.949 14.9673C118.798 14.9474 118.661 14.9375 118.536 14.9375C118.269 14.9375 118.03 14.9957 117.82 15.1122C117.612 15.2259 117.448 15.3849 117.325 15.5895C117.206 15.794 117.146 16.0298 117.146 16.2969V20H115.331ZM124.634 11.2727V20H122.789V11.2727H124.634ZM127.801 16.2159V20H125.986V13.4545H127.716V14.6094H127.793C127.938 14.2287 128.181 13.9276 128.521 13.706C128.862 13.4815 129.276 13.3693 129.761 13.3693C130.216 13.3693 130.612 13.4688 130.95 13.6676C131.288 13.8665 131.551 14.1506 131.739 14.5199C131.926 14.8864 132.02 15.3239 132.02 15.8324V20H130.205V16.1562C130.207 15.7557 130.105 15.4432 129.898 15.2188C129.69 14.9915 129.405 14.8778 129.041 14.8778C128.797 14.8778 128.581 14.9304 128.394 15.0355C128.209 15.1406 128.064 15.294 127.959 15.4957C127.857 15.6946 127.804 15.9347 127.801 16.2159ZM136.8 13.4545V14.8182H132.859V13.4545H136.8ZM133.753 11.8864H135.569V17.9886C135.569 18.1562 135.594 18.2869 135.645 18.3807C135.697 18.4716 135.768 18.5355 135.859 18.5724C135.952 18.6094 136.06 18.6278 136.182 18.6278C136.268 18.6278 136.353 18.6207 136.438 18.6065C136.523 18.5895 136.589 18.5767 136.634 18.5682L136.92 19.919C136.829 19.9474 136.701 19.9801 136.536 20.017C136.371 20.0568 136.171 20.081 135.935 20.0895C135.498 20.1065 135.114 20.0483 134.785 19.9148C134.458 19.7812 134.204 19.5739 134.022 19.2926C133.84 19.0114 133.751 18.6562 133.753 18.2273V11.8864ZM140.763 20.1278C140.09 20.1278 139.511 19.9915 139.025 19.7188C138.542 19.4432 138.17 19.054 137.908 18.5511C137.647 18.0455 137.516 17.4474 137.516 16.7571C137.516 16.0838 137.647 15.4929 137.908 14.9844C138.17 14.4759 138.538 14.0795 139.012 13.7955C139.489 13.5114 140.049 13.3693 140.691 13.3693C141.123 13.3693 141.525 13.4389 141.897 13.5781C142.272 13.7145 142.599 13.9205 142.877 14.196C143.158 14.4716 143.377 14.8182 143.533 15.2358C143.69 15.6506 143.768 16.1364 143.768 16.6932V17.1918H138.241V16.0668H142.059C142.059 15.8054 142.002 15.5739 141.888 15.3722C141.775 15.1705 141.617 15.0128 141.415 14.8991C141.217 14.7827 140.985 14.7244 140.721 14.7244C140.445 14.7244 140.201 14.7884 139.988 14.9162C139.778 15.0412 139.613 15.2102 139.494 15.4233C139.374 15.6335 139.313 15.8679 139.31 16.1264V17.196C139.31 17.5199 139.37 17.7997 139.489 18.0355C139.611 18.2713 139.783 18.4531 140.005 18.581C140.227 18.7088 140.489 18.7727 140.793 18.7727C140.995 18.7727 141.18 18.7443 141.347 18.6875C141.515 18.6307 141.658 18.5455 141.778 18.4318C141.897 18.3182 141.988 18.179 142.05 18.0142L143.729 18.125C143.644 18.5284 143.469 18.8807 143.205 19.1818C142.944 19.4801 142.606 19.7131 142.191 19.8807C141.779 20.0455 141.303 20.1278 140.763 20.1278ZM146.636 16.2159V20H144.82V13.4545H146.55V14.6094H146.627C146.772 14.2287 147.015 13.9276 147.356 13.706C147.697 13.4815 148.11 13.3693 148.596 13.3693C149.05 13.3693 149.447 13.4688 149.785 13.6676C150.123 13.8665 150.386 14.1506 150.573 14.5199C150.761 14.8864 150.854 15.3239 150.854 15.8324V20H149.039V16.1562C149.042 15.7557 148.94 15.4432 148.732 15.2188C148.525 14.9915 148.239 14.8778 147.876 14.8778C147.631 14.8778 147.416 14.9304 147.228 15.0355C147.043 15.1406 146.898 15.294 146.793 15.4957C146.691 15.6946 146.639 15.9347 146.636 16.2159ZM155.635 13.4545V14.8182H151.693V13.4545H155.635ZM152.588 11.8864H154.403V17.9886C154.403 18.1562 154.429 18.2869 154.48 18.3807C154.531 18.4716 154.602 18.5355 154.693 18.5724C154.787 18.6094 154.895 18.6278 155.017 18.6278C155.102 18.6278 155.187 18.6207 155.273 18.6065C155.358 18.5895 155.423 18.5767 155.469 18.5682L155.754 19.919C155.663 19.9474 155.535 19.9801 155.371 20.017C155.206 20.0568 155.005 20.081 154.77 20.0895C154.332 20.1065 153.949 20.0483 153.619 19.9148C153.292 19.7812 153.038 19.5739 152.856 19.2926C152.675 19.0114 152.585 18.6562 152.588 18.2273V11.8864ZM162.049 15.321L160.387 15.4233C160.359 15.2812 160.298 15.1534 160.204 15.0398C160.11 14.9233 159.987 14.831 159.833 14.7628C159.683 14.6918 159.502 14.6562 159.292 14.6562C159.011 14.6562 158.774 14.7159 158.581 14.8352C158.387 14.9517 158.291 15.108 158.291 15.304C158.291 15.4602 158.353 15.5923 158.478 15.7003C158.603 15.8082 158.818 15.8949 159.122 15.9602L160.306 16.1989C160.943 16.3295 161.417 16.5398 161.73 16.8295C162.042 17.1193 162.198 17.5 162.198 17.9716C162.198 18.4006 162.072 18.777 161.819 19.1009C161.569 19.4247 161.225 19.6776 160.788 19.8594C160.353 20.0384 159.852 20.1278 159.284 20.1278C158.417 20.1278 157.727 19.9474 157.213 19.5866C156.701 19.223 156.402 18.7287 156.313 18.1037L158.099 18.0099C158.153 18.2741 158.284 18.4759 158.491 18.6151C158.698 18.7514 158.964 18.8196 159.288 18.8196C159.606 18.8196 159.862 18.7585 160.055 18.6364C160.251 18.5114 160.35 18.3509 160.353 18.1548C160.35 17.9901 160.281 17.8551 160.144 17.75C160.008 17.642 159.798 17.5597 159.514 17.5028L158.38 17.277C157.741 17.1491 157.265 16.9276 156.953 16.6122C156.643 16.2969 156.488 15.8949 156.488 15.4062C156.488 14.9858 156.602 14.6236 156.829 14.3196C157.059 14.0156 157.382 13.7812 157.796 13.6165C158.214 13.4517 158.703 13.3693 159.262 13.3693C160.089 13.3693 160.74 13.544 161.214 13.8935C161.691 14.2429 161.97 14.7187 162.049 15.321Z"
        fill="#E8E8E8" />
</svg>