<svg xmlns="http://www.w3.org/2000/svg" xmlns:xlink="http://www.w3.org/1999/xlink" viewBox="0 0 1920 597.99"><defs><style>.cls-1{fill:url(#linear-gradient);}.cls-2{fill:#fff;}</style><linearGradient id="linear-gradient" x1="330.5" y1="-330.5" x2="1589.5" y2="928.49" gradientUnits="userSpaceOnUse"><stop offset="0" stop-color="#2c64aa"/><stop offset="0.16" stop-color="#274e80"/><stop offset="0.33" stop-color="#223b5b"/><stop offset="0.5" stop-color="#1e2c3e"/><stop offset="0.67" stop-color="#1b222a"/><stop offset="0.84" stop-color="#1a1b1d"/><stop offset="1" stop-color="#191919"/></linearGradient></defs><g id="Layer_2" data-name="Layer 2"><g id="Layer_1-2" data-name="Layer 1"><rect class="cls-1" width="1920" height="597.99"/><path class="cls-2" d="M1395.86,402.54a14,14,0,0,1,14.44-14.43,14.33,14.33,0,0,1,14.43,14.43A14.7,14.7,0,0,1,1410.3,417C1402,417.54,1395.86,410.87,1395.86,402.54Z"/><path class="cls-2" d="M1409.24,419.81a15.83,15.83,0,0,1-10.72-4.22,17.76,17.76,0,0,1-5.44-13,17.22,17.22,0,0,1,34.43,0,17.23,17.23,0,0,1-17.21,17.21Zm1.06-28.93a11.26,11.26,0,0,0-11.66,11.66,12.17,12.17,0,0,0,3.66,8.94,10.14,10.14,0,0,0,7.83,2.72A12,12,0,0,0,1422,402.54,11.51,11.51,0,0,0,1410.3,390.88Z"/><path class="cls-2" d="M1717.89,189.89a14.44,14.44,0,0,1,28.88,0,14.34,14.34,0,0,1-14.44,14.44A14.71,14.71,0,0,1,1717.89,189.89Z"/><path class="cls-2" d="M1732.33,207.1a17.21,17.21,0,1,1,17.21-17.21A17.22,17.22,0,0,1,1732.33,207.1Zm0-28.87a11.66,11.66,0,1,0,0,23.32A11.52,11.52,0,0,0,1744,189.89,11.73,11.73,0,0,0,1732.33,178.23Z"/><path class="cls-2" d="M534.69,237.64V246h50v16.66h-50v151H517.48v-151H488.61V246h28.87v-8.33c0-41.09,23.32-65,67.18-61.63v16.1C550.24,189.33,534.69,204.88,534.69,237.64Z"/><path class="cls-2" d="M537.47,416.43H514.7v-151H485.83V243.19H514.7v-5.55c0-21.43,6.33-38.7,18.38-49.8,12.27-11.39,29.71-16.27,51.8-14.61l2.56.23v21.7l-3-.22c-16.32-1.27-28,1.5-35.7,8.61s-11.27,18.21-11.27,34.15v5.55h50v22.21h-50v151Zm-17.22-5.56h11.66v-151h50V248.74h-50v-11.1c0-17.6,4.28-30.09,13.11-38.26,8.38-7.77,20.49-11.1,36.87-10.27V178.56c-19.33-1-34.43,3.45-45,13.27-10.83,10-16.61,25.88-16.61,45.75v11.11H491.38v11.1h28.87V410.87Z"/><path class="cls-2" d="M782.33,330.36c0,2.78-.56,5.56-.56,8.33H629.64c3.88,37.76,32.75,62.74,71.07,62.74,27.76,0,48.3-12.77,58.3-30.53l15,8.88c-13.88,22.76-40,37.76-73.29,37.76-51.64,0-88.29-37.2-88.29-87.73S648,242.08,699.6,242.08c51.08,0,82.72,42.2,82.72,88.28ZM630.19,322H765.11c-3.88-41.09-32.76-63.86-65.51-63.86C661.28,258.18,633.52,284.84,630.19,322Z"/><path class="cls-2" d="M700.71,420.31c-52.75,0-91.06-38.09-91.06-90.5s37.81-90.5,90-90.5c55.52,0,85.5,46.91,85.5,91.05,0,1.5-.17,2.95-.28,4.45-.11,1.27-.27,2.61-.27,3.88v2.78H632.8c4.89,34.31,31.87,57.19,68,57.19,24.71,0,45.64-10.88,55.86-29.15L758,367l19.87,11.77-1.44,2.39c-15.16,24.82-42.7,39.09-75.68,39.09ZM699.6,244.86c-48.92,0-84.4,35.7-84.4,84.95s36,84.95,85.51,84.95c29.87,0,55-12.38,69.4-34l-10.16-6c-11.66,18.54-33.59,29.54-59.24,29.54-40.15,0-69.8-26.21-73.85-65.24l-.33-3.06H779.1c0-.55.12-1.11.17-1.66.11-1.28.28-2.61.28-3.89,0-41.42-28-85.51-79.95-85.51Zm68.57,79.95h-141l.27-3c3.5-39.08,33.21-66.4,72.19-66.4s64.51,26.65,68.29,66.35ZM633.3,319.26H762c-4.55-35-29.31-58.3-62.4-58.3C664.62,261,637.74,284.78,633.3,319.26Z"/><path class="cls-2" d="M877.27,262.63V373.12c0,29.42,15.55,30,50,27.2v15c-43.86,6.66-67.18-3.89-67.18-42.2V262.63H823.41V246h36.65v-53.3l17.21-17.22V246h50v16.66Z"/><path class="cls-2" d="M905,420c-15.27,0-26.43-3.33-34.37-10.16-9-7.77-13.38-19.77-13.38-36.7V265.4H820.64V243.19h36.64V191.5l22.77-22.76v74.45h50V265.4h-50V373.12c0,10.1,1.88,16.6,5.94,20.32,6.88,6.33,21.37,5.72,41,4.11l3-.22V417.7l-2.33.34a152.48,152.48,0,0,1-22.6,1.94ZM826.19,259.85h36.64V373.12c0,15.27,3.78,25.87,11.44,32.53,9.61,8.28,26,10.66,50.2,7.28v-9.61c-20.16,1.56-34.1,1.72-42.26-5.83-5.27-4.88-7.72-12.6-7.72-24.37V259.85h50V248.74h-50V182.17l-11.66,11.66v54.91H826.19v11.11Z"/><path class="cls-2" d="M970.55,329.81c0-49.42,37.76-87.73,88.28-87.73,32.76,0,61.08,16.66,73.29,42.76l-13.88,8.32c-10-21.1-32.76-35-59.41-35-40.53,0-71.07,31.65-71.07,71.63s30.54,71.62,71.07,71.62c27.21,0,49.42-13.88,60.52-35l13.88,8.33c-13.32,26.1-41.64,42.76-74.4,42.76C1008.31,417.54,970.55,379.22,970.55,329.81Z"/><path class="cls-2" d="M1058.83,420.31c-51.91,0-91.06-38.92-91.06-90.5s39.15-90.5,91.06-90.5c34,0,63,17,75.79,44.36l1.06,2.28L1117,297.16l-1.33-2.77c-9.77-20.6-31.54-33.37-56.91-33.37-38.31,0-68.3,30.26-68.3,68.84s30,68.85,68.3,68.85c25.31,0,47-12.49,58.07-33.48l1.39-2.61,18.6,11.16-1.16,2.34c-13.94,27.31-43.42,44.25-76.85,44.25Zm0-175.45c-48.75,0-85.5,36.53-85.5,84.95s36.75,84.95,85.5,84.95c30.43,0,57.25-14.88,70.68-39l-9.16-5.49c-12.38,21.26-35.2,33.87-61.57,33.87-41.42,0-73.85-32.71-73.85-74.41s32.43-74.4,73.85-74.4c26.37,0,49.3,12.88,60.52,33.82l9.1-5.5c-12.38-24-38.86-38.92-69.68-38.92Z"/><path class="cls-2" d="M1337,309.27V413.65h-17.21V309.27c0-31.1-17.77-51.09-49.41-51.09s-58.86,21.66-58.86,66.63v88.28h-16.66V192.67l16.66-17.22V277.62c12.77-25,34.43-35.54,60-35.54C1312,242.08,1337,268.73,1337,309.27Z"/><path class="cls-2" d="M1339.78,416.43H1317V309.27c0-30.26-17.44-48.31-46.64-48.31-34.6,0-56.08,24.49-56.08,63.85v91.06h-22.21V191.56l22.21-22.94v98.95c12.82-18.55,32.37-28.26,57.19-28.26,41.47,0,68.29,27.48,68.29,70Zm-17.21-5.56h11.66V309.27c0-39.76-24-64.41-62.74-64.41-26.6,0-46,11.44-57.47,34l-5.28,10.28V182.34l-11.1,11.49V410.37h11.1v-85.5c0-51.2,31.82-69.41,61.64-69.41,32.2,0,52.19,20.66,52.19,53.86V410.87Z"/><path class="cls-2" d="M1647.94,246V413.65h-17.22V375.89c-13.88,25-40,41.65-72.18,41.65-47.75,0-86.61-37.76-86.61-87.73s39.42-87.73,86.61-87.73c32.21,0,58.3,16.66,72.18,41.64V246Zm-17.22,83.84c0-40-31.09-71.63-71.07-71.63s-71.07,31.65-71.07,71.63,31.1,71.62,71.07,71.62S1630.72,369.79,1630.72,329.81Z"/><path class="cls-2" d="M1558.54,420.31c-50.14,0-89.39-39.75-89.39-90.5s39.25-90.5,89.39-90.5c28.38,0,53.64,12.88,69.41,34.86v-31h22.76V416.43H1628v-31C1612.18,407.43,1586.92,420.31,1558.54,420.31Zm0-175.45c-47,0-83.84,37.31-83.84,84.95s36.81,84.95,83.84,84.95c29.71,0,55.75-15.05,69.74-40.2l5.22-9.38v45.69h11.66V248.74H1633.5v45.7l-5.22-9.38C1614.29,259.85,1588.19,244.86,1558.54,244.86Zm1.11,159.35c-41.42,0-73.84-32.7-73.84-74.4s32.42-74.4,73.84-74.4,73.85,32.7,73.85,74.4S1601.07,404.21,1559.65,404.21Zm0-143.25c-38.31,0-68.29,30.26-68.29,68.85s30,68.85,68.29,68.85,68.3-30.26,68.3-68.85S1598,261,1559.65,261Z"/><rect class="cls-2" x="1724" y="245.97" width="16.66" height="167.68"/><path class="cls-2" d="M1743.44,416.43h-22.21V243.19h22.21Zm-16.66-5.56h11.1V248.74h-11.1Z"/><rect class="cls-2" x="173.23" y="175.45" width="28.87" height="28.87"/><path class="cls-2" d="M204.88,207.1H170.46V172.68h34.42ZM176,201.55h23.32V178.23H176Z"/><rect class="cls-2" x="245.41" y="175.45" width="28.87" height="28.87"/><path class="cls-2" d="M277.06,207.1H242.64V172.68h34.42Zm-28.87-5.55h23.32V178.23H248.19Z"/><rect class="cls-2" x="317.59" y="175.45" width="28.87" height="28.87"/><path class="cls-2" d="M349.24,207.1H314.82V172.68h34.42Zm-28.87-5.55h23.32V178.23H320.37Z"/><rect class="cls-2" x="173.23" y="247.63" width="28.87" height="28.87"/><path class="cls-2" d="M204.88,279.28H170.46V244.86h34.42ZM176,273.73h23.32V250.41H176Z"/><rect class="cls-2" x="245.41" y="247.63" width="28.87" height="28.87"/><path class="cls-2" d="M277.06,279.28H242.64V244.86h34.42Zm-28.87-5.55h23.32V250.41H248.19Z"/><rect class="cls-2" x="173.23" y="319.81" width="28.87" height="28.87"/><path class="cls-2" d="M204.88,351.46H170.46V317h34.42ZM176,345.91h23.32V322.59H176Z"/><circle class="cls-2" cx="404.21" cy="189.89" r="7.22"/><path class="cls-2" d="M404.21,199.88a10,10,0,1,1,10-10A10,10,0,0,1,404.21,199.88Zm0-14.43a4.44,4.44,0,1,0,4.44,4.44A4.46,4.46,0,0,0,404.21,185.45Z"/><circle class="cls-2" cx="404.21" cy="262.07" r="7.22"/><path class="cls-2" d="M404.21,272.06a10,10,0,1,1,10-10A10,10,0,0,1,404.21,272.06Zm0-14.43a4.44,4.44,0,1,0,4.44,4.44A4.46,4.46,0,0,0,404.21,257.63Z"/><circle class="cls-2" cx="404.21" cy="334.25" r="7.22"/><path class="cls-2" d="M404.21,344.25a10,10,0,1,1,10-10A10,10,0,0,1,404.21,344.25Zm0-14.44a4.44,4.44,0,1,0,4.44,4.44A4.46,4.46,0,0,0,404.21,329.81Z"/><circle class="cls-2" cx="404.21" cy="406.43" r="7.22"/><path class="cls-2" d="M404.21,416.43a10,10,0,1,1,10-10A10,10,0,0,1,404.21,416.43Zm0-14.44a4.44,4.44,0,1,0,4.44,4.44A4.46,4.46,0,0,0,404.21,402Z"/><circle class="cls-2" cx="332.03" cy="262.07" r="7.22"/><path class="cls-2" d="M332,272.06a10,10,0,1,1,10-10A10,10,0,0,1,332,272.06Zm0-14.43a4.44,4.44,0,1,0,4.44,4.44A4.46,4.46,0,0,0,332,257.63Z"/><circle class="cls-2" cx="332.03" cy="334.25" r="7.22"/><path class="cls-2" d="M332,344.25a10,10,0,1,1,10-10A10,10,0,0,1,332,344.25Zm0-14.44a4.44,4.44,0,1,0,4.44,4.44A4.46,4.46,0,0,0,332,329.81Z"/><circle class="cls-2" cx="332.03" cy="406.43" r="7.22"/><path class="cls-2" d="M332,416.43a10,10,0,1,1,10-10A10,10,0,0,1,332,416.43ZM332,402a4.44,4.44,0,1,0,4.44,4.44A4.46,4.46,0,0,0,332,402Z"/><circle class="cls-2" cx="259.85" cy="334.25" r="7.22"/><path class="cls-2" d="M259.85,344.25a10,10,0,1,1,10-10A10,10,0,0,1,259.85,344.25Zm0-14.44a4.44,4.44,0,1,0,4.44,4.44A4.46,4.46,0,0,0,259.85,329.81Z"/><circle class="cls-2" cx="259.85" cy="406.43" r="7.22"/><path class="cls-2" d="M259.85,416.43a10,10,0,1,1,10-10A10,10,0,0,1,259.85,416.43Zm0-14.44a4.44,4.44,0,1,0,4.44,4.44A4.46,4.46,0,0,0,259.85,402Z"/><circle class="cls-2" cx="187.67" cy="406.43" r="7.22"/><path class="cls-2" d="M187.67,416.43a10,10,0,1,1,10-10A10,10,0,0,1,187.67,416.43Zm0-14.44a4.44,4.44,0,1,0,4.44,4.44A4.46,4.46,0,0,0,187.67,402Z"/></g></g></svg>