<svg xmlns="http://www.w3.org/2000/svg" fill="none" viewBox="0 0 70 70">
  <circle cx="35" cy="35" r="35" fill="url(#a)"/>
  <path fill="#fff" fill-rule="evenodd" d="M32.62 27.105 20.9 16.073c-8.91 7.03-14.43 24.638-1.36 37.994C18.084 31 32.62 27.105 32.62 27.105Z" clip-rule="evenodd"/>
  <path fill="url(#b)" d="M47.699 31.4c.347-4.673-.31-9.113-2.364-12.835a20.823 20.823 0 0 1 10.307 14.119c-.755 1.714-1.736 2.96-2.25 3.609-.045.06-.09.113-.128.159-.974 1.253-1.548 1.721-1.548 1.721s.453.227 3.073-2.107c.332-.294.71-.702 1.118-1.2.022.196.045.385.083.581.007.06.023.121.03.174a21.256 21.256 0 0 1-.257 4.553c-.959 3.435-3.42 5.633-4.41 6.508a2.184 2.184 0 0 1-.15.136c-1.179 1.065-1.828 1.427-1.828 1.427s.408.302 3.39-1.54c.355-.219.763-.528 1.216-.906a20.924 20.924 0 0 1-6.184 7.55c-3.745 3.33-8.676 5.369-14.09 5.369A21.19 21.19 0 0 1 21.7 54.995c.272-.453 24.194.907 25.999-23.595Z"/>
  <path fill="#fff" d="m46.037 14.42.023-.121c.09-.99-.34-1.986-1.035-2.68a4.37 4.37 0 0 0-1.193-.839 6.125 6.125 0 0 0-1.404-.46c-1.178-.227-2.454-.144-3.647-.053-.552.045-1.488.12-2.092.204-.212.03-.264.317-.076.415.793.415 1.548.92 2.04 1.691.528.838.8 1.812 1.389 2.62.883 1.216 2.537 1.933 4.002 1.457a3.12 3.12 0 0 0 1.412-.944c5.12 2.892 9.197 7.536 11.138 13.055 2.884 7.913 1.442 16.928-3.783 23.535-12.286 15.252-36.155 10.956-42.853-7.467.672 2.114 1.442 4.25 2.673 6.138.438.846 1.367 2.009 1.918 2.786l1.125 1.269c2.265 2.514 5.188 4.507 8.261 5.897 12.014 5.421 26.467.52 32.81-11.009 7.377-13.1 1.752-29.167-10.708-35.495Z"/>
  <path fill="#fff" d="M47.699 31.4c.347-4.673-.31-9.113-2.364-12.835a20.823 20.823 0 0 1 10.307 14.119c-.755 1.714-1.736 2.96-2.25 3.609-.045.06-.09.113-.128.159-.974 1.253-1.548 1.721-1.548 1.721s.453.227 3.073-2.107c.332-.294.71-.702 1.118-1.2.022.196.045.385.083.581.007.06.023.121.03.174a21.256 21.256 0 0 1-.257 4.553c-.959 3.435-3.42 5.633-4.41 6.508a2.184 2.184 0 0 1-.15.136c-1.179 1.065-1.828 1.427-1.828 1.427s.408.302 3.39-1.54c.355-.219.763-.528 1.216-.906a20.924 20.924 0 0 1-6.184 7.55c-3.745 3.33-8.676 5.369-14.09 5.369A21.19 21.19 0 0 1 21.7 54.995c.272-.453 24.194.907 25.999-23.595Z"/>
  <path fill="url(#c)" fill-rule="evenodd" d="M32.619 27.105S18.076 31 19.54 54.067c0 0-9.522-18.098 4.954-31.22.589-.537 1.208-1.088 1.842-1.647l6.283 5.905Z" clip-rule="evenodd"/>
  <path fill="#fff" fill-rule="evenodd" d="M36.976 22.445c1.163-5.427-3.913-7.01-9.884-9.137-5.97-2.128-7.258-6.399-7.258-6.399s-.944 4.726 1.08 9.598c1.232 2.964 3.811 5.983 7.654 8.023 0 0-2.456.913-3.944 4.213 0 0 6.865-4.065 13.014.705l-.549 2.366c-.005.01 5.886-2.795-.113-9.37Z" clip-rule="evenodd"/>
  <path fill="url(#d)" fill-rule="evenodd" d="M26.94 25.577c-.76.652-1.64 1.661-2.323 3.169 0 0 6.865-4.065 13.014.705.007-.003-3.09-4.969-10.691-3.874Z" clip-rule="evenodd"/>
  <path fill="url(#e)" fill-rule="evenodd" d="M19.838 6.924s-2.582 11.828 8.838 17.569c2.59-1.075 5.16-.624 5.16-.624-14.771-8.16-13.998-16.945-13.998-16.945Z" clip-rule="evenodd"/>
  <path fill="url(#f)" d="m46.037 14.42.023-.121c.09-.99-.34-1.986-1.035-2.68a4.37 4.37 0 0 0-1.193-.839 6.126 6.126 0 0 0-1.404-.46c-1.178-.227-2.454-.144-3.648-.053-.55.045-1.487.12-2.091.204-.212.03-.265.317-.076.415.181.09.355.196.521.294.264-.022.521-.038.718-.053 1.193-.09 2.461-.173 3.647.053.483.09.959.242 1.404.46.438.212.846.492 1.193.839.695.695 1.126 1.691 1.035 2.68a3.629 3.629 0 0 0-.023.121c12.452 6.327 18.085 22.395 10.7 35.48a24.975 24.975 0 0 1-4.493 5.89 25.02 25.02 0 0 0 5.407-6.743c7.4-13.093 1.774-29.16-10.685-35.488Z"/>
  <path fill="url(#g)" d="M49.798 55.449c-12.83 11.348-33.656 6.395-39.84-10.616.672 2.114 1.442 4.25 2.673 6.139.438.845 1.367 2.008 1.918 2.786l1.125 1.268c1.986 2.205 4.486 4.01 7.151 5.361 8.767 3.753 19.437 2.424 26.973-4.938Z"/>
  <path fill="url(#h)" d="M54.193 32.828c-.733 1.668-1.7 2.891-2.198 3.526-.045.06-.083.105-.12.158-.952 1.223-1.51 1.684-1.51 1.684s.437.219 2.997-2.061c.234-.204.49-.491.77-.8.483-.68 1.05-1.571 1.518-2.643a20.824 20.824 0 0 0-10.307-14.12c.317.574.589 1.178.845 1.782 4.1 2.975 7 7.422 8.005 12.474Z"/>
  <path fill="url(#i)" d="M56.012 35.63a1.385 1.385 0 0 0-.03-.175c-.03-.196-.06-.392-.083-.581-.408.498-.785.906-1.117 1.2-.076.069-.151.129-.227.197a20.634 20.634 0 0 1-.166 3.186c-.03.234-.068.46-.106.687-.936 3.353-3.345 5.497-4.304 6.358-.053.045-.106.09-.151.136-1.155 1.034-1.782 1.397-1.782 1.397s.393.294 3.315-1.503c.196-.12.415-.272.642-.445 1.163-1.11 2.96-3.074 3.745-5.897.038-.234.076-.469.106-.71.173-1.306.226-2.59.158-3.85Z"/>
  <path fill="url(#j)" d="M46.521 53.003c-3.662 3.254-8.472 5.24-13.758 5.24-3.67 0-7.106-.967-10.096-2.635a21.126 21.126 0 0 0 11.04 3.11c5.414 0 10.337-2.03 14.09-5.368a20.863 20.863 0 0 0 6.184-7.55c-.453.385-.86.687-1.215.906-.446.28-.83.498-1.17.687a20.499 20.499 0 0 1-5.075 5.61Z"/>
  <defs>
    <linearGradient id="a" x1="-67.733" x2="-78.144" y1="-56.907" y2="83.436" gradientUnits="userSpaceOnUse">
      <stop stop-color="#2B9FEA"/>
      <stop offset="1" stop-color="#2757FF"/>
    </linearGradient>
    <linearGradient id="b" x1="19.537" x2="83.027" y1="19.43" y2="93.666" gradientUnits="userSpaceOnUse">
      <stop stop-color="#27FFD8"/>
      <stop offset=".366" stop-color="#2BA1E9"/>
      <stop offset="1" stop-color="#2D59F5"/>
    </linearGradient>
    <linearGradient id="c" x1="27.759" x2="23.212" y1="51.508" y2="28.626" gradientUnits="userSpaceOnUse">
      <stop stop-color="#2972F8" stop-opacity=".46"/>
      <stop offset="1" stop-color="#fff"/>
    </linearGradient>
    <linearGradient id="d" x1="41.783" x2="27.603" y1="29.547" y2="27.117" gradientUnits="userSpaceOnUse">
      <stop stop-color="#2A78F6" stop-opacity=".4"/>
      <stop offset="1" stop-color="#fff"/>
    </linearGradient>
    <linearGradient id="e" x1="16.765" x2="27.547" y1=".675" y2="21.129" gradientUnits="userSpaceOnUse">
      <stop stop-color="#2972F8"/>
      <stop offset="1" stop-color="#fff"/>
    </linearGradient>
    <linearGradient id="f" x1="79.014" x2="44.334" y1="61.044" y2="30.768" gradientUnits="userSpaceOnUse">
      <stop stop-color="#2973F8"/>
      <stop offset="1" stop-color="#fff"/>
    </linearGradient>
    <linearGradient id="g" x1="61.827" x2="27.148" y1="80.731" y2="50.455" gradientUnits="userSpaceOnUse">
      <stop stop-color="#2970F9" stop-opacity=".74"/>
      <stop offset="1" stop-color="#fff"/>
    </linearGradient>
    <linearGradient id="h" x1="31.236" x2="58.1" y1="23.016" y2="31.687" gradientUnits="userSpaceOnUse">
      <stop stop-color="#fff"/>
      <stop offset=".832" stop-color="#88B1FF" stop-opacity=".284"/>
      <stop offset="1" stop-color="#71A1FF" stop-opacity="0"/>
    </linearGradient>
    <linearGradient id="i" x1="27.805" x2="54.668" y1="33.647" y2="42.318" gradientUnits="userSpaceOnUse">
      <stop stop-color="#fff"/>
      <stop offset="1" stop-color="#D1E3FF"/>
    </linearGradient>
    <linearGradient id="j" x1="23.72" x2="50.583" y1="46.304" y2="54.975" gradientUnits="userSpaceOnUse">
      <stop stop-color="#fff"/>
      <stop offset="1" stop-color="#AFCCFF"/>
    </linearGradient>
  </defs>
</svg>