<svg width="1500" height="1500" viewBox="0 0 1500 1500" fill="none" xmlns="http://www.w3.org/2000/svg">
<rect width="1500" height="1500" fill="#14151A"/>
<path d="M390.181 439.196C396.079 431.781 402.33 424.646 408.581 417.512C408.862 417.159 409.496 417.086 409.777 416.733C410.338 416.027 411.253 415.601 411.815 414.895L412.377 414.189C416.734 410.16 421.372 405.778 426.717 401.958C445.632 387.599 465.262 376.69 485.96 369.512C552.347 346.205 626.247 360.569 684.2 415.28C765.119 491.13 757.872 613.32 693.278 694.536C611.651 815.609 471.375 984.526 665.6 1135.84C700.521 1163.05 726.428 1185.48 836.43 1217.27C764.487 1230.53 697.778 1226.4 623.528 1207.44C571.006 1177.79 488.432 1114.32 460.339 1028.59C417.878 898.584 535.093 704.239 591.742 629.387C669.519 525.798 543.669 413.656 451.017 538.85C402.584 604.094 317.855 788.72 347.299 925.667C364.515 1003.33 387.463 1059.94 478.45 1137.7C461.577 1127.74 445.193 1116.45 429.299 1103.81C217.898 906.894 242.424 602.415 390.181 439.196Z" fill="url(#paint0_linear)"/>
<path d="M1109.82 1060.8C1103.92 1068.22 1097.67 1075.35 1091.42 1082.49C1091.14 1082.84 1090.5 1082.91 1090.22 1083.27C1089.66 1083.97 1088.75 1084.4 1088.18 1085.1L1087.62 1085.81C1083.27 1089.84 1078.63 1094.22 1073.28 1098.04C1054.37 1112.4 1034.74 1123.31 1014.04 1130.49C947.653 1153.79 873.753 1139.43 815.8 1084.72C734.881 1008.87 742.128 886.68 806.722 805.464C888.349 684.391 1028.62 515.474 834.4 364.157C799.479 336.95 773.572 314.517 663.57 282.729C735.513 269.475 802.222 273.598 876.472 292.562C928.994 322.208 1011.57 385.682 1039.66 471.412C1082.12 601.416 964.907 795.761 908.258 870.613C830.481 974.202 956.331 1086.34 1048.98 961.15C1097.42 895.906 1182.14 711.28 1152.7 574.333C1135.48 496.673 1112.54 440.064 1021.55 362.303C1038.42 372.257 1054.81 383.552 1070.7 396.186C1282.1 593.106 1257.58 897.585 1109.82 1060.8Z" fill="url(#paint1_linear)"/>
<defs>
<linearGradient id="paint0_linear" x1="275" y1="750" x2="1225" y2="750" gradientUnits="userSpaceOnUse">
<stop stop-color="#0082FA"/>
<stop offset="1" stop-color="#00F2FE"/>
</linearGradient>
<linearGradient id="paint1_linear" x1="275" y1="750" x2="1225" y2="750" gradientUnits="userSpaceOnUse">
<stop stop-color="#0082FA"/>
<stop offset="1" stop-color="#00F2FE"/>
</linearGradient>
</defs>
</svg>
