<?xml version="1.0" encoding="UTF-8"?>
<svg version="1.1" xmlns="http://www.w3.org/2000/svg" width="256" height="256">
<path d="M0 0 C2.52096309 2.2275585 4.98034211 4.50638231 7.42578125 6.81640625 C8.17601562 7.5021875 8.92625 8.18796875 9.69921875 8.89453125 C25.98970564 24.32762409 36.54719771 45.38249626 42.42578125 66.81640625 C42.93431641 68.57791016 42.93431641 68.57791016 43.453125 70.375 C51.37949267 103.7241875 43.69917207 138.85763396 26.42578125 167.81640625 C21.49702501 175.46447627 15.66316104 182.21338695 9.42578125 188.81640625 C8.74 189.56664062 8.05421875 190.316875 7.34765625 191.08984375 C-8.08543659 207.38033064 -29.14030876 217.93782271 -50.57421875 223.81640625 C-51.74855469 224.15542969 -52.92289063 224.49445313 -54.1328125 224.84375 C-87.482 232.77011767 -122.61544646 225.08979707 -151.57421875 207.81640625 C-159.22228877 202.88765001 -165.97119945 197.05378604 -172.57421875 190.81640625 C-173.32445312 190.130625 -174.0746875 189.44484375 -174.84765625 188.73828125 C-191.13814314 173.30518841 -201.69563521 152.25031624 -207.57421875 130.81640625 C-207.91324219 129.64207031 -208.25226563 128.46773437 -208.6015625 127.2578125 C-216.52793017 93.908625 -208.84760957 58.77517854 -191.57421875 29.81640625 C-186.64546251 22.16833623 -180.81159854 15.41942555 -174.57421875 8.81640625 C-173.8884375 8.06617188 -173.20265625 7.3159375 -172.49609375 6.54296875 C-157.06300091 -9.74751814 -136.00812874 -20.30501021 -114.57421875 -26.18359375 C-113.39988281 -26.52261719 -112.22554688 -26.86164062 -111.015625 -27.2109375 C-72.53579317 -36.35674638 -29.92130312 -25.38089294 0 0 Z " fill="#FAFEFC" transform="translate(210.57421875,29.18359375)"/>
<path d="M0 0 C2.52096309 2.2275585 4.98034211 4.50638231 7.42578125 6.81640625 C8.17601562 7.5021875 8.92625 8.18796875 9.69921875 8.89453125 C25.98970564 24.32762409 36.54719771 45.38249626 42.42578125 66.81640625 C42.93431641 68.57791016 42.93431641 68.57791016 43.453125 70.375 C51.37949267 103.7241875 43.69917207 138.85763396 26.42578125 167.81640625 C21.49702501 175.46447627 15.66316104 182.21338695 9.42578125 188.81640625 C8.74 189.56664062 8.05421875 190.316875 7.34765625 191.08984375 C-8.08543659 207.38033064 -29.14030876 217.93782271 -50.57421875 223.81640625 C-51.74855469 224.15542969 -52.92289063 224.49445313 -54.1328125 224.84375 C-87.482 232.77011767 -122.61544646 225.08979707 -151.57421875 207.81640625 C-159.22228877 202.88765001 -165.97119945 197.05378604 -172.57421875 190.81640625 C-173.32445312 190.130625 -174.0746875 189.44484375 -174.84765625 188.73828125 C-191.13814314 173.30518841 -201.69563521 152.25031624 -207.57421875 130.81640625 C-207.91324219 129.64207031 -208.25226563 128.46773437 -208.6015625 127.2578125 C-216.52793017 93.908625 -208.84760957 58.77517854 -191.57421875 29.81640625 C-186.64546251 22.16833623 -180.81159854 15.41942555 -174.57421875 8.81640625 C-173.8884375 8.06617188 -173.20265625 7.3159375 -172.49609375 6.54296875 C-157.06300091 -9.74751814 -136.00812874 -20.30501021 -114.57421875 -26.18359375 C-113.39988281 -26.52261719 -112.22554688 -26.86164062 -111.015625 -27.2109375 C-72.53579317 -36.35674638 -29.92130312 -25.38089294 0 0 Z M-110.57421875 10.81640625 C-112.26224609 11.35974609 -112.26224609 11.35974609 -113.984375 11.9140625 C-136.59969674 19.86581448 -152.49577374 35.74944513 -164.57421875 55.81640625 C-165.00863281 56.53699219 -165.44304687 57.25757813 -165.890625 58 C-175.40925887 75.35750882 -177.81470102 100.23575447 -172.94921875 119.31640625 C-167.97808039 136.25316185 -160.89629057 149.97397667 -148.57421875 162.81640625 C-147.49140625 163.99396484 -147.49140625 163.99396484 -146.38671875 165.1953125 C-141.02166464 170.85736067 -135.30885498 174.91987124 -128.57421875 178.81640625 C-127.69894531 179.35265625 -126.82367188 179.88890625 -125.921875 180.44140625 C-118.82043253 184.61259126 -111.56917305 186.93524053 -103.57421875 188.81640625 C-102.8255957 188.99445801 -102.07697266 189.17250977 -101.30566406 189.35595703 C-78.30312343 194.44489396 -53.84415555 189.77144199 -33.82421875 177.50390625 C-11.25390799 162.24463226 3.19151925 141.12835381 8.67578125 114.31640625 C12.36971446 88.89542949 7.01817845 64.60149334 -8.20703125 43.83984375 C-24.25330368 23.34509976 -45.65376787 10.77621464 -71.57421875 6.81640625 C-85.04377345 5.70409588 -97.74777082 6.53155782 -110.57421875 10.81640625 Z " fill="#04CC7F" transform="translate(210.57421875,29.18359375)"/>
<path d="M0 0 C-3.51925831 1.1730861 -4.22788481 0.74570576 -7.625 -0.4375 C-23.8690867 -5.0664218 -40.63562409 -1.45900552 -55.28515625 6.3671875 C-59.50679923 8.9062476 -63.2976898 11.75600286 -67 15 C-67.61488281 15.53238281 -68.22976562 16.06476563 -68.86328125 16.61328125 C-79.02157104 26.05080547 -86.45948728 40.34798387 -87.10644531 54.29467773 C-87.17048134 56.96818173 -87.1856074 59.63825716 -87.1875 62.3125 C-87.20586914 63.66118164 -87.20586914 63.66118164 -87.22460938 65.03710938 C-87.26026675 81.47516108 -80.55128531 97.33635411 -69.1875 109.25 C-55.15876251 122.44240891 -38.44726306 128.83416985 -19.29296875 128.3046875 C-13.03896786 127.97306815 -7.04497113 126.60943764 -1 125 C-4.84712265 129.30368779 -8.64366437 131.6826808 -13.875 134.0625 C-15.00373535 134.57683594 -15.00373535 134.57683594 -16.15527344 135.1015625 C-35.45667483 143.64387393 -54.96722608 144.66297951 -75 138 C-76.05445313 137.649375 -77.10890625 137.29875 -78.1953125 136.9375 C-97.94087153 129.51358225 -112.03487463 114.37399888 -121.1875 95.75 C-129.64079067 76.44114304 -130.63352274 56.98813947 -124 37 C-123.66097656 35.95714844 -123.32195312 34.91429687 -122.97265625 33.83984375 C-115.52817218 13.7317889 -98.88159543 -1.53561483 -79.75 -10.421875 C-52.77835504 -22.1867034 -23.81590845 -15.70836515 0 0 Z " fill="#06CB80" transform="translate(177,65)"/>
<path d="M0 0 C2.17515753 1.56415822 4.04839405 3.15681661 6 5 C2.68736859 6.10421047 0.41378873 5.99930115 -3.0625 5.875 C-13.91968328 5.83888963 -21.76060293 8.86842102 -30 16 C-38.46033754 24.7191624 -41.62750349 33.71323386 -41.47070312 45.671875 C-41.03487361 56.11323747 -37.38712657 64.54251984 -30 72 C-21.39295782 79.21699785 -13.69960283 82.54318771 -2.5 82.1875 C-1.67757812 82.17396484 -0.85515625 82.16042969 -0.0078125 82.14648438 C1.99508221 82.11155016 3.99763356 82.05776057 6 82 C-3.77360272 92.15149245 -15.96197043 97.02945952 -30.0625 97.5 C-44.8284086 97.02048001 -58.8946634 90.72633493 -69 80 C-80.75969312 65.75586467 -83.02206601 51.88994059 -82 34 C-81.46609011 30.353124 -80.55465239 27.33223607 -79 24 C-78.58621094 23.1028125 -78.17242187 22.205625 -77.74609375 21.28125 C-71.12919468 8.15563005 -60.99870967 -0.91710209 -47.44140625 -6.453125 C-30.5823412 -11.79088919 -15.04673211 -8.87712809 0 0 Z " fill="#06CE82" transform="translate(184,84)"/>
<path d="M0 0 C5.56100888 4.11216366 9.23149817 9.30049896 11 16 C12.1973002 24.3585108 10.94170996 31.10070445 6 38 C0.99405856 43.55052085 -4.44164325 47.53247623 -12.046875 48.3125 C-19.05974599 48.57103902 -24.17264672 47.97319541 -30 44 C-30.86625 43.484375 -31.7325 42.96875 -32.625 42.4375 C-38.01219185 36.90853994 -41.36320061 30.66760607 -41.5625 22.875 C-41.01712821 13.89377099 -38.97788169 7.88794395 -32.23046875 1.73046875 C-22.39771237 -5.89809706 -10.74180353 -6.19578429 0 0 Z " fill="#06D083" transform="translate(196,106)"/>
</svg>
