<svg xmlns="http://www.w3.org/2000/svg" xml:space="preserve" fill="none" viewBox="0 0 300 300">
  <circle cx="150" cy="150" r="150" fill="#33CB9F"/>
  <path fill="#FCFEFE" d="M67.15 96.044c2.488-3.393 4.337-7.656 7.57-10.036 18.21-13.398 36.693-26.428 55.26-39.327 2.102-1.46 5.321-1.312 8.023-1.91.462 2.615 1.777 5.416 1.253 7.814-4.045 18.51-8.44 36.944-12.74 55.398-2.98 12.784-6.137 25.53-8.87 38.365-.703 3.302-.732 7.02-.004 10.311 4.88 22.072 10.053 44.08 15.122 66.11 2.198 9.554 4.55 19.079 6.419 28.697.399 2.054-.315 5.434-1.745 6.419-1.406.969-4.906.427-6.577-.748-19.448-13.668-38.798-27.48-57.953-41.554-2.448-1.799-3.643-5.302-5.492-8.778-.048-27.81.003-54.86-.01-81.908-.005-9.618-.167-19.235-.257-28.853z"/>
  <path fill="#FBFEFD" d="M177.165 131.22c16.842-9.078 33.34-18.016 49.855-26.927 5.938-3.204 9.428-1.346 9.46 5.483.127 27.803.117 55.607.005 83.41-.025 6.305-3.794 8.56-9.194 5.663-28.096-15.07-56.144-30.23-84.197-45.38-.677-.366-1.223-.976-2.85-2.303 12.631-6.836 24.608-13.317 36.921-19.947zM188.746 194.328c11.289 6.088 22.304 11.913 33.241 17.88 4.908 2.677 5.14 5.801.593 9.09-18.871 13.647-37.8 27.215-56.753 40.748-4.605 3.287-7.77 2.294-9.19-3.339-3.21-12.732-6.05-25.56-8.974-38.363-3.74-16.376-7.42-32.765-11.1-49.155-.312-1.385-.438-2.812-.815-5.316 18.205 9.76 35.448 19.005 52.998 28.455zM154.626 52.56c.712-2.99 1.14-5.63 1.895-8.17 1.68-5.643 4.766-6.671 9.63-3.213 13.952 9.915 27.866 19.883 41.795 29.83 4.597 3.284 9.228 6.522 13.783 9.864 5.577 4.093 5.44 6.85-.715 10.198-22.31 12.135-44.668 24.182-67.016 36.247-5.768 3.113-11.566 6.17-18.654 9.949 6.596-29.045 12.87-56.677 19.282-84.705z"/>
</svg>