<svg xmlns="http://www.w3.org/2000/svg" xmlns:xlink="http://www.w3.org/1999/xlink" viewBox="0 0 465.86 465.86"><defs><style>.cls-1{fill:url(#linear-gradient);}</style><linearGradient id="linear-gradient" x1="232.93" y1="16.15" x2="232.93" y2="502.91" gradientUnits="userSpaceOnUse"><stop offset="0" stop-color="#54f5ff"/><stop offset="1" stop-color="#38cdee"/></linearGradient></defs><g id="Layer_2" data-name="Layer 2"><g id="Layer_2-2" data-name="Layer 2"><path class="cls-1" d="M232.93,0C104.29,0,0,104.29,0,232.93S104.29,465.86,232.93,465.86,465.86,361.57,465.86,232.93,361.57,0,232.93,0ZM159,297.68l-31.72-34.53A22.19,22.19,0,0,0,111,256H93.28V297.5H74.15V236.86H111a41.38,41.38,0,0,1,30.39,13.35L178.85,291l6.56,6.65Zm19.88-122.55L141.34,216A41.38,41.38,0,0,1,111,229.3H74.15V168.66H93.28v41.51H111a22.19,22.19,0,0,0,16.3-7.16L159,168.48h26.44Zm65.52,122.46H225.24V188.4H194.19V169.27h50.18Zm36.22-109.13h-26.4V169.32h26.4Zm111.12,23.32H372.58V195.89a8.59,8.59,0,0,0-8.58-8.58H320.82a8.59,8.59,0,0,0-8.58,8.58V269.6a8.59,8.59,0,0,0,8.58,8.57H364a8.59,8.59,0,0,0,8.58-8.57V253.7h19.13v15.9A27.74,27.74,0,0,1,364,297.3H320.82a27.74,27.74,0,0,1-27.71-27.7V195.89a27.74,27.74,0,0,1,27.71-27.71H364a27.74,27.74,0,0,1,27.71,27.71Z"/></g></g></svg>