<svg id="Layer_1" data-name="Layer 1" xmlns="http://www.w3.org/2000/svg" xmlns:xlink="http://www.w3.org/1999/xlink" viewBox="0 0 1600 1600"><defs><style>.cls-1{fill:#020229;}.cls-2{fill:url(#linear-gradient);}</style><linearGradient id="linear-gradient" x1="1033.24" y1="1283.07" x2="439.91" y2="255.4" gradientUnits="userSpaceOnUse"><stop offset="0" stop-color="#1984ff"/><stop offset="1" stop-color="#4dd9f6"/></linearGradient></defs><title>Icon SVG</title><g id="Icon"><circle id="_Ellipsge_" data-name="&lt;Ellipsge&gt;" class="cls-1" cx="800" cy="800" r="800"/><path class="cls-2" d="M821.43,1351.62c-5.85,0-11.75-.14-17.55-.44-176.43-.26-318-113.15-369.53-294.75-68.13-234,22.2-571.08,377.68-796.15l85.22-52.34v99.2c0,187,75.68,294.46,148.87,398.36,60.55,85.48,123.2,173.93,123.2,295.84,1.39,191.68-153.56,348.89-345.41,350.28ZM716.34,1225.26a74.31,74.31,0,0,0,23.43,3.79h.2c23.83,0,47.2-8.79,63.84-25.86,48.24-49.47,41.38-137.39-16.6-230.45C689,816.21,654.8,657.93,686.29,509.59,522.23,692.86,502.09,897,539.74,1026,569.23,1126.59,631.75,1197,716.34,1225.26ZM808.6,483.62c-46.19,134.47-21.43,279,74,430.76,66.33,106.11,82.84,213.72,47.93,298.09,92.4-44.66,126.8-136.7,126.8-211.16,0-84.79-45.84-151.08-98.93-227.83l-3.16-4.57C903.13,695.74,840.18,607.37,808.6,483.62Z"/></g></svg>