<svg width="100" height="100" viewBox="0 0 100 100" fill="none" xmlns="http://www.w3.org/2000/svg">
<rect width="100" height="100" rx="50" fill="#480D6E"/>
<path d="M53.838 77.1633C53.7972 77.1675 53.7586 77.1696 53.7202 77.1738C54.3674 77.1022 55.1423 77.315 55.804 77.3253C56.6011 77.338 57.3995 77.2967 58.1907 77.1987C60.0773 76.9642 61.9229 76.4031 63.634 75.5787C63.634 75.5787 63.6083 75.5573 63.5675 75.5124C63.4217 75.3604 63.0807 74.9407 63.0895 74.3883C60.2737 75.8657 57.149 76.8292 53.838 77.1633Z" fill="white"/>
<path d="M31.5807 68.0415C29.7923 65.8855 28.3554 63.4316 27.354 60.7637C27.399 61.4596 27.4718 62.1788 27.5811 62.922C27.5877 62.9649 27.5941 63.0098 27.6005 63.0526C27.6412 63.3204 27.6669 63.5707 27.6799 63.8064C28.2567 66.5856 29.3976 69.414 31.8959 71.7246C31.8959 71.7246 31.8787 71.6689 31.8552 71.5724C31.8531 71.566 31.8509 71.5597 31.8509 71.5531C31.5722 71.0522 30.858 69.5168 31.5807 68.0415Z" fill="white"/>
<path d="M45.8478 76.7156C44.8057 76.4952 43.7892 76.2081 42.7983 75.8593C43.6306 76.6858 44.5698 77.4499 45.6183 78.0665C45.6485 78.084 45.6805 78.1033 45.7128 78.1202C45.7536 78.1307 45.7941 78.1397 45.8351 78.1482C45.8351 78.1482 45.8309 78.1331 45.8243 78.1075C45.7899 77.9426 45.6721 77.2939 45.8478 76.7156Z" fill="white"/>
<path d="M32.4362 34.5998C35.833 30.8976 40.3127 28.2017 45.374 27.0115L44.1 26.8592L44.0529 26.8529C44.0701 26.8614 44.0849 26.8698 44.1 26.8785C44.1 26.8785 33.826 26.5444 28.0356 34.6812C28.0356 34.6812 28.0658 34.677 28.1193 34.6725C28.1214 34.6704 28.1214 34.6704 28.1235 34.6704C28.1516 34.6641 28.1966 34.6511 28.2588 34.6339C28.8229 34.4843 30.7143 34.0646 32.4362 34.5998Z" fill="white"/>
<path d="M25.8484 49.3721C26.0736 46.9912 26.629 44.7044 27.4673 42.5608C27.1349 42.8801 26.8304 43.1883 26.5668 43.4817C26.4723 43.5887 26.3823 43.6937 26.2986 43.7965C26.1806 43.9421 26.0779 44.0513 25.9918 44.1197C24.3085 46.3124 22.769 48.9032 22.5029 51.9502C22.5265 51.9179 22.55 51.8859 22.5736 51.8516C23.4723 50.6247 24.6516 49.3893 25.8484 49.3721Z" fill="white"/>
<path d="M76.945 47.2803L76.4712 47.8906L76.4069 47.9742L76.1001 47.9956L75.1887 48.0574C75.4269 49.2352 75.5511 50.4558 75.5511 51.7041C75.5511 56.4981 73.7155 60.8619 70.7111 64.1383C68.929 66.7996 66.6924 68.4228 64.5027 69.4504C64.4321 69.4824 64.3635 69.5149 64.2926 69.5448C63.8553 69.744 63.4219 69.9172 62.9931 70.0715C62.9738 70.0779 62.9544 70.0866 62.9351 70.0929C59.8515 71.1956 57.1085 71.2813 56.1908 71.6732C56.0235 71.7438 55.9163 71.8252 55.8797 71.9259C55.3395 73.386 57.3447 74.0882 57.3447 74.0882C51.1255 74.6581 47.2655 71.7695 44.7028 69.6753C44.7007 69.6732 44.6985 69.6708 44.6964 69.6708C43.4525 68.6519 42.5155 67.823 41.7626 67.6734C41.7176 67.6626 41.6747 67.656 41.6319 67.652C39.3566 67.4356 39.4101 69.3283 39.4101 69.3283C36.1054 64.7848 34.969 57.8601 32.8566 58.4554C30.7421 59.0506 30.6349 60.9991 30.6349 60.9991C29.0096 56.7252 30.5814 51.37 33.2341 48.9891C35.8889 46.61 35.2393 43.4711 33.2341 43.5803C31.2313 43.6873 30.4184 45.2034 30.4184 45.2034C30.4033 45.1304 30.3906 45.0578 30.3797 44.9848L30.4184 44.9314C30.4184 44.9314 30.6693 39.1779 38.6639 36.0538C39.3029 35.8035 39.9935 35.5698 40.7377 35.3581C52.6823 31.9493 40.4931 26.7567 51.6809 32.9085L51.6486 32.9341C43.6585 34.9532 37.7461 42.1799 37.7461 50.7856C37.7461 56.1043 40.0041 60.8963 43.6177 64.2559C41.1194 61.5837 39.4122 58.1707 38.8611 54.3829C38.8593 54.3763 38.8593 54.3678 38.8569 54.3615C38.8569 54.3549 38.8548 54.3506 38.8548 54.3443C38.7303 53.4813 38.666 52.6012 38.666 51.7041C38.666 51.2587 38.6811 50.8176 38.7131 50.3807C38.7155 50.3551 38.7176 50.3294 38.7197 50.3035C39.4337 40.7881 47.3941 33.2896 57.1085 33.2896C57.4754 33.2896 57.8399 33.3002 58.2023 33.3216L57.1578 27.0178C55.2622 26.5682 53.285 26.3306 51.252 26.3306C49.2299 26.3306 47.2612 26.5661 45.3741 27.0115C40.3131 28.2019 35.8331 30.8979 32.4363 34.6001C32.8053 34.7135 33.1656 34.872 33.5044 35.0861C35.4257 36.3022 30.3755 39.7882 27.4676 42.5611C26.629 44.7044 26.0736 46.9912 25.8486 49.3724C26.0522 49.3702 26.2581 49.4022 26.462 49.4752C28.7393 50.2993 26.9422 54.5391 27.3541 60.7636C28.3555 63.4315 29.7923 65.8854 31.5807 68.0414C31.7245 67.7437 31.928 67.4485 32.2046 67.1636C34.1543 65.1638 36.9719 66.894 38.3809 69.5981C39.1764 71.1248 40.6304 73.7074 42.7984 75.8591C43.7893 76.2083 44.8058 76.4953 45.8479 76.7158C45.9594 76.3452 46.1889 76.0048 46.637 75.8356C46.6651 75.8229 46.6908 75.8145 46.7207 75.8036C47.1839 75.658 47.8595 75.6815 48.8373 76.0069C50.2935 76.4908 51.9318 76.947 53.7202 77.1741C53.7229 77.1741 53.7258 77.1741 53.7284 77.1741C57.0805 76.8503 60.2427 75.8819 63.0894 74.3882C63.0894 74.3882 63.0752 73.9778 63.2411 73.6667C63.4315 73.3099 63.8423 73.0284 64.1703 72.7979C64.7495 72.3916 65.3988 72.0964 66.059 71.8477C66.6567 71.622 67.2081 71.4639 67.9001 71.1227C67.9022 71.1216 67.904 71.12 67.9062 71.1185C72.379 67.2693 75.4989 61.8951 76.4588 55.8067C76.5067 55.5017 76.9387 55.4861 77.0075 55.7869C77.0088 55.7927 77.0101 55.7988 77.0115 55.8043C77.0501 55.4961 77.0824 55.1835 77.1102 54.8644C77.3095 52.6078 77.2796 50.0876 76.945 47.2803Z" fill="white"/>
<path fill-rule="evenodd" clip-rule="evenodd" d="M70.7942 69.0553C70.6942 69.1462 70.5946 69.2376 70.4922 69.3262Z" fill="white"/>
<path d="M71.7791 68.078C71.7254 68.1335 71.6719 68.1914 71.6161 68.2472C71.5411 68.3262 71.4638 68.4031 71.3868 68.4803C71.3588 68.5083 71.331 68.5382 71.3008 68.568C71.4638 68.4121 71.6227 68.2472 71.7791 68.078Z" fill="white"/>
<path d="M75.1371 39.9886C74.9034 42.6774 74.4928 45.6784 73.8035 48.9127C73.2394 51.5601 72.5697 53.9806 71.8666 56.157C72.576 55.8403 73.2854 55.5237 73.9951 55.2073C73.7196 56.9901 72.572 62.3418 68.4489 65.4652C65.4439 67.6447 61.7082 68.9768 57.6441 69.0746H57.6372C57.481 69.077 57.3249 69.0793 57.1666 69.0793C46.9529 69.0793 38.6706 61.2909 38.6706 51.6835C38.6706 44.4523 43.5926 37.351 51.1883 36.3046C51.7866 37.1401 52.6334 38.0089 53.9085 38.0086C58.101 38.0078 59.891 37.4116 62.1643 38.0086C64.4374 38.606 66.8903 41.0551 66.8903 41.0551L69.1038 38.8449L69.8214 41.0551C69.8214 41.0551 72.0537 36.8404 72.0537 32.5398C72.0537 32.5398 68.6225 35.3235 65.6339 30.124C64.5571 26.8986 46.2511 22.9562 45.2939 15.4297C45.2939 15.4297 42.183 22.3588 49.4817 26.1818L42.183 22.8367C42.183 22.8367 42.6548 25.5491 44.9072 27.6995C38.8029 28.8064 34.7144 31.9781 31.9816 35.789C32.0713 35.9473 32.1322 36.1323 32.1512 36.3451C32.2862 37.8281 31.1784 39.4037 29.992 40.2008C29.7635 40.3541 29.5277 40.4924 29.2897 40.6261C26.813 46.4462 26.5417 52.3979 26.5994 54.399C30.0219 74.5077 52.5013 74.7131 52.7702 74.7131C62.5852 74.7131 71.1034 68.6985 74.8025 60.1909L74.8065 60.1845L74.8075 60.1795C75.6734 58.1853 76.2754 56.0541 76.566 53.8316L76.5666 53.8308C77.9963 44.2836 75.1371 39.9886 75.1371 39.9886Z" fill="white"/>
<mask id="mask0_1073_20513" style="mask-type:luminance" maskUnits="userSpaceOnUse" x="26" y="15" width="51" height="60">
<path d="M49.4812 26.182L42.1828 22.8369C42.1828 22.8369 42.6546 25.5492 44.9067 27.6996C27.6626 30.8269 26.4843 50.421 26.599 54.3992C30.0214 74.5079 52.5011 74.7133 52.77 74.7133C62.5848 74.7133 71.1029 68.6989 74.8023 60.191L74.8063 60.1849L74.8071 60.1796C75.6729 58.1854 76.2749 56.0545 76.5658 53.832L76.5661 53.8312C77.9958 44.2838 75.1369 39.989 75.1369 39.989C74.9032 42.6776 74.4926 45.6785 73.803 48.9129C73.2389 51.5602 72.5695 53.981 71.8661 56.1571C72.5755 55.8407 73.2852 55.5241 73.9949 55.2074C73.7191 56.9905 72.5716 62.3422 68.4487 65.4653C65.4437 67.6451 61.7078 68.9772 57.6436 69.075H57.6368C57.4808 69.0774 57.3244 69.0795 57.1661 69.0795C46.9527 69.0795 38.6704 61.2911 38.6704 51.6839C38.6704 44.4524 43.5922 37.3514 51.1881 36.305C51.7863 37.1403 52.6329 38.0093 53.9083 38.009C58.1005 38.008 59.8905 37.4117 62.1639 38.009C64.4372 38.6064 66.89 41.0555 66.89 41.0555L69.1033 38.8453L69.8212 41.0555C69.8212 41.0555 72.0535 36.8408 72.0535 32.5399C72.0535 32.5399 68.6223 35.3237 65.6335 30.1244C64.5566 26.8988 46.2507 22.9563 45.2935 15.4301C45.2935 15.4301 42.1828 22.359 49.4812 26.182Z" fill="white"/>
</mask>
<g mask="url(#mask0_1073_20513)">
<path d="M42.7324 22.3137L67.5408 33.7594L69.4829 38.845C68.5207 37.5803 66.9605 35.8506 64.6271 34.4783C60.3842 31.9835 56.9578 32.6549 53.2383 31.688C50.0546 30.8602 45.0277 28.6241 42.7324 22.3137Z" fill="white"/>
</g>
<mask id="mask1_1073_20513" style="mask-type:luminance" maskUnits="userSpaceOnUse" x="26" y="15" width="51" height="60">
<path d="M49.4812 26.182L42.1828 22.8369C42.1828 22.8369 42.6546 25.5492 44.9067 27.6996C27.6626 30.8269 26.4843 50.421 26.599 54.3992C30.0214 74.5079 52.5011 74.7133 52.77 74.7133C62.5848 74.7133 71.1029 68.6989 74.8023 60.191L74.8063 60.1849L74.8071 60.1796C75.6729 58.1854 76.2749 56.0545 76.5658 53.832L76.5661 53.8312C77.9958 44.2838 75.1369 39.989 75.1369 39.989C74.9032 42.6776 74.4926 45.6785 73.803 48.9129C73.2389 51.5602 72.5695 53.981 71.8661 56.1571C72.5755 55.8407 73.2852 55.5241 73.9949 55.2074C73.7191 56.9905 72.5716 62.3422 68.4487 65.4653C65.4437 67.6451 61.7078 68.9772 57.6436 69.075H57.6368C57.4808 69.0774 57.3244 69.0795 57.1661 69.0795C46.9527 69.0795 38.6704 61.2911 38.6704 51.6839C38.6704 44.4524 43.5922 37.3514 51.1881 36.305C51.7863 37.1403 52.6329 38.0093 53.9083 38.009C58.1005 38.008 59.8905 37.4117 62.1639 38.009C64.4372 38.6064 66.89 41.0555 66.89 41.0555L69.1033 38.8453L69.8212 41.0555C69.8212 41.0555 72.0535 36.8408 72.0535 32.5399C72.0535 32.5399 68.6223 35.3237 65.6335 30.1244C64.5566 26.8988 46.2507 22.9563 45.2935 15.4301C45.2935 15.4301 42.1828 22.359 49.4812 26.182Z" fill="white"/>
</mask>
<g mask="url(#mask1_1073_20513)">
<path d="M44.2036 21.3L69.0119 32.7457L70.9541 37.8313C69.9919 36.5665 68.4317 34.8369 66.0982 33.4646C61.8554 30.9698 58.429 31.6411 54.7095 30.6743C51.5258 29.8465 46.4989 27.6104 44.2036 21.3Z" fill="white"/>
</g>
<mask id="mask2_1073_20513" style="mask-type:luminance" maskUnits="userSpaceOnUse" x="26" y="15" width="51" height="60">
<path d="M49.4812 26.182L42.1828 22.8369C42.1828 22.8369 42.6546 25.5492 44.9067 27.6996C27.6626 30.8269 26.4843 50.421 26.599 54.3992C30.0214 74.5079 52.5011 74.7133 52.77 74.7133C62.5848 74.7133 71.1029 68.6989 74.8023 60.191L74.8063 60.1849L74.8071 60.1796C75.6729 58.1854 76.2749 56.0545 76.5658 53.832L76.5661 53.8312C77.9958 44.2838 75.1369 39.989 75.1369 39.989C74.9032 42.6776 74.4926 45.6785 73.803 48.9129C73.2389 51.5602 72.5695 53.981 71.8661 56.1571C72.5755 55.8407 73.2852 55.5241 73.9949 55.2074C73.7191 56.9905 72.5716 62.3422 68.4487 65.4653C65.4437 67.6451 61.7078 68.9772 57.6436 69.075H57.6368C57.4808 69.0774 57.3244 69.0795 57.1661 69.0795C46.9527 69.0795 38.6704 61.2911 38.6704 51.6839C38.6704 44.4524 43.5922 37.3514 51.1881 36.305C51.7863 37.1403 52.6329 38.0093 53.9083 38.009C58.1005 38.008 59.8905 37.4117 62.1639 38.009C64.4372 38.6064 66.89 41.0555 66.89 41.0555L69.1033 38.8453L69.8212 41.0555C69.8212 41.0555 72.0535 36.8408 72.0535 32.5399C72.0535 32.5399 68.6223 35.3237 65.6335 30.1244C64.5566 26.8988 46.2507 22.9563 45.2935 15.4301C45.2935 15.4301 42.1828 22.359 49.4812 26.182Z" fill="white"/>
</mask>
<g mask="url(#mask2_1073_20513)">
<path d="M45.8515 13.5731C45.8515 13.5731 46.1988 18.7739 51.8959 21.4186C57.5933 24.063 66.4623 26.99 67.4814 29.9693C68.5003 32.948 73.1256 30.185 73.1256 30.185C73.1256 30.185 71.6305 40.5472 70.1299 42.0459L69.103 38.8453L68.7862 37.9596C68.0797 35.8113 66.6219 33.9828 64.6651 32.8447C63.7103 32.2897 62.5173 31.7462 61.0365 31.2914C58.5116 30.5156 53.6438 28.4717 49.481 26.1822C48.8515 25.8357 48.1635 25.5051 47.6116 25.0938C43.5011 22.0302 41.3837 18.0341 45.8515 13.5731Z" fill="white"/>
</g>
<mask id="mask3_1073_20513" style="mask-type:luminance" maskUnits="userSpaceOnUse" x="44" y="15" width="29" height="27">
<path d="M49.1767 26.017C49.2792 26.0718 49.3813 26.1267 49.4817 26.182C53.6445 28.4717 58.5123 30.5153 61.0369 31.2913C62.518 31.7462 63.711 32.2894 64.6656 32.8447C66.6223 33.9828 68.0804 35.811 68.7866 37.9596L69.1037 38.8453L69.8216 41.0555C69.8216 41.0555 72.054 36.8408 72.054 32.5399C72.054 32.5399 68.6228 35.3237 65.6339 30.1244C64.557 26.8988 46.2511 22.9563 45.2939 15.4301C45.2939 15.4301 42.2712 22.1634 49.1767 26.017Z" fill="white"/>
</mask>
<g mask="url(#mask3_1073_20513)">
<path d="M69.9195 41.2437C69.9195 41.2437 71.4201 39.5981 70.6254 36.3368C69.831 33.0752 64.0632 31.7822 62.9154 30.6362C61.7676 29.4901 62.9154 29.0202 62.9154 29.0202C62.9154 29.0202 39.5786 20.4988 46.3767 13.7113C53.1745 6.92359 70.3313 25.406 70.3313 25.406L76.9674 30.166V35.5137C76.9674 35.9253 69.9195 41.2437 69.9195 41.2437Z" fill="white"/>
</g>
<mask id="mask4_1073_20513" style="mask-type:luminance" maskUnits="userSpaceOnUse" x="26" y="15" width="51" height="60">
<path d="M49.4817 26.182L42.1833 22.8369C42.1833 22.8369 42.655 25.5492 44.9072 27.6996C27.6631 30.8269 26.4848 50.421 26.5994 54.3992C30.0219 74.5079 52.5016 74.7133 52.7705 74.7133C62.5852 74.7133 71.1034 68.6989 74.8028 60.191L74.8068 60.1849L74.8076 60.1796C75.6734 58.1854 76.2754 56.0545 76.5663 53.832L76.5666 53.8312C77.9963 44.2838 75.1374 39.989 75.1374 39.989C74.9036 42.6776 74.4931 45.6785 73.8035 48.9129C73.2394 51.5602 72.5699 53.981 71.8666 56.1571C72.576 55.8407 73.2857 55.5241 73.9954 55.2074C73.7196 56.9905 72.5721 62.3422 68.4492 65.4653C65.4441 67.6451 61.7083 68.9772 57.6441 69.075H57.6372C57.4813 69.0774 57.3249 69.0795 57.1666 69.0795C46.9532 69.0795 38.6709 61.2911 38.6709 51.6839C38.6709 44.4524 43.5927 37.3514 51.1886 36.305C51.7868 37.1403 52.6334 38.0093 53.9088 38.009C58.101 38.008 59.891 37.4117 62.1644 38.009C64.4377 38.6064 66.8905 41.0555 66.8905 41.0555L69.1038 38.8453L69.8217 41.0555C69.8217 41.0555 72.054 36.8408 72.054 32.5399C72.054 32.5399 68.6228 35.3237 65.6339 30.1244C64.5571 26.8988 46.2512 22.9563 45.294 15.4301C45.294 15.4301 42.1833 22.359 49.4817 26.182Z" fill="white"/>
</mask>
<g mask="url(#mask4_1073_20513)">
<path d="M48.3481 66.8371C48.3481 66.8371 66.535 77.2388 75.8049 57.4047C85.0749 37.5709 74.8337 38.7169 74.8337 38.7169L65.2106 49.7357L48.3481 66.8371Z" fill="white"/>
</g>
<path d="M62.1642 38.0086C62.1642 38.0086 56.6923 37.8453 48.5659 39.1436C48.5659 39.1436 51.1665 35.5736 54.9045 34.2753C58.6427 32.977 62.1642 38.0086 62.1642 38.0086Z" fill="white"/>
<path d="M48.5659 39.1438C48.5659 39.1438 63.0309 36.4933 66.9314 37.0613C66.9314 37.0613 60.366 35.5906 56.4755 35.2491C51.8571 34.8432 48.5659 39.1438 48.5659 39.1438Z" fill="white"/>
<path d="M66.9314 37.0612L48.5659 39.1437C48.5659 39.1437 50.4756 34.4916 66.9314 37.0612Z" fill="white"/>
<path d="M57.4238 38.1296L66.9318 37.0613C66.9318 37.0613 65.3454 38.6252 66.8905 41.055C66.8905 41.055 62.6249 38.0892 57.4238 38.1296Z" fill="white"/>
<path d="M43.6181 64.2559C40.0047 60.8963 37.7465 56.1043 37.7465 50.7856C37.7465 42.18 43.6588 34.9532 51.6492 32.9341L51.6812 32.9085C40.4937 26.7567 52.6829 31.9493 40.738 35.3581C39.9939 35.5698 39.3035 35.8035 38.6645 36.0538C30.6697 39.1779 30.419 44.9314 30.419 44.9314L30.3803 44.9848C30.3909 45.0578 30.4039 45.1305 30.419 45.2034C30.419 45.2034 31.2316 43.6873 33.2345 43.5803C35.2397 43.4711 35.8895 46.6101 33.2345 48.9891C30.5818 51.37 29.0099 56.7252 30.6355 60.9991C30.6355 60.9991 30.7427 59.0506 32.8572 58.4554C34.9694 57.8602 36.1061 64.7848 39.4105 69.3283C39.4105 69.3283 39.357 67.4356 41.6325 67.652C41.6753 67.656 41.7182 67.6626 41.7632 67.6735C42.5158 67.8231 43.4529 68.6519 44.6968 69.6708C44.6989 69.6708 44.701 69.6732 44.7034 69.6753C47.2658 71.7695 51.1258 74.6578 57.345 74.0883C57.345 74.0883 55.3398 73.386 55.8803 71.9259C55.9166 71.8252 56.0241 71.7438 56.1914 71.673C57.2958 71.2065 58.6559 71.1867 59.8217 70.9469C63.5533 70.1804 67.0605 68.5536 69.5779 65.6301C69.9856 65.1564 70.3638 64.6574 70.7117 64.1383C71.9725 62.2538 73.0504 59.847 73.6807 56.7617C73.6722 56.7894 73.6614 56.8151 73.6508 56.8431C73.5065 57.2174 73.3681 57.5924 73.1963 57.9553C73.0176 58.3322 72.8349 58.7073 72.648 59.0802C72.4786 59.4183 72.3044 59.7537 72.1131 60.0798C71.6493 60.8699 71.1262 61.6255 70.5502 62.3381C69.4024 63.7582 68.0428 65.0082 66.5305 66.0332C63.5102 68.0797 59.8534 69.1998 56.189 69.1998C51.3318 69.1998 46.9122 67.324 43.6181 64.2559Z" fill="white"/>
<path d="M67.9058 71.1183C68.013 71.0628 68.1223 71.0028 68.234 70.9383C72.5488 68.5151 75.2391 63.8228 76.4041 59.1485C76.6659 58.0984 77.0113 56.8939 77.0113 55.8044C76.8761 55.2155 76.7562 54.6761 76.6574 54.222C76.0248 60.9603 72.763 66.9388 67.9058 71.1183Z" fill="white"/>
<path d="M42.7986 75.8591C40.6306 73.7071 39.1765 71.1248 38.3811 69.5982C36.972 66.8937 34.1542 65.1636 32.2048 67.1636C31.9282 67.4485 31.7246 67.7438 31.5809 68.0414C30.8582 69.5167 31.5721 71.0521 31.8509 71.553C31.7331 71.063 31.4843 69.641 32.3464 68.926C32.5116 68.791 32.7152 68.6797 32.9704 68.607C33.0003 68.5962 33.0326 68.5874 33.0627 68.5811C33.3351 68.5126 33.6565 68.4867 34.0406 68.5126C36.0799 68.6474 37.3431 71.8807 39.8521 74.6105C41.2781 76.1652 43.1075 77.5549 45.7128 78.1203C45.6808 78.1031 45.6485 78.0838 45.6186 78.0667C44.5698 77.45 43.6306 76.6856 42.7986 75.8591Z" fill="white"/>
<path d="M27.5818 62.922C27.4725 62.1787 27.3997 61.4595 27.3547 60.7636C26.9428 54.5391 28.7399 50.2993 26.4623 49.4752C26.2588 49.4022 26.0528 49.3703 25.8493 49.372C24.6525 49.3893 23.4732 50.6249 22.5745 51.8519C22.5509 51.886 22.5274 51.9182 22.5038 51.9502C22.4758 52.2565 22.4609 52.5668 22.4609 52.8816C22.4609 52.8816 22.4866 52.8602 22.538 52.8261C22.6754 52.7296 22.9906 52.5219 23.3914 52.3699C23.4602 52.3422 23.5309 52.3165 23.604 52.293C23.6188 52.2888 23.6339 52.2843 23.6468 52.2801C23.7024 52.2629 23.7604 52.2478 23.8184 52.2351C24.436 52.0916 25.1607 52.1429 25.7548 52.8023C26.0613 53.1451 26.3316 53.6526 26.5354 54.3805C26.947 55.8601 26.9793 57.9736 27.1916 60.318C27.2925 61.4421 27.4359 62.6199 27.6805 63.8064C27.6676 63.5706 27.6419 63.3203 27.6011 63.0525C27.5948 63.0097 27.5882 62.9648 27.5818 62.922Z" fill="white"/>
<path d="M26.299 43.7965C26.3826 43.6937 26.4726 43.5887 26.5671 43.4817C26.8308 43.1883 27.1352 42.8801 27.4677 42.5611C30.3756 39.788 35.426 36.3022 33.5045 35.0859C33.1656 34.8718 32.8054 34.7135 32.4366 34.6001C30.7144 34.0646 28.823 34.4843 28.2589 34.6342C28.1967 34.6514 28.152 34.664 28.1239 34.6707C28.557 34.6321 30.4444 34.5829 30.7745 36.6041C30.8068 36.7989 30.8237 37.0153 30.8237 37.2508C30.8237 38.5034 29.3612 40.0943 27.6607 42.0835C27.1159 42.7215 26.5478 43.3982 25.9922 44.1197C26.0782 44.0513 26.1809 43.9421 26.299 43.7965Z" fill="white"/>
</svg>
