<svg xmlns="http://www.w3.org/2000/svg" viewBox="0 0 1498.93 1499.45"><defs><style>.cls-1{fill:#121212;}.cls-2{fill:#c1c1c1;}.cls-3{fill:#f5f5f5;}.cls-4{fill:#9a9a9a;}.cls-5{fill:#eee;}.cls-6{fill:#666;}.cls-7{fill:#fefefe;}.cls-8{fill:#dfdfdf;}.cls-9{fill:#cecece;}.cls-10{fill:#999;}.cls-11{fill:#c7c7c7;}.cls-12{fill:#434343;}.cls-13{fill:#707070;}.cls-14{fill:#b0b0b0;}.cls-15{fill:#272727;}.cls-16{fill:#c4c4c4;}.cls-17{fill:#d7d7d7;}.cls-18{fill:#989898;}.cls-19{fill:#d3d3d3;}.cls-20{fill:#d1d1d1;}.cls-21{fill:#2b2b2b;}.cls-22{fill:#cacaca;}.cls-23{fill:#393939;}.cls-24{fill:#898989;}.cls-25{fill:#c6c6c6;}.cls-26{fill:#e1e1e1;}.cls-27{fill:#4b4b4b;}.cls-28{fill:#191919;}.cls-29{fill:#4f4f4f;}.cls-30{fill:#939393;}.cls-31{fill:#a0a0a0;}.cls-32{fill:#737373;}.cls-33{fill:#6a6a6a;}.cls-34{fill:#3e3e3e;}.cls-35{fill:#7f7f7f;}.cls-36{fill:#5a5a5a;}.cls-37{fill:#ccc;}.cls-38{fill:#d6d6d6;}.cls-39{fill:#8b8b8b;}.cls-40{fill:#525252;}.cls-41{fill:#535353;}.cls-42{fill:#5d5d5d;}.cls-43{fill:#060606;}.cls-44{fill:#070707;}.cls-45{fill:#cbcbcb;}.cls-46{fill:#d4d4d4;}.cls-47{fill:#cdcdcd;}.cls-48{fill:#030303;}.cls-49{fill:#080808;}.cls-50{fill:#a4a4a4;}.cls-51{fill:#545454;}.cls-52{fill:#262626;}.cls-53{fill:#2a2a2a;}.cls-54{fill:#0f0f0f;}.cls-55{fill:#838383;}.cls-56{fill:#8d8d8d;}.cls-57{fill:#0a0a0a;}.cls-58{fill:#bcbcbc;}.cls-59{fill:#bababa;}.cls-60{fill:silver;}.cls-61{fill:#bfbfbf;}.cls-62{fill:#b8b8b8;}.cls-63{fill:#f6f6f6;}.cls-64{fill:#646464;}.cls-65{fill:#090909;}.cls-66{fill:#0e0e0e;}.cls-67{fill:#111;}.cls-68{fill:#c2c2c2;}.cls-69{fill:#c9c9c9;}.cls-70{fill:#d0d0d0;}.cls-71{fill:#efefef;}.cls-72{fill:#2d2d2d;}.cls-73{fill:#2c2c2c;}.cls-74{fill:#5c5c5c;}.cls-75{fill:#929292;}.cls-76{fill:#949494;}.cls-77{fill:#757575;}.cls-78{fill:#606060;}</style></defs><title>MTL_Token300</title><g id="Layer_2" data-name="Layer 2"><g id="Layer_3" data-name="Layer 3"><path d="M1498.93,801.49c-.59,3.5-1.45,7-1.74,10.51A734.45,734.45,0,0,1,1470,959.46q-51.83,176.79-179.47,309.68-117.87,122.7-277.28,182.75a755.55,755.55,0,0,1-144.63,38.28c-56.64,9.32-113.65,11.18-170.75,7.54-77.11-4.92-151.65-22-223.55-50.51a741.72,741.72,0,0,1-244.58-157.51Q88.46,1153.24,31.41,965.11a727,727,0,0,1-27.9-142A774.69,774.69,0,0,1,1.62,699.42,746.81,746.81,0,0,1,195.17,244.86,749,749,0,0,1,435.72,68.27,745.53,745.53,0,0,1,705.72.86,11.13,11.13,0,0,0,708.4,0h82a21.39,21.39,0,0,0,3.18.86c25,2.7,50,4.45,74.83,8.22,72.2,11,141.13,32.83,206.87,64.67q161.73,78.33,270.94,221a744.68,744.68,0,0,1,151,392.26c.31,3.86,1.15,7.68,1.74,11.52ZM860.41,572.84,872,570.43c-.12-.5-.24-1-.35-1.49-3,.58-6,1.22-9,1.7-8.17,1.32-16.36,2.56-24.54,3.84-8.54.93-17.08,2.49-25.64,2.63-11.18.18-22.38-1.21-33.57-1.13-12.29.09-24.34-1.25-35.87-5.27-6.89-2.4-13.3-6.2-19.9-9.43-4.63-2.27-9.64-4.08-13.71-7.12-4.58-3.42-8.43-7.86-12.34-12.09-11-11.86-17.31-25.49-15.5-42.09a41.09,41.09,0,0,1,16.54-24.75c-9-13.47-17.73-26.47-26.33-39.56-11.14-16.94-22.16-33.95-33.22-50.93-1.77-2.72-3.81-2.82-6.82-1.63-5.34,2.1-10.94,3.56-16.43,5.26-2.71.84-5.79,1.06-8.1,2.51-5.62,3.51-11.39,5.73-18.13,5.12-.87-.08-1.86,1.05-2.79,1.62-2.27,1-4.48,2.13-6.82,2.93-19.06,6.52-38,13.16-55.15,24.14-9.58,6.15-19.55,11.79-28.6,18.66-9.34,7.09-17.82,15.33-26.58,23.18a29,29,0,0,0-5.76,6.37c-3.83,6.43-6.48,13.7-11,19.51-6.15,7.84-4.13,17.18-6.14,25.67-1.83,7.71-.39,16.2-.39,24.32,4,1.92,8.32,3.65,12.28,6,11.4,6.86,22.52,14.21,35.43,18.07,8.21,3.6,17.33,3.27,25.72,7.47,11.48,5.75,24.27,8.88,36.38,13.09l-1.55,1.19c9.2,2.9,18.13,5.73,27.08,8.49a10.38,10.38,0,0,0,3,.18c2.36,0,4.8-.35,7.08.1,8.79,1.74,17.49,4,26.31,5.56,8.51,1.53,17.12,2.53,25.69,3.66,2.32.31,4.7.19,7,.39,10,.87,20,1.79,30,2.69l-4.78.7a6.29,6.29,0,0,0,3.65,1.41c14.52,1,29,2.47,43.56,2.91,20.53.63,41.09.87,61.63.59,16.52-.22,33-1.29,49.52-2.34,5.08-.32,10.09-1.85,15.14-2.76,5.77-1.05,11.57-2,17.34-3.05,5.22-.94,10.41-2,15.63-2.91s10.25-1.58,15.37-2.36c26.38-3.38,66.76-15,70.46-20.55l-5.31,1c8.53-4,17.45-6.57,25.9-10.24,11.22-4.88,22.08-10.6,33.09-16l19.68-11.22c-.54,1.39-1.08,2.78-2,5.21l5.15-3.77c8.08-6.6,16.2-13.16,24.18-19.88.71-.6.52-2.27.75-3.44,0-1.6.57-4.38,0-4.61-3.41-1.46-2.28-4.89-3.65-7.12-2.1-3.43-4.47-6.69-6.94-10.32l4.05-.65,1.27-7.71c-4.07.06-5.33-3.17-7.4-6.28-2.54-3.82-6.63-6.6-10.26-10-.43,1-.82,1.84-1.55,3.45l-5-6.86a14.42,14.42,0,0,0,3.1,0,12.71,12.71,0,0,0,2.35-1.2c-.56-.69-1.09-1.95-1.69-2-5.94-.31-6.33-3.66-5.24-8.65l-4.31,5.18c-1.89-3.09-3.64-5.75-5.16-8.54a12.25,12.25,0,0,1-.75-3.43c1.18.07,2.55-.22,3.5.28,2.69,1.43,4.18.81,5.08-2-6.63-1.92-13.51-2.44-18.18-8.17a13,13,0,0,0-5.21-3.95c-5.59-2-9.11-8.21-15.91-7.85-.58,0-1.28-1.37-1.87-2.15-2.15-2.79-3.72-6.88-6.54-8.11-4.62-2-8.88-3.51-10.05-9.06-.08-.41-1-.64-1.23-.76l-5.23,4.69c.79-5.72-1.17-7.68-5.37-8.17-1.6-.18-3.15-1.72-4.49-2.91-4.94-4.41-9.31-4.65-12.77-.07-2.83-1.31-6.23-2.16-8.66-4.18a22.17,22.17,0,0,0-15-5.43c-1.64,0-3.32-1.06-4.92-1.78-2.38-1.06-4.6-2.73-7.08-3.3-6.72-1.55-13.56-2.54-20.3-4-2.19-.48-4.14-2-6.31-2.7-5-1.63-10.13-2.95-15.14-4.6-7-2.29-16.14.63-20.23-9.08l-2.74,4c-4.2-4.94-5.77,0-8.42,1.64,11.08,18.93,26.36,34.95,32.32,56.27,1.76-.14,3.05-.51,4.25-.3,8.32,1.46,16.58,3.19,24.91,4.54,27.29,4.42,51.28,16,72.87,33l14.5,17a40.78,40.78,0,0,0-12.48-18.07l-7.78-7c13.43,4.36,26.73,26,24.56,37.9a47.35,47.35,0,0,1-10.64,22.82L982,519.08a6.21,6.21,0,0,0-1.58.81c-14.63,15.82-34.34,23.27-53.28,31.77-7.94,3.57-16.71,5.26-25.07,7.92-3.93,1.26-7.76,2.8-11.63,4.21l-13.66,2.78c.06.37.13.73.2,1.1h5.16c-1.23,1-2.32,2.56-3.7,2.87-5.62,1.27-11.32,2.15-17,3.17Zm-209-185.1v0c-2.32,1.74-2.21,3.5-.6,5.87,4,5.88,7.69,12,11.54,17.94,1,1.61,2.16,3.15,3.25,4.73l.74-.56q-2-4.47-3.89-8.95l1,0c3.45,4.31,6.93,8.59,10.32,12.94.56.72.62,1.82,1.15,2.57,1.78,2.52,3.67,4.95,5.52,7.42-.7,4.13,2,7.12,5.79,6.41l2.08,3.69a50.32,50.32,0,0,0,2,6.39c.39.88,2.39,1.2,2.56,2,1.13,5.45,5.41,7.94,9.51,10.65,5.11,8.2,12.46,14.15,20,19.93,1,1.27,1.73,2.85,3,3.76,3,2.2,6.28,4,9.41,6.1,3.91,2.57,7.83,5.14,11.65,7.84,2.59,1.82,5,3.9,7.53,5.82a9.57,9.57,0,0,0,2.82,1.82c3.2.95,6.47,1.68,9.72,2.5,1,1.14,1.9,3,3.14,3.28,2.83.67,5.84.59,8.78.82,4.24,3.36,8.8,2.25,13.46,1.1,6.47-1.6,13-3,19.49-4.47,2.06-.48,5.34-.54,5.91-1.78,2.39-5.16,7.87-3.36,11.33-5.82s7.34-4.77,10.89-7.33c2.14-1.56,4-3.49,5.69-5,.88-1.53,1.54-2.83,2.34-4,3.21-4.86,6.79-9.5,9.58-14.58,1.86-3.38,2.24-7.55,4-11,4.09-8.3,2.52-16.14-1.2-23.91-1.17-2.45-2.76-4.7-4-7.13-3.06-6.11-5.18-12.89-9.19-18.28-8.92-12-17.67-24-24.74-37.19-6.08-11.37-12.81-22.41-19.69-33.32C797,329.73,791.06,322,785.68,314c-1.6-2.41-2.11-5.52-3.67-8a28.86,28.86,0,0,0-5.23-5.49c-.95-.87-2.62-1.11-3.3-2.09-6-8.71-12-17.46-21.88-22.13-4-1.86-8.4-2.69-12.59-4.09-2-.66-3.81-1.58-6.33-2.64l3.79-3c-4.66-1.54-8.53-2.71-10.93,2.57a3.3,3.3,0,0,1-2.29,1.55c-4.52.47-9.16.29-13.58,1.2-6.93,1.43-13.74,3.44-20.54,5.42C683,279.07,677,281,670.47,279.74c-.64,0-1.4-.14-1.9.14-10.45,6-19.85,13.19-27.15,22.9l-6,11c-.79,2.9-1.94,5.76-2.31,8.71-.55,4.42-.55,8.91-.78,13.37.38,3.74,1.22,7.49,1.05,11.19-.26,5.46,3,9.44,4.92,14,4.1,2.92,4.32,7.92,6.39,11.93,1.19,2.31,2.43,4.6,3.65,6.89ZM919.22,930.31l14.3-2.44-.36-1.91-16.06,3.33-4.63.23-10.12-1,60.15-10-4,3.55c2.31,0,3.44.24,4.44,0,17.72-5,35.57-9.65,53.1-15.29,11.45-3.7,22.44-8.86,33.63-13.38q8.74-3.52,17.48-7.08c9.37-4.66,18.87-9.06,28-14.07,6-3.25,11.36-7.49,17.13-11.09,6.76-4.23,13.78-8,20.46-12.39,8.18-5.32,16.19-10.91,24.15-16.55,5.33-3.77,9.07-8.24,8.7-15.64-.67-13.25-.66-26.54-.76-39.82-.11-13.58,0-27.16,0-40.74,0-.83.14-1.66.16-2.49.21-7,.58-14.08.56-21.13,0-10.29-.37-20.59-.49-30.89-.09-7.38,0-14.76,0-22.14l-1.3-.68a21.28,21.28,0,0,1-1.49,2.49c-9.06,11.42-20.63,20.12-32.07,28.86-18,13.79-37.91,24.56-58.67,33.71-11,4.87-22.13,9.51-34.32,10.6-1.32.12-2.65.1-4,.15,3.36-2,6.51-4.54,10.11-6,16.77-6.56,30.17-19.32,47.16-25.47,1.44-.52,2.27-2.6,3.48-3.85,1.68-1.74,3.22-3.77,5.24-5,3.78-2.26,7.87-4,11.81-6,.41-.2.67-.71,1-1.08,3.84-4.36,7.64-8.75,11.56-13a4.16,4.16,0,0,1,2.68-1.16c5.18-.23,6.38-3.85,7.53-8,.6-2.15,2-5.26,3.66-5.69,5.35-1.41,6.16-6,8.24-9.76.52-.94.48-2.43,1.21-3,1.9-1.4,4.55-2,6-3.64,4.67-5.19,11.28-9.52,11.56-17.27.46-13.15,1.11-26.18-2.87-39.31s-11.8-22.93-21.06-32.24c-5-5.07-9.75-10.48-15.6-16.81l6-1.28-15.8-21.47c-2.15-3.94-4.3-7.89-6.86-12.57l-3.24,6.69c-3.61,5.19-7,10.53-10.87,15.52-17.67,22.84-40.9,39.06-65.78,52.67a373.33,373.33,0,0,1-111.42,39.81c-8.82,1.64-17.45,4.35-26.29,5.91-14.57,2.57-29.17,5.12-43.87,6.71-11.78,1.28-23.71,1.14-35.57,1.62-1,0-2,0-3,0,.1,4.45-3.47,2.36-5.17,2.49-9.44.69-18.91.88-28.36,1.39-35.68,1.95-71.18-.92-106.68-3.88-6.27-.52-12.56-.78-18.84-1.16l-4.75-1.32-3.22-.71c-2.12-.34-4.25-.63-6.36-1-20.5-4.05-41-8-61.49-12.24-7.73-1.59-15.35-3.76-23-5.67l-33-10.16-28.78-12.12-8.92-4.1-1.16-.82-3.21-1.76-9.73-5.29c-9.19-6-18.52-11.72-27.54-17.92-17.54-12-33-26.21-44.49-44.37a19,19,0,0,0-2.17-2.31c-6.31,16.09-15.6,29.53-26.95,41.63-6.37,6.22-13.63,11.77-18.9,18.82-8,10.76-10.33,23.81-11,37.09-.35,6.63-1.08,13.24-1.7,20.67a6.52,6.52,0,0,1,1.34,2.89c.82,14.5,9.15,25.38,17.68,36,2.84,3.53,7.12,5.91,10.79,8.76C368.38,680.25,374,685,380,689c2.31,1.52,3.83,2.74,4.81,5.44.65,1.77,3.12,3,5,4.12.87.51,2.44-.23,3.38.23,2.22,1.1,4.25,2.58,6.36,3.9,0,4.5,1.14,7.84,6.73,7.35,1-.09,2.09.85,3.15,1.31,3,2.09,6.31,3.85,8.92,6.34,3.83,3.65,8.51,4.31,13.17,4.12,5.42-.22,9.76,1.66,13.87,4.72l-4.36.36c3.68,2.29,6,7.56,11.39,4.64.72-.39,2.12.52,3.21.82l4.93,2.19,11.9,2.16-3.39,4.84h9.51l11.8,4.1a8.06,8.06,0,0,0,2.18,1.08c4.49.72,9.65-1,13,3.74.15.2.93,0,1.4-.08,1.32-.27,2.77-1.1,3.93-.8,5.95,1.58,11.74,3.82,17.74,5.13,11,2.42,22.28,3.41,32.79,8.57,5.53,2.71,12.54,2.62,18.92,3.33,5.95.67,12,.72,17.94,1.05,4.53.84,9.07,1.6,13.56,2.55,4.16.88,8.23,2.51,12.42,2.85,12.64,1,25.33,1.56,38,2.47,2.57.19,5,1.56,7.63,1.81,9.41.91,18.84,1.82,28.28,2.28,20.31,1,40.64,2,61,2.47,10.53.23,21.09-.74,31.63-1.21,16.42-.74,32.86-1.44,49.28-2.3,8.08-.43,16.14-1.18,24.21-1.78l.15,1.86L822,784.31c-3.73.36-7.45.73-11.17,1.07-11.23,1-22.45,2.45-33.7,3-16.36.72-32.75.76-49.13,1.09a17.91,17.91,0,0,0-3.8-.85c-11.9-.05-23.81,0-35.71,0-5.81-.09-11.62,0-17.41-.33-7.52-.46-15-1.35-22.51-1.92-5.9-.44-11.83-.5-17.71-1-4-.38-8-1.3-12-2l-18.41-1.66c-6.43-.85-12.9-1.47-19.27-2.6-19.16-3.39-38.33-6.74-57.42-10.54-31.38-6.24-61.85-15.8-91.88-26.72-7.24-2.63-14.15-6.19-21.21-9.32-28.92-14.48-55.49-32.06-75.44-58.34l-1.79.58v19.67c0,16.46.07,32.92,0,49.38,0,8.61-.5,17.21-.54,25.81,0,4.68.45,9.37.7,14-.33,10.6-.77,21.2-.93,31.81-.07,4.61.73,9.23.63,13.84-.28,13.69-1.12,27.37-1.13,41.06,0,11.32.85,22.64,1.3,34,.09,2.36.09,4.73.13,7.1l0,61c0,3-.07,5.89-.13,8.83-.22,12.63-.67,25.26-.63,37.89,0,12.93.58,25.86.87,38.79q.32,13.83.57,27.67c0,.5-.06,1-.08,1.49-.37,8-1.11,16-1,24,.15,17.23.77,34.45,1.08,51.68a81.41,81.41,0,0,1-.73,8.64l-.95.08-1.8-4.75c-.28,4-.48,6.8-.76,10.62l3.59-3.15v139.91c-.59,5.28-1.38,10.56-1.61,15.85-.05,1.15,1.68,2.68,2.93,3.55,8.31,5.81,16.45,11.93,25.14,17.12,19.68,11.76,39.64,23,59.49,34.5l34.9,17.16,28.06,11.8c2.43,1.05,4.82,2.19,7.28,3.15a680.45,680.45,0,0,0,120.48,34.94,4.5,4.5,0,0,0,.91.38,729.8,729.8,0,0,0,161.32,13c65.59-2.14,129.8-12.55,192.2-32.8,25.57-8.29,50.36-19,75.51-28.6l13-6,7.9-4.21a23.27,23.27,0,0,0,3.75-1.14,726.2,726.2,0,0,0,95.3-56.37c3.14-2.2,4.15-4.6,4.07-8.29-.42-19.43-.39-38.88-1-58.3-.49-16.78,1.23-33.38,2.43-50.06.63-8.67-1.29-17.49-1.3-26.24,0-12.37.67-24.74,1-37.11a9.07,9.07,0,0,0-.42-2.11c-5.25,5.14-10.27,10.23-15.47,15.11-9.08,8.52-18.27,16.92-27.42,25.36a11.82,11.82,0,0,0-1.85,1.66c-2.49,3.59-5.26,6.41-10.07,7-1.77.21-3.32,2.51-4.91,3.93-2.2,2-4.12,4.31-6.54,5.94a151.25,151.25,0,0,1-15.31,9.39c-5.57,2.87-11.5,5-17.28,7.5-1.08,0-2.39-.28-3.2.21-4.67,2.82-9.22,5.84-13.81,8.8l-14,2.92c-6.59,1.5-13.22,2.71-18.36,7.89-1.38,1.39-4,1.63-6.16,2.17-3.42.85-7.51.58-10.21,2.42-8.71,6-17.83,9.18-28.44,7.41a11,11,0,0,0-3.93.5c-6.67,1.43-13.27,3.27-20,4.3-28.62,4.36-57.17,9.59-86,12.39-26.8,2.6-53.85,2.66-80.79,3.54-7.62.25-15.89,1.15-22.74-1.33-7.5-2.71-14.81-3.05-22.35-3.76a21.31,21.31,0,0,1-7.19-1.7c-5.25-2.56-10.32-3.5-15.71-.49a6.88,6.88,0,0,1-3.85.58c-18.72-1.91-37.44-3.81-56.13-6-3-.35-5.93-1.93-8.87-3-2.62-1-5.14-2.39-7.84-2.91-8-1.54-16.08-2.74-24.13-4.08q-.48-13.35-1-26.7c8.34,1,16.65,2.32,25,3q49.77,4,99.58,7.67c7.63.57,15.79-.66,22.76,1.71,6.77,2.31,13.21,2.53,19.94,2.58,5.83,0,11.66-.13,17.49-.23a835.43,835.43,0,0,0,117.39-9.88c26-4.15,51.58-10.27,77.35-15.46,10.17-2,20.41-3.79,30.54-6a87,87,0,0,0,13.82-4.3c10.64-4.25,21.15-8.81,31.7-13.25l4.08-1.89,3-2.78c5.22.72,6.86-4.57,10.66-6.33,19.4-9,37.1-20.87,54.63-33a53.24,53.24,0,0,0,7.41-6.61c5-5.06,9.94-10.16,14.65-15.47,1.5-1.69,3-4.08,3.11-6.2.48-13.61.87-27.24.73-40.86-.29-29.47,1.31-58.93.18-88.41-.48-12.59.48-25.23.48-37.85,0-14.93-.44-29.85-.51-44.78-.11-22.78-.06-45.55-.1-68.33,0-1.89-.19-3.78-.35-6.77-12.83,10.82-27.63,17.62-35.18,31.91-1.51-.25-2.75-.87-3.59-.53a79.56,79.56,0,0,0-7.49,3.78q-24.36,13.15-48.69,26.35c-7.18,3.08-14.26,6.4-21.55,9.21a560.09,560.09,0,0,1-102.49,29.09c-1.54.28-3.88,2.12-4,3.39-.62,7.32-.46,14.71-1,22-.34,4.36,3.79,9.67-2.19,13-1.81,1-4.31.83-6,2a54.41,54.41,0,0,0-9.22,7.61c-2.87,3.07-7.55,6.07-5.41,11.06,2.27,5.27,1.84,10.25.85,15.47-.86.14-2.35.09-2.46.45a57.08,57.08,0,0,0-1.06,5.72q-2.76,14.88-5.54,29.76c-.61-7.07-1.14-14.15-1.84-21.21-.88-8.87-1.9-17.74-2.86-26.6a32.16,32.16,0,0,1-1.74-4.12c-4.26-15.66-4.34-15.77,7.78-27.28,4.69-4.46,8.22-8.77,4.29-15.5-.61-1-.1-2.68-.52-3.9-1.2-3.49-2.27-6.1-7.5-5.59-29.29,2.82-58.62,5.46-88,7.33-17.91,1.14-35.93.91-53.9,1-8.53.05-17.06-.55-25.58-.89-7.87-.31-15.74-.76-23.61-.94-9.14-.2-18.34.43-27.42-.39-12.33-1.1-24.53-3.69-36.86-4.81-15.56-1.42-31.2-2-46.8-3,0-4-.08-7.93-.11-11.89,2.47.27,4.94.62,7.43.79,15.43,1.07,30.85,2.19,46.29,3.1,31,1.83,62.06,4.25,93.12,5.08,29.39.78,58.85,1.16,88.17-2.54,10.22-1.29,20.55-1.72,30.83-2.54ZM539.52,343.82l-36.52,14-.44-1.09,34.78-14.44-.6-1.55-7.4,2.24c-2.53.77-5.34,2.64-7.51,2.07-3.28-.87-4.55.45-6.61,2.34a40.87,40.87,0,0,1-9.73,6.71c-6.13,2.94-12.56,5.26-18.87,7.84l-12.51,6,.49,1.11,7.78-2.38c-1.18.9-2.37,1.79-3.53,2.72A47.58,47.58,0,0,1,457.26,379l10.14-9a88.27,88.27,0,0,0-12.33,7.07c-1.76,1.16-2,2.28.56,2.68-2.05,1.36-4.08,2.78-6.17,4.09-15.2,9.57-28.5,20.91-36.13,37.75-.78,1.72-2.41,3.09-3.75,4.52-2,2.15-4.13,4.21-7.19,7.3h4.91a56.21,56.21,0,0,1-2.65,6.71c-6.29,11.35-5.93,23.61-3.63,35.57,1.32,6.91,4.89,13.62,8.53,19.78,4.27,7.22,9.71,13.74,15.41,21.61.73-4.3,1.3-6.79,1.55-9.31,1.13-11.12,3-21.87,12.92-29.08a3.48,3.48,0,0,0,1.11-1.48c1.56-3.95,2.71-8.11,4.67-11.85,2.36-4.52,6.08-8.42,8-13.09,4.47-10.86,14.31-16.53,22.95-22.37,7.2-4.87,13.61-10.41,20.36-16,6.5,5.45,6.26-6.22,11.61-4.4v3.4c3.11-2.95,5.85-5.59,8.62-8.18,2.28-2.11,3.18-6.9,8.1-4.13.38.22,1.88-1.12,2.6-2,6.93-8.09,15.28-13.15,26.33-12.68a11.67,11.67,0,0,0,2.77-.75c5.75-1.31,9.13-9.57,16.38-5.08.89-1.71,1.2-3.23,2.13-3.93,7-5.21,15.55-4.79,23.5-6.62.38-.09.87.48,1.35.56a40.32,40.32,0,0,0,6.41.95c9.33.09,15-6.5,21.47-12.14-4.09-10.86-7.32-22-6.42-33.93l-1.8-2,1.26-1.39c-1.16-.24-2.37-.85-3.46-.68-9.75,1.52-19.61,2.61-29.16,4.95-10.19,2.5-20.85,4.07-29.62,10.7a49.3,49.3,0,0,1-6,3.37C547.66,337.65,543.08,339,539.52,343.82Zm321.74-23.93-62-7.59C808.12,325.85,816,337.94,824,350a4.09,4.09,0,0,0,2.69,1.66c9.54.79,19.09,1.41,28.64,2.13a3.72,3.72,0,0,1,2.28.77c2.8,3.06,8.34,0,10.43,4.68.09.21,1.56-.06,2.32-.31,4-1.34,7.46-1.17,11.14,1.42,2,1.43,5.14,1.29,7.7,2.09,2,.63,3.86,1.77,5.87,2.41,4.37,1.4,8.77,2.69,13.2,3.9,7.42,2,14.88,3.93,22.31,6,2.08.56,4.05,1.62,6.14,2,3.35.57,6.76.74,6.15,4.36,5.47,1.94,10.75,3.19,15.38,5.65,4.94,2.62,10.36,3.69,15,7.79,5.22,4.55,13.06,6.1,19.74,9a12.81,12.81,0,0,1,2.59,1.49c4.28,3.18,8.64,6.26,12.75,9.65,6.57,5.42,12.91,11.12,19.48,16.54,2.52,2.07,5.58,3.48,8.07,5.58,2,1.66,4.12,3.67,5,6s.18,5,.18,8.46c4.77-3.95,6.86-1.07,9,2,1.09,1.56,2.53,2.87,3.6,4.44,3.27,4.75,9.94,7.81,7.64,15.42-.21.67,1,1.84,1.7,2.71,1,1.3,2.18,2.46,3,3.83,1,1.57,1.68,3.32,2.61,5.21,1.92,9.48,3.92,19.38,6,29.5,5.34-5.43,11.06-10.48,13.54-18.45a48.33,48.33,0,0,1,7.66-14.92c4.37-5.64,4.63-11.34,3.1-17.69-1.08-4.51-2.11-9-3.16-13.55l3.82,9.13c-.83-9.19-1.7-18.34-8-25.91v2.34c-3-5.3-5.39-11.1-9.16-15.78-7.16-8.9-14.92-17.34-22.83-25.59-3.2-3.34-7.42-5.71-11.21-8.48-5-3.69-10.1-7.32-15.13-11-2.07-1.52-3.93-3.37-6.14-4.63-3.59-2.06-7.38-3.76-11.09-5.61-4.58-5.21-10.14-6.56-13.82-1.26a59.46,59.46,0,0,1-5.92-2.13c-13.75-6.53-27.33-13.46-42.53-16.16a23.31,23.31,0,0,1-2.38-.74c-13.47-3.95-27-7.84-40.42-11.86-5.06-1.51-10-3.4-15-5a21.42,21.42,0,0,0-4.63-.58c-3.43-.26-6.9-.29-10.31-.76a48.58,48.58,0,0,1-6.65-1.89Zm330.85,916.77c-.68,13.7-1.65,26.11-1.81,38.53-.17,12.22.48,24.46.79,37.34C1268.86,1254,1377.93,1137.06,1431,969c48.74-154.42,47-308.75-7.81-461.21-57.09-158.93-158.63-283.21-303-370.68C969.62,45.83,806.08,14.8,632.33,43.29,466.44,70.49,327,148,215.21,273.25,101.37,400.8,41.08,551.29,34.26,722c-6,151.23,32.9,291,115.24,418.28C191.43,1205.05,242.86,1261.35,304,1310c.56-22.11,1.09-42.89,1.64-64.69l1.55,2.8c.34-5.67-.42-11.26-.27-16.82.3-10.91,1.19-21.81,1.62-32.72.07-1.68-1.21-3.38-1.46-5.13-.57-4-.93-8-1.28-12-.21-2.4-.19-4.81-.37-7.22-.11-1.63-1-3.5-.47-4.85,2.85-7.34-1.2-14.26-1-21.39.07-1.79.78-3.55,1-5.35.48-4.38,7.9-8.47.57-13.23-.37-.24-.31-1.24-.32-1.89-.2-8.46-.48-16.92-.53-25.39-.08-12.95,0-25.9,0-38.85a10.36,10.36,0,0,1,.66-2.48l1.19.1v43.33a6.71,6.71,0,0,0,2.25-4.57c.37-4.76.32-9.57.89-14.3,1.18-9.9,2.92-19.77-3-28.95a11.11,11.11,0,0,1-1.91-5.54c-.16-11.49-.07-23,0-34.47,0-.53.41-1,.88-2.16,3.1,9.54-.95,19.35,4,27.93-.53-5.19,4.6-10.37-.44-15.61-1.16-1.22-.65-4.07-.84-6.18-.33-3.75.45-8-1.11-11.15-3.74-7.44-2.63-14.57-.22-22v7.43a53.69,53.69,0,0,0,2.33-14.79c.14-7.12.45-14.34-.51-21.35-.69-5-3.29-9.66.09-14.65.78-1.15.5-3,.71-4.53l-.86-.26-2.29,3c0-8.43.14-17.1,0-25.77-.17-8.92.3-18-1.24-26.71-2-11.42,2.18-21.43,4.36-32.38l2.23,3c-.86-4.43-1.82-7.93-2.17-11.49-.92-9.19.1-19-2.86-27.45-2.28-6.49-2.09-12-1.32-18.15.3-2.42-.4-5-.44-7.43-.09-4.62,0-9.25,0-14.78l1.9,2.09c.5-4.91,1-10,1.52-15.19a8.75,8.75,0,0,0-.31-1.45c-.45-4.24-.94-8.47-1.29-12.72-.86-10.2-1.71-20.4-2.43-30.6-.32-4.6-.32-9.21-.42-13.82,0-.44.32-1.24.58-1.28,4.36-.65,3-4,3.07-6.54.33-6.92.57-13.85.88-20.77.2-4.48.56-9,.7-13.45.4-13.76.67-27.53,1.13-41.29.17-4.91.88-9.8,1.09-14.71.35-8.15-.18-16.4.95-24.43.7-5,3.59-9.71,5.82-14.4,3.07-6.43,6.28-12.8,9.78-19,1.26-2.22,3.2-4.7,5.42-5.6,5.29-2.15,9.81-4.32,12.21-10.24,1.26-3.11,1.85-4.31-2.19-4.86,1.06-1.18,1.77-2.08,2.6-2.86,9.81-9.29,16.52-20.75,22.1-32.81,3.76-8.11,6.48-16.71,9.55-25.14a12.69,12.69,0,0,0,.49-4.41c-.26-19.27,4.22-37.16,14.65-53.59,15.94-25.13,38.29-43.3,63.66-57.79a434.21,434.21,0,0,1,47.5-23.18c15.3-6.41,31.22-11.46,47.09-16.36,11.42-3.53,23.17-6,34.84-8.65,12.45-2.83,24.92-5.58,37.48-7.84a13.94,13.94,0,0,0,7.9-4.32c6.72-6.6,13-14.12,21-18.91,24.56-14.9,51.85-20.51,80.33-18.88,20.32,1.17,36.86,10.56,48.73,27.37,2.37,3.35,4.81,5.59,9.2,5.77,6.63.27,13.26.92,19.85,1.71,23.27,2.76,46.7,4.68,69.74,8.77s46.09,9.73,68.77,16a279.73,279.73,0,0,1,53.13,21.26c1.84.94,2.91,3.36,4.34,5.1l-.88.95c29.88,15,58.59,31.55,80.82,57.39,14.17,16.48,23.32,35,25,56.94.16,2.11,1.47,4.13,2.25,6.18l1.62-.51-2.4-14.8,1.8-.34c1,6,2.45,12,3,18.12,1.17,12.42,2.5,24.64,10.9,34.84a15,15,0,0,1,2.72,7.1c.86,5.64,5.72,8.26,10.66,4.93,3.6,4,6.87,8.45,11,11.94,7.19,6.13,14.52,12,20,19.85,2,2.77,4.4,5.3,5.85,8.31,2.41,5,3,11.45,6.56,15.15,4.15,4.31,4.41,8.9,5,13.79.44,3.35-.33,6.89.29,10.19,1.87,10.07,1.31,20,.13,30.13-.7,6-.13,12.2-.13,18.42.43-1.22.86-2.4,1.28-3.59a19.5,19.5,0,0,1,1.82,8.2c.15,3.4.22,6.81.17,10.22,0,1.79-.43,3.58-.54,5.38a22.41,22.41,0,0,0,0,5.24c1.36,7.6,4.22,15.23-2.42,22.1-.88.92-.23,5.12.18,5.2,4.2.74,3,3.91,3,6.27.08,17.32,0,34.64,0,52,0,1.52-.2,3-.3,4.55l-1.49,0V720.59l-1.75-.13c-.35,3.5-.74,7-1,10.48-.16,1.78.1,3.64-.31,5.35a37.15,37.15,0,0,0,2.32,24.22,37.5,37.5,0,0,1,2.52,9.41,67.69,67.69,0,0,1,.54,10.94c-.12,6.31-.51,12.61-.79,18.91-3.36-8,.1-16.77-3.59-25.1-1.25,3.34-2.37,5.88-3.1,8.53-.28,1-.12,2.79.57,3.39,4.15,3.66,3.58,8.29,3.14,13-.28,3.14-.46,6.29-.64,9.44a8.39,8.39,0,0,0,.39,1.8c.48-1.53.82-2.61,1.26-4,3.9,4.85,2.28,9.91,2.34,14.81.23,17.47.93,34.93.89,52.4,0,23.79-.63,47.58-.91,71.38-.11,8.94,0,17.89,0,26.84,0,1.33.13,2.66.13,4q0,16.6,0,33.2l-1.57-.6c-.51.74-1.45,1.47-1.46,2.2,0,3.84,2.41,7.82-1,11.46-.35.37.44,1.79.67,2.73a37.76,37.76,0,0,1,1.45,6.12q1.25,15.78,2.19,31.6c.28,4.61.28,9.24.35,13.86,0,.43-.35,1.2-.62,1.24-5.41.73-2.65,4.67-2.79,7.32-.2,3.62.12,7.26-.08,10.88-.61,10.83-1.38,21.65-2.06,32.48-.7,11-1.41,22.06-2,33.1a29.16,29.16,0,0,0,.38,4.45c.73,7.42,1.48,14.85,2.2,22.27a11,11,0,0,1-.24,1.47c-.29,4.39-.68,8.78-.81,13.18-.22,7.21,2.49,15-2,21.44-4.08,5.9.54,9.85,1,15.51C1189.53,1238.77,1190.35,1238.11,1192.11,1236.66Zm-866,89.88c-.9-9.28-1.78-18.39-2.67-27.49l-1.45.07c-.44,5.79-1.06,11.57-1.25,17.37C320.63,1320.51,320,1325.08,326.12,1326.54Zm4.56-93.14-1.95.17.84,17,1.11-.08ZM530,582.15c-.11.44-.21.87-.32,1.3,7.51,4.46,7.51,4.46,11.81,1.58Zm470.82-223.9.42-1.24c-5.66-1.79-9.68-7.51-16.73-6ZM981,412.09l0,1.61,7.47,1.09.3-1-4.47-4Z"/><path class="cls-1" d="M1192.11,1236.66c-1.76,1.45-2.58,2.11-4.27,3.49-.45-5.66-5.07-9.61-1-15.51,4.47-6.46,1.76-14.23,2-21.44.13-4.4.52-8.79.81-13.18a11,11,0,0,0,.24-1.47c-.72-7.42-1.47-14.85-2.2-22.27a29.16,29.16,0,0,1-.38-4.45c.63-11,1.34-22.07,2-33.1.68-10.83,1.45-21.65,2.06-32.48.2-3.62-.12-7.26.08-10.88.14-2.65-2.62-6.59,2.79-7.32.27,0,.63-.81.62-1.24-.07-4.62-.07-9.25-.35-13.86q-.94-15.81-2.19-31.6a37.76,37.76,0,0,0-1.45-6.12c-.23-.94-1-2.36-.67-2.73,3.41-3.64,1-7.62,1-11.46,0-.73,1-1.46,1.46-2.2l1.57.6q0-16.61,0-33.2c0-1.33-.13-2.66-.13-4,0-9-.1-17.9,0-26.84.28-23.8.87-47.59.91-71.38,0-17.47-.66-34.93-.89-52.4-.06-4.9,1.56-10-2.34-14.81-.44,1.38-.78,2.46-1.26,4a8.39,8.39,0,0,1-.39-1.8c.18-3.15.36-6.3.64-9.44.44-4.69,1-9.32-3.14-13-.69-.6-.85-2.36-.57-3.39.73-2.65,1.85-5.19,3.1-8.53,3.69,8.33.23,17.1,3.59,25.1.28-6.3.67-12.6.79-18.91a67.69,67.69,0,0,0-.54-10.94,37.5,37.5,0,0,0-2.52-9.41,37.15,37.15,0,0,1-2.32-24.22c.41-1.71.15-3.57.31-5.35.31-3.49.7-7,1-10.48l1.75.13V758l1.49,0c.1-1.52.3-3,.3-4.55,0-17.32.05-34.64,0-52,0-2.36,1.2-5.53-3-6.27-.41-.08-1.06-4.28-.18-5.2,6.64-6.87,3.78-14.5,2.42-22.1a22.41,22.41,0,0,1,0-5.24c.11-1.8.52-3.59.54-5.38.05-3.41,0-6.82-.17-10.22a19.5,19.5,0,0,0-1.82-8.2c-.42,1.19-.85,2.37-1.28,3.59,0-6.22-.57-12.4.13-18.42,1.18-10.09,1.74-20.06-.13-30.13-.62-3.3.15-6.84-.29-10.19-.64-4.89-.9-9.48-5-13.79-3.57-3.7-4.15-10.15-6.56-15.15-1.45-3-3.89-5.54-5.85-8.31-5.51-7.8-12.84-13.72-20-19.85-4.09-3.49-7.36-8-11-11.94-4.94,3.33-9.8.71-10.66-4.93a15,15,0,0,0-2.72-7.1c-8.4-10.2-9.73-22.42-10.9-34.84-.58-6.08-2-12.09-3-18.12l-1.8.34,2.4,14.8-1.62.51c-.78-2-2.09-4.07-2.25-6.18-1.73-21.92-10.88-40.46-25-56.94-22.23-25.84-50.94-42.42-80.82-57.39l.88-.95c-1.43-1.74-2.5-4.16-4.34-5.1a279.73,279.73,0,0,0-53.13-21.26c-22.68-6.25-45.62-11.87-68.77-16s-46.47-6-69.74-8.77c-6.59-.79-13.22-1.44-19.85-1.71-4.39-.18-6.83-2.42-9.2-5.77-11.87-16.81-28.41-26.2-48.73-27.37-28.48-1.63-55.77,4-80.33,18.88-7.91,4.79-14.23,12.31-21,18.91a13.94,13.94,0,0,1-7.9,4.32c-12.56,2.26-25,5-37.48,7.84-11.67,2.66-23.42,5.12-34.84,8.65-15.87,4.9-31.79,10-47.09,16.36a434.21,434.21,0,0,0-47.5,23.18c-25.37,14.49-47.72,32.66-63.66,57.79-10.43,16.43-14.91,34.32-14.65,53.59a12.69,12.69,0,0,1-.49,4.41c-3.07,8.43-5.79,17-9.55,25.14-5.58,12.06-12.29,23.52-22.1,32.81-.83.78-1.54,1.68-2.6,2.86,4,.55,3.45,1.75,2.19,4.86-2.4,5.92-6.92,8.09-12.21,10.24-2.22.9-4.16,3.38-5.42,5.6-3.5,6.2-6.71,12.57-9.78,19-2.23,4.69-5.12,9.42-5.82,14.4-1.13,8-.6,16.28-.95,24.43-.21,4.91-.92,9.8-1.09,14.71-.46,13.76-.73,27.53-1.13,41.29-.14,4.49-.5,9-.7,13.45-.31,6.92-.55,13.85-.88,20.77-.12,2.56,1.29,5.89-3.07,6.54-.26,0-.59.84-.58,1.28.1,4.61.1,9.22.42,13.82.72,10.2,1.57,20.4,2.43,30.6.35,4.25.84,8.48,1.29,12.72a8.75,8.75,0,0,1,.31,1.45c-.49,5.14-1,10.28-1.52,15.19l-1.9-2.09c0,5.53-.06,10.16,0,14.78,0,2.48.74,5,.44,7.43-.77,6.17-1,11.66,1.32,18.15,3,8.45,1.94,18.26,2.86,27.45.35,3.56,1.31,7.06,2.17,11.49l-2.23-3c-2.18,10.95-6.37,21-4.36,32.38,1.54,8.71,1.07,17.79,1.24,26.71.18,8.67,0,17.34,0,25.77l2.29-3,.86.26c-.21,1.53.07,3.38-.71,4.53-3.38,5-.78,9.65-.09,14.65,1,7,.65,14.23.51,21.35A53.69,53.69,0,0,1,307,994.69v-7.43c-2.41,7.38-3.52,14.51.22,22,1.56,3.11.78,7.4,1.11,11.15.19,2.11-.32,5,.84,6.18,5,5.24-.09,10.42.44,15.61-4.93-8.58-.88-18.39-4-27.93-.47,1.11-.88,1.63-.88,2.16-.06,11.49-.15,23,0,34.47a11.11,11.11,0,0,0,1.91,5.54c5.93,9.18,4.19,19,3,28.95-.57,4.73-.52,9.54-.89,14.3a6.71,6.71,0,0,1-2.25,4.57v-43.33l-1.19-.1a10.36,10.36,0,0,0-.66,2.48c-.05,13-.12,25.9,0,38.85,0,8.47.33,16.93.53,25.39,0,.65-.05,1.65.32,1.89,7.33,4.76-.09,8.85-.57,13.23-.21,1.8-.92,3.56-1,5.35-.24,7.13,3.81,14,1,21.39-.53,1.35.36,3.22.47,4.85.18,2.41.16,4.82.37,7.22.35,4,.71,8,1.28,12,.25,1.75,1.53,3.45,1.46,5.13-.43,10.91-1.32,21.81-1.62,32.72-.15,5.56.61,11.15.27,16.82l-1.55-2.8c-.55,21.8-1.08,42.58-1.64,64.69-61.09-48.64-112.52-104.94-154.45-169.73C67.16,1013,28.21,873.21,34.26,722c6.82-170.69,67.11-321.18,181-448.73C327,148,466.44,70.49,632.33,43.29c173.75-28.49,337.29,2.54,487.86,93.78,144.35,87.47,245.89,211.75,303,370.68,54.76,152.46,56.55,306.79,7.81,461.21-53,168.1-162.12,285-239.89,343.57-.31-12.88-1-25.12-.79-37.34C1190.46,1262.77,1191.43,1250.36,1192.11,1236.66Z"/><path class="cls-2" d="M871.29,936.28c-10.28.82-20.61,1.25-30.83,2.54-29.32,3.7-58.78,3.32-88.17,2.54-31.06-.83-62.09-3.25-93.12-5.08-15.44-.91-30.86-2-46.29-3.1-2.49-.17-5-.52-7.43-.79l-5-2c1.12-1.06,2.61-1.92,3.31-3.2,4.37-8-1.87-14.9-2.35-22.41,0,0-.59,0-1.22,0-.84,5.83,3.52,12.5-2.09,18,0-6.92.14-13.49,0-20.06-.25-8.62,2.74-17.34-1.27-25.91-1.28-2.73-1-6.19-1.44-9.32l.86-.1,2.78,4.94c.51-7.92,1-14.5,1.29-21.08.06-1.43-.78-2.86-1-4.33a43.2,43.2,0,0,1-.8-7.66c.14-4.46,1.06-8.92,1-13.37-.15-10-.73-19.9-1.08-29.86,0-1.65.19-3.32.3-5l1.38,0,.65,10.14,1.32-.12q-.79-9.74-1.6-19.47l18.41,1.66-9.1.41c72.38,8.42,144.74,9.83,217.14.93l-4.94-.34,42.46-5.7-.15-1.86c-8.07.6-16.13,1.35-24.21,1.78-16.42.86-32.86,1.56-49.28,2.3-10.54.47-21.1,1.44-31.63,1.21-20.33-.44-40.66-1.46-61-2.47-9.44-.46-18.87-1.37-28.28-2.28-2.58-.25-5.06-1.62-7.63-1.81-12.65-.91-25.34-1.42-38-2.47-4.19-.34-8.26-2-12.42-2.85-4.49-.95-9-1.71-13.56-2.55,1.72-4.07,4-8,5.05-12.23,2.37-9.19-.41-19.32,4.93-28.07.45-.73.19-1.95.13-2.94-.51-8.76.39-17.17,5.77-24.56a7.61,7.61,0,0,0,.73-2.83c.67-3.36,1-6.83,2.06-10.06,1.52-4.54,3.59-8.89,5.42-13.33l1.09-1c1.25.65,2.44,1.66,3.76,1.89,6.38,1.12,12.85,1.81,19.21,3,10.25,2,20.37,4.78,30.68,6.3,6,.87,12.27-1.56,18.25,1.07.16.07.53-.32.8-.5.81-7.58,1-7.64,7.33-3.52a3.74,3.74,0,0,0,1.87.58c4.41.13,8.83.14,13.24.28a12.46,12.46,0,0,1,3.1.67c6.87,2.06,13.64,5.17,20.64,5.85,4.26.41,4.55,1.42,3.77,4.71,5.28-1.37,10.34-2.17,15-4,4.19-1.67,6.31-.47,7.72,3.36h7.29c2.15-3.36,2.67-9.09,8.32-7.22,3.85,1.26,7.13,4.29,9.54,5.81l17.51-3c-.1-.73-.33-2.27-.67-4.56l2.85,2.53c3.12-1.3,5.38-3,7.54-2.9,2,.11,6.39.1,4.3,4.82a5,5,0,0,0,2.41,1.15,2.81,2.81,0,0,0,2.09-1.67c.21-1.31-.21-2.73-.42-4.52,6.36,2.59,5.68-3.74,7.56-6.25,5,5.69,2.64,9.07-4.84,10.88,8.07,1.92,10.56.47,12.78-5.42.61-1.6,2.57-4,3.67-3.87,3.46.38,6.81,1.78,10.2,2.79l-.36,1.53-11.9,2.69.37,1.61L864,683.56l.87-5.23,5.59,5.7A22.07,22.07,0,0,1,874,681c1.46-.84,3.37-1.79,4.86-1.52,5.15.95,2.9-2.18,2.52-4.4l3.56-.92c1.24,3.13,1.68,6.6,3.62,8.67,4.39,4.68,9.88,2.91,13.68-3.52,1-1.67,3-3.81,4.45-3.81s2.69,2.68,4.15,4c1.92,1.81,3.7,4,6,5.15,8.06,3.89,16.27,1.25,24.41-.08l0,0c1,3.34,1.5,7,3.25,9.81.39.64,5.17-1.14,7.77-2.19s5.71-4.27,7.33-3.57c4.4,1.88,5.77-.43,7-3.4,4.8.72,5.73,2.54,3.08,6.41a81.91,81.91,0,0,0-5.46,10.06C963,704.19,963,706.56,966,708c3.29,1.56,9.31.66,9.84-1.81a68.15,68.15,0,0,0,1.94-15.25c0-1.82-3.26-3.57-5-5.39-.18-.18-.12-.6-.36-2.07l19.17,11c-.32.52-.63,1-.94,1.56l-4.29-2.44c.16,1.43,0,2.33.38,3,2.81,5.16,3.31,9.58-2.76,13.05-1.1.64-1.44,3.54-1.22,5.29.28,2.25,1.43,4.4,2.3,6.56,1.41,3.53,1.16,6.15-3.25,7.06s-4.84,4.64-4.07,7.78c.36,1.46,3.59,3,5.6,3.12,6.58.4,13.21.15,19.72.15,3.06,10.69,9.63,12.91,16.77,5.88,1.41-1.39,2.41-3.18,3.77-4.62s3.07-2.86,4.62-4.28c5.57,6.12,6.09,10.63,2,17.28-3.1,5-4.1,5.29-8.57,1.52-3.37-2.85-6-.71-8.45,1.09-2.66,1.89-1.84,4.28-.29,6.57,3.93,5.78,7.82,11.58,11.75,17.36,1.49,2.2,2.8,4.62,4.7,6.42,1.18,1.11,3.3,1.23,5,1.79.25-1.78,1.14-3.8.61-5.3-1.45-4.06-3.54-7.88-5.28-11.84a22.45,22.45,0,0,1-.78-3.94l14.37,9.06c-.72,1.12-1.49,2.17-2.09,3.31-2.91,5.52-1.83,7.6,4.29,9,2.71.63,5.28,1.87,8,2.61,2.21.61,4.83,1.79,6.7,1.13,4.13-1.46,6.57.38,9.82,3.46a55.47,55.47,0,0,1-5.33,2.77c-3.56,1.38-7.33,2.3-10.75,3.95-2.23,1.08-5.85,3.5-5.61,4.64.54,2.58,3,4.84,4.88,7,.68.78,2.09.91,3.14,1.39,3.65,1.68,7.29,3.38,11.77,5.47-9.53,2.7-9.53,2.7-13.13,12.23-.06.15-.11.31-.17.47-1.11,3-3.1,4-5.8,2.14-4.32-3-6.48.2-8.55,2.91-2.39,3.14-.09,5.23,2.3,7,7,5.14,14.1,10.05,20.84,15.46a10.14,10.14,0,0,1,3.14,6.45c.53,6.09.38,12.23.51,18.35q-8.75,3.54-17.48,7.08c-11.19,4.52-22.18,9.68-33.63,13.38-17.53,5.64-35.38,10.28-53.1,15.29-1,.28-2.13,0-4.44,0l4-3.55-60.15,10q-22.26,2.58-44.53,5.16c-.3,0-.57.33-.85.5-3.79.12-7.6.08-11.37.42-3.59.32-7.15,1-10.73,1.59.07.43.15.87.22,1.3l30.11-2.27,6.1.15C871.29,935.67,871.29,936,871.29,936.28Zm-48.38,1.77,0-.66H800.5c0,.22,0,.44.07.66Z"/><path class="cls-3" d="M600.44,781.65q.79,9.74,1.6,19.47l-1.32.12-.65-10.14-1.38,0c-.11,1.66-.35,3.33-.3,5,.35,10,.93,19.9,1.08,29.86.07,4.45-.85,8.91-1,13.37a43.2,43.2,0,0,0,.8,7.66c.21,1.47,1.05,2.9,1,4.33-.28,6.58-.78,13.16-1.29,21.08l-2.78-4.94-.86.1c.43,3.13.16,6.59,1.44,9.32,4,8.57,1,17.29,1.27,25.91.18,6.57,0,13.14,0,20.06,5.61-5.48,1.25-12.15,2.09-18,.63,0,1.22,0,1.22,0,.48,7.51,6.72,14.45,2.35,22.41-.7,1.28-2.19,2.14-3.31,3.2-9.6-1-19.21-1.86-28.79-3-2.88-.36-5.64-1.69-8.49-2.4-2.62-.65-5.28-1.09-7.93-1.6a42.51,42.51,0,0,1-5.31-1c-5.18-1.7-10.4,0-12.56,3.13,1.13,6.2,2.8,11.14,2.77,16.06-.07,10.38-1.28,20.74-1.58,31.12-.35,12.09-.23,24.19-.32,36.28,0,.83,0,1.66-.07,2.49-.59,13.71-1.49,27.41-1.69,41.13-.29,19.74,2.84,39.36.71,59.28-1.65,15.5-.54,31.33-.27,47,.23,13.87,1,27.74,1.52,41.6.44,11.65,1,23.3,1.2,35,.07,3.79,1.32,5.66,5.08,6.58,5.47,1.33,11.09,2.62,16.14,5,13.23,6.28,27.49,8.34,41.58,11.21.67,2.14,1.93,4.27,1.91,6.4-.07,9.13-.55,18.25-.8,27.38a40.8,40.8,0,0,0,.41,4.92l1.92,0a70.55,70.55,0,0,0,.58-7.37c-.05-2.67-.54-5.33-.94-8.9,11.61,15.11,4.54,30.6,4.66,45.59l-1.46,0v-21.15h-2.33c-1.6,26.78-5,53.51-2.12,80.45l1.52.69c.3-.9.59-1.8,1-3.06,1.23,6.65,2.49,12.3,3.26,18,.37,2.76.8,5.85-3.11,7.33a5.73,5.73,0,0,0-3,4.3c.1,7.07.73,14.14,1.17,21.2l1.18-.08c.29-3.37.58-6.74,1-11.31l2.14,4,1.34-.1v-13.92l1.6.09c0,12.1,0,24.2-.09,36.3,0,1.06-1.29,2.11-2,3.16a680.45,680.45,0,0,1-120.48-34.94c-2.46-1-4.85-2.1-7.28-3.15,1.3-1.8,3.58-3.54,3.7-5.41.25-3.89-.76-7.85-1-11.79-.06-1,.85-2.09,1.27-3.15a7.22,7.22,0,0,0,.9-2.71c-.28-5.46-.73-10.92-1.06-16.38a7.72,7.72,0,0,1,.45-2.43c1.7-6.1.2-11.73-2.29-17.32-.67-1.48-.56-3.36-.59-5.07-.14-6.92-.14-13.84-.32-20.76-.06-2-.94-4-.81-5.93.42-6,1.2-12,1.74-18,.5-5.52.88-11,1.26-16.57a8.84,8.84,0,0,0-.32-1.93c-.64-4.39-1.47-8.77-1.88-13.18-.65-7.07-1.08-14.16-1.46-21.25a5.39,5.39,0,0,1,1.11-3.15c2.2-3,4.56-5.93,1.37-9.78a3,3,0,0,1,.2-2.76c2.59-3.64,1-6.14-1.62-7.65,1.13-2.12,3.27-4.61,2.75-5.44-3.15-5,2.07-16.25-10.94-14.57a35.18,35.18,0,0,1,5.46-2.64c1.92-.91,3.72-2.09,5.57-3.15-1.54-1.76-2.77-4.11-4.7-5.17-4.54-2.48-5-4.24-.91-7.5a14.34,14.34,0,0,1,2.86-1.66c-1.33-8.12-2.47-15.42-3.77-22.69-.48-2.73-1.37-5.38-2.07-8.07-2.19,1.85-4.45,3.63-6.52,5.6-.56.55-.54,1.7-.63,2l5,3c-1.41,1.62-2.74,3.33-4.28,4.83-.67.66-2,.67-2.6,1.36s-1.3,2.38-.94,2.87c3.5,4.68.63,6.38-3.31,7.88-1.07.41-1.91,1.45-3.19,2.46l7.77,3.81c-6,2.59-5.65,6.63-4.66,10.89.22.94.79,2.49.43,2.78-4.19,3.25-3.64,6.84-1.17,10.76a3.44,3.44,0,0,1,0,2c-.58,4.51-1.18,9-1.85,14.12-4.93-.21-4.61,2.44-2.13,6.77.76,1.32-.28,3.91-.94,5.75s-3,3.7-2.65,5.07a41.88,41.88,0,0,0,4.69,11.32c1.43,2.34,2,3.78.88,6.61-.92,2.24.21,5.34.5,8.06.62,5.84,1.28,11.67,1.91,17.51,0,.15-.15.3-.18.46-.69,3.53-1.78,7-2,10.58-.32,6.31-.15,12.65-.08,19,0,2.94-.69,5.16-3.76,6.27s-3.12,3.1-2,6a16.27,16.27,0,0,1,.39,7.14c-.93,8.48-2.72,17,3.31,24.54,2.49,3.1,2,6,.82,9.73-1.7,5.24-3.36,11-2.75,16.31.48,4.17,0,6.59-3.07,8.88l-34.9-17.16v-20.55l-1.33-.06c-.46,1.73-.93,3.46-1.39,5.18l-.83-.06-1-8.2-3.66,1.44c.36-3,.31-5.37,1-7.53,2.93-9.86,3.49-19.79,2.74-30.06s-.17-20.62-.17-30.94l.3,0c.63,3.21,1.27,6.42,2.08,10.5,6.58-11.61-1.43-22.77,2-33.42.3,1.79.6,3.57.91,5.36l1-.21v-17.45l-4.47,2.7c.82-10.64,2.06-20.13,2.14-29.64.08-9.77-1.19-19.54-1.48-29.33-.28-9.33-.06-18.68-.06-28l-1.21,0q-.69,2.57-1.36,5.11l-1.24-.23v-37.2l1.74-.19,2.53,10.75,1.7-.15c0-8.28.36-16.58-.19-24.83-.19-2.88-2.7-5.59-4-8.44-.95-2.09-2.42-4.33-2.31-6.43.25-4.79,1.55-9.51,2.05-14.3,1.64-15.46,5-30.88,1.57-46.53a32.7,32.7,0,0,1-.16-4c-.52-5.08-1.17-10.15-1.61-15.23-.12-1.41-.19-3.35.62-4.21,4.22-4.53,3.15-9.1,1-14.07a21.44,21.44,0,0,1-1.87-8.09c-.19-13.9-.09-27.8-.09-40.75,1.75-1.78,3.78-2.92,3.74-4-.23-5.75-1.2-11.47-1.49-17.23-.33-6.52-1.3-13.32.18-19.48.75-3.13,1.29-5.31-.14-8-.76-1.45-1.95-2.89-2.08-4.4-.61-7.11-.91-14.24-1.34-21.75l2.72.73V823l1.29-.06v19c1.15-8,1-16,1.27-23.95,0-1.42,1.64-2.78,2.52-4.17l1.38.48,1.05-22.21-1.63-.09-1,6H419.6c0-2.2.08-4.39,0-6.58-.2-4.56-.21-8.93-5.53-11.45-2-.95-3.94-4.39-4-6.77-.27-7.54-.35-15.23.86-22.64.78-4.83,1.37-9.33.21-14.05a29.23,29.23,0,0,1-.43-4.09c7.06,3.13,14,6.69,21.21,9.32,30,10.92,60.5,20.48,91.88,26.72,19.09,3.8,38.26,7.15,57.42,10.54C587.54,780.18,594,780.8,600.44,781.65Zm-.94,543.82,2-.07c-.36-7.26.64-14.61-.66-21.81l-2.45.13Q598.94,1314.6,599.5,1325.47ZM421,846.06h-1v26.6h1Zm173.76,447.57c4.11-4.19,5.13-11.09,1.74-14.66Zm-161.7,1.12-1.26.1v15.78l1.26,0Zm-11.56,34,1.21.06v-13.25l-1.21,0Zm.58,29.2-.93.13v9.56l.93-.06Z"/><path class="cls-2" d="M610.27,1452.19c.68-1,2-2.1,2-3.16.14-12.1.09-24.2.09-36.3l-1.6-.09v13.92l-1.34.1-2.14-4c-.4,4.57-.69,7.94-1,11.31l-1.18.08c-.44-7.06-1.07-14.13-1.17-21.2a5.73,5.73,0,0,1,3-4.3c3.91-1.48,3.48-4.57,3.11-7.33-.77-5.72-2-11.37-3.26-18-.42,1.26-.71,2.16-1,3.06l-1.52-.69c-2.93-26.94.52-53.67,2.12-80.45h2.33v21.15l1.46,0c-.12-15,7-30.48-4.66-45.59.4,3.57.89,6.23.94,8.9a70.55,70.55,0,0,1-.58,7.37l-1.92,0a40.8,40.8,0,0,1-.41-4.92c.25-9.13.73-18.25.8-27.38,0-2.13-1.24-4.26-1.91-6.4l10.12,1.81c8.05,1.34,16.13,2.54,24.13,4.08,2.7.52,5.22,2,7.84,2.91,2.94,1.07,5.84,2.65,8.87,3,18.69,2.17,37.41,4.07,56.13,6a6.88,6.88,0,0,0,3.85-.58c5.39-3,10.46-2.07,15.71.49a21.31,21.31,0,0,0,7.19,1.7c7.54.71,14.85,1,22.35,3.76,6.85,2.48,15.12,1.58,22.74,1.33,26.94-.88,54-.94,80.79-3.54,28.78-2.8,57.33-8,86-12.39,6.72-1,13.32-2.87,20-4.3a11,11,0,0,1,3.93-.5c10.61,1.77,19.73-1.46,28.44-7.41,2.7-1.84,6.79-1.57,10.21-2.42,2.13-.54,4.78-.78,6.16-2.17,5.14-5.18,11.77-6.39,18.36-7.89l9,1.52c-1.63,4.22-3.4,8.64-5,13.1-.89,2.45-1.35,5,1.9,6.19,3.75,1.43,10.57.13,10.62-2.3.13-7.21,2.87-14.86-2.56-21.43,4.59-3,9.14-6,13.81-8.8.81-.49,2.12-.16,3.2-.21.66,3.4,2.13,6.87,1.81,10.17-.77,8.06.29,16.86-7.52,22.83-1,.75-.79,3.72-.33,5.43.56,2,2.07,3.77,3.06,5.69,2.75,5.34,2.61,5.72-2.89,8.26-4.06,1.88-3.22,5.46-2.86,8.67s2.6,4,5.51,3.3c4.13-.93,5.29,1.11,5.25,4.89,0,4,.33,8,.52,12l1.94.13q1.65-8.07,3.31-16.13c.4,5.33.16,10.74.5,16.12.18,2.94-.67,4.31-3.48,4.89-4.72,1-9.41,2.11-14.09,3.26-8.09,2-10,6.07-6.26,14.7,2.89-5.5,7.37-7,13-6.38,3.06.33,4.33,1.4,4.6,4.53.7,7.93,2,15.82,2.55,23.76.43,6.18.09,12.42.09,18.63h-1.81v-17.91l-1.49-.59c1.16,8.22-4.62,11.44-9.42,15.64-1.25,1.1-.77,4.71-.36,7,.86,5,2.19,9.86,3.32,14.77l-7.9,4.21c-3-4.17-5.82-8.52-9.15-12.42-1.27-1.48-3.76-1.92-5.7-2.83-.67,2.08-2.16,4.3-1.85,6.23.8,5.06,2.39,10,3.67,15-25.15,9.61-49.94,20.31-75.51,28.6-62.4,20.25-126.61,30.66-192.2,32.8a729.8,729.8,0,0,1-161.32-13A4.5,4.5,0,0,1,610.27,1452.19Z"/><path class="cls-2" d="M605.56,944.28c15.6,1,31.24,1.54,46.8,3,12.33,1.12,24.53,3.71,36.86,4.81,9.08.82,18.28.19,27.42.39,7.87.18,15.74.63,23.61.94,8.52.34,17,.94,25.58.89,18-.09,36,.14,53.9-1,29.38-1.87,58.71-4.51,88-7.33,5.23-.51,6.3,2.1,7.5,5.59.42,1.22-.09,2.86.52,3.9,3.93,6.73.4,11-4.29,15.5-12.12,11.51-12,11.62-7.78,27.28a32.16,32.16,0,0,0,1.74,4.12c-.32,4.88-2.49,9.53-1,14.7,1,3.43,1,7.2,1.08,10.82.35,13.91.55,27.82.84,41.73,0,1.44.28,2.87.43,4.31l1.07-.09,3.39-17.43c.55-2.07,1.24-4.1,1.61-6.2,2.16-12,4.24-24,6.35-36,1-5.22,1.42-10.2-.85-15.47-2.14-5,2.54-8,5.41-11.06a54.41,54.41,0,0,1,9.22-7.61c1.66-1.12,4.16-1,6-2,6-3.28,1.85-8.59,2.19-13,.58-7.34.42-14.73,1-22,.11-1.27,2.45-3.11,4-3.39a560.09,560.09,0,0,0,102.49-29.09c7.29-2.81,14.37-6.13,21.55-9.21,1.59,5.18,3.3,10.33,4.7,15.57.39,1.5.49,3.69-.33,4.79-2.36,3.18-1.37,6.2-.44,9.35l-31.24,11.46c-5.38,2-10.61,4.66-16.16,5.78-8.16,1.65-16.09,3.35-23.35,7.81-4,2.42-8.64,3.64-13,5.4-7.06,3.65-14.19,13.7-12.59,21.67l2.28-.72a11.88,11.88,0,0,0-.65,3.24c.63,7.08,1.49,14.14,2,21.23.34,4.3.34,8.64.38,13,0,3.65,0,7.31-.12,11-.4,9.68-1.33,19.35-1.25,29,.08,10,1.29,20,1.63,30,.24,7.23-.08,14.48-.27,21.71-.49,18.49,7,33.36,20.4,45.64l-2,1.89c.55,2.76,7.29,8.22,10.82,7.8,8-.94,16-2.35,23.94-4,1.62-.33,2.89-2.44,4.32-3.72,2.68-1.59,7.38-.15,7.79-5.17a42.21,42.21,0,0,1,5.24-3.26,56.52,56.52,0,0,1,7.85-2.63,58.28,58.28,0,0,1,5.91-1,30.61,30.61,0,0,1,1.11,5.74c.07,15.42,0,30.84,0,46.26-10.55,4.44-21.06,9-31.7,13.25a87,87,0,0,1-13.82,4.3c-10.13,2.2-20.37,4-30.54,6-25.77,5.19-51.4,11.31-77.35,15.46a835.43,835.43,0,0,1-117.39,9.88c-5.83.1-11.66.27-17.49.23-6.73,0-13.17-.27-19.94-2.58-7-2.37-15.13-1.14-22.76-1.71q-49.8-3.73-99.58-7.67c-8.37-.67-16.68-2-25-3l-4.18-1.08c3.37,0,4.13-1.94,4-4.92-.68-11.77-1.14-23.56-2-35.32a18.88,18.88,0,0,0-2.35-6.84c-2.31-4.56-6.32-8.77-7.07-13.52-1.59-10.12-1.6-20.48-2.12-30.76-.21-4.12,0-8.25-.06-12.38,0-1.15-.31-3.23,0-3.31,5.38-1.49,2.28-5.51,2.41-8.32.29-6.6-.19-13.25.26-19.84.57-8.39,1.75-16.75,2.69-25.12.11-.93.37-1.85.56-2.77a23.27,23.27,0,0,1,1.65,8.79c.42,29.79.74,59.57,1.21,89.35.05,3.14.83,6.27,1.27,9.41l1.25-.19c-1-47.59.07-95.25-3.95-142.81-4.84,8-1.43,16.91-3.64,25.17q-1.1-21.56-2.2-43.11l1.59-.11c.43,1.71.87,3.41,1.3,5.12l1.55-.18V996.92l1.69,0v13.22c4.32-3.09,5.28-6,3.37-10.31-1.24-2.76-1.42-6-1.88-9.1-.94-6.32-1.78-12.65-2.62-19-.42-3.2-2.08-7.12-.84-9.49,3.17-6,2.31-11.8,1-17.82Zm16.77,47.05,1.32,3.2c-1.32,4.89-3.48,9.72-3.77,14.66-.45,7.66.37,15.38.65,23.08q1,8,2,16.09c-.47,4.41-1.08,8.82-1.32,13.25-.08,1.69.15,4.36,1.2,5,3.82,2.32,3.19,5.72,3.18,9.13,0,4,.1,8,.11,12,0,12.73,0,25.47.08,38.2.05,7.29.48,14.58.42,21.87-.07,10.61,2.54,20.47,9.34,28.59,3.51,4.18,5.36,7.41.89,11.38,1.67,1.44,2.95,2.69,4.38,3.72a31.17,31.17,0,0,0,3.66,2,22.54,22.54,0,0,0,.57-4.5,43.33,43.33,0,0,0-1.36-6.06c6.71,6.57,25.5,10.77,35.13,6.27l-7.36-1.19.1-1.7,87.2,3.29c.87,3.3,1.51,6,2.31,8.64.72,2.4,1.76,4.44-1.44,6.34-1.13.67-1,3.89-.92,5.93,0,.56,1.77,1.66,2.56,1.53,4.6-.75,9.17-1.7,13.68-2.83a3.11,3.11,0,0,0,1.81-2.43c-.06-.79-1.26-1.78-2.18-2.14s-2.35,0-3.44-.34c-1.91-.55-3.74-1.38-5.6-2.09,1.36-1.2,2.56-2.69,4.11-3.55,5.55-3.08,7.6-7.1,6-12.22l13.8-3.51c11.19,4,4.21,11.35,3.06,17.75,6-.25,5.53-12.15,13.59-6.5,5.55-9.81,5.2-14.92-1.76-19.41-.37,4.22-.71,8.15-1.06,12.07l-1.46.36c-1.65-3-3.34-5.87-4.9-8.87a2.11,2.11,0,0,1,.38-1.79c4.29-5.55,8.12-11.63,13.2-16.35a10.45,10.45,0,0,0,3.79-8.83c0-1.33,1.16-3.83,1.77-3.82,3.43,0,4.17-2.51,3.91-4.62-.16-1.37-2.29-2.89-3.88-3.61-2.62-1.21-5-1.71-4.56-5.76.88-8,1.23-16.12,1.48-24.2.28-9.27.12-18.54.33-27.81.11-5.11.8-10.21.82-15.32,0-3.78-.88-7.56-.94-11.35-.1-6,.73-12.07.14-18-1.1-11.12-2.62-22.23-4.57-33.24-1.83-10.38-8.69-17.31-18.33-20.44-7.15-2.33-14.94-2.68-22.44-3.93-.22,0-.39-.32-.51-.42l3.12-2.08c-3,.25-4.78.48-6.55.53-14.9.39-29.8.84-44.7,1.07-13.55.21-27.1.2-40.65.21-11.09,0-22.18-.1-33.28-.16C635.54,978.78,627.56,982.62,622.33,991.33ZM837,1194.56c3.49,10.26,6.76,19.88,10,29.49,6.36-2.23,6.17-3.31,2.79-8.65-2.54-4-3.61-9.21-4.22-14-.21-1.61,3.43-3.44,4.53-5.57a10.36,10.36,0,0,0,.82-6.28c-.27-1.39-2.18-2.46-3.35-3.67-1.45,1.49-3.21,2.8-4.22,4.55-.78,1.33-.56,3.22-.89,4.85-.2,1-.59,2-1.05,3.43ZM830.83,1166l-2.17,1.65c1,4.51,2.08,9,3.29,14.24,4.31-3.31,10.24-4.37,7.47-9.87C838,1169.22,833.79,1167.91,830.83,1166ZM812,1173.48l2.07,1.09a70.9,70.9,0,0,0,5.23-6c3.08-4.44,2.37-5.89-3.75-7.23Q813.76,1167.36,812,1173.48Zm45.34,8.63v-15.24C852.81,1173.76,853,1179.69,857.32,1182.11Zm-75.78,14c1.69-2.21,2.91-3.12,3.1-4.2a14.28,14.28,0,0,0-.39-5.06c-.06-.29-2-.58-2.1-.41a16.09,16.09,0,0,0-1.48,4.47C780.53,1192.13,781.05,1193.4,781.54,1196.14Zm31.78-8.87c-1.54,2.7-2.79,4-2.86,5.33-.06.92,1.53,1.93,2.39,2.9.83-.84,2.31-1.64,2.35-2.51C815.25,1191.61,814.35,1190.18,813.32,1187.27Z"/><path class="cls-2" d="M410.66,732.47a29.23,29.23,0,0,0,.43,4.09c1.16,4.72.57,9.22-.21,14.05-1.21,7.41-1.13,15.1-.86,22.64.09,2.38,2,5.82,4,6.77,5.32,2.52,5.33,6.89,5.53,11.45.1,2.19,0,4.38,0,6.58H421l1-6,1.63.09-1.05,22.21-1.38-.48c-.88,1.39-2.48,2.75-2.52,4.17-.25,8-.12,15.94-1.27,23.95V823l-1.29.06V892l-2.72-.73c.43,7.51.73,14.64,1.34,21.75.13,1.51,1.32,2.95,2.08,4.4,1.43,2.7.89,4.88.14,8-1.48,6.16-.51,13-.18,19.48.29,5.76,1.26,11.48,1.49,17.23,0,1.06-2,2.2-3.74,4,0,12.95-.1,26.85.09,40.75a21.44,21.44,0,0,0,1.87,8.09c2.17,5,3.24,9.54-1,14.07-.81.86-.74,2.8-.62,4.21.44,5.08,1.09,10.15,1.61,15.23a32.7,32.7,0,0,0,.16,4c3.46,15.65.07,31.07-1.57,46.53-.5,4.79-1.8,9.51-2.05,14.3-.11,2.1,1.36,4.34,2.31,6.43,1.3,2.85,3.81,5.56,4,8.44.55,8.25.19,16.55.19,24.83l-1.7.15-2.53-10.75-1.74.19v37.2l1.24.23q.68-2.55,1.36-5.11l1.21,0c0,9.34-.22,18.69.06,28,.29,9.79,1.56,19.56,1.48,29.33-.08,9.51-1.32,19-2.14,29.64l4.47-2.7v17.45l-1,.21c-.31-1.79-.61-3.57-.91-5.36-3.47,10.65,4.54,21.81-2,33.42-.81-4.08-1.45-7.29-2.08-10.5l-.3,0c0,10.32-.58,20.68.17,30.94s.19,20.2-2.74,30.06c-.65,2.16-.6,4.53-1,7.53l3.66-1.44,1,8.2.83.06c.46-1.72.93-3.45,1.39-5.18l1.33.06v20.55c-19.85-11.47-39.81-22.74-59.49-34.5-8.69-5.19-16.83-11.31-25.14-17.12-1.25-.87-3-2.4-2.93-3.55.23-5.29,1-10.57,1.61-15.85.11,1.31.21,2.62.32,3.92l1.48-.06c0-9.52,0-19,0-28.57.08-16.73.1-33.46.32-50.19.14-10.76.79-21.52.85-32.29q.21-36.87,0-73.74c0-10.08-.41-20.16-.68-30.24-.11-3.77-.43-7.52-.53-11.29-.14-5.41-.15-10.83-.23-16.25,0-1.32-.28-2.65-.2-4,.52-9.06,1.54-18.12,1.57-27.19.06-13.75-.6-27.51-.88-41.26-.2-9.82-.4-19.64-.38-29.45,0-28.78.3-57.56.23-86.33,0-17-.61-33.93-.8-50.89-.06-5.46.4-10.93.51-16.39.09-4.64,0-9.27,0-13.91q0-13.17,0-26.34h-1.43l-.22,3.92c-.25-4.68-.72-9.37-.7-14,0-8.6.49-17.2.54-25.81.1-16.46,0-32.92,0-49.38V674.71l1.79-.58C355.17,700.41,381.74,718,410.66,732.47Z"/><path class="cls-4" d="M941.27,684.58c-8.14,1.33-16.35,4-24.41.08-2.29-1.1-4.07-3.34-6-5.15-1.46-1.37-2.77-4-4.15-4s-3.46,2.14-4.45,3.81c-3.8,6.43-9.29,8.2-13.68,3.52-1.94-2.07-2.38-5.54-3.62-8.67l-3.56.92c.38,2.22,2.63,5.35-2.52,4.4-1.49-.27-3.4.68-4.86,1.52a22.07,22.07,0,0,0-3.62,3.07l-5.59-5.7-.87,5.23-16.88,3.13-.37-1.61,11.9-2.69.36-1.53c-3.39-1-6.74-2.41-10.2-2.79-1.1-.12-3.06,2.27-3.67,3.87-2.22,5.89-4.71,7.34-12.78,5.42,7.48-1.81,9.85-5.19,4.84-10.88-1.88,2.51-1.2,8.84-7.56,6.25.21,1.79.63,3.21.42,4.52a2.81,2.81,0,0,1-2.09,1.67,5,5,0,0,1-2.41-1.15c2.09-4.72-2.29-4.71-4.3-4.82-2.16-.11-4.42,1.6-7.54,2.9l-2.85-2.53c.34,2.29.57,3.83.67,4.56l-17.51,3c-2.41-1.52-5.69-4.55-9.54-5.81-5.65-1.87-6.17,3.86-8.32,7.22h-7.29c-1.41-3.83-3.53-5-7.72-3.36-4.64,1.86-9.7,2.66-15,4,.78-3.29.49-4.3-3.77-4.71-7-.68-13.77-3.79-20.64-5.85a12.46,12.46,0,0,0-3.1-.67c-4.41-.14-8.83-.15-13.24-.28a3.74,3.74,0,0,1-1.87-.58c-6.37-4.12-6.52-4.06-7.33,3.52-.27.18-.64.57-.8.5-6-2.63-12.29-.2-18.25-1.07-10.31-1.52-20.43-4.3-30.68-6.3-6.36-1.24-12.83-1.93-19.21-3-1.32-.23-2.51-1.24-3.76-1.89,2.26-3,4.06-6.6,6.85-9,10.36-9.07,14.75-21.35,19-33.77,6.28.38,12.57.64,18.84,1.16,35.5,3,71,5.83,106.68,3.88,9.45-.51,18.92-.7,28.36-1.39,1.7-.13,5.27,2,5.17-2.49,1,0,2,0,3,0,11.86-.48,23.79-.34,35.57-1.62,14.7-1.59,29.3-4.14,43.87-6.71,8.84-1.56,17.47-4.27,26.29-5.91a373.33,373.33,0,0,0,111.42-39.81c24.88-13.61,48.11-29.83,65.78-52.67,3.86-5,7.26-10.33,10.87-15.51l10.1,5.87,15.8,21.47-6,1.28c5.85,6.33,10.55,11.74,15.6,16.81,9.26,9.31,17.08,19.11,21.06,32.24s3.33,26.16,2.87,39.31c-.28,7.75-6.89,12.08-11.56,17.27-1.5,1.67-4.15,2.24-6,3.64-.73.54-.69,2-1.21,3-2.08,3.76-2.89,8.35-8.24,9.76-1.64.43-3.06,3.54-3.66,5.69-1.15,4.14-2.35,7.76-7.53,8a4.16,4.16,0,0,0-2.68,1.16c-3.92,4.28-7.72,8.67-11.56,13-.33.37-.59.88-1,1.08-3.94,2-8,3.75-11.81,6-2,1.21-3.56,3.24-5.24,5-1.21,1.25-2,3.33-3.48,3.85-17,6.15-30.39,18.91-47.16,25.47-3.6,1.41-6.75,3.94-10.11,6l-5.07,2c-1.55,1.42-3.19,2.75-4.62,4.28s-2.36,3.23-3.77,4.62c-7.14,7-13.71,4.81-16.77-5.88-6.51,0-13.14.25-19.72-.15-2-.11-5.24-1.66-5.6-3.12-.77-3.14-.34-6.88,4.07-7.78s4.66-3.53,3.25-7.06c-.87-2.16-2-4.31-2.3-6.56-.22-1.75.12-4.65,1.22-5.29,6.07-3.47,5.57-7.89,2.76-13.05-.35-.64-.22-1.54-.38-3l4.29,2.44c.31-.52.62-1,.94-1.56l-19.17-11c.24,1.47.18,1.89.36,2.07,1.74,1.82,5,3.57,5,5.39a68.15,68.15,0,0,1-1.94,15.25c-.53,2.47-6.55,3.37-9.84,1.81-3-1.4-3-3.77-1.76-6.29a81.91,81.91,0,0,1,5.46-10.06c2.65-3.87,1.72-5.69-3.08-6.41-1.23,3-2.6,5.28-7,3.4-1.62-.7-4.74,2.52-7.33,3.57s-7.38,2.83-7.77,2.19c-1.75-2.86-2.28-6.47-3.25-9.81l4.37-4-5.71-4.93C940.5,679.55,940.89,682.06,941.27,684.58Zm81.88,39.25c.13-4.91-4.78-8-8.45-6.58-5.39,2.09-10.9,3.86-16.23,6.07-1.73.72-3.06,2.41-4.57,3.65a29.86,29.86,0,0,0,4.68,3c1.33.56,3,.34,4.43.58,3.91.66,8,.91,11.67,2.2,4.38,1.53,6.16,1.19,7.35-3.14C1022.64,727.4,1022.91,725.07,1023.15,723.83Zm-60.27-50.89-9.49,1.37C959.13,677.66,960.77,677.47,962.88,672.94ZM766.6,683.58l4.2,3.53,1.48-6.47-1.56-.52Z"/><path class="cls-2" d="M1041.1,544.55l-19.68,11.22a56.37,56.37,0,0,0-7.27,1.47c-7.72,2.65-15.36,5.52-23,8.3l-4.1-3.45c18-7.38,32.74-18,47.36-28.73-2.16.59-4.5,3-5.72,2.57-3.7-1.42-4.83,1.58-7.1,2.77-6.13,3.19-12.44,6-18.7,8.95-1.64.77-3.48,1.13-5.05,2-3.66,2-6.71,5.17-11.57,4.71-1.71-.17-3.64,1.39-5.39,2.33-6.44,3.45-12.84,7-19.26,10.47l-.86-1.49c4.54-5.13,13.53-4.53,16.93-12.92a43,43,0,0,0-5.87,1.25c-9,3.42-17.81,7.42-27,10.34-12.35,3.92-24.83,7.63-37.48,10.34-12.49,2.68-24.84,5.91-37.56,7.77-28.09,4.12-56.29,6.81-84.63,6.93-23.09.1-46.19-1.09-69.27-2-6.11-.23-12.56-.29-18.2-2.27-29.8-10.49-59.41-21.5-89-32.49-7.71-2.86-16.22-4.17-22-11-4.89-5.76-10.2-11.17-15-17-3.51-4.21-7.23-8.49-9.61-13.35-2.46-5-3.53-10.79-4.92-16.3-.3-1.16.64-2.63,1.3-5,.36,2.08.52,3,.92,5.25,2.77-7.55,5-13.71,7.2-19.59l3.86,1.13-3.71,5.14,8-3.71c1.5-3.73,2.76-6.85,3.68-9.12l-4.83-.62c1.47-3.86,2.5-6.58,3.57-9.37-5.41-2.16-9.88-3.94-14.63-5.85.6-1,1.71-2.75,3-4.77-7.47,3.5-14.5,6.74-21.49,10.09-1.64.78-3.91,1.55-4.53,2.93-2.65,5.93-8.93,6.33-13.74,10.5.32-1.9.46-2.73.63-3.71l-3.42,1.59-1-1.29c2.18-1.79,4.37-3.57,6.54-5.38,1.4-1.17,2.78-2.38,4.18-3.55a105.69,105.69,0,0,0,9-7.82c.76-.8.53-3.94-.33-4.58-2.32-1.76-13.5.16-15.87,2-3.48,2.75-7,5.39-10.61,8-4.2,3.11-8.94,5.68-12.55,9.35a155.66,155.66,0,0,0-14.07,17.06c-2.5,3.41-3.9,7.61-6.13,11.26-1.85,3-3.66,6.42-6.37,8.54-9.39,7.34-12.17,21.75-5.42,31.65q6.11,8.94,12.72,17.53c1.9,2.47,4.62,4.31,6.55,6.76,1.65,2.09,2.71,4.66,4,7-12.91-3.86-24-11.21-35.43-18.07-4-2.39-8.32-4.12-12.28-6,0-8.12-1.44-16.61.39-24.32,2-8.49,0-17.83,6.14-25.67,4.56-5.81,7.21-13.08,11-19.51a29,29,0,0,1,5.76-6.37c8.76-7.85,17.24-16.09,26.58-23.18,9.05-6.87,19-12.51,28.6-18.66,17.1-11,36.09-17.62,55.15-24.14,2.34-.8,4.55-1.94,6.82-2.93,1.07,5.09,2.19,10.18,3.16,15.29a4.39,4.39,0,0,1-.4,3.18c-4.31,5.05-2.57,10.69-1.63,16.16a5.5,5.5,0,0,0,2.85,3.55c.74.31,2.44-1.2,3.46-2.16,1.4-1.31,2.57-2.87,4.39-5,3.25,5.73,9.9,8.27,9.54,15.7-.06,1.24,1.77,3,3.12,3.82,2.38,1.51,5.33,2.18,7.58,3.82,6.43,4.71,12.47,10,19,14.56s13.67,8.82,20.34,13.47c1.2.84,1.9,3,2.07,4.57s-1.35,4.52-.73,5a10,10,0,0,0,5.85,1.59c3.53-.05,7-.68,11.09-1.12-.69,5.27-1.35,9.83,5.39,9a5.18,5.18,0,0,1,.25.92c-1.81,16.6,4.54,30.23,15.5,42.09,3.91,4.23,7.76,8.67,12.34,12.09,4.07,3,9.08,4.85,13.71,7.12,6.6,3.23,13,7,19.9,9.43,11.53,4,23.58,5.36,35.87,5.27,11.19-.08,22.39,1.31,33.57,1.13,8.56-.14,17.1-1.7,25.64-2.63l5.08.81-3.2,1.08.47,1.94,20.93-4.6c5.67-1,11.37-1.9,17-3.17,1.38-.31,2.47-1.88,3.7-2.87,2.82-1.18,7.06.69,8.3-3.88,3.87-1.41,7.7-2.95,11.63-4.21,8.36-2.66,17.13-4.35,25.07-7.92,18.94-8.5,38.65-15.95,53.28-31.77a6.21,6.21,0,0,1,1.58-.81l1.51,3.25a47.35,47.35,0,0,0,10.64-22.82c2.17-11.89-11.13-33.54-24.56-37.9l7.78,7-2,1.07c-21.59-17-45.58-28.57-72.87-33-8.33-1.35-16.59-3.08-24.91-4.54-1.2-.21-2.49.16-4.25.3-6-21.32-21.24-37.34-32.32-56.27,2.65-1.63,4.22-6.58,8.42-1.64l2.74-4c4.09,9.71,13.26,6.79,20.23,9.08,5,1.65,10.13,3,15.14,4.6,2.17.71,4.12,2.22,6.31,2.7,6.74,1.48,13.58,2.47,20.3,4,2.48.57,4.7,2.24,7.08,3.3,1.6.72,3.28,1.79,4.92,1.78a22.17,22.17,0,0,1,15,5.43c2.43,2,5.83,2.87,8.66,4.18,3.46-4.58,7.83-4.34,12.77.07,1.34,1.19,2.89,2.73,4.49,2.91,4.2.49,6.16,2.45,5.37,8.17l5.23-4.69c.21.12,1.15.35,1.23.76,1.17,5.55,5.43,7,10.05,9.06,2.82,1.23,4.39,5.32,6.54,8.11.59.78,1.29,2.18,1.87,2.15,6.8-.36,10.32,5.81,15.91,7.85a13,13,0,0,1,5.21,3.95c4.67,5.73,11.55,6.25,18.18,8.17-.9,2.85-2.39,3.47-5.08,2-1-.5-2.32-.21-3.5-.28a12.25,12.25,0,0,0,.75,3.43c1.52,2.79,3.27,5.45,5.16,8.54l4.31-5.18c-1.09,5-.7,8.34,5.24,8.65.6,0,1.13,1.29,1.69,2a12.71,12.71,0,0,1-2.35,1.2,14.42,14.42,0,0,1-3.1,0l5,6.86c.73-1.61,1.12-2.49,1.55-3.45,3.63,3.43,7.72,6.21,10.26,10,2.07,3.11,3.33,6.34,7.4,6.28l-1.27,7.71-4.05.65c2.47,3.63,4.84,6.89,6.94,10.32,1.37,2.23.24,5.66,3.65,7.12.56.23,0,3,0,4.61l-3.82,3Z"/><path class="cls-5" d="M493.55,566.51c-1.31-2.36-2.37-4.93-4-7-1.93-2.45-4.65-4.29-6.55-6.76q-6.6-8.58-12.72-17.53c-6.75-9.9-4-24.31,5.42-31.65,2.71-2.12,4.52-5.51,6.37-8.54,2.23-3.65,3.63-7.85,6.13-11.26a155.66,155.66,0,0,1,14.07-17.06c3.61-3.67,8.35-6.24,12.55-9.35,3.56-2.63,7.13-5.27,10.61-8,2.37-1.88,13.55-3.8,15.87-2,.86.64,1.09,3.78.33,4.58a105.69,105.69,0,0,1-9,7.82c-1.4,1.17-2.78,2.38-4.18,3.55-2.17,1.81-4.36,3.59-6.54,5.38l1,1.29,3.42-1.59c-.17,1-.31,1.81-.63,3.71,4.81-4.17,11.09-4.57,13.74-10.5.62-1.38,2.89-2.15,4.53-2.93,7-3.35,14-6.59,21.49-10.09-1.27,2-2.38,3.81-3,4.77,4.75,1.91,9.22,3.69,14.63,5.85-1.07,2.79-2.1,5.51-3.57,9.37l4.83.62c-.92,2.27-2.18,5.39-3.68,9.12l-8,3.71,3.71-5.14-3.86-1.13c-2.16,5.88-4.43,12-7.2,19.59-.4-2.28-.56-3.17-.92-5.25-.66,2.37-1.6,3.84-1.3,5,1.39,5.51,2.46,11.26,4.92,16.3,2.38,4.86,6.1,9.14,9.61,13.35,4.84,5.81,10.15,11.22,15,17,5.81,6.85,14.32,8.16,22,11,29.63,11,59.24,22,89,32.49,5.64,2,12.09,2,18.2,2.27,23.08.87,46.18,2.06,69.27,2,28.34-.12,56.54-2.81,84.63-6.93,12.72-1.86,25.07-5.09,37.56-7.77,12.65-2.71,25.13-6.42,37.48-10.34,9.16-2.92,18-6.92,27-10.34a43,43,0,0,1,5.87-1.25c-3.4,8.39-12.39,7.79-16.93,12.92l.86,1.49c6.42-3.5,12.82-7,19.26-10.47,1.75-.94,3.68-2.5,5.39-2.33,4.86.46,7.91-2.68,11.57-4.71,1.57-.87,3.41-1.23,5.05-2,6.26-2.92,12.57-5.76,18.7-8.95,2.27-1.19,3.4-4.19,7.1-2.77,1.22.46,3.56-2,5.72-2.57-14.62,10.78-29.37,21.35-47.36,28.73l4.1,3.45c-20.07,9.15-40.16,18.25-61.85,23.08-11.81,2.4-23.63,4.7-35.39,7.29-2.34.52-4.33,2.66-6.67,3.15-7,1.47-14.13,2.41-21.17,3.74-4,.77-8,2.36-11.92-.53a3.52,3.52,0,0,0-3.3-.09c-5.16,4.58-11.69,3.18-17.6,4-7.8,1.09-15.73,1.26-23.61,1.82l-.08-1,19.72-1.62c0-.42,0-.84,0-1.27-6.88,0-13.76-.13-20.64.07-2.78.08-5.95.15-8.24,1.47-9.56,5.5-19.57,2.6-29.45,2.35l16-1.14c0-.73-.09-1.46-.14-2.2-2.88,0-5.8-.33-8.62.07-7.94,1.13-15.82,2.68-23.76,3.77-1.65.22-3.48-.91-5.24-1.36-3.34-.85-6.65-2.13-10-2.34a54.88,54.88,0,0,0-12.67.7c-3.94.67-7.64-.54-11.94.69-9.33,2.67-19.31,3.08-29.06,4.2-1.67.2-3.47-.65-5.21-1-10-.9-20-1.82-30-2.69-2.33-.2-4.71-.08-7-.39-8.57-1.13-17.18-2.13-25.69-3.66C608.71,601,600,598.77,591.22,597c-2.28-.45-4.72-.07-7.08-.1a10.38,10.38,0,0,1-3-.18c-8.95-2.76-17.88-5.59-27.08-8.49l1.55-1.19c-12.11-4.21-24.9-7.34-36.38-13.09C510.88,569.78,501.76,570.11,493.55,566.51Zm9.61-36.59c-.64,9.64,26.32,22.43,39.38,24.92C529.19,546.92,514.09,541.81,503.16,529.92ZM526,511.47l1.41.46a13,13,0,0,0,1,3,17.22,17.22,0,0,0,2.39,2.53c.81-.8,2.31-1.61,2.3-2.4,0-3-.53-6.07-1-10.53Zm404.2,67c7.68,2.54,10.92,1.09,13.74-4.72Z"/><path class="cls-4" d="M1028.19,736.54l5.07-2c1.33,0,2.66,0,4-.15,12.19-1.09,23.29-5.73,34.32-10.6,20.76-9.15,40.62-19.92,58.67-33.71,11.44-8.74,23-17.44,32.07-28.86a21.28,21.28,0,0,0,1.49-2.49l1.3.68c0,7.38-.07,14.76,0,22.14.12,10.3.47,20.6.49,30.89,0,7.05-.35,14.09-.56,21.13,0,.83-.16,1.66-.16,2.49,0,13.58-.11,27.16,0,40.74.1,13.28.09,26.57.76,39.82.37,7.4-3.37,11.87-8.7,15.64-8,5.64-16,11.23-24.15,16.55-6.68,4.34-13.7,8.16-20.46,12.39-5.77,3.6-11.18,7.84-17.13,11.09-9.18,5-18.68,9.41-28,14.07-.13-6.12,0-12.26-.51-18.35a10.14,10.14,0,0,0-3.14-6.45c-6.74-5.41-13.88-10.32-20.84-15.46-2.39-1.76-4.69-3.85-2.3-7,2.07-2.71,4.23-5.93,8.55-2.91,2.7,1.88,4.69.81,5.8-2.14.06-.16.11-.32.17-.47,3.6-9.53,3.6-9.53,13.13-12.23-4.48-2.09-8.12-3.79-11.77-5.47-1-.48-2.46-.61-3.14-1.39-1.91-2.18-4.34-4.44-4.88-7-.24-1.14,3.38-3.56,5.61-4.64,3.42-1.65,7.19-2.57,10.75-3.95a55.47,55.47,0,0,0,5.33-2.77c-3.25-3.08-5.69-4.92-9.82-3.46-1.87.66-4.49-.52-6.7-1.13-2.69-.74-5.26-2-8-2.61-6.12-1.42-7.2-3.5-4.29-9,.6-1.14,1.37-2.19,2.09-3.31l-14.37-9.06a22.45,22.45,0,0,0,.78,3.94c1.74,4,3.83,7.78,5.28,11.84.53,1.5-.36,3.52-.61,5.3-1.69-.56-3.81-.68-5-1.79-1.9-1.8-3.21-4.22-4.7-6.42-3.93-5.78-7.82-11.58-11.75-17.36-1.55-2.29-2.37-4.68.29-6.57,2.5-1.8,5.08-3.94,8.45-1.09,4.47,3.77,5.47,3.49,8.57-1.52C1034.28,747.17,1033.76,742.66,1028.19,736.54Zm38.72,119.09c3.57-7.86,2.73-11.09-2.84-13.59-1.41-.64-3.28-.22-5-.29.16,1.8-.27,4,.59,5.33C1061.56,849.94,1064.08,852.36,1066.91,855.63Zm8-48.21-6.44-2.67-5.47,5.73C1071.19,814.14,1074.85,812.65,1074.87,807.42Zm-1,43.64-1.89-.11-1.59,17.82C1075.65,863.32,1073.44,857,1073.82,851.06Zm-26.63-105.83,2.2.81,1.8-5.24,2.21.28.11-1.4c-1.36-.08-3.48-.72-3.92-.13C1048.4,741.17,1047.94,743.3,1047.19,745.23Zm23.63,38.83-4.9-7.84c-.36,2.7-.61,4.6-.91,6.87Z"/><path class="cls-4" d="M1061.14,1393.93c-1.13-4.91-2.46-9.8-3.32-14.77-.41-2.33-.89-5.94.36-7,4.8-4.2,10.58-7.42,9.42-15.64l1.49.59V1375h1.81c0-6.21.34-12.45-.09-18.63-.55-7.94-1.85-15.83-2.55-23.76-.27-3.13-1.54-4.2-4.6-4.53-5.63-.6-10.11.88-13,6.38-3.72-8.63-1.83-12.72,6.26-14.7,4.68-1.15,9.37-2.27,14.09-3.26,2.81-.58,3.66-2,3.48-4.89-.34-5.38-.1-10.79-.5-16.12q-1.65,8.05-3.31,16.13l-1.94-.13c-.19-4-.57-8-.52-12,0-3.78-1.12-5.82-5.25-4.89-2.91.65-5.15-.14-5.51-3.3s-1.2-6.79,2.86-8.67c5.5-2.54,5.64-2.92,2.89-8.26-1-1.92-2.5-3.67-3.06-5.69-.46-1.71-.64-4.68.33-5.43,7.81-6,6.75-14.77,7.52-22.83.32-3.3-1.15-6.77-1.81-10.17,5.78-2.47,11.71-4.63,17.28-7.5a151.25,151.25,0,0,0,15.31-9.39c2.42-1.63,4.34-4,6.54-5.94,1.59-1.42,3.14-3.72,4.91-3.93,4.81-.56,7.58-3.38,10.07-7a11.82,11.82,0,0,1,1.85-1.66c9.15-8.44,18.34-16.84,27.42-25.36,5.2-4.88,10.22-10,15.47-15.11a9.07,9.07,0,0,1,.42,2.11c-.36,12.37-1,24.74-1,37.11,0,8.75,1.93,17.57,1.3,26.24-1.2,16.68-2.92,33.28-2.43,50.06.57,19.42.54,38.87,1,58.3.08,3.69-.93,6.09-4.07,8.29a726.2,726.2,0,0,1-95.3,56.37A23.27,23.27,0,0,1,1061.14,1393.93Zm93.67-81.9,2.54-.15q-.82-13.28-1.64-26.55l-.9.08Zm-76.56-6,3.07-.43q-1.15-6-2.3-12.08l-2,.27Q1077.65,1299.89,1078.25,1306Zm79.85-114.83-1.71.14.93,11.26,1.87-.15Q1158.65,1196.81,1158.1,1191.18Z"/><path class="cls-2" d="M670.47,279.74c6.49,1.22,12.55-.67,18.66-2.46,6.8-2,13.61-4,20.54-5.42,4.42-.91,9.06-.73,13.58-1.2a3.3,3.3,0,0,0,2.29-1.55c2.4-5.28,6.27-4.11,10.93-2.57l-3.79,3c2.52,1.06,4.38,2,6.33,2.64,4.19,1.4,8.63,2.23,12.59,4.09,9.92,4.67,15.9,13.42,21.88,22.13.68,1,2.35,1.22,3.3,2.09A28.86,28.86,0,0,1,782,306c1.56,2.45,2.07,5.56,3.67,8,5.38,8.06,11.35,15.75,16.52,23.94,6.88,10.91,13.61,21.95,19.69,33.32,7.07,13.23,15.82,25.21,24.74,37.19,4,5.39,6.13,12.17,9.19,18.28,1.22,2.43,2.81,4.68,4,7.13,3.72,7.77,5.29,15.61,1.2,23.91-1.72,3.48-2.1,7.65-4,11-2.79,5.08-6.37,9.72-9.58,14.58-.8,1.21-1.46,2.51-2.34,4-1.68,1.48-3.55,3.41-5.69,5-3.55,2.56-7.33,4.79-10.89,7.33s-8.94.66-11.33,5.82c-.57,1.24-3.85,1.3-5.91,1.78-6.49,1.51-13,2.87-19.49,4.47-4.66,1.15-9.22,2.26-13.46-1.1h11.48l-.05-.33-23.35-3.77c-3.25-.82-6.52-1.55-9.72-2.5a9.57,9.57,0,0,1-2.82-1.82c-2.52-1.92-4.94-4-7.53-5.82-3.82-2.7-7.74-5.27-11.65-7.84-3.13-2.06-6.4-3.9-9.41-6.1-1.25-.91-2-2.49-3-3.76a5.45,5.45,0,0,1,6.78,0c2.64,1.72,6,2.39,9,3.53l.63-1.14-16.91-12.43h6.08c-1.71-2-2.64-3.24-3.71-4.32-6.32-6.32-13.45-12-18.84-19-10.72-14-20.38-28.76-30.68-43.07-9.88-13.73-18.08-28.39-23.46-44.39-3.73-11.07-8.66-22.14-6.23-34.37.5-2.52,2-4.82,2.73-7.32,2.49-8.95,8.51-15.53,14.53-22.14,2.52-2.76,6.79-4,7.14-8.67A48.06,48.06,0,0,1,670.47,279.74Zm152.85,137c-.84-1.62-1.75-3.2-2.52-4.85-10.27-22-27.26-33.2-51.84-32.22-22.28.89-39.49,14.65-45,34.52-4.32,15.58.19,29.9,9.33,42.36,10.79,14.72,26.09,19.21,43.79,15.68,13.48-2.68,25.21-9.21,36-17.4,8.2-6.23,12.11-14.84,11.95-25.16,0-3.31-.52-6.61-.8-9.91,1.1,1.09,3.07,2.15,3.13,3.3a87.41,87.41,0,0,1-.62,10.54l6.16,8.51c.5-.58,1-.9,1.1-1.31,3.35-11.66,1.89-23.36-2.36-34.16a64.84,64.84,0,0,0-20.83-27.91c-5.07-3.86-11.56-6.09-17.67-8.3-7.17-2.59-9.06-.82-8.67,7.12a43.77,43.77,0,0,1,5.65,1.36c10.3,3.94,19.23,10.28,25.49,19.09C819.4,403.33,825,408.82,823.32,416.75Zm-53-94c.75,2.22,1.93,4.39,2.16,6.65.39,4.09,1.47,7.57,5.32,10.15.31-1,.55-1.56.68-2.18,4.13-18.83-10-41.26-28-48.17-6.85-2.63-7.93-1.8-10.21,4.65a43,43,0,0,0-4.81-1.24c-22.66-3.22-43,2.52-61.5,15.73-12.61,9-22.52,30.42-15.74,48.58,7.67,20.54,24.46,28.83,44.21,25,18-3.49,34.64-11.33,51.16-19.17l2.85-3.13c2.2-1.7,4.88-3.05,6.48-5.19,1.75-2.36,3.67-5.55,3.46-8.22-.4-5-.91-9.51,3.7-13.06.87-.67,1-2.66,1-4A57.85,57.85,0,0,0,770.36,322.79Z"/><path class="cls-4" d="M1016.06,364.05c3.71,1.85,7.5,3.55,11.09,5.61,2.21,1.26,4.07,3.11,6.14,4.63,5,3.68,10.1,7.31,15.13,11,3.79,2.77,8,5.14,11.21,8.48,7.91,8.25,15.67,16.69,22.83,25.59,3.77,4.68,6.16,10.48,9.16,15.78q2.07,7.22,4.13,14.44c1,4.52,2.08,9,3.16,13.55,1.53,6.35,1.27,12.05-3.1,17.69a48.33,48.33,0,0,0-7.66,14.92c-2.48,8-8.2,13-13.54,18.45-2-10.12-4-20-6-29.5-.93-1.89-1.63-3.64-2.61-5.21-.85-1.37-2-2.53-3-3.83-.66-.87-1.91-2-1.7-2.71,2.3-7.61-4.37-10.67-7.64-15.42-1.07-1.57-2.51-2.88-3.6-4.44-2.14-3-4.23-5.92-9-2,0-3.42.67-6.23-.18-8.46s-3-4.31-5-6c-2.49-2.1-5.55-3.51-8.07-5.58-6.57-5.42-12.91-11.12-19.48-16.54-4.11-3.39-8.47-6.47-12.75-9.65a12.81,12.81,0,0,0-2.59-1.49c-6.68-2.89-14.52-4.44-19.74-9-4.69-4.1-10.11-5.17-15-7.79-4.63-2.46-9.91-3.71-15.38-5.65.61-3.62-2.8-3.79-6.15-4.36-2.09-.35-4.06-1.41-6.14-2-7.43-2-14.89-3.92-22.31-6-4.43-1.21-8.83-2.5-13.2-3.9-2-.64-3.86-1.78-5.87-2.41-2.56-.8-5.66-.66-7.7-2.09-3.68-2.59-7.18-2.76-11.14-1.42-.76.25-2.23.52-2.32.31-2.09-4.68-7.63-1.62-10.43-4.68a3.72,3.72,0,0,0-2.28-.77c-9.55-.72-19.1-1.34-28.64-2.13A4.09,4.09,0,0,1,824,350c-8-12-15.84-24.11-24.7-37.66l62,7.59c3.51,4.23,8.55,3.19,13.11,3.8a48.58,48.58,0,0,0,6.65,1.89c3.41.47,6.88.5,10.31.76a21.42,21.42,0,0,1,4.63.58c5,1.58,10,3.47,15,5,13.45,4,27,7.91,40.42,11.86a23.31,23.31,0,0,0,2.38.74c15.2,2.7,28.78,9.63,42.53,16.16a59.46,59.46,0,0,0,5.92,2.13l10.49,5.37c-1.19-2-1.82-3-2.46-4.11Z"/><path class="cls-4" d="M1074.12,931.14c-.93-3.15-1.92-6.17.44-9.35.82-1.1.72-3.29.33-4.79-1.4-5.24-3.11-10.39-4.7-15.57q24.35-13.18,48.69-26.35a79.56,79.56,0,0,1,7.49-3.78c.84-.34,2.08.28,3.59.53,7.55-14.29,22.35-21.09,35.18-31.91.16,3,.35,4.88.35,6.77,0,22.78,0,45.55.1,68.33.07,14.93.51,29.85.51,44.78,0,12.62-1,25.26-.48,37.85,1.13,29.48-.47,58.94-.18,88.41.14,13.62-.25,27.25-.73,40.86-.08,2.12-1.61,4.51-3.11,6.2-4.71,5.31-9.67,10.41-14.65,15.47a53.24,53.24,0,0,1-7.41,6.61c-17.53,12.12-35.23,24-54.63,33-3.8,1.76-5.44,7-10.66,6.33.93-1.31,2.73-2.67,2.65-3.93-.56-9.49-1.2-19-2.48-28.43-.4-2.87-1.57-5.29,1-7.63,3.56-3.28,3.61-7.16,1.72-11.3,6.28-2.74,12.59-5.42,18.84-8.22,8.23-3.68,17.29-6,23.28-15.4.22,2.72.31,3.72.49,5.92,7.47-11.68,13.13-22.82,15.66-35.37,2-13.77,3.76-27.54,1.23-41.49q-.67,6.27-1.34,12.53a12,12,0,0,1-.26-2q.73-40.38,1.54-80.77c.08-3.77.4-7.55.64-11.31.49-7.6,1.84-15.25,1.27-22.76-.6-8-2.87-15.84-4.67-23.7s-10.91-12.3-18-8.64c-7.61,3.93-15.59,7.06-23.14,11.18C1086.77,926.43,1080.32,928.55,1074.12,931.14Zm49.62-45.58c-4.81,8.16-4.83,9.3-.2,13,.44-2,.21-4.64,1.35-5.57C1128.8,889.87,1126.21,888.12,1123.74,885.56Zm21.22,3.77c2.32,3.39,4.16,6.06,6.11,8.92l4.22-9.49-1.23-.59-3.72,5.65c.26-3.48.41-5.44.63-8.43ZM1160,944l1.37,1.16c1.1-1,3.16-2.12,3.08-3-.11-1.37-1.74-2.62-2.72-3.92l-1.44.71C1160.21,940.6,1160.11,942.3,1160,944Z"/><path class="cls-4" d="M486.62,361.91c6.31-2.58,12.74-4.9,18.87-7.84a40.87,40.87,0,0,0,9.73-6.71c2.06-1.89,3.33-3.21,6.61-2.34,2.17.57,5-1.3,7.51-2.07l7.4-2.24.6,1.55L502.56,356.7l.44,1.09,36.52-14,13.07-3.91a49.3,49.3,0,0,0,6-3.37c8.77-6.63,19.43-8.2,29.62-10.7,9.55-2.34,19.41-3.43,29.16-4.95,1.09-.17,2.3.44,3.46.68L619.56,323c-18.86,2.94-37.49,6.86-55.57,13.12a7.28,7.28,0,0,0,3.91-.07c15.85-3.57,31.7-7.17,47.57-10.66a35.86,35.86,0,0,1,5.89-.35c-.9,11.91,2.33,23.07,6.42,33.93-6.48,5.64-12.14,12.23-21.47,12.14a40.32,40.32,0,0,1-6.41-.95c-.48-.08-1-.65-1.35-.56-7.95,1.83-16.55,1.41-23.5,6.62-.93.7-1.24,2.22-2.13,3.93-7.25-4.49-10.63,3.77-16.38,5.08a11.67,11.67,0,0,1-2.77.75c-11-.47-19.4,4.59-26.33,12.68-.72.84-2.22,2.18-2.6,2-4.92-2.77-5.82,2-8.1,4.13-2.77,2.59-5.51,5.23-8.62,8.18v-3.4c-5.35-1.82-5.11,9.85-11.61,4.4-6.75,5.6-13.16,11.14-20.36,16-8.64,5.84-18.48,11.51-22.95,22.37-1.91,4.67-5.63,8.57-8,13.09-2,3.74-3.11,7.9-4.67,11.85a3.48,3.48,0,0,1-1.11,1.48c-9.93,7.21-11.79,18-12.92,29.08-.25,2.52-.82,5-1.55,9.31-5.7-7.87-11.14-14.39-15.41-21.61-3.64-6.16-7.21-12.87-8.53-19.78-2.3-12-2.66-24.22,3.63-35.57a56.21,56.21,0,0,0,2.65-6.71h-4.91c3.06-3.09,5.17-5.15,7.19-7.3,1.34-1.43,3-2.8,3.75-4.52,7.63-16.84,20.93-28.18,36.13-37.75,2.09-1.31,4.12-2.73,6.17-4.09l1.63-.73a47.58,47.58,0,0,0,21.59-9.61c1.16-.93,2.35-1.82,3.53-2.72C483.79,365.09,485.21,363.5,486.62,361.91Z"/><path class="cls-3" d="M622.39,673.59c-1.83,4.44-3.9,8.79-5.42,13.33-1.07,3.23-1.39,6.7-2.06,10.06a7.61,7.61,0,0,1-.73,2.83c-5.38,7.39-6.28,15.8-5.77,24.56.06,1,.32,2.21-.13,2.94-5.34,8.75-2.56,18.88-4.93,28.07-1.09,4.23-3.33,8.16-5.05,12.23-6-.33-12-.38-17.94-1.05-6.38-.71-13.39-.62-18.92-3.33-10.51-5.16-21.75-6.15-32.79-8.57-6-1.31-11.79-3.55-17.74-5.13-1.16-.3-2.61.53-3.93.8-.47.1-1.25.28-1.4.08-3.38-4.7-8.54-3-13-3.74a8.06,8.06,0,0,1-2.18-1.08c-.18-4.22-.94-8.53-.37-12.65.75-5.55,2.64-10.93,3.82-16.43.55-2.55,1.43-5.46.71-7.76-2-6.41-3.67-12.25-.38-19.09,1.63-3.39,2.62-5.21,6.39-5.15a37.29,37.29,0,0,0,6.06-.85c-.06-.65-.11-1.3-.17-2L497,680.62l-.09-1.19c2.58-.12,5.18-.4,7.75-.3,2.88.12,5.59.32,6.33-4.39-4.71.66-9.4,3.78-12.9-.35.68-3.52,2.93-8,1.61-9.69-5.31-6.88,3.8-11.4,2-17.39-.1-.33,1.54-1.06,2.24-1.75.9-.9,1.67-1.93,2.5-2.91,1.91,2.64,4.09,4.57,7.93,3.22l-2.3-2.65.53-1.11L541,650c-.11.52-.23,1-.35,1.57l-11.77-2.41a4,4,0,0,0,2.65,2.21c7.6,1.79,15.14,4.07,22.85,5.09,10.54,1.4,20.84,3.16,30.16,9.29l-18.61-2.41C584.46,668.55,602.84,674.43,622.39,673.59Zm-12.36,22,1.78.57,4.08-12.47-1.85-.59Q612,689.33,610,695.58Z"/><path class="cls-2" d="M399.54,702.64c-2.11-1.32-4.14-2.8-6.36-3.9-.94-.46-2.51.28-3.38-.23-1.88-1.11-4.35-2.35-5-4.12-1-2.7-2.5-3.92-4.81-5.44-6-4-11.61-8.7-17.34-13.16-3.67-2.85-7.95-5.23-10.79-8.76-8.53-10.61-16.86-21.49-17.68-36a6.52,6.52,0,0,0-1.34-2.89c.62-7.43,1.35-14,1.7-20.67.72-13.28,3-26.33,11-37.09,5.27-7,12.53-12.6,18.9-18.82,2.11,2.5,4.76,4.73,6.23,7.57,5.27,10.16,13.89,17.24,22,24.81.43.4,1.27.36,2.74.73l-4.18-5.54.93-1a96.91,96.91,0,0,0,41.39,32.52c0,.31-.05.61-.07.91q-4,11-8,22l0-.07c-1,1.27-2.65,2.38-3.08,3.83-2.13,7.14-4.3,14.3-5.79,21.58-1.91,9.37-3.2,18.86-4.72,28.3a4.6,4.6,0,0,0,.11,2.45c2.83,6.46.94,12.72-.67,19Z"/><path class="cls-6" d="M607.4,1232.27l4.18,1.08q.48,13.35,1,26.7l-10.12-1.81c-14.09-2.87-28.35-4.93-41.58-11.21-5.05-2.4-10.67-3.69-16.14-5-3.76-.92-5-2.79-5.08-6.58-.2-11.65-.76-23.3-1.2-35-.52-13.86-1.29-27.73-1.52-41.6-.27-15.67-1.38-31.5.27-47,2.13-19.92-1-39.54-.71-59.28.2-13.72,1.1-27.42,1.69-41.13,0-.83.07-1.66.07-2.49.09-12.09,0-24.19.32-36.28.3-10.38,1.51-20.74,1.58-31.12,0-4.92-1.64-9.86-2.77-16.06,2.16-3.12,7.38-4.83,12.56-3.13a42.51,42.51,0,0,0,5.31,1c2.65.51,5.31,1,7.93,1.6,2.85.71,5.61,2,8.49,2.4,9.58,1.18,19.19,2.05,28.79,3l5,2c0,4,.07,7.93.11,11.89l-1.13.19-55.57-6.88c-.64,1-1.29,2.06-1.94,3.08,1.42.55,3.45.68,4.12,1.71,1.75,2.68,4.06,5.74,4.09,8.67.15,13.38-.69,26.78-.66,40.16,0,18.23.67,36.45.86,54.67.18,17.6,0,35.19.21,52.78.17,16.58,1.18,33.08.39,49.77-1.08,22.87,1,45.9,1.9,68.85,0,1.31.68,3.2,1.65,3.77,4.22,2.5,7.95,7,13.87,4.22.59-.28,1.58.23,2.38.42l18.75,4.56,12.92,2Z"/><path class="cls-4" d="M681.6,500a5.18,5.18,0,0,0-.25-.92c-6.74.85-6.08-3.71-5.39-9-4,.44-7.56,1.07-11.09,1.12a10,10,0,0,1-5.85-1.59c-.62-.47.91-3.31.73-5s-.87-3.73-2.07-4.57c-6.67-4.65-13.72-8.76-20.34-13.47s-12.52-9.85-19-14.56c-2.25-1.64-5.2-2.31-7.58-3.82-1.35-.86-3.18-2.58-3.12-3.82.36-7.43-6.29-10-9.54-15.7-1.82,2.09-3,3.65-4.39,5-1,1-2.72,2.47-3.46,2.16a5.5,5.5,0,0,1-2.85-3.55c-.94-5.47-2.68-11.11,1.63-16.16a4.39,4.39,0,0,0,.4-3.18c-1-5.11-2.09-10.2-3.16-15.29.93-.57,1.92-1.7,2.79-1.62,6.74.61,12.51-1.61,18.13-5.12,2.31-1.45,5.39-1.67,8.1-2.51,5.49-1.7,11.09-3.16,16.43-5.26,3-1.19,5.05-1.09,6.82,1.63,11.06,17,22.08,34,33.22,50.93,8.6,13.09,17.36,26.09,26.33,39.56A41.09,41.09,0,0,0,681.6,500Z"/><path class="cls-7" d="M454.45,1402.3c3.05-2.29,3.55-4.71,3.07-8.88-.61-5.29,1.05-11.07,2.75-16.31,1.2-3.69,1.67-6.63-.82-9.73-6-7.51-4.24-16.06-3.31-24.54a16.27,16.27,0,0,0-.39-7.14c-1.08-2.92-1-4.93,2-6s3.8-3.33,3.76-6.27c-.07-6.32-.24-12.66.08-19,.18-3.55,1.27-7,2-10.58,0-.16.2-.31.18-.46-.63-5.84-1.29-11.67-1.91-17.51-.29-2.72-1.42-5.82-.5-8.06,1.15-2.83.55-4.27-.88-6.61a41.88,41.88,0,0,1-4.69-11.32c-.34-1.37,2-3.25,2.65-5.07s1.7-4.43.94-5.75c-2.48-4.33-2.8-7,2.13-6.77.67-5.1,1.27-9.61,1.85-14.12a3.44,3.44,0,0,0,0-2c-2.47-3.92-3-7.51,1.17-10.76.36-.29-.21-1.84-.43-2.78-1-4.26-1.3-8.3,4.66-10.89L461,1188c1.28-1,2.12-2,3.19-2.46,3.94-1.5,6.81-3.2,3.31-7.88-.36-.49.31-2.12.94-2.87s1.93-.7,2.6-1.36c1.54-1.5,2.87-3.21,4.28-4.83l-5-3c.09-.32.07-1.47.63-2,2.07-2,4.33-3.75,6.52-5.6.7,2.69,1.59,5.34,2.07,8.07,1.3,7.27,2.44,14.57,3.77,22.69a14.34,14.34,0,0,0-2.86,1.66c-4.07,3.26-3.63,5,.91,7.5,1.93,1.06,3.16,3.41,4.7,5.17-1.85,1.06-3.65,2.24-5.57,3.15a35.18,35.18,0,0,0-5.46,2.64c13-1.68,7.79,9.54,10.94,14.57.52.83-1.62,3.32-2.75,5.44,2.64,1.51,4.21,4,1.62,7.65a3,3,0,0,0-.2,2.76c3.19,3.85.83,6.73-1.37,9.78a5.39,5.39,0,0,0-1.11,3.15c.38,7.09.81,14.18,1.46,21.25.41,4.41,1.24,8.79,1.88,13.18a8.84,8.84,0,0,1,.32,1.93c-.38,5.53-.76,11.05-1.26,16.57-.54,6-1.32,12-1.74,18-.13,1.95.75,3.95.81,5.93.18,6.92.18,13.84.32,20.76,0,1.71-.08,3.59.59,5.07,2.49,5.59,4,11.22,2.29,17.32a7.72,7.72,0,0,0-.45,2.43c.33,5.46.78,10.92,1.06,16.38a7.22,7.22,0,0,1-.9,2.71c-.42,1.06-1.33,2.13-1.27,3.15.23,3.94,1.24,7.9,1,11.79-.12,1.87-2.4,3.61-3.7,5.41Z"/><path class="cls-3" d="M425.54,633.64q4-11,8-22c2.7,1.25,5.39,2.51,8.09,3.75l41.91,19.3c-.66,1.33-1.43,2.63-2,4-2.7,7.15-6.77,13.51-5.13,22.25,1.07,5.66-2.09,12.16-3.54,18.24-.51,2.14-1.8,4.1-2.34,6.25-1.67,6.61-3.08,13.29-4.71,19.91-.93,3.78-2.44,7.45-3.09,11.26-1,5.93-1.5,12-2.22,17.93l-4.93-2.19-10.24-5.82c-4.11-3.06-8.45-4.94-13.87-4.72-4.66.19-9.34-.47-13.17-4.12-2.61-2.49-5.92-4.25-8.92-6.34l13.71,5,.3-.68-12-6.83c1.61-6.29,3.5-12.55.67-19a4.6,4.6,0,0,1-.11-2.45c1.52-9.44,2.81-18.93,4.72-28.3,1.49-7.28,3.66-14.44,5.79-21.58.43-1.45,2-2.56,3.08-3.83-2.69,10.27-6,20.44-7.83,30.87-1,6,.47,12.52.83,18.8l1.27,0q7.63-30.65,15.26-61.22ZM417,693.1l-1.44-.06V707.2H417Zm5.3,6.84-2-.08c-.21,3.64-.41,7.28-.62,10.92l1.55.08Q421.8,705.4,422.33,699.94Z"/><path class="cls-8" d="M622.39,673.59c-19.55.84-37.93-5-56.49-10.24l18.61,2.41c-9.32-6.13-19.62-7.89-30.16-9.29-7.71-1-15.25-3.3-22.85-5.09a4,4,0,0,1-2.65-2.21l11.77,2.41c.12-.52.24-1.05.35-1.57l-28.33-7.9-.53,1.11,2.3,2.65c-3.84,1.35-6-.58-7.93-3.22-.64-.68-1.93-1.49-1.83-2,1.21-6.09,4.62-9.1,10.49-9.79.36-2.67.71-5.29,1-7.64l11.59,1-1.27-3.76a82.19,82.19,0,0,0,8.8-3.57c1.92-1,2.53-3.26-.25-3.9-4.54-1-4.53-4.41-5.67-9.17,3.82,2.09,6.83,3.15,9.06,5.11,2.56,2.24,9.12,2.57,12.06-.13,7.68,1.91,15.3,4.08,23,5.67,20.47,4.22,41,8.19,61.49,12.24,2.11.42,4.24.71,6.36,1-1.57,4-3.34,8-4.67,12.07-2.44,7.6-3.51,8.39-11.87,9.6-1.72.25-3.36,2.05-4.72,3.43a38.62,38.62,0,0,0-3.55,4.82,84.56,84.56,0,0,0-9.86-1c-12.17.07-24.18-.9-35.85-4.67a26.5,26.5,0,0,0-4.31-.65l-.36,2c7.75,2.08,15.42,4.6,23.28,6.14s16,2.15,24.07,3.17l4.1,1.43c5.34-5,10.28-10.33,16-14.65a14.37,14.37,0,0,0,6-9c1-4.13,3.25-8,5-11.92l4.75,1.32c-4.25,12.42-8.64,24.7-19,33.77-2.79,2.44-4.59,6-6.85,9Z"/><path class="cls-4" d="M433.61,610.68a96.91,96.91,0,0,1-41.39-32.52l-.93,1,4.18,5.54c-1.47-.37-2.31-.33-2.74-.73-8.12-7.57-16.74-14.65-22-24.81-1.47-2.84-4.12-5.07-6.23-7.57,11.35-12.1,20.64-25.54,26.95-41.63a19,19,0,0,1,2.17,2.31c11.47,18.16,26.95,32.33,44.49,44.37,9,6.2,18.35,12,27.54,17.92-1.39,1.17-3.06,2.13-4.13,3.54-3.65,4.83-6.75,10.12-10.7,14.68C445.39,599,439.37,604.73,433.61,610.68Z"/><path class="cls-7" d="M550.48,608.79c-2.94,2.7-9.5,2.37-12.06.13-2.23-2-5.24-3-9.06-5.11,1.14,4.76,1.13,8.13,5.67,9.17,2.78.64,2.17,2.85.25,3.9a82.19,82.19,0,0,1-8.8,3.57l1.27,3.76-11.59-1c-.31,2.35-.66,5-1,7.64-5.87.69-9.28,3.7-10.49,9.79-.1.54,1.19,1.35,1.83,2-.83,1-1.6,2-2.5,2.91-.7.69-2.34,1.42-2.24,1.75,1.76,6-7.35,10.51-2,17.39,1.32,1.7-.93,6.17-1.61,9.69,3.5,4.13,8.19,1,12.9.35-.74,4.71-3.45,4.51-6.33,4.39-2.57-.1-5.17.18-7.75.3l.09,1.19,9.43,1.08c.06.66.11,1.31.17,2a37.29,37.29,0,0,1-6.06.85c-3.77-.06-4.76,1.76-6.39,5.15-3.29,6.84-1.63,12.68.38,19.09.72,2.3-.16,5.21-.71,7.76-1.18,5.5-3.07,10.88-3.82,16.43-.57,4.12.19,8.43.37,12.65l-11.8-4.1-6.12-4.84-11.9-2.16c.72-6,1.22-12,2.22-17.93.65-3.81,2.16-7.48,3.09-11.26,1.63-6.62,3-13.3,4.71-19.91.54-2.15,1.83-4.11,2.34-6.25,1.45-6.08,4.61-12.58,3.54-18.24-1.64-8.74,2.43-15.1,5.13-22.25.53-1.38,1.3-2.68,2-4,2.18-2.23,4-5.14,6.61-6.51,3.39-1.77,4.7-4,4.33-7.52-.53-5,1.84-8.05,5.91-10.57,2.1-1.29,3.58-3.6,5.81-5.95l-6.13-2.39c2.93-1.11,5.71-.86,8.43-1.18,3-.36,6-1.24,8.94-1.89Z"/><path class="cls-3" d="M670.47,279.74a48.06,48.06,0,0,0-1.1,5.62c-.35,4.62-4.62,5.91-7.14,8.67-6,6.61-12,13.19-14.53,22.14-.7,2.5-2.23,4.8-2.73,7.32-2.43,12.23,2.5,23.3,6.23,34.37,5.38,16,13.58,30.66,23.46,44.39,10.3,14.31,20,29.1,30.68,43.07,5.39,7,12.52,12.71,18.84,19,1.07,1.08,2,2.31,3.71,4.32h-6.08l16.91,12.43-.63,1.14c-3-1.14-6.35-1.81-9-3.53a5.45,5.45,0,0,0-6.78,0c-7.52-5.78-14.87-11.73-20-19.93.09-1,.63-2.32.19-2.83-4.65-5.48-7.21-12.81-14.22-16.22l-2.08-3.69c-1.49-2.54-1-6.89-5.79-6.41-1.85-2.47-3.74-4.9-5.52-7.42-.53-.75-.59-1.85-1.15-2.57-3.39-4.35-6.87-8.63-10.32-12.94-1.33-3.14-2.34-6.48-4.1-9.35-1.53-2.48-3.93-4.41-5.94-6.59l-2-3.07v0c3.33-4.86.22-8.62-2.24-13.51-.38,2.5-.62,4-.85,5.6-1.22-2.29-2.46-4.58-3.65-6.89-2.07-4-2.29-9-6.39-11.93.29-1.82,1.12-3.76.77-5.45-1.17-5.52-2.68-11-4.28-16.39-.37-1.24-1.62-2.22-2.46-3.32.23-4.46.23-9,.78-13.37.37-3,1.52-5.81,2.31-8.71a18.72,18.72,0,0,0,2.45.49c1.28-3.8,2.42-7.64,3.58-11.48,7.3-9.71,16.7-16.93,27.15-22.9C669.07,279.6,669.83,279.78,670.47,279.74Z"/><path class="cls-8" d="M517.44,598.63c-3,.65-5.93,1.53-8.94,1.89-2.72.32-5.5.07-8.43,1.18l6.13,2.39c-2.23,2.35-3.71,4.66-5.81,5.95-4.07,2.52-6.44,5.59-5.91,10.57.37,3.48-.94,5.75-4.33,7.52-2.62,1.37-4.43,4.28-6.61,6.51l-41.91-19.3c-2.7-1.24-5.39-2.5-8.09-3.75,0-.3,0-.6.07-.91,5.76-5.95,11.78-11.68,17.2-17.92,3.95-4.56,7.05-9.85,10.7-14.68,1.07-1.41,2.74-2.37,4.13-3.54l9.73,5.29a39.65,39.65,0,0,0-5.8,3.69c-.86.75-.9,2.43-1.3,3.69,1.27-.2,2.76,0,3.76-.67,2.31-1.45,4.38-3.28,6.55-4.95l1.16.82-8.24,8.8,1.26,1.33,6.84-3.5c.14,1.22.23,2,.33,2.93l8.73-5.46Z"/><path class="cls-2" d="M680.22,609.33c1.74.37,3.54,1.22,5.21,1,9.75-1.12,19.73-1.53,29.06-4.2,4.3-1.23,8,0,11.94-.69a54.88,54.88,0,0,1,12.67-.7c3.39.21,6.7,1.49,10,2.34,1.76.45,3.59,1.58,5.24,1.36,7.94-1.09,15.82-2.64,23.76-3.77,2.82-.4,5.74-.07,8.62-.07,0,.74.1,1.47.14,2.2l-16,1.14c9.88.25,19.89,3.15,29.45-2.35,2.29-1.32,5.46-1.39,8.24-1.47,6.88-.2,13.76-.07,20.64-.07,0,.43,0,.85,0,1.27L809.53,607l.08,1c7.88-.56,15.81-.73,23.61-1.82,5.91-.82,12.44.58,17.6-4a3.52,3.52,0,0,1,3.3.09c3.94,2.89,7.88,1.3,11.92.53,7-1.33,14.16-2.27,21.17-3.74,2.34-.49,4.33-2.63,6.67-3.15,11.76-2.59,23.58-4.89,35.39-7.29-.92.34-1.85.66-2.76,1l-29.23,11.87c-5.12.78-10.26,1.49-15.37,2.36s-10.41,2-15.63,2.91c-5.77,1-11.57,2-17.34,3.05-5.05.91-10.06,2.44-15.14,2.76-16.49,1-33,2.12-49.52,2.34-20.54.28-41.1,0-61.63-.59-14.54-.44-29-1.88-43.56-2.91a6.29,6.29,0,0,1-3.65-1.41Z"/><path class="cls-9" d="M333.56,783.62c.07-1.31.15-2.62.22-3.92h1.43q0,13.17,0,26.34c0,4.64.07,9.27,0,13.91-.11,5.46-.57,10.93-.51,16.39.19,17,.76,33.92.8,50.89.07,28.77-.2,57.55-.23,86.33,0,9.81.18,19.63.38,29.45.28,13.75.94,27.51.88,41.26,0,9.07-1.05,18.13-1.57,27.19-.08,1.31.17,2.64.2,4,.08,5.42.09,10.84.23,16.25.1,3.77.42,7.52.53,11.29.27,10.08.64,20.16.68,30.24q.15,36.87,0,73.74c-.06,10.77-.71,21.53-.85,32.29-.22,16.73-.24,33.46-.32,50.19,0,9.53,0,19,0,28.57l-1.48.06c-.11-1.3-.21-2.61-.32-3.92V1174.21l-3.59,3.15c.28-3.82.48-6.65.76-10.62l1.8,4.75.95-.08a81.41,81.41,0,0,0,.73-8.64c-.31-17.23-.93-34.45-1.08-51.68-.08-8,.66-16,1-24,0-.49.09-1,.08-1.49q-.27-13.83-.57-27.67c-.29-12.93-.83-25.86-.87-38.79,0-12.63.41-25.26.63-37.89.06-2.94.09-5.88.13-8.83a30.88,30.88,0,0,0,1-5.31q.1-25.19,0-50.37a29.24,29.24,0,0,0-1-5.3c0-2.37,0-4.74-.13-7.1-.45-11.33-1.31-22.65-1.3-34,0-13.69.85-27.37,1.13-41.06.1-4.61-.7-9.23-.63-13.84C332.79,804.82,333.23,794.22,333.56,783.62Z"/><path class="cls-10" d="M897.28,601.52l29.23-11.87c.91-.37,1.84-.69,2.76-1,21.69-4.83,41.78-13.93,61.85-23.08,7.67-2.78,15.31-5.65,23-8.3a56.37,56.37,0,0,1,7.27-1.47c-11,5.36-21.87,11.08-33.09,16C979.88,575.4,971,578,962.43,582l5.31-1C964,586.54,923.66,598.14,897.28,601.52Z"/><path class="cls-2" d="M1077.11,1143.23c1.89,4.14,1.84,8-1.72,11.3-2.54,2.34-1.37,4.76-1,7.63,1.28,9.42,1.92,18.94,2.48,28.43.08,1.26-1.72,2.62-2.65,3.93l-3,2.78a47.79,47.79,0,0,1-1-6.77c-.1-15.06-.06-30.13-.06-45.19Z"/><path class="cls-11" d="M822,784.31l4.94.34c-72.4,8.9-144.76,7.49-217.14-.93l9.1-.41c4,.68,7.95,1.6,12,2,5.88.54,11.81.6,17.71,1,7.51.57,15,1.46,22.51,1.92,5.79.35,11.6.24,17.41.33a39.83,39.83,0,0,0,5.8.87c11.24.06,22.47,0,33.71,0,16.38-.33,32.77-.37,49.13-1.09,11.25-.5,22.47-1.93,33.7-3C814.5,785,818.22,784.67,822,784.31Z"/><path class="cls-4" d="M1049.18,1239.18c5.43,6.57,2.69,14.22,2.56,21.43,0,2.43-6.87,3.73-10.62,2.3-3.25-1.24-2.79-3.74-1.9-6.19,1.62-4.46,3.39-8.88,5-13.1l-9-1.52Z"/><path class="cls-4" d="M1040.21,1404.12c-1.28-5-2.87-9.94-3.67-15-.31-1.93,1.18-4.15,1.85-6.23,1.94.91,4.43,1.35,5.7,2.83,3.33,3.9,6.13,8.25,9.15,12.42Z"/><path class="cls-12" d="M911.22,1056.37l-3.39,17.43-1.07.09c-.15-1.44-.4-2.87-.43-4.31-.29-13.91-.49-27.82-.84-41.73-.09-3.62-.09-7.39-1.08-10.82-1.48-5.17.69-9.82,1-14.7,1,8.86,2,17.73,2.86,26.6.7,7.06,1.23,14.14,1.84,21.21l-2.37,9.2.94.3Z"/><path class="cls-10" d="M616.55,657.67a38.62,38.62,0,0,1,3.55-4.82c1.36-1.38,3-3.18,4.72-3.43,8.36-1.21,9.43-2,11.87-9.6,1.33-4.1,3.1-8.05,4.67-12.07l3.22.71c-1.71,4-4,7.79-5,11.92a14.37,14.37,0,0,1-6,9c-5.71,4.32-10.65,9.67-16,14.65l-4.1-1.43Z"/><path class="cls-4" d="M1070.22,1145.34c0,15.06,0,30.13.06,45.19a47.79,47.79,0,0,0,1,6.77l-4.08,1.89c0-15.42.08-30.84,0-46.26a30.61,30.61,0,0,0-1.11-5.74Z"/><path class="cls-13" d="M911.22,1056.37l-2.53,3.27-.94-.3,2.37-9.2q2.77-14.88,5.54-29.76a57.08,57.08,0,0,1,1.06-5.72c.11-.36,1.6-.31,2.46-.45-2.11,12-4.19,24-6.35,36C912.46,1052.27,911.77,1054.3,911.22,1056.37Z"/><path class="cls-14" d="M871.29,936.28c0-.3,0-.61,0-.91,7.15-1.37,14.25-3,21.44-4,6.53-.94,13.15-1.23,19.73-1.81l4.63-.23,2.12,1Z"/><path class="cls-15" d="M621.36,325a35.86,35.86,0,0,0-5.89.35c-15.87,3.49-31.72,7.09-47.57,10.66a7.28,7.28,0,0,1-3.91.07c18.08-6.26,36.71-10.18,55.57-13.12Z"/><path class="cls-16" d="M326.12,1326.54c-6.1-1.46-5.49-6-5.37-10,.19-5.8.81-11.58,1.25-17.37l1.45-.07C324.34,1308.15,325.22,1317.26,326.12,1326.54Z"/><path class="cls-15" d="M912.47,929.52c-6.58.58-13.2.87-19.73,1.81-7.19,1-14.29,2.67-21.44,4l-6.1-.15-8.23-1c.28-.17.55-.46.85-.5q22.26-2.59,44.53-5.16Z"/><path class="cls-17" d="M688.31,439.75c7,3.41,9.57,10.74,14.22,16.22.44.51-.1,1.86-.19,2.83-4.1-2.71-8.38-5.2-9.51-10.65-.17-.81-2.17-1.13-2.56-2A50.32,50.32,0,0,1,688.31,439.75Z"/><path class="cls-18" d="M488.66,586.51,479.93,592c-.1-.89-.19-1.71-.33-2.93l-6.84,3.5-1.26-1.33,8.24-8.8Z"/><path class="cls-19" d="M1065.35,525.63l3.82-3c-.23,1.17,0,2.84-.75,3.44-8,6.72-16.1,13.28-24.18,19.88,1.2-1.68,2.15-3.62,3.64-5C1053.61,535.78,1059.51,530.74,1065.35,525.63Z"/><path class="cls-20" d="M632.3,335.85c.84,1.1,2.09,2.08,2.46,3.32,1.6,5.41,3.11,10.87,4.28,16.39.35,1.69-.48,3.63-.77,5.45-1.95-4.53-5.18-8.51-4.92-14C633.52,343.34,632.68,339.59,632.3,335.85Z"/><path class="cls-21" d="M411.44,708.74l12,6.83-.3.68-13.71-5c-1.06-.46-2.15-1.4-3.15-1.31-5.59.49-6.74-2.85-6.73-7.35Z"/><path class="cls-18" d="M1095.75,449.58q-2.07-7.23-4.13-14.44V432.8c6.25,7.57,7.12,16.72,8,25.91Z"/><path class="cls-22" d="M651.39,387.71l2,3.07c-.24.84-.95,2-.64,2.48,3.12,4.56,6.41,9,9.66,13.48q1.94,4.47,3.89,8.95l-.74.56c-1.09-1.58-2.22-3.12-3.25-4.73-3.85-6-7.55-12.06-11.54-17.94C649.18,391.21,649.07,389.45,651.39,387.71Z"/><path class="cls-2" d="M333.56,911.4a29.24,29.24,0,0,1,1,5.3q.1,25.18,0,50.37a30.88,30.88,0,0,1-1,5.31Z"/><path class="cls-23" d="M1065.35,525.63c-5.84,5.11-11.74,10.15-17.47,15.38-1.49,1.36-2.44,3.3-3.64,5l-5.15,3.77c.93-2.43,1.47-3.82,2-5.21Z"/><path class="cls-23" d="M1016.06,364.05h-5.79c.64,1.08,1.27,2.12,2.46,4.11l-10.49-5.37C1005.92,357.49,1011.48,358.84,1016.06,364.05Z"/><path class="cls-24" d="M843.21,575.29l-5.08-.81c8.18-1.28,16.37-2.52,24.54-3.84,3-.48,6-1.12,9-1.7.11.5.23,1,.35,1.49l-11.62,2.41Z"/><path class="cls-25" d="M1115.26,514.54l-10.1-5.87,3.24-6.7C1111,506.65,1113.11,510.6,1115.26,514.54Z"/><path class="cls-26" d="M445.38,726.48l10.24,5.82c-1.09-.3-2.49-1.21-3.21-.82-5.44,2.92-7.71-2.35-11.39-4.64Z"/><path class="cls-27" d="M766.43,506.57l23.35,3.77.05.33H778.35c-2.94-.23-6-.15-8.78-.82C768.33,509.55,767.46,507.71,766.43,506.57Z"/><path class="cls-28" d="M843.21,575.29l17.2-2.45,1,.87-20.93,4.6-.47-1.94Z"/><path class="cls-29" d="M662.43,406.74c-3.25-4.48-6.54-8.92-9.66-13.48-.31-.46.4-1.64.64-2.48,2,2.18,4.41,4.11,5.94,6.59,1.76,2.87,2.77,6.21,4.1,9.35Z"/><path class="cls-18" d="M478.58,581.59c-2.17,1.67-4.24,3.5-6.55,4.95-1,.63-2.49.47-3.76.67.4-1.26.44-2.94,1.3-3.69a39.65,39.65,0,0,1,5.8-3.69Z"/><path class="cls-30" d="M975.31,469.66l2-1.07a40.87,40.87,0,0,1,12.48,18.08Z"/><path class="cls-2" d="M728,789.42c-11.24,0-22.47.09-33.71,0a39.83,39.83,0,0,1-5.8-.87c11.9,0,23.81-.06,35.71,0A17.91,17.91,0,0,1,728,789.42Z"/><path class="cls-31" d="M330.68,1233.4v17.11l-1.11.08-.84-17Z"/><path class="cls-32" d="M530,582.15,541.51,585c-4.3,2.88-4.3,2.88-11.81-1.58C529.81,583,529.91,582.59,530,582.15Z"/><path class="cls-33" d="M1000.84,358.25,984.53,351c7.05-1.49,11.07,4.23,16.73,6Z"/><path class="cls-34" d="M552.59,339.91l-13.07,3.91C543.08,339,547.66,337.65,552.59,339.91Z"/><path class="cls-35" d="M890.4,563.79c-1.24,4.57-5.48,2.7-8.3,3.88h-5.16c-.07-.37-.14-.73-.2-1.1Z"/><path class="cls-36" d="M472.45,736.65l6.12,4.84h-9.51Z"/><path class="cls-37" d="M680.44,429.65c4.83-.48,4.3,3.87,5.79,6.41C682.44,436.77,679.74,433.78,680.44,429.65Z"/><path class="cls-38" d="M648.31,379.83c.23-1.55.47-3.1.85-5.6,2.46,4.89,5.57,8.65,2.24,13.51Z"/><path class="cls-39" d="M919.22,930.31l-2.12-1L933.16,926l.36,1.91Z"/><path class="cls-40" d="M457.26,379l-1.63.73c-2.52-.4-2.32-1.52-.56-2.68A88.27,88.27,0,0,1,467.4,370Z"/><path class="cls-25" d="M641.42,302.78c-1.16,3.84-2.3,7.68-3.58,11.48a18.72,18.72,0,0,1-2.45-.49Z"/><path class="cls-41" d="M874.37,323.69c-4.56-.61-9.6.43-13.11-3.8Z"/><path class="cls-18" d="M981,412.09l3.33-2.28,4.47,4-.3,1-7.47-1.09Z"/><path class="cls-42" d="M486.62,361.91l-4.24,4.78-7.78,2.38-.49-1.11Z"/><path class="cls-43" d="M857,934.18l8.23,1-30.11,2.27c-.07-.43-.15-.87-.22-1.3,3.58-.55,7.14-1.27,10.73-1.59C849.37,934.26,853.18,934.3,857,934.18Z"/><path class="cls-44" d="M822.91,938.05H800.57c0-.22-.05-.44-.07-.66h22.43Z"/><path class="cls-22" d="M599.5,1325.47q-.56-10.87-1.13-21.75l2.45-.13c1.3,7.2.3,14.55.66,21.81Z"/><ellipse class="cls-17" cx="420.52" cy="859.36" rx="0.7" ry="18.81"/><path class="cls-45" d="M594.78,1293.63l1.74-14.66C599.91,1282.54,598.89,1289.44,594.78,1293.63Z"/><path class="cls-46" d="M433.08,1294.75v15.85l-1.26,0v-15.78Z"/><path class="cls-22" d="M421.52,1328.7v-13.24l1.21,0v13.25Z"/><path class="cls-47" d="M422.1,1357.9v9.63l-.93.06V1358Z"/><path d="M645.42,978.34c11.1.06,22.19.17,33.28.16,13.55,0,27.1,0,40.65-.21,14.9-.23,29.8-.68,44.7-1.07,1.77-.05,3.54-.28,6.55-.53l-3.12,2.08c.12.1.29.39.51.42,7.5,1.25,15.29,1.6,22.44,3.93,9.64,3.13,16.5,10.06,18.33,20.44,2,11,3.47,22.12,4.57,33.24.59,5.94-.24,12-.14,18,.06,3.79,1,7.57.94,11.35,0,5.11-.71,10.21-.82,15.32-.21,9.27,0,18.54-.33,27.81-.25,8.08-.6,16.17-1.48,24.2-.44,4,1.94,4.55,4.56,5.76,1.59.72,3.72,2.24,3.88,3.61.26,2.11-.48,4.64-3.91,4.62-.61,0-1.78,2.49-1.77,3.82a10.45,10.45,0,0,1-3.79,8.83c-5.08,4.72-8.91,10.8-13.2,16.35a2.11,2.11,0,0,0-.38,1.79c1.56,3,3.25,5.92,4.9,8.87l1.46-.36c.35-3.92.69-7.85,1.06-12.07,7,4.49,7.31,9.6,1.76,19.41-8.06-5.65-7.58,6.25-13.59,6.5,1.15-6.4,8.13-13.75-3.06-17.75l-13.8,3.51c1.65,5.12-.4,9.14-6,12.22-1.55.86-2.75,2.35-4.11,3.55,1.86.71,3.69,1.54,5.6,2.09,1.09.31,2.42-.08,3.44.34s2.12,1.35,2.18,2.14a3.11,3.11,0,0,1-1.81,2.43c-4.51,1.13-9.08,2.08-13.68,2.83-.79.13-2.56-1-2.56-1.53,0-2-.21-5.26.92-5.93,3.2-1.9,2.16-3.94,1.44-6.34-.8-2.65-1.44-5.34-2.31-8.64l-87.2-3.29-.1,1.7,7.36,1.19c-9.63,4.5-28.42.3-35.13-6.27a43.33,43.33,0,0,1,1.36,6.06,22.54,22.54,0,0,1-.57,4.5,31.17,31.17,0,0,1-3.66-2c-1.43-1-2.71-2.28-4.38-3.72,4.47-4,2.62-7.2-.89-11.38-6.8-8.12-9.41-18-9.34-28.59.06-7.29-.37-14.58-.42-21.87-.09-12.73,0-25.47-.08-38.2,0-4-.12-8-.11-12,0-3.41.64-6.81-3.18-9.13-1.05-.64-1.28-3.31-1.2-5,.24-4.43.85-8.84,1.32-13.25l1-18.85-1.44-.11-1.58,2.87c-.28-7.7-1.1-15.42-.65-23.08.29-4.94,2.45-9.77,3.77-14.66,4.83-4.57,7.77-11.55,15.64-12.23ZM711.16,1093l2.16,1.16-6.46,3.51c-2.4-1.54-3.88-3.32-5.29-3.27-11.07.4-22.13,1.16-33.19,1.81l0,1,5.3,2-.15.8-8.07-.72-9.18-9.09c-.43-1.54-.74-3.13-1.31-4.61-1.45-3.71-4.32-7.39-4.26-11,.1-6.27-3.43-6.77-7.87-7.38-3.8-.52-6,0-5.74,4.74.63,12.45.91,24.92,1.29,37.38.08,2.43,0,4.87,0,8.63,8.09,0,15.5-.13,22.9,0,21.73.44,43.46,1,65.19,1.47,11.28.23,22.57.09,33.84.46,11.44.36,22.9.76,34.27,1.87,7.9.78,8.46.74,8.45-7.25,0-9.79.22-19.59.16-29.38,0-5.22-.45-10.43-.73-16.35l-26.48,2c.53,1.87.92,3.26,1.4,5l-5.24,2.43c.27-8-4.63-7.45-9.74-7-4.64.41-9.31.45-14,.48-9.79.07-19.58,0-29.26,0-.7,4.1-1.17,6.87-1.65,9.64l-7.74,12Zm-89.84-69.53,1-.21v-14.13l-1,.06Z"/><path d="M1070.22,1145.34l-4.15,1.85a58.28,58.28,0,0,0-5.91,1,56.52,56.52,0,0,0-7.85,2.63,42.21,42.21,0,0,0-5.24,3.26l-12.09,3.41.22,1.48,4.08.28c-1.43,1.28-2.7,3.39-4.32,3.72-7.92,1.63-15.91,3-23.94,4-3.53.42-10.27-5-10.82-7.8,9,4.53,18.25,6.82,28.16,3.36,1.19-.41,2.15-1.5,3.21-2.28l-.87-1.11c-9.81,3.93-19.35,4.09-28.47-1.86-13.36-12.28-20.89-27.15-20.4-45.64.19-7.23.51-14.48.27-21.71-.34-10-1.55-20-1.63-30-.08-9.67.85-19.34,1.25-29,.16-3.64.16-7.3.12-11,0-4.32,0-8.66-.38-13-.55-7.09-1.41-14.15-2-21.23a11.88,11.88,0,0,1,.65-3.24c1-6.54,2.88-12.59,8.28-17,1-.86,1.37-2.58,2-3.91,4.35-1.76,9-3,13-5.4,7.26-4.46,15.19-6.16,23.35-7.81,5.55-1.12,10.78-3.8,16.16-5.78l31.24-11.46c6.2-2.59,12.65-4.71,18.51-7.91,7.55-4.12,15.53-7.25,23.14-11.18,7.11-3.66,16.22.8,18,8.64s4.07,15.73,4.67,23.7c.57,7.51-.78,15.16-1.27,22.76-.24,3.76-.56,7.54-.64,11.31q-.83,40.38-1.54,80.77a12,12,0,0,0,.26,2c.36,16.28-3,31.84-8.67,47.08l8.78-18.12c-2.53,12.55-8.19,23.69-15.66,35.37-.18-2.2-.27-3.2-.49-5.92-6,9.42-15,11.72-23.28,15.4-6.25,2.8-12.56,5.48-18.84,8.22Zm0-56.94-7.32-6.53c.8,4.93.8,4.93,7.43,8.18l2.36,1.08-2.46,1.38-2.08-.16c-1.21-1.09-2.84-2-3.53-3.31-1.74-3.43-4.26-7-4.32-10.63-.21-11.8.64-23.62.73-35.43,0-.93-3-3-4.08-2.66-12.15,3.31-24.14,7.19-36.29,10.46a212.43,212.43,0,0,1-21.25,4.25c-2.82.45-4.22,1.38-4.23,4.29,0,15.07-.13,30.14-.05,45.22a58.83,58.83,0,0,0,4.19,22.65c3.79,9.28,13.2,16.92,23.32,15.19a87,87,0,0,0,11.66-2.62c10.66-3.41,21.24-7.08,31.85-10.64l5.08-1.77,5-3.75c8.79-3,17.87-5.47,26.27-9.37a36.63,36.63,0,0,0,13.73-10.86c7.13-9.69,10.13-21.25,10.69-33.21.83-17.88,1.22-35.77,1.75-53.66.12-3.81,0-7.64,0-12.84-5.17,3.39-9.07,5.83-12.81,8.49a4.32,4.32,0,0,0-1.38,3c-.21,5-.15,9.91-.31,14.86-.29,8.77.3,17.72-1.32,26.24-1.21,6.4-4.73,12.61-8.31,18.21-2.45,3.83-6.78,6.47-9.66,9.08l-16.8,3.85Z"/><path class="cls-3" d="M594.48,1230.25l-18.75-4.56c-.8-.19-1.79-.7-2.38-.42-5.92,2.79-9.65-1.72-13.87-4.22-1-.57-1.6-2.46-1.65-3.77-.86-23-3-46-1.9-68.85.79-16.69-.22-33.19-.39-49.77-.17-17.59,0-35.18-.21-52.78-.19-18.22-.81-36.44-.86-54.67,0-13.38.81-26.78.66-40.16,0-2.93-2.34-6-4.09-8.67-.67-1-2.7-1.16-4.12-1.71.65-1,1.3-2,1.94-3.08l55.57,6.88c1.31,6,2.17,11.77-1,17.82-1.24,2.37.42,6.29.84,9.49.84,6.34,1.68,12.67,2.62,19,.46,3.07.64,6.34,1.88,9.1,1.91,4.28,1,7.22-3.37,10.31V997l-1.69,0v23.69l-1.55.18c-.43-1.71-.87-3.41-1.3-5.12l-1.59.11q1.11,21.56,2.2,43.11c2.21-8.26-1.2-17.19,3.64-25.17,4,47.56,2.9,95.22,3.95,142.81l-1.25.19c-.44-3.14-1.22-6.27-1.27-9.41-.47-29.78-.79-59.56-1.21-89.35a23.27,23.27,0,0,0-1.65-8.79c-.19.92-.45,1.84-.56,2.77-.94,8.37-2.12,16.73-2.69,25.12-.45,6.59,0,13.24-.26,19.84-.13,2.81,3,6.83-2.41,8.32-.26.08,0,2.16,0,3.31,0,4.13-.15,8.26.06,12.38.52,10.28.53,20.64,2.12,30.76.75,4.75,4.76,9,7.07,13.52a18.88,18.88,0,0,1,2.35,6.84c.81,11.76,1.27,23.55,2,35.32.17,3-.59,4.93-4,4.92h0c-.57-5.41-.86-10.87-1.87-16.2-.42-2.23-2.37-4.18-3.63-6.26-.78,2.38-2,4.71-2.24,7.14-.37,3.92-.1,7.89-.1,11.84l-1.8,0q-.36-7.41-.71-14.83l-.93.11Q595.3,1222.18,594.48,1230.25Zm-3.32-151.73,1.21,0v-17.17l-1.21,0Zm15.43,115.08-2.38.4q1,6.54,2.09,13.09l2-.31Q607.45,1200.18,606.59,1193.6ZM590.14,971.28l-1,.07v16.48h1Zm7.61,103.86-1.64.3q1.29,7.17,2.59,14.33l2.07-.39Q599.26,1082.27,597.75,1075.14Zm-.6-38.19-2.56.53,2,6.78,1.84-.43C598,1041.54,597.58,1039.24,597.15,1037Z"/><path class="cls-48" d="M837,1194.56l4.43,4.13c.46-1.46.85-2.43,1.05-3.43.33-1.63.11-3.52.89-4.85,1-1.75,2.77-3.06,4.22-4.55,1.17,1.21,3.08,2.28,3.35,3.67a10.36,10.36,0,0,1-.82,6.28c-1.1,2.13-4.74,4-4.53,5.57.61,4.81,1.68,10,4.22,14,3.38,5.34,3.57,6.42-2.79,8.65C843.74,1214.44,840.47,1204.82,837,1194.56Z"/><path class="cls-48" d="M830.83,1166c3,2,7.21,3.27,8.59,6,2.77,5.5-3.16,6.56-7.47,9.87-1.21-5.22-2.25-9.73-3.29-14.24Z"/><path class="cls-49" d="M812,1173.48q1.78-6.11,3.55-12.16c6.12,1.34,6.83,2.79,3.75,7.23a70.9,70.9,0,0,1-5.23,6Z"/><path class="cls-50" d="M1002.23,1157.25c9.12,6,18.66,5.79,28.47,1.86l.87,1.11c-1.06.78-2,1.87-3.21,2.28-9.91,3.46-19.18,1.17-28.16-3.36Z"/><path class="cls-51" d="M990.38,961.59c-.66,1.33-1,3-2,3.91-5.4,4.45-7.3,10.5-8.28,17l-2.28.72C976.19,975.29,983.32,965.24,990.38,961.59Z"/><path class="cls-52" d="M645.42,978.34l-6.13,4c-6-1.43-9.19,3-13,6.14-1.26,1-2.61,1.93-3.91,2.89C627.56,982.62,635.54,978.78,645.42,978.34Z"/><path class="cls-53" d="M857.32,1182.11c-4.31-2.42-4.51-8.35,0-15.24Z"/><path class="cls-27" d="M620.53,1032.27c.52-1,1.05-1.91,1.58-2.87l1.44.11-1,18.85Q621.54,1040.32,620.53,1032.27Z"/><path class="cls-54" d="M781.54,1196.14c-.49-2.74-1-4-.87-5.2a16.09,16.09,0,0,1,1.48-4.47c.08-.17,2,.12,2.1.41a14.28,14.28,0,0,1,.39,5.06C784.45,1193,783.23,1193.93,781.54,1196.14Z"/><path class="cls-55" d="M622.33,991.33c1.3-1,2.65-1.87,3.91-2.89,3.86-3.1,7.06-7.57,13-6.14-7.87.68-10.81,7.66-15.64,12.23Z"/><path class="cls-56" d="M1039.28,1159.24l-4.08-.28-.22-1.48,12.09-3.41C1046.66,1159.09,1042,1157.65,1039.28,1159.24Z"/><path class="cls-57" d="M813.32,1187.27c1,2.91,1.93,4.34,1.88,5.72,0,.87-1.52,1.67-2.35,2.51-.86-1-2.45-2-2.39-2.9C810.53,1191.25,811.78,1190,813.32,1187.27Z"/><path class="cls-2" d="M1023.15,723.83c-.24,1.24-.51,3.57-1.12,5.81-1.19,4.33-3,4.67-7.35,3.14-3.69-1.29-7.76-1.54-11.67-2.2-1.47-.24-3.1,0-4.43-.58a29.86,29.86,0,0,1-4.68-3c1.51-1.24,2.84-2.93,4.57-3.65,5.33-2.21,10.84-4,16.23-6.07C1018.37,715.82,1023.28,718.92,1023.15,723.83Z"/><path class="cls-2" d="M941.27,684.58c-.38-2.52-.77-5-1.37-9l5.71,4.93-4.37,4Z"/><path class="cls-58" d="M962.88,672.94c-2.11,4.53-3.75,4.72-9.49,1.37Z"/><path class="cls-59" d="M766.6,683.58l4.12-3.46,1.56.52-1.48,6.47Z"/><path class="cls-60" d="M503.16,529.92c10.93,11.89,26,17,39.38,24.92C529.48,552.35,502.52,539.56,503.16,529.92Z"/><path class="cls-60" d="M526,511.47l6.12-7c.48,4.46,1,7.49,1,10.53,0,.79-1.49,1.6-2.3,2.4a17.22,17.22,0,0,1-2.39-2.53,13,13,0,0,1-1-3Z"/><path class="cls-45" d="M930.18,578.5l13.74-4.72C941.1,579.59,937.86,581,930.18,578.5Z"/><path class="cls-2" d="M1066.91,855.63c-2.83-3.27-5.35-5.69-7.2-8.55-.86-1.34-.43-3.53-.59-5.33,1.67.07,3.54-.35,5,.29C1069.64,844.54,1070.48,847.77,1066.91,855.63Z"/><path class="cls-61" d="M1074.87,807.42c0,5.23-3.68,6.72-11.91,3.06l5.47-5.73Z"/><path class="cls-58" d="M1073.82,851.06c-.38,6,1.83,12.26-3.48,17.71l1.59-17.82Z"/><path class="cls-59" d="M1047.19,745.23c.75-1.93,1.21-4.06,2.4-5.68.44-.59,2.56.05,3.92.13l-.11,1.4-2.21-.28-1.8,5.24Z"/><path class="cls-59" d="M1070.82,784.06l-5.81-1c.3-2.27.55-4.17.91-6.87Z"/><path class="cls-61" d="M1154.81,1312v-26.62l.9-.08q.82,13.28,1.64,26.55Z"/><path class="cls-58" d="M1078.25,1306q-.62-6.12-1.22-12.24l2-.27q1.15,6,2.3,12.08Z"/><path class="cls-62" d="M1158.1,1191.18q.54,5.63,1.09,11.25l-1.87.15-.93-11.26Z"/><path d="M753.65,362.8c-16.52,7.84-33.11,15.68-51.16,19.17-19.75,3.82-36.54-4.47-44.21-25-6.78-18.16,3.13-39.57,15.74-48.58,18.48-13.21,38.84-18.95,61.5-15.73a43,43,0,0,1,4.81,1.24,79,79,0,0,1,7.71,2.69c11.44,5.3,18,14.79,22.32,26.21a57.85,57.85,0,0,1,.78,6.38c0,1.37-.13,3.36-1,4-4.61,3.55-4.1,8-3.7,13.06.21,2.67-1.71,5.86-3.46,8.22-1.6,2.14-4.28,3.49-6.48,5.19l5.74-7.23-1-.81c-1.84,1.57-3.44,3.72-5.57,4.59C751.89,357.77,751.82,359.84,753.65,362.8Zm-45.29-55c-6.1,1.58-12.23,3.05-18.27,4.82a10.45,10.45,0,0,0-4.52,2.84c-5.29,5.78-10.68,11.51-15.41,17.73-1.53,2-1.56,5.48-1.52,8.28,0,2.49,1.81,5,1.6,7.43-.49,5.69,2.52,9.26,6.29,12.62.61.55,1.47.88,1.94,1.52,4.94,6.71,14.24,9.59,22.62,7.24,5.3-1.48,10.73-2.47,16-3.89.88-.23,1.55-1.46,2.18-2.33.41-.59.41-1.82.87-2,3.89-1.41,7.81-2.78,11.81-3.85,1.33-.36,3.39.87,4.27.23a76.32,76.32,0,0,0,7.25-6.71c4.47,1.3,4.42,1.26,7.21-2.11,4.51-5.45,7.53-11.36,5.83-18.71-1.92-8.31-3.95-16.93-12.49-20.87-5.22-2.41-11.24-3.1-16.9-4.56-2.37-.28-4.77-.44-7.11-.86C715.63,303.82,711.23,302.9,708.36,307.77Z"/><path d="M824.23,419.77c.28,3.3.75,6.6.8,9.91.16,10.32-3.75,18.93-11.95,25.16-10.8,8.19-22.53,14.72-36,17.4-17.7,3.53-33-1-43.79-15.68-9.14-12.46-13.65-26.78-9.33-42.36,5.52-19.87,22.73-33.63,45-34.52,24.58-1,41.57,10.19,51.84,32.22.77,1.65,1.68,3.23,2.52,4.85C823.63,417.75,823.93,418.76,824.23,419.77Zm-89.89,4.72c1.5,18.86,8.1,29.89,24.73,34.56,7,2,14.65,3.2,21.44-.07,7.83-3.77,15.14-8.71,22.48-13.43a18.79,18.79,0,0,0,6.2-6.15c3.85-6.94,3.75-14.27,0-21.27-4.6-8.69-8.82-17.77-19.07-21.57-2.59-1-4.9-3.36-7.47-3.58a180,180,0,0,0-22.16-.41c-2.2.08-4.4,2-6.46,3.32-1.79,1.13-3.19,3.1-5.1,3.8-5.11,1.9-7.08,6.08-8.79,10.63-.39,1.06-.85,2.11-1.29,3.16C737.11,417.81,735.32,422.14,734.34,424.49Z"/><path class="cls-3" d="M824.23,419.77c-.3-1-.6-2-.91-3,1.64-7.93-3.92-13.42-7.71-18.74-6.26-8.81-15.19-15.15-25.49-19.09a43.77,43.77,0,0,0-5.65-1.36c-.39-7.94,1.5-9.71,8.67-7.12,6.11,2.21,12.6,4.44,17.67,8.3a64.84,64.84,0,0,1,20.83,27.91c4.25,10.8,5.71,22.5,2.36,34.16-.11.41-.6.73-1.1,1.31l-6.16-8.51a87.41,87.41,0,0,0,.62-10.54C827.3,421.92,825.33,420.86,824.23,419.77Z"/><path class="cls-63" d="M770.36,322.79c-4.28-11.42-10.88-20.91-22.32-26.21a79,79,0,0,0-7.71-2.69c2.28-6.45,3.36-7.28,10.21-4.65,18,6.91,32.11,29.34,28,48.17-.13.62-.37,1.21-.68,2.18-3.85-2.58-4.93-6.06-5.32-10.15C772.29,327.18,771.11,325,770.36,322.79Z"/><path class="cls-35" d="M753.65,362.8c-1.83-3-1.76-5,2-6.58,2.13-.87,3.73-3,5.57-4.59l1,.81-5.74,7.23Z"/><path class="cls-64" d="M1135.38,1090.16l-8.78,18.12c5.65-15.24,9-30.8,8.67-47.08q.66-6.26,1.34-12.53C1139.14,1062.62,1137.36,1076.39,1135.38,1090.16Z"/><path class="cls-65" d="M1123.74,885.56c2.47,2.56,5.06,4.31,1.15,7.46-1.14.93-.91,3.56-1.35,5.57C1118.91,894.86,1118.93,893.72,1123.74,885.56Z"/><path class="cls-66" d="M1145,889.33l6-3.94c-.22,3-.37,5-.63,8.43l3.72-5.65,1.23.59-4.22,9.49C1149.12,895.39,1147.28,892.72,1145,889.33Z"/><path class="cls-67" d="M1160,944c.1-1.7.2-3.4.29-5.1l1.44-.71c1,1.3,2.61,2.55,2.72,3.92.08.93-2,2-3.08,3Z"/><path class="cls-16" d="M610,695.58q2-6.24,4-12.49l1.85.59-4.08,12.47Z"/><path class="cls-68" d="M594.48,1230.25q.81-8.07,1.64-16.14l.93-.11q.36,7.41.71,14.83l1.8,0c0-4-.27-7.92.1-11.84.24-2.43,1.46-4.76,2.24-7.14,1.26,2.08,3.21,4,3.63,6.26,1,5.33,1.3,10.79,1.87,16.2Z"/><path class="cls-2" d="M425.54,633.64,435.12,622q-7.61,30.54-15.26,61.22l-1.27,0c-.36-6.28-1.86-12.76-.83-18.8,1.79-10.43,5.14-20.6,7.83-30.87Z"/><path class="cls-69" d="M417,693.1v14.11h-1.44V693Z"/><path class="cls-70" d="M422.33,699.94q-.52,5.46-1.07,10.92l-1.55-.08c.21-3.64.41-7.28.62-10.92Z"/><path class="cls-71" d="M616.55,657.67l-3,5c-8-1-16.15-1.61-24.07-3.17s-15.53-4.06-23.28-6.14l.36-2a26.5,26.5,0,0,1,4.31.65c11.67,3.77,23.68,4.74,35.85,4.67A84.56,84.56,0,0,1,616.55,657.67Z"/><path class="cls-2" d="M665.42,1099.31l8.07.72.15-.8-5.3-2,0-1c11.06-.65,22.12-1.41,33.19-1.81,1.41,0,2.89,1.73,5.29,3.27l6.46-3.51c5.55-3.82,8.62-9.9,7.56-15-.52,1-1,2-1.58,3l-1.78-1c.48-2.77,1-5.54,1.65-9.64,9.68,0,19.47,0,29.26,0,4.65,0,9.32-.07,14-.48,5.11-.45,10-1,9.74,7l5.24-2.43c-.48-1.73-.87-3.12-1.4-5l26.48-2c.28,5.92.7,11.13.73,16.35.06,9.79-.18,19.59-.16,29.38,0,8-.55,8-8.45,7.25-11.37-1.11-22.83-1.51-34.27-1.87-11.27-.37-22.56-.23-33.84-.46-21.73-.44-43.46-1-65.19-1.47-7.4-.15-14.81,0-22.9,0,0-3.76.06-6.2,0-8.63-.38-12.46-.66-24.93-1.29-37.38-.24-4.7,1.94-5.26,5.74-4.74,4.44.61,8,1.11,7.87,7.38-.06,3.65,2.81,7.33,4.26,11,.57,1.48.88,3.07,1.31,4.61l-2.91-2.63-1.14,1.29C656.05,1093,660,1097,665.42,1099.31Z"/><path class="cls-72" d="M665.42,1099.31c-5.47-2.29-9.37-6.34-13.23-10.43l1.14-1.29,2.91,2.63Z"/><path class="cls-73" d="M719.3,1082.24c.53-1,1.06-2,1.58-3,1.06,5.09-2,11.17-7.56,15l-2.16-1.16C716.05,1091.08,717.17,1086.27,719.3,1082.24Z"/><path class="cls-74" d="M621.32,1023.51v-14.28l1-.06v14.13Z"/><path class="cls-75" d="M719.3,1082.24c-2.13,4-3.25,8.84-8.14,10.8l-1.38.26,7.74-12Z"/><path class="cls-2" d="M1066.17,1129.12c-10.61,3.56-21.19,7.23-31.85,10.64a87,87,0,0,1-11.66,2.62c-10.12,1.73-19.53-5.91-23.32-15.19a58.83,58.83,0,0,1-4.19-22.65c-.08-15.08.05-30.15.05-45.22,0-2.91,1.41-3.84,4.23-4.29a212.43,212.43,0,0,0,21.25-4.25c12.15-3.27,24.14-7.15,36.29-10.46,1.1-.3,4.09,1.73,4.08,2.66-.09,11.81-.94,23.63-.73,35.43.06,3.58,2.58,7.2,4.32,10.63.69,1.35,2.32,2.22,3.53,3.31.25,4.46,1,9,.65,13.36C1068.27,1113.54,1067.08,1121.32,1066.17,1129.12Zm-4.3-15.68c-5.16,4.38-10.37,8.66-15.37,13.17-.88.79-.91,2.5-1.33,3.79,1.3.42,2.9,1.56,3.84,1.15,5.22-2.26,10.28-4.89,14.65-7C1063,1120.29,1062.46,1117.13,1061.87,1113.44Z"/><path class="cls-4" d="M1078.16,1087.36l16.8-3.85c2.88-2.61,7.21-5.25,9.66-9.08,3.58-5.6,7.1-11.81,8.31-18.21,1.62-8.52,1-17.47,1.32-26.24.16-5,.1-9.91.31-14.86a4.32,4.32,0,0,1,1.38-3c3.74-2.66,7.64-5.1,12.81-8.49,0,5.2.1,9,0,12.84-.53,17.89-.92,35.78-1.75,53.66-.56,12-3.56,23.52-10.69,33.21a36.63,36.63,0,0,1-13.73,10.86c-8.4,3.9-17.48,6.32-26.27,9.37.88-2.81,2.5-5.62,2.53-8.44C1078.91,1105.9,1078.43,1096.63,1078.16,1087.36Z"/><path class="cls-2" d="M1078.16,1087.36c.27,9.27.75,18.54.66,27.8,0,2.82-1.65,5.63-2.53,8.44l-5,3.75a41.82,41.82,0,0,1-1-6.23c-.09-9.53,0-19.07,0-28.61l2.46-1.38-2.36-1.08c0-.55-.07-1.1-.11-1.65Z"/><path class="cls-76" d="M1070.25,1092.51c0,9.54-.08,19.08,0,28.61a41.82,41.82,0,0,0,1,6.23l-5.08,1.77c.91-7.8,2.1-15.58,2.65-23.41.32-4.41-.4-8.9-.65-13.36Z"/><path class="cls-77" d="M1070.24,1088.4c0,.55.07,1.1.11,1.65-6.63-3.25-6.63-3.25-7.43-8.18Z"/><path class="cls-25" d="M591.16,1078.52v-17.17l1.21,0v17.17Z"/><path class="cls-37" d="M606.59,1193.6q.87,6.59,1.75,13.18l-2,.31q-1-6.54-2.09-13.09Z"/><path class="cls-25" d="M590.14,971.28v16.54h-1V971.35Z"/><path class="cls-2" d="M597.75,1075.14q1.5,7.13,3,14.24l-2.07.39q-1.31-7.15-2.59-14.33Z"/><path class="cls-37" d="M597.15,1037c.43,2.29.86,4.59,1.3,6.88l-1.84.43-2-6.78Z"/><path class="cls-4" d="M727.17,305.47c5.66,1.46,11.68,2.15,16.9,4.56,8.54,3.94,10.57,12.56,12.49,20.87,1.7,7.35-1.32,13.26-5.83,18.71-2.79,3.37-2.74,3.41-7.21,2.11a76.32,76.32,0,0,1-7.25,6.71c-.88.64-2.94-.59-4.27-.23-4,1.07-7.92,2.44-11.81,3.85-.46.16-.46,1.39-.87,2-.63.87-1.3,2.1-2.18,2.33-5.32,1.42-10.75,2.41-16,3.89-8.38,2.35-17.68-.53-22.62-7.24-.47-.64-1.33-1-1.94-1.52-3.77-3.36-6.78-6.93-6.29-12.62.21-2.41-1.57-4.94-1.6-7.43,0-2.8,0-6.26,1.52-8.28,4.73-6.22,10.12-12,15.41-17.73a10.45,10.45,0,0,1,4.52-2.84c6-1.77,12.17-3.24,18.27-4.82Z"/><path class="cls-78" d="M727.17,305.47l-18.81,2.3c2.87-4.87,7.27-3.95,11.7-3.16C722.4,305,724.8,305.19,727.17,305.47Z"/><path class="cls-4" d="M734.34,424.49c1-2.35,2.77-6.68,4.56-11,.44-1.05.9-2.1,1.29-3.16,1.71-4.55,3.68-8.73,8.79-10.63,1.91-.7,3.31-2.67,5.1-3.8,2.06-1.31,4.26-3.24,6.46-3.32a180,180,0,0,1,22.16.41c2.57.22,4.88,2.62,7.47,3.58,10.25,3.8,14.47,12.88,19.07,21.57,3.7,7,3.8,14.33,0,21.27a18.79,18.79,0,0,1-6.2,6.15c-7.34,4.72-14.65,9.66-22.48,13.43-6.79,3.27-14.39,2-21.44.07C742.44,454.38,735.84,443.35,734.34,424.49Z"/><path class="cls-4" d="M1061.87,1113.44c.59,3.69,1.11,6.85,1.79,11.07-4.37,2.15-9.43,4.78-14.65,7-.94.41-2.54-.73-3.84-1.15.42-1.29.45-3,1.33-3.79C1051.5,1122.1,1056.71,1117.82,1061.87,1113.44Z"/></g></g></svg>