<?xml version="1.0" encoding="UTF-8"?>
<svg version="1.1" xmlns="http://www.w3.org/2000/svg" width="500" height="500">
<path d="M0 0 C0.90045044 -0.00705963 1.80090088 -0.01411926 2.7286377 -0.02139282 C40.56271231 -0.2507174 40.56271231 -0.2507174 57.20703125 3.203125 C58.69759033 3.50911621 58.69759033 3.50911621 60.21826172 3.82128906 C82.220508 8.47437301 102.98300327 15.38050853 123.20703125 25.203125 C123.92810059 25.55068848 124.64916992 25.89825195 125.39208984 26.25634766 C183.08785103 54.41594201 228.273258 107.04791745 249.3125 167.4375 C256.90979679 190.17968485 262.28374061 213.92910166 262.41015625 237.99609375 C262.41721588 238.89654419 262.42427551 239.79699463 262.43154907 240.72473145 C262.66087365 278.55880606 262.66087365 278.55880606 259.20703125 295.203125 C258.90104004 296.69368408 258.90104004 296.69368408 258.58886719 298.21435547 C253.93578324 320.21660175 247.02964772 340.97909702 237.20703125 361.203125 C236.85946777 361.92419434 236.5119043 362.64526367 236.15380859 363.38818359 C207.99421424 421.08394478 155.3622388 466.26935175 94.97265625 487.30859375 C72.2304714 494.90589054 48.48105459 500.27983436 24.4140625 500.40625 C23.06338684 500.41683945 23.06338684 500.41683945 21.6854248 500.42764282 C-16.14864981 500.6569674 -16.14864981 500.6569674 -32.79296875 497.203125 C-34.28352783 496.89713379 -34.28352783 496.89713379 -35.80419922 496.58496094 C-57.8064455 491.93187699 -78.56894077 485.02574147 -98.79296875 475.203125 C-99.51403809 474.85556152 -100.23510742 474.50799805 -100.97802734 474.14990234 C-158.67378853 445.99030799 -203.8591955 393.35833255 -224.8984375 332.96875 C-232.49573429 310.22656515 -237.86967811 286.47714834 -237.99609375 262.41015625 C-238.00315338 261.50970581 -238.01021301 260.60925537 -238.01748657 259.68151855 C-238.24681115 221.84744394 -238.24681115 221.84744394 -234.79296875 205.203125 C-234.48697754 203.71256592 -234.48697754 203.71256592 -234.17480469 202.19189453 C-229.52172074 180.18964825 -222.61558522 159.42715298 -212.79296875 139.203125 C-212.44540527 138.48205566 -212.0978418 137.76098633 -211.73974609 137.01806641 C-183.58015174 79.32230522 -130.9481763 34.13689825 -70.55859375 13.09765625 C-47.8164089 5.50035946 -24.06699209 0.12641564 0 0 Z " fill="#F0BA14" transform="translate(237.79296875,-0.203125)"/>
<path d="M0 0 C23.43 0 46.86 0 71 0 C71.25 21.375 71.25 21.375 71.29785156 28.06005859 C71.32725932 29.83954394 71.35809182 31.61900655 71.390625 33.3984375 C71.39231689 34.74675659 71.39231689 34.74675659 71.39404297 36.12231445 C71.59848388 45.3246487 74.34057132 53.49912915 81 60 C87.40998204 64.39011632 94.47724721 63.1319582 101.8828125 62.79492188 C111.48568889 62.54698867 119.15101359 64.55792195 126.3125 71.25 C134.0754499 78.67172133 138.05785512 86.08017258 138.3359375 96.890625 C138.36185471 98.53895955 138.3801583 100.18743244 138.390625 101.8359375 C138.58552538 108.5924841 140.28333272 113.69505197 144.60546875 118.953125 C151.96875533 124.9892019 158.85032965 127.9106398 168.515625 127.5703125 C175.90496726 126.36084617 183.087218 123.20510421 188.1796875 117.6015625 C189.63632895 115.44796342 190.87883193 113.34252562 192 111 C192.33 110.34 192.66 109.68 193 109 C193.10412859 107.66944814 193.15507925 106.3344596 193.17578125 105 C193.52498073 91.45624349 194.79606577 82.42965881 204.4921875 72.26953125 C211.34566359 66.06724214 217.93719589 62.68927657 227.23828125 63.078125 C228.71651367 63.11679688 228.71651367 63.11679688 230.22460938 63.15625 C232.27203137 63.21841082 234.31903885 63.29636647 236.36523438 63.390625 C243.15154118 63.5320985 247.92977193 62.74997853 253 58 C255.13370387 55.07892511 255.13370387 55.07892511 256.4375 51.875 C257.14712891 50.32425781 257.14712891 50.32425781 257.87109375 48.7421875 C259.31103745 45.24446959 260.12817329 42.47041532 260.20532227 38.7121582 C260.23559509 37.40317566 260.23559509 37.40317566 260.26647949 36.06774902 C260.28295532 35.15464966 260.29943115 34.24155029 260.31640625 33.30078125 C260.34438293 32.03735901 260.34438293 32.03735901 260.3729248 30.74841309 C260.44120341 27.60321504 260.50136432 24.457845 260.5625 21.3125 C260.706875 14.279375 260.85125 7.24625 261 0 C284.43 0 307.86 0 332 0 C332.0928125 9.8071875 332.0928125 9.8071875 332.1875 19.8125 C332.21481201 21.85284424 332.24212402 23.89318848 332.27026367 25.99536133 C332.38793857 40.87550381 331.15509286 52.65525382 320.3125 63.75 C319.23715755 64.54077345 318.1289689 65.28788116 317 66 C316.30003906 66.44214844 315.60007812 66.88429688 314.87890625 67.33984375 C308.62297693 70.70691959 302.83780568 71.47892166 295.875 72 C286.01414865 72.7613124 280.04380058 74.54419692 273.125 81.875 C267.45708858 88.97632754 266.37970156 94.42771283 266.58203125 103.484375 C267.48592999 111.0872616 271.12420117 117.12738634 277 122 C283.03813684 126.49648488 288.13449041 128.14891416 295.625 128.3125 C307.93186605 129.10273035 316.72558248 133.93609677 325 143 C331.43679066 151.19365588 332.84879258 159.74919731 332 170 C330.04895498 180.15397884 325.19508905 186.8424468 317 193 C310.053743 197.42532744 302.822253 198.88767623 294.6875 199.25 C287.07243726 199.86049026 279.11493174 203.15370238 273.9375 208.9375 C268.75543376 217.12850792 267.87489488 224.69619146 267.68359375 234.1171875 C267.65561707 235.25812866 267.65561707 235.25812866 267.6270752 236.42211914 C267.55922887 239.23963786 267.49879352 242.05733111 267.4375 244.875 C267.293125 251.18625 267.14875 257.4975 267 264 C243.57 264 220.14 264 196 264 C195.9175 257.3175 195.835 250.635 195.75 243.75 C195.71358398 241.66655273 195.67716797 239.58310547 195.63964844 237.43652344 C195.50688389 224.49506505 196.28254565 213.27195899 205.01171875 202.97265625 C211.92087523 196.1177957 219.24488367 192.87894534 229.05151367 192.77490234 C238.71675337 192.66222039 246.25163181 190.67565039 253.92578125 184.43359375 C259.23281939 178.96852966 262.09438596 171.0444212 262.5 163.5 C262.07903934 155.41465213 258.91321634 147.51900192 253 142 C242.83731428 135.14832111 231.58663533 133.22026583 219.49609375 135.46484375 C213.22789452 137.53788812 208.02408564 141.81311368 204.625 147.4375 C202.32782122 152.48741623 202.50696162 157.85288461 202.2578125 163.3125 C201.53526071 173.6471802 197.306665 182.31481887 189.625 189.3125 C181.83561892 195.4926463 172.7220036 198.64237107 162.76953125 198.3671875 C152.39237688 196.99137296 143.64590647 192.02547189 137 184 C132.89796997 177.26095067 129.98034682 171.13041404 129.86279297 163.19824219 C129.67706371 154.84944145 128.78493509 148.47084462 123 142 C115.55508863 135.12777412 107.97047373 134.46222306 98.3125 134.6875 C90.43029502 135.10090236 83.29391524 137.6965991 77.5 143.15625 C72.04942152 149.85591938 69.52944299 157.61021338 69.66796875 166.1484375 C70.55733493 173.78652356 73.69599321 180.26139019 79.25 185.5625 C86.18894163 191.03642777 92.23716284 192.06159061 100.9375 192.4375 C113.56346386 192.9942055 120.61677844 197.43946673 129.25 206.3125 C134.15165751 213.84004547 135.58776351 220.95296025 135.390625 229.8203125 C135.38659668 230.69486084 135.38256836 231.56940918 135.37841797 232.47045898 C135.35773525 235.68885754 135.30189287 238.90695336 135.25 242.125 C135.1675 249.34375 135.085 256.5625 135 264 C111.9 264 88.8 264 65 264 C64.6875 245.75 64.6875 245.75 64.61206055 240.06933594 C64.42808747 222.7693334 64.42808747 222.7693334 56.84155273 207.66625977 C50.4184462 201.85455327 42.3244425 200.14257054 34 199 C21.93514101 197.34403896 12.28623237 193.19719237 4 184 C-1.29861087 175.5743401 -1.16296124 163.59443021 0 154 C2.62978738 145.34048584 7.71337041 138.12948861 15.52734375 133.50390625 C21.97896115 130.15967579 26.72683326 128.96213403 34 128.75 C43.01143552 128.27744911 51.12394862 125.93524867 58 119.875 C63.71947677 113.41436854 65.75293309 105.1108698 65.37890625 96.62890625 C64.2389597 88.71979253 59.93947436 82.22957702 54 77 C47.93316111 72.81847359 41.80901768 72.67295442 34.6328125 72.32421875 C25.20972529 71.48323355 16.91024603 68.51492303 10 62 C9.44699219 61.51015625 8.89398438 61.0203125 8.32421875 60.515625 C0.59323554 52.76545821 -0.33829532 41.92149475 -0.390625 31.54296875 C-0.38485402 27.75585828 -0.31649008 23.97493387 -0.25 20.1875 C-0.1675 13.525625 -0.085 6.86375 0 0 Z " fill="#010100" transform="translate(84,118)"/>
</svg>
