<?xml version="1.0" standalone="no"?>
<!DOCTYPE svg PUBLIC "-//W3C//DTD SVG 20010904//EN"
 "http://www.w3.org/TR/2001/REC-SVG-20010904/DTD/svg10.dtd">
<svg version="1.0" xmlns="http://www.w3.org/2000/svg"
 width="512.000000pt" height="512.000000pt" viewBox="0 0 512.000000 512.000000"
 preserveAspectRatio="xMidYMid meet">

<g transform="translate(0.000000,512.000000) scale(0.100000,-0.100000)"
fill="#000000" stroke="none">
<path d="M2367 5083 c-1 -1 -58 -9 -127 -18 -588 -76 -1077 -316 -1485 -729
-396 -401 -635 -890 -716 -1466 -20 -140 -18 -505 4 -655 49 -338 163 -662
334 -951 189 -318 475 -617 793 -827 128 -85 408 -223 550 -272 543 -187 1127
-187 1670 0 142 49 422 187 550 272 874 578 1301 1596 1099 2623 -73 367 -248
749 -482 1048 -264 338 -608 607 -982 767 -284 122 -554 185 -877 205 -127 8
-324 10 -331 3z m503 -408 c465 -70 883 -285 1212 -623 524 -540 727 -1290
543 -2017 -140 -557 -491 -1021 -1003 -1326 -343 -204 -806 -312 -1206 -280
-349 27 -663 122 -928 280 -673 401 -1068 1085 -1068 1851 0 730 351 1377 975
1795 259 174 620 300 955 334 124 13 388 5 520 -14z"/>
<path d="M2420 4269 c-359 -26 -722 -180 -1004 -427 -272 -237 -473 -591 -548
-964 -30 -150 -33 -472 -5 -613 22 -111 67 -275 76 -275 4 0 19 39 35 88 46
145 364 1127 413 1275 32 98 54 149 76 174 87 98 228 98 315 -1 35 -40 46 -71
222 -651 62 -203 116 -373 119 -377 4 -4 35 81 69 190 232 728 260 807 298
846 46 47 89 66 151 66 123 -1 226 -113 210 -230 -2 -20 -86 -286 -185 -591
-99 -305 -219 -674 -266 -820 -47 -146 -96 -281 -108 -300 -29 -44 -117 -89
-172 -89 -55 1 -114 29 -156 76 -32 36 -49 83 -190 543 -85 277 -155 500 -157
495 -6 -20 -239 -737 -312 -962 l-79 -244 63 -72 c35 -40 101 -104 147 -143
658 -558 1587 -559 2244 -2 96 81 274 278 274 303 0 3 -248 6 -550 6 -475 0
-556 2 -588 16 -79 32 -132 110 -132 192 0 34 28 135 94 338 51 159 175 543
275 854 100 311 221 681 267 823 47 143 84 260 82 262 -11 10 -143 71 -215
101 -229 92 -501 132 -763 113z"/>
<path d="M3750 3768 c0 -6 -81 -259 -179 -562 -145 -444 -348 -1073 -385
-1194 l-7 -22 497 2 498 3 18 48 c10 27 30 105 45 175 24 114 27 148 27 337 1
180 -2 226 -22 323 -33 161 -73 278 -151 437 -77 156 -141 253 -250 379 -71
83 -91 99 -91 74z"/>
</g>
</svg>
