<svg xmlns="http://www.w3.org/2000/svg" viewBox="0 0 84 84" height="20" weight="20" fill="#FF6233" alt=""
    aria-hidden="true">
    <path
        d="M41.985 0A41.98 41.98 0 0 0 18.66 7.078a42.014 42.014 0 0 0-6.362 64.62 41.98 41.98 0 0 0 45.755 9.105 42 42 0 0 0 18.843-15.47 42.01 42.01 0 0 0-5.222-53.032A41.98 41.98 0 0 0 41.985 0m14.68 62.997H27.308a6.31 6.31 0 0 1-6.313-6.315V27.315A6.317 6.317 0 0 1 27.308 21h29.357a6.31 6.31 0 0 1 6.313 6.315v29.367a6.316 6.316 0 0 1-6.313 6.315">
    </path>
</svg>