<svg width="227" height="223" viewBox="0 0 227 223" fill="none" xmlns="http://www.w3.org/2000/svg">
<path d="M226.479 109.812C226.824 130.86 221.885 150.128 211.624 167.617C201.364 185.123 187.398 198.725 169.728 208.459C152.04 218.175 132.772 222.86 111.924 222.515C90.5314 222.86 71.0817 217.739 53.5752 207.134C36.0687 196.528 22.6845 182.69 13.4046 165.637C4.12471 148.585 -0.342723 130.497 0.0204825 111.411C-0.342723 91.7793 4.57872 73.3103 14.7303 55.9854C24.9001 38.6604 38.7746 24.9131 56.3719 14.7433C73.9692 4.59172 92.8378 -0.311563 112.996 0.0153222C144.286 -0.329723 171.163 9.96717 193.609 30.906C216.055 51.863 227.024 78.1591 226.498 109.794L226.479 109.812Z" fill="black"/>
<path d="M85.7554 187.974L154.365 98.6257C165.497 117.64 168.348 134.401 154.456 150.056C151.714 153.143 148.445 155.322 144.958 156.848C144.958 156.848 135.061 144.807 132.9 145.352L129.504 146.224C128.959 146.369 128.686 146.987 128.941 147.495L131.41 152.162C132.464 154.16 132.863 156.43 132.573 158.664C132.209 161.406 130.43 163.73 127.887 164.802L120.696 167.816C119.988 168.107 119.17 167.816 118.844 167.108L117.681 164.711L115.793 167.49C113.795 170.431 112.542 173.827 112.124 177.369C111.979 178.604 112.887 179.711 114.122 179.82C129.703 181.255 152.331 176.388 164.844 162.296C188.288 135.891 183.313 107.651 164.39 75.5258L157.452 63.5037L76.639 172.193L85.7736 187.993L85.7554 187.974Z" fill="white"/>
<path d="M140.745 34.5745L72.1352 123.923C61.0029 104.909 58.1517 88.1473 72.0444 72.4932C74.7866 69.4059 78.0554 67.2267 81.5422 65.7012C81.5422 65.7012 91.4396 77.7415 93.6006 77.1967L96.9966 76.325C97.5414 76.1797 97.8138 75.5623 97.5596 75.0538L95.0898 70.3866C94.0365 68.3889 93.637 66.1189 93.9275 63.8852C94.2907 61.143 96.0704 58.8185 98.6129 57.747L105.804 54.7324C106.513 54.4418 107.33 54.7324 107.657 55.4406L108.819 57.8378L110.708 55.0593C112.705 52.1173 113.958 48.7213 114.376 45.1801C114.521 43.9452 113.613 42.8374 112.378 42.7284C96.7968 41.2938 74.1691 46.1607 61.6567 60.2531C38.2117 86.6582 43.1876 114.897 62.1107 147.023L69.0479 159.045L149.879 50.3739L140.745 34.5745Z" fill="white"/>
</svg>
