<svg xmlns="http://www.w3.org/2000/svg" xml:space="preserve" viewBox="0 0 227 223">
	<path fill="#030303" d="M98 1c10.02 0 20.042 0 30.679.383 3.238.77 5.863 1.142 8.482 1.55 39.296 6.099 80.177 39.305 88.155 83.333.773 4.267 1.784 8.49 2.684 12.734 0 1.067 0 2.133-.386 3.792-.4 4.473-.416 8.355-.497 12.61.25 1.449.567 2.523.883 3.598 0 1.067 0 2.133-.384 3.734a51.61 51.61 0 0 0-1.462 6.914c-6.549 45.696-41.966 82.761-87.41 91.444-5.242 1.002-10.496 1.94-15.744 2.908-.444 0-.889 0-1.867-.386-5.733-.128-10.933.129-16.133.386-1.067 0-2.133 0-3.751-.382-47.227-4.978-85.321-37.965-96.792-82.053C3.364 137.362 2.155 133.188 1 129c0-10.354 0-20.708.371-31.666 9.845-49.9 39.053-80.768 87.378-93.792C91.837 2.71 94.916 1.848 98 1m11.044 106.554 41.89-56.226-9.248-15.7-68.126 88.75c-16.214-19.04-11.029-50.552 8.822-57.047 5.669 2.904 6.966 12.55 16.218 9.705-4.448-11.736-4.732-15.164-.168-17.358 3.422-1.645 7.007-6.276 12.264-1.165 1.536-3.756 3.13-7.15 4.3-10.686.827-2.495-.11-4.246-3.14-4.15-4.157.13-8.334.013-12.469.374C72.993 46.361 52.103 65 47.821 91.121c-4.332 26.429 9.785 47.169 22.25 68.924 13.188-17.73 25.892-34.808 38.973-52.49m47.926-41.049c-23.234 31.246-46.486 62.48-69.683 93.752-3.237 4.364-8.587 8.89-8.653 13.405-.071 4.857 4.93 9.789 8.083 15.332l68.614-89.264c14.855 25.493 10.328 51.603-9.148 57.42-5.756-2.79-7.097-12.353-16.502-9.699 2.57 6.357 7.887 12.776-.338 17.832-2.965 1.823-6.826 6.293-11.372.467-1.55 3.643-3.038 6.937-4.356 10.297-1.373 3.498.121 5.185 3.682 4.892 6.775-.557 13.68-.634 20.273-2.08 27.909-6.122 46.108-31.265 43.608-59.495-1.78-20.107-12.177-36.646-22.002-53.422-.153-.26-1.17-.015-2.206.563z"/>
	<path fill="#FDFDFD" d="M123.469 224c4.78-.968 10.033-1.906 15.274-2.908 45.445-8.683 80.862-45.748 87.41-91.444.306-2.135.717-4.254 1.463-6.514C228 156.595 228 190.19 228 224H123.469zM97.531 1c-2.615.848-5.694 1.71-8.782 2.542C40.424 16.566 11.216 47.435 1.37 96.866 1 65.073 1 33.146 1 1h96.531zM1 129.469a274.267 274.267 0 0 1 3.457 12.096c11.47 44.088 49.565 77.075 96.392 82.053C67.742 224 34.483 224 1 224v-94.531z"/>
	<path fill="#FCFCFC" d="M228 98.531c-.9-3.775-1.91-7.998-2.684-12.265-7.978-44.028-48.86-77.234-88.155-83.334-2.62-.407-5.244-.779-8.014-1.55C161.927 1 194.853 1 228 1v97.531z"/>
	<path fill="#898989" d="M105.467 224c4.733-.257 9.933-.514 15.333-.386-4.822.386-9.844.386-15.333.386z"/>
	<path fill="#8A8A8A" d="M227.184 115.03c.014-3.883.03-7.765.43-11.838.386 3.5.386 7.194.182 11.363-.204.476-.612.474-.612.474z"/>
	<path fill="#9F9F9F" d="M227.117 115.403c.067-.374.475-.372.68-.388.203 1.052.203 2.118.203 3.585-.316-.675-.633-1.75-.883-3.197z"/>
	<path fill="#FAFAFA" d="M108.855 107.857c-12.892 17.38-25.596 34.457-38.785 52.188C57.606 138.29 43.49 117.55 47.82 91.12 52.104 65 72.994 46.361 99.388 44.051c4.135-.361 8.312-.244 12.468-.375 3.031-.095 3.968 1.656 3.142 4.151-1.171 3.535-2.765 6.93-4.301 10.686-5.257-5.111-8.842-.48-12.264 1.165-4.564 2.194-4.28 5.622.168 17.358-9.252 2.846-10.55-6.8-16.218-9.705-19.85 6.495-25.036 38.006-8.822 57.047l68.126-88.75 9.247 15.7a57031.86 57031.86 0 0 0-42.078 56.529zM157.181 66.222c.825-.294 1.842-.54 1.995-.28 9.825 16.777 20.221 33.316 22.002 53.423 2.5 28.23-15.7 53.373-43.608 59.495-6.594 1.446-13.498 1.523-20.273 2.08-3.56.293-5.055-1.394-3.682-4.892 1.318-3.36 2.807-6.654 4.356-10.297 4.546 5.826 8.407 1.356 11.372-.467 8.225-5.056 2.908-11.475.338-17.832 9.405-2.654 10.746 6.909 16.502 9.7 19.476-5.818 24.003-31.928 9.148-57.421l-68.614 89.264c-3.154-5.543-8.154-10.475-8.083-15.332.066-4.514 5.416-9.041 8.653-13.405 23.197-31.273 46.449-62.506 69.894-94.036z"/>
</svg>