<svg xmlns="http://www.w3.org/2000/svg" id="Layer_1" data-name="Layer 1" viewBox="0 0 128 128">
  <defs>
    <style>
      .cls-1{fill:#3f4971}.cls-2{fill:#546095}
    </style>
  </defs>
  <path d="M36.75 81.87a1.44 1.44 0 0 1-2.6.76L13.43 63.18a1.57 1.57 0 0 1 .57-2.81l29-11.69c1.35-.54 2.16.18 1.8 1.6Z" class="cls-1"/>
  <path d="M19.63 100.36c-1.11 1-2.22.56-2.48-.89l-5.68-31.61c-.26-1.44.4-1.8 1.46-.8l19.72 18.51a2.35 2.35 0 0 1-.07 3.56ZM43.41 42.39a1.79 1.79 0 0 1-.73 3L13.78 57c-1.35.55-2-.13-1.54-1.51l11.87-32.07a1.44 1.44 0 0 1 2.66-.48ZM13.13 95c.26 1.44-.17 1.62-1 .39L1 78a4.13 4.13 0 0 1 .14-4.37l5-6.75c.87-1.18 1.79-1 2.05.49ZM9.61 53.54c-.51 1.38-1.31 1.36-1.77 0L4 42a4.44 4.44 0 0 1 1.12-4.32l13.67-12.49c1.08-1 1.55-.67 1 .71ZM6 58a5.75 5.75 0 0 1-.74 4.67L1.34 68c-.88 1.18-1.47 1-1.32-.51l1.88-18.4c.15-1.46.65-1.52 1.11-.12ZM21.41 16.68c.48.57 0 1.84-1.08 2.82l-6.15 5.61c-1.08 1-1.25.82-.38-.35l5.14-7c.87-1.14 1.98-1.64 2.47-1.08ZM60.15 114.33a1.55 1.55 0 0 1-2.84.11l-16.05-23.5a1.45 1.45 0 0 1 1.14-2.47l32.25-3.35c1.45-.15 2 .76 1.3 2ZM53.43 114.36c.82 1.2.37 1.81-1 1.34l-30.24-10.34c-1.38-.47-1.61-1.64-.5-2.6l13-11.23a2.33 2.33 0 0 1 3.51.46Z" class="cls-2"/>
  <path d="M75.32 79.66c1 1.11.54 2.14-.91 2.29l-32.73 3.4a1.73 1.73 0 0 1-2-2.31L47.9 51c.36-1.42 1.44-1.67 2.39-.56Z" style="fill:#15f9ff"/>
  <path d="M98.84 107.13a1.45 1.45 0 0 1-.84 2.57l-33.31 7c-1.42.31-2-.48-1.25-1.75L79.13 88a1.77 1.77 0 0 1 3.06-.29ZM45.27 125.16a4.08 4.08 0 0 1-4.33-.5l-15.45-13.74c-1.1-1-.86-1.37.52-.9l26.46 9c1.38.48 1.46 1.43.17 2.12ZM81.19 126.47a4.4 4.4 0 0 1-4.41.48L66 121.43c-1.3-.67-1.2-1.46.23-1.76l28.69-6.08c1.42-.3 1.67.22.54 1.14ZM51.14 127.15c-1.46-.07-1.59-.69-.31-1.39l5.77-3.11a5.67 5.67 0 0 1 4.7-.06l8.44 4.32c1.3.66 1.17 1.15-.29 1.08ZM104.2 113.39c.49.57-.17 1.6-1.46 2.29l-7.6 4.08c-1.29.69-1.42.5-.29-.43l6.42-5.28c1.13-.93 2.45-1.23 2.93-.66Z" class="cls-2"/>
  <path d="M85 79.32c-1.35.54-2.16-.17-1.8-1.59l8.07-31.6a1.44 1.44 0 0 1 2.6-.76l20.72 19.45a1.57 1.57 0 0 1-.52 2.81Z" class="cls-1"/>
  <path d="M116.53 60.14c.26 1.44-.4 1.81-1.46.81L95.34 42.43a2.36 2.36 0 0 1 .07-3.56l13-11.22c1.11-1 2.22-.56 2.48.88ZM103.89 104.58a1.44 1.44 0 0 1-2.66.48L84.58 85.61a1.79 1.79 0 0 1 .73-3L114.22 71c1.35-.55 2 .13 1.54 1.51ZM127 50.05a4.15 4.15 0 0 1-.14 4.37l-5 6.75c-.87 1.18-1.79 1-2-.48l-5-27.67c-.25-1.44.18-1.62 1-.39ZM124 86.05a4.47 4.47 0 0 1-1.12 4.32l-13.65 12.44c-1.08 1-1.55.67-1-.71l10.22-27.64c.51-1.38 1.31-1.36 1.77 0ZM126.1 78.91c-.15 1.46-.65 1.51-1.11.12l-3-9a5.75 5.75 0 0 1 .74-4.67l3.92-5.28c.87-1.18 1.47-.94 1.32.51ZM109.05 110.21c-.87 1.18-2 1.68-2.46 1.11s0-1.84 1.08-2.82l6.14-5.6c1.08-1 1.26-.83.39.35Z" class="cls-2"/>
  <path d="M86.74 37.06a1.46 1.46 0 0 1-1.14 2.48l-32.25 3.34c-1.45.16-2-.76-1.3-2l15.8-27.19a1.55 1.55 0 0 1 2.84-.1Z" class="cls-1"/>
  <path d="M93.36 36.47a2.33 2.33 0 0 1-3.51-.47L74.57 13.65c-.83-1.21-.37-1.82 1-1.34l30.23 10.33c1.38.47 1.61 1.64.5 2.6ZM80.1 77c-.36 1.42-1.44 1.68-2.39.56l-25-29.23c-1-1.12-.55-2.15.91-2.3l32.72-3.4a1.74 1.74 0 0 1 2 2.31ZM48.87 40a1.77 1.77 0 0 1-3.06.28L29.16 20.87A1.45 1.45 0 0 1 30 18.3l33.31-7c1.42-.3 2 .49 1.25 1.75ZM75.53 8.94c-1.38-.47-1.46-1.43-.17-2.12l7.37-4a4.1 4.1 0 0 1 4.33.5l15.45 13.74c1.1 1 .86 1.37-.52.9ZM33.09 14.41c-1.43.3-1.67-.21-.54-1.14L46.81 1.53a4.4 4.4 0 0 1 4.41-.48L62 6.57c1.3.67 1.2 1.46-.23 1.76ZM71.39 5.36a5.68 5.68 0 0 1-4.69 0l-8.44-4.27C57 .43 57.09-.06 58.54 0l18.32.86c1.46.06 1.6.69.31 1.38ZM26.73 14c-1.13.93-2.45 1.23-2.93.66s.2-1.66 1.45-2.33l7.61-4.09c1.29-.69 1.42-.5.29.43ZM17 106.85c.56-.49 1.82 0 2.8 1.09l5.57 6.18c1 1.08.82 1.26-.35.38l-6.92-5.17c-1.2-.88-1.7-1.99-1.1-2.48ZM113.09 23.56c.56-.49 1.59.17 2.27 1.46l4.06 7.65c.69 1.3.5 1.43-.43.29l-5.25-6.45c-.92-1.14-1.21-2.51-.65-2.95ZM109.93 18.67c1.17.88 1.67 2 1.1 2.48s-1.82 0-2.8-1.09l-5.57-6.18c-1-1.08-.82-1.26.35-.38ZM14.25 101.49c.93 1.14 1.22 2.47.66 3s-1.59-.18-2.27-1.47l-4.07-7.69C7.89 94 8.08 93.9 9 95Z" class="cls-2"/>
</svg>