<svg xmlns="http://www.w3.org/2000/svg" xml:space="preserve" fill="none" viewBox="0 0 250 250">
  <circle fill="#EA175B" cx="125" cy="125" r="125" />
  <path d="M251 101.531c-.643.096-1.774-.19-1.859-.663-3.293-18.365-10.731-35.063-22.285-49.475-7.671-9.568-16.811-18.081-25.996-26.28-9.06-8.087-20.234-12.99-31.524-17.246-5.596-2.11-11.553-3.258-17.33-4.901-.885-.252-1.678-.827-2.26-1.609C183.594 1 217.187 1 251 1v100.531zM100.531 1c-.355.675-1.084 1.741-2.017 1.967-16.632 4.026-32.042 10.654-45.936 20.78-15.191 11.07-27.521 24.648-36.52 41.147C9.79 76.389 4.793 88.398 2.716 101.453c-.063.396-.657.709-1.36.804C1 68.407 1 34.814 1 1h99.531zM1 150.469c.66.07 1.797.521 1.912 1.158 2.978 16.495 9.834 31.392 19.107 45.153 10.949 16.247 24.999 29.25 42.159 38.899 11.016 6.194 22.628 10.635 34.94 13.36.886.195 1.667.86 2.19 1.633C67.739 251 34.478 251 1 251V150.469zM151.469 251c-.65-.246-.83-.492-1.01-.738 1.009-.43 1.98-1.013 3.032-1.265 16.64-3.986 32.048-10.618 45.939-20.748 15.186-11.074 27.517-24.648 36.513-41.146 6.268-11.495 11.262-23.503 13.341-36.556.064-.396.657-.709 1.36-.804C251 183.593 251 217.186 251 251h-99.531z"/>
  <path fill="#F2EFD5" d="M163.568 80.364c13.938 11.171 18.845 28.086 13.181 44.643-5.196 15.189-18.703 24.21-36.42 24.307-4.664.026-9.329-.013-13.993.018-1.625.01-3.25.142-5.375.243v28.442H96.698c0-4.611-.171-9.066.122-13.491.072-1.088 1.454-2.464 2.577-3.048 8.94-4.647 13.905-11.844 13.87-21.973-.035-10.126-5.05-17.275-13.996-21.91-1.172-.608-2.466-2.367-2.483-3.609-.18-13.146-.111-26.296-.111-39.847 1.466-.191 2.717-.494 3.969-.497 13.826-.03 27.653-.04 41.48.003 7.693.025 14.804 2.051 21.442 6.719m-42.293 13.688v35.588c5.741 0 11.2.196 16.64-.043 9.856-.433 16.17-7.477 16.254-17.795.085-10.648-6.163-17.894-16.184-18.36-5.299-.245-10.623.054-16.71.61z"/>
  <path fill="#F2EED4" d="M66.851 136.79c2.756-9.803 9.79-15.234 18.47-14.603 8.431.614 15.189 7.068 16.296 15.567 1.048 8.043-4.01 15.98-11.883 18.646-12.394 4.198-23.708-5.284-22.883-19.61z"/>
  <path fill="#EA175B" d="M121.663 93.8c5.7-.304 11.023-.603 16.322-.357 10.02.465 16.27 7.711 16.184 18.359-.083 10.318-6.398 17.362-16.255 17.795-5.44.24-10.898.043-16.639.043 0-12.173 0-23.88.388-35.84z"/>
</svg>