<svg xmlns="http://www.w3.org/2000/svg" data-name="Слой 1" viewBox="0 0 576.8 500">
  <defs>
    <linearGradient id="a" x2="576.8" y1="250" y2="250" gradientUnits="userSpaceOnUse">
      <stop offset="0" stop-color="#eb0000"/>
      <stop offset="1" stop-color="#ff5d00"/>
    </linearGradient>
  </defs>
  <path d="M544.4 100c-23.15-33.93-46.39-58.22-71-74.29C446.8 8.41 417.84 0 384.8 0c-26 0-54.39 5.13-86.77 15.69C248.14 31.31 187.47 73.94 132 129.94 83.26 179.23 43.87 237.27 21.12 293.4c-23.93 59-27.66 112.06-10.5 149.3 22.82 50.85 84.82 66.63 136.16 52.19 57.18-15 114.27-58.66 152.1-92.62 4-3.65-1.11-9.78-5.44-6.56-58.35 43.9-112.25 67.8-160.74 69.18-17.59-44.64-9.71-104.84 22.74-168.14 15.31-29.86 36-58.51 61.41-85.16a439.5 439.5 0 0 1 81.59-67.8c4.59-2.87.34-10.42-4.45-7.58A417.8 417.8 0 0 0 207.51 203l-.2.19-.2.2A417 417 0 0 0 139 293.2c-23.09 41.14-37 83.36-40.3 122.1-2.7 27.94-37.14 34.5-52.5 14.41-23.35-30.54-21.63-78.91-1.9-135.06 19.53-52.27 55.57-106.51 101.5-152.73l.16-.16.17-.16C192.42 95.1 246.77 58.68 299.18 39c27-10.14 52.13-15.27 74.65-15.27 31.38 0 59.17 10.07 77.17 34.71 45 72.13 15 150.56-28.58 230.88-2.86 4.61 4.25 9 7.3 4.69 23.56-32.32 41.93-65 54.6-97a26.77 26.77 0 0 1 25.33-17.28c11.83 0 21.81 6 26.77 16.74 11.26 24.42 7.78 64.62.56 100.3-15.38 64.45-60.19 143.17-117.45 192.51-3.51 3 1.06 8.49 4.62 5.58 64.28-50.17 120.23-126.2 141.06-200.32 20.41-66.61 14.1-143.38-20.81-194.54Z" style="fill:url(#a)"/>
</svg>