<svg width="275" height="275" viewBox="0 0 275 275" fill="none" xmlns="http://www.w3.org/2000/svg">
<path d="M234.731 40.2875C208.748 14.3 174.232 0 137.514 0C61.683 0 0 61.6825 0 137.5C0 213.318 61.683 275 137.514 275C174.232 275 208.775 260.7 234.731 234.713C260.715 208.725 275 174.212 275 137.5C275 100.787 260.715 66.2475 234.731 40.2875ZM137.514 265.485C66.9402 265.485 9.52357 208.065 9.52357 137.5C9.52357 66.935 66.9402 9.515 137.514 9.515C208.087 9.515 265.504 66.935 265.504 137.5C265.504 208.065 208.087 265.485 137.514 265.485Z" fill="#151A20"/>
<path d="M137.514 265.485C66.9402 265.485 9.52357 208.065 9.52357 137.5C9.52357 66.935 66.9402 9.515 137.514 9.515C208.087 9.515 265.504 66.935 265.504 137.5C265.504 208.065 208.087 265.485 137.514 265.485Z" fill="#151A20"/>
<path d="M234.731 40.2875C208.748 14.3 174.232 0 137.514 0C61.683 0 0 61.6825 0 137.5C0 213.318 61.683 275 137.514 275C174.232 275 208.775 260.7 234.731 234.713C260.715 208.725 275 174.213 275 137.5C275 100.787 260.715 66.2475 234.731 40.2875ZM137.514 265.485C66.9402 265.485 9.52357 208.065 9.52357 137.5C9.52357 66.935 66.9402 9.515 137.514 9.515C208.087 9.515 265.504 66.935 265.504 137.5C265.504 208.065 208.087 265.485 137.514 265.485Z" fill="white"/>
<path d="M182.567 140.718C173.769 132.855 162.25 127.604 151.088 122.518L151.006 122.491C131.322 113.501 114.304 105.721 115.514 87.3286C116.036 80.3182 121.122 76.0844 125.301 73.8026C130.002 71.2183 136.243 69.6788 142.016 69.6788C142.703 69.6788 143.391 69.7063 144.051 69.7337C160.848 70.8609 174.099 77.9813 187.048 92.772L187.818 93.6793L188.725 92.9095L193.784 88.5108L194.691 87.7135L193.894 86.8063C179.46 70.2561 163.79 61.926 144.628 60.6339C143.803 60.5514 142.923 60.5239 141.961 60.5239C141.384 60.5239 140.751 60.5239 140.092 60.5514H139.267C126.703 60.5514 112.93 64.6752 102.455 71.6032C89.9463 79.8783 82.9358 91.26 82.7434 103.659C82.2485 133.818 106.909 143.962 128.655 152.952L128.71 152.98L128.93 153.062C148.174 161.035 164.779 167.908 164.422 186.327C164.257 198.479 146.882 205.187 134.951 205.187H134.456H133.274V205.214C115.486 204.692 99.596 197.022 86.0424 182.478L85.2177 181.599L84.3379 182.396L79.4169 186.96L78.5371 187.784L79.3619 188.664C94.7574 205.242 113.754 214.149 134.318 214.397H135.253C148.532 214.397 162.965 210.823 173.852 204.802C187.488 197.352 195.433 186.492 196.258 174.231C197.193 160.76 192.711 149.79 182.567 140.718ZM118.73 114.491C126.566 121.199 137.178 126.01 147.432 130.656L147.624 130.738C158.484 135.742 168.766 140.471 176.216 147.041C184.464 154.299 187.955 162.712 187.213 173.516C186.526 184.21 178.58 191.358 171.35 195.675C172.752 192.815 173.522 189.709 173.604 186.41C173.769 175.303 169.508 166.423 160.546 159.22C152.711 152.925 142.319 148.663 132.256 144.512C111.335 135.907 91.5683 127.769 91.9257 103.741C92.0357 94.504 97.5891 85.7616 107.569 79.136C107.899 78.9161 108.228 78.6961 108.586 78.4762C107.404 81.0605 106.744 83.7547 106.579 86.5863C105.782 97.7206 109.768 106.848 118.73 114.491Z" fill="white"/>
</svg>
