<?xml version="1.0" encoding="UTF-8"?><svg id="Layer_1" xmlns="http://www.w3.org/2000/svg" viewBox="0 0 1080 1080"><defs><style>.cls-1{stroke-width:0px;}</style></defs><path class="cls-1" d="m393.45,540c0-80.97,65.64-146.55,146.55-146.55s146.55,65.64,146.55,146.55-65.64,146.55-146.55,146.55-146.55-65.64-146.55-146.55Zm439.66,0c0-80.91-65.64-146.55-146.55-146.55v293.1c80.97,0,146.55-65.64,146.55-146.55Zm-146.55-146.55h146.55c0-80.97-65.64-146.55-146.55-146.55v146.55c0-80.91-65.64-146.55-146.55-146.55s-146.55,65.64-146.55,146.55h293.1Zm-293.1,0v-146.55c-80.91,0-146.55,65.64-146.55,146.55h146.55Zm293.1,293.1H248.2c0,80.97,65.64,146.55,146.55,146.55v-127.2c9.45,71.81,70.84,127.2,145.25,127.2,80.91,0,146.55-65.58,146.55-146.55v146.55c80.97,0,146.55-65.64,146.55-146.55h-146.55Zm-293.1-293.1c-80.91,0-146.55,65.64-146.55,146.55s65.64,146.55,146.55,146.55v-293.1Z"/></svg>