<svg xmlns="http://www.w3.org/2000/svg" xml:space="preserve" fill="none" viewBox="0 0 203 204">
  <circle fill="#FD684F" cx="101" cy="101" r="101" />
  <path d="M204 85.531c-.666-.318-1.764-1.022-1.934-1.904-3.396-17.591-10.941-33.053-22.58-46.749-15.958-18.78-36.02-29.895-60.184-33.96-.712-.12-1.323-.846-1.642-1.604C146.593 1 175.186 1 204 1v84.531zM119.469 205c.151-.663.689-1.795 1.404-1.922 22.27-3.958 41.153-14.428 56.272-30.954 13.129-14.351 22.198-31.124 24.94-50.798.1-.712.83-1.335 1.59-1.663C204 148.26 204 176.52 204 205h-84.531zM86.531 1c.007.655-.383 1.814-.927 1.892-24.58 3.505-44.557 15.504-60.668 33.862C13.756 49.493 6.128 64.327 2.95 81.204c-.165.878-.873 1.653-1.64 2.136C1 55.738 1 28.476 1 1h85.531zM1 123.469c.656-.012 1.78.345 1.9.915 6.811 32.004 25.44 55.077 54.134 69.844 8.35 4.298 18.078 5.915 27.16 8.806.881.28 1.66.884 2.146 1.652C57.74 205 29.482 205 1 205v-81.531z"/>
  <path fill="#FEEFEA" d="M133.578 95.003c-14.948.002-29.443.002-43.938.002-10.295 0-10.45-.077-17.276-8.85 9.383-10.558 21.01-15.36 35.106-13.489 13.66 1.814 23.33 9.307 30.199 21.979-1.794.176-2.715.266-4.09.358z"/>
  <path fill="#FEE9E3" d="M124.995 109.588h-62.54l5.185-18.45c1.811 1.334 2.938 1.81 3.534 2.66 4.403 6.27 10.453 7.523 17.805 7.321 16.79-.461 33.6-.146 50.993-.146l1.41 8.615h-16.387z"/>
  <path fill="#FEEAE4" d="M97 123.87c-8.996 0-17.492.002-25.988 0-7.376-.002-7.376-.004-7.469-8.311h78.285l-4.967 18.031c-1.592-1.079-2.397-1.366-2.799-1.937-4.839-6.875-11.487-8.713-19.581-7.892-5.607.569-11.317.11-17.481.11z"/>
  <path fill="#FEE7E0" d="M57.432 140.977c30.9-.008 61.347-.008 92.01-.008.15 4.592-2.42 5.858-5.613 5.856-27.808-.016-55.616-.11-83.422-.338-1.596-.013-3.286-1.253-4.674-2.274-.244-.18.799-2.108 1.7-3.236z"/>
  <path fill="#FEF0EB" d="M95 129.834c8.332 0 16.178-.266 23.99.139 2.932.151 5.784 1.86 8.673 2.858l-.421 1.947c-1.347.129-2.694.37-4.042.37-23.83.024-47.659-.003-71.488.04-3.498.006-6.64-.262-7.838-5.354H95z"/>
  <path fill="#FEE7E1" d="M72.083 65.859c.373-2.256.91-4.183 1.449-6.11 1.853.958 4.415 1.47 5.374 2.993 1.112 1.767 1.038 4.43.945 6.681-.018.44-2.909 1.499-3.72 1.013-1.578-.944-2.62-2.782-4.048-4.577z"/>
  <path fill="#FEE9E3" d="M62.008 87.296c-3.55 2.075-8.556.756-10.257-2.325-1.356-2.456.034-5.14 2.827-5.457 3.722-.422 7.64 3.421 7.43 7.782z"/>
  <path fill="#FEE7E1" d="M99.913 63.198c-.656-2.784-1.497-5.365-1.231-7.826.325-3.01 3.213-4.741 5.186-2.489 1.68 1.918 1.797 5.599 1.664 8.456-.037.786-3.45 1.415-5.619 1.86z"/>
  <path fill="#FEE9E3" d="M147.75 79.814c1.998.727 4.749 1.279 5.092 2.506 1.08 3.848-2.527 5.027-5.123 6.006-1.426.537-4.518-.005-5.051-1.014-2.497-4.73 2.01-5.592 5.081-7.498z"/>
  <path fill="#FEE7E1" d="M129.236 59.502c3.3.353 4.747 2.4 3.619 4.794-1.16 2.461-3.162 5.44-5.46 6.211-2.73.916-4.676-1.912-3.475-4.69 1.024-2.37 3.255-4.218 5.316-6.315z"/>
  <path fill="#FEEEE9" d="M155.772 129.824c1.705.153 2.948.305 4.234.462-1.607 5.379-3.662 5.884-17.18 4.566.625-4.926.625-4.946 5.021-5.02 2.487-.042 4.974-.008 7.925-.008z"/>
  <path fill="#FEECE6" d="M50.825 106.818c3.127-.093 5.52 1.042 4.83 3.804-.375 1.5-3.148 2.457-4.927 3.51-.49.29-1.478.307-1.925-.003-1.662-1.154-4.467-2.428-4.54-3.78-.226-4.207 3.42-3.41 6.562-3.53z"/>
  <path fill="#FEEEE9" d="M151.647 106.902c2.055-.046 3.889-.497 5.3.083 1.378.565 3.214 2.182 3.216 3.34.001 1.237-1.922 3.527-2.977 3.511-2.72-.042-5.424-1.103-8.134-1.757.73-1.71 1.46-3.421 2.595-5.177z"/>
</svg>