<?xml version="1.0" encoding="UTF-8"?>
<svg width="396px" height="396px" viewBox="0 0 396 396" version="1.1" xmlns="http://www.w3.org/2000/svg" xmlns:xlink="http://www.w3.org/1999/xlink">
    <title>Shape</title>
    <g id="Page-1" stroke="none" stroke-width="1" fill="none" fill-rule="evenodd">
        <g id="stargaze_star_black" fill="#DB2877" fill-rule="nonzero">
            <path d="M198,396 C145.1,396 95.4,375.4 58,338 C20.6,300.6 0,250.9 0,198 C0,145.1 20.6,95.4 58,58 C95.4,20.6 145.1,0 198,0 C250.9,0 300.6,20.6 338,58 C375.4,95.4 396,145.1 396,198 C396,250.9 375.4,300.6 338,338 C300.6,375.4 250.9,396 198,396 Z M198,16.1 C97.7,16.1 16.1,97.7 16.1,198 C16.1,298.3 97.7,379.9 198,379.9 C298.3,379.9 379.9,298.3 379.9,198 C379.9,97.7 298.3,16.1 198,16.1 Z M174.4,140 L58.8,111.4 L135.6,202.5 L72.6,303.7 L183,258.8 L259.8,349.9 L251.2,231.1 L361.6,186.2 L246,157.6 L237.4,38.8 L174.4,140 Z" id="Shape"></path>
        </g>
    </g>
</svg>