<svg width="256" height="256" viewBox="0 0 256 256" fill="none" xmlns="http://www.w3.org/2000/svg">
<circle cx="128.991" cy="127.009" r="89.2035" fill="#F0B90B"/>
<path d="M241.982 127.009C241.982 141.847 239.06 156.54 233.381 170.249C227.703 183.957 219.38 196.413 208.888 206.906C198.396 217.398 185.94 225.721 172.231 231.399C158.522 237.077 143.829 240 128.991 240C114.153 240 99.46 237.077 85.7513 231.399C72.0426 225.721 59.5865 217.398 49.0943 206.906C38.6021 196.413 30.2793 183.957 24.6009 170.249C18.9226 156.54 16 141.847 16 127.009L43.0811 127.009C43.0811 138.291 45.3033 149.462 49.6206 159.885C53.938 170.308 60.2661 179.779 68.2436 187.756C76.2211 195.734 85.6917 202.062 96.1148 206.379C106.538 210.697 117.709 212.919 128.991 212.919C140.273 212.919 151.444 210.697 161.868 206.379C172.291 202.062 181.761 195.734 189.739 187.756C197.716 179.779 204.044 170.308 208.362 159.885C212.679 149.462 214.901 138.291 214.901 127.009L241.982 127.009Z" fill="#C73238"/>
<path d="M218.195 127.009C218.195 138.723 215.887 150.323 211.404 161.146C206.922 171.968 200.351 181.802 192.068 190.085C183.784 198.369 173.951 204.939 163.128 209.422C152.305 213.905 140.706 216.213 128.991 216.213C117.277 216.213 105.677 213.905 94.8544 209.422C84.0317 204.939 74.198 198.369 65.9147 190.085C57.6314 181.802 51.0607 171.968 46.5778 161.146C42.0949 150.323 39.7876 138.723 39.7876 127.009L128.991 127.009H218.195Z" fill="#070B09"/>
<path d="M89.1236 128.517L89.188 152.105L109.23 163.898V177.708L77.4586 159.074V121.62L89.1236 128.517ZM89.1236 104.93V118.675L77.4514 111.77V98.0251L89.1236 91.1204L100.853 98.0251L89.1236 104.93ZM117.6 98.0251L129.272 91.1204L141.002 98.0251L129.272 104.93L117.6 98.0251Z" fill="white"/>
<path d="M97.5579 147.216V133.406L109.23 140.311V154.056L97.5579 147.216ZM117.6 168.845L129.272 175.749L141.002 168.845V182.59L129.272 189.494L117.6 182.59V168.845ZM157.741 98.0251L169.414 91.1204L181.143 98.0251V111.77L169.414 118.675V104.93L157.741 98.0251ZM169.414 152.105L169.478 128.517L181.15 121.612V159.066L149.379 177.701V163.891L169.414 152.105Z" fill="white"/>
<path d="M161.044 147.215L149.372 154.056V140.311L161.044 133.406V147.215Z" fill="white"/>
<path d="M161.044 109.819L161.108 123.628L141.009 135.422V159.066L129.337 165.907L117.664 159.066V135.422L97.565 123.628V109.819L109.287 102.914L129.265 114.765L149.365 102.914L161.094 109.819H161.044ZM97.5579 86.2382L129.272 67.5398L161.044 86.2382L149.372 93.1429L129.272 81.292L109.23 93.1429L97.5579 86.2382Z" fill="white"/>
</svg>
