<?xml version="1.0" encoding="utf-8"?>
<!-- Generator: Adobe Illustrator 24.1.2, SVG Export Plug-In . SVG Version: 6.00 Build 0)  -->
<svg version="1.1" id="Layer_1" xmlns="http://www.w3.org/2000/svg" xmlns:xlink="http://www.w3.org/1999/xlink" x="0px" y="0px"
	 viewBox="0 0 1600 1200" style="enable-background:new 0 0 1600 1200;" xml:space="preserve">
<style type="text/css">
	.st0{fill:url(#SVGID_1_);}
	.st1{fill:url(#SVGID_2_);}
	.st2{fill:url(#SVGID_3_);}
	.st3{fill:url(#SVGID_4_);}
	.st4{fill:url(#SVGID_5_);}
	.st5{fill:url(#SVGID_6_);}
	.st6{fill:url(#SVGID_7_);}
	.st7{fill:url(#SVGID_8_);}
	.st8{fill:url(#SVGID_9_);}
	.st9{fill:url(#SVGID_10_);}
</style>
<g>
	<linearGradient id="SVGID_1_" gradientUnits="userSpaceOnUse" x1="1062.7549" y1="431.0205" x2="737.7004" y2="715.1918">
		<stop  offset="0" style="stop-color:#02F0FE"/>
		<stop  offset="1" style="stop-color:#4D7EFE"/>
	</linearGradient>
	<path class="st0" d="M968.28,527.12l-84.14,145.78c-26.03,45.12-74.17,72.92-126.24,72.92v-0.06l42.07-72.86l42.07-72.86
		l42.07-72.89l42.1-72.89L968.28,527.12z"/>
	<linearGradient id="SVGID_2_" gradientUnits="userSpaceOnUse" x1="945.3957" y1="502.7522" x2="780.5227" y2="753.0776">
		<stop  offset="0" style="stop-color:#4D4AFE"/>
		<stop  offset="1" style="stop-color:#4D7EFE;stop-opacity:0"/>
	</linearGradient>
	<path class="st1" d="M968.28,527.12l-84.14,145.78c-26.03,45.12-74.17,72.92-126.24,72.92v-0.06l42.07-72.86l42.07-72.86
		l42.07-72.89l42.1-72.89L968.28,527.12z"/>
	<linearGradient id="SVGID_3_" gradientUnits="userSpaceOnUse" x1="1080.9872" y1="451.8758" x2="755.9327" y2="736.0471">
		<stop  offset="0" style="stop-color:#02F0FE"/>
		<stop  offset="1" style="stop-color:#4D7EFE"/>
	</linearGradient>
	<path class="st2" d="M1094.53,454.26l-42.07,72.89l-42.1,72.89l-42.07,72.86l-0.03,0.06c-26.01,45.09-74.12,72.86-126.16,72.86
		h-84.2c52.07,0,100.21-27.8,126.24-72.92l84.14-145.78l-42.07-72.86H1094.53z"/>
	<linearGradient id="SVGID_4_" gradientUnits="userSpaceOnUse" x1="509.0102" y1="352.7566" x2="907.7883" y2="484.1188">
		<stop  offset="0" style="stop-color:#02F0FE"/>
		<stop  offset="1" style="stop-color:#4D7EFE"/>
	</linearGradient>
	<path class="st3" d="M926.24,454.26H589.62l26.66-46.2l15.38-26.66L800,381.37c51.56,0,99.27,27.23,125.47,71.55L926.24,454.26z"/>
	<linearGradient id="SVGID_5_" gradientUnits="userSpaceOnUse" x1="585.5965" y1="418.4155" x2="917.3531" y2="417.4102">
		<stop  offset="0" style="stop-color:#4D4AFE"/>
		<stop  offset="1" style="stop-color:#4D7EFE;stop-opacity:0"/>
	</linearGradient>
	<path class="st4" d="M926.24,454.26H589.62l26.66-46.2l15.38-26.66L800,381.37c51.56,0,99.27,27.23,125.47,71.55L926.24,454.26z"/>
	<linearGradient id="SVGID_6_" gradientUnits="userSpaceOnUse" x1="517.7838" y1="326.1224" x2="916.5619" y2="457.4846">
		<stop  offset="0" style="stop-color:#02F0FE"/>
		<stop  offset="1" style="stop-color:#4D7EFE"/>
	</linearGradient>
	<path class="st5" d="M925.47,452.92c-26.21-44.32-73.92-71.55-125.47-71.55l-168.34,0.03l-15.38,26.66l-26.69,46.17l-42.07-72.86
		l-42.04-72.86l84.11-0.03l84.14,0.03h84.26c6.49,0,12.93,0.43,19.26,1.25c3.19,0.43,6.32,0.94,9.46,1.6
		c1.31,0.26,2.62,0.54,3.93,0.85c3.39,0.77,6.75,1.65,10.05,2.68c2.96,0.91,5.9,1.91,8.8,3.02c1.68,0.63,3.33,1.28,4.98,1.99
		c4.16,1.74,8.23,3.7,12.19,5.81c0.03,0.03,0.06,0.06,0.09,0.03c6.92,3.73,13.5,7.98,19.74,12.73c1.28,1,2.54,1.97,3.76,2.96
		c2.42,2.02,4.79,4.07,7.09,6.21c1.14,1.08,2.28,2.19,3.42,3.3c8.97,8.94,16.86,19.14,23.36,30.39h0.03L925.47,452.92z"/>
	<linearGradient id="SVGID_7_" gradientUnits="userSpaceOnUse" x1="677.1868" y1="890.6577" x2="586.7077" y2="457.6985">
		<stop  offset="0" style="stop-color:#02F0FE"/>
		<stop  offset="1" style="stop-color:#4D7EFE"/>
	</linearGradient>
	<polygon class="st6" points="589.59,600.04 673.79,745.82 673.76,745.82 	"/>
	<linearGradient id="SVGID_8_" gradientUnits="userSpaceOnUse" x1="713.922" y1="882.9808" x2="623.4429" y2="450.0217">
		<stop  offset="0" style="stop-color:#02F0FE"/>
		<stop  offset="1" style="stop-color:#4D7EFE"/>
	</linearGradient>
	<path class="st7" d="M757.9,745.77v0.06h-84.14l-84.17-145.78c-25.78-44.66-26.03-99.58-0.77-144.44l0.77-1.34L605,480.95
		l26.66,46.2l42.1,72.89l42.07,72.83L757.9,745.77z"/>
	<linearGradient id="SVGID_9_" gradientUnits="userSpaceOnUse" x1="728.4587" y1="767.9186" x2="560.4554" y2="476.1765">
		<stop  offset="0" style="stop-color:#4D4AFE"/>
		<stop  offset="1" style="stop-color:#4D7EFE;stop-opacity:0"/>
	</linearGradient>
	<path class="st8" d="M757.9,745.77v0.06h-84.14l-84.17-145.78c-25.78-44.66-26.03-99.58-0.77-144.44l0.77-1.34L605,480.95
		l26.66,46.2l42.1,72.89l42.07,72.83L757.9,745.77z"/>
	<linearGradient id="SVGID_10_" gradientUnits="userSpaceOnUse" x1="686.4897" y1="888.8605" x2="596.0106" y2="455.9013">
		<stop  offset="0" style="stop-color:#02F0FE"/>
		<stop  offset="1" style="stop-color:#4D7EFE"/>
	</linearGradient>
	<path class="st9" d="M757.9,745.82l-84.14,145.7l-42.07-72.83l-25.75-44.58l-16.32-28.28l-42.1-72.92l-0.03-0.03
		c-2.45-4.22-4.64-8.55-6.64-12.93c-1.97-4.39-3.73-8.86-5.24-13.39c-0.43-1.28-0.85-2.56-1.22-3.85c-0.51-1.65-1-3.33-1.45-4.98
		c-1.71-6.41-2.99-12.93-3.82-19.48c-0.17-1.37-0.31-2.71-0.46-4.07c-0.14-1.42-0.26-2.88-0.34-4.3c-0.03-0.2-0.03-0.43-0.03-0.66
		c-0.11-1.48-0.2-2.96-0.23-4.44c0-0.03,0-0.06,0-0.06c-0.06-1.45-0.09-2.88-0.09-4.33c-0.03-15.84,2.51-31.67,7.63-46.86
		c1.03-3.02,2.14-6.01,3.36-8.97c0.6-1.48,1.25-2.96,1.91-4.41c1.34-2.93,2.76-5.84,4.27-8.69c0.77-1.42,1.54-2.85,2.36-4.24v-0.06
		l41.3-71.55c-25.27,44.86-25.01,99.78,0.77,144.44l84.17,145.78H757.9z"/>
</g>
</svg>
