<?xml version="1.0" encoding="UTF-8"?>
<svg id="Layer_2" data-name="Layer 2" xmlns="http://www.w3.org/2000/svg" viewBox="0 0 1080 1080">
  <defs>
    <style>
      .cls-1 {
        fill: #66f;
      }
    </style>
  </defs>
  <g id="Layer_1-2" data-name="Layer 1">
    <g>
      <path class="cls-1" d="m540,0C241.77,0,0,241.77,0,540s241.77,540,540,540,540-241.77,540-540S838.23,0,540,0Zm195.63,755.68l-151.64-71.41c-27.53-12.99-60.44-12.99-87.97,0l-151.64,71.41,107.18-164.89L184.05,324.32l327.14,91.11c19.12,5.33,38.5,5.33,57.62,0l327.14-91.11-267.5,266.48,107.18,164.89Z"/>
      <path class="cls-1" d="m564.33,522.29l216.24-130.86-226.58,74.54c-9.22,3.05-18.76,3.05-27.98,0l-226.58-74.54,216.24,130.86c15.58,9.4,33.09,9.4,48.67,0Z"/>
      <path class="cls-1" d="m562.9,549.07c-14.42,9.89-31.39,9.89-45.8,0l-230.48-157.64,208.27,198.06-120.97,137.36,142.24-101c14.15-11.42,33.53-11.42,47.68,0l142.24,101-120.97-137.36,208.27-198.06-230.48,157.64Z"/>
    </g>
  </g>
</svg>