<?xml version="1.0" encoding="UTF-8"?>
<svg xmlns:xodm="http://www.corel.com/coreldraw/odm/2003" xmlns="http://www.w3.org/2000/svg" xmlns:xlink="http://www.w3.org/1999/xlink" version="1.1" id="Layer_1" x="0px" y="0px" viewBox="0 0 2500 2500" style="enable-background:new 0 0 2500 2500;" xml:space="preserve">
<style type="text/css">
	.st0{fill:none;}
	.st1{fill:#988430;}
	.st2{fill:#7A6A2A;}
	.st3{fill:#BA9F33;}
	.st4{fill:#CFB66C;}
	.st5{fill:#E2CC85;}
	.st6{fill:#F1D789;}
	.st7{fill:#F4ECB4;}
	.st8{fill:#F3E19D;}
	.st9{fill:#F2E8B0;}
	.st10{fill:#F5EEC0;}
	.st11{fill:#E6DB9D;}
	.st12{fill:#E5CB7A;}
	.st13{fill:#D8C173;}
	.st14{fill:#E0CD81;}
	.st15{fill:#DFC57C;}
	.st16{fill:#E5CC7C;}
	.st17{fill:#D2C281;}
	.st18{fill:#E2C270;}
	.st19{fill:#CCB360;}
	.st20{fill:#D5B457;}
	.st21{fill:#D2B257;}
	.st22{fill:#D2B159;}
	.st23{fill:#C2A44D;}
	.st24{fill:#CAA13E;}
	.st25{fill:#B59544;}
	.st26{fill:#C89D3A;}
	.st27{fill:#CEB052;}
	.st28{fill:#CCA847;}
	.st29{fill:#C39D3C;}
	.st30{fill:#D2BA6B;}
	.st31{fill:#C0993A;}
	.st32{fill:#A88F33;}
	.st33{fill:#E3C571;}
	.st34{fill:#D8B65B;}
	.st35{fill:#D3AE4D;}
	.st36{fill:#F4EFC8;}
	.st37{fill:#EBCC73;}
	.st38{fill:#E5C66B;}
	.st39{fill:#E6BD62;}
	.st40{fill:#B6933F;}
	.st41{fill:#C49937;}
	.st42{fill:#DFC068;}
	.st43{fill:#C99E3D;}
	.st44{fill:#B58634;}
	.st45{fill:#E6C367;}
	.st46{fill:#DCBA5A;}
	.st47{fill:#E9CE77;}
	.st48{fill:#CDAE50;}
	.st49{fill:#D2A83E;}
	.st50{fill:#C29637;}
	.st51{fill:#AC8132;}
	.st52{fill:#A67A2E;}
	.st53{fill:#8C6228;}
	.st54{fill:#CBA94C;}
	.st55{fill:#BE9C44;}
	.st56{fill:#A17C34;}
	.st57{fill:#92723A;}
	.st58{fill:#B18E3E;}
	.st59{fill:#543E26;}
	.st60{fill:#806031;}
	.st61{fill:#B6903C;}
	.st62{fill:#685026;}
	.st63{fill:#D4B968;}
	.st64{fill:#CCA849;}
	.st65{fill:#585136;}
	.st66{fill:#252211;}
	.st67{fill:#C3B378;}
	.st68{fill:#E6D89C;}
	.st69{fill:#6F674D;}
	.st70{fill:#AC924C;}
	.st71{fill:#9F8E57;}
	.st72{fill:#EAC970;}
	.st73{fill:#D7BC6B;}
	.st74{fill:#453A25;}
	.st75{fill:#84754B;}
	.st76{fill:#F7F7E7;}
	.st77{fill:#F8F6DE;}
	.st78{fill:#D4C38B;}
	.st79{fill:#E2D59D;}
	.st80{fill:#CBAC5A;}
	.st81{fill:#D6BC6F;}
	.st82{fill:#DFC677;}
	.st83{fill:#C4A859;}
	.st84{fill:#927D49;}
	.st85{fill:#6E6342;}
	.st86{fill:#39331F;}
	.st87{fill:#292311;}
	.st88{fill:#3F3824;}
	.st89{fill:#2D2815;}
	.st90{fill:#82764F;}
	.st91{fill:#2D2816;}
	.st92{fill:#574F35;}
	.st93{fill:#DEC270;}
	.st94{fill:#CBAF59;}
	.st95{fill:#E3C677;}
	.st96{fill:#ECD592;}
</style>
<g id="Layer_x0020_1">
	<rect y="0" class="st0" width="2500" height="2500"></rect>
	<circle class="st1" cx="1250" cy="1250" r="1250"></circle>
	<circle class="st2" cx="1250" cy="1250" r="1210"></circle>
	<circle class="st3" cx="1250" cy="1250" r="1184.5"></circle>
	<path class="st4" d="M546.5,1116.5c-7.1-6.5-14.6-12.9-21.4-19.4c-6.9-6.5-14-12.9-21-19.4l-21-20c-3.4-3.4-7.1-6.5-10.5-9.9   c-3.4-3-7.5-6.5-10.9-9.5c-27.9-26.5-56-53-83.5-79.5c28.5,26.1,56.4,52,85,78.5l9.9,9.9c3.4,3.4,7.1,6.5,10.5,9.9l21,19.4   c7.1,6.5,14,12.9,21,20S539.4,1110,546.5,1116.5L546.5,1116.5L546.5,1116.5z M176,1112.5c0,0,101.5,10.5,151.1,17.6   c45.9,6.5,189.5,28.5,189.5,28.5L176,1112.5L176,1112.5z M176,1112.5c28.5,2.4,57,5.4,85.6,8.5c14.6,1.4,28.5,3,42.5,4.4l21.4,2.4   c7.1,1,14,2,21,3l85,13.5l42.5,7.1c14,2.4,27.9,5.1,42.5,7.5c-14-1.4-28.5-3.4-42.5-5.5l-42.5-6.1l-85-12.5c-7.1-1-14-2.4-21-3.4   l-21.4-2.5c-14-1.4-28.5-3.4-42.5-5.1C233,1120.6,204.5,1116.9,176,1112.5L176,1112.5L176,1112.5z M506.5,1185.1   c0,0-108.4,27.5-145,38c-36,9.9-145,43.1-145,43.1L506.5,1185.1L506.5,1185.1z"></path>
	<path class="st4" d="M506.5,1185.1c-24.1,7.1-48,14-72.4,20.4l-72.4,19.4c-24.1,7.1-48,14-72,21l-36,9.9   c-11.9,3.4-24.1,6.5-36.4,9.9c11.9-4,24.1-8.1,36-11.5l36-11.5c24.1-7.5,48-14.6,72-22.1c24.5-6.1,48.6-12.6,73-18.4   C457.5,1196.4,482,1190.5,506.5,1185.1L506.5,1185.1L506.5,1185.1L506.5,1185.1z M231.6,1332.9c11.9-4.4,149.5-68.6,181.4-83.5   c16-7.5,62.5-24,62.5-24L231.6,1332.9z"></path>
	<path class="st4" d="M231.6,1332.9c10.5-4,20.4-8.9,30.5-13.5l29.9-14l60.1-28.9c20-9.5,39.4-20,60.1-28.9   c10.5-4.4,21-8.1,31.6-11.5l16-5.1c5.5-1.4,10.5-3,16-4.4c-20,9.5-41.1,17.6-61.1,26.9c-20,9.9-40.4,18-61.1,26.9l-61.1,26.9   C272,1315.6,252,1324.4,231.6,1332.9L231.6,1332.9L231.6,1332.9z M244.9,1388.9c0,0,124.6-73,167.5-96.5   c22.5-12.5,95.1-48.5,95.1-48.5L244.9,1388.9L244.9,1388.9L244.9,1388.9z"></path>
	<path class="st4" d="M244.9,1389c21-12.9,42.5-26.1,63.9-39.4l32-19.4c10.9-6.5,21.4-12.5,32.6-19c10.9-6.5,21.4-12.9,32.6-19   c5.3-3.3,10.9-6.1,16.6-8.5l17-8.5c22.5-10.9,44.9-22.1,68.6-31.6c-21.4,13.6-43.5,25.1-65.5,37c-10.9,6.1-22.1,11.5-33,17.6   s-21.4,12.6-32.6,18.4c-10.9,6.5-21.4,12.5-32.6,18.4l-33,18L244.9,1389L244.9,1389L244.9,1389L244.9,1389z M667.5,1163   c0,0-77.5,59.5-102.6,78.5s-98.9,72.4-98.9,72.4l40.4-54L667.5,1163z"></path>
	<polygon class="st5" points="951.1,1739.5 911.4,1664.4 934.5,1570.6 1098.9,1507.1 1028.9,1363.5 1063.5,1218.4 1128.4,1088.6    1329.1,1057 1476.5,916.5 1794.9,940.5 1857.4,1280.9 1737.1,1709.6 1668.5,1931.4 1390.6,1942 1261.5,1852.6 1110.4,1789.4  "></polygon>
	<path class="st6" d="M1438.5,1737.1c0,0-38.4,17.6-104,13.6c-19-25.5-151.9-37.4-151.9-37.4s-16.6-5.1-45.9,7.1   c-29.5,12-57.4,10.5-83.5,17s-52-27.5-72-34.6c-20-7.5-46.5-25.5-46.5-25.5l-56-5.5l-112.4-47.5l-178.7-178l-48.5,76l-15,94.1   l54,111.5l145.4,132.5l283.6,72l168.1-49.5l210.6-89L1438.5,1737.1L1438.5,1737.1L1438.5,1737.1z"></path>
	<polygon class="st7" points="431,1108 467,999 509.9,928.6 648.1,917.1 606.6,1038 491.1,1243.5 539,1427 454.1,1469.4 428,1429.4    407,1337.6 405.6,1234.4  "></polygon>
	<path class="st8" d="M586,1729.6l-26.5-37c0,0-7.1-17.6-3-33c4-15.6,3.4-16.6,1.4-22.5s-19-26.1-18-43.5c1-17.6-1.4-23.5,11.5-37.4   c13.5-13.6,9.5-37,9.5-37l17.6,10.9l4-6.1c0,0,6.5,5.1,6.5,12.9c1.4-10.9-4.5-61.5,8.9-73s37,54,37,54l-14.5-95.1l-37.4-97.5   l-66.5-89l-4-98.1v-8.5c0,0-30.6,46.9-39,84c-6.1,25.5,8.5,56.4,5.5,93c-2.4,36.4-5.5,33.6,3.4,48s30.5,44.1,22.1,65.5   c-7.5,18.4-33,5.5-33,5.5s-5.1,15-11.9,20.4c-2.4-8.9-5.1-14.6-9.9-20c-0.4,3.4-1.4,8.1-1.4,8.1s-4.4-14-8.9-31.6   c-6-23.5-12.5-54.4-18.4-71c-2.4,9.5-8.5,38.4-8.5,38.4l3.4,44.5l16.6,61.1l16,40l15.6,48.9l13.5,32.9l10.9,25.1l9.5,56.4   l45.9,48.5l24.5,10.9L586,1729.6L586,1729.6L586,1729.6L586,1729.6L586,1729.6z"></path>
	<path class="st9" d="M455.1,1019c0,0-33,56-42.5,112.5c-9.5,56.4-18,116.1-12,193c6.1,77.5,17.6,125,26.9,159   c16,56.4,57.4,134.9,57.4,134.9l1.4-3c-7-13.2-12.6-27.1-16.6-41.5c-5.5-21.4-7.5-46.9-12.6-58.4c-4.4-11.5-11.9-21.4-15.6-35.6   c-3.4-13.5-4-35-14.6-51c-4.4-6.5-9.9-23.5-11.5-40.4c-2-25.5,1-54-1.4-77.5c-4.5-39-7.5-65.5-3.4-86s25.1-78.5,38-124.6   c8.5-29.5,3.4-54.4,19-80.1c15.6-25.5,25.1-47.9,28.5-63.5C500.3,942.6,455,1019,455.1,1019L455.1,1019L455.1,1019L455.1,1019   L455.1,1019z"></path>
	<path class="st10" d="M611.4,996.6c0,0-17,5.1-25.1,14c-8.1,8.5-11.5,15.6-22.5,29.9c-10.9,14.4-11.5,26.1-20.4,44.1   c-8.9,17.6-28.5,44.1-30.9,53.6c-2.4,9.5-6.5,54-11.5,75c-4.5,21,5.1,46.9,5.1,46.9l11.5-2.4c0,0,0,15,11.5,25.1   c11.5,9.9,13.5-33.6,13.5-33.6l43.1-145.4l64.9-44.1l7.1-35.6L611.4,996.6L611.4,996.6L611.4,996.6L611.4,996.6L611.4,996.6z"></path>
	<path class="st11" d="M643,1062.5c0,0-30.6,2-45.5,12.9c-6.1,4.4-8.5,8.1-15,13.6c-11.9,9.9-24.1,19-29.9,32   c-6.5,12.9-13.6,32.6-18.4,69.6c-2,15.6-2,29.9-3.4,42.5c-2,17-5.1,30.5-3.4,40c2,19.4,22.1,29.5,24,51.6l41.5-21l39-153.9l82.9-52   l-46.9-52.6L643,1062.5L643,1062.5L643,1062.5L643,1062.5L643,1062.5z"></path>
	<path class="st12" d="M424.2,2099.1c0.2-1.5,0.3-3,0.5-4.6c6-52,7.1-91.4,11.5-116.1c6.5-35,10.9-48,9.9-61.1   c-1.4-21-3-36.4-1-52.6c3-21.4,24.1-46.9,23.5-64.5c-0.4-14-7.5-23.1-13.6-31.6s-10.9-15.6-10.9-15.6s41.5-28.5,41.1-143.4   c0.8,0.2,1.7,0.6,2.4,1l20.4,58l14,17l53.6,99.9l69,67l101.9,68.6l63.9,69.6l6.5,185.5l-83.5,108.4l-13.7,24.8   C611.2,2254.9,511.3,2183.8,424.2,2099.1L424.2,2099.1L424.2,2099.1z"></path>
	<path class="st13" d="M679.4,2276.5c0,0,1.4-23.1,20.4-38c3,5.1,5,9.9,4.5,13.5c3.4-6.1,27.5-44.9,81.9-55   c54.4-9.9,67.6-49.6,67.6-49.6l115.5-105l132.1-121.6l160.6-56.4l75.1-18.4c0,0,1.4,5.5-1.4,17.6c14-1,44.9-8.1,77.1-19.4   c12.9-5.1,25.1-7.1,31.6-0.4c9.5,8.9,10.9,29.9,11.5,42.5c15.6-3.4,33.6-18.4,48-17c23.1,2.4,43.5,29.5,67,29.5   c30.9,0,44.9-19,66.5-34c12.9-8.9,31.6-20,42.1-27.5c25.1-18.4,290.5-99.5,290.5-99.5l93,6.1l15,99.9l-8,261.2c-1,0.9-2,1.9-3,2.9   l-423,220.9l-586.4,89.9c-131.1-21.4-258.3-65.2-375-128.9L679.4,2276.5L679.4,2276.5L679.4,2276.5L679.4,2276.5L679.4,2276.5z"></path>
	<path class="st6" d="M459.8,2132.3c8.3-17.4,15.8-32,17.1-37.2c1,10.5,2.9,33.6,6.8,58.1C475.7,2146.3,467.7,2139.3,459.8,2132.3   L459.8,2132.3L459.8,2132.3z"></path>
	<path class="st14" d="M888.2,2378.1L964,2357l6.5,2c0,0,3.4,2,3.4,8.9c9.5-5.4,17.6-4.4,23.5-8.1c3,6.5,6.1,27.9,19.4,30.5   c13.9,3,28.9-6.1,44.1-17.6c15-11.9,32-26.9,44.9-33c4.7,8.7,8.9,17.7,12.6,26.9c17-13.5,46.5-68.6,88.6-67.6   c12.1-28.7,32.5-53.3,58.4-70.6c39-26.5,63.5-28.5,94.1-26.1c12.1-15.7,27.1-29.1,44.1-39.4c5.1,2,19,10.5,36.4,2.4   c17.6-8.1,37.4-39.4,63.5-43.5c2.8-0.4,5.6-0.6,8.4-0.6c11.3,0,22.4,3.1,32.1,9.1c9.7,5.9,76-75.5,128.4-100.5   c-2-6.1-6.1-28.9,55.4-79.5c3.4,3,1,11.5,3.4,12c1,0,16-6.5,35-21c23.5-17.6,51.6-36,68.6-41.1c32-9.5,65.9,9.9,65.9,9.9   c2.9-2,6.1-3.5,9.5-4.5c8.1-1.4,13.9-2.4,18.4-4c-0.4,10.5,5.5,28.5,0,44.1c6.3,3.6,13.1,6.4,20,8.5c-3.4,7.5-10.9,26.5-23.5,35.6   c10.5,5.1,11.9,10.9,26.9,16c-6.1,8.5-16,23.1-20.4,32c-4.5,9.5-20.4,48.9-27.5,63.9c-7.5,15-17.6,42.5-22.5,48s-22.4,28.9-36,40.4   c12-4.4,61.1-19.4,81.9-25.1c-6.2,9.1-37.6,55.7-67.8,100.6c-184.3,110.5-395.3,168.9-610.2,168.9c-122.6,0-244.7-19.1-361.4-56.4   L888.2,2378.1L888.2,2378.1L888.2,2378.1z"></path>
	<path class="st15" d="M648,1057c0,0-17.6,0-21,2.4s17.6,7.5,24.1,9.9s20.4,13.5,24.1,22.4c3.4,8.5,126.4,58,126.4,58l87-4.4   l30-41.4l-57-50l40-117.9l-53,8.5l-127.4,76l-63.9,24.5L648,1057L648,1057L648,1057L648,1057z"></path>
	<path class="st16" d="M839,1096.1c2.5,4,6.9,6.5,11.6,6.5c0.1,0,0.3,0,0.4,0c18,0,34.6,4.4,41.4,13.6   c11.5,14.6,43.5,61.1,43.5,61.1l76.5,27.5l4.9-90l-83.5-58l-95.1,35v4.5L839,1096.1L839,1096.1L839,1096.1L839,1096.1z"></path>
	<path class="st17" d="M824,1129.4c0,0,13.9,1,31.6-5.5c17.6-6.5,46.5-20.4,59.1-15c17.6,7.5,14,30.9,33,52   c11.5,12.9,32.6,12.5,44.5,26.5s53,7.5,53,7.5l15.6,84l-62.5,80.1l-20.4,99.5h-84.5L816,1428l-38-92l19-93L824,1129.4L824,1129.4   L824,1129.4L824,1129.4z"></path>
	<path class="st18" d="M987.5,1133.5c2.1,0.7,4.3,1,6.5,1c-2.4,2-7.5,6.5-5.5,18s8.5,26.1,3,35c4.3,4.8,7.6,10.4,9.5,16.6   c3.4,9.9,4.4,19,26.9,20.4c-3.2,2-6.2,4.4-8.9,7.1s15.6,13.6,23.5,26.1c8.1-0.3,29.5-7,29.5-7l4.4,3l9.5-4c0,0-8.9-3.4-2.4-25.1   c6.1-19,11.5-18,12-19.4s4.4-21.4,4.4-29.5c3-10.5,5.5-42.5,5.5-42.5l-6.5-70.6l-36.4-22.1L1033,1012l-27.9,52.6l-18.4,18.3   l-1.4,45.5L987.5,1133.5L987.5,1133.5L987.5,1133.5L987.5,1133.5z"></path>
	<path class="st19" d="M1075,1074.4c0,0,6.5,18.4,8.9,32.6c0.8-2.8,1.3-5.6,1.4-8.5s5.1,27.9,6.1,39.4c2-0.4,4-1,4.5,1   c0.4,2,5.1,24.5,4,37c8.4-13.9,20.1-25.6,34-34c8.1-5.1,17.6-10.5,27.5-10.9c15.6-0.4,26.9,9.9,45.5,9.9c44.9,0,85.6-33,115.5-43.1   c22-7.5,41.1-12.9,54.4-25.1c6.5-5.4,18-17.6,28.5-35.6c14-24,28.5-44.9,43.1-47.5c-5.4,1-10.9,1.5-16.3,1.5c-1.2,0-2.5,0-3.7-0.1   c-1.2,0,4.4-4.5,12-10.5c7.6-6.1,16.6-13.5,29.5-13.5c23.1,0,34.6,3.4,47.5,3.4c12.9-0.4,20.4-3.4,20.4-3.4s13.6,9.5,44.1,9.5   c30.6,0.4,51,3,67,4.5c16,1.4,69.6-4.5,84.9-4c10,0.4,19.9,2.8,28.9,7.1l-49.6-144l-178-155.6l-106,75l-163,163L1108.4,981l-33,37   v56.4L1075,1074.4L1075,1074.4L1075,1074.4z"></path>
	<path class="st20" d="M1429,991.9c0,0,4.5-4.4,11.9-10.5c7.5-6.1,16.6-13.6,29.5-13.6c23,0,34.6,3.4,47.5,3.4   c13-0.4,20.4-3.4,20.4-3.4s13.6,9.5,44.1,9.5c30.6,0.4,51,3,67,4.4s69.6-4.4,85-4c10,0.4,19.9,2.8,28.9,7.1l-22.4-64.9l-26.1-49.5   l-74.4-81.5c0,0-89.3-52.6-90-53c-0.4-0.4-30.9-8.5-30.9-8.5l-80.9,49l-73.4,189.9l-1.4,40l47.5,22.5c11.9-20,25.1-36,37.4-38   C1437.5,991.9,1429,991.9,1429,991.9L1429,991.9L1429,991.9L1429,991.9z"></path>
	<path class="st21" d="M1428,1005.5c-7.1,0.4-12.9-1-14.6-6.1c-6.1-17-10.9-19.4-16-19.4s-11.9,10.9-16,11.9s-8.9-12.5-8.9-12.5   l-4.5-2c0,0-26.1,17-44.5,37s-48.6,54-62.1,60.1c-13.6,6.1-60.1,8.1-76,11.5s-33.6,15-36,17.6s7.1,5.4,8.5,8.1   c1.4,2.4-15.6,1.4-17,4c-1,2,4,13.6,6.5,19.4c4.3-2.2,9.1-3.3,13.9-3.4c15.6-0.4,26.9,9.9,45.5,9.9c44.9,0,85.6-33,115.5-43.1   c22.1-7.5,41.1-12.9,54.4-25.1c6.5-5.4,18-17.6,28.5-35.6C1413.1,1025.4,1420.6,1013.9,1428,1005.5L1428,1005.5L1428,1005.5   L1428,1005.5L1428,1005.5z"></path>
	<path class="st22" d="M784,2006.5c0,0-4-15-41.1-53.6c-10.5-10.9-17-20-24.1-26.5c-17.6-16.6-27.9-21-40.5-30.6   c-27.5-20.4-57.4-20.4-80.5-45.5c-23-25.1-49.9-73-68.6-122c-18.4-48.9-23.5-64.5-23.5-65.9s5.1-10.9,11.5-9.5   c6.4,1.4,6.5,13.9,8.1,17c3.2,4.9,6.9,9.6,10.9,13.9c9.5,10.9,23.1,24,29.9,43.5c-1.4-16.6-7.1-35-7.1-35s35.6,22.4,65.9,45.9   c30.6,23.5,43.1,31.6,52,46.5s29.9,54.4,40,65.9s148,55,148,55l65.6,48.9l32.6,71.4l-25.5,40l-48.9,10.5l-79.5-35.6L784,2006.5   L784,2006.5L784,2006.5L784,2006.5L784,2006.5z"></path>
	<path class="st23" d="M607.4,1760.5c0,0,16.6,26.5,57,51.6c36.4,22.1,94.1,42.1,145.4,54c29.5,7.1,59,12.5,85.5,12.9   c71.4,1,120.5-19.4,181.4-26.1c33-3.4,73.4-6.1,115.5-16c54-12.9,86-27.5,129.5-48c31.5-14.6,60.5-25.5,83.9-39.4   c33-19.4,57-41.1,85-47.5c-3.4,9.5-7.1,26.5-34.6,44.1c14.6-0.4,34.6-1.4,34.6-1.4s-19.4,11.5-53.6,37.4   c-21,16-48.9,43.1-77.5,61.1c-18.4,11.5-38.4,20-51.6,26.9c-32,17.6-44.9,26.5-65.9,48c7.5-0.4,8.1,0,8.1,0s-26.5,3.4-45.5,13.6   c-4,0-10.9-1.4-23.1,2c-9.5,3-22.1,9.9-35,13.6c-18.4,5.5-24.5,3-24.5,3l3,6.1c0,0-24-0.4-32,0.4c1.4,0.4,1,1,1,1   c-1.4,0.2-2.8,0.7-4,1.4c-3.8,2.5-8.1,4.3-12.5,5.5c-2.4,0.4-4.4,0.4-7.5,1c1,2.4,8.9,16,12.6,24c-3,2-48.6,36.4-48.6,36.4   c1.4,2.2,2.6,4.6,3.4,7.1c1.4,4.4,2,10.9,3.4,13.9c3.4,6.1,5.4,7.1,5.4,7.1s-5.4,1-15,3.4c-8.1,2-18,5.4-32,7.5   c-4.3,0.6-8.7,0.9-13,1c2,4.4,10.9,21.4-5.5,41.1c-16.4,19.6-21.4,22.5-26.5,35c-2.5-1.9-5.3-3.6-8.1-5.1   c-5.5-2.4-12.9-6.1-15.6-10.9c-1.5,6.5-3.6,12.9-6.1,19c-5.1,13.6-12.5,26.9-13.9,37c-5.5-6.1-15.6-18-29.5-15.6   s-25.1,21.4-27.5,26.9c0-3.4-2.4-6.1-3-2c-0.4,4.4-8.1,51-51,88.6c-0.4-9.5-0.4-30.6-1.4-37.4c-4,4-8.9,9.9-38,22.5   c-28.5,12.5-24,25.1-24,25.1s-2.4-20,12.9-41.1c15.6-21,25.1-30.9,25.1-32.6c-0.3-1.6-1-3.2-2-4.5c-2-2-6.1-4.4-6.1-6.1   c2.4-1,26.5-12.5,25.1-36.4c-1.4-21.4-10.5-32.6-17-40.4c-1-1,9.5-8.5,8.1-10.9c-1-1.4-13.9-10.9-15.6-16c0.4-3,1.1-6,2-8.9   c1.4-4.5,2.4-7.5,2-10.5c-1-5.1-6.5-19-8.1-20.4c1.4,0.4,11.5,0,11.5,0s-8.1-12.9-9.5-19c-1.4-6.1-4.5-22.1-6.1-25.1   c3.4,0.4,11.9,1,11.9,0c0.4-3-7.5-8.1-4-12c2.4,0.4,7.1,2.4,11.5,8.1c-2.4-6.5-6.5-19-15-24.1c4-1.4,17.6-5.1,29.5,2s16,17,16,17   s7.1,5.5,18,13.6c12.5,9.9,28.5,24,54,34c5.5,3,19.4,3,29.5,1c4.4-1.1,8.6-2.8,12.5-5.1c1.4-0.8,2.9-1.5,4.5-2   c-2.2-4.3-4.7-8.6-7.5-12.6c3.4,0,7.5,0.4,7.5,0.4s2.4-5.5-8.5-16c2.4-2.4,5.5-4,5.5-8.1c-3.4-0.4-9.5-5.5-10.9-7.5   c2-1.4,5-6.1,8.5-7.5c-3-2.4-10.5-12.6-14-13.6c3.3-1.2,6.5-2.7,9.5-4.4c3-1.7-17-4.4-22.5-8.1c-5.5-4-13.5-10.9-18.4-12.9   c-5.1-2-14-3-17.6-7.1c3.4,1,8.9,0,13,0c3,0,4.5,0.4,5.5,0.4c-0.4-1.4-0.4-4.4,7.5-5.4c3.8-0.6,7.5-1.7,10.9-3.4   c3.4-1.7-7.5-0.4-16-8.5s-15.6-14.6-20.4-15.6c-5.1-1-14.6,3.4-20.4,3c-8.1-1-11.5-5.1-11.5-5.1s-26.9,2.4-86.6-34   c-51.6-31.6-74-59.5-74-59.5c-4.8-1.7-9.5-3.9-13.9-6.5c-19.4-10.1-46.3-31.1-45.5-58.7l0,0L607.4,1760.5L607.4,1760.5   L607.4,1760.5z"></path>
	<path class="st24" d="M1351.5,546.5c4.7,1.5,8.8,4.3,12,8.1c9.5,10.9,15.6,31.5-6.1,53.6c8.5,3,12,4,19.4,3   c-7.5,8.9-24.5,27.9-25.5,44.5c-1,13.5,7.5,17.6,7.5,17.6s-12.9,15-13.5,40c6.1-6.9,12.8-13.3,20-19c15-11.9,35.6-25.5,49.6-34   c0,0.5,0,1,0,1.5c0,3,0.5,6.1,1.5,9s26.1-21.4,48-11.9c9.9,4.5,5.4,18.4,5.4,18.4s13.6-5,23.1,4.5s22.9,34,29.8,43.5   c3,4.5,10.9,13,19,26.1c11,18.4,20.3,37.9,27.5,58c0.4-10.5,3-26.9,33-16.6c29.9,10.5,63.9,32.6,92.4,76s35.6,92.4,49.9,111.1   c14.6,18,29.5,47.9,30.6,60.5c1,12.6-4.4,53,25.5,162.4c8.5-34,21.4-109.4,21.4-109.4l7.1-66.6l8.1-205.9l-215-178.6l-168.1-122   l-109.4,10.5L1351.5,546.5L1351.5,546.5L1351.5,546.5L1351.5,546.5L1351.5,546.5z"></path>
	<path class="st25" d="M1751,853c0,0-3-20-53.6-54c-50.6-33.6-90-33.6-126.4-62.1c-27.9-22.5-57-74-76-91   c-18.4-16.8-21.4-65.3-21.4-65.3l62.1-52L1628,395l78.1-86l37.4,52l52,61.1l28.9,122.6l10.5,179.4L1751,853L1751,853L1751,853z"></path>
	<path class="st26" d="M1813.5,1068c0.2-4.2,0.4-8.5,0.4-12.8c0-22.9-3.5-45.8-10.3-67.7c-13.3-41.5-42.5-115.1-56-142.7   c-5.5-30.5-1.4-33,4.5-36.4s27.9-16,40-60.1s49.6-45.5,49.6-45.5l23.1-17l35,87.6l30.5,79.1l9.5,60.5l7.1,51.6l-16.6,109l-81.9,74   L1813.5,1068L1813.5,1068L1813.5,1068L1813.5,1068z"></path>
	<path class="st27" d="M670.5,2283.2v-2.2c1.7-1.1,3.2-2.4,4.4-4c1.4-2,2.4-4.5,3.4-5.1c2-1,11.5-4,16.6-3s18.4,6.5,25.5,6.1   c14.6-0.4,31.6-11.5,58.5-6.5c40.5,7.5,50,35,73.4,50.6c16,10.9,32.6,6.1,35,6.1h5.4c1,0,8.5-8.5,12.6-8.1   c8.1,0.4,8.9,7.1,13.9,7.5c11.9,1.4,35-6.1,46.5-3c6.9,2.2,12.4,7.6,14.6,14.6c2.4,7.5,0.4,17-5.5,22.4   c-12.5,11.5-24.5,22.4-26.9,32c3.1,2.3,6.1,4.9,8.9,7.5c-99.9-25.5-196.5-64.2-286.3-114.6L670.5,2283.2L670.5,2283.2L670.5,2283.2   z"></path>
	<path class="st28" d="M1747.6,1879.1c0,0,31.6-42.1,42.5-62.9c10.9-21.5-34.6-293.5-34.6-293.5l91.4-299.5l-2.4-97.5   c0,0,4.5-90,15-129.1c12.5,22.5,51.6,49.6,60.1,63.9c4-27.5,17.6-85.6,15.6-147.5c7.5,11.5,25.5,127.4,25.5,127.4l18,78.1   l23.5,82.9l26.1,87.6l15.6,60.5l8.9,14.6l7.5,25.5l7.1,27.5l20.4,64.5l12,53l9.5,96.1c2.1,7.4,3.6,14.9,4.4,22.4   c0.4,10.5-1.4,16.6-1.4,18.4s3.4,23.1,2,39c-2,16-2,28.5-14.6,40s-20.4,80.1-20.4,80.1l-22.4-15c0,0,4.4-20.4-6.1-39   s-30.9-22.5-42.5-19.4c-11.5,2.4-34.6,6.1-42.1,12.5c-7.1,6.5-24.5,26.5-40.5,35.6c-20,12-52.6,12.9-70,17c-17.6,4-37,16-57.4,29.9   c-16,10.3-32.9,19.3-50.5,26.7L1747.6,1879.1L1747.6,1879.1L1747.6,1879.1L1747.6,1879.1z"></path>
	<path class="st29" d="M1747.6,2321c0,0,1.3,0.9,3.9,2.3c143.6-67.3,272.5-162.9,378.7-280.7c-1.2-40.9-2.7-82.9-4.3-98.4   c-3.4-33-1-66.6-2-86s-11.9-98.5-17-118.9c-5.5-20.4-16-30.6-17.6-30.6c-1.4,0.4-9.9,38.4-9.9,48s-2,32.6-2,38.4   c-1.4-0.4-2-4-2-5.5c-2,5.1-4.5,14-5.5,15s1.4-8.5,0-10.5s-4-1-3.4-6.1c0.2-3,0.7-5.9,1.4-8.9s-6.1,8.9-10.5,31.6   c-4.5,22.4-4.5,23.1-6.1,25.1c-1.4,2.4-9.5,10.5-9.9,13.6c-0.4,5.4,7.5,10.9,8.1,13.9c0.4,5.1-7.1,28.5-9.5,40s-1.4,34-4,45.5   c-2,10.5-4,16.6-10.9,21c5,1,9.9,2.4,9.9,2.4s7.1,29.9-10.9,55.4c-6.5,8.9-8.1,12.9-15,21c-13.6,15-24.1,32-25.1,43.1   c-0.7-3.3-1.2-6.6-1.4-9.9c-0.2-3.3-21,24.5-29.9,38.4c-11.5,18-27.5,17-32,21.4s-5.5,12.5-4,19c-4,1-11.5,2.4-16.6,18   c-2.4,8.1-8.5,16-18,21.4s-21,7.1-26.9,8.5c5.1,1.4,7.1,1.4,9.5,3c-3,5.1-17,12.9-32.6,23.1c-15.6,9.5-23.1,23.4-26.9,32.6   c-4,8.5-9.9,14-19.4,15c4,2.4,9.9,8.1,12.9,9.9c-4.4,1-12,1-25.5,12.6C1759,2316.6,1754.1,2320,1747.6,2321L1747.6,2321   L1747.6,2321L1747.6,2321L1747.6,2321z"></path>
	<path class="st30" d="M1466.1,2414.7c7.8-5.4,16.2-9.9,25-13.2c31.6-12.5,64.9-15,78.1-19c12.5-4,22.4-9.5,38-12.6   c-0.4,3.6-0.8,6.9-1.1,10C1560.2,2394.4,1513.3,2406.2,1466.1,2414.7L1466.1,2414.7z"></path>
	<path class="st31" d="M2048,1585c0,0-6.5,35-18,57s-24,52.6-24,52.6c0.1-6.9,0.9-13.8,2.4-20.4c-14.6,8.5-50,28.9-60,38   c-9.5,8.5-25.5,23.5-29.5,30.5c9.5-27.9,19.4-53,21-64.5c-14.6,10.5-82.5,66.6-117.9,103.6l-110.2,89.2   c-12.7,6.8-25.9,13-39.2,18.4c-19,8.1-41.4,15-58,21.4c4.5-11.9,11.5-22.5,21.4-32.6c10.5-9.9,42.1-44.1,46.9-60   c4.5-16.6,5.5-26.5-0.4-40.4c-5.5,1.4-18,2-26.5,4.4s-17.6,11.5-17.6,11.5s6.5-37,20.4-72c-10.5,0.4-28.5,3.4-28.5,3.4   s25.1-42.1,68-71.4c-13.1,2.8-26.1,6.8-38.4,11.9c-25.1,10.5-52.6,26.1-73,34.6c11.5-16,92.4-131.5,140.6-239.1   c48-107.4,65.9-134.9,76.4-192.6c5.5-28.5,4-70.7,5.5-108.4c1.4-37.4,6.1-71,3-93.5c12.5,15.6,59.5,59.5,61.1,157.6   c1.4,98.1-44.9,230.6-94.1,302c12,3.4,43.1,7.5,75-48s31.6-71,43.1-94.1c1.4,11.5,1,15.6,1,15.6s46.5-56.4,68.6-127.4   c4.4,30.6,17.6,57.5-3,113.5c-18.4,50.6-42.5,62.9-42.5,62.9s11.9-2,29.5-12.6c3,7.5,2.4,16,7.5,19s11.9,8.1,12.9,12.9   c5.4-8.1,13.9-18.4,16.6-26.1c-2,16-3.4,86,4,121.6c15.6-1.4,31.6-2.4,42.5-30.6c-7.5,27.5-7.5,44.1-2.4,67.6   C2040.5,1595,2047.9,1584.9,2048,1585L2048,1585L2048,1585L2048,1585z"></path>
	<path class="st32" d="M1522.4,470.1c0,0-15.6,6.5-42.1,6.5c-23.1,0-16.6-8.9-52.6-8.9c-55.4,0-249,32-283,31.5   c-22.1-0.4,74.4,9.5,74.4,9.5l246.6,3.4l49.5-4l18.4-37.5L1522.4,470.1L1522.4,470.1L1522.4,470.1z"></path>
	<path class="st33" d="M883.1,952.1c0,0-31.6,24.1-44.9,42.5c-13.3,18.4-20.4,30.5-35.6,45.5c0.4,0,0.8,0,1.2,0   c3.2,0,6.3-0.5,9.3-1.4s0,4-2.4,5.1c0.5-0.1,1-0.1,1.6-0.1c3.7,0,7.3,1.5,10,4.1c-4.5,2.4-16.6,14.6-7.1,28.9   c7.1,10.9,22.1,11.9,22.1,11.9s-3.5,9.9,10.9,8.9c30.9-1.4,65.5-15,81.5-11.5c16,4,25.1,5.5,36.4,25.1c12,19.4,22.4,22.5,22.4,22.5   s7.1-18,5.5-44.9c5.8-14.5,9-29.9,9.5-45.5L993,965.7l-45.9-58l-59.5,33L883.1,952.1L883.1,952.1L883.1,952.1z"></path>
	<path class="st34" d="M939.5,940.5c0,0,4.4,10.5,23.1,11.5c-2,4.5-2,5.1-1.4,8.5c0.4,3.4,1,8.5,1,8.5c2-1,3.9-2.3,5.5-4   c1,4.5-1,11.5,0,16.6c0.6,3.1,1.7,6.1,3,8.9c0.3-0.7,0.6-1.4,1-2c0.4-1,4,10.9,14,20l0,0c0-1.4,0.3-2.7,1-4c0.1,2.5,1,5,2.4,7.1   c-0.8-0.4-1.4-0.8-2-1.4c-0.6-0.6,1,32,6.5,48.5c0.9-1.1,1.7-2.2,2.4-3.4c0-1-0.4,8.9-1.4,16c-1.4,7.1-0.4,17-0.4,17   c3.6-2.9,7.7-5.3,11.9-7.1c6.1-2.4,16-9.9,22-26.5c3.5-9.4,6.2-19.1,8.1-28.9c1.9,3.8,3.3,7.8,4,12c0.4,5.1,9.9,2.4,9.9,2.4l2-22.1   l12-50l10.9-30.9l52.6-81.9l95-73.2l82.9,19l70-95.1L1255,633.7l-114,11.9L1037.4,789l-82.9,130.1L939.5,940.5L939.5,940.5   L939.5,940.5L939.5,940.5z"></path>
	<path class="st35" d="M1537,733c0,0-7.1,1.4-27.5,12s-34.6,14-42.5,29.5c-7.9,15.6-8.5,27.9-8.5,27.9s14-6.1,22.1-8.1   c8.5-2,18-1.4,17,2c-1,2.3-2.3,4.5-4,6.5c-1.7,1.9,16-0.4,15.6,7.5s-3,16.6-6.1,20.4c-3,4-15.6,9.9-17,14.6   c-3.4,9.5,1.4,9.9-0.4,17.6c-1.4,7.5-8.1,22.1-29.9,47.5c-22.4,25.5-32,43.5-32,43.5s-10.9-20.4-16.6-38c-4,2-25.5,14-25.5,14   l-49.8-173.3l1-11.5c0,0,4.5-5.5,5.5-15.6c-7.5-2.4-8.5-4.5-18.4-14s-18-21-34.6-28.9c-2.4-4.5-5.5-10.5-17.6-13   c-12.1-2.4-19.4-4.4-19.4-4.4s6.5-2.4,9.5-7.5c-7.5,1-13.6,3.4-29.9,3c-16.6-0.4-18.4-1-27.5,0.4s-20,5.5-24.1-8.5   c-4.4-3.4-14-0.4-22,11.5c-8.1,11.9-10.9,21.4-26.5,26.1c-1.1,6.9-3.5,13.5-7.1,19.4c-4.4,7.5-11.5,15-21,26.1   c-15,17.6-12.6,46.5-36.4,68.6c-24.1,22,4-61.1,4-61.1l38.4-92l109.4-107l169.9-11.5l16.6,88l82.9,28.5l52.4,79.9l0,0V733L1537,733   L1537,733z"></path>
	<path class="st24" d="M1563.9,752.4l-71.4-103l-50-38.4c0,0-35.6-65.5-38-67.5c-2-1.4-35.6-5-57-6.5l4,9.9c4.7,1.5,8.8,4.3,12,8.1   c9.5,10.9,15.6,31.5-6.1,53.6c8.5,3,12,4,19.4,3c-7.5,8.9-24.5,27.9-25.5,44.5c-1,13.5,7.5,17.6,7.5,17.6s-12.9,15-13.5,40   c6.1-6.9,12.8-13.3,20-19c15-12,35.6-25.5,49.6-34c0,0.5,0,1,0,1.5c0,3,0.5,6.1,1.5,9s26.1-21.4,48-11.9c9.9,4.5,5.4,18.4,5.4,18.4   s13.6-5.1,23.1,4.5c9.5,9.5,23,34,29.9,43.5c3,4.5,10.9,13,19,26.1c11,18.4,20.3,37.9,27.5,58c0.4-8.1,2-19.4,16-19.4L1563.9,752.4   L1563.9,752.4L1563.9,752.4z"></path>
	<path class="st36" d="M493.5,1044.9c0,0-5.1-12.6,0-37c5.1-24.5,12.9-36,15.6-72c2.6-36,26.1-80.9,26.1-80.9l64.9-29.5L646,838   l13.5,61.5l-58.1,32c0,0-3,13.5-19.4,24.5s-39,19.4-44.5,30.5c-3.3,6.8-5.7,14-7.1,21.4c-1.4,7.4-16.6-3.4-26.5,7.5   C493.5,1026.6,493.9,1036.5,493.5,1044.9L493.5,1044.9L493.5,1044.9L493.5,1044.9z"></path>
	<path class="st37" d="M624.6,1028.5c0,0-5.5,3.4-9.5,12c-4-6.5-13.6-44.9-14-79.5s-2.5-43.2,5.5-55.1c8-11.9,39.4-24.5,34.9-46   c-4.5-20.4-23.1-28.9-45.9-23c-16,4-27.9,38-44.5,55c-12.5,13-27.5,10.9-31.5,18c-5.5,9.5-0.4,19-2,25.1c-0.4,2-5.5,13-14.6,26.1   c-18.4,26.5-49.5,63.9-53.6,97.5c1.4-19,0.4-19.4,5.5-40.5l-3-5l20-65.5l13-54l28.9-90.4l51-92.4l49.6-55.4l51.6,3.4l6.1,77.5   l29.5,145.4l62.1,76.5l-99.5,67L624.6,1028.5L624.6,1028.5L624.6,1028.5L624.6,1028.5L624.6,1028.5z"></path>
	<path class="st38" d="M655.6,1056c0,0-8.5,2-11.5,0.4s-6.1-3.4-5.1-5.5c1-2,6.5-5.5,6.5-7.1c0-0.2,0-0.3,0-0.4   c0-2.9-2.2-5.3-5.1-5.6c-4.7-0.6-6.1,2.4-6.1,2.4s-4.5-3.4-8.1-4c2.1-0.3,4.3-0.4,6.5-0.4c-5.6-2.5-11.5-4.2-17.6-5.1   c5.1-3,15-11.9,21.4-11.9c6.5,0,10.5-1,9.5-4.4s-6.1-8.5-11.5-10.5c2-2.4,3.4-6.1-1.4-16c-5.1-9.9-3-16.6-1.4-19   c1.4-3,6.5-8.5,8.9-11.9s4.4-8.1,8.5-10.5c2-1.4,8.5-4,15-6.5c7.1-2.4,12.9-5.5,17-2.4c4.4,3,2.4,7.1,2.4,7.1s14-5.1,26.5,1.4   c12.6,6,43.1,9.9,43.1,9.9l10.9,22l-72.4,62.1l-29.9,15L655.6,1056L655.6,1056L655.6,1056L655.6,1056L655.6,1056z"></path>
	<path class="st39" d="M756.1,954.5c0,0-22.5,15-27.5,20.4c3,0.4,8.1,2.4,6,5.5c-2.4,3-17,13.5-25.1,23.5   c-8.5,9.9-16.6,22.5-19.4,28.5c-3,5.5-26.1,21.4-34,23.5c16.6,0,50-20.4,62.5-20.4c-0.4,6.1,3.4,12.9,10.5,13.6   c7.1,0.6,27.5,4.4,55-12.5c27.5-16.6,18.4-28.9,29.9-37c22-14.6,30.9-27.5,43.1-35.6c12.1-8.1,18.4-9.9,18.4-9.9s0.4-6.1,4-5.5   c2,0.2,3.7,1.5,4.4,3.4s21-15,48-19c-0.6-0.3-1.1-0.8-1.4-1.4c-0.3-0.6,2-1,2.4-2c0,0,1.4-2,2.4-1s2.4,8.5,4.5,11.5   c4.5-2,12.9-21,12.9-21l20.4-58.5V807l-16,3l-120,51l-72.8,75.5L756.1,954.5L756.1,954.5L756.1,954.5L756.1,954.5z"></path>
	<path class="st40" d="M1101.5,692.6c6.5-1.6,12.7-4.1,18.5-7.5c-2.4,6.5-2.4,13.6-12.9,28.9c-10.5,15.4-10.9,17.6-19.4,33.6   c-8.5,16.6-9.5,40.5-17.6,51c3.6-1.8,7.5-2.9,11.5-3.4s-8.1,7.1-11.5,14.6s-9.5,23-24.5,32.6s-34,15.6-54.4,38   c-20.4,22-41.5,50-52,60c5.5-9.5,12.9-28.5,15-41.1c2-12.5-0.4-27.5,3-44.1s3.4-28.5,20-57.5c16.6-28.9,44.9-129.5,44.9-129.5   l61.1-19.4L1101.5,692.6L1101.5,692.6L1101.5,692.6L1101.5,692.6L1101.5,692.6z"></path>
	<path class="st41" d="M1057.4,655.5c0,0-18.4,26.5-23.4,50c-5.1,23.5-0.4,21.4-3.4,33c-0.9,3.5-1.4,7.1-1.4,10.7   c0,3.6,0.5,7.2,1.4,10.7c6.4-10.3,15.1-18.9,25.4-25.1c17.4-10.5,31.6-18,40-26.9c8.5-9.5,15.6-25.1,34-37c-7.5-1-18-4.5-20-4   c7.5-8.5,29.9-21.4,52.6-37c22.5-16,21-22.5,57.5-38.4c-11.9,2-17.6-1-27.5,0c4-8.5,18-12.5,32-26.5s-8.9-34.6-8.9-34.6L1109,594.9   L1057.4,655.5L1057.4,655.5L1057.4,655.5z"></path>
	<polygon class="st42" points="768,607.4 770.4,588 801,539 832.9,453.1 832.9,335.6 830.5,267.6 835.6,223.1 839.4,209    843.4,203.5 869.5,217 905.6,266 909,360.4 874,509.5 774.1,618.5  "></polygon>
	<path class="st32" d="M847.5,198c0,0-16,0.4-19.4,67s-5.1,101.5-7.5,134.5s-8.1,53-10.9,72.4c-2.8,19.4-4.5,45.9-13.5,62.1   c-4,7.5-12.6,30.9-32.6,48.5c-22.5,19.4-56,33-61.1,34c-8.9,2-54,6.5-72.4,16.6c-6.5,3.4-17.6,7.5-29.9,19   c-24.5,22-57,61.5-80.5,109c-36,71-72,271.4-72,271.4l8.1-13.5c0,0,1-18,19-49.6c17.6-31.5,12.6-66.9,37-127.4   c9.5-23.1,21.4-53,36-78.5c23.1-41.5,51-77.1,79.1-96.5c45.9-31.5,96.5-38.4,96.5-38.4l54.4-36c0,0,9.5-18.4,22.1-39.4   c17.6-29.5,40-62.5,44.9-110.4c7.5-71-10.5-117.5-9.5-159.6s1.4-73,9.9-80.5C853.6,195.2,847.5,198,847.5,198L847.5,198L847.5,198   L847.5,198L847.5,198z"></path>
	<path class="st43" d="M847.5,515.6c0,0,24-59.1,35-111.5c2-10.5,6.1-21,7.1-29.5c5-49.6,6.5-70,0-97.1c-5.1-20-24.5-38-34.6-52   c-9.9-14.6-14.6-20-12.5-23.1c2-3.1,9.9-8.1,17.6-7.5c16.5,0.5,32.1,7.7,43.1,20c15.6,18,27.9,79.1,27.9,79.1l13,80.6l33,101.5   L847.5,515.6L847.5,515.6L847.5,515.6L847.5,515.6z"></path>
	<path class="st44" d="M1073,454.1c0,0-4.4,2-12.5,0c0.1,0.6,0.1,1.3,0.1,1.9c0,6.1-3.1,11.8-8.2,15.1c-8.5-3.4-88,3.4-88,3.4   s-37-6.5-48.5-55.4c-8.1-32.6,6.1-77.5,1.4-107c-7.1-43.5-17-52-18-65.5s-2-17-2-25.5c-4.5-1-7.1-2.4-11.5-2.4c-1-4,1-7.5-3.4-14.6   c2.4,1,19,3,38.4,21.4c16,15,16,20.4,18.4,23.5c3,3,27.5,24,38,44.9s31,87.6,35.6,98.5c1.4,4.5,4.5,8.9,12,19   C1036.5,426,1053.7,450.1,1073,454.1L1073,454.1L1073,454.1L1073,454.1z"></path>
	<path class="st32" d="M942,250c12.2,19.8,23.3,40.3,33,61.5c11.9,26.9,19,49,34,67c-8.1-23.5-22.5-69.6-30.9-86   C968.4,275.1,949,256.5,942,250L942,250L942,250z"></path>
	<path class="st45" d="M804.4,582.5c0,0-20.4,5.1-58.4,25.1c-12.6,6.5-24.5,11.9-36,17c-30,13.5-62.1,26.1-87.6,33   c2,2.4,3,3.4,3,3.4s0,9.9,5.5,15.6c-3,3-43.5,30.5-31.5,122.6c8.1-3,17.6-7.1,19-7.1c2.4,0.4,3,7.1,6.1,7.1c3,0,12.9-4,23.5-17.6   c-0.4,5.5-6.5,60.5,26.1,97.5c6.1-7.1,21.4-30.5,21.4-30.5l0.4-7.5c0,0,1.4-26.1,9.9-50s25.1-41.5,25.1-41.5L817.4,626L804.4,582.5   L804.4,582.5L804.4,582.5L804.4,582.5z"></path>
	<path class="st46" d="M723.5,764c-4,2.8-8.3,5-12.9,6.5c-1.4-5.1-3.4-22.5,8.5-39.5c14-20.4,44.5-46.9,53-68   c5.5-13.6,3-47.5,51.6-91c48.5-43.5,67.5-58.5,67.5-58.5l78.5-39.4l96.5,38l-48,187.9L981,788l-148-27.9L723.5,764L723.5,764   L723.5,764L723.5,764z"></path>
	<path class="st47" d="M780,713l18.4-23.1v-16.4c0,0,20.4-5.5,42.5-27.9c22-22.5,52.6-65.5,79.5-62.9c26.9,3,29.5,58.5,30.5,74   c1,15.6,4.5,51,9.9,70c6.1,19-65.5,91-65.5,91l-48.6,37L780,713L780,713L780,713z"></path>
	<path class="st48" d="M837,904.9c0,0,15-23.5,4-28.5c6.5-14.6,18.4-29.9,18.4-29.9s8.5-21,36-46.9s44.5-43.1,49-60.5   c2.8-11.3,4.3-23,4.5-34.6c3,2.4,6.1,4.6,9.5,6.5c4.4,2,25.5,19.4,22.4,54.4s-16,49.6-16,49.6s-12.5,12.5-21.4,19   c-9.5,6.5-13,13.9-28.9,14.6c1.6-1.3,3.5-2.3,5.5-3s-16.6-2-25.5,6.1s-27.8,33-37.4,40.5C847.5,898.1,837,905,837,904.9L837,904.9   L837,904.9L837,904.9L837,904.9z"></path>
	<path class="st49" d="M1509.5,511.5c-23.9-8.7-49-13.6-74.4-14.5c-42.5-1.4-104.6,1-165.5,1.4c-65.5,0.4-125-22.5-207.5-26.5   c-13.6-8.1-48-43.5-155.5,31.5c6.5-0.4,78.1-16.6,102.9,14.6c25.1,31,18,83.5,14.6,96.1c-6.5,27.9-27.5,68.6-36,97.1   s-6.5,43.5-12.5,63.5c-6.1,20-19.4,29.9-11.5,53c10.5-6.5,16-6.5,33.6-45.9s14-67.6,43.1-100.9c28.5-33.6,76-79.5,94.1-91   s161.4-86,311.5-15C1482.4,571,1509.5,511.5,1509.5,511.5L1509.5,511.5L1509.5,511.5L1509.5,511.5L1509.5,511.5z"></path>
	<path class="st50" d="M967,484c-0.2-1.5-0.5-3-1-4.5c-1.4-3-3.3-5.7-5.5-8.1s-35.6-6.5-53.6-4.5c-31.6,3.4-60.1,42.5-73.4,62.5   c-13.3,20-29.9,51-47.9,67c0-0.3,0.1-0.6,0.1-0.8c0-1.3-0.4-2.5-1.1-3.6c-0.7-1.1,1,1.4-1,3.4s-2,3-1,4l3,3c1,0,28.9-12.5,66.9-48   c40.4-37,71.4-56,87.6-62.5C948.8,488.3,957.8,485.6,967,484L967,484L967,484L967,484L967,484z"></path>
	<path class="st51" d="M1657.6,331.9c0,0-6.5,8.1-14.6,17c-18,19-41.5,40.4-61.5,62.5c-19,21-40.4,37.4-64.5,64.9s-52,58-59.1,66.9   c-6.5,8.9-11.5,23.5-11.5,31c-3.4-2.4-7.5-5.1-7.5-5.1c1.7,3.2,3.7,6.2,6.1,8.9c5.1,7.1,12.9,16,17,21.4c5,6.9,8.5,14.8,10.5,23.1   c2.4,0.4,18,3.4,37.4-28.5s44.9-67,44.9-67l40.5-60.1l25.5-51l32-57L1657.6,331.9L1657.6,331.9L1657.6,331.9L1657.6,331.9   L1657.6,331.9z"></path>
	<path class="st32" d="M1699,291.1c0,0-24.5,20-34,32s-32,43.5-32,43.5l8.1-1l41.1-36.4l16-28.5L1699,291.1L1699,291.1z"></path>
	<path class="st52" d="M1691.6,1898.5c0,0-0.4-16.6,8.9-26.5c9.5-9.9,33.6-24.5,57-79.1c23.5-54.6,26.1-66.9,26.1-66.9   s-42.1,36-68,44.5c6.1-12.6,9.5-21.4,12.6-27.9c-3.4-3-18-6.5-19.4-8.1c8.1-8.1,12.5-27.9,28.9-41.1c21-16,59.5-43.5,89.3-68   c29.9-24.5,88.6-81.5,96.1-98.1c4.4,6.5,5.5,10.5,5.5,10.5s-29.5,38.4-44.9,62.9c-13.6,21-12.6,33-12.6,33l27.9-12   c0,0,8.1,29.9-28.5,75.5c16-6.1,22.5-2.4,31.6-7.5c-15,9.5-35.6,22.5-55,58.1c-19,35.6-44.9,77.1-88.6,102.9   C1716,1878,1691.5,1898.4,1691.6,1898.5L1691.6,1898.5L1691.6,1898.5L1691.6,1898.5z"></path>
	<path class="st53" d="M1581.9,532.6c0,0-16.6,34.6-19,61.5c-0.4,6.5-2,11.5-2,19c-0.4,24.1,1.4,51-4,63.5c-2-5-3-8.5-5.1-10.5   c-3,8.5-8.5,35-12.9,44.9c-2-6.5-6.5-28.9-6.1-55.4s1-31.6,1-37c-1,8.1-6.5,19-8.5,25.5c-3-5.5-6.5-12.5-10.5-18.4   c-2.4,4-5.4,9.9-8.1,13c-0.4-2.4-1.4-8.9-2-18c-0.4-10.5-1-24.1-0.4-26.9c1-5.5,9.5-26.9,27.5-46.5c21.4-23.5,43.5-68.6,50-82.5   s34-72,34-72h21l-30.5,69.6c0,0-18.4,38-27.9,52c-9.5,14-29.5,54-38.4,69.6c6.5-8.5,11.9-12.9,18.4-21   C1564.6,557.1,1582,532.6,1581.9,532.6L1581.9,532.6L1581.9,532.6L1581.9,532.6z"></path>
	<path class="st54" d="M1699.4,288.4c-3.4,10.6-8.9,20.4-16,28.9c-12.6,15-39.4,35-52.6,51c-12,15.6-36,58.1-25.1,108.4   c4-10.9,11.5-32.6,31.6-57s41.5-52.6,52-74.4c10.5-22.1,11.9-39.4,11.9-39.4l4-5l-2.4-11.5L1699.4,288.4L1699.4,288.4L1699.4,288.4   z"></path>
	<path class="st32" d="M2109,1630.1c0,0-8.1-22-10.5-42.1c-2.4-20,4-24-3.4-46.9c-4.5-14-12.5-12-14.6-14c-2-2-3.4-23.1-3-34.6   s-0.4-26.5-2.4-33c-3-2.4-5.1-4.5-9.5-19.4c-5.1-15-7.5-22.4-9.9-26.9c-2.4-4.4-9.5-8.5-9.5-12.9c0-8.9,8.1-13.5,8.1-16   c-0.4-5.1-6.5-1-8.1-2.4c-2-2.4,5.1-17,2.4-19c-1-1-8.1,7.5-9.9,5.1c-2-2.4-4.5-26.5-8.1-42.5c-3.4-15.6-7.1-26.9-7.5-31.6   c-0.4-4.4-27.9-82.9-34.6-101.9c-5.3-16-9.9-32.5-13.5-48.9c-2-9.5-3.4-28.9-4.5-26.9c-1,2-0.4,11.9-2,11.5   c-1.4-0.4-6.5-35-8.1-40.4c-1.4-5.5-9.9-24-12-37.4c-2-13.6-6.5-49-9.5-73s-4.5-34-4.5-40c0.1-2.8,0.1-5.6,0.1-8.4   c0-11.9-0.9-23.9-2.6-35.7c-4-25.5-12-56.4-19-74.4c-13.5-34-49.6-121-56-142.6c0-5.5,7.1-2.4,7.1-2.4s17.6,44.1,30.5,78.1   c12.5,34,24.5,63.9,27.5,67c2.4,3,21.4,36.4,29.9,91s11.5,105,16.6,138.5c2.4,16,4.4,33,9.5,50c5.5,18.4,13.9,37.4,25.1,66.5   c9.5,24.5,16.6,44.9,20.4,62.5c4.4,22.4,4.4,39.4,7.1,50.6c2.4,9.5,6.1,28.5,14.6,56c8.5,27.5,21,62.9,29.5,84.9   c16.6,44.1,24,80.9,26.5,100.5C2103.5,1539.1,2111,1609,2109,1630.1L2109,1630.1L2109,1630.1L2109,1630.1L2109,1630.1z"></path>
	<path class="st55" d="M1700.4,286l-1,2.4c0,0,3,1,2.4,5.1c0,0.3,0,0.6,0,0.9c0,5.2-0.4,10.5-1,15.6c-1,7.1-3,12.5-3.4,17   c0,9.5,1.4,20.4-12,47.5c-4,7.5-6.5,14-8.5,18.4c-5.1,10.9-6.1,12.5-10.5,17.6c7.1-4,32.6-20,45.5-17.6c-8.9,5-22.5,15-30.9,27.9   c2,0.4,10.5,2,24,0c22.4-3.4,47.5-11.5,69.6-9.9c24.1,1.4,14.6-28.9,14.6-28.9l-27.8-61.1l-52.6-37L1700.4,286L1700.4,286   L1700.4,286L1700.4,286z"></path>
	<path class="st56" d="M1837.6,743.5c0,0-23.5-23.5-33-104c-9.5-80.9-7.5-200-7.5-200l-19-46.5c0,0-4-30.9-14-42.5   c-10-11.5-29.5-31-38.4-40.5s-19-22.5-25.1-24.5c3-5.1,16.6-33.6,68.6-34s68,28.5,73.4,39s29.9,56,39,142.7   c8.5,86.6,8.9,93,7.5,123c-1,16.6-6.5,55-16,96.1C1864.5,687.2,1855,726,1837.6,743.5L1837.6,743.5L1837.6,743.5z"></path>
	<path class="st53" d="M1764,812.5c0.9,0.1,1.9,0.1,2.9,0.1c6.9,0,13.6-1.8,19.6-5.2c7.5-0.4,34.6,3,55.4-23.5   c1.4,6,5.1,22.5-4.5,37c5.1-5.1,12.5-7.1,13.6-8.5c0.4,7.5,7.5,30.5-22.5,86.6c8.1-8.9,17.6-8.5,26.1-9.5   c0.4,10.5,6.1,45.9-8.9,64.9c-9.9,13-26.1,8.9-26.1,8.9c0.1-1.4,0.2-2.8,0.2-4.3s-0.1-2.8-0.2-4.3c-0.4-5.5-2.4-10.9-1-14.6   c-7.8-3.5-14.9-8.5-21-14.6c-17.6-16.6-40.5-44.9-42.1-65.9c-2-23.5,19-28.5,19-28.5c-1.8-1.6-3.3-3.4-4.4-5.5   C1769.1,822.4,1768,816.9,1764,812.5L1764,812.5L1764,812.5L1764,812.5z"></path>
	<path class="st57" d="M1608,558c0,0-1-1.4-6.5,5.1c1-6.5,2-12.5,2.4-18.4c2.6-5.4,5.9-10.5,9.9-15c-3,6-5.1,11.5-5.1,11.5   s7.5-14,18.4-22.5c7.5-6.1,17-8.9,21-14.6c4.4-6.1,3.4-7.1,4.4-8.1c0,0,9.9-6.5,25.1-25.5c2-2.4,5-5,7.1-7.5c3.4-1.4,11.5-5,21-9.9   c9.9-5.5,21-12.9,27.9-16c13.5-6.1,27.9-5.5,34.6-15c5.1-1.4,10.5-16.6,9.5-29.5c7.5,3,45.9,26.9,59.1,79.1   c9.5,37-7.5,94-14.6,121.6c-7.1,27.5-8.1,47.9-18,60.5c-12.5,16.6-53,40-62.9,51.6c-8.5,9.5-34,33.6-33,51c1,13,17,20,20.4,22.5   s3.4,5.5,9.9,4s8.9-4.5,11.5-4.5c3,0.4,3,1,4.4,1c1,0,2.1-0.2,3-0.4c1-0.3-1,18.4-44.1,24c-3,0.4-6.1,1.4-9.9,2   c5.1-2.4,8.1-2.4,13.6-9.9c-6.1-1-23.5-2-27.9-3.5c1.4-2.4,6.1-8.9,9.9-11.9c3.4-3-0.4-4-3.4-2.4c-5.2,3.5-10.2,7.4-15,11.5   c-5.1,4.5-9.5,10.5-17.6,16c-2.4-8.1-2-23.5,7.5-34.6c-2.4,0.4-7.1,7.5-11.5,6.1c-0.3-2.3-0.4-4.6-0.4-7c0-5.1,0.6-10.2,1.8-15.1   c2.4-9.1,15.6-25.1,15.6-25.1l63.5-113.5l13.5-86L1608,558L1608,558L1608,558L1608,558L1608,558z"></path>
	<path class="st58" d="M1604.6,562.9c0,0-3.4,2.4,3.4,7.1c-1,1.4-3.4,6.5-6.5,9.9c-3.4,4-7.1,6.5-8.5,9.9c-3,7.1-5.5,11.9-5.5,15   c0,3-1,22.5-9.5,35c-3,4.5-6.5,11.9-8.9,17c-5.1,8.9-9.5,16-10.5,20c-2,7.1-3.4,26.5-3.4,26.5s4.4-5.5,6.1-7.5   c-2.4,5.1-5.1,10.5-8.9,14.6c2.4-2,9.5-7.1,21.4-17.6c16.6-13.9,42.5-37.4,74-56c-9.5,3.4-17.6,3.4-24.1,4.5   c5.1-5.1,50.6-58.5,74.4-63.5c1.3-1.7,2-3.8,2-5.9c0-0.2,0-0.4,0-0.6l-20.4-2l-41.5,8.9l-6.1-32L1604.6,562.9L1604.6,562.9   L1604.6,562.9L1604.6,562.9z"></path>
	<path class="st59" d="M1670.5,745c0,0-5.5,5.5-10.5,19c-3.9-4.1-7.2-8.6-9.9-13.6c-7.5-12.5-19-28.5-45.9-19.4c-0.4-8.5-1-13,0-19   c4.4-1,18-11.9,31.6-27.9c9.5-10.9,18.4-23.5,24.5-39.4c4-3,10.9-8.1,20-14c12.9-8.9,28.5-21,30.9-34.6c-6.1,2.4-19,8.5-38.4,7.5   c7.5-3.4,19-7.1,17.6-22c3-2,5.5-3.4,5.5-3.4c-2-0.7-4.2-1-6.3-1c-0.3,0-0.5,0-0.8,0c-0.4-1.4-1-3.4-4.4-2.4s-4,1-4.4,2.4   c-1.4,0.4-6.1,0-9.5,2.4s-12.9,10.5-16.6,11.9c1.4-2.4,3.4-6.1,3.4-6.1s-9.9,1-17,4c-12.9,4.5-27.9,12.5-43.1,20.4   c1.4-2.4,2-4,3-4.5s3.4-1,3.4-1.4s-1-4-0.4-5.5c4.5-9.6,9.9-18.8,16-27.5c7.1-9.5,8.5-23.1,8.5-23.1l30.9-15.6l87-20l56.4,3.4   l-7.1,39l-33.3,68.2l-28.5,62.1l-32.6,38L1670.5,745L1670.5,745L1670.5,745L1670.5,745L1670.5,745z"></path>
	<path class="st60" d="M1811.5,576c0,0-34,42.1-43.5,48.5c6.1-13,43.5-90,57-111.5c-3-2.4-7.1-2.4,2.4-40c-8.1,19-10.9,28.9-17.6,34   c-6.7,5.1-7.5,3.4-12,3.4c0.7-1.3,1.1-2.7,1.1-4.1c0-0.3,0-0.6-0.1-1c0-0.3-28.5-3.4-48-3.4s-58,10.5-79.5,19   c-17,7.1-26.5,7.1-32.6,11.5c-6.1,5-9.5,10.5-12.6,11.9c-2.4,1.4-13.9,5-16.6,8.9c-2.4,4-6.5,8.5-6.5,9.5s-1,2.4,2,1.4   c1-0.4,8.5-4.5,17-9.5c11.5-6.5,25.5-14,35.6-18.4c28.9-11.5,38-9.5,51-11.9c13.6-2.4,33-8.1,45.9-8.1c13-0.4,37.4,0,43.1,1   c-2.4,2-4.4,4.5-3.4,13c0,2.4-2,5-4,10.9c-6.1,16.6-17.6,44.1-24,58.1c-8.9,19-19,35-24,44.9s-16,36-26.9,50s-16.6,22.5-20,25.5   s-27.9,21-26.1,27.5c4.4-1.4,32.6-12,53-35s24.5-37,40.4-49.6c16-12.5,28.5-33.6,36-51C1805.1,595.4,1803.7,590.4,1811.5,576   L1811.5,576L1811.5,576L1811.5,576z"></path>
	<path class="st61" d="M1079.1,890c0,0-4.4,18.4-14.6,27.5c-9.9,8.9-27.5,16.6-29.5,31.6c-2.4,15,17.6,22.5,17.6,22.5   s-10.9,18-10.9,31.5c0,14-0.4,16.6,1,29.9c-1.6,1-3,2.4-4,4s1,12.9,10.9,21s18.4,12.9,23.4,10.9c0.8,1.6,1.5,3.3,2,5.1   c0.6,1.7,7.5-19,12.6-35.6c5.1-17,9.5-14.6,11.5-37.4c2-22.8,24-62.1,24-62.1l15-33.5l-24.5-19L1079.1,890L1079.1,890L1079.1,890z"></path>
	<path class="st62" d="M1124.6,922.9c-5,5.2-9.7,10.8-13.9,16.6c-6.5,8.9-11.5,17-21,20.4c-9.5,3.5-15.6,3.4-15,13   s9.5,13.5,14.6,18.4c5.5,5,9.9,13.5,7.5,23.1c3-1.4,8.5-3,13.5-14c5.1-10.9,40.4-77.5,40.4-77.5H1124.6L1124.6,922.9L1124.6,922.9z   "></path>
	<path class="st63" d="M1264,769.4c0,0,3-8.1,0-13.9c-3-6.1-21.4-8.1-30.6-15c-9.5-7.1-21-12-30.5-8.9c1.4-3.4,7.1-10.9,2.4-12.5   c-4.5-1.4-21,6.1-25.5,9.5s-14.6,7.5-16.6,9.9s-5.5,7.1-7.5,5c-2-1.4-3-5-6.5-3s-20,15.6-23.1,23.5s-9.9,25.5-30.5,45.5   s-29.5,33-23.5,40.5c6.1,7.5,8.9,2,9.9,8.5c0.3,2.2,0.4,4.4,0.4,6.7c0,4.2-0.5,8.3-1.4,12.4c-2.4,10.5-6.5,20.4-1,22.5   c14,4.5,27.5-4,30.5-1.4c6.1,5.5-3.4,25.1,10.9,28.9c14.6,4,28.9-3.4,28.9-3.4l53-28.5l51-26.9l26.1-51.6l-14-43.1L1264,769.4   L1264,769.4L1264,769.4L1264,769.4z"></path>
	<path class="st64" d="M1214,892.6c0,0-8.9-13.5,2-25.5s26.5-17,32.6-24.5c-1.2-1.4-2.7-2.5-4.5-3c4-7.2,10.2-13,17.6-16.6   c-3-3-7.1-5.5-11.5-5.5c-9.9,0-16,6.1-25.1,6.1c-8.9,0-9.9-4.5-9.9-4.5s15-1.4,13.6-8.1c-1.4-7.1-4-7.1-4-7.1s28.9-12,34-18.4   s4.5-14,5.5-17c3.4,0,23.4-10.5,31.5-6.1c8.1,4.5,2.4,16.6,2.4,16.6s24.5-18.4,37-36.5c10.9,1,16-7.5,24-7.5   c9.9,0,25.5,13.5,28.5,42.5c2,16.6,5.1,26.1,2,55.4c-1.4,16.6-1,52,4,69.6c3.4,14,11.5,12.5,11.5,12.5c-1.2,4.3-3.7,8-7.1,10.9   c-5.5,5-6.1,18.4-5.5,23.5c0.8,3.7,1.8,7.3,3,10.9c1.2,3.6-6.5,7.5-8.1,12.5c-1.4,5-8.1,8.5-12.9,8.5c-4.9,0-2.4-0.4-8.9,0   s-8.5,1.4-12.6,0c-4-1.4-7.1-3-5.4-16c1.4-13-50-43.1-50-43.1l-84-29.9l0,0L1214,892.6L1214,892.6L1214,892.6z"></path>
	<path class="st65" d="M1117.5,1020.4c0,0,18.4,24.5,94.1,24.5c36,0,48.6-3.4,56-5.5c8.1-2,38.4-13.9,69-50   c27.5-32.6,21.4-45.9,21.4-45.9l-16-2.4l-52,7.1l-153.9,65.5L1117.5,1020.4L1117.5,1020.4L1117.5,1020.4L1117.5,1020.4z"></path>
	<path class="st66" d="M1173.9,1026.5c0,0-65.5,14.6-65.5-26.9c0-40.5,40.5-82.9,50.6-90.4c10.5-7.5,35.6-16,35.6-16h60.5l11.5,30.5   l-5.1,65.9L1173.9,1026.5L1173.9,1026.5L1173.9,1026.5z"></path>
	<path class="st67" d="M1234.4,905.5c0,0-12.5-11.5-41.1,4c-28.5,15.5-51.6,48-53,77.5c-1.4,26.1,21.4,45.5,57,46.5   c26.5,1,42.5-2,50.6-4c-2-2.4-12.6-15.6-12.6-15.6L1234.4,905.5L1234.4,905.5L1234.4,905.5L1234.4,905.5z"></path>
	<path class="st68" d="M1222.1,912c0,0-3-2.4-12,2.4c-7.5,4-18.4,14.6-26.9,22c-5.5,4.5-8.9,6.5-12,9.9c-12.6,15-23.1,39.5-17,51.6   s26.1,26.1,77.1,16.6l-9.4-102.5l0,0H1222.1L1222.1,912z"></path>
	<path class="st66" d="M1205.5,937.1c0,0-8.1,12.5-8.1,32.6c0,20.4,11.5,53,54,55.4c32.6,2,54.4-46.9,78.1-65.9   c18-14.6,28.9-15,28.9-15s-18.4-20-67.5-45.9c-48.6-26.1-103-29.5-132.5,10.5c14-1,59.1-12.5,59.1-12.5l22.1,7.1L1205.5,937.1   L1205.5,937.1L1205.5,937.1L1205.5,937.1L1205.5,937.1z"></path>
	<path class="st69" d="M1269,963.6c-1.4-3-2.4-7.1,3.4-8.1c5.9-1,8.5-0.4,10.5,4s4,8.1,1,9.9C1280.9,971,1273,969.4,1269,963.6   L1269,963.6L1269,963.6z M1259.5,935.1c0,0-2,1.4-1-1.4c0.4-3.4,3-9.5,9.5-8.1s5.1,8.5,4,10.5s-6.5,5.5-10.5,4   c-1.5-0.4-2.5-1.7-2.5-3.3C1258.9,936.2,1259.1,935.6,1259.5,935.1L1259.5,935.1z"></path>
	<path class="st70" d="M712,948c0,0,16,12,34.6,11.5c18.4-0.4,42.1-19.4,53-31.6c6.5-7.1,12-14.6,18-20.4c5.1-5.1,8.5-7.5,10.9-10.9   c3.4-4,7.1-11.5,8.9-14c-4.4,3.4-10.9,9.5-17.6,13.6c-6.5,4-20.4,11.5-26.1,13.5c-5.5,2-62.1,32-62.1,32L712,948L712,948L712,948z"></path>
	<path class="st71" d="M736.4,798.5c0,0,8.9-6.1,26.1-9.9c16.6-4,50-7.1,50-7.1l27.5,12l10.9,41.5l-20,43.1l-25.5,16l-28.9-46.5   L736.4,798.5L736.4,798.5L736.4,798.5L736.4,798.5z"></path>
	<path class="st72" d="M700.4,835.6l-9.5,7.1c0,0,2.4-4.5,4.5-18c2-13.5,12.5-46.5,27.9-65.5s15-18,15-18c-0.6-0.1-1.2-0.2-1.8-0.2   c-2.3,0-4.5,0.8-6.3,2.2c2-4.5,15-20.5,27.9-28.5s18-10.5,31.5-4c13.6,6.5,17,9.9,26.9,9.5s18.4-10.9,18.4-10.9s2,6.5-5.5,21.4   c-7.5,15-37,45.5-37,45.5L731,818.3L700.4,835.6L700.4,835.6L700.4,835.6L700.4,835.6L700.4,835.6z"></path>
	<path class="st73" d="M745.9,793.5c0,0,44.5,6.1,58.1-6.5c0.4,1.4,2,1.4,2,2.4c-0.1,0.8-0.5,1.5-1,2c1.5-0.2,3-0.4,4.5-0.4   c1.8,0.5,3.6,0.9,5.5,1c1.5,0,3-0.2,4.5-0.4c-0.3,2-1.4,3.9-3,5.1c2,0,4,0.4,4,2s0.4,6.5-2,7.5c-0.8,0.2-1.6,0.3-2.4,0.3   c-1.3,0-2.5-0.3-3.6-0.7c0.2,3.8,1.2,7.6,3.1,10.9c4,7.5,12.5,16,24,13.5c0,0,6.1,14.6-19.4,46.9c-3.4,4.5-7.1,10.5-11.5,15.6   c-1.8,3.8-3.1,7.8-4,11.9c-0.9,4.1,43.1-16.6,55.4-54.4c12.5-38,15-75.4,12.5-110.4c-0.4-9.9-2-17-4.5-22.1   c-6.1-12.5-23.1-10.5-29.9-3.4c-9.9,9.9-26.5,34.6-49.6,51.6C764.9,783,763.9,786,745.9,793.5L745.9,793.5L745.9,793.5L745.9,793.5   L745.9,793.5z"></path>
	<path class="st65" d="M692.6,848.1c0,0-8.5,5-13,24c-4.5,19.4,4,43.1,8.9,50.6s16,27.9,39,28.9c5.7,0,11.3-1.2,16.6-3.4   c8-3.7,15.6-8.4,22.5-14c9.9-7.5,18-13.9,17-14.6c-2.4-1-61.1-49.6-61.1-49.6l-22.1-24.6L692.6,848.1L692.6,848.1L692.6,848.1   L692.6,848.1z"></path>
	<path class="st74" d="M748,928.6c0,0,11.9-1,19-5.5s-41.5-52.6-41.5-52.6l3.4,52L748,928.6L748,928.6z"></path>
	<path class="st75" d="M696.4,844.5c0,0-6.1,11.5-6.1,14.6c-1,9.9,2,41,4.5,51c2.4,10.5,15.6,26.5,32.6,26.5   c10.5,0,25.1-6.5,25.1-8.1c0-2-15-4-19-11.5c-2.4-4-3.4-14-4-24c-0.4-6.5-0.4-13.5,2-16c5.5-6.1,6.5-23.5,6.5-23.5l19.4-36.1h-25.5   l-30.6,19L696.4,844.5z"></path>
	<path class="st66" d="M688.9,855.6c0,0,20-26.5,38-32.6s26.1-2.4,26.1-2.4l-10.5,26.9l-15,16.6l1,8.5c0,0-2.4,22.5,12.5,38   c15,15.6,26.1,15,32.6,15s25.1-5.5,34.6-27.9c8.5-21,15.6-48-1.4-75c-16.6-26.9-45.9-27.9-51.6-27.9   C749.6,794.7,705.1,796.9,688.9,855.6L688.9,855.6L688.9,855.6L688.9,855.6L688.9,855.6z"></path>
	<path class="st76" d="M1202.5,945.6c-7.5-3.4-0.4-24.5,7.1-31s17-14,33.6-15c6.1-0.4,11.9,3.4,10.9,7.5c-1.4,7.5-11.9,18-21.4,25.5   C1219.5,943,1211,949.4,1202.5,945.6z"></path>
	<path class="st77" d="M797.9,830.9c5.5-0.4,12.6,4,14,9.9c1.4,6.5-3.4,19.4-14,19.4c-8.5,0-12.9-10.5-12.9-13.5   c0.1-2.5,0.8-4.9,2-7.1C787.4,839,788.4,831.9,797.9,830.9L797.9,830.9L797.9,830.9L797.9,830.9z"></path>
	<path class="st78" d="M719.1,835.6c0,0-14,6.5-20.4,20c-3.2,7-4.9,14.6-4.9,22.3c0,3.3,0.3,6.5,0.9,9.7c1,5,6.1,17.6,9.5,22   c3.5,4.5,8.1,7.5,11.5,7.1s10.5-9.5,10.5-15s0.4-28.5,7.1-41.1C739.1,848.1,719.1,835.6,719.1,835.6L719.1,835.6L719.1,835.6   L719.1,835.6L719.1,835.6z"></path>
	<path class="st79" d="M721.1,834.5c-2.4,1.4-6.5,3.4-5.5,6.1c1,2.4,9.5,4,12.5,9.9c3.4,6.1,3.4,12.5,2.4,15.6c2.6-1.3,5-3,7.1-5.1   c4.5-5,9.9-11.9,14.6-11.9c3,0,6.1,1.4,8.9,1.4c4.5,0,8.9-1.4,9.5-6.1c1-6.1-8.5-11.5-14-10.5c1-4,2.4-9.9-2-14   c-4.5-4-18.4,3-21.4,5.1S721.1,834.6,721.1,834.5L721.1,834.5L721.1,834.5L721.1,834.5z"></path>
	<path class="st80" d="M1042.5,1259.5l29.9-8.8l8.5,6.1c0,0,6.1,12.9,15.6,14.6c-3,6.5-10.9,12-10.5,16.6s4.4,8.1,4.4,8.1   s-26.9,44.5,26.1,89.3c-12.5,5.1-28.5,12-37,16c6.1,1.4,19,4,24.5,8.9s5.5,6.5,10.5,9.5s8.1,7.1,7.1,8.9c-3.4-2-15-8.1-17-2.4   s-50,3.4-50,3.4l-80.9,15.6c0,0,3-8.1-5.5-15.6c-9.9-8.9-22,0.4-35-9.5c-17-12.9-17.6-27.9-23-33.6c5.5-3.4,16.6-8.5,43.1-12   c-1-2-4.4-8.1-2.4-13.6c2.4-7.1,12.5-11.5,9.5-20c4.4-1,6.5-1,17.6-15c10.5-14,17-17,25.1-18s12.9,0,27.9-14   c10.5-9.9,7.1-18.4,7.1-18.4S1044.9,1273.4,1042.5,1259.5L1042.5,1259.5L1042.5,1259.5L1042.5,1259.5L1042.5,1259.5z"></path>
	<path class="st81" d="M954.1,1264c0.4-2,2-3,12.9-2s80.1-6.5,98.9-7.5c19-1.4,86-0.4,118.5,6.5c32.6,6.9,65.5,15,81.5,19   c16,4.5,21,6.1,20.4,8.1c-0.4,2-4,4-6.1,3.4c-2-0.4-55-16.6-71.4-20s-73-12.5-104-12c-28.9,0.4-40.4-0.4-64.9,2.4   c-24.5,3-64.9,7.1-77.1,5.5C951,1266,953.4,1266,954.1,1264L954.1,1264L954.1,1264L954.1,1264z"></path>
	<path class="st82" d="M1116.9,1422.5c0,0,41.5,22.5,56.4,50c10.9,20.4-6.5,30.6-6.5,30.6s23.5,0,20.4,12.9   c-1.4,8.1-40.5,29.9-66.6,41.4c-26.5,11.5-25.5,10.9-38.4,12.9c-12.5,2-46.9-4-54,6.1s-4,20.4-2,22.1c2,1.4,18.4,3.4,18.4,3.4   s-3.4,9.5-37.4,10.5s-42.5,3.4-44.5,7.1c-2,3.4,6.5,1.4,22,4c15.6,2.4,37.4,4,37.4,4s-7.1,6.1-25.5,10.9c-21,5.4-54,10.5-63.9,16.6   c5.1,3.4,12.5,8.5,16,8.9c-8.5,2-20.4,6.5-22.5,8.1c3,2,7.1,4.4,7.1,4.4s-17,20.4-26.9,25.5s-66.9,31.5-86.6,26.5   c-48.9-12.9-55-66.6-66.9-70.6c-18-6.1-26.5,6.1-42.5-2.4c7.1-5.1,10.9-8.1,18.4-11.5c-8.1-4-50-30.5-50-30.5   c-4.3-9.5-9.3-18.9-14.6-27.9c-8.1-14-20-32.6-28.9-49c-19.4-36-20.4-52.6-38-73c3-4,13.5-3.4,13.5-3.4l147.5,48.5l261.5,7.6   l68-97.1L1116.9,1422.5L1116.9,1422.5L1116.9,1422.5z"></path>
	<path class="st83" d="M729.6,1570.6c1.6,1.8,3.4,3.3,5.5,4.4c5.1,3.4,12.6,7.5,17.6,13.6c2-3,7.1-8.5,16,0s20,2.4,26.9,4.4   c7.1,2.4,7.5,3.4,7.5,3.4s4-3.4,12.9-7.1c5.5-2,11.9-3.4,19-5.4c6.5-1.4,13.6-3.4,18.4-3.4c4.5,3,20.4,20,84.5-5.1   c60.5-23.5,74.4-26.1,84.6-22.5c1-2.4,2-7.1,17.6-6.5c0-6.5-12.9-28.5-12.9-28.5l-71.4-24.5h-39.1L799.6,1515l-64.9,37   L729.6,1570.6L729.6,1570.6L729.6,1570.6z"></path>
	<path class="st84" d="M690.5,1529.5c0,0,1.4,10.9,17.6,22.5c16,11.5,21,18.4,21,18.4s3-4,5.5-8.1c2.4-4.5,4.5-9.5,8.5-10.9   c8.1-3.4,26.5,3,30.5,2c3.4-1,2.4-8.1,6.1-8.1c8.5-0.4,13.9,5.4,17,5.4s10.5-0.4,11.5-2s1.4-18.4,12.9-26.5c12.5-8.9,27.9-5.1,32-3   c0,3,0.4,10.5,8.5,10.9s8.9-1,16,1.4s15.6-0.4,19.4,11.5c3.4-1,11.5-2,9.5-13.6c4-3,7.5-5.1,16-17c2-3,5.5-6.5,8.1-10.9   c7.1,0,15.6-1.4,26.9,8.5c-3.4,2.4-5.5,4-6.5,6.5c3,2.9,5.7,6.1,8.1,9.5c3,4,5.1,8.9,8.9,9.9c8.5,2.4,22.4-1,38,0   c15,1,27.5,6.5,33,9.9c2-1,2-1.4,7.1-0.4s8.9,1.4,3.4-5.1c3,1.4,6.5,4.4,9.5,1.4s5.5-7.5,13.9-8.5c8.5-1,11.5,0.4,15-8.5   c4.4-10.9-10.9-10.9-10.9-10.9s7.1-6.5,15-15c9.5-8.9,20.4-20.4,23.1-34.6c4.4-26.1-21-29.5-21-29.5l-123.6,38l-151.1-7.5   L690.5,1529.5L690.5,1529.5L690.5,1529.5L690.5,1529.5L690.5,1529.5z"></path>
	<path class="st85" d="M579.5,1172.5c0,0-4,5.1-6.5,17s-1.4,10.5-3.4,19s-26.9,93-17.6,121.6c9.3,28.5,25.5,39,35.6,62.1   c2,5.1,4,8.1,5.1,12.5c3.4,15,0.4,26.5,4.5,41.5c1.4,5.1,5.1,10.9,10.5,17c12,12.5,31.6,24.5,40,33c11.9,12.5,28.9,38,50.6,40.4   c11.5,1.4,27.9-3.4,41.5-11.5c12-7.5,19.4-18,32-24c8.9-4.5,18.4-6.1,26.9-8.1c17.6-3.4,33.6-4,43.1-2c14.6,3,48.9,13.6,68,13.6   c14.9-0.2,29.7-2.3,44.1-6.1c28.9-8.5,63.9-23.1,87-29.5c13.5-4,24.5-5.1,35.6-7.5c19-4.4,35-10.5,44.1-22.1   c-6.1-7.1-13.6-18-54-17.6c-45.9,1-98.9,26.5-125,30.6s-37.4,7.5-66.6-3c-28.6-10.6-29.5-17.7-29.5-17.7s-30-21-42.5-74.4   c-12.5-53.5,0-92.4,32.6-129.4c8.5-9.5,6.5-18,6.5-18s21.4-28.9,15.6-56c-6.5-26.9-47.9-21.4-47.9-21.4L579.5,1172.5L579.5,1172.5   L579.5,1172.5L579.5,1172.5L579.5,1172.5z"></path>
	<path class="st86" d="M614.1,1262.6c-1.6,3-2.5,6.4-2.5,9.8c0,0.4,0,0.7,0,1.1c0.4,5.5,2,12.5,18.4,28.5   c14,13.9,10.9,29.5,10.9,29.5s7,1.4,26.1-7.5c15-7.1,20,5.5,20,5.5c4.3-2.3,9.1-3.8,14-4.5c4.4-0.4,8.7-1.8,12.5-4s17.6,18,33,26.5   c14,7.5,22.1,12.5,28.9,7.5c6.5-4.4,6.5-13.6,6-17.6c-1.6-3.7-3.6-7.3-6-10.5c-4.5-6.5-11.5-14-12-20c-1-13.9,10.5-30.6,8.1-34.6   s-11.5-5.1-34,3C714.3,1283,614,1262.6,614.1,1262.6L614.1,1262.6L614.1,1262.6L614.1,1262.6L614.1,1262.6z"></path>
	<path class="st87" d="M667.1,1353c0,0-11.5-10.9-7.5-63.9c0.3,0,0.6,0,1,0c4.6,0,9.1,0.5,13.6,1.4   C678.6,1291.4,680.4,1331.5,667.1,1353z"></path>
	<path class="st66" d="M585,1132.1c1.6-1.2,3.1-2.5,4.5-4c-4,7.5-22.5,37.4-7.5,84.6c15,46.9,52.6,81.9,98.9,83.5   c46.3,1.6,70.7-21,98.5-55c10.9-13.6,23.5-30.6,34.6-42.1c16.6-18,29.5-23.1,29.5-40.4c0-35.6-36.4-51.6-90-67.6s-102-14-127-3.1   C602,1099.9,591.4,1112.5,585,1132.1L585,1132.1L585,1132.1L585,1132.1z"></path>
	<path class="st88" d="M757.1,1368.9l4-2c0,0,1-16,7.5-15.6c6.5,1,9.5,9.5,8.9,12.6c-0.4,3-2,8.1-8.5,7.5   C760.5,1371.6,757,1368.9,757.1,1368.9L757.1,1368.9z"></path>
	<path class="st89" d="M739.1,1301c0,0,4-1.4,8.9,3.4c4,0,21.4-2,26.9,1.4s7.1,6.5,7.1,6.5s-20.4,4.5-31.6,0   C739.1,1308.4,739.1,1301,739.1,1301L739.1,1301L739.1,1301z"></path>
	<path class="st90" d="M829.1,1304c0-1-10.9-8.5-22.5-10.9c-2-0.4-2.4,1-4,1c-1-0.4-1.4-3.4-1.4-3.4l-6.6,3.4c0,0-1,1.4,2.4,4   c3,2.4,8.1,4.5,9.5,8.5s1.4,5.4,2,6.1c0.4,0.4,7.5,0,10.9-2C823,1308.6,829.5,1305.3,829.1,1304L829.1,1304L829.1,1304L829.1,1304z   "></path>
	<path class="st91" d="M726.9,1345.1c0,0,2-13.9,15.6-14.6c13.9-1,16.6,12.5,16.6,12.5l-8.1,8.1C751,1350.9,745,1342.4,726.9,1345.1   L726.9,1345.1L726.9,1345.1z"></path>
	<path class="st92" d="M814.9,1285c0,0-7.5,8.1-24.1,10.5c-1.4-2-4.5-6.1,0-12.5c4.5-6.5,9.5-8.5,14.6-6.5   C810,1277.2,813.7,1280.6,814.9,1285L814.9,1285z"></path>
	<path class="st90" d="M845.5,1294.9c0.4-2-1-2.4,0-3.4s6.5-3,7.5-2c0.4,0.4,0,2,0,4s0,4-1,5.4c-1.4,2-5.5,3-7.5,2.4s-2.4-3.4-2.4-4   C843,1296.9,845.5,1295.9,845.5,1294.9L845.5,1294.9L845.5,1294.9z M880,1273.1c0-1,3.4-3,5.5-3c3,0,3,2.4,3.4,3c1,0.4,1-0.4,2,1.4   s2.4,5.1,1.4,7.1s-5,3.4-6,3C884.9,1283.6,880.4,1274.5,880,1273.1L880,1273.1L880,1273.1L880,1273.1z"></path>
	<path class="st85" d="M810.5,1299.6c0,0,4.4,1,10.5,6.1c-2,1.4-5.1,3-5.1,3S815.5,1304,810.5,1299.6L810.5,1299.6z"></path>
	<path class="st65" d="M800.6,1255.1c-1-1,3-3.4,5.5-3c2.4,0.4,3.4,2,6.1,2.4c2.6,0.4,3-1,4-2s4.5-0.4,5.1,0c0.4,0.4,0.7,0.9,1,1.4   c0.1-1.6,0.8-3,2-4c1.1-0.8,2.4-1.2,3.8-1.2c0.6,0,1.1,0.1,1.7,0.2c0.4,1.4,2.4,6.5,2,7.5s-6.5,2.4-7.5,1.4c1,2.4,5.5,7.5,6.1,8.5   s-4.4,3.4-6.5,3C821,1269.1,803.6,1258.9,800.6,1255.1L800.6,1255.1L800.6,1255.1L800.6,1255.1z M850.7,1216.3   c-0.4-1-1.1-1.9-2-2.4c-1.4-0.4-6.1,0-6.1,2.4s4,16,8.5,23.1c5.1,7.1,8.5,12.9,11.9,14.6c0.6,0.3,1.3,0.4,1.9,0.4   c1.7,0,3.3-0.9,4.1-2.4c0.4-1,1.4-8.5,1-26.1s-1-34.6-2-35.6s-5-1-6.5,1C860.2,1193.2,851.1,1213.2,850.7,1216.3L850.7,1216.3   L850.7,1216.3L850.7,1216.3L850.7,1216.3z"></path>
	<path class="st92" d="M809.1,1325c0,0-7.1-4.4-14-1.4c-6.5,3-6.1,15-6.1,15c1.1,0.4,2.3,0.7,3.5,0.7c1.9,0,3.8-0.6,5.4-1.7   C802.4,1334.6,808,1329.5,809.1,1325L809.1,1325L809.1,1325L809.1,1325z"></path>
	<path class="st90" d="M822.4,1341c-0.4-4-4-4-4-6.1c0.5-2,2.3-3.4,4.4-3.4l0,0c2,0,4,2.4,6.5,4c2.4,1.4,6.1,4,6.5,7.1   s-4,11.5-8.9,11.5S823.5,1345,822.4,1341L822.4,1341L822.4,1341z M857.4,1329.5c0,0-8.1,2.4-7.5,0s2.4-3,5.1-3   c1.3-1.4,3.1-2.3,5-2.4c0.1,0,0.2,0,0.2,0c1,0,2,0.4,2.8,1c0.8,0.7,5.5-2.4,7.1-1s0.4,1.4,1.4,3c1.3,1.8,2.1,3.9,2.4,6.1   c0,1.6-6.1,5.1-10.9,4.4C857.4,1336.4,858.4,1330.5,857.4,1329.5L857.4,1329.5z M918.7,1318c0,0,2.4,1.4,0.4,3   c-1.4,1.4-8.5,4-14.6,4.4c-6.1,0-11.5,1-11.5-1s5-6.1,8.1-7.1c1.2-1.5,3.1-2.4,5-2.4l0,0c2.4,0,11.9-1,14.6-1.4c2.4-0.4,4.4,1,3,3   C923.2,1318,918.7,1318,918.7,1318L918.7,1318z M922.5,1264c0,0-3,6.5-6.5,6.5c-3.4-0.4-3.4-1.4-3.4-2.4c0-1.4,3.4-5.1,3-6.1   c-1,0-3.4,0-3-2.4c0-2,3.4-4.5,6.5-4c2.3-1.9,5.1-2.9,8.1-3c3.4,0,6.5,1,6.5,3s-4,6.5-5.5,7.5   C926.6,1264.6,924.5,1265.7,922.5,1264L922.5,1264L922.5,1264L922.5,1264z M873,1375.1c0,0-4,0.4-4,2.4c0,1,1,1,2.4,0.4   c0.8-0.1,1.6-0.2,2.4-0.4c0.4,0.4,0.4,2.4,3.4,2.4c2.5-0.3,4.9-1.2,7.1-2.4c2.4-1,4.5-2,4.5-4c-1-3.4-3-5.1-6.1-5.1   c-0.2,0-0.3,0-0.5,0c-1.4,0-2.7,0.4-3.9,1c-1.2,0.7-1-2-4.5,0s-3,2-2,3C873.6,1374.1,873,1375.2,873,1375.1L873,1375.1L873,1375.1   L873,1375.1z M859.9,1389.5c0-1,5.1-3,6.5-2.4c1.4,0.4,5.5,8.1,5.5,8.9c0,1-5,3.4-7.1,3.4s-5.5-3.4-5.5-4c0-0.4,2.4-1,2.4-1.4   C862.3,1393,859.9,1390.5,859.9,1389.5L859.9,1389.5L859.9,1389.5L859.9,1389.5z M843.9,1359.9c1-0.4,1-1.4,2.4-2.4   c0.6-0.4,1.2-0.6,1.9-0.6c0.4,0,0.8,0.1,1.1,0.2c0.7-1.3,2-2.2,3.4-2.4c2.4-0.4,4.5,0,4,1c0,3,2,5.1,2,7.5s-1.4,5.5-6.5,7.5   c-5,1.4-11.9,1.4-13,1s-2-4.4-1-6.5C839.4,1363.2,842.2,1361,843.9,1359.9L843.9,1359.9L843.9,1359.9L843.9,1359.9L843.9,1359.9z"></path>
	<path class="st85" d="M844,1376.4c0,0-3.4,2-3.4,3c-0.3,0.9-0.4,1.8-0.4,2.7c0,0.1,0,0.2,0,0.3c0,0.6,4.5-0.4,5-1   C845.4,1381.1,844,1377.5,844,1376.4L844,1376.4L844,1376.4z"></path>
	<path class="st65" d="M813.9,1366.9c2,0.4,5.5,0,8.1,1c2,1,3.4,3,1.4,5.5c-2,2.4-4,6.1-8.5,5.4c-5-0.4-9.9-3-9.9-5.1   c0-0.2,0-0.4,0-0.6c0-2.4,0.9-4.7,2.4-6.4C809.5,1365.1,810.5,1366.1,813.9,1366.9L813.9,1366.9L813.9,1366.9L813.9,1366.9z"></path>
	<path class="st92" d="M811.5,1368.9c0,0-6.5,5.1-8.1,7.5c-2,2.4-11.9,15-15,17.6c1-1.8,2.2-3.5,3.4-5.1c-4,2.6-7,6.4-8.5,10.9   c-2.4,7.5,13.6,11.5,24.1,14.6c10.5,3,14.6,4,14.6,4c-3.9-5.8-7.2-12-9.9-18.4c-4-9.5-6.1-10.5-3.4-15c2-4.5,5.1-7.5,5.1-10.9   C812.5,1371,811.5,1368.9,811.5,1368.9L811.5,1368.9L811.5,1368.9z"></path>
	<path class="st66" d="M580.9,1384.9c0.7,0.1,1.5,0.2,2.2,0.2c0.8,0,1.5-0.1,2.2-0.2c3-0.4,34.6-12,67.6-9.9   c24.6,1.5,49.2,5.6,73,12c41.5,10.9,93,32.6,126.4,44.9c8.9,3.4,17.6,9.5,24,11.9c25.5,9.9,26.5,9.9,41.5,12.6   c17.6,2.4,35.6-3.4,54.4-7.5c23-5.1,62.5-7.5,97.1-12.6c11.2-1.6,22.2-4.1,32.9-7.5c10.7-3.4-27.5,27.5-93.5,37.4   c-14.5,2.2-29.2,3.3-43.9,3.3c-12.2,0-24.5-0.8-36.6-2.3c-21-2-35-5.1-45.5-8.1c-11.9-3.4-36.4-12.5-66.5-20   c-21-5.5-44.5-9.5-71.4-14.6C678.5,1412.5,606.5,1398.6,580.9,1384.9L580.9,1384.9L580.9,1384.9L580.9,1384.9z"></path>
	<line class="st0" x1="546.5" y1="1128.4" x2="378" y2="971.1"></line>
	<path class="st4" d="M506.5,1259.9c-16,13.6-33,26.5-49.5,39l-50,38.4c-17,12.5-33.6,25.5-50.6,38s-34,24.5-52,36   c16-13.6,33-26.1,50-38.4s34.6-24.4,51-36.9l50-38.4C472.5,1285,489.1,1272.1,506.5,1259.9L506.5,1259.9z M418.1,1401.5   c0,0,18-15,40.4-36c27.9-26.1,62.1-59.5,73-65.5L418.1,1401.5L418.1,1401.5L418.1,1401.5z"></path>
	<path class="st4" d="M418.1,1401.5c8.9-8.9,18.4-17.6,27.9-26.1l14.6-12.5c4.4-4,9.5-8.5,14-12.9c8.9-8.9,17.6-18.4,26.5-27.5   c4.4-4.6,9.1-8.9,14-12.9c2.4-2.2,5.2-4,8.1-5.5c2.4-1.4,5.1-4,8.5-4.5c-2,3-4.4,4.5-6.5,7.1c-2.4,2-4.5,4.5-6.5,6.5   c-4.5,4.4-9.5,8.5-14,12.6c-9.5,8.1-19.4,16-28.9,24.5s-18.4,17.6-27.9,26.1C437.5,1384.9,428,1393.4,418.1,1401.5L418.1,1401.5   L418.1,1401.5z M635.9,1228.6c0,0-65.9,64.5-79.5,75L635.9,1228.6z"></path>
	<path class="st4" d="M539,1320.6c-5.9,6.9-12.3,13.4-19,19.4l-20,19c-6.5,6.5-12.5,12.9-19.4,19.4c-7.1,6.1-13.5,12-21,17.6   l19.4-19c6.5-6.5,13.6-11.9,20.4-18.4l19.4-19C525.5,1332.9,532,1326.4,539,1320.6L539,1320.6z M542.1,1355.6   c-6.1,16.9-13.3,33.6-21.5,49.6c-17,34-42.5,76.5-53.6,98.1L542.1,1355.6L542.1,1355.6z"></path>
	<path class="st4" d="M542.1,1355.6c0,7.5-2,14-4.5,20.4c-2.4,6.4-5.1,12.9-8.1,19s-6.5,12.5-9.9,18.4s-7.5,11.9-10.5,18l-20.4,36   c-7.1,12-14,24.1-21.4,35.6c5.1-12.9,11.9-25.1,18.4-37c7.1-12,13.5-24,20-36.4c3.1-6.2,6-12.5,8.5-19c3-6.5,6-12.6,8.5-18.4   c3-6.5,5.5-12.6,8.5-18.4C534.6,1367.5,537.4,1361.4,542.1,1355.6L542.1,1355.6z"></path>
	<path class="st93" d="M614.1,1521.4c0,0-20,26.5-18,60.1C601.5,1563.9,608.4,1537,614.1,1521.4z M633.1,1548c0,0-7.1,72-12.9,107.4   C628.4,1614.5,630.1,1617.9,633.1,1548z M765.6,1659.7c0,0-29.9,88-30.5,112.5C741.5,1747,754,1695.6,765.6,1659.7L765.6,1659.7z"></path>
	<path class="st94" d="M835.6,1516c0,0,48.5,80.1,85,148.4C910.7,1630,888,1567,835.6,1516z"></path>
	<path class="st95" d="M966,1633.9c26.6,47,50.8,95.9,72.1,145.5C1034,1745,1023.1,1686.1,966,1633.9L966,1633.9z"></path>
	<path class="st96" d="M1349.5,1752c8.1-5.1,24.1-32.6,38-39.4c13.9-7.1,24.5-8.5,37-22.4c12.5-14.6,16-23.5,43.5-35   c38.4-16.6,12-38,12-38c4.2-4.2,8.8-8,13.5-11.5c9.9-7.5,21.4-16.6,20.4-32.6c-1.4-26.9-6.5-65.9-28.5-88.6   c21.4-4.4,62.5-7.5,88-13.9c29.5-7.5,43.1-18,43.1-18s-17-28.9,10.5-58s50-46.5,66.5-79.1c-19-2.4-48-12.5-122,15.6   c4,1.9,7.9,4.1,11.6,6.5s-45.5,12.5-62.1,26.5c-28.9,24.5-32.6,44.5-63.9,59.5s-62.9,10.9-89,23.1c-26.1,12.1-29.9,22.4-39.5,26.9   c2,2.4-0.4,6.5,3.4,9.9c-2.4,3.4-16.6,26.5-30.9,26.5c1.4,5.5,13.5,9.5,13.5,9.5s-8.9,6.5-31.5,8.1c11.5,12,22.4,25.1,52.6,44.1   c-2.4,5.1-12.5,12.6-8.5,22.1c4.4,9.5,16,22.5,62.1,33c-23.5,1-51,6.5-88,1.4c-37-4.4-43.1-7.1-65.9-1.4c2.4,2.4,8.9,2.4,14.6,8.9   c-6.1,0.4-44.1-4.4-57,12.6c-13.6,17.6-19.4,46.5-18.4,65.9c-7.1,3.4-14,9.5-10.5,22.1c3.4,12.5,21.4,16.6,33,24.5   c11.5,8.5,12.5,11.5,23.5,9.5c11.5-2.4,28.5-13.9,38.4-13.9s17,7.5,17,7.5s26.9-12.9,29.5-10.5c2.4,2.4,0.4,18,3,20.4   C1311.2,1775.1,1341.5,1757.1,1349.5,1752L1349.5,1752L1349.5,1752L1349.5,1752z"></path>
</g>
</svg>
