<?xml version="1.0" encoding="UTF-8"?>
<!DOCTYPE svg PUBLIC "-//W3C//DTD SVG 1.1//EN" "http://www.w3.org/Graphics/SVG/1.1/DTD/svg11.dtd">
<svg xmlns="http://www.w3.org/2000/svg" version="1.1" width="1256px" height="1230px" style="shape-rendering:geometricPrecision; text-rendering:geometricPrecision; image-rendering:optimizeQuality; fill-rule:evenodd; clip-rule:evenodd" xmlns:xlink="http://www.w3.org/1999/xlink">
<g><path style="opacity:0.997" fill="#0390ff" d="M 592.5,-0.5 C 615.833,-0.5 639.167,-0.5 662.5,-0.5C 838.351,12.0149 985.518,83.0149 1104,212.5C 1195.14,317.669 1245.64,440.003 1255.5,579.5C 1255.5,602.5 1255.5,625.5 1255.5,648.5C 1240.85,830.329 1163.18,978.495 1022.5,1093C 911.449,1178.97 785.449,1224.47 644.5,1229.5C 633.167,1229.5 621.833,1229.5 610.5,1229.5C 422.541,1221.26 266.708,1146.93 143,1006.5C 56.7392,902.921 8.90586,783.588 -0.5,648.5C -0.5,625.833 -0.5,603.167 -0.5,580.5C 11.6849,415.977 77.6849,277.477 197.5,165C 309.745,64.6078 441.412,9.44114 592.5,-0.5 Z"/></g>
<g><path style="opacity:1" fill="#fefeff" d="M 595.5,34.5 C 760.828,28.4423 905.495,79.2756 1029.5,187C 1177,325.131 1238.83,494.964 1215,696.5C 1188.84,854.844 1112.01,982.011 984.5,1078C 842.523,1178.29 685.523,1213.62 513.5,1184C 344.619,1148.88 213.452,1059.38 120,915.5C 40.9398,783.781 16.6065,642.448 47,491.5C 79.6344,354.651 151.134,243.151 261.5,157C 360.263,82.4621 471.596,41.6288 595.5,34.5 Z"/></g>
<g><path style="opacity:1" fill="#0991ff" d="M 604.5,74.5 C 695.254,71.6832 781.587,89.5165 863.5,128C 860.142,135.736 856.976,143.57 854,151.5C 853.519,153.478 852.353,154.811 850.5,155.5C 699.891,89.8739 549.558,90.2072 399.5,156.5C 395.596,146.952 391.596,137.452 387.5,128C 456.261,95.2261 528.594,77.3927 604.5,74.5 Z"/></g>
<g><path style="opacity:1" fill="#0a91ff" d="M 317.5,164.5 C 323.97,172.841 329.97,181.674 335.5,191C 279.199,231.63 232.199,280.964 194.5,339C 193.5,339.667 192.5,339.667 191.5,339C 184.008,333.42 176.341,328.087 168.5,323C 184.639,295.855 203.473,270.688 225,247.5C 253.643,217.004 284.476,189.337 317.5,164.5 Z"/></g>
<g><path style="opacity:1" fill="#0a91ff" d="M 923.5,165.5 C 926.016,165.755 928.35,166.589 930.5,168C 990.257,207.088 1040.92,255.754 1082.5,314C 1074.87,319.819 1066.87,325.152 1058.5,330C 1057.5,330.667 1056.5,330.667 1055.5,330C 1014.99,273.647 965.653,226.814 907.5,189.5C 912.844,181.471 918.177,173.471 923.5,165.5 Z"/></g>
<g><path style="opacity:1" fill="#0590ff" d="M 792.5,259.5 C 811.974,257.866 830.974,260.032 849.5,266C 864.402,272.243 876.235,282.077 885,295.5C 886.816,307.082 885.15,318.082 880,328.5C 868.456,337.965 856.956,337.798 845.5,328C 836.667,317.833 827.833,307.667 819,297.5C 804.504,282.779 788.337,280.612 770.5,291C 742.788,316.241 725.288,347.408 718,384.5C 705.588,429.231 693.088,473.898 680.5,518.5C 728.484,525.297 776.484,531.963 824.5,538.5C 821.652,551.226 818.485,563.892 815,576.5C 814.326,577.578 813.326,578.245 812,578.5C 766.134,571.638 720.301,564.638 674.5,557.5C 669.112,585.771 664.112,614.105 659.5,642.5C 709.168,649.167 758.835,655.834 808.5,662.5C 805.652,675.226 802.485,687.892 799,700.5C 798.612,701.428 797.945,702.095 797,702.5C 748.207,695.172 699.374,688.172 650.5,681.5C 633.272,756.352 608.772,828.686 577,898.5C 545.983,954.771 498.149,981.604 433.5,979C 411.819,976.67 393.319,967.837 378,952.5C 368.01,936.064 370.177,921.231 384.5,908C 393.716,906.968 402.716,907.968 411.5,911C 420.35,920.532 427.85,931.032 434,942.5C 452.244,961.317 471.744,962.484 492.5,946C 511.176,926.828 524.342,904.328 532,878.5C 549.091,813.805 564.757,748.805 579,683.5C 579.499,679.179 579.666,674.846 579.5,670.5C 533.13,664.093 486.797,657.426 440.5,650.5C 441.966,637.178 443.299,623.845 444.5,610.5C 493.164,617.499 541.831,624.499 590.5,631.5C 596.293,604.12 602.293,576.787 608.5,549.5C 558.528,541.647 508.528,533.98 458.5,526.5C 460.003,512.478 461.669,498.478 463.5,484.5C 514.262,490.376 564.928,497.043 615.5,504.5C 616.833,504.167 618.167,503.833 619.5,503.5C 630.358,467.401 641.525,431.401 653,395.5C 667.477,355.704 689.977,321.204 720.5,292C 741.22,273.805 765.22,262.971 792.5,259.5 Z"/></g>
<g><path style="opacity:1" fill="#0990ff" d="M 130.5,376.5 C 140.688,379.597 150.354,383.764 159.5,389C 90.3422,537.41 90.1755,685.91 159,834.5C 159.49,835.793 159.657,837.127 159.5,838.5C 150.418,841.871 141.418,845.538 132.5,849.5C 126.298,839.758 121.132,829.424 117,818.5C 66.0672,693.054 62.0672,566.054 105,437.5C 112.442,416.662 120.942,396.329 130.5,376.5 Z"/></g>
<g><path style="opacity:1" fill="#0991ff" d="M 1116.5,376.5 C 1118.39,376.297 1119.89,376.963 1121,378.5C 1184.84,512.454 1192.84,649.787 1145,790.5C 1139.85,804.787 1134.18,818.787 1128,832.5C 1125.34,838.493 1122.17,844.16 1118.5,849.5C 1109.17,845.833 1100.17,841.666 1091.5,837C 1160.73,687.543 1160.73,538.21 1091.5,389C 1099.7,384.545 1108.04,380.378 1116.5,376.5 Z"/></g>
<g><path style="opacity:1" fill="#0a91ff" d="M 1055.5,883.5 C 1064.64,888.286 1073.31,893.953 1081.5,900.5C 1067.78,924.602 1051.62,946.935 1033,967.5C 1002.08,1001.43 968.412,1032.1 932,1059.5C 926.916,1051 921.583,1042.66 916,1034.5C 915.333,1033.5 915.333,1032.5 916,1031.5C 960.883,998.952 1000.22,960.618 1034,916.5C 1041.81,905.869 1048.98,894.869 1055.5,883.5 Z"/></g>
<g><path style="opacity:1" fill="#0a91ff" d="M 193.5,899.5 C 195.371,899.859 196.871,900.859 198,902.5C 237.846,958.351 286.679,1004.52 344.5,1041C 338.588,1048.82 332.921,1056.82 327.5,1065C 319.529,1061.51 311.862,1057.17 304.5,1052C 252.02,1014.02 206.687,968.854 168.5,916.5C 176.689,910.576 185.022,904.909 193.5,899.5 Z"/></g>
<g><path style="opacity:1" fill="#0991ff" d="M 398.5,1069.5 C 549.464,1136.15 700.464,1136.15 851.5,1069.5C 855.686,1078.72 859.686,1088.05 863.5,1097.5C 793.126,1131.51 718.792,1149.34 640.5,1151C 551.798,1153.48 467.465,1135.81 387.5,1098C 391.587,1088.66 395.253,1079.16 398.5,1069.5 Z"/></g>
</svg>
