<?xml version="1.0" encoding="UTF-8"?>
<svg version="1.1" xmlns="http://www.w3.org/2000/svg" width="400" height="400">
<path d="M0 0 C132 0 264 0 400 0 C400 132 400 264 400 400 C268 400 136 400 0 400 C0 268 0 136 0 0 Z " fill="#010101" transform="translate(0,0)"/>
<path d="M0 0 C3.53841743 15.91389769 7 32.64162337 7 49 C4.36 49.66 1.72 50.32 -1 51 C1.18399007 59.94506572 3.48998228 68.82667116 6.0546875 77.671875 C8.05722756 84.72213999 9.86025048 91.75673203 11 99 C9.58603098 99.50757862 8.16868271 100.00574925 6.75 100.5 C5.96109375 100.7784375 5.1721875 101.056875 4.359375 101.34375 C2 102 2 102 -2 102 C-2.57105469 100.95585937 -3.14210937 99.91171875 -3.73046875 98.8359375 C-10.56572605 86.40429541 -17.73057813 74.18202787 -25 62 C-28.07745908 63.21465217 -31.06176804 64.47647232 -34 66 C-40.13454989 58.09296746 -46.16180414 50.12982415 -52 42 C-52.89422436 40.7693082 -53.78877388 39.53885263 -54.68359375 38.30859375 C-55.60181271 37.03924346 -56.51978421 35.76971412 -57.4375 34.5 C-57.87513672 33.90002197 -58.31277344 33.30004395 -58.76367188 32.68188477 C-60.60090197 30.12803302 -61.99834962 28.00495115 -63 25 C-60.0460832 23.15947576 -57.08617092 21.32882635 -54.125 19.5 C-53.28324219 18.97535156 -52.44148438 18.45070313 -51.57421875 17.91015625 C-50.76855469 17.41386719 -49.96289062 16.91757813 -49.1328125 16.40625 C-48.01737061 15.71499023 -48.01737061 15.71499023 -46.87939453 15.00976562 C-45 14 -45 14 -43 14 C-42.34257812 15.33224609 -42.34257812 15.33224609 -41.671875 16.69140625 C-38.45611546 23.17653573 -35.20345188 29.6369661 -31.83203125 36.04296875 C-31.2915918 37.070271 -30.75115234 38.09757324 -30.19433594 39.15600586 C-29.11672559 41.199177 -28.0354142 43.24040092 -26.95019531 45.27954102 C-26.45229492 46.22369873 -25.95439453 47.16785645 -25.44140625 48.140625 C-24.99482666 48.98141602 -24.54824707 49.82220703 -24.08813477 50.68847656 C-23 53 -23 53 -22 57 C-17.71 55.35 -13.42 53.7 -9 52 C-9.44316888 46.12801236 -10.85878902 41.28475798 -12.95703125 35.79296875 C-14.85294883 30.7158861 -16.27933522 25.49710346 -17.78125 20.29296875 C-18.16796875 18.97232422 -18.16796875 18.97232422 -18.5625 17.625 C-18.79066406 16.83351563 -19.01882812 16.04203125 -19.25390625 15.2265625 C-19.92403739 12.97654342 -19.92403739 12.97654342 -21.15234375 11.0234375 C-22.26722988 8.36209641 -21.7576984 6.72771422 -21 4 C-18.62734939 3.32382476 -16.25244645 2.65891774 -13.875 2 C-13.20984375 1.80921875 -12.5446875 1.6184375 -11.859375 1.421875 C-7.8013795 0.30791545 -4.20314026 -0.20950232 0 0 Z " fill="#F7F7F7" transform="translate(177,56)"/>
<path d="M0 0 C1.32 3.96 2.64 7.92 4 12 C2.46472656 12.89460937 0.92945313 13.78921875 -0.65234375 14.7109375 C-12.78319054 21.78203711 -24.90493507 28.86785573 -37 36 C-35.80100302 39.0831351 -34.52299523 42.06279492 -33 45 C-40.9071959 51.13467662 -48.87753833 57.15135877 -57 63 C-58.97994361 64.43642968 -60.95912054 65.87391679 -62.9375 67.3125 C-63.81277344 67.94800781 -64.68804687 68.58351563 -65.58984375 69.23828125 C-67.14437876 70.37457831 -68.68021167 71.53713684 -70.19140625 72.73046875 C-72 74 -72 74 -74 74 C-75.23681641 72.37939453 -75.23681641 72.37939453 -76.6015625 70.1328125 C-77.09140625 69.32972656 -77.58125 68.52664063 -78.0859375 67.69921875 C-78.59382813 66.84972656 -79.10171875 66.00023437 -79.625 65.125 C-80.140625 64.28324219 -80.65625 63.44148438 -81.1875 62.57421875 C-85 56.27048198 -85 56.27048198 -85 54 C-75.34913721 48.7863155 -65.62507693 43.75702449 -55.79345703 38.89306641 C-52.45374226 37.23002848 -49.13679659 35.52133248 -45.8203125 33.8125 C-44 33 -44 33 -42 33 C-42.54140625 31.62714844 -42.54140625 31.62714844 -43.09375 30.2265625 C-43.5578125 29.03804687 -44.021875 27.84953125 -44.5 26.625 C-44.9640625 25.44164062 -45.428125 24.25828125 -45.90625 23.0390625 C-47 20 -47 20 -47 18 C-47.83660156 18.30292969 -48.67320313 18.60585937 -49.53515625 18.91796875 C-61.21663647 23.12226673 -72.9743675 27.07217378 -84.8125 30.8125 C-85.50069824 31.03164062 -86.18889648 31.25078125 -86.89794922 31.4765625 C-91.76434917 33 -91.76434917 33 -94 33 C-96.78344813 28.16518873 -97.65157492 24.06291871 -98.1875 18.625 C-98.26935547 17.88894531 -98.35121094 17.15289062 -98.43554688 16.39453125 C-98.63392556 14.59745375 -98.81840577 12.79885107 -99 11 C-88.80609506 8.86361779 -78.60809053 6.83702475 -68.3125 5.25 C-67.51295898 5.12262451 -66.71341797 4.99524902 -65.88964844 4.86401367 C-60.54143103 4.06736375 -55.40713734 3.89218071 -50 4 C-49.34 6.97 -48.68 9.94 -48 13 C-47.14664063 12.72027344 -46.29328125 12.44054687 -45.4140625 12.15234375 C-33.21221156 8.24020391 -20.8617905 4.94308049 -8.47338867 1.67675781 C-2.3452381 0 -2.3452381 0 0 0 Z " fill="#F7F7F7" transform="translate(155,212)"/>
<path d="M0 0 C1.40557304 2.03823012 2.68539281 4.05776906 3.9375 6.1875 C4.28490234 6.76564453 4.63230469 7.34378906 4.99023438 7.93945312 C6.00000756 9.62240843 7.00014385 11.31113408 8 13 C8.59941406 13.90363281 9.19882812 14.80726563 9.81640625 15.73828125 C10.20699219 16.48464844 10.59757812 17.23101562 11 18 C10 21 10 21 8.04492188 22.20751953 C7.19478516 22.59536621 6.34464844 22.98321289 5.46875 23.3828125 C4.5202417 23.82391357 3.5717334 24.26501465 2.59448242 24.71948242 C1.06271362 25.41521362 1.06271362 25.41521362 -0.5 26.125 C-8.78648946 29.97333692 -16.93508713 33.96218896 -24.9453125 38.35791016 C-29.80354495 41 -29.80354495 41 -32 41 C-29.525 47.435 -29.525 47.435 -27 54 C-22.28996814 53.42505257 -17.98300903 52.50468445 -13.47265625 51.0390625 C-12.26802734 50.64976562 -11.06339844 50.26046875 -9.82226562 49.859375 C-8.58154297 49.45203125 -7.34082031 49.0446875 -6.0625 48.625 C-4.2072168 48.02558594 -4.2072168 48.02558594 -2.31445312 47.4140625 C2.71077191 45.7810658 7.7120323 44.1485433 12.62890625 42.2109375 C16 41 16 41 20 41 C23.32739994 48.10853623 25.40665997 55.07013052 25 63 C22.36687882 64.31656059 19.95250207 64.5046337 17.03125 64.90234375 C15.81953125 65.07056641 14.6078125 65.23878906 13.359375 65.41210938 C12.08578125 65.58548828 10.8121875 65.75886719 9.5 65.9375 C1.95942719 66.96611548 -5.50876176 68.05664264 -12.95800781 69.6184082 C-16.6824929 70.31441133 -20.22810771 70.12167394 -24 70 C-24.66 67.03 -25.32 64.06 -26 61 C-26.92554688 61.27972656 -27.85109375 61.55945313 -28.8046875 61.84765625 C-38.08497677 64.62773274 -47.40564158 67.25639358 -56.75 69.8125 C-57.88034668 70.12646729 -59.01069336 70.44043457 -60.17529297 70.76391602 C-61.24666504 71.05451904 -62.31803711 71.34512207 -63.421875 71.64453125 C-64.37674805 71.90596924 -65.33162109 72.16740723 -66.31542969 72.43676758 C-68.96205234 72.99203845 -71.3050403 73.10612245 -74 73 C-74.50833591 71.75336669 -75.00631145 70.50250613 -75.5 69.25 C-75.7784375 68.55390625 -76.056875 67.8578125 -76.34375 67.140625 C-77 65 -77 65 -77 61 C-48.84846857 44.74285575 -48.84846857 44.74285575 -37 38 C-38.19899698 34.9168649 -39.47700477 31.93720508 -41 29 C-39.35876136 27.6195189 -37.71170994 26.24594818 -36.0625 24.875 C-35.14597656 24.10929687 -34.22945313 23.34359375 -33.28515625 22.5546875 C-30.1351523 20.02535688 -26.78985314 17.84414125 -23.4152832 15.62841797 C-18.2992798 12.17913639 -13.41394748 8.39974472 -8.49023438 4.68359375 C-7.68005859 4.07902344 -6.86988281 3.47445312 -6.03515625 2.8515625 C-5.3069165 2.30322754 -4.57867676 1.75489258 -3.82836914 1.18994141 C-2 0 -2 0 0 0 Z " fill="#F8F8F8" transform="translate(319,114)"/>
<path d="M0 0 C1.75390625 2.2734375 1.75390625 2.2734375 3.5625 5.375 C3.89475586 5.93719238 4.22701172 6.49938477 4.56933594 7.07861328 C5.72613411 9.04496004 6.86279914 11.02225938 8 13 C8.94065104 14.61502343 9.88209355 16.22958608 10.82421875 17.84375 C14.91860685 24.87534253 18.9670992 31.93300093 23 39 C26.08510827 37.80023567 29.05047042 36.49997444 32 35 C38.30430749 43.05471341 44.39859342 51.23944707 50.35620117 59.55419922 C50.87287354 60.27494629 51.3895459 60.99569336 51.921875 61.73828125 C52.42525391 62.44162598 52.92863281 63.1449707 53.44726562 63.86962891 C55.54267474 66.74455657 57.71776499 69.55631367 59.90722656 72.36010742 C61 74 61 74 61 76 C59.37939453 77.23681641 59.37939453 77.23681641 57.1328125 78.6015625 C56.32972656 79.09140625 55.52664063 79.58125 54.69921875 80.0859375 C53.84972656 80.59382813 53.00023437 81.10171875 52.125 81.625 C51.28324219 82.140625 50.44148438 82.65625 49.57421875 83.1875 C43.27048198 87 43.27048198 87 41 87 C40.68361572 86.36199463 40.36723145 85.72398926 40.04125977 85.06665039 C31.53750988 67.92139818 31.53750988 67.92139818 22.59204102 51.00415039 C20 46.20817821 20 46.20817821 20 44 C13.565 46.475 13.565 46.475 7 49 C7.6035058 54.44137987 8.92525962 59.25763294 10.72265625 64.41796875 C11.12006264 65.58746819 11.12006264 65.58746819 11.52549744 66.78059387 C12.36534335 69.25159653 13.21293272 71.71982415 14.0625 74.1875 C15.18531034 77.44950952 16.30013298 80.71408899 17.41015625 83.98046875 C17.66950455 84.72532028 17.92885284 85.47017181 18.19606018 86.2375946 C19.37609352 89.71191297 20 92.28768146 20 96 C15.16518873 98.78344813 11.06291871 99.65157492 5.625 100.1875 C4.88894531 100.26935547 4.15289062 100.35121094 3.39453125 100.43554688 C1.59745375 100.63392556 -0.20114893 100.81840577 -2 101 C-3.28112608 98.43774784 -3.49781266 96.12602324 -3.90234375 93.28515625 C-4.07056641 92.12306641 -4.23878906 90.96097656 -4.41210938 89.76367188 C-4.58548828 88.54228516 -4.75886719 87.32089844 -4.9375 86.0625 C-6.02054171 78.48120802 -7.13104669 70.93168091 -8.62280273 63.41845703 C-9.22097123 59.58320971 -9.12701005 55.87380642 -9 52 C-6.03 51.34 -3.06 50.68 0 50 C-0.47179687 48.42025391 -0.47179687 48.42025391 -0.953125 46.80859375 C-3.45619057 38.38704635 -5.86600802 29.9554182 -8.08203125 21.453125 C-8.67406232 19.22608047 -9.29447579 17.00629569 -9.94921875 14.796875 C-10.37654297 13.35054688 -10.37654297 13.35054688 -10.8125 11.875 C-11.06644531 11.04742187 -11.32039062 10.21984375 -11.58203125 9.3671875 C-12.0787657 6.55390642 -11.91403382 4.7055401 -11 2 C-4.1397304 -1.88317147 -4.1397304 -1.88317147 0 0 Z " fill="#F8F8F8" transform="translate(225,243)"/>
<path d="M0 0 C4.29 0.33 8.58 0.66 13 1 C13 33.67 13 66.34 13 100 C-3 100 -3 100 -10 99 C-9.16006141 90.28563713 -7.64763469 81.69935469 -6.15673828 73.07739258 C-4.831674 65.39220988 -3.65829987 57.77242693 -3 50 C-5.97 49.67 -8.94 49.34 -12 49 C-10.59016779 40.10854996 -8.37012576 31.48549176 -6 22.8125 C-5.46343845 20.83308183 -4.9281569 18.85332092 -4.39306641 16.87350464 C-3.89038396 15.01394083 -3.38661534 13.15467074 -2.8828125 11.29541016 C-1.8768308 7.54022736 -0.92138451 3.7767167 0 0 Z " fill="#F9F9F9" transform="translate(187,246)"/>
<path d="M0 0 C3.38230658 1.52673561 6.10259949 3.50252978 9 5.8125 C10.2684375 6.81216797 10.2684375 6.81216797 11.5625 7.83203125 C14.04416309 10.03927967 15.95942485 12.38861386 18 15 C17.16283951 15.83493988 16.32567902 16.66987976 15.46315002 17.53012085 C7.58771704 25.3853134 -0.28509789 33.24312138 -8.15533352 41.10352135 C-12.20192457 45.14488587 -16.24944387 49.18531167 -20.29907227 53.22363281 C-24.20453702 57.11826054 -28.10757926 61.01530068 -32.0089283 64.91405106 C-33.50045163 66.40372162 -34.99285718 67.89250938 -36.48614311 69.38041306 C-38.57177427 71.45882302 -40.65429336 73.54030288 -42.73608398 75.62255859 C-43.35898819 76.24186752 -43.9818924 76.86117645 -44.62367249 77.49925232 C-47.68544242 80.46544724 -47.68544242 80.46544724 -50 84 C-53.39192363 83.40716379 -55.2107757 82.23256811 -57.75 79.9375 C-58.36359375 79.38964844 -58.9771875 78.84179688 -59.609375 78.27734375 C-60.06828125 77.85582031 -60.5271875 77.43429688 -61 77 C-59.54700884 71.79344834 -57.16698491 67.78700415 -54.25 63.3125 C-50.74235034 57.82472554 -47.43947228 52.30603494 -44.3828125 46.55078125 C-42.06794387 42.28069872 -39.53409918 38.14262313 -37 34 C-33.42229452 35.38297859 -30.25154807 36.95616979 -27 39 C-26.7834375 38.32839844 -26.566875 37.65679687 -26.34375 36.96484375 C-24.57214424 33.05598105 -22.1192844 29.94259106 -19.5 26.5625 C-18.41660912 25.14296372 -17.33460335 23.72236938 -16.25390625 22.30078125 C-15.71008301 21.58615723 -15.16625977 20.8715332 -14.60595703 20.13525391 C-11.73328756 16.31580009 -8.97257481 12.4178654 -6.2109375 8.51782227 C-4.17872405 5.64818188 -2.12725438 2.80009202 0 0 Z " fill="#F8F8F8" transform="translate(285,82)"/>
<path d="M0 0 C32.67 0 65.34 0 99 0 C99 15.75 99 15.75 97 22 C91.69421202 22.09934834 86.79106473 21.80130276 81.53515625 20.94140625 C80.85754745 20.8327977 80.17993866 20.72418915 79.48179626 20.61228943 C77.34103191 20.26822233 75.20174939 19.91585275 73.0625 19.5625 C70.24137734 19.10239862 67.41969184 18.64587268 64.59765625 18.19140625 C63.92868317 18.08325592 63.25971008 17.97510559 62.57046509 17.86367798 C57.72277895 17.08969038 52.88528355 16.47488231 48 16 C47.67 18.97 47.34 21.94 47 25 C35.49920531 22.80439374 24.26358118 19.70666243 12.9765625 16.62109375 C8.3313453 15.3520245 3.67755701 14.14378219 -1 13 C-0.67 8.71 -0.34 4.42 0 0 Z " fill="#FAFAFA" transform="translate(247,200)"/>
<path d="M0 0 C6.11250631 5.01275309 11.65612765 10.5382308 17.21747208 16.14230728 C18.91403089 17.8517683 20.61381528 19.55796425 22.31442261 21.26339722 C25.92078377 24.881114 29.52317924 28.50276348 33.125 32.125 C37.30906224 36.33272775 41.49476903 40.53879226 45.68471909 44.74065781 C47.35350122 46.41588796 49.01922662 48.09411653 50.68484497 49.77249146 C51.71308743 50.80436812 52.74147149 51.83610371 53.77001953 52.86767578 C54.66157745 53.76447052 55.55313538 54.66126526 56.47171021 55.5852356 C58.97123597 58.05460096 58.97123597 58.05460096 61.82687378 60.19577026 C62.54400543 60.79116608 63.26113708 61.38656189 64 62 C64 62.66 64 63.32 64 64 C64.61875 64.2475 65.2375 64.495 65.875 64.75 C68 66 68 66 70 70 C66.535 74.455 66.535 74.455 63 79 C58.95004074 77.3800163 55.49804326 75.67332851 51.73828125 73.515625 C51.14758347 73.17754822 50.55688568 72.83947144 49.94828796 72.4911499 C48.70106629 71.77653814 47.45472813 71.06038238 46.20922852 70.34277344 C44.33731237 69.2642953 42.46288413 68.19030475 40.58789062 67.1171875 C33.67820932 63.15584299 26.80867248 59.13316718 20 55 C21.19899698 51.9168649 22.47700477 48.93720508 24 46 C11.85003555 36.5851536 11.85003555 36.5851536 -0.640625 27.6328125 C-5.15536785 24.50837125 -9.56977358 21.24265622 -14 18 C-12.51513069 13.19862618 -9.83165816 10.29626512 -6.4375 6.75 C-5.93025391 6.20859375 -5.42300781 5.6671875 -4.90039062 5.109375 C-3.28495794 3.38854125 -1.66911695 1.66911695 0 0 Z " fill="#F8F8F8" transform="translate(96,97)"/>
<path d="M0 0 C11.06377662 2.69073721 22.05758952 5.60746396 33.03662109 8.62524414 C34.64657959 9.06404907 34.64657959 9.06404907 36.2890625 9.51171875 C37.24506348 9.77428467 38.20106445 10.03685059 39.18603516 10.30737305 C42.09100398 11.02239964 45.049032 11.508172 48 12 C47.67 16.29 47.34 20.58 47 25 C14.33 25 -18.34 25 -52 25 C-52 9.25 -52 9.25 -51 3 C-44.05674336 2.77946623 -37.80194496 3.60709678 -31 4.9375 C-21.31468097 6.73963848 -11.84071792 7.73581965 -2 8 C-1.34 5.36 -0.68 2.72 0 0 Z " fill="#FBFBFB" transform="translate(106,175)"/>
<path d="M0 0 C3.39192363 0.59283621 5.2107757 1.76743189 7.75 4.0625 C8.36359375 4.61035156 8.9771875 5.15820312 9.609375 5.72265625 C10.06828125 6.14417969 10.5271875 6.56570312 11 7 C9.51927541 10.99157875 7.63351991 14.57132255 5.515625 18.26171875 C5.00850983 19.14776543 5.00850983 19.14776543 4.4911499 20.05171204 C3.77653814 21.29893371 3.06038238 22.54527187 2.34277344 23.79077148 C1.2642953 25.66268763 0.19030475 27.53711587 -0.8828125 29.41210938 C-4.84415701 36.32179068 -8.86683282 43.19132752 -13 50 C-16.57770548 48.61702141 -19.74845193 47.04383021 -23 45 C-23.27980713 45.58612061 -23.55961426 46.17224121 -23.84790039 46.77612305 C-24.92177316 48.84900015 -26.0854226 50.67977488 -27.43359375 52.58203125 C-27.9126416 53.25991699 -28.39168945 53.93780273 -28.88525391 54.63623047 C-29.39749512 55.35439941 -29.90973633 56.07256836 -30.4375 56.8125 C-30.96520996 57.5564502 -31.49291992 58.30040039 -32.03662109 59.06689453 C-36.14335611 64.83981159 -40.31147937 70.56673576 -44.52124023 76.26489258 C-46.40336657 78.81271366 -48.24244286 81.3636643 -50 84 C-55.04605129 82.49853841 -58.10979749 79.43322694 -61.8125 75.875 C-62.7087207 75.03001953 -62.7087207 75.03001953 -63.62304688 74.16796875 C-65.08805594 72.7850002 -66.54486312 71.39335215 -68 70 C-62.73888066 63.54984779 -56.86087727 57.74471069 -50.96227837 51.88711357 C-49.08872627 50.02644891 -47.21842442 48.16256998 -45.34889221 46.29786682 C-41.38124125 42.34158185 -37.40966577 38.38925135 -33.4375 34.4375 C-28.8275326 29.85120202 -24.21922604 25.2632604 -19.61512947 20.67106819 C-17.77984913 18.84223063 -15.94156456 17.01645076 -14.10313416 15.19078064 C-12.97021846 14.06149994 -11.83744431 12.93207721 -10.70483398 11.80249023 C-9.94644981 11.05185555 -9.94644981 11.05185555 -9.17274475 10.28605652 C-5.89449771 7.00829315 -2.9200387 3.59287841 0 0 Z " fill="#F9F9F9" transform="translate(165,234)"/>
<path d="M0 0 C15.75 0 15.75 0 22 1 C22.37336578 8.62049136 20.9481544 15.77586412 19.5625 23.25 C17.91682446 32.16522825 16.55310335 40.94463816 16 50 C18.97 50.33 21.94 50.66 25 51 C24.67406819 55.97046014 24.07170284 60.17009598 22.25 64.8125 C19.85963893 70.95790102 18.35397555 77.25090982 16.83886719 83.65551758 C15.50649747 89.22370354 13.87773084 94.5899581 12 100 C8.04 99.67 4.08 99.34 0 99 C0 66.33 0 33.66 0 0 Z " fill="#FBFBFB" transform="translate(200,54)"/>
<path d="M0 0 C3.32799826 1.2679483 6.39816862 2.69414798 9.484375 4.46875 C10.3297583 4.95311523 11.1751416 5.43748047 12.04614258 5.93652344 C13.384552 6.71044434 13.384552 6.71044434 14.75 7.5 C15.66998779 8.02883789 16.58997559 8.55767578 17.5378418 9.10253906 C26.05922147 14.0105013 34.53947571 18.98799872 43 24 C41.61702141 27.57770548 40.04383021 30.74845193 38 34 C38.721875 34.24621094 39.44375 34.49242187 40.1875 34.74609375 C43.31591418 36.14084507 45.41152061 37.8252015 48 40.0625 C54.07418278 45.1556573 60.44630362 49.55284888 67 54 C68.94002074 55.3505529 70.87777726 56.70436836 72.8125 58.0625 C73.62332031 58.63097656 74.43414062 59.19945312 75.26953125 59.78515625 C75.84058594 60.18605469 76.41164063 60.58695312 77 61 C75.47326439 64.38230658 73.49747022 67.10259949 71.1875 70 C70.18783203 71.2684375 70.18783203 71.2684375 69.16796875 72.5625 C66.96072033 75.04416309 64.61138614 76.95942485 62 79 C39 56 16 33 -7 10 C-6.02223933 8.51990357 -5.0427506 7.04094856 -4.0625 5.5625 C-3.51722656 4.73878906 -2.97195312 3.91507813 -2.41015625 3.06640625 C-1 1 -1 1 0 0 Z " fill="#FAFAFA" transform="translate(241,224)"/>
<path d="M0 0 C4.31184323 0.9418098 7.90360238 2.96608105 11.75 5.0625 C19.46773377 9.21139743 27.26051421 13.17991616 35.11376953 17.06494141 C38.41374286 18.70083292 41.7063767 20.35136867 45 22 C43.35 26.62 41.7 31.24 40 36 C30.70764488 34.46506102 22.06608592 31.48566246 13.1875 28.4375 C10.95306328 27.6741861 8.71803616 26.91272594 6.48176575 26.15480042 C5.10047696 25.68628887 3.72026882 25.21457472 2.34135437 24.73912048 C-1.082039 23.57425601 -4.43356056 22.60813404 -8 22 C-6.56112607 13.99153061 -3.63818013 7.22763464 0 0 Z " fill="#F6F6F6" transform="translate(69,134)"/>
<path d="M0 0 C4.38897091 0.58301255 8.06335402 1.68714873 12.125 3.4375 C13.13820313 3.86933594 14.15140625 4.30117187 15.1953125 4.74609375 C17.4982549 5.7756822 19.75732515 6.84647107 22 8 C20.51842809 13.00615352 18.36228405 17.32111419 15.875 21.875 C12.34106949 28.43574992 8.9336871 35.04342916 5.65185547 41.73388672 C3.91324115 45.25790657 2.07603195 48.66306521 0 52 C-5.05255964 51.36843005 -9.29593201 49.86540627 -14 48 C-12.58589626 39.58283267 -10.13757846 31.56097545 -7.5625 23.4375 C-7.1629598 22.16225079 -6.76386891 20.88686073 -6.36523438 19.61132812 C-4.30672783 13.05219329 -2.19936529 6.5132329 0 0 Z " fill="#F6F6F6" transform="translate(244,61)"/>
<path d="M0 0 C4.25183879 0.37794123 7.82898228 1.2286263 11.81640625 2.76171875 C16.29749744 4.4254736 20.80259662 5.88624594 25.3828125 7.25390625 C26.33074928 7.53779709 26.33074928 7.53779709 27.2978363 7.8274231 C29.90930984 8.60850369 32.52134555 9.38692204 35.13867188 10.14819336 C37.0774925 10.71399796 39.01150918 11.2961842 40.9453125 11.87890625 C42.08500488 12.2147876 43.22469727 12.55066895 44.39892578 12.89672852 C45.25728027 13.26080811 46.11563477 13.6248877 47 14 C48.1817019 17.5451057 47.7911988 18.14017506 46.34765625 21.44921875 C45.80141602 22.72055664 45.80141602 22.72055664 45.24414062 24.01757812 C44.85419922 24.89865234 44.46425781 25.77972656 44.0625 26.6875 C43.67642578 27.58017578 43.29035156 28.47285156 42.89257812 29.39257812 C41.93688877 31.59892268 40.97244531 33.80100147 40 36 C36.14376836 35.26736929 32.92696339 33.58487189 29.43359375 31.83203125 C28.7994606 31.51473557 28.16532745 31.19743988 27.51197815 30.87052917 C26.16873696 30.19740006 24.82646687 29.5223301 23.48510742 28.84545898 C21.47081773 27.82930784 19.45349995 26.81939975 17.43554688 25.81054688 C9.87438751 22.0193029 2.39101802 18.11623446 -5 14 C-3.46527032 9.27775484 -1.76054874 4.64144669 0 0 Z " fill="#F7F7F7" transform="translate(291,230)"/>
<path d="M0 0 C0.639375 0.268125 1.27875 0.53625 1.9375 0.8125 C5.91202261 2.35364142 9.94884495 3.67609312 14 5 C13.60216629 9.37617081 12.66910146 13.21799591 11.24609375 17.37890625 C10.88725098 18.43706543 10.5284082 19.49522461 10.15869141 20.58544922 C9.77632324 21.71225098 9.39395508 22.83905273 9 24 C8.22315452 26.34696024 7.44845188 28.69463074 6.67578125 31.04296875 C5.88803886 33.42448513 5.10027833 35.80599551 4.3125 38.1875 C3.90966797 39.41275391 3.50683594 40.63800781 3.09179688 41.90039062 C2.70701172 43.06119141 2.32222656 44.22199219 1.92578125 45.41796875 C1.57942627 46.46750732 1.23307129 47.5170459 0.8762207 48.59838867 C0 51 0 51 -1 52 C-8.63439255 51.85595486 -14.3905341 48.60215892 -21 45 C-20.47984863 39.16484733 -18.08486337 34.67761211 -15.4375 29.5625 C-14.99148437 28.6859375 -14.54546875 27.809375 -14.0859375 26.90625 C-10.66881486 20.2180356 -7.16509871 13.57579252 -3.59375 6.96875 C-2.35547617 4.66216149 -1.15211256 2.35030962 0 0 Z " fill="#F7F7F7" transform="translate(156,286)"/>
<path d="M0 0 C2.34058637 2.12780579 3.70700306 4.11562221 5 7 C4.01 7.66 3.02 8.32 2 9 C1.01 8.67 0.02 8.34 -1 8 C-1.625 5.125 -1.625 5.125 -2 2 C-1.34 1.34 -0.68 0.68 0 0 Z " fill="#EEEEEE" transform="translate(117,250)"/>
<path d="M0 0 C1.10348268 3.31044803 0.99444068 5.65506316 0 9 C-0.99 9.495 -0.99 9.495 -2 10 C-2.99 8.02 -3.98 6.04 -5 4 C-3.35 2.68 -1.7 1.36 0 0 Z " fill="#E9E9E9" transform="translate(283,139)"/>
<path d="M0 0 C0.99 0.33 1.98 0.66 3 1 C2.34 1 1.68 1 1 1 C1 1.66 1 2.32 1 3 C0.21625 3.61875 -0.5675 4.2375 -1.375 4.875 C-3.93565794 6.94791357 -4.6228853 8.14740526 -6 11 C-6.99 11.33 -7.98 11.66 -9 12 C-9 9 -9 9 -7.03125 6.73828125 C-5.77828125 5.53751953 -5.77828125 5.53751953 -4.5 4.3125 C-3.6646875 3.50425781 -2.829375 2.69601562 -1.96875 1.86328125 C-1.3190625 1.24839844 -0.669375 0.63351562 0 0 Z " fill="#F1F1F1" transform="translate(133,267)"/>
<path d="M0 0 C0.66 0.33 1.32 0.66 2 1 C1.34 2.32 0.68 3.64 0 5 C-0.66 5 -1.32 5 -2 5 C-2 5.66 -2 6.32 -2 7 C-1.34 7.33 -0.68 7.66 0 8 C-0.99 8.66 -1.98 9.32 -3 10 C-4.4606285 7.35261084 -5 6.10551666 -5 3 C-2.625 1.25 -2.625 1.25 0 0 Z " fill="#1B1B1B" transform="translate(292,152)"/>
<path d="M0 0 C0.66 0.66 1.32 1.32 2 2 C0.71034824 3.37562854 -0.62689293 4.70766393 -2 6 C-2.66 6 -3.32 6 -4 6 C-4.33 6.66 -4.66 7.32 -5 8 C-5.33 6.68 -5.66 5.36 -6 4 C-4.02 2.68 -2.04 1.36 0 0 Z " fill="#EAEAEA" transform="translate(256,278)"/>
<path d="M0 0 C3 3.625 3 3.625 3 7 C1.35 7.66 -0.3 8.32 -2 9 C-1.34 6.03 -0.68 3.06 0 0 Z " fill="#1A1A1A" transform="translate(110,238)"/>
<path d="M0 0 C-0.99 1.485 -0.99 1.485 -2 3 C-2.99 3 -3.98 3 -5 3 C-5.66 3.66 -6.32 4.32 -7 5 C-6.67 3.35 -6.34 1.7 -6 0 C-3 -1 -3 -1 0 0 Z " fill="#1E1E1E" transform="translate(238,291)"/>
<path d="M0 0 C0.66 0.33 1.32 0.66 2 1 C1.01 2.98 0.02 4.96 -1 7 C-2.5 5.625 -2.5 5.625 -4 4 C-4 3.34 -4 2.68 -4 2 C-2.125 0.9375 -2.125 0.9375 0 0 Z " fill="#DCDCDC" transform="translate(74,264)"/>
<path d="M0 0 C4.95 0.99 4.95 0.99 10 2 C8.02 2.99 8.02 2.99 6 4 C5.01 3.34 4.02 2.68 3 2 C2.67 2.66 2.34 3.32 2 4 C1.34 4 0.68 4 0 4 C0 2.68 0 1.36 0 0 Z " fill="#DDDDDD" transform="translate(106,175)"/>
<path d="M0 0 C0.33 0.66 0.66 1.32 1 2 C-0.2375 2.8971875 -0.2375 2.8971875 -1.5 3.8125 C-2.7375 4.8953125 -2.7375 4.8953125 -4 6 C-4 6.99 -4 7.98 -4 9 C-4.66 9 -5.32 9 -6 9 C-6.33 7.68 -6.66 6.36 -7 5 C-4.69 3.35 -2.38 1.7 0 0 Z " fill="#D1D1D1" transform="translate(291,133)"/>
</svg>
