<?xml version="1.0" standalone="no"?>
<!DOCTYPE svg PUBLIC "-//W3C//DTD SVG 20010904//EN"
 "http://www.w3.org/TR/2001/REC-SVG-20010904/DTD/svg10.dtd">
<svg version="1.0" xmlns="http://www.w3.org/2000/svg"
 width="240.000000pt" height="240.000000pt" viewBox="0 0 240.000000 240.000000"
 preserveAspectRatio="xMidYMid meet">

<g transform="translate(0.000000,240.000000) scale(0.100000,-0.100000)"
fill="#000000" stroke="none">
<path d="M835 1989 c-31 -17 -405 -391 -421 -421 -27 -52 -19 -84 59 -219 36
-61 49 -135 37 -201 -11 -56 -20 -77 -70 -155 -22 -36 -35 -70 -38 -104 l-5
-50 215 -216 c215 -215 215 -216 264 -220 44 -4 56 0 117 37 99 60 132 72 208
72 75 0 130 -20 204 -73 34 -24 59 -33 99 -37 l55 -4 73 68 c40 38 138 136
218 217 l145 148 0 52 c0 44 -7 64 -47 131 -85 142 -84 244 1 376 44 67 57
111 47 157 -5 20 -72 94 -216 238 l-210 210 -53 0 c-44 0 -64 -7 -131 -47
-104 -62 -167 -76 -253 -54 -35 8 -84 29 -108 46 -83 57 -145 73 -190 49z
m430 -210 c33 -9 81 -52 263 -232 139 -138 230 -237 242 -262 24 -49 26 -112
5 -163 -19 -46 -433 -464 -487 -493 -47 -24 -121 -24 -173 0 -61 29 -479 455
-495 505 -16 49 -7 127 19 169 11 18 118 129 238 248 222 219 244 236 318 238
17 0 48 -4 70 -10z"/>
<path d="M1116 1444 c-94 -29 -176 -143 -176 -244 0 -61 31 -132 79 -180 109
-109 276 -105 374 11 92 107 87 250 -13 349 -73 74 -161 95 -264 64z"/>
</g>
</svg>
