<svg xmlns="http://www.w3.org/2000/svg" xml:space="preserve" fill="none" viewBox="0 0 1536 2264">
  <path d="M1537 847v1418H1V1h1536v846M971.793 395.129c.347-1.042.694-2.084 1.337-3.732.659-1.3 1.318-2.6 2.55-4.244.144-.395.288-.79.82-1.706.577-1.122 1.154-2.244 2.331-3.693.129-.892.257-1.783 1.024-2.959 9.03-17.529 18.12-35.027 27.077-52.593 23.508-46.102 46.952-92.237 70.436-138.352 8.957-17.59 18.016-35.13 26.9-52.756 4.091-8.117 7.874-16.388 12.29-24.979l51.357-100.329-1.46-.88c-.739.59-1.58 1.087-2.2 1.782-25.576 28.61-51.138 57.234-76.69 85.867-35.169 39.412-70.311 78.848-105.498 118.244-25.695 28.768-51.469 57.466-77.161 86.236a132448.472 132448.472 0 0 0-106.894 119.847c-13.705 15.385-27.32 30.851-41.61 46.54-1.087 1.476-2.174 2.95-3.831 4.52-1.145 1.371-2.29 2.741-3.943 4.323-.197.301-.394.602-1.192 1.173-10.614 11.93-21.208 23.877-31.846 35.786-26.033 29.14-52.105 58.246-78.127 87.396-29.459 33-58.852 66.06-88.328 99.046-29.038 32.497-58.177 64.906-87.21 97.409-26.709 29.9-53.317 59.889-80.003 89.808-26.244 29.424-52.544 58.799-78.796 88.216-29.238 32.763-58.43 65.566-87.68 98.32-22.935 25.681-45.94 51.3-68.887 76.971a133959.917 133959.917 0 0 0-83.4 93.4c-6.926 7.764-13.786 15.587-21.258 24.041 5.35 0 9.768 0 15.095.195 65.345-.007 130.69-.013 196.035-.03 2.324 0 4.648-.105 7.9-.022 31.69-.046 63.382-.093 96 .001 8.804.009 17.607.035 26.41.022 32.221-.045 64.442-.104 97.59-.018 34.024-.049 68.048-.098 103-.007 104.761.009 209.523-.01 314.284.126 4.208.006 8.415 1.489 12.978 2.834 8.037 5.826 10.734 14.187 6.877 23.184-10.364 24.175-20.988 48.238-31.425 72.382-5.663 13.101-11.069 26.314-16.75 39.407-5.818 13.408-11.83 26.732-18.038 40.748-.715 1.748-1.43 3.495-2.707 5.703-.09 1.198-.18 2.397-.908 3.766-.706 1.294-1.413 2.587-2.312 4.58-.766 1.728-1.532 3.455-2.793 5.595-1.197 2.802-2.388 5.607-3.592 8.407-6.914 16.072-13.831 32.142-21.291 48.512-.15.808-.3 1.617-1.024 2.893-.043.963-.087 1.927-.58 3.436-.589.774-1.36 1.467-1.741 2.332-6.702 15.174-13.432 30.337-19.974 45.58-1.884 4.387-3.195 9.02-5.005 14.242-1.14 2.381-2.336 4.738-3.41 7.148-5.645 12.67-11.26 25.352-17.28 38.575-2.022 4.512-4.094 9.002-6.059 13.538-7.04 16.253-14.043 32.522-21.356 49.276-1.28 2.712-2.633 5.394-3.83 8.143-10.315 23.681-20.65 47.354-30.88 71.072-6.94 16.09-13.721 32.248-21.08 48.831-2.373 5.482-4.74 10.965-7.119 16.444-19.236 44.318-38.52 88.615-57.688 132.963-6.927 16.029-13.577 32.178-20.981 48.58-6.643 15.153-13.322 30.29-19.92 45.46-21.724 49.953-43.416 99.92-65.126 149.878-3.045 7.008-6.118 14.003-9.179 21.004l1.122.865c1.469-1.357 3.095-2.58 4.379-4.092 6.988-8.236 13.88-16.552 20.826-24.823 16.76-19.957 33.528-39.908 50.3-59.856 16.313-19.403 32.638-38.795 48.951-58.198 11.508-13.687 23.004-27.384 35.04-41.393.221-.345.443-.69 1.201-1.272.645-.97 1.289-1.942 2.468-3.268.599-.843 1.197-1.686 2.282-2.97 2.149-2.672 4.298-5.344 7.085-8.343.228-.402.457-.804.598-1.11 0 0 .082.103.687-.162 17.623-20.93 35.24-41.866 52.873-62.79 19.215-22.803 38.468-45.574 57.656-68.399 9.145-10.878 18.133-21.887 27.274-32.768 12.655-15.065 25.386-30.065 38.679-45.416 12.275-14.545 24.567-29.077 36.821-43.64 22.01-26.155 44-52.326 65.99-78.497 19.312-22.984 38.611-45.977 58.514-69.328 1.736-3.035 3.473-6.07 5.527-9.767 1.909-1.155 4.272-1.92 5.653-3.529 9.26-10.781 18.293-21.757 27.435-32.64 15.064-17.937 30.195-35.817 45.218-53.788 8.685-10.389 17.121-20.986 25.838-31.348 8.291-9.856 16.877-19.464 25.193-29.3 6.985-8.26 13.768-16.692 21.253-25.38 1.484-1.757 2.968-3.514 5.043-5.577 1.005-1.82 1.733-3.885 3.075-5.41 2.595-2.948 5.797-5.377 8.281-8.403 6.884-8.384 12.73-17.806 20.522-25.198 6.107-5.793 9.684-13.3 16.163-18.91 7.616-6.595 12.989-15.757 19.471-23.693 3.06-3.747 6.523-7.164 9.652-10.858 2.818-3.327 5.43-6.83 8.739-10.511 1.193-1.232 2.387-2.464 4.13-4.02.592-.87 1.183-1.74 2.173-2.807.231-.215.348-.48.857-1.07.47-.598.942-1.195 1.91-2.003.403-.574.806-1.148 1.708-2.068.463-.625.927-1.25 1.946-2.256 5.79-6.942 11.581-13.884 17.899-21.127.654-1.017 1.307-2.034 1.606-3.344 0 0 .37.272.928-.075 2.249-2.64 4.498-5.28 7.306-8.277.245-.36.49-.722.889-1.06 0 0-.155.176.393-.644.091-.315.183-.631.844-1.122 1.242-1.64 2.485-3.28 3.632-4.925 0 0-.003.095.645-.094l177.615-210.68c-46.174 0-91.292-.003-136.41.013-1.317 0-2.635.203-4.857.075-1.832-.014-3.664-.04-5.497-.04-228.224-.022-456.448-.071-684.672.059-8.574.005-15.259-2.237-19.96-10.31-3.07-7.056-1.374-13.5 1.98-20.057 18.98-37.094 37.77-74.286 56.68-111.417 9.413-18.484 19.023-36.868 28.39-55.374 6.422-12.687 12.58-25.507 19.33-38.61.174-.552.348-1.103.987-2.084.223-.587.446-1.174 1.134-2.155.463-1.119.925-2.238 1.857-3.745.336-.922.672-1.843 1.563-3.263 12.771-25.138 25.57-50.262 38.304-75.42 9.327-18.424 18.569-36.891 28.348-55.743 8.86-17.3 17.774-34.57 26.56-51.906 8.48-16.73 16.828-33.525 25.702-50.784 8.455-16.616 16.934-33.22 25.358-49.853 8.853-17.48 17.654-34.986 26.947-52.926 1.012-2.351 2.025-4.703 3.634-7.458.158-.44.315-.881.972-1.804 2.895-5.898 5.79-11.796 9.197-18.212 6.92-13.54 13.891-27.054 20.745-40.628 4.756-9.422 9.35-18.926 14.414-28.656.122-.432.245-.864.775-1.84m129.831-172.594L686.17 1040.312c.925.234 1.225.377 1.525.377 33.324.012 66.65-.05 99.973.108 3.458.016 4.089-2.03 4.96-4.318 12.07-31.675 24.089-63.368 36.193-95.03 19.757-51.676 39.602-103.319 59.348-155 24.027-62.886 47.96-125.808 71.993-188.692 18.861-49.35 37.847-98.654 56.714-148.002 13.71-35.856 27.309-71.755 40.97-107.63 15.02-39.447 30.053-78.888 45.507-118.853l5.28-13.717-.512-.232c-2.006 4.233-4.012 8.467-6.496 13.212M788.5 1305.695H222.887c16.1 3.75 32.219 6.581 48.337 9.412 32.145 5.644 64.295 11.264 96.434 16.94 28.046 4.952 56.072 10.019 84.123 14.937 23.979 4.204 47.998 8.176 71.97 12.417 34.557 6.112 69.077 12.427 103.63 18.558 31.95 5.67 63.915 11.257 95.905 16.696 1.962.334 4.617-.383 6.243-1.576 12.068-8.849 23.977-17.917 35.9-26.964a41454.08 41454.08 0 0 0 67.489-51.318c3.415-2.603 6.688-5.392 10.027-8.095l-.53-1.007H788.5m-99.699 422.726c9.551-21.916 19.1-43.834 28.654-65.748 24.17-55.438 48.385-110.855 72.5-166.317 17.763-40.851 35.397-81.759 53.083-122.643 3.968-9.174 7.913-18.357 12.234-28.381-2.274 1.569-3.684 2.459-5.005 3.465-32.51 24.765-64.965 49.604-97.583 74.228-3.581 2.703-5.536 5.852-6.801 9.948-7.217 23.352-14.53 46.675-21.86 69.991-11.022 35.06-22.106 70.1-33.126 105.159-16.604 52.823-33.158 105.662-49.766 158.484-10.518 33.452-21.098 66.884-31.647 100.326-12.407 39.332-24.818 78.663-37.214 117.999-2.71 8.598-5.359 17.216-8.036 25.825l1.63.671c40.897-94.095 81.792-188.19 122.937-283.007z"/>
  <path fill="#34D795" d="M1102.925 223.794c-15.027 39.443-30.06 78.884-45.08 118.33-13.661 35.876-27.26 71.775-40.97 107.631-18.867 49.348-37.853 98.651-56.714 148.002-24.033 62.884-47.966 125.806-71.993 188.692-19.746 51.681-39.59 103.324-59.348 155-12.104 31.662-24.123 63.355-36.192 95.03-.872 2.289-1.503 4.334-4.96 4.318-33.325-.157-66.65-.096-99.974-.108-.3 0-.6-.143-1.525-.377 138.53-272.683 276.993-545.23 415.86-817.848.57.396.733.863.896 1.33z"/>
  <path fill="#2CDEC9" d="M744.822 841.949c-6.276 12.76-12.434 25.58-18.856 38.267-9.367 18.506-18.977 36.89-28.39 55.374-18.91 37.131-37.7 74.323-56.68 111.417-3.354 6.556-5.05 13-2.217 20.67-6.759 9.19-13.281 17.767-20.302 27 3.033.222 4.826.354 6.62.911-.188 2.723.44 5.605-.712 7.211-4.062 5.667-3.225 11.945-3.755 18.18-5.822.025-11.176.042-16.999.05-46.535-.009-92.601-.009-139.316-.009.352-2.2.576-3.605 1.084-5.201 1.43-2.394 2.577-4.595 4.01-6.979 1.439-1.772 2.708-3.291 3.726-4.963 7.628-12.526 15.285-25.034 22.77-37.645 4.545-7.657 8.8-15.486 13.26-23.577 6.128-10.259 12.203-20.162 18.226-30.098 8.59-14.174 17.142-28.37 25.908-42.79.71-1.088 1.224-1.941 2.026-2.976 1.151-2.03 2.012-3.88 3.112-5.965.875-1.005 1.614-1.71 2.129-2.552 6.306-10.333 12.667-20.634 18.831-31.051 4.724-7.982 9.188-16.117 14-24.424 1.468-2.001 2.812-3.698 3.925-5.534 11.601-19.126 23.165-38.275 34.878-57.082 1.684 2.523-1.84 7.157 3.17 7.441 2.863.163 5.957-.578 8.669-1.63 4.363-1.695 8.515-3.943 12.713-6.044 1.426-.715 2.719-1.696 4.077-2.55 1.873-1.177 3.631-3.046 5.65-3.392 5.833-1 11.789-1.27 17.664-2.063 2.735-.369 6.202-.445 7.935-2.112 4.738-4.558 10.309-5.692 16.375-5.812 5.495-.109 11.008.197 16.486-.129 2.534-.15 5.95-.585 7.332-2.248 4.583-5.521 10.417-3.462 15.801-3.224 1.215.053 2.953 3.249 3.252 5.183.358 2.314-.57 4.827-.942 7.254-.336.922-.672 1.843-1.54 3.08-.952 1.485-1.37 2.654-1.79 3.824-.223.587-.446 1.174-1.134 2.041-.642.903-.819 1.525-.996 2.147z"/>
  <path fill="#2EDDBD" d="M790.167 1590.998c1.573-4.52 2.884-9.154 4.768-13.541 6.542-15.243 13.272-30.406 19.974-45.58.382-.865 1.152-1.558 2.322-2.531 4.943-.582 9.384-.573 13.65-1.43 7.93-1.594 17.122 2.196 23.683-5.394.186-.215.606-.27.93-.318 7.367-1.075 14.736-2.132 22.103-3.21 1.775-.26 4.514.03 5.148-.978 3.103-4.93 8.488-4.054 12.857-5.491 2.138-.703 4.796.174 7.218.336-.464 1.935-.927 3.87-1.396 5.803-.078.322-.169.643-.285.954-4.5 12.041-8.927 24.111-13.548 36.106-1.675 4.348-1.22 5.834 3.561 5.105 8.237-1.255 16.849-2.354 24.328-5.699 9.437-4.22 17.84-4.858 26.88.115 1.203.661 4.791-.215 5.033-1.038 2.621-8.92 11.123-13.012 15.974-20.045 6.76-9.8 13.743-19.448 20.632-29.162l.279-.17c1.091-1.39 1.906-2.61 2.893-4.12 3.523-5.03 6.87-9.774 10.222-14.513 7.37-10.414 14.83-20.766 22.085-31.259 4.986-7.21 9.691-14.615 14.802-22.123 10.012-14.125 19.692-28.098 29.493-41.985 9.153-12.968 18.456-25.83 27.62-38.79.813-1.15 1.08-2.687 1.776-4.33 3.636-5.11 7.124-9.916 10.554-14.765 11.74-16.597 23.495-33.184 35.155-49.837 2.256-3.222 4.114-6.723 6.392-10.326 10.36-14.376 20.526-28.492 30.576-42.69 2.272-3.208 4.145-6.698 6.475-10.254 7.56-10.378 14.907-20.518 22.106-30.763 2.731-3.887 5.12-8.013 7.895-12.266 2.506-3.3 4.768-6.376 7.064-9.425 4.164-5.531 8.349-11.046 12.768-16.303 3.093 1.91 5.174 3.722 4.858 7.668-.62 7.775-.141 15.667-1.154 23.374-1.276 9.702.99 20.309-6.378 28.704-.38.433-.377 1.261-.43 1.916-.37 4.465-.598 8.945-1.079 13.398-.602 5.582-.936 11.281-5.583 15.477-.76.685-1.183 2.01-1.3 3.09-.462 4.288-.714 8.599-1.096 12.896-.513 5.78-.721 11.592-6.224 15.527-1.162.83-1.64 3.215-1.687 4.905-.206 7.354-1.349 13.636-6.575 20.019-3.831 4.679-5.053 11.825-8.903 17.524-2.958 4.38-3.198 10.413-6.782 15.404-3.267 4.548-5.885 10.107-8.342 15.152-3.072 6.309-5.668 12.915-9.561 18.88-.614.941-1.067 2.535-1.859 2.725-5.706 1.372-5.068 6.246-5.94 10.277-.28 1.291.069 3.53-.552 3.807-4.81 2.142-7.98 5.514-9.244 10.643-6.73.46-5.521 6.078-6.133 10.08-.488 3.19-1.043 5.267-4.711 5.794-1.236.178-2.708 1.915-3.232 3.266-2.064 5.312-9.946 6.05-9.998 12.87-.002.155-.921.237-1.354.464-4.697 2.462-5.9 8.874-11.572 10.29-.202.05-.2.924-.29 1.415-.295 1.636-.555 3.278-.89 4.906-1.441 7.019-8.44 9.303-12.35 14.271-3.225 4.1-8.763 6.603-11.276 10.967-1.926 3.345-3.322 5.253-7.088 5.428-1.976.092-5.13.028-5.688 1.105-2.53 4.88-7.559 7.121-10.772 11.18-1.014 1.28-2.145 2.847-3.558 3.363-6.01 2.194-8.395 8.29-12.987 12.04-1.746 1.425-2.402 4.604-5.519 4.069-8.67-1.49-10.628 8.98-17.917 9.892-.344.043-.77 1.12-.796 1.73-.164 3.851-2.684 4.185-5.797 4.566-4.234.519-9.23.107-10.743 5.999-.216.84-2.149 1.212-3.252 1.859a95.466 95.466 0 0 0-4.088 2.533c-1.868 1.225-3.576 2.794-5.588 3.68-3.13 1.378-6.647 1.946-9.656 3.516-3.564 1.861-6.686 4.549-10.154 6.62-1.51.903-4.068.632-5.006 1.808-3.886 4.87-9.439 4.854-14.724 5.882-1.476.286-3.197.88-4.168 1.924-4.079 4.388-7.884 9.03-11.852 13.523-3.594 4.07-7.354 7.995-10.88 12.122-2.972 3.477-5.779 7.101-8.537 10.752-2.889 3.822-4.843 9.096-8.626 11.322-5.66 3.332-11.085 8.449-18.687 7.419-.873-.118-2.04.355-2.758.938-3.24 2.633-6.087 2.108-9.573.07-1.553-.91-6.164-.067-6.32.649-1.526 7.02-6.87 5.105-11.195 5.083-3.185-.016-4.834-1.77-3.958-5.314.673-2.723.855-5.564 1.485-8.3.625-2.711 1.326-5.441 2.368-8.011 1.751-4.317 3.8-8.514 5.751-12.825-3.262 1.119-5.371 2.051-7.579 2.557-4.696 1.075-9.954.118-13.609 4.715-.877 1.103-3.367 1.069-5.148 1.27-2.307.26-4.67.056-6.969.358-16.231 2.136-32.464 3.56-48.762.686z"/>
  <path fill="#30DCB5" d="M1277.999 1328.996c-.463.625-.927 1.25-1.873 1.831-1.424.128-2.366.3-3.306.472l1.584 1.85c-.471.598-.942 1.195-1.946 1.813-1.14-.006-1.747-.033-2.354-.06l1.63 1.306c-.59.87-1.181 1.74-2.436 2.762-2.657.742-6.243-.034-4.073 4.126-2.703 3.425-5.315 6.927-8.133 10.254-3.13 3.694-6.591 7.11-9.652 10.858-6.482 7.936-11.855 17.098-19.47 23.692-6.48 5.61-10.057 13.118-16.164 18.911-7.792 7.392-13.638 16.814-20.522 25.198-2.484 3.026-5.686 5.455-8.28 8.403-1.343 1.525-2.07 3.59-3.682 5.53-1.766-.79-2.926-1.698-5.05-3.36v9.149c-6.872 8.356-13.655 16.788-20.64 25.049-8.316 9.835-16.902 19.443-25.193 29.3-8.717 10.36-17.153 20.958-25.838 31.347-15.023 17.971-30.154 35.851-45.218 53.787-9.142 10.884-18.175 21.86-27.435 32.641-1.381 1.608-3.744 2.374-6 4.13-2.212 2.74-4.079 4.878-6.281 7.016-.784-.002-1.232-.003-1.788-.099-.4-.217-.653-.152-1.162.279-3.241 2.434-6.136 4.76-9.172 6.885-.683.479-1.857.252-2.805.355-1.277.138-2.706-.04-3.804.48a333.037 333.037 0 0 0-14.782 7.468c-.888.475-1.639 1.59-2.012 2.577-2.219 5.862-4.615 6.441-9.976 2.928-1.44-.944-4.233-1.336-5.632-.57-6.462 3.535-12.555 7.804-20.522 6.77-.913-.118-2.052.195-2.848.69-6.706 4.177-13.659 6.614-21.732 7.928-5.634.917-11.34 3.489-17.43 3.68-.448.013-.863.496-1.33.638-3.352 1.015-6.69 2.088-10.08 2.953-1.741.443-4.218-.163-5.26.845-3.56 3.443-7.76 3.374-12.091 3.183-3.109-.138-4.862.863-5.47 4.286-.693 3.892-4.596 5.06-6.873 3.11-5.465-4.683-11.595-3.216-17.566-3.286-2.504-.029-5.044.971-7.525 1.658-2.31.64-4.545 2.073-6.842 2.137-9.15.253-18.31.111-27.467.105-2.61-.002-4.751.154-5.597 3.525-1.234 4.92-4.72 5.74-9.057 2.874-1.704-1.126-3.818-2.252-5.766-2.288-11.445-.214-22.897-.105-33.22-.105l-3.034 8.363-4.703-2.625c7.017-16.263 14.02-32.532 21.06-48.785 1.965-4.536 4.037-9.026 6.703-13.786 4.892.093 8.257-.424 8.578-5.975.06-1.057 2.977-2.613 4.681-2.765 3.097-.276 6.272.514 9.416.533 12.497.08 24.997.175 37.49-.06 3.382-.065 6.874-.9 10.084-2.035 6.395-2.261 8.727-1.083 8.813 5.455.05 3.783 1.3 5.183 5.155 4.192 3.995-1.028 8.078-1.723 12.133-2.51 4.177-.811 8.416-1.358 12.534-2.394 3.664-.921 7.154-3.198 10.8-3.396 9.64-.524 16.104-5.113 22.035-12.558 4.447-5.581 9.317-11.9 18.69-11.014 4.01.379 9.18-1.689 12.289-4.401 3.06-2.669 5.916-2.75 9.305-3.393 5.109-.97 10.278-2.384 14.979-4.565 6.881-3.192 13.37-7.229 20.67-11.261-.998 3.664-2.458 7.138 2.415 7.83 3.926.559 5.201-1.575 6.311-5.259 1.123-3.726 4.039-6.911 6.049-10.14.627 2.487.493 5.319 1.836 6.582 2.896 2.725 7.078.413 7.827-3.932 1.101-6.387 6.315-11.003 12.761-11.085 3.842-.048 6.754-1.07 8.186-5.113.454-1.284 2.094-2.182 3.264-3.17 1.237-1.043 3.446-1.802 3.694-3.002 1.046-5.056 4.57-4.946 8.37-4.747 4.231.22 7.537-.944 8.785-5.591.249-.927 1.387-1.66 2.203-2.382 4.242-3.754 8.514-7.475 12.769-11.214a.758.758 0 0 0 .23-.437c.59-4.708 4.037-4.521 7.467-4.368 4.318.194 7.957-.591 9.334-5.55.284-1.021 1.747-1.697 2.622-2.576 1.773-1.782 3.508-3.602 5.276-5.39.872-.881 1.793-1.714 2.67-2.591 1.778-1.777 3.539-3.571 5.31-5.354.875-.88 1.757-1.752 2.636-2.627 1.782-1.773 3.57-3.54 5.346-5.32.876-.877 1.687-1.824 2.605-2.655 4.2-3.805 8.447-7.56 12.62-11.396.439-.403.383-1.306.77-1.814a20.092 20.092 0 0 1 2.501-2.753c4.21-3.792 8.49-7.507 12.664-11.339.546-.502.483-1.616.95-2.27.628-.88 1.453-1.637 2.27-2.36 4.238-3.758 8.53-7.458 12.722-11.267.55-.5.548-1.563.964-2.27.479-.817 1.025-2.05 1.735-2.203 6.12-1.32 6.579-5.814 6.299-10.78-.16-2.84.71-4.363 3.493-6.179 4.534-2.957 8.048-7.49 11.932-11.416.42-.423.307-1.338.683-1.847.556-.75 1.232-1.745 2.023-1.933 5.573-1.322 6.142-5.464 5.854-10.08-.202-3.234.154-5.728 4.04-6.822 1.534-.432 2.538-2.764 3.766-4.246.796-.96 1.397-2.562 2.365-2.818 4.885-1.29 6.151-4.696 5.826-9.127-.29-3.941.044-7.116 4.867-8.344 2.967-.754 5.724-2.55 8.382-4.193 1.136-.703 2.32-2.123 2.505-3.363.22-1.475-.145-3.968-1.092-4.483-1.715-.932-4.049-.726-6.82-1.085 1.651-1.774 3.643-3.14 4.55-5.027 3.444-7.162 6.435-14.541 9.792-21.747 2.739-5.88 6.142-11.476 8.548-17.48 2.41-6.012 1.173-12.826 5.871-18.75 2.986-3.765 2.41-10.346 3.468-15.657.19-.958.42-1.953.868-2.808 2.096-4 5.156-7.738 6.21-11.982 1.465-5.9 1.548-11.743 5.527-17.255 4.45-6.165 3.388-14.255 3.434-21.757.034-5.698-2.16-12.188 4.21-16.35.232-.151.35-.577.4-.894 1.11-7.312 2.88-14.6 3.155-21.945.51-13.645.069-27.324.235-40.985.024-1.956 1.142-3.93 1.899-5.837.923-2.327 2.803-4.568 2.872-6.888.315-10.535.138-21.083.138-31.859l4.37-1.397-.166-1.49c-2.029-.149-4.148.016-6.06-.534-1.827-.526-3.44-1.798-4.68-2.798 15.49-.02 30.512.016 45.525.469-.335 4.716-.874 9.012-.951 13.315-.41 22.787-.703 45.575-1.044 68.362-.015.996.137 2.103-.242 2.957-.427.96-1.301 2.339-2.098 2.423-6.457.68-5.633 5.324-5.622 9.688.03 11.434.044 22.87-.15 34.3-.023 1.37-1.22 3.782-2.118 3.904-7.107.964-5.662 6.098-5.65 10.663.014 5.937.094 11.887-.274 17.805-.085 1.362-1.715 3.541-2.918 3.757-4.46.798-4.99 3.655-4.942 7.311.086 6.611.256 13.24-.14 19.828-.109 1.797-2.103 3.485-3.248 5.213-1.18 1.78-3.28 3.494-3.385 5.33-.224 3.871.592 7.803.83 10.19-3.28 1.351-7.375 1.779-8.295 3.714-1.337 2.816-.558 6.73-.336 10.152.1 1.53 1.037 3.006 1.595 4.507m-15.5 9.531s-.015-.04 0 0m1.974-1.028s.04-.015 0 0z"/>
  <path fill="#2BE0CF" d="M910.837 1270.38c-4.207-.793-8.414-2.276-12.622-2.282-104.761-.136-209.523-.117-314.566-.531 1.6-.793 3.479-1.503 5.363-1.515 14.32-.095 28.64-.04 42.96-.068 1.735-.003 3.47-.217 6.888-.447-2.878-2.854-4.383-5.557-6.485-6.155-3.395-.965-3.992-3.73-5.874-5.602-3.452-3.436-7.319-6.412-10.169-10.53-.687-.994-3.256-.715-3.898-1.708-2.772-4.288-5.108-8.855-7.685-13.273-2.108-3.616-.756-9.728-7.53-10.163-.827-.053-1.859-2.899-2.11-4.554-.369-2.444.307-5.088-.277-7.444-.446-1.8-1.959-4.468-3.338-4.697-4.468-.743-4.439-3.545-4.572-6.904-.094-2.372-.25-5.194-1.538-6.98-3.572-4.951-8.315-8.615-14.39-10.33-1.121-.315-2.007-1.46-2.578-2.232 6.023-.012 11.624.06 17.222-.03 17.05-.277 34.1-.827 51.151-.888 39.399-.14 78.798-.053 118.666-.052 73.16.333 145.85.66 218.415 1.337-2.346 1.122-4.539 2.449-6.794 2.566-7.706.4-7.825.475-9.368 7.878-.505 2.42-1.453 6.202-3.016 6.678-4.932 1.504-5.417 4.21-4.893 8.647.286 2.413-.964 7.1-1.998 7.24-6.898.937-6.44 5.23-5.88 10.193.302 2.69.728 5.986-3.483 6.459-4.2.472-5.594 3.148-5.415 6.957.207 4.412.465 8.684-5.051 10.45-.902.29-1.238 2.203-1.938 3.3-.675 1.058-1.33 2.716-2.257 2.922-3.57.791-5.396 2.823-6.195 6.298-.189.817-1.584 1.592-2.58 1.948-5.362 1.913-5.888 3.235-3.965 8.746.487 1.396-.104 3.168-.2 4.767m27.87-63.398 1.03-2.802-1.26-.204c-.051.868-.103 1.735.23 3.006z"/>
  <path fill="#30DBB0" d="M1015.988 1634.997c.447.001.895.002 1.7.423.398.977.44 1.535.482 2.093-19.305 22.99-38.604 45.982-57.915 68.966-21.99 26.171-43.982 52.342-65.99 78.497-12.255 14.563-24.547 29.095-37.41 43.607-5.64-3.811-8.565-3.598-13.126.635-.9.835-2.229 1.548-3.425 1.668-8.036.802-16.094 2.06-24.137 2.006-40.52-.273-81.04-.835-121.554-1.56-2.71-.049-5.382-2.286-8.072-3.506 6.853-16.127 13.634-32.285 20.574-48.375 10.23-23.718 20.565-47.39 30.88-71.072 1.197-2.75 2.55-5.43 3.978-8.389 1.423.467 2.699 1.179 4.851 2.38l3.033-8.363c10.324 0 21.776-.109 33.22.105 1.949.036 4.063 1.162 5.767 2.288 4.337 2.867 7.823 2.045 9.057-2.874.846-3.37 2.987-3.527 5.597-3.525 9.157.006 18.317.148 27.467-.105 2.297-.064 4.533-1.497 6.842-2.137 2.481-.687 5.021-1.687 7.525-1.658 5.971.07 12.101-1.397 17.566 3.286 2.277 1.95 6.18.782 6.872-3.11.61-3.423 2.362-4.424 5.47-4.286 4.333.191 8.532.26 12.092-3.183 1.042-1.008 3.519-.402 5.26-.845 3.39-.865 6.728-1.938 10.08-2.953.467-.142.882-.625 1.33-.639 6.09-.19 11.796-2.762 17.43-3.68 8.073-1.313 15.026-3.75 21.732-7.927.796-.495 1.935-.808 2.848-.69 7.967 1.034 14.06-3.235 20.522-6.77 1.4-.766 4.192-.374 5.632.57 5.361 3.513 7.757 2.934 9.976-2.928.373-.987 1.124-2.102 2.012-2.577a333.037 333.037 0 0 1 14.782-7.468c1.098-.52 2.527-.342 3.804-.48.947-.103 2.122.124 2.805-.355 3.036-2.124 5.93-4.45 9.416-6.886.539-.182 1.027-.183 1.027-.183z"/>
  <path fill="#2FDCB9" d="M1270.996 1095.165c1.707.943 3.319 2.215 5.145 2.74 1.913.551 4.032.386 6.061.534l.166 1.49-4.37 1.398c0 10.776.177 21.324-.138 31.859-.069 2.32-1.949 4.561-2.872 6.888-.757 1.908-1.875 3.881-1.9 5.837-.165 13.661.276 27.34-.234 40.985-.275 7.344-2.045 14.633-3.156 21.945-.048.317-.167.743-.4.895-6.37 4.16-4.175 10.651-4.21 16.35-.045 7.501 1.017 15.59-3.433 21.756-3.979 5.512-4.062 11.354-5.527 17.255-1.054 4.244-4.114 7.982-6.21 11.982-.448.855-.677 1.85-.868 2.808-1.058 5.31-.482 11.892-3.468 15.657-4.698 5.924-3.46 12.738-5.87 18.75-2.407 6.004-5.81 11.6-8.55 17.48-3.356 7.206-6.347 14.585-9.79 21.747-.908 1.887-2.9 3.253-4.551 5.027 2.771.36 5.105.153 6.82 1.085.947.515 1.311 3.008 1.092 4.483-.184 1.24-1.37 2.66-2.505 3.363-2.658 1.642-5.415 3.439-8.382 4.193-4.823 1.228-5.157 4.403-4.867 8.344.325 4.43-.941 7.837-5.826 9.127-.968.256-1.57 1.858-2.365 2.818-1.228 1.482-2.232 3.814-3.765 4.246-3.887 1.094-4.243 3.588-4.04 6.823.287 4.615-.282 8.757-5.855 10.079-.791.188-1.467 1.183-2.023 1.933-.376.509-.264 1.424-.683 1.847-3.884 3.927-7.398 8.46-11.932 11.416-2.783 1.816-3.653 3.339-3.493 6.178.28 4.967-.178 9.461-6.299 10.78-.71.154-1.256 1.387-1.735 2.203-.416.708-.413 1.77-.964 2.271-4.192 3.809-8.484 7.509-12.723 11.267-.816.723-1.64 1.48-2.269 2.36-.467.654-.404 1.768-.95 2.27-4.174 3.832-8.454 7.547-12.664 11.34a20.092 20.092 0 0 0-2.501 2.752c-.387.508-.331 1.41-.77 1.814-4.173 3.835-8.42 7.59-12.62 11.396-.918.83-1.729 1.778-2.605 2.656-1.777 1.778-3.564 3.546-5.346 5.319-.88.875-1.761 1.747-2.635 2.627-1.772 1.783-3.533 3.577-5.311 5.354-.877.877-1.798 1.71-2.67 2.592-1.768 1.787-3.503 3.607-5.276 5.389-.875.879-2.338 1.555-2.622 2.576-1.377 4.959-5.016 5.744-9.334 5.55-3.43-.153-6.876-.34-7.467 4.368a.758.758 0 0 1-.23.437c-4.255 3.74-8.527 7.46-12.769 11.214-.816.722-1.954 1.455-2.203 2.382-1.248 4.647-4.554 5.812-8.785 5.59-3.8-.198-7.324-.308-8.37 4.748-.248 1.2-2.457 1.959-3.694 3.003-1.17.987-2.81 1.885-3.264 3.169-1.432 4.043-4.344 5.065-8.186 5.113-6.446.082-11.66 4.698-12.761 11.085-.75 4.345-4.931 6.657-7.827 3.932-1.343-1.263-1.209-4.095-1.836-6.582-2.01 3.229-4.926 6.414-6.049 10.14-1.11 3.684-2.385 5.818-6.31 5.26-4.874-.693-3.414-4.167-2.416-7.831-7.3 4.032-13.789 8.07-20.67 11.261-4.7 2.18-9.87 3.595-14.98 4.565-3.388.643-6.245.724-9.304 3.393-3.11 2.712-8.28 4.78-12.29 4.4-9.372-.885-14.243 5.434-18.689 11.015-5.931 7.445-12.394 12.034-22.034 12.558-3.647.198-7.137 2.475-10.801 3.396-4.118 1.036-8.357 1.583-12.534 2.394-4.055.787-8.138 1.482-12.133 2.51-3.855.991-5.105-.41-5.155-4.192-.086-6.538-2.418-7.716-8.813-5.455-3.21 1.135-6.702 1.97-10.084 2.034-12.493.236-24.993.14-37.49.061-3.144-.02-6.319-.809-9.416-.533-1.704.152-4.62 1.708-4.681 2.765-.321 5.551-3.686 6.068-8.38 5.703 5.179-12.703 10.793-25.386 16.438-38.055 1.074-2.41 2.27-4.767 3.528-7.498 16.417 2.523 32.65 1.099 48.881-1.037 2.299-.302 4.662-.098 6.969-.358 1.78-.201 4.271-.167 5.148-1.27 3.655-4.597 8.913-3.64 13.61-4.715 2.207-.506 4.316-1.438 7.578-2.557-1.952 4.311-4 8.508-5.75 12.825-1.043 2.57-1.744 5.3-2.369 8.011-.63 2.736-.812 5.577-1.485 8.3-.876 3.543.773 5.298 3.958 5.314 4.326.022 9.669 1.938 11.195-5.083.156-.716 4.767-1.558 6.32-.65 3.486 2.04 6.333 2.564 9.573-.069.718-.583 1.885-1.056 2.758-.938 7.602 1.03 13.027-4.087 18.687-7.419 3.783-2.226 5.737-7.5 8.626-11.322 2.758-3.65 5.565-7.275 8.536-10.752 3.527-4.127 7.287-8.052 10.881-12.122 3.968-4.494 7.773-9.135 11.852-13.523.971-1.045 2.692-1.638 4.168-1.924 5.285-1.028 10.838-1.011 14.724-5.882.938-1.176 3.496-.905 5.006-1.807 3.468-2.072 6.59-4.76 10.154-6.62 3.009-1.571 6.526-2.139 9.656-3.517 2.012-.886 3.72-2.455 5.588-3.68a95.466 95.466 0 0 1 4.088-2.533c1.103-.647 3.036-1.019 3.252-1.86 1.513-5.891 6.509-5.48 10.743-5.998 3.113-.38 5.633-.715 5.797-4.566.026-.61.452-1.687.796-1.73 7.289-.912 9.247-11.381 17.917-9.892 3.117.535 3.773-2.644 5.519-4.07 4.592-3.75 6.976-9.845 12.987-12.039 1.413-.516 2.544-2.083 3.558-3.363 3.213-4.059 8.242-6.3 10.772-11.18.558-1.077 3.712-1.013 5.688-1.105 3.766-.175 5.162-2.083 7.088-5.428 2.513-4.364 8.05-6.868 11.276-10.967 3.91-4.968 10.909-7.252 12.35-14.27.335-1.629.595-3.271.89-4.907.09-.49.088-1.364.29-1.415 5.672-1.416 6.875-7.828 11.572-10.29.433-.227 1.352-.309 1.354-.463.052-6.821 7.934-7.56 9.998-12.871.524-1.35 1.996-3.088 3.232-3.266 3.668-.527 4.223-2.603 4.711-5.795.612-4-.596-9.62 6.133-10.079 1.265-5.13 4.433-8.5 9.244-10.643.62-.276.273-2.516.552-3.807.872-4.03.234-8.905 5.94-10.277.792-.19 1.245-1.784 1.859-2.725 3.893-5.965 6.49-12.571 9.561-18.88 2.457-5.045 5.075-10.604 8.342-15.152 3.584-4.99 3.824-11.025 6.782-15.404 3.85-5.699 5.072-12.845 8.903-17.524 5.226-6.383 6.369-12.665 6.575-20.02.048-1.689.525-4.073 1.687-4.904 5.503-3.935 5.711-9.747 6.224-15.527.382-4.297.634-8.608 1.096-12.896.117-1.08.54-2.405 1.3-3.09 4.647-4.196 4.98-9.895 5.583-15.477.48-4.453.71-8.933 1.078-13.398.054-.655.05-1.483.431-1.916 7.368-8.395 5.102-19.002 6.378-28.704 1.013-7.707.533-15.6 1.154-23.374.316-3.946-1.765-5.758-4.786-7.999 6.024-9.928 12.22-19.259 19.245-29.841-16.357 0-31.413 0-46.47-.46-.001-6.121.165-11.791-.11-17.44-.078-1.603-1.442-3.144-2.216-4.713-.889 1.548-2.463 3.06-2.545 4.649-.308 5.979-.13 11.982-.55 17.997-1.802.004-3.19-.012-4.578-.489.665-8.739 1.33-17.017 2.462-25.35 24.821-.017 49.177.022 73.532.062M776.04 1630.776l-1.548.147.257 1.274c.447-.316.894-.632 1.29-1.42z"/>
  <path fill="#3CA971" d="M789 1305.695h53.416l.53 1.007c-3.34 2.703-6.613 5.492-10.028 8.095a41454.08 41454.08 0 0 1-67.49 51.318c-11.922 9.047-23.83 18.115-35.9 26.964-1.625 1.193-4.28 1.91-6.242 1.576-31.99-5.439-63.955-11.026-95.904-16.696-34.554-6.131-69.074-12.446-103.63-18.558-23.973-4.24-47.992-8.213-71.97-12.417-28.052-4.918-56.078-9.985-84.124-14.937-32.14-5.676-64.289-11.296-96.434-16.94-16.118-2.83-32.236-5.662-48.337-9.412H789z"/>
  <path fill="#32DAA3" d="M686.288 1828.054c2.943.992 5.614 3.23 8.325 3.278 40.515.725 81.034 1.287 121.554 1.56 8.043.054 16.1-1.204 24.137-2.006 1.196-.12 2.526-.833 3.425-1.668 4.56-4.233 7.485-4.446 12.83-.473-12.409 15.222-25.14 30.222-37.795 45.287-9.14 10.881-18.129 21.89-27.274 32.768-19.188 22.825-38.44 45.596-57.656 68.4-17.632 20.923-35.25 41.858-53.191 62.558.234-2.853-.955-3.793-3.493-3.852-10.59-.249-21.175-.655-31.766-.87-4.01-.08-8.138.548-9.731-4.646-.201-.655-1.56-1.272-2.435-1.353-7.715-.719-15.433-1.52-23.169-1.8-2.023-.075-4.11 1.58-6.462 2.564l-2.712-1.84c6.776-16.094 13.426-32.243 20.353-48.272 19.168-44.348 38.452-88.645 57.688-132.963 2.378-5.48 4.746-10.962 7.372-16.672z"/>
  <path fill="#34D795" d="M688.677 1728.782c-41.02 94.456-81.916 188.551-122.812 282.646l-1.631-.671c2.677-8.61 5.327-17.227 8.036-25.825 12.396-39.336 24.807-78.667 37.214-117.999 10.55-33.442 21.129-66.874 31.647-100.326 16.608-52.822 33.162-105.66 49.766-158.484 11.02-35.06 22.104-70.1 33.126-105.159 7.33-23.316 14.643-46.64 21.86-69.991 1.265-4.096 3.22-7.245 6.8-9.948 32.619-24.624 65.073-49.463 97.584-74.228 1.321-1.006 2.731-1.896 5.005-3.465-4.32 10.024-8.266 19.207-12.234 28.38-17.686 40.885-35.32 81.793-53.083 122.644-24.115 55.462-48.33 110.88-72.5 166.317a51593.503 51593.503 0 0 0-28.778 66.109z"/>
  <path fill="#2DDEC6" d="M911.015 1270.656c-.082-1.874.509-3.646.022-5.042-1.923-5.511-1.397-6.833 3.964-8.746.997-.356 2.392-1.131 2.58-1.948.8-3.475 2.627-5.507 6.196-6.298.927-.206 1.582-1.864 2.257-2.922.7-1.097 1.036-3.01 1.938-3.3 5.516-1.766 5.258-6.038 5.051-10.45-.179-3.809 1.214-6.485 5.415-6.957 4.211-.473 3.785-3.769 3.482-6.459-.559-4.963-1.017-9.256 5.88-10.192 1.035-.141 2.285-4.828 2-7.241-.525-4.436-.04-7.143 4.892-8.647 1.563-.476 2.511-4.258 3.016-6.678 1.543-7.403 1.662-7.478 9.368-7.878 2.255-.117 4.448-1.444 7.263-2.57 7.956-.398 15.318-.443 23.147-.456 21.304.032 42.14.032 63.175.032-1.72 4.427-3.209 8.262-4.936 12.337-7.074 15.401-13.91 30.562-21.064 45.856-3.001 5.627-5.804 11.064-8.344 16.621-8.487 18.571-16.934 37.161-25.282 55.795-3.176 7.089-6.042 14.316-9.38 21.597-1.02 1.005-1.928 1.798-2.359 2.797-3.124 7.244-6.018 14.59-9.246 21.787-3.913 8.724-8.014 17.367-12.168 25.98-2.495 5.173-5.246 10.222-8.297 15.335-4.853.93-10.502-.11-11.21 6.855-.05.483-1.666.774-2.522 1.216-1.439.743-2.882 1.484-4.268 2.318-2.001 1.203-3.867 2.66-5.946 3.7-3.322 1.661-8.355 2.19-9.796 4.79-2.153 3.882-4.476 4.814-8.352 5.485-2.871.497-7.203-.96-8.43 3.573-.94 3.48-3.397 3.945-6.462 4.122-2.74.158-6.729-.021-7.92 1.6-3.504 4.766-8.715 4.82-13.36 6.524-.929.34-1.91.63-2.736 1.15-5.62 3.546-11.702 4.939-18.366 4.123-2.553 2.59-2.563 8.03-8.08 7.533 5.928-13.36 11.94-26.685 17.758-40.093 5.681-13.093 11.087-26.306 16.75-39.407 10.437-24.144 21.061-48.207 31.425-72.382 3.857-8.997 1.16-17.358-7.055-23.46z"/>
  <path fill="#30DCB2" d="M260.003 1267.834c-2.324.057-4.648.162-6.972.162-65.345.017-130.69.023-196.326-.34 18.455-20.862 37.202-41.35 55.944-61.844 30.531-33.384 61.027-66.8 91.605-100.14 11.338-12.362 22.864-24.552 34.72-36.782 1.783 1.14 4.304 2.212 4.333 3.348.161 6.45.433 13.034-.629 19.354-4.15 24.688-.506 49.255.553 73.86.067 1.543 1.17 3.042 1.786 4.892-.013.771-.022 1.212-.354 1.789-.592 4.088-1.424 8.1-1.012 11.98.844 7.96 2.372 15.848 3.582 23.77.4 2.618.452 5.31 1.072 7.87 1.994 8.233 4.191 16.416 6.282 24.625.727 2.857 1.359 5.737 2.057 8.602.772 3.17 1.733 6.303 2.308 9.507.553 3.08.716 6.228 1.05 9.347z"/>
  <path fill="#B4E8DD" d="M238.559 1068.852c-11.44 12.268-22.967 24.458-34.305 36.82-30.578 33.34-61.074 66.756-91.605 100.14-18.742 20.493-37.49 40.982-56.398 61.746-4.582.273-9 .273-14.35.273 7.472-8.454 14.332-16.277 21.258-24.04 27.787-31.145 55.583-62.282 83.4-93.4 22.947-25.672 45.952-51.29 68.887-76.973 29.25-32.753 58.442-65.556 87.68-98.32 26.252-29.416 52.552-58.79 78.796-88.215 26.686-29.92 53.294-59.909 80.003-89.808 29.033-32.503 58.172-64.912 87.21-97.41 29.476-32.985 58.869-66.045 88.328-99.045 26.022-29.15 52.094-58.256 78.127-87.396 10.638-11.909 21.232-23.857 32.234-35.588 2.454 3.62 4.945 2.546 6.837.344 1.815-2.113 2.152-4.594-1.301-6.013a1.245 1.245 0 0 0-.218-.12c1.086-1.474 2.173-2.95 3.692-4.265 3.195 2.51 3.42-.536 4.698-1.692.861-.779 2.267-.954 3.43-1.4.458 1.282 1.583 2.8 1.231 3.794-.67 1.891-2.136 3.519-3.364 5.188-1.139 1.549-2.399 3.009-3.606 4.508 1.672.686 3.344 1.37 5.015 2.059 2.771 1.142 7.107-.63 7.836 4.51-.37.726-.693 1.172-1.109 1.308a252.234 252.234 0 0 0-1.692-4.317l-2.352 2.293c1.084 1.075 2.168 2.151 3.086 3.522-1.908 2.305-3.604 4.355-5.397 6.317-17.673 19.334-35.377 38.64-53.037 57.986-4.968 5.442-9.8 11.008-14.732 16.482a1172.68 1172.68 0 0 1-14.283 15.557c-3.49 3.72-6.682 7.247-10.126 10.983-.728 1.137-1.204 2.066-1.685 3.034-.006.038-.083.05-.358-.02-.677.294-1.08.657-1.744 1.189-.79.794-1.32 1.421-2.085 2.204-.57.614-.903 1.07-1.505 1.682-1.106.965-1.989 1.733-2.774 2.59-17.992 19.639-35.966 39.294-53.958 58.932-14.019 15.302-28.096 30.552-42.074 45.891-8.934 9.804-17.734 19.73-26.86 29.792-32.902 35.783-65.564 71.35-98.164 106.976-15.508 16.948-30.895 34.006-46.571 51.16-.478.62-.722 1.093-1.048 1.55-.08-.016-.133.14-.41.266-12.93 14.112-25.513 28.164-38.264 42.06-8.425 9.182-17.18 18.06-25.628 27.22-8.915 9.667-17.641 19.507-26.739 29.472-9.375 10.046-18.506 19.853-27.527 29.758-4.017 4.41-7.719 9.104-11.729 13.52-8.19 9.02-16.493 17.937-24.75 26.896z"/>
  <path fill="#B6E8D7" d="M772.12 484.27c-.775-4.862-5.111-3.09-7.882-4.231-1.671-.688-3.343-1.373-5.015-2.059 1.207-1.5 2.467-2.96 3.606-4.508 1.228-1.67 2.694-3.297 3.364-5.188.352-.994-.773-2.512-1.231-3.794-1.163.446-2.569.621-3.43 1.4-1.277 1.156-1.503 4.202-4.381 1.562 13.54-15.719 27.156-31.185 40.861-46.57 35.608-39.97 71.237-79.92 106.894-119.847 25.692-28.77 51.466-57.468 77.16-86.236 35.188-39.396 70.33-78.832 105.5-118.244 25.55-28.633 51.113-57.256 76.688-85.867.621-.695 1.462-1.192 2.2-1.781l1.46.88c-17.118 33.442-34.237 66.885-51.938 100.677-1.536 1.267-2.544 2.136-3.436 3.11-29.222 31.923-58.428 63.859-87.644 95.786-21.462 23.451-42.935 46.893-64.401 70.34-15.362 16.778-30.744 33.537-46.073 50.345-7.208 7.903-14.312 15.9-21.75 24.03-2.899 3.168-5.51 6.163-8.415 9.326-1.607 1.662-2.922 3.158-4.535 4.803a3842.282 3842.282 0 0 0-27.95 30.31c-12.303 13.472-24.574 26.974-37.157 40.608-2.334 2.65-4.37 5.158-6.691 7.782-.53.44-.772.762-.975 1.084.04-.001.037-.08-.208.035-.47.392-.697.67-1.191 1.1-1.047 1.347-1.826 2.542-2.941 3.805-2.147 1.978-3.956 3.89-6.036 5.975-1.373 1.475-2.475 2.775-3.774 4.194-.447.314-.622.562-.977 1.059-1.446 1.66-2.638 3.121-4.136 4.749-1.581 1.442-2.85 2.725-4.13 3.997-3.81 3.792-7.624 7.579-11.436 11.368z"/>
  <path fill="#32DAA3" d="M880.02 368.054c1.315-1.495 2.63-2.99 4.45-4.298 1.972.406 4.475 1.213 4.74.747 1.859-3.27 5.063-6.197 3.749-10.602 7.15-7.955 14.255-15.953 21.463-23.856 15.329-16.808 30.711-33.567 46.073-50.346 21.466-23.446 42.94-46.888 64.4-70.34 29.217-31.926 58.423-63.862 87.645-95.784.892-.975 1.9-1.844 3.19-2.916-3.588 8.047-7.37 16.318-11.462 24.435-8.884 17.627-17.943 35.166-26.9 52.756-23.484 46.115-46.928 92.25-70.436 138.352-8.958 17.566-18.047 35.064-27.697 52.79-1.386.88-2.151 1.562-2.917 2.245l1.913.844c-.577 1.122-1.154 2.244-2.13 3.855-.599.846-.796 1.204-.994 1.562-.659 1.3-1.318 2.6-2.453 4.22-1.536.975-2.595 1.628-4.11 2.281-1.617 0-2.781-.052-3.94.009-4.406.23-8.47.103-9.009-5.83-.07-.774-1.49-1.78-2.464-2.06-6.563-1.898-13.116-3.398-19.955-.838-5.244 1.962-7.189.758-9.383-4.42-.484-1.142-1.931-2.57-3.024-2.651-11.36-.835-22.735-1.721-34.117-1.894-3.427-.052-4.901-.876-5.572-3.913-.322-1.456-.705-2.899-1.06-4.348z"/>
  <path fill="#2EDDBF" d="M750.56 830.608c.094-2.178 1.022-4.69.664-7.005-.3-1.934-2.037-5.13-3.252-5.183-5.384-.238-11.218-2.297-15.801 3.224-1.382 1.663-4.798 2.098-7.332 2.248-5.478.326-10.99.02-16.486.13-6.066.12-11.637 1.253-16.375 5.81-1.733 1.668-5.2 1.744-7.935 2.113-5.875.793-11.83 1.064-17.665 2.063-2.018.346-3.776 2.215-5.65 3.393-1.357.853-2.65 1.834-4.076 2.549-4.198 2.101-8.35 4.35-12.713 6.043-2.712 1.053-5.806 1.794-8.67 1.631-5.01-.284-1.485-4.918-3.017-7.74 3.253-6.389 6.493-12.142 9.93-18.103.402-.735.607-1.264 1.08-1.955.763-1.048 1.258-1.934 1.99-3.06 8.819-14.397 17.465-28.513 25.956-42.723 6.352-10.629 12.505-21.376 18.949-32.296.686-1.086 1.17-1.947 1.899-2.977.47-.708.694-1.246 1.158-2.02 9.383-15.162 18.527-30.088 27.848-44.663 2.089 4.179 5.649 2.878 8.604 2.829 10.293-.171 20.582-.873 30.871-.846 13.287.037 26.572.691 39.86.852 5.4.065 10.808-.47 16.593-.75v5.427c-9.28 18.449-18.522 36.916-27.849 55.34a13720.515 13720.515 0 0 1-38.581 75.67z"/>
  <path fill="#2DDEC6" d="M567.993 1174.976c.994.762 1.88 1.906 3 2.222 6.076 1.714 10.819 5.378 14.39 10.33 1.289 1.785 1.445 4.607 1.54 6.98.132 3.358.103 6.16 4.57 6.903 1.38.229 2.893 2.896 3.339 4.697.584 2.356-.092 5 .278 7.444.25 1.655 1.282 4.501 2.11 4.554 6.773.435 5.421 6.547 7.53 10.163 2.576 4.418 4.912 8.985 7.684 13.273.642.993 3.21.714 3.898 1.708 2.85 4.118 6.717 7.094 10.169 10.53 1.882 1.872 2.479 4.637 5.874 5.602 2.102.598 3.607 3.3 6.485 6.155-3.419.23-5.153.444-6.888.447-14.32.027-28.64-.027-42.96.068-1.884.012-3.763.722-5.827 1.445-34.206.384-68.23.433-102.9.077-4.685-.797-8.715-1.397-12.76-1.513-3.076-.088-4.234-1.106-4.661-4.312-.58-4.346-1.674-8.74-3.318-12.802-2.872-7.095-7.437-13.679-9.248-20.983-2-8.065-6.933-15.578-5.557-24.439.103-.663-.762-1.431-1.017-2.204-.945-2.87-1.906-5.739-2.696-8.653-.47-1.736-.558-3.573-.95-5.335-.989-4.442-2.052-8.867-2.616-13.308 33.096-.012 65.723-.043 98.35.02 3.8.006 7.595.695 11.4.782 6.6.151 13.205.079 20.051.11.243.011.73.039.73.039z"/>
  <path fill="#30DCB2" d="M1278.277 1328.805c-.836-1.31-1.774-2.786-1.873-4.316-.222-3.423-1.001-7.336.336-10.152.92-1.935 5.014-2.363 8.294-3.713-.237-2.388-1.053-6.32-.83-10.192.107-1.835 2.206-3.55 3.386-5.33 1.145-1.727 3.14-3.415 3.247-5.212.397-6.589.227-13.217.14-19.828-.047-3.656.482-6.513 4.943-7.311 1.203-.216 2.833-2.395 2.918-3.757.368-5.918.288-11.868.273-17.805-.011-4.565-1.456-9.7 5.651-10.663.898-.122 2.095-2.535 2.118-3.904.194-11.43.18-22.866.15-34.3-.011-4.364-.835-9.008 5.622-9.688.797-.084 1.67-1.462 2.098-2.423.379-.854.227-1.96.242-2.957.341-22.787.634-45.575 1.044-68.362.077-4.303.616-8.599 1.417-13.372 16.163-.534 31.85-.595 48.003-.598 26.032.06 51.597.06 78.379.06-1.573 2.59-2.404 4.13-3.393 5.563-20.144 29.19-40.253 58.404-60.48 87.537-21.155 30.47-42.456 60.839-63.592 91.323-1.83 2.64-2.898 5.808-4.32 8.73 0 0 .002-.094-.289-.076-1.497 1.707-2.704 3.395-3.91 5.082-.092.316-.184.632-.504 1.33-.229.384-.318.238-.318.238-.245.361-.49.722-1.353 1.241-3.891 2.078-7.448 3.773-7.245 8.466 0 0-.371-.272-.526-.251-1.248-.129-2.341-.278-4.325-.55l2.347 4.174c-5.79 6.942-11.582 13.884-17.65 21.016z"/>
  <path fill="#B6EDE9" d="M1364.99 1094.864c-15.687.06-31.374.122-47.527.24-15.489.02-30.511-.016-46 .004-24.822.017-49.178-.022-74.465-.062-15.883-.016-30.835-.059-45.786-.041-29.735.035-59.47.104-89.672.103-30.718-.074-60.97-.116-91.22-.101-22.438.01-44.875.096-67.778.091-61.209-.076-121.951-.118-182.694-.105-31.617.007-63.235.11-94.852.17l-6.619-.487c7.02-9.232 13.543-17.81 20.317-26.62 4.923 7.08 11.608 9.323 20.182 9.318 228.224-.13 456.448-.08 684.672-.06 1.833 0 3.665.027 6.07.477 2.72 1.355 4.846 3.005 7.018 3.067 9.959.285 19.93.119 29.896.133 2.158.004 4.477-.38 6.416.293 1.28.445 2.65 2.394 2.796 3.793.12 1.144-1.342 3.382-2.389 3.573-7.381 1.348-14.861 2.152-22.253 3.454-2.133.375-4.08 1.81-6.112 2.76z"/>
  <path fill="#2EDDBF" d="M851.997 1446.325c5.657.17 5.667-5.27 8.22-7.86 6.664.816 12.746-.577 18.366-4.122.826-.521 1.807-.81 2.737-1.151 4.644-1.704 9.855-1.758 13.359-6.525 1.191-1.62 5.18-1.441 7.92-1.6 3.065-.176 5.521-.642 6.463-4.121 1.226-4.533 5.558-3.076 8.43-3.573 3.875-.671 6.198-1.603 8.35-5.485 1.442-2.6 6.475-3.129 9.797-4.79 2.079-1.04 3.945-2.497 5.946-3.7 1.386-.834 2.83-1.575 4.268-2.318.856-.442 2.472-.733 2.522-1.216.708-6.965 6.357-5.926 11.177-6.493-1.6 5.444-3.58 10.534-5.887 15.733-1.588 1.82-3.196 3.375-4.058 5.269-5.478 12.035-11.007 24.054-16.105 36.252-7.099 16.981-13.836 34.114-20.723 51.183-1.325 3.286-2.628 6.58-4.497 11.265 3.99-.384 7.728.31 8.733-1.037 3.121-4.18 7.15-3.088 10.887-2.805 1.443.11 3.147 2.22 3.963 3.812 1.095 2.139.935 5.003 2.235 6.936 1.981 2.948 20.406 3.241 23.239.938 1.867-1.517 3.904-3.246 6.137-3.815 7.125-1.816 13.551-4.47 17.905-10.817.478-.698 1.726-.87 2.617-1.285-6.888 9.714-13.87 19.362-20.631 29.162-4.851 7.033-13.353 11.124-15.974 20.045-.242.823-3.83 1.7-5.032 1.038-9.042-4.973-17.444-4.335-26.88-.115-7.48 3.345-16.092 4.444-24.329 5.699-4.781.729-5.236-.757-3.56-5.105 4.62-11.995 9.047-24.065 13.547-36.106.116-.31.207-.632.285-.954.47-1.933.932-3.868 1.396-5.803-2.422-.162-5.08-1.04-7.218-.336-4.369 1.437-9.754.56-12.857 5.491-.634 1.009-3.373.719-5.148.978-7.367 1.078-14.736 2.135-22.103 3.21-.324.047-.744.103-.93.318-6.561 7.59-15.754 3.8-23.683 5.393-4.266.858-8.707.85-13.425 1.158-.313-1.037-.27-2 .273-3.011.689-1.08.879-2.112 1.069-3.144 6.916-16.072 13.833-32.142 20.747-48.214 1.204-2.8 2.395-5.605 4.183-8.719 2.03-1.647 3.47-2.982 4.91-4.317l-2.515-1.665c.706-1.294 1.413-2.587 2.753-3.922a19.223 19.223 0 0 0 2.946-1l-2.11-3.185c.714-1.748 1.43-3.495 2.285-5.57m-25.353 73.953-2.521-2.013-.913 1.696c1.098.3 2.195.598 3.434.317m29.172-71.951.51-.419-.25-.274c-.152.16-.304.32-.26.693m-30.74 66.284-.06-.214s-.07.21.06.214z"/>
  <path fill="#2FDCB9" d="M817.24 699.398c-.25-1.914-.25-4.03-.25-5.226-5.785.28-11.192.815-16.593.75-13.288-.16-26.573-.815-39.86-.852-10.289-.027-20.578.675-30.871.846-2.955.049-6.515 1.35-8.56-3.125 8.976-15.867 18.048-31.112 27.208-46.303 11.391-18.89 22.856-37.737 34.642-56.5 2.027 2.203 3.7 4.302 5.846 6.993.787-2.015 1.853-3.5 1.861-4.993.026-4.788 2.876-5.205 6.618-5.019 8.793.439 17.604.573 26.383 1.19 1.522.107 2.902 2.004 4.38 3.027 1.868 1.293 3.696 3.473 5.669 3.627 6.125.48 12.31.18 18.473.188 9.192.011 9.21.03 8.573 9.445 1.42-1.29 2.751-1.908 2.947-2.781.714-3.184 2.81-3.834 5.577-3.667-8.406 16.767-16.754 33.563-25.233 50.292-8.787 17.335-17.702 34.606-26.81 52.108z"/>
  <path fill="#34D795" d="M600.56 2026.115c1.37.562 2.425 1.278 3.027 1.686 2.352-.984 4.439-2.639 6.462-2.565 7.736.282 15.454 1.082 23.169 1.8.874.082 2.234.699 2.435 1.354 1.593 5.194 5.72 4.565 9.731 4.646 10.59.215 21.177.621 31.766.87 2.538.06 3.727 1 3.19 3.984.016.364-.066.262-.274.44-.482.539-.755.898-1.028 1.258-2.15 2.672-4.298 5.344-7.015 8.247-1.128 1.186-1.689 2.14-2.249 3.094-.644.971-1.288 1.942-2.436 3.224-.747.632-.99.955-1.233 1.277-11.501 13.693-22.997 27.39-34.505 41.077-16.313 19.403-32.638 38.795-48.952 58.198-16.771 19.948-33.54 39.899-50.3 59.856-6.945 8.271-13.837 16.587-20.825 24.823-1.284 1.513-2.91 2.735-4.379 4.092l-1.122-.865c3.06-7 6.134-13.996 9.18-21.004 21.709-49.959 43.401-99.925 65.125-149.877 6.598-15.172 13.277-30.308 20.234-45.615m62.568 26.818.01-.158s-.141.225-.264.292l-.01.153s.137-.22.264-.287z"/>
  <path fill="#2EDDBF" d="M436.993 1174.034c1.033 4.432 2.096 8.857 3.085 13.3.392 1.761.48 3.598.95 5.334.79 2.914 1.751 5.784 2.696 8.653.255.773 1.12 1.54 1.017 2.204-1.376 8.86 3.556 16.374 5.557 24.439 1.811 7.304 6.376 13.888 9.248 20.983 1.644 4.062 2.738 8.456 3.318 12.802.427 3.206 1.585 4.224 4.66 4.312 4.046.116 8.076.716 12.296 1.444-32.037.388-64.258.447-96.478.492-8.804.013-17.607-.013-26.785-.421 3.281-3.892 5.29-7.403.135-11.386-.609-.47-.316-1.966-.792-2.783-.782-1.343-1.596-2.96-2.846-3.688-4.706-2.742-4.9-3.946-2.635-8.864.957-2.079.766-4.944.367-7.33-.587-3.497-1.673-6.94-2.85-10.3-.7-1.993-1.517-4.51-3.096-5.522-4.249-2.724-4.176-3.923-2.697-8.608 1.304-4.132 2.08-9.532.443-13.188-1.71-3.818-2.562-7.287-2.605-11.26-.063-5.86-.822-6.57-6.653-6.646-3.126-.04-6.483.56-7.98-3.235 2.319-.4 4.29-.763 6.256-.733 17.927.278 35.852.87 53.778.88 17.203.01 34.407-.562 51.61-.879z"/>
  <path fill="#2FDCB9" d="M325 1174.987c1.845 3.575 5.202 2.974 8.328 3.014 5.831.075 6.59.786 6.653 6.647.043 3.972.896 7.44 2.605 11.26 1.637 3.655.861 9.055-.443 13.187-1.48 4.685-1.552 5.884 2.697 8.608 1.579 1.012 2.396 3.529 3.095 5.523 1.178 3.36 2.264 6.802 2.85 10.3.4 2.385.591 5.25-.366 7.329-2.265 4.918-2.071 6.122 2.635 8.864 1.25.729 2.064 2.345 2.846 3.688.476.817.183 2.313.792 2.783 5.155 3.983 3.146 7.494-.599 11.316-31.78.375-63.471.422-95.627.398-.798-3.189-.961-6.338-1.514-9.417-.575-3.204-1.536-6.338-2.308-9.507-.698-2.865-1.33-5.745-2.057-8.602-2.09-8.21-4.288-16.392-6.282-24.625-.62-2.56-.672-5.252-1.072-7.87-1.21-7.922-2.738-15.81-3.582-23.77-.412-3.88.42-7.892 1.167-11.641 4.294.972 8.108 2.382 11.925 2.388 11.292.017 22.585-.771 33.878-.769 11.46.003 22.919.574 34.378.896z"/>
  <path fill="#30DCB2" d="M869.517 596.752c-3.001.079-5.097.729-5.81 3.913-.197.873-1.528 1.492-2.948 2.781.637-9.415.619-9.434-8.573-9.445-6.162-.008-12.348.292-18.473-.188-1.973-.154-3.801-2.334-5.669-3.627-1.478-1.023-2.858-2.92-4.38-3.027-8.779-.617-17.59-.751-26.383-1.19-3.742-.186-6.592.231-6.618 5.02-.008 1.491-1.074 2.977-1.861 4.992-2.146-2.691-3.82-4.79-5.735-7.306.72-1.832 1.681-3.246 2.924-4.718.466-.723.65-1.388.943-2.36 1.016-1.764 1.923-3.221 3.19-4.723 4.991-2.245 5.169-2.614 2.771-5.27 2.6-4.72 5.076-9.122 7.676-13.45a6467.675 6467.675 0 0 1 18.845-31.15c6.103-10.033 12.25-20.04 18.79-30.048 1.769-.416 4.125-.573 4.321-1.308 1.28-4.782 4.746-4.82 8.593-4.724 2.757.068 4.07-1.192 2.823-4.127-.36-.846-.365-1.843-.681-3.585 7.006 0 13.569-.058 20.128.078.761.016 2.022 1.002 2.166 1.717 1.051 5.192 4.887 4.844 8.853 5.056 12.462.669 25.2-.978 37.177 4.109-8.823 17.495-17.624 35.001-26.477 52.481a8046.317 8046.317 0 0 1-25.592 50.1z"/>
  <path fill="#31DBAA" d="M879.722 368.204c.653 1.299 1.036 2.742 1.358 4.198.67 3.037 2.145 3.86 5.572 3.913 11.382.173 22.756 1.059 34.117 1.894 1.093.08 2.54 1.509 3.024 2.65 2.194 5.18 4.14 6.383 9.383 4.42 6.84-2.56 13.392-1.059 19.955.838.973.282 2.394 1.287 2.464 2.062.538 5.932 4.603 6.06 9.01 5.829 1.158-.06 2.322-.009 3.939-.008.456 0 .456.001.497.378.554 1.203 1.067 2.028 1.58 2.854-4.666 9.467-9.26 18.97-14.017 28.393-6.854 13.574-13.825 27.088-21.07 40.456-.51-1.32-.94-2.491-.833-3.611.38-3.992-1.301-5.55-5.308-5.745-4.906-.24-9.812-.942-14.66-1.782-4.274-.74-8.53-1.742-12.67-3.032-2.08-.648-3.81-3.03-5.82-3.199-13.346-1.12-26.722-1.91-40.096-2.679-4.38-.251-9.024.858-11.968-3.973-.534-.874-2.356-1.248-3.622-1.346-8.542-.655-17.094-1.174-25.643-1.736 12.284-13.49 24.555-26.992 36.858-40.465a3842.282 3842.282 0 0 1 27.95-30.309z"/>
  <path fill="#30DBB0" d="M814.615 439.122c8.848.418 17.4.937 25.942 1.592 1.266.098 3.088.472 3.622 1.346 2.944 4.83 7.588 3.722 11.968 3.973 13.374.769 26.75 1.56 40.097 2.68 2.009.168 3.74 2.55 5.82 3.198 4.138 1.29 8.395 2.292 12.67 3.032 4.847.84 9.753 1.542 14.66 1.782 4.006.195 5.688 1.753 5.307 5.745-.106 1.12.323 2.291.576 3.87-2.825 6.33-5.72 12.227-9.09 18.622-.68.902-.887 1.306-1.094 1.71-1.012 2.352-2.025 4.704-3.272 7.277-12.211-4.864-24.95-3.217-37.412-3.886-3.966-.212-7.802.136-8.853-5.056-.144-.715-1.405-1.701-2.166-1.717-6.559-.136-13.122-.078-20.128-.078.316 1.742.322 2.74.681 3.585 1.248 2.935-.066 4.195-2.823 4.127-3.847-.096-7.313-.058-8.593 4.724-.196.735-2.552.892-4.246.985.328-1.44.992-2.55 1.922-3.65.442.012.619.015.83.08.033.06.187.074.187.074s-.218-.138-.23-.43c-.029-.487-.043-.682-.004-1.143.37-.702.685-1.136 1.333-1.646 2.22-2.088 6.508-2.649 4.647-7.298.482-1.07.838-1.845 1.53-2.659 1.163-1.388 2.04-2.714 2.702-4.14.05-.106-1.452-.932-2.232-1.423l-2.058 4.069a361.964 361.964 0 0 1-9.324 10.571c-.314.332-.47.636-.763 1.19-.571.604-1.008.96-1.678 1.073-1.183-.05-2.133.144-3.083.337.213.939.426 1.878.497 3.112-.875 1.103-1.607 1.913-2.561 2.413-3.091-5.366-1.956-7.583 6.82-12.101-2.533-1.264-4.258-2.751-6.104-2.92-4.276-.39-8.647.181-12.906-.297-1.95-.218-4.765-1.591-5.362-3.143-1.24-3.23-3.282-3.448-6.1-3.79-5.201-.63-10.378-1.634-15.47-2.873-1.159-.283-1.931-2.157-2.882-3.3 1.192-1.462 2.384-2.924 4.005-4.724.652-.545.842-.778 1-1.037 1.101-1.3 2.203-2.6 3.807-3.87 2.381-2.064 4.261-4.156 6.142-6.248.778-1.195 1.557-2.39 2.828-3.88.733-.554.972-.813 1.212-1.072 0 0 .002.079.197-.099.472-.46.75-.74 1.027-1.023 2.036-2.506 4.071-5.013 6.405-7.664z"/>
  <path fill="#AEDFD3" d="M1365.456 1094.922c1.566-1.008 3.513-2.443 5.646-2.818 7.392-1.302 14.872-2.106 22.253-3.454 1.047-.191 2.51-2.429 2.39-3.573-.148-1.4-1.517-3.348-2.797-3.793-1.94-.674-4.258-.29-6.416-.293-9.966-.014-19.937.152-29.896-.133-2.172-.062-4.298-1.712-6.566-2.95 1.197-.425 2.515-.627 3.832-.628 45.118-.016 90.236-.013 136.41-.013-59.517 70.597-118.566 140.638-177.94 210.774 1.1-2.828 2.168-5.996 3.998-8.636 21.136-30.484 42.437-60.853 63.592-91.323 20.227-29.133 40.336-58.347 60.48-87.537.989-1.432 1.82-2.973 3.393-5.564-26.782 0-52.347 0-78.38-.059z"/>
  <path fill="#B6E8D7" d="M753.424 472.02c3.389 1.366 3.052 3.847 1.237 5.96-1.892 2.202-4.383 3.276-6.537-.479.11-.634.307-.935 1.068-1.207 4.931 1.276 3.244-2.64 4.232-4.274z"/>
  <path fill="#3CA971" d="M1103.139 223.533c-.377-.206-.54-.673-.87-1.325 1.84-4.418 3.845-8.652 5.851-12.885l.511.232c-1.76 4.572-3.519 9.145-5.492 13.978z"/>
  <path fill="#30DBB0" d="M1174.58 1451.565c-.307-2.582-.307-5.33-.307-8.982 2.123 1.661 3.283 2.57 4.754 3.511-1.174 1.791-2.658 3.548-4.448 5.47z"/>
  <path fill="#31DBAA" d="M1298.71 1304.243c-.482-4.52 3.075-6.215 6.687-8.114-1.91 2.66-4.16 5.3-6.688 8.114zM1018.469 1637.332c-.341-.377-.383-.935-.446-1.912 1.846-2.557 3.713-4.695 5.767-7.105-1.55 2.765-3.286 5.8-5.321 9.017z"/>
  <path fill="#2DDEC6" d="M846.026 1460.352c.935.206 1.774.761 2.612 1.316-1.44 1.335-2.88 2.67-4.663 4.111.423-1.622 1.189-3.35 2.051-5.427z"/>
  <path fill="#AEDFD3" d="M753.36 471.967c-.924 1.687.763 5.603-3.914 4.22.835-1.504 1.98-2.874 3.41-4.292.286-.047.44.02.504.072z"/>
  <path fill="#30DCB2" d="M1265.528 1342.967c-2.473-4.031 1.113-3.255 3.494-3.834-.804 1.242-1.998 2.474-3.494 3.834z"/>
  <path fill="#31DBAA" d="M1296.19 1307.639c-.867-.924-1.471-1.999-2.61-4.023 1.984.271 3.077.42 4.502.695-.32 1.143-.974 2.16-1.891 3.328z"/>
  <path fill="#2DDEC6" d="M849.43 1452.126c.985.832 1.689 1.893 2.392 2.955-.77.32-1.542.639-2.627.914-.224-1.242-.135-2.44.236-3.869z"/>
  <path fill="#AEDFD3" d="M1308.135 1293.053c.922-1.6 2.129-3.287 3.674-4.99-.904 1.623-2.147 3.263-3.674 4.99z"/>
  <path fill="#30DCB2" d="M1274.653 1333.044c-.777-.512-1.305-1.129-1.833-1.745.94-.172 1.882-.344 3.056-.299-.17.79-.572 1.365-1.223 2.044z"/>
  <path fill="#2EDDBD" d="M818.526 1523.067c.082.883-.108 1.915-.51 2.761-.061-.995.088-1.804.51-2.761z"/>
  <path fill="#31DBAA" d="M978.531 381.917c-.938-.118-1.575-.399-2.213-.68.766-.683 1.531-1.366 2.598-2.103.172.837.044 1.728-.385 2.783zM969 394c1.06-.654 2.118-1.307 3.506-1.979-.019 1.024-.366 2.066-1.15 3.09-1.077-.383-1.717-.746-2.356-1.11V394z"/>
  <path fill="#32DAA3" d="M670.042 2050.752c.292-.777.853-1.731 1.738-2.696-.274.832-.872 1.675-1.738 2.696z"/>
  <path fill="#2FDCB9" d="M747.185 837.564c.187-.973.605-2.142 1.322-3.433-.165.998-.627 2.117-1.322 3.433z"/>
  <path fill="#32DAA3" d="M969.041 394.378c.598-.013 1.238.35 2.111 1.004.111.723-.012 1.155-.332 1.719-.712-.695-1.225-1.52-1.779-2.723z"/>
  <path fill="#30DCB2" d="M1271.934 1336.11c-.743-.338-1.286-.773-1.83-1.208.607.027 1.214.054 2.1.197.278.433.161.698-.27 1.01z"/>
  <path fill="#2FDCB9" d="M745.059 841.777c-.06-.45.117-1.072.527-1.76.058.486-.116 1.037-.527 1.76z"/>
  <path fill="#32DAA3" d="M666.372 2055.272c-.024-.164.219-.487.697-1.001.014.153-.208.498-.697 1.001zM679.357 2039.424c-.046-.196.227-.555.752-1.142.024.175-.205.577-.752 1.142z"/>
  <path fill="#31DBAA" d="M975.394 387.325c-.09-.185.108-.543.512-1.128.062.167-.082.561-.512 1.128z"/>
  <path fill="#AEDFD3" d="M1307.106 1294.72c-.077-.01.012.135-.033.161-.045.027.11-.15.033-.16z"/>
  <path fill="#31DBAA" d="M925.392 486.47c-.092-.202.114-.606.545-1.267.068.185-.09.625-.545 1.268z"/>
  <path fill="#49DFCE" d="M568.416 1174.965c-.423.01-.91-.017-1.24-.366-4.27-8.561-10.169-13.318-19.898-11.96-.91.127-3.063-1.922-3.035-2.916.15-5.312-2.896-6.018-7.101-5.754-2.655.167-5.333.137-7.992.01-6.266-.3-12.676-.03-17.027-6.11-.846-1.182-3.18-1.52-4.901-1.808-3.27-.546-6.655-.504-9.864-1.254-1.52-.355-3.787-1.86-3.918-3.042-.534-4.81-3.674-4.535-7.154-4.942-1.819-.213-4.586-1.939-4.91-3.422-.8-3.663-2.727-4.745-5.965-4.375-5.548.635-10.036-1.3-12.938-4.79-3.23.87-5.786 1.904-8.42 2.173-2.606.266-5.29-.342-7.941-.389-6.05-.106-6.742-.73-7.104-6.902-.059-.997.28-2.332-.236-2.921-1.09-1.243-2.535-2.722-4.001-2.93-1.442-.205-4.153.716-4.458 1.71-1.17 3.816-3.797 4.478-6.976 3.972-5.122-.813-10.155-2.374-15.295-2.823-4.316-.378-6.655-2.312-6.886-6.307-.238-4.11-2.403-5.038-5.9-4.836-1.825.106-3.662.015-5.494.015-3.81.002-7.343-.292-8.754-4.867-.283-.917-1.944-1.959-3.008-2.002-12.69-.51-24.39-5.062-36.244-8.877-1.875-.603-3.261-2.834-4.772-4.41-.773-.806-1.125-2.312-2.004-2.667-3.922-1.585-4.224-4.734-3.954-8.523.699-1.09 1.328-1.877 2.27-2.77.777-1.029 1.243-1.952 1.883-3.16 4.06-5.091 7.945-9.898 12.117-14.884 6.19-6.89 12.05-13.642 18.012-20.303 6.171-6.896 12.441-13.705 18.898-20.413.747-.637 1.266-1.414 1.999-2.435 2.064-2.405 3.913-4.564 5.849-6.371 1.415 1.445 2.76 2.518 4.067 3.635 1.883 1.608 4.556 2.905 5.413 4.953 1.27 3.036 3.046 3.98 5.989 4.109 5.795.253 11.622.366 17.36 1.113 4.243.553 8.923.597 10.888 6.176.51 1.45 4.164 2.393 6.38 2.407 1.253.007 2.607-2.281 3.745-3.674.637-.78.927-1.845 1.374-2.782l1.819-1.428c-.68 8.626 5.683 8.793 10.144 11.254.27.149.373.612.644.742 2.245 1.084 4.416 2.488 6.79 3.106 6.518 1.699 13.26 2.641 19.647 4.706 4.242 1.371 7.823 4.891 12.082 6.073 3.218.892 7.04-.394 10.593-.71-4.385 7.75-8.64 15.58-13.184 23.236-7.485 12.61-15.142 25.12-22.77 37.645-1.018 1.672-2.287 3.19-4.089 4.98-5.546.722-4.31 4.14-3.93 7.154-.225 1.404-.45 2.808-.8 5.009 46.714 0 92.78 0 139.316.403 1.068 6.206 3.367 8.46 8.93 8.562 3.658.068 7.342-.21 10.967.146 1.53.15 3.814 1.226 4.235 2.418 1.089 3.08 3.165 3.241 5.805 3.514 5.733.592 11.795.604 17.029 2.637 4.58 1.78 10.396 3.423 11.773 9.78.184.845 1.514 1.442 2.313 2.153.775-.938 1.936-1.77 2.235-2.841.435-1.56.033-3.341.378-4.944.546-2.541 2.819-3.853 4.083-1.432 3.106 5.95 6.715 9.965 14.011 11.028 2.613.381 4.995 2.02 8.089 1.053 3.805-1.188 6.676-.42 7.894 4.264.367 1.41 3.605 3.348 5.025 2.998 8.044-1.979 13.001 4.244 19.363 6.614 4.228 1.575 8.374 3.614 12.748 4.473 3.844.755 7.967-.023 11.94.252 1.581.109 3.092 1.23 4.635 1.89-39.398.006-78.797-.08-118.196.06-17.05.06-34.1.61-51.151.886-5.598.091-11.199.019-17.222.031m-177.024-163.64 2.059 3.52 2.213-1.533c-1.27-.827-2.541-1.655-4.272-1.986z"/>
  <path fill="#4BE1D7" d="M755.455 1173.995c-2.013-.667-3.524-1.788-5.105-1.897-3.973-.275-8.096.503-11.94-.252-4.374-.86-8.52-2.898-12.748-4.473-6.362-2.37-11.319-8.593-19.363-6.614-1.42.35-4.658-1.588-5.025-2.998-1.218-4.683-4.089-5.452-7.894-4.264-3.094.966-5.476-.672-8.089-1.053-7.296-1.063-10.905-5.078-14.011-11.028-1.264-2.421-3.537-1.11-4.083 1.432-.345 1.603.057 3.383-.378 4.944-.299 1.071-1.46 1.903-2.235 2.841-.8-.711-2.13-1.308-2.313-2.153-1.377-6.357-7.193-8-11.773-9.78-5.234-2.033-11.296-2.045-17.029-2.637-2.64-.273-4.716-.434-5.805-3.514-.421-1.192-2.704-2.268-4.235-2.418-3.625-.356-7.31-.078-10.968-.146-5.562-.103-7.86-2.356-8.46-8.553 5.353-.41 10.707-.428 16.998-.442 75.299.02 149.66.037 224.017.479.112 6.932 1.774 8.34 8.166 7.227 3.43-.598 6.839-1.322 10.263-1.956 2.735-.506 4.947-.234 5.536 3.203 1.276 7.451 1.462 7.283 8.947 6.486 2.41-.257 7.023 1.007 7.2 2.12 1.04 6.558 5.636 5.481 9.832 5.426 3.652-.048 6.588.465 7.263 4.977.14.935 2.273 2.336 3.376 2.24 7.416-.644 13.34 3.305 19.266 6.51 4.095 2.215 6.797 3.86 9.897-1.075.532-.847 5.368-.385 5.49.126 1 4.173 4.162 4.354 7.32 4.61 3.803.306 7.642.266 11.424.723 1.636.198 3.82.819 4.635 2.012 3.805 5.567 8.994 7.952 15.548 7.907 3.998-.027 8.03-.305 11.98.13 2.028.223 3.912 1.76 5.86 2.704l-22.555.139c-73.159-.324-145.849-.65-219.009-.983z"/>
  <path fill="#57E0D2" d="M509.065 1042.655c-3.629.657-7.451 1.943-10.67 1.05-4.258-1.18-7.84-4.7-12.081-6.072-6.387-2.065-13.13-3.007-19.648-4.706-2.373-.618-4.544-2.022-6.79-3.106-.27-.13-.374-.593-.643-.742-4.46-2.46-10.825-2.628-10.144-11.254l-1.82 1.428c-.446.937-.736 2.001-1.373 2.782-1.138 1.393-2.492 3.681-3.744 3.674-2.217-.014-5.87-.957-6.38-2.407-1.966-5.58-6.646-5.623-10.888-6.176-5.74-.747-11.566-.86-17.361-1.113-2.943-.129-4.72-1.073-5.99-4.109-.856-2.048-3.53-3.345-5.412-4.953-1.307-1.117-2.652-2.19-3.84-3.879 1.644-2.562 3.047-4.614 4.664-6.48 15.495-17.894 31.003-35.777 46.574-53.604 1.909-2.184 4.211-4.024 6.594-5.817 2.393 2.54 4.32 1.405 5.627-.515 2.9-4.254 5.883-3.91 8.804-1.146-1.497 1.76-2.895 3.407-4.294 5.053 1.955 1.143 3.777 2.801 5.886 3.344 10.627 2.734 20.839-3.69 32.168-.582 7.128 1.955 14.924.622 20.337 7.425.739.928 2.708.927 4.131 1.25 3.54.805 7.113 1.463 10.633 2.34 3.108.775 6.114 2.251 9.25 2.557 5.663.553 8.681 3.703 8.607 9.51-.015 1.19 1.13 2.395 1.74 3.593-8.569 14.187-17.12 28.383-25.711 42.557-6.023 9.936-12.098 19.84-18.226 30.098z"/>
  <path fill="#74E0D7" d="M641.986 821.989c-3.24 5.753-6.481 11.506-9.873 17.559a26811.416 26811.416 0 0 1-34.89 57.717c-1.114 1.836-2.458 3.533-4.288 5.486-6.36-2.129.673-4.5-.503-6.653-3.298-.5-6.928-.145-9.502-1.626-5.52-3.176-10.917-5.873-17.501-5.514-3.987.218-8.041.366-11.975-.146-1.597-.208-3.977-2.079-4.218-3.496-.593-3.495-2.37-4.385-5.463-4.332-4.665.08-9.359.292-13.984-.146-1.665-.158-3.28-1.903-4.715-3.158-1.58-1.382-2.925-3.033-4.372-4.567-1.284 1.402-2.482 2.896-3.878 4.174-1.108 1.014-2.47 2.442-3.696 2.421-1.048-.018-2.275-1.7-3.047-2.889-1.21-1.862-2.104-3.93-2.97-6.2 3.297-4.14 6.355-8.054 9.58-11.827 9.604-11.239 19.219-22.47 28.932-33.614 9.711-11.144 19.546-22.18 29.418-32.87 2.292 9.39 2.294 9.38 11.614 10.896 1.8.292 3.708.407 5.335 1.126 1.7.752 3.082 2.198 4.677 3.224 1.884 1.212 3.796 3.135 5.789 3.258 3.565.222 7.264-.388 10.786-1.183 3.414-.77 5.18-.325 5.972 3.552.869 4.26 5.52 7.387 7.915 5.28 5.487-4.825 8.774-2.324 12.274 2.072.57.716 1.708.982 2.583 1.456z"/>
  <path fill="#64E1D4" d="M506.949 870.908c1.028 1.981 1.922 4.049 3.132 5.911.772 1.19 1.999 2.87 3.047 2.89 1.227.02 2.588-1.408 3.696-2.422 1.396-1.278 2.594-2.772 3.878-4.174 1.447 1.534 2.792 3.185 4.372 4.567 1.434 1.255 3.05 3 4.715 3.158 4.625.438 9.32.227 13.984.146 3.094-.053 4.87.837 5.463 4.332.24 1.417 2.621 3.288 4.218 3.496 3.934.512 7.988.364 11.975.146 6.584-.36 11.98 2.338 17.5 5.514 2.575 1.48 6.205 1.127 9.503 1.626 1.176 2.153-5.856 4.524.272 6.893-4.219 8.115-8.683 16.25-13.407 24.232-6.164 10.417-12.525 20.718-18.831 31.05-.515.843-1.254 1.548-2.51 2.56-4.439.98-4.515 3.24-3.02 6.14-.513.853-1.026 1.706-1.737 2.793-.808-.964-1.952-2.169-1.937-3.359.074-5.807-2.944-8.957-8.608-9.51-3.135-.306-6.14-1.782-9.249-2.557-3.52-.877-7.094-1.535-10.633-2.34-1.423-.323-3.392-.322-4.13-1.25-5.414-6.803-13.21-5.47-20.338-7.425-11.329-3.107-21.541 3.316-32.168.582-2.109-.543-3.931-2.2-5.886-3.344l4.294-5.053c-2.921-2.764-5.905-3.108-8.804 1.146-1.308 1.92-3.234 3.055-5.52.184.273-1.242.61-2.023 1.14-2.639 16.512-19.206 33.023-38.413 49.597-57.565 1.8-2.08 3.985-3.827 5.992-5.728z"/>
  <path fill="#2BE0CF" d="M845.022 1121.044c-74.362-.017-148.724-.034-223.556-.062-.406-6.238-1.243-12.516 2.82-18.183 1.15-1.606.523-4.488.71-7.21 31.617-.486 63.235-.59 94.852-.596 60.743-.013 121.485.03 182.786.456 4.199 8.38 6.406 16.627 4.902 25.512-21.15.038-41.832.06-62.514.083z"/>
  <path fill="#3FDEC9" d="M465.299 1115.819c-.663-2.822-1.9-6.24 3.361-6.78-.784 2.185-1.931 4.386-3.361 6.78z"/>
  <path fill="#57E0D2" d="M555.225 966.791c-1.784-2.718-1.708-4.977 2.491-5.721-.48 1.842-1.34 3.691-2.49 5.721zM845.016 1121.469c20.688-.448 41.37-.47 62.988-.491 58.957-.019 116.978-.04 175.373-.049 1.123.005 1.872-.004 3.023.01 1.477.063 2.552.105 3.629.526 1.009 4.192 3.503 7.576 2.412 12.045-.252 1.033 2.64 3.452 4.502 4.208 1.871.76 4.264.332 6.424.26 2.923-.097 4.86.57 6.104 3.782.598 1.544 3.455 2.852 5.432 3.092 4.457.543 9.497-1.003 11.729 4.95.295.788 1.927 1.343 3.018 1.515 4.234.668 8.501 1.118 12.75 1.69 1.946.26 4.647-.08 5.678 1.056 3.615 3.982 8.024 4.09 12.769 4.011 3.238-.053 5.989.997 6.163 4.978.167 3.784 2.62 3.97 5.6 3.793 6.46-.384 12.931-.59 19.4-.834 3.653-.137 6.115.958 6.148 5.302.009 1.163 1.184 2.67 2.248 3.4 2.374 1.629 5.015 2.867 7.755 4.379l3.931-2.047c-2.545 4.017-4.934 8.143-7.665 12.03-7.199 10.245-14.546 20.385-22.466 30.686-2.59-1.164-4.548-2.447-7.076-4.105-.4.97-1.116 2.136-1.336 3.39-.263 1.503-.104 3.082-.128 4.628-2.542-.296-6.821.167-7.337-1.014-2.67-6.117-8.07-4.686-12.663-5.765-1.718-.403-4.132-1.487-4.61-2.836-1.4-3.941-4.184-3.944-7.505-4.173-2.62-.18-6.827-.706-7.456-2.25-2.392-5.871-7.458-4.862-11.713-5.355-1.563-.181-4.313 1.792-4.942 3.4-1.114 2.85-2.759 3.41-5.324 3.202-3.961-.32-7.934-.896-11.888-.797-3.774.094-5.538-1.343-6.901-4.873-2.072-5.365-4.555-10.864-12.255-9.341-1.087.215-2.752-.49-3.578-1.33-2.702-2.745-5.756-2.777-9.22-2.135-1.436.266-4.203-.044-4.382-.665-1.375-4.756-4.72-3.056-7.684-2.741l4.698-12.097c-21.035 0-41.871 0-63.175-.032-2.415-.976-4.299-2.514-6.327-2.737-3.95-.435-7.982-.157-11.98-.13-6.554.045-11.743-2.34-15.548-7.907-.816-1.193-3-1.814-4.635-2.012-3.782-.457-7.62-.417-11.424-.724-3.158-.255-6.32-.436-7.32-4.61-.122-.51-4.958-.972-5.49-.125-3.1 4.935-5.802 3.29-9.897 1.075-5.927-3.205-11.85-7.154-19.266-6.51-1.103.096-3.236-1.305-3.376-2.24-.675-4.512-3.61-5.025-7.263-4.977-4.196.055-8.792 1.132-9.833-5.426-.176-1.113-4.79-2.377-7.199-2.12-7.485.797-7.671.965-8.947-6.486-.59-3.437-2.8-3.709-5.536-3.203-3.424.634-6.833 1.358-10.263 1.956-6.392 1.112-8.054-.295-8.166-7.227z"/>
  <path fill="#49DFCE" d="M991.985 1326.994c3.008-7.165 5.874-14.392 9.05-21.48 8.348-18.635 16.795-37.225 25.282-55.796a196.428 196.428 0 0 1 8.35-16.223c-.053 2.648-1.524 6.468-.612 7.163 3.604 2.75 5.05 8.973 11.634 7.411 8.708-2.066 9.298 9.079 16.084 10.394.125.025.166.61.206.938.443 3.65 3.099 4.418 6.1 4.556 8.444.388 16.888.822 25.336.988 3.765.074 6.972.325 7.968 4.874.182.83 1.544 1.693 2.528 1.996 2.525.776 5.134 1.287 7.726 1.826 3.241.673 5.882.593 6.599-3.731.21-1.269 2.762-3.41 3.373-3.146 3.955 1.708 7.96 3.587 11.377 6.167 3.13 2.364 6.78 2.856 10.353.07.79.004 1.243.008 1.695.011-2.042 3.373-3.9 6.874-6.156 10.096-11.66 16.653-23.415 33.24-35.155 49.837-3.43 4.849-6.918 9.655-10.906 14.836-2.104 1.88-4.08 3.164-5.176 4.98-2.377 3.933-4.81 8.192-9.649 8.549-5.402.399-10.907-.513-16.36-.933-3.456-.265-6.052-1.524-8.114-4.794-2.938-4.661-8.206-3.324-12.772-3.607-3.482-.216-3.838 2.56-5.506 4.497-1.517 1.762-5.105 2.295-7.78 2.294-1.583 0-4.55-2.12-4.523-3.232.173-7.436-3.16-11.506-9.839-14.774-4.005-1.96-6.36-2.733-10.14-.15-3.826 2.614-8.183 1.908-12.312-.37 1.478-1.336 3.126-1.944 4.615-2.823 1.31-.774 2.441-1.85 3.651-2.793-1.285-1.378-2.584-2.744-3.853-4.139-1.043-1.147-2.05-2.327-3.074-3.492z"/>
  <path fill="#38DFC8" d="M991.654 1327.11c1.355 1.05 2.362 2.23 3.405 3.376 1.269 1.395 2.568 2.76 3.853 4.14-1.21.942-2.34 2.018-3.65 2.792-1.49.879-3.138 1.487-4.616 2.822 4.129 2.279 8.486 2.985 12.312.37 3.78-2.582 6.135-1.808 10.14.151 6.679 3.268 10.012 7.338 9.839 14.774-.026 1.111 2.94 3.231 4.523 3.232 2.675.001 6.263-.532 7.78-2.294 1.668-1.937 2.024-4.713 5.506-4.497 4.566.283 9.834-1.054 12.772 3.607 2.062 3.27 4.658 4.529 8.113 4.794 5.454.42 10.96 1.332 16.361.933 4.84-.357 7.272-4.616 9.649-8.55 1.097-1.815 3.072-3.1 5.002-4.695-.17 1.288-.437 2.825-1.25 3.976-9.164 12.96-18.467 25.82-27.62 38.789-9.8 13.887-19.481 27.86-29.83 42.058-4.682 4.561-10.781 6.835-12.838 13.248-.476 1.485-3.46 3.336-4.968 3.085-3.497-.582-8.465-1.425-9.797-3.838-2.146-3.892-4.416-5.513-8.424-5.35-3.616.146-6.256-.859-8.296-4.24-1.029-1.705-3.57-3.17-5.601-3.439-2.877-.382-5.936.317-8.871.817-1.01.172-2.492.964-2.72 1.768-1.247 4.383-4.592 4.106-7.995 4.09-4.185-.021-8.023.56-9.29 5.614-.203.811-1.576 1.33-2.408 1.984-.564-.903-1.404-1.738-1.645-2.72-.898-3.665-1.779-7.352-2.306-11.081-.312-2.203-.351-4.606.193-6.738 1.469-5.75 3.316-11.401 5.013-17.092 1.981-5.09 3.963-10.181 5.977-15.634 2.669-5.466 5.42-10.515 7.915-15.688 4.154-8.613 8.255-17.256 12.168-25.98 3.228-7.196 6.122-14.543 9.246-21.787.431-.999 1.34-1.792 2.358-2.797z"/>
  <path fill="#4FE0CF" d="M1143 1273c-3.233 2.787-6.883 2.295-10.014-.069-3.417-2.58-7.422-4.459-11.377-6.167-.611-.264-3.163 1.877-3.373 3.146-.717 4.324-3.358 4.404-6.599 3.73-2.592-.538-5.201-1.05-7.726-1.825-.984-.303-2.346-1.167-2.528-1.996-.996-4.549-4.203-4.8-7.968-4.874-8.448-.166-16.892-.6-25.335-.988-3.002-.138-5.658-.907-6.101-4.556-.04-.329-.08-.913-.206-.938-6.786-1.315-7.376-12.46-16.084-10.394-6.584 1.562-8.03-4.661-11.634-7.411-.912-.695.559-4.515.93-7.297a2975.667 2975.667 0 0 1 20.74-46.12c3.202-.555 6.547-2.255 7.922 2.501.18.62 2.946.93 4.381.665 3.465-.642 6.519-.61 9.22 2.135.827.84 2.492 1.545 3.58 1.33 7.7-1.523 10.182 3.976 12.254 9.34 1.363 3.531 3.127 4.968 6.901 4.874 3.954-.099 7.927.477 11.888.797 2.565.208 4.21-.352 5.324-3.201.63-1.609 3.379-3.582 4.942-3.4 4.255.492 9.32-.517 11.713 5.355.629 1.543 4.836 2.068 7.456 2.25 3.32.228 6.105.231 7.504 4.172.479 1.349 2.893 2.433 4.61 2.836 4.594 1.079 9.993-.352 12.664 5.765.516 1.18 4.795.718 7.337 1.014.024-1.546-.135-3.125.128-4.629.22-1.253.936-2.418 1.336-3.39 2.528 1.659 4.486 2.942 6.803 4.302-1.697 3.437-3.57 6.927-5.842 10.136-10.05 14.197-20.215 28.313-30.576 42.689-.688.227-1.14.223-1.953-.09-.814-.87-1.268-1.433-1.722-1.995l-.934 1.015L1143 1273z"/>
  <path fill="#2DDEC6" d="M953.665 1409.104c-1.372 5.583-3.22 11.235-4.688 16.984-.544 2.132-.505 4.535-.193 6.738.527 3.73 1.408 7.416 2.306 11.08.241.983 1.08 1.818 1.645 2.72.832-.653 2.205-1.172 2.408-1.983 1.267-5.055 5.105-5.635 9.29-5.615 3.403.017 6.748.294 7.994-4.089.229-.804 1.71-1.596 2.72-1.768 2.936-.5 5.995-1.199 8.872-.817 2.03.27 4.572 1.734 5.601 3.44 2.04 3.38 4.68 4.385 8.296 4.239 4.008-.163 6.278 1.458 8.424 5.35 1.332 2.413 6.3 3.256 9.797 3.838 1.508.25 4.492-1.6 4.968-3.085 2.057-6.413 8.156-8.687 12.559-13.058-4.495 7.245-9.2 14.65-14.186 21.86-7.256 10.493-14.715 20.845-22.085 31.26-3.353 4.738-6.699 9.481-10.559 14.592-1.285 1.65-2.06 2.93-2.834 4.21h-.001c-.892.416-2.14.587-2.618 1.285-4.354 6.346-10.78 9.001-17.905 10.817-2.233.57-4.27 2.298-6.137 3.815-2.833 2.303-21.258 2.01-23.24-.938-1.299-1.933-1.139-4.797-2.234-6.936-.816-1.592-2.52-3.702-3.963-3.812-3.736-.283-7.766-1.376-10.887 2.805-1.005 1.347-4.744.653-8.733 1.037 1.87-4.684 3.172-7.98 4.497-11.265 6.887-17.07 13.624-34.202 20.723-51.183 5.098-12.198 10.627-24.217 16.105-36.252.862-1.894 2.47-3.448 4.058-5.269m-8.064 27.51-1.26-.853-.48 1.51c.53-.06 1.057-.12 1.74-.658z"/>
  <path fill="#64E1D4" d="M1212.322 1176.809a84.7 84.7 0 0 1-4.16 2.283c-2.74-1.512-5.382-2.75-7.756-4.378-1.064-.73-2.239-2.238-2.248-3.401-.033-4.344-2.495-5.44-6.149-5.302-6.468.244-12.94.45-19.4.834-2.978.178-5.432-.009-5.599-3.793-.174-3.98-2.925-5.031-6.163-4.978-4.745.078-9.154-.029-12.769-4.011-1.031-1.137-3.732-.795-5.678-1.057-4.249-.571-8.516-1.021-12.75-1.69-1.09-.171-2.723-.726-3.018-1.513-2.232-5.954-7.272-4.408-11.729-4.95-1.977-.241-4.834-1.549-5.432-3.093-1.245-3.212-3.18-3.88-6.104-3.782-2.16.072-4.553.5-6.424-.26-1.862-.756-4.754-3.175-4.502-4.208 1.09-4.469-1.403-7.853-2.04-12.066 1.114-.432 1.859-.464 3.072-.478 34.155-.005 67.843-.028 101.53-.052 1.388.016 2.775.032 4.995.055 2.223-.016 3.614-.038 5.005-.06h46.468c-7.026 10.582-13.22 19.913-19.488 29.575-4.248 5.854-8.433 11.369-12.597 16.9-2.296 3.05-4.558 6.125-7.064 9.425z"/>
  <path fill="#2EDDBF" d="M984.278 1504.83c.496-1.11 1.27-2.39 2.383-3.75-.477 1.14-1.292 2.36-2.383 3.75z"/>
  <path fill="#31DBAA" d="M1015.88 1634.902c.108.095-.38.096-.624.097-.03-.25.223-.314.623-.097z"/>
  <path fill="#30DCB2" d="M1262.491 1338.507c-.007-.02.008.02 0 0zM1264.493 1337.491c.02-.007-.02.008 0 0z"/>
  <path fill="#2DDEC6" d="M938.514 1206.781c-.14-1.07-.088-1.936-.036-2.804l1.26.204c-.344.934-.688 1.868-1.224 2.6z"/>
  <path fill="#2EDDBF" d="M1195.002 1120.453a3646.41 3646.41 0 0 1-101.53.05c-.471-5.6-.27-10.73-.584-15.829-.112-1.808-1.482-3.54-2.278-5.306-1.215 1.6-3.26 3.088-3.49 4.818-.737 5.528-.8 11.147-1.123 16.73-.748.01-1.497.018-2.62-.44-.38-3.273-.28-6.085-.412-8.887-.288-6.106-4.566-10.443-10.356-11.867-3.685-.907-7.079-2.998-10.603-4.558 29.735-.055 59.47-.124 89.206-.16 14.951-.017 29.903.026 45.32.097-.2 8.335-.865 16.613-1.53 25.352zM1205.002 1120.449c-1.39.482-2.78.504-4.588.5-.413-6.022-.592-12.025-.284-18.004.082-1.59 1.656-3.101 2.545-4.65.774 1.57 2.138 3.111 2.216 4.715.275 5.648.109 11.318.11 17.439z"/>
  <path fill="#30DCB5" d="M776.064 1631.013c-.422.552-.869.868-1.316 1.184l-.257-1.274c.516-.049 1.032-.098 1.573.09z"/>
  <path fill="#3FDEC9" d="M330.957 1073.955c-.2 3.486.101 6.635 4.023 8.22.88.355 1.231 1.861 2.004 2.667 1.51 1.576 2.897 3.807 4.772 4.41 11.854 3.815 23.554 8.367 36.244 8.877 1.064.043 2.725 1.085 3.008 2.002 1.41 4.575 4.944 4.87 8.754 4.867 1.832 0 3.669.091 5.495-.015 3.496-.202 5.661.726 5.899 4.836.231 3.995 2.57 5.93 6.886 6.307 5.14.45 10.173 2.01 15.295 2.823 3.179.506 5.806-.156 6.976-3.972.305-.994 3.016-1.915 4.458-1.71 1.466.208 2.912 1.687 4.001 2.93.517.59.177 1.924.236 2.92.362 6.173 1.053 6.797 7.104 6.903 2.652.047 5.335.655 7.94.39 2.635-.27 5.192-1.304 8.42-2.175 2.903 3.491 7.39 5.426 12.939 4.791 3.238-.37 5.165.712 5.965 4.375.324 1.483 3.091 3.209 4.91 3.422 3.48.407 6.62.131 7.154 4.942.131 1.183 2.399 2.687 3.918 3.042 3.21.75 6.595.708 9.864 1.254 1.72.288 4.055.626 4.9 1.808 4.352 6.08 10.762 5.81 17.028 6.11 2.66.127 5.337.157 7.992-.01 4.205-.264 7.251.442 7.101 5.754-.028.994 2.124 3.043 3.035 2.916 9.73-1.358 15.628 3.399 19.655 11.95-6.516.317-13.122.39-19.722.238-3.804-.087-7.6-.776-11.399-.783-32.627-.062-65.254-.03-98.35-.019-17.673.326-34.877.898-52.08.888-17.926-.01-35.851-.602-53.778-.88-1.965-.03-3.937.333-6.256.733-11.808-.101-23.267-.672-34.727-.675-11.293-.002-22.586.786-33.878.769-3.817-.006-7.631-1.416-11.602-2.524-.146-.78-.137-1.22.191-2.096.722-.714 1.202-.927 1.517-1.286 7.176-8.16 14.446-16.24 21.455-24.542 4.76-5.636 9.15-11.584 14.04-17.47 1.522-.952 2.93-1.64 3.863-2.734 10.437-12.227 20.685-24.618 31.242-36.74 4.172-4.792 8.986-9.025 13.508-13.513z"/>
  <path fill="#2FDCB9" d="M282.01 1127.019c-4.556 5.809-8.946 11.757-13.706 17.393-7.01 8.301-14.28 16.382-21.455 24.542-.315.359-.795.572-1.513.956-.936-1.416-2.038-2.915-2.105-4.458-1.06-24.605-4.703-49.172-.553-73.86 1.062-6.32.79-12.904.629-19.354-.029-1.136-2.55-2.209-4.334-3.348 7.843-8.997 16.145-17.915 24.336-26.934 4.01-4.416 7.712-9.11 11.729-13.52 9.021-9.905 18.152-19.712 27.56-29.259-.016 7.76-.054 15.249-.805 22.667-.451 4.458-.204 9.427-4.559 12.697-.76.57-1.075 2.068-1.146 3.166-.749 11.564-1.42 23.133-2.083 34.702-.379 6.627-.64 13.261-1.109 19.881-.087 1.236-.586 2.756-1.44 3.574-5.204 4.985-4.073 10.887-2.31 16.646.835 2.724.209 4.032-1.639 5.994-2.278 2.42-3.703 5.64-5.497 8.515z"/>
  <path fill="#2EDDBF" d="M507.111 870.619c-2.169 2.19-4.354 3.937-6.154 6.017-16.574 19.152-33.085 38.359-49.597 57.565-.53.616-.867 1.397-1.402 2.432-2.228 2.33-4.53 4.17-6.439 6.355-15.571 17.827-31.08 35.71-46.574 53.603-1.617 1.867-3.02 3.919-4.75 6.129-2.077 2.403-3.926 4.562-6.235 7.126-.967.983-1.476 1.56-1.984 2.137-6.227 6.847-12.497 13.656-18.668 20.552-5.962 6.661-11.822 13.413-18.204 19.986-.974-1.678-2.092-3.316-1.867-4.74 1.505-9.496 3.253-18.956 5.062-28.4.192-1.003 1.13-2.406 1.993-2.645 4.45-1.232 3.413-4.183 3.127-7.499-.763-8.857.596-17.308 6.062-24.768.996-1.358 1.025-3.416 1.531-5.142 2.016-6.882 1.777-14.34 6.263-20.618 3.47-4.857 6.334-10.206 8.986-15.573 3.368-6.817 6.188-13.902 9.362-20.816 1.828-3.981 4.825-7.692 5.547-11.829.58-3.326 5.148-7.106.303-10.69 0 0 .052-.157.45-.074.982-.114 1.564-.312 2.146-.51l-1.181-1.253c15.442-17.008 30.83-34.066 46.337-51.014 32.6-35.626 65.262-71.193 98.449-106.752 2.558 2.157 4.71 1.938 5.69-.597 1.37-3.537 3.898-4.605 7.245-5.077 1.236-.174 3.153-.848 3.42-1.708 1.788-5.787 6.45-4.493 10.63-4.94 1.818-.194 4.643-1.345 5.024-2.645 1.172-3.99 3.798-4.95 7.342-5.563 3.06-.53 7.617-.852 8.684-2.808 2.807-5.146 7.364-4.952 11.748-6.071 1.83-.468 4.363-1.272 5.013-2.657 1.54-3.281 4.02-4.151 7.12-4.526 4.278-.518 8.562-1 12.817-1.666 1.386-.216 3.543-.626 3.888-1.514 1.83-4.72 5.608-4.447 9.519-4.476 2.293-.017 4.577-.711 6.874-.78 4.545-.137 9.096-.05 13.527.256a48.683 48.683 0 0 1-4.455 4.692 7.84 7.84 0 0 0-1.633 2.29c.034.202.143.595-.061.866a618.023 618.023 0 0 1-7.36 8.694c-.392.443-.583.726-1.03 1.212-2.091 2.348-3.924 4.493-5.973 6.78-.391.437-.566.732-1.002 1.177-.83.963-1.398 1.776-2.213 2.71-.682.677-1.117 1.232-1.834 1.994-2.764 3.159-5.246 6.11-8.014 9.235-5.806 6.127-11.506 11.925-16.808 18.067-11.072 12.827-21.934 25.836-32.882 38.77-9.78 11.084-19.616 22.12-29.327 33.265-9.713 11.145-19.328 22.375-28.932 33.614-3.225 3.773-6.283 7.688-9.58 11.827z"/>
  <path fill="#30DCB2" d="M787.686 468.905c1.257.977 2.029 2.851 3.189 3.134 5.091 1.239 10.268 2.243 15.47 2.874 2.817.341 4.858.559 6.1 3.79.596 1.55 3.412 2.924 5.361 3.142 4.259.478 8.63-.092 12.906.298 1.846.168 3.571 1.655 6.103 2.919-8.775 4.518-9.91 6.735-6.94 12.391-.399 1.262-.86 1.958-1.402 2.583-17.325 19.96-34.619 39.948-52.01 59.85-7.975 9.128-16.144 18.085-24.62 27.137-1.827 1.4-3.26 2.783-4.673 4.184.02.02.03.075-.364.027-1.825 1.008-3.253 2.069-4.69 3.118-1.207.882-2.377 2.432-3.643 2.518-12.537.85-25.092 1.421-37.637 2.161-2.278.135-5.148-.077-6.672 1.176-3.63 2.984-7.605 2.753-11.742 2.835-2.46.048-5.07.073-7.333.886-3.636 1.305-6.777 1.13-9.765-1.314.333-.457.666-.913 1.563-1.605 1.05-.922 1.536-1.608 2.02-2.295.403-.363.805-.726 1.604-.78.447.902.497 1.494.547 2.085l1.25-1.378-1.555-.966c.475-.929.951-1.858 1.864-2.675 1.619 1.222 2.802 2.332 3.984 3.441l1.435-.099c-1.364-4.592-1.093-8.283 3.984-9.05.32.809.62 1.325.92 1.84l.632-.568c-.524-.522-1.048-1.043-1.496-1.949.31-1.96.544-3.535.778-5.11 4.664-5.12 9.35-10.22 13.987-15.365 4.932-5.474 9.764-11.04 14.732-16.482 17.66-19.346 35.364-38.652 53.037-57.986 1.793-1.962 3.49-4.012 5.588-6.417.598-.574.764-.805.858-1.088.325-.446.649-.892 1.018-1.618 3.858-4.068 7.672-7.855 11.482-11.647 1.28-1.272 2.549-2.555 4.13-3.997z"/>
  <path fill="#2FDCB9" d="M665.055 602.77c3.257 2.288 6.398 2.463 10.034 1.158 2.263-.813 4.872-.838 7.333-.886 4.137-.082 8.112.15 11.742-2.835 1.524-1.253 4.394-1.041 6.672-1.176 12.545-.74 25.1-1.312 37.637-2.161 1.266-.086 2.436-1.636 3.643-2.518 1.437-1.05 2.865-2.11 4.643-2.783-2.105 3.705-4.352 7.203-7.041 10.32a23769.806 23769.806 0 0 1-63.155 72.854c-5.98 6.874-12.148 13.585-18.23 20.37-4.549.007-9.1-.08-13.645.057-2.297.069-4.581.763-6.874.78-3.91.029-7.688-.244-9.52 4.476-.343.888-2.501 1.298-3.887 1.514-4.255.666-8.54 1.148-12.816 1.666-3.1.375-5.581 1.245-7.12 4.526-.65 1.385-3.184 2.19-5.014 2.657-4.384 1.12-8.94.925-11.748 6.071-1.067 1.956-5.624 2.279-8.684 2.808-3.544.612-6.17 1.574-7.342 5.563-.381 1.3-3.206 2.451-5.024 2.645-4.18.447-8.842-.847-10.63 4.94-.267.86-2.184 1.534-3.42 1.708-3.347.472-5.875 1.54-7.245 5.077-.98 2.535-3.132 2.754-5.425.406 8.576-10.095 17.376-20.02 26.31-29.825 13.978-15.34 28.055-30.589 42.074-45.89 17.992-19.64 35.966-39.294 53.958-58.933.785-.857 1.668-1.625 2.774-2.59z"/>
  <path fill="#2EDDBD" d="M393.196 899.926c5.122 3.459.555 7.239-.026 10.565-.722 4.137-3.72 7.848-5.547 11.829-3.174 6.914-5.994 14-9.362 20.816-2.652 5.367-5.515 10.716-8.986 15.573-4.486 6.277-4.247 13.736-6.263 20.618-.506 1.726-.535 3.784-1.53 5.142-5.467 7.46-6.826 15.911-6.063 24.768.286 3.316 1.322 6.267-3.127 7.499-.863.239-1.801 1.642-1.993 2.645-1.81 9.444-3.557 18.904-5.062 28.4-.225 1.424.893 3.062 1.581 4.918-3.694 5.125-7.58 9.932-11.903 15.193-.935 1.335-1.433 2.216-1.93 3.096-.63.787-1.26 1.574-1.96 2.664-4.59 4.79-9.404 9.024-13.576 13.816-10.557 12.122-20.805 24.513-31.242 36.74-.933 1.094-2.34 1.782-3.863 2.734 1.46-2.797 2.885-6.019 5.163-8.438 1.848-1.962 2.474-3.27 1.64-5.994-1.764-5.759-2.895-11.661 2.308-16.646.855-.818 1.354-2.338 1.441-3.574.469-6.62.73-13.254 1.11-19.88.662-11.57 1.333-23.139 2.082-34.703.07-1.098.387-2.596 1.146-3.166 4.355-3.27 4.108-8.24 4.559-12.697.751-7.418.789-14.908 1.094-22.867a1054.592 1054.592 0 0 1 26.417-29.77c8.449-9.16 17.203-18.039 25.628-27.22 12.751-13.897 25.333-27.95 38.264-42.06z"/>
  <path fill="#2FDCB9" d="M682.076 588.615c-5.133 1.444-5.404 5.135-4.04 9.727l-1.435.1c-1.182-1.11-2.365-2.22-3.732-3.65 3.007-3.848 6.2-7.375 9.689-11.095.062 1.383-.172 2.958-.482 4.918z"/>
  <path fill="#B6E8D7" d="M770.965 485.857c-.003.593-.17.824-.6 1.103-1.276-.976-2.36-2.052-3.444-3.127l2.352-2.293c.534 1.336 1.067 2.671 1.692 4.317z"/>
  <path fill="#2EDDBD" d="M394.654 898.11c.627.272 1.021.69 1.415 1.108-.582.197-1.164.395-2.064.525-.073-.54.17-1.014.649-1.633z"/>
  <path fill="#2FDCB9" d="M668.645 598.883c-.222.518-.708 1.204-1.52 1.97.2-.549.73-1.176 1.52-1.97z"/>
  <path fill="#31DBAA" d="M892.672 354.074c1.601 4.232-1.603 7.16-3.462 10.43-.265.465-2.768-.342-4.449-.915 2.4-3.35 5.012-6.346 7.911-9.515zM802.609 452.928a43.659 43.659 0 0 1-5.534 6.004c1.578-2.115 3.387-4.026 5.534-6.004z"/>
  <path fill="#30DCB2" d="M792.799 463.097c.04.14-.15.373-.548.721-.074-.16.101-.407.548-.721z"/>
  <path fill="#31DBAA" d="M806.741 448.023c.005.144-.234.403-.698.804.001-.134.227-.412.698-.804zM807.924 446.904c.009.164-.269.446-.78.906.008-.144.25-.466.78-.906z"/>
  <path fill="#A7E2DE" d="M658.215 695.426c6.2-7.098 12.367-13.81 18.348-20.683a23769.806 23769.806 0 0 0 63.155-72.854c2.69-3.117 4.936-6.615 7.434-10.272.047-.335.039-.39.368-.438 1.792-1.423 3.254-2.798 4.717-4.174 8.082-9.034 16.25-17.991 24.226-27.118 17.391-19.903 34.685-39.891 52.01-59.851.543-.625 1.003-1.32 1.624-2.274.853-1.1 1.585-1.909 2.708-3.145 1.119-1.309 1.845-2.191 2.572-3.073.436-.356.873-.712 1.616-1.443.516-.575.663-.814.75-1.09 3.005-3.417 6.01-6.834 9.41-10.408.597.36.801.879 1.006 1.397-.355.775-.71 1.55-1.447 2.833a642.955 642.955 0 0 0-4.726 7.16c-.315.435-.63.87-1.208 1.722-.456.699-.648.98-.841 1.26-.664 1.109-1.328 2.218-2.067 3.65-6.204 10.34-12.35 20.346-18.454 30.379a6467.675 6467.675 0 0 0-18.845 31.15c-2.6 4.328-5.075 8.73-7.908 13.672-1.166 2.08-2.032 3.587-2.898 5.093-.908 1.457-1.815 2.914-3.043 4.895a26.321 26.321 0 0 0-1.012 2.201c-.962 1.414-1.924 2.828-2.996 4.556-11.544 19.18-23.009 38.027-34.4 56.917a5541.34 5541.34 0 0 0-27.385 45.952c-9.188 15.222-18.332 30.148-27.96 45.368-.708.906-.933 1.519-1.159 2.131-.483.861-.967 1.722-2.057 2.725-11.339.323-22.015-3.55-32.889-.513-3.045-6.401-13.725-11.688-19.28-9.396-3.196 1.32-6.359 2.738-9.626 3.847-.836.284-2.012-.439-3.032-.7 2.482-2.95 4.964-5.902 7.745-8.666.996 1.196 1.694 2.204 2.391 3.212.347-1.237.9-2.466.953-3.716.028-.65-.825-1.337-1.28-2.007.568-.812 1.136-1.625 2.17-2.744.647-.592.83-.878 1.014-1.163 1.833-2.145 3.666-4.29 5.97-6.785.655-.641.837-.933 1.019-1.225 2.318-2.755 4.636-5.51 7.297-8.634.521-.522.673-.695 1.027-1.118.429-.83.632-1.431.834-2.033 1.344-1.428 2.688-2.856 4.15-4.597z"/>
  <path fill="#89E1DA" d="M624.64 735.076c1.306.087 2.482.81 3.318.526 3.267-1.109 6.43-2.528 9.626-3.847 5.555-2.292 16.235 2.995 19.28 9.396 10.874-3.038 21.55.836 32.686.738-5.837 10.778-11.99 21.525-18.342 32.154a2151.263 2151.263 0 0 1-26.267 42.83c-1.016 1.269-1.482 2.193-1.947 3.116-.205.528-.41 1.057-.812 1.792-1.071-.266-2.208-.532-2.779-1.248-3.5-4.396-6.787-6.897-12.274-2.072-2.396 2.107-7.046-1.02-7.915-5.28-.792-3.877-2.558-4.323-5.972-3.552-3.522.795-7.221 1.405-10.786 1.183-1.993-.123-3.905-2.046-5.789-3.258-1.595-1.026-2.976-2.472-4.677-3.224-1.627-.719-3.536-.834-5.335-1.126-9.32-1.515-9.322-1.505-11.614-10.896 10.857-13.329 21.72-26.338 32.791-39.165 5.302-6.142 11.002-11.94 16.808-18.067z"/>
  <path fill="#74E0D7" d="M643.262 819.826c.197-.76.663-1.684 1.44-2.714-.182.78-.677 1.666-1.44 2.714z"/>
  <path fill="#89E1DA" d="M692.056 738.77c-.02-.443.205-1.056.674-1.726.02.48-.205 1.018-.674 1.726z"/>
  <path fill="#2CDEC9" d="M1061.54 1095.108c3.99 1.616 7.384 3.707 11.069 4.614 5.79 1.424 10.068 5.761 10.356 11.867.132 2.802.031 5.614.037 8.874-58.02.475-116.04.496-174.53.5.568-8.887-1.639-17.135-5.372-25.458 22.345-.402 44.782-.487 67.22-.498 30.25-.015 60.502.027 91.22.1z"/>
  <path fill="#2EDDBD" d="M826.573 1520.569c-1.168-.01-2.265-.308-3.363-.607l.913-1.696c.84.671 1.68 1.342 2.45 2.303z"/>
  <path fill="#2DDEC6" d="M855.718 1448.221c.054-.266.206-.426.358-.586l.25.274c-.17.14-.34.28-.608.312z"/>
  <path fill="#2EDDBD" d="M825.01 1514.61c-.064-.001.006-.212.006-.212s.06.214-.006.212z"/>
  <path fill="#32DAA3" d="m662.998 2053 .14-.225s-.01.158-.074.192l-.066.033zM663.001 2053l-.136.22s.01-.153.071-.187c.062-.033.064-.033.065-.033z"/>
  <path fill="#2FDCB9" d="M790.124 576.874c.507-1.461 1.373-2.968 2.47-4.698 2.699 2.084 2.521 2.453-2.47 4.698zM785.991 583.957c-.05-.5.18-1.059.623-1.835.027.447-.157 1.112-.623 1.835z"/>
  <path fill="#30DCB2" d="M848.497 479.961c-.543-.48-.747-.997-1.196-1.652.392-1.394 1.028-2.653 1.665-3.911.78.491 2.282 1.317 2.232 1.423-.661 1.426-1.54 2.752-2.701 4.14zM842.319 489.918c1.115-2.142 2.564-4.36 4.266-6.79 2.242 4.141-2.046 4.702-4.266 6.79zM835.143 491.301c-.493 1.125-1.22 2.007-2.195 3.022-.462-.807-.675-1.746-.888-2.685.95-.193 1.9-.387 3.083-.337zM837.584 489.038c.072.249-.075.488-.456.814-.015-.178.142-.482.456-.814zM840.203 492.983c-.073-.289.12-.57.52-1.001.224.043.238.238.265.725.012.293.011.294.011.294-.177-.003-.354-.006-.796-.018zM841.001 493c.001-.001.219.137.219.137s-.154-.014-.187-.075c-.034-.06-.033-.062-.032-.063z"/>
  <path fill="#57E0D2" d="M391.622 1011.078c1.5.58 2.771 1.407 4.042 2.234l-2.213 1.533c-.687-1.173-1.373-2.346-1.829-3.767z"/>
  <path fill="#3FDEC9" d="M333.296 1070.883c.186-.775.684-1.656 1.445-2.707-.202.754-.668 1.677-1.445 2.707z"/>
  <path fill="#57E0D2" d="M384.206 1012.122c.278-.716.787-1.293 1.54-2.03a5.949 5.949 0 0 1-1.54 2.03z"/>
  <path fill="#2CDEC9" d="M1086.4 1120.939c-.08-5.606-.017-11.225.72-16.753.23-1.73 2.275-3.219 3.49-4.818.796 1.767 2.166 3.498 2.278 5.306.315 5.099.113 10.23.116 15.81-.744.496-1.49.528-2.606.581a127.832 127.832 0 0 1-3.998-.126z"/>
  <path fill="#49DFCE" d="M1142.978 1272.692c-.758-.121-1.537-.55-2.317-.98l.934-1.015c.454.562.908 1.125 1.383 1.995z"/>
  <path fill="#38DFC8" d="M945.524 1436.853c-.606.299-1.134.358-1.662.418l.479-1.51c.42.284.84.568 1.183 1.092z"/>
  <path fill="#89E1DA" d="M634.488 723.847c.702.548 1.555 1.236 1.527 1.885-.054 1.25-.606 2.479-.952 3.716-.698-1.008-1.396-2.016-2.11-3.419.418-.95.853-1.505 1.535-2.182z"/>
  <path fill="#2EDDBD" d="M653.76 700.118c.104.507-.1 1.108-.755 1.903-.453.193-.912.186-.912.186.454-.665.907-1.33 1.667-2.09z"/>
  <path fill="#89E1DA" d="M652.127 702.409c-.034-.202.425-.195.651-.16.1.23-.052.403-.369.654-.14.1-.248-.293-.282-.494zM644.706 711.968c.02.132-.162.424-.559.862-.024-.136.167-.419.56-.862zM637.703 719.96c.033.143-.151.429-.538.87-.028-.138.147-.433.538-.87z"/>
  <path fill="#2FDCB9" d="M751.843 587.023c-1.069 1.358-2.531 2.733-4.344 4.137 1.084-1.354 2.517-2.736 4.344-4.137zM682.02 589.293c.504.228 1.028.75 1.552 1.27l-.632.57c-.3-.516-.6-1.032-.92-1.84zM670.747 597.714c.524.283 1.043.605 1.561.927l-1.25 1.378c-.05-.591-.1-1.183-.272-2.015-.122-.24-.045-.252-.04-.29z"/>
</svg>